<?xml version="1.0" encoding="UTF-8" standalone="no"?>
<svg
   width="345"
   height="96"
   viewBox="0 0 91.281 25.400001"
   version="1.1"
   id="svg5"
   sodipodi:docname="portal-logo-typed.zh-cn.svg"
   inkscape:version="1.3.2 (091e20ef0f, 2023-11-25)"
   xmlns:inkscape="http://www.inkscape.org/namespaces/inkscape"
   xmlns:sodipodi="http://sodipodi.sourceforge.net/DTD/sodipodi-0.dtd"
   xmlns="http://www.w3.org/2000/svg"
   xmlns:svg="http://www.w3.org/2000/svg">
  <defs
     id="defs5" />
  <sodipodi:namedview
     id="namedview5"
     pagecolor="#ffffff"
     bordercolor="#000000"
     borderopacity="0.25"
     inkscape:showpageshadow="2"
     inkscape:pageopacity="0.0"
     inkscape:pagecheckerboard="0"
     inkscape:deskcolor="#d1d1d1"
     inkscape:zoom="1.1101449"
     inkscape:cx="182.85901"
     inkscape:cy="111.69713"
     inkscape:window-width="1536"
     inkscape:window-height="886"
     inkscape:window-x="0"
     inkscape:window-y="0"
     inkscape:window-maximized="1"
     inkscape:current-layer="g6" />
  <g
     transform="matrix(0.0267261,0,0,0.0267261,-0.68689698,-2.0624815)"
     id="g4">
    <circle
       cx="501.57999"
       cy="552.362"
       r="475.19101"
       style="color:#000000;display:inline;overflow:visible;visibility:visible;opacity:1;fill:#000000;fill-opacity:1;fill-rule:nonzero;stroke:none;stroke-width:2.299;stroke-linejoin:miter;stroke-miterlimit:4;stroke-dasharray:none;stroke-dashoffset:0;stroke-opacity:1;marker:none"
       id="circle1" />
    <circle
       cx="524"
       cy="550.362"
       r="54.066002"
       style="color:#000000;display:inline;overflow:visible;visibility:visible;opacity:1;fill:#ffffff;fill-opacity:1;fill-rule:nonzero;stroke:#ffffff;stroke-width:0.963797;stroke-linejoin:miter;stroke-miterlimit:4;stroke-dasharray:none;stroke-dashoffset:0;stroke-opacity:1;marker:none"
       id="circle2" />
    <path
       d="M 513.842,176.915 A 373.653,373.653 0 0 0 140.189,550.567 373.653,373.653 0 0 0 513.842,924.22 V 741.725 A 191.87,191.87 0 0 1 332.129,550.362 191.87,191.87 0 0 1 513.842,358.85 Z"
       style="color:#000000;display:inline;overflow:visible;visibility:visible;opacity:1;fill:#c00000;fill-opacity:1;fill-rule:nonzero;stroke:none;stroke-width:4.75142;stroke-linejoin:miter;stroke-miterlimit:4;stroke-dasharray:none;stroke-dashoffset:0;stroke-opacity:1;marker:none"
       id="path2" />
    <path
       d="M 514.768,394.052 A 156.086,156.086 0 0 0 358.684,550.138 156.086,156.086 0 0 0 514.768,706.222 V 631.95 a 82.154,82.154 0 0 1 -72.922,-81.588 82.154,82.154 0 0 1 72.922,-81.533 z"
       style="color:#000000;display:inline;overflow:visible;visibility:visible;opacity:1;fill:#0070c0;fill-opacity:1;fill-rule:nonzero;stroke:none;stroke-width:4.75142;stroke-linejoin:miter;stroke-miterlimit:4;stroke-dasharray:none;stroke-dashoffset:0;stroke-opacity:1;marker:none"
       id="path3" />
    <path
       d="m 531.568,230.53 v 160.873 a 159.34,159.34 0 0 1 151.77,158.96 159.34,159.34 0 0 1 -151.77,159.07 V 870.3 A 319.885,319.885 0 0 0 851.453,550.415 319.885,319.885 0 0 0 531.568,230.53"
       style="color:#000000;display:inline;overflow:visible;visibility:visible;opacity:1;fill:#ffc000;fill-opacity:1;fill-rule:nonzero;stroke:none;stroke-width:4.75142;stroke-linejoin:miter;stroke-miterlimit:4;stroke-dasharray:none;stroke-dashoffset:0;stroke-opacity:1;marker:none"
       id="path4" />
  </g>
  <text
     xml:space="preserve"
     x="28.863993"
     y="9.0944786"
     style="font-style:normal;font-weight:400;font-size:16.1281px;line-height:0.85;font-family:sans-serif;fill:#000000;fill-opacity:1;stroke:none;stroke-width:0.336001"
     id="text5"><tspan
       x="28.863993"
       y="9.0944786"
       style="font-style:normal;font-variant:normal;font-weight:normal;font-stretch:normal;font-size:11.6417px;font-family:MiSans;-inkscape-font-specification:MiSans;stroke-width:0.336001"
       id="tspan4">AOSC</tspan><tspan
       x="28.863993"
       y="23.835569"
       style="font-weight:700;font-size:16.1281px;stroke-width:0.336001"
       id="tspan5">社区门户</tspan></text>
  <g
     id="g6"
     transform="matrix(0.74999998,0,0,0.74999998,49.113252,-7.9374995)" />
</svg>
