<?xml version="1.0" encoding="UTF-8" standalone="no"?>
<svg
   width="345"
   height="96"
   viewBox="0 0 91.281 25.400001"
   version="1.1"
   id="svg5"
   sodipodi:docname="portal-logo.zh-cn.svg"
   inkscape:version="1.3.2 (091e20ef0f, 2023-11-25)"
   xmlns:inkscape="http://www.inkscape.org/namespaces/inkscape"
   xmlns:sodipodi="http://sodipodi.sourceforge.net/DTD/sodipodi-0.dtd"
   xmlns="http://www.w3.org/2000/svg"
   xmlns:svg="http://www.w3.org/2000/svg">
  <defs
     id="defs5" />
  <sodipodi:namedview
     id="namedview5"
     pagecolor="#ffffff"
     bordercolor="#000000"
     borderopacity="0.25"
     inkscape:showpageshadow="2"
     inkscape:pageopacity="0.0"
     inkscape:pagecheckerboard="0"
     inkscape:deskcolor="#d1d1d1"
     inkscape:zoom="1.1101449"
     inkscape:cx="182.85901"
     inkscape:cy="111.69713"
     inkscape:window-width="1536"
     inkscape:window-height="886"
     inkscape:window-x="0"
     inkscape:window-y="0"
     inkscape:window-maximized="1"
     inkscape:current-layer="svg5" />
  <g
     transform="matrix(0.0267261,0,0,0.0267261,-0.68689698,-2.0624815)"
     id="g4">
    <circle
       cx="501.57999"
       cy="552.362"
       r="475.19101"
       style="color:#000000;display:inline;overflow:visible;visibility:visible;opacity:1;fill:#000000;fill-opacity:1;fill-rule:nonzero;stroke:none;stroke-width:2.299;stroke-linejoin:miter;stroke-miterlimit:4;stroke-dasharray:none;stroke-dashoffset:0;stroke-opacity:1;marker:none"
       id="circle1" />
    <circle
       cx="524"
       cy="550.362"
       r="54.066002"
       style="color:#000000;display:inline;overflow:visible;visibility:visible;opacity:1;fill:#ffffff;fill-opacity:1;fill-rule:nonzero;stroke:#ffffff;stroke-width:0.963797;stroke-linejoin:miter;stroke-miterlimit:4;stroke-dasharray:none;stroke-dashoffset:0;stroke-opacity:1;marker:none"
       id="circle2" />
    <path
       d="M 513.842,176.915 A 373.653,373.653 0 0 0 140.189,550.567 373.653,373.653 0 0 0 513.842,924.22 V 741.725 A 191.87,191.87 0 0 1 332.129,550.362 191.87,191.87 0 0 1 513.842,358.85 Z"
       style="color:#000000;display:inline;overflow:visible;visibility:visible;opacity:1;fill:#c00000;fill-opacity:1;fill-rule:nonzero;stroke:none;stroke-width:4.75142;stroke-linejoin:miter;stroke-miterlimit:4;stroke-dasharray:none;stroke-dashoffset:0;stroke-opacity:1;marker:none"
       id="path2" />
    <path
       d="M 514.768,394.052 A 156.086,156.086 0 0 0 358.684,550.138 156.086,156.086 0 0 0 514.768,706.222 V 631.95 a 82.154,82.154 0 0 1 -72.922,-81.588 82.154,82.154 0 0 1 72.922,-81.533 z"
       style="color:#000000;display:inline;overflow:visible;visibility:visible;opacity:1;fill:#0070c0;fill-opacity:1;fill-rule:nonzero;stroke:none;stroke-width:4.75142;stroke-linejoin:miter;stroke-miterlimit:4;stroke-dasharray:none;stroke-dashoffset:0;stroke-opacity:1;marker:none"
       id="path3" />
    <path
       d="m 531.568,230.53 v 160.873 a 159.34,159.34 0 0 1 151.77,158.96 159.34,159.34 0 0 1 -151.77,159.07 V 870.3 A 319.885,319.885 0 0 0 851.453,550.415 319.885,319.885 0 0 0 531.568,230.53"
       style="color:#000000;display:inline;overflow:visible;visibility:visible;opacity:1;fill:#ffc000;fill-opacity:1;fill-rule:nonzero;stroke:none;stroke-width:4.75142;stroke-linejoin:miter;stroke-miterlimit:4;stroke-dasharray:none;stroke-dashoffset:0;stroke-opacity:1;marker:none"
       id="path4" />
  </g>
  <g
     id="text5"
     style="font-size:16.1281px;stroke-width:0.336001"
     aria-label="AOSC社区门户">
    <path
       style="-inkscape-font-specification:MiSans"
       d="m 36.687215,9.1294037 h -1.23402 L 34.417083,6.2771873 h -3.131617 l -1.036111,2.8522164 h -1.245662 l 3.236393,-8.69634974 h 1.210736 z M 32.810529,2.0861753 31.681284,5.1828675 h 2.32834 L 32.880379,2.0861753 Z m 8.219042,7.2062122 q -1.210737,0 -2.107148,-0.5355182 -0.896411,-0.5471599 -1.385362,-1.5599878 -0.47731,-1.0244695 -0.47731,-2.4214735 0,-1.397004 0.47731,-2.4098319 0.488951,-1.0244696 1.385362,-1.55998774 0.896411,-0.53551819 2.107148,-0.53551819 1.210737,0 2.107148,0.53551819 0.896411,0.53551814 1.37372,1.55998774 0.488952,1.0128279 0.488952,2.4098319 0,1.397004 -0.488952,2.4214735 -0.477309,1.0128279 -1.37372,1.5599878 -0.896411,0.5355182 -2.107148,0.5355182 z m 0,-1.1059615 q 0.838202,0 1.466854,-0.3958178 0.628652,-0.4074595 0.966261,-1.1758116 0.349251,-0.7683522 0.349251,-1.8393886 0,-1.0593947 -0.349251,-1.8277469 -0.337609,-0.7683522 -0.966261,-1.1758117 -0.628652,-0.4074595 -1.466854,-0.4074595 -1.280587,0 -2.025656,0.9080526 -0.745069,0.8964109 -0.745069,2.5029655 0,1.6065546 0.745069,2.5146071 0.745069,0.8964109 2.025656,0.8964109 z m 8.184114,1.047753 q -1.059395,0 -1.909239,-0.4540263 -0.849844,-0.4540263 -1.315512,-1.2689453 l 0.942977,-0.6519352 q 0.372535,0.6519352 0.95462,0.9779028 0.582085,0.3259676 1.338795,0.3259676 0.826561,0 1.362079,-0.3725344 0.54716,-0.3841761 0.54716,-0.9779028 0,-0.4074594 -0.221192,-0.6868602 Q 50.703822,5.8464444 50.238154,5.6368938 49.784128,5.4273432 48.992492,5.2061509 48.107723,4.9616752 47.53728,4.7171995 46.978478,4.4610821 46.58266,3.9721307 46.186843,3.4715376 46.186843,2.679902 q 0,-0.698502 0.384176,-1.2573036 0.395818,-0.57044324 1.09432,-0.88476914 0.698502,-0.31432589 1.594912,-0.31432589 1.02447,0 1.769539,0.43074289 0.75671,0.41910124 1.210737,1.16416994 L 51.332474,2.4354263 Q 50.95994,1.8999081 50.41278,1.5972239 49.86562,1.2945397 49.236968,1.2945397 q -0.512235,0 -0.942978,0.1746255 -0.430743,0.1746255 -0.675218,0.4773097 -0.244476,0.3026842 -0.244476,0.6635769 0,0.4773097 0.267759,0.7799939 0.279401,0.2910425 0.710144,0.465668 0.430743,0.1746255 1.16417,0.3608927 0.849844,0.232834 1.431929,0.5122348 0.593727,0.2677591 0.977903,0.7683522 0.384176,0.4889514 0.384176,1.2689452 0,0.7450688 -0.384176,1.3038704 -0.384176,0.5588016 -1.082678,0.8614858 -0.698502,0.3026842 -1.629838,0.3026842 z m 11.36229,-1.5716295 q -0.47731,0.7567105 -1.280587,1.1990951 -0.791636,0.4307429 -1.781181,0.4307429 -1.210736,0 -2.130431,-0.5588016 -0.919694,-0.5588016 -1.431929,-1.5832712 -0.500593,-1.0361112 -0.500593,-2.4214735 0,-1.3504372 0.500593,-2.3516234 0.500593,-1.0128279 1.420288,-1.55998774 0.919694,-0.54715989 2.142072,-0.54715989 0.989545,0 1.792822,0.44238459 0.814919,0.43074284 1.268946,1.17581164 L 59.644639,2.5285599 Q 59.295388,1.9930417 58.701661,1.6787158 58.107934,1.3643899 57.502566,1.3643899 q -0.861486,0 -1.501779,0.4074595 -0.640294,0.4074595 -0.989545,1.1758117 -0.349251,0.7567105 -0.349251,1.7811801 0,1.047753 0.349251,1.8277469 0.349251,0.7799938 0.989545,1.2107367 0.651935,0.4191012 1.501779,0.4191012 0.61701,0 1.187453,-0.3143259 0.570443,-0.3143259 0.95462,-0.8614858 z"
       id="path1" />
    <path
       d="m 31.121927,10.852449 c 0.483843,0.59674 0.999942,1.387017 1.290248,1.983757 h -2.822418 v 1.741834 h 3.693335 c -0.983814,1.709579 -2.564368,3.306261 -4.177178,4.177178 0.241922,0.387074 0.612868,1.435401 0.741893,1.999884 0.628996,-0.387074 1.257992,-0.887045 1.854731,-1.451529 v 5.967397 h 1.886988 v -6.322215 c 0.451587,0.564484 0.903173,1.145095 1.177351,1.564426 l 1.193479,-1.596682 c -0.306433,-0.322562 -1.483785,-1.451529 -2.145037,-2.03214 0.758021,-1.048327 1.403145,-2.193422 1.87086,-3.386901 l -1.016071,-0.725765 -0.33869,0.06451 h -1.467657 l 1.241864,-0.725765 c -0.290306,-0.59674 -0.903174,-1.451529 -1.467657,-2.064397 z m 7.902768,-0.628996 v 4.741662 H 35.84746 v 1.870859 h 3.177235 v 6.031909 h -3.886872 v 1.903116 h 9.33817 V 22.867883 H 41.02458 v -6.031909 h 3.064339 V 14.965115 H 41.02458 v -4.741662 z m 20.982658,0.612868 H 46.314596 V 24.819383 H 60.442811 V 22.964652 H 48.217712 V 12.691053 h 11.789641 z m -10.773571,4.032025 c 1.096711,0.870917 2.338575,1.886988 3.532054,2.935314 -1.290248,1.177351 -2.741777,2.193422 -4.209434,2.96757 0.435459,0.338691 1.177351,1.096711 1.483785,1.483786 1.403145,-0.85479 2.822418,-1.9515 4.16105,-3.209492 1.290248,1.177351 2.451471,2.306318 3.209492,3.193364 l 1.516041,-1.435401 c -0.822533,-0.887046 -2.048269,-1.999885 -3.370773,-3.128852 1.064455,-1.161223 2.032141,-2.419215 2.838546,-3.725591 l -1.822475,-0.741892 c -0.677381,1.145095 -1.516042,2.257934 -2.4676,3.274004 -1.225735,-0.983814 -2.467599,-1.9515 -3.532053,-2.774033 z M 62.894283,11.01373 c 0.822533,0.983814 1.854731,2.322447 2.306318,3.177236 l 1.580553,-1.145095 C 66.297311,12.20721 65.200601,10.949218 64.378068,10.029916 Z m -0.483843,2.693393 v 11.547719 h 1.983756 V 13.707123 Z m 4.596508,-3.048211 v 1.854732 h 7.047979 v 10.547777 c 0,0.322562 -0.112896,0.41933 -0.41933,0.41933 -0.322562,0.01613 -1.435401,0.01613 -2.386959,-0.03226 0.274178,0.483843 0.564484,1.306376 0.661252,1.822475 1.499913,0.01613 2.515984,-0.01613 3.193364,-0.322562 0.67738,-0.306434 0.919301,-0.806405 0.919301,-1.854731 V 10.658912 Z m 14.595932,3.709463 h 7.644719 v 2.532112 H 81.60288 v -0.677381 z m 2.403087,-3.838488 c 0.274177,0.612868 0.596739,1.435401 0.790276,2.032141 h -5.225504 v 3.661078 c 0,2.354703 -0.161281,5.709348 -1.903115,7.999538 0.467714,0.209665 1.338632,0.822533 1.709578,1.177351 1.370889,-1.790219 1.919244,-4.386843 2.128909,-6.693161 h 7.741488 v 0.838661 h 1.983756 V 12.562028 H 85.892954 L 86.86064,12.28785 c -0.193537,-0.628996 -0.564483,-1.548297 -0.919301,-2.241806 z"
       id="path5" />
  </g>
</svg>
