<?xml version="1.0" encoding="UTF-8" standalone="no"?>
<svg
   width="316.40201"
   height="96"
   viewBox="0 0 83.714469 25.4"
   version="1.1"
   id="svg6"
   sodipodi:docname="portal-logo-typed.en.svg"
   inkscape:version="1.3.2 (091e20ef0f, 2023-11-25)"
   xmlns:inkscape="http://www.inkscape.org/namespaces/inkscape"
   xmlns:sodipodi="http://sodipodi.sourceforge.net/DTD/sodipodi-0.dtd"
   xmlns="http://www.w3.org/2000/svg"
   xmlns:svg="http://www.w3.org/2000/svg">
  <defs
     id="defs6" />
  <sodipodi:namedview
     id="namedview6"
     pagecolor="#ffffff"
     bordercolor="#000000"
     borderopacity="0.25"
     inkscape:showpageshadow="2"
     inkscape:pageopacity="0.0"
     inkscape:pagecheckerboard="0"
     inkscape:deskcolor="#d1d1d1"
     inkscape:zoom="2.2202899"
     inkscape:cx="170.24804"
     inkscape:cy="59.001304"
     inkscape:window-width="1536"
     inkscape:window-height="886"
     inkscape:window-x="0"
     inkscape:window-y="0"
     inkscape:window-maximized="1"
     inkscape:current-layer="svg6" />
  <g
     id="g7"
     transform="matrix(0.99933116,0,0,0.99933116,-0.01849007,-4.6860002e-8)">
    <g
       transform="matrix(0.02673,0,0,0.02673,-0.687,-2.062)"
       id="g4">
      <circle
         cx="501.57999"
         cy="552.362"
         r="475.19101"
         style="color:#000000;display:inline;overflow:visible;visibility:visible;opacity:1;fill:#000000;fill-opacity:1;fill-rule:nonzero;stroke:none;stroke-width:2.299;stroke-linejoin:miter;stroke-miterlimit:4;stroke-dasharray:none;stroke-dashoffset:0;stroke-opacity:1;marker:none"
         id="circle1" />
      <circle
         cx="524"
         cy="550.362"
         r="54.066002"
         style="color:#000000;display:inline;overflow:visible;visibility:visible;opacity:1;fill:#ffffff;fill-opacity:1;fill-rule:nonzero;stroke:#ffffff;stroke-width:0.963797;stroke-linejoin:miter;stroke-miterlimit:4;stroke-dasharray:none;stroke-dashoffset:0;stroke-opacity:1;marker:none"
         id="circle2" />
      <path
         d="M 513.842,176.915 A 373.653,373.653 0 0 0 140.189,550.567 373.653,373.653 0 0 0 513.842,924.22 V 741.725 A 191.87,191.87 0 0 1 332.129,550.362 191.87,191.87 0 0 1 513.842,358.85 Z"
         style="color:#000000;display:inline;overflow:visible;visibility:visible;opacity:1;fill:#c00000;fill-opacity:1;fill-rule:nonzero;stroke:none;stroke-width:4.75142;stroke-linejoin:miter;stroke-miterlimit:4;stroke-dasharray:none;stroke-dashoffset:0;stroke-opacity:1;marker:none"
         id="path2" />
      <path
         d="M 514.768,394.052 A 156.086,156.086 0 0 0 358.684,550.138 156.086,156.086 0 0 0 514.768,706.222 V 631.95 a 82.154,82.154 0 0 1 -72.922,-81.588 82.154,82.154 0 0 1 72.922,-81.533 z"
         style="color:#000000;display:inline;overflow:visible;visibility:visible;opacity:1;fill:#0070c0;fill-opacity:1;fill-rule:nonzero;stroke:none;stroke-width:4.75142;stroke-linejoin:miter;stroke-miterlimit:4;stroke-dasharray:none;stroke-dashoffset:0;stroke-opacity:1;marker:none"
         id="path3" />
      <path
         d="m 531.568,230.53 v 160.873 a 159.34,159.34 0 0 1 151.77,158.96 159.34,159.34 0 0 1 -151.77,159.07 V 870.3 A 319.885,319.885 0 0 0 851.453,550.415 319.885,319.885 0 0 0 531.568,230.53"
         style="color:#000000;display:inline;overflow:visible;visibility:visible;opacity:1;fill:#ffc000;fill-opacity:1;fill-rule:nonzero;stroke:none;stroke-width:4.75142;stroke-linejoin:miter;stroke-miterlimit:4;stroke-dasharray:none;stroke-dashoffset:0;stroke-opacity:1;marker:none"
         id="path4" />
    </g>
    <g
       aria-label="Portal"
       style="font-size:20.6375px;line-height:1.25;stroke-width:0.264583"
       id="g6">
      <path
         d="m 31.6,19.783 v 5.431 H 28.98 V 10.461 q 2.62,-0.11 3.063,-0.11 3.497,0 5.11,1.078 1.622,1.068 1.622,3.345 0,5.08 -5.986,5.08 -0.444,0 -1.19,-0.071 m 0,-7.054 v 4.726 q 0.665,0.07 1.048,0.07 1.793,0 2.62,-0.594 0.826,-0.605 0.826,-1.955 0,-2.298 -3.698,-2.298 -0.413,0 -0.796,0.05 m 7.669,7.065 q 0,-2.47 1.421,-4.021 1.431,-1.552 3.769,-1.552 2.459,0 3.82,1.491 1.361,1.491 1.36,4.082 0,2.58 -1.391,4.1 -1.38,1.523 -3.79,1.523 -2.458,0 -3.828,-1.532 -1.36,-1.542 -1.36,-4.091 m 2.62,0 q 0,3.567 2.57,3.567 1.179,0 1.864,-0.927 0.695,-0.927 0.695,-2.64 0,-3.517 -2.56,-3.517 -1.178,0 -1.873,0.927 -0.695,0.927 -0.696,2.59 M 57.89,16.77 q -0.675,-0.444 -1.48,-0.444 -0.878,0 -1.563,0.796 -0.675,0.796 -0.675,1.945 v 6.147 h -2.52 V 14.422 h 2.52 v 0.987 q 1.058,-1.189 2.812,-1.189 1.29,0 1.975,0.393 z m 2.963,-0.323 h -1.25 v -2.025 h 1.25 v -2.197 l 2.52,-0.927 v 3.124 h 2.962 v 2.025 h -2.963 v 4.726 q 0,1.159 0.363,1.643 0.363,0.473 1.27,0.473 0.907,0 1.693,-0.493 v 2.317 q -0.877,0.303 -2.5,0.303 -1.612,0 -2.478,-0.907 -0.867,-0.917 -0.867,-2.6 z m 13.805,7.689 q -0.342,0.564 -1.199,0.927 -0.846,0.353 -1.773,0.353 -1.744,0 -2.741,-0.867 -0.998,-0.877 -0.998,-2.479 0,-1.874 1.4,-2.932 1.412,-1.058 4.001,-1.058 0.444,0 1.048,0.15 0,-1.904 -2.408,-1.904 -1.42,0 -2.378,0.474 l -0.544,-1.955 q 1.3,-0.625 3.093,-0.625 2.47,0 3.618,1.129 1.149,1.118 1.149,4.252 v 2.308 q 0,2.156 0.866,2.71 -0.312,0.545 -0.695,0.666 -0.383,0.13 -0.877,0.13 -0.544,0 -0.977,-0.403 -0.433,-0.403 -0.585,-0.876 m -0.241,-4 q -0.645,-0.132 -0.968,-0.132 -2.983,0 -2.983,1.955 0,1.451 1.683,1.451 2.268,0 2.268,-2.267 z M 80.08,10.4 82.599,9.796 V 21.93 q 0,1.995 1.19,2.378 -0.585,1.109 -1.996,1.109 -1.713,0 -1.713,-2.379 z"
         style="font-weight:700;font-family:'Trebuchet MS';-inkscape-font-specification:'Trebuchet MS Bold'"
         id="path6" />
      <text
         xml:space="preserve"
         style="font-size:4.9422px;line-height:1.1;font-family:MiSans;-inkscape-font-specification:MiSans;text-decoration-color:#000000;letter-spacing:0px;fill:#000000;fill-opacity:1;stroke-width:0.723484;stroke-linecap:round;stroke-linejoin:round;-inkscape-stroke:none;paint-order:stroke fill markers"
         x="28.728443"
         y="8.8895054"
         id="text1"><tspan
           sodipodi:role="line"
           id="tspan1"
           style="font-size:11.2964px;line-height:1.1;fill:#000000;fill-opacity:1;stroke-width:0.723484"
           x="28.728443"
           y="8.8895054">AOSC</tspan><tspan
           sodipodi:role="line"
           style="font-size:15.5326px;line-height:1.1;fill:#000000;fill-opacity:1;stroke-width:0.723484"
           x="28.728443"
           y="15.342598"
           id="tspan2" /></text>
      <text
         xml:space="preserve"
         style="font-size:15.5326px;line-height:1.1;font-family:MiSans;-inkscape-font-specification:MiSans;text-decoration-color:#000000;letter-spacing:0px;fill:#000000;fill-opacity:1;stroke-width:0.723484;stroke-linecap:round;stroke-linejoin:round;-inkscape-stroke:none;paint-order:stroke fill markers"
         x="40.904404"
         y="37.039238"
         id="text3"><tspan
           sodipodi:role="line"
           id="tspan3"
           style="stroke-width:0.723484" /></text>
    </g>
  </g>
</svg>
