<?xml version="1.0" encoding="UTF-8" standalone="no"?>
<svg
   width="316.40201"
   height="96"
   viewBox="0 0 83.714469 25.4"
   version="1.1"
   id="svg6"
   sodipodi:docname="portal-logo.en.svg"
   inkscape:version="1.3.2 (091e20ef0f, 2023-11-25)"
   xmlns:inkscape="http://www.inkscape.org/namespaces/inkscape"
   xmlns:sodipodi="http://sodipodi.sourceforge.net/DTD/sodipodi-0.dtd"
   xmlns="http://www.w3.org/2000/svg"
   xmlns:svg="http://www.w3.org/2000/svg">
  <defs
     id="defs6" />
  <sodipodi:namedview
     id="namedview6"
     pagecolor="#ffffff"
     bordercolor="#000000"
     borderopacity="0.25"
     inkscape:showpageshadow="2"
     inkscape:pageopacity="0.0"
     inkscape:pagecheckerboard="0"
     inkscape:deskcolor="#d1d1d1"
     inkscape:zoom="2.2202899"
     inkscape:cx="222.04308"
     inkscape:cy="59.001304"
     inkscape:window-width="1536"
     inkscape:window-height="886"
     inkscape:window-x="0"
     inkscape:window-y="0"
     inkscape:window-maximized="1"
     inkscape:current-layer="svg6" />
  <g
     id="g7"
     transform="matrix(0.99933116,0,0,0.99933116,-0.01849007,-4.6860002e-8)">
    <g
       transform="matrix(0.02673,0,0,0.02673,-0.687,-2.062)"
       id="g4">
      <circle
         cx="501.57999"
         cy="552.362"
         r="475.19101"
         style="color:#000000;display:inline;overflow:visible;visibility:visible;opacity:1;fill:#000000;fill-opacity:1;fill-rule:nonzero;stroke:none;stroke-width:2.299;stroke-linejoin:miter;stroke-miterlimit:4;stroke-dasharray:none;stroke-dashoffset:0;stroke-opacity:1;marker:none"
         id="circle1" />
      <circle
         cx="524"
         cy="550.362"
         r="54.066002"
         style="color:#000000;display:inline;overflow:visible;visibility:visible;opacity:1;fill:#ffffff;fill-opacity:1;fill-rule:nonzero;stroke:#ffffff;stroke-width:0.963797;stroke-linejoin:miter;stroke-miterlimit:4;stroke-dasharray:none;stroke-dashoffset:0;stroke-opacity:1;marker:none"
         id="circle2" />
      <path
         d="M 513.842,176.915 A 373.653,373.653 0 0 0 140.189,550.567 373.653,373.653 0 0 0 513.842,924.22 V 741.725 A 191.87,191.87 0 0 1 332.129,550.362 191.87,191.87 0 0 1 513.842,358.85 Z"
         style="color:#000000;display:inline;overflow:visible;visibility:visible;opacity:1;fill:#c00000;fill-opacity:1;fill-rule:nonzero;stroke:none;stroke-width:4.75142;stroke-linejoin:miter;stroke-miterlimit:4;stroke-dasharray:none;stroke-dashoffset:0;stroke-opacity:1;marker:none"
         id="path2" />
      <path
         d="M 514.768,394.052 A 156.086,156.086 0 0 0 358.684,550.138 156.086,156.086 0 0 0 514.768,706.222 V 631.95 a 82.154,82.154 0 0 1 -72.922,-81.588 82.154,82.154 0 0 1 72.922,-81.533 z"
         style="color:#000000;display:inline;overflow:visible;visibility:visible;opacity:1;fill:#0070c0;fill-opacity:1;fill-rule:nonzero;stroke:none;stroke-width:4.75142;stroke-linejoin:miter;stroke-miterlimit:4;stroke-dasharray:none;stroke-dashoffset:0;stroke-opacity:1;marker:none"
         id="path3" />
      <path
         d="m 531.568,230.53 v 160.873 a 159.34,159.34 0 0 1 151.77,158.96 159.34,159.34 0 0 1 -151.77,159.07 V 870.3 A 319.885,319.885 0 0 0 851.453,550.415 319.885,319.885 0 0 0 531.568,230.53"
         style="color:#000000;display:inline;overflow:visible;visibility:visible;opacity:1;fill:#ffc000;fill-opacity:1;fill-rule:nonzero;stroke:none;stroke-width:4.75142;stroke-linejoin:miter;stroke-miterlimit:4;stroke-dasharray:none;stroke-dashoffset:0;stroke-opacity:1;marker:none"
         id="path4" />
    </g>
    <g
       aria-label="Portal"
       style="font-size:20.6375px;line-height:1.25;stroke-width:0.264583"
       id="g6">
      <path
         d="m 31.6,19.783 v 5.431 H 28.98 V 10.461 q 2.62,-0.11 3.063,-0.11 3.497,0 5.11,1.078 1.622,1.068 1.622,3.345 0,5.08 -5.986,5.08 -0.444,0 -1.19,-0.071 m 0,-7.054 v 4.726 q 0.665,0.07 1.048,0.07 1.793,0 2.62,-0.594 0.826,-0.605 0.826,-1.955 0,-2.298 -3.698,-2.298 -0.413,0 -0.796,0.05 m 7.669,7.065 q 0,-2.47 1.421,-4.021 1.431,-1.552 3.769,-1.552 2.459,0 3.82,1.491 1.361,1.491 1.36,4.082 0,2.58 -1.391,4.1 -1.38,1.523 -3.79,1.523 -2.458,0 -3.828,-1.532 -1.36,-1.542 -1.36,-4.091 m 2.62,0 q 0,3.567 2.57,3.567 1.179,0 1.864,-0.927 0.695,-0.927 0.695,-2.64 0,-3.517 -2.56,-3.517 -1.178,0 -1.873,0.927 -0.695,0.927 -0.696,2.59 M 57.89,16.77 q -0.675,-0.444 -1.48,-0.444 -0.878,0 -1.563,0.796 -0.675,0.796 -0.675,1.945 v 6.147 h -2.52 V 14.422 h 2.52 v 0.987 q 1.058,-1.189 2.812,-1.189 1.29,0 1.975,0.393 z m 2.963,-0.323 h -1.25 v -2.025 h 1.25 v -2.197 l 2.52,-0.927 v 3.124 h 2.962 v 2.025 h -2.963 v 4.726 q 0,1.159 0.363,1.643 0.363,0.473 1.27,0.473 0.907,0 1.693,-0.493 v 2.317 q -0.877,0.303 -2.5,0.303 -1.612,0 -2.478,-0.907 -0.867,-0.917 -0.867,-2.6 z m 13.805,7.689 q -0.342,0.564 -1.199,0.927 -0.846,0.353 -1.773,0.353 -1.744,0 -2.741,-0.867 -0.998,-0.877 -0.998,-2.479 0,-1.874 1.4,-2.932 1.412,-1.058 4.001,-1.058 0.444,0 1.048,0.15 0,-1.904 -2.408,-1.904 -1.42,0 -2.378,0.474 l -0.544,-1.955 q 1.3,-0.625 3.093,-0.625 2.47,0 3.618,1.129 1.149,1.118 1.149,4.252 v 2.308 q 0,2.156 0.866,2.71 -0.312,0.545 -0.695,0.666 -0.383,0.13 -0.877,0.13 -0.544,0 -0.977,-0.403 -0.433,-0.403 -0.585,-0.876 m -0.241,-4 q -0.645,-0.132 -0.968,-0.132 -2.983,0 -2.983,1.955 0,1.451 1.683,1.451 2.268,0 2.268,-2.267 z M 80.08,10.4 82.599,9.796 V 21.93 q 0,1.995 1.19,2.378 -0.585,1.109 -1.996,1.109 -1.713,0 -1.713,-2.379 z"
         style="font-weight:700;font-family:'Trebuchet MS';-inkscape-font-specification:'Trebuchet MS Bold'"
         id="path6" />
      <path
         style="font-size:11.2964px;line-height:1.1;font-family:MiSans;-inkscape-font-specification:MiSans;letter-spacing:0px;stroke-width:0.723484;stroke-linecap:round;stroke-linejoin:round;paint-order:stroke fill markers"
         d="m 36.319624,8.9233946 h -1.197418 l -1.00538,-2.767618 h -3.038732 l -1.005379,2.767618 H 28.864 l 3.140399,-8.43841087 h 1.174826 z M 32.557923,2.0890725 31.462172,5.093915 h 2.25928 L 32.625701,2.0890725 Z m 7.97526,6.9924717 q -1.174825,0 -2.044648,-0.5196344 Q 37.618712,8.030979 37.144263,7.0481922 36.681111,6.054109 36.681111,4.698541 q 0,-1.355568 0.463152,-2.3383549 0.474449,-0.9940832 1.344272,-1.51371756 0.869823,-0.51963441 2.044648,-0.51963441 1.174826,0 2.044649,0.51963441 0.869822,0.51963436 1.332975,1.51371756 0.474449,0.9827869 0.474449,2.3383549 0,1.355568 -0.474449,2.3496512 -0.463153,0.9827868 -1.332975,1.5137176 -0.869823,0.5196344 -2.044649,0.5196344 z m 0,-1.073158 q 0.813341,0 1.423347,-0.3840776 0.610005,-0.395374 0.937601,-1.1409364 0.338892,-0.7455624 0.338892,-1.7848312 0,-1.0279724 -0.338892,-1.7735349 -0.327596,-0.7455624 -0.937601,-1.1409364 -0.610006,-0.395374 -1.423347,-0.395374 -1.242604,0 -1.965573,0.8811192 -0.72297,0.8698229 -0.72297,2.4287261 0,1.5589032 0.72297,2.4400224 0.722969,0.8698228 1.965573,0.8698228 z m 7.941367,1.016676 q -1.027972,0 -1.852609,-0.4405596 Q 45.797304,8.143943 45.345448,7.353195 l 0.915008,-0.6325984 q 0.361485,0.6325984 0.926305,0.9488976 0.56482,0.3162992 1.299086,0.3162992 0.802044,0 1.321679,-0.3614848 0.53093,-0.3727812 0.53093,-0.9488976 0,-0.395374 -0.214631,-0.6664876 Q 49.92049,5.7378098 49.468634,5.5344746 49.028074,5.3311394 48.259919,5.1165078 47.401392,4.8792834 46.847869,4.642059 46.305642,4.3935382 45.921564,3.9190894 45.537486,3.4333442 45.537486,2.6651889 q 0,-0.677784 0.372782,-1.2200112 0.384077,-0.55352356 1.061861,-0.85852637 0.677784,-0.3050028 1.547607,-0.3050028 0.994083,0 1.717053,0.41796681 0.734266,0.40667036 1.174825,1.12963996 L 50.530495,2.4279645 Q 50.16901,1.9083301 49.63808,1.6146237 49.107149,1.3209173 48.497143,1.3209173 q -0.497041,0 -0.915008,0.169446 -0.417967,0.169446 -0.655191,0.4631524 -0.237225,0.2937064 -0.237225,0.6438948 0,0.4631525 0.259817,0.7568589 0.271114,0.28241 0.689081,0.451856 0.417967,0.169446 1.12964,0.3501884 0.824637,0.225928 1.389457,0.4970416 0.576116,0.2598172 0.948898,0.7455624 0.372781,0.4744488 0.372781,1.2313076 0,0.7229696 -0.372781,1.2651968 -0.372782,0.5422272 -1.050566,0.8359336 -0.677784,0.2937064 -1.581496,0.2937064 z m 11.025279,-1.525014 q -0.463153,0.734266 -1.242604,1.1635292 -0.768156,0.4179668 -1.72835,0.4179668 -1.174825,0 -2.067241,-0.5422272 Q 53.569219,7.9970898 53.072177,7.0030066 52.586432,5.997627 52.586432,4.6533554 q 0,-1.3103824 0.485745,-2.2818729 0.485745,-0.9827868 1.378161,-1.51371756 0.892415,-0.53093081 2.078537,-0.53093081 0.960194,0 1.739646,0.42926321 0.790748,0.41796676 1.231308,1.14093636 l -0.903712,0.621302 Q 58.257225,1.9987013 57.681108,1.6936985 57.104992,1.3886957 56.517579,1.3886957 q -0.835934,0 -1.457236,0.395374 -0.621302,0.395374 -0.960194,1.1409364 -0.338892,0.7342661 -0.338892,1.7283493 0,1.016676 0.338892,1.7735348 0.338892,0.7568588 0.960194,1.1748256 0.632599,0.4066704 1.457236,0.4066704 0.598709,0 1.152233,-0.3050028 0.553523,-0.3050028 0.926305,-0.8359336 z"
         id="text1"
         aria-label="AOSC&#10;" />
      <text
         xml:space="preserve"
         style="font-size:15.5326px;line-height:1.1;font-family:MiSans;-inkscape-font-specification:MiSans;text-decoration-color:#000000;letter-spacing:0px;fill:#000000;fill-opacity:1;stroke-width:0.723484;stroke-linecap:round;stroke-linejoin:round;-inkscape-stroke:none;paint-order:stroke fill markers"
         x="40.904404"
         y="37.039238"
         id="text3"><tspan
           sodipodi:role="line"
           id="tspan3"
           style="stroke-width:0.723484" /></text>
    </g>
  </g>
</svg>
