<?xml version="1.0" encoding="UTF-8" standalone="no"?>
<!-- Created with Inkscape (http://www.inkscape.org/) -->

<svg
   width="2560"
   height="1440"
   viewBox="0 0 677.33331 381"
   version="1.1"
   id="svg1"
   xml:space="preserve"
   xmlns:xlink="http://www.w3.org/1999/xlink"
   xmlns="http://www.w3.org/2000/svg"
   xmlns:svg="http://www.w3.org/2000/svg"><defs
     id="defs1"><pattern
       xlink:href="#pattern3"
       preserveAspectRatio="xMidYMid"
       id="pattern4"
       patternTransform="matrix(0.2,-0.34641016,0.34641016,0.2,275.82728,1350.0831)"
       x="0"
       y="0"
       width="179.20002136"
       height="189.88326721" /><pattern
       patternUnits="userSpaceOnUse"
       width="128.00002"
       height="135.63091"
       patternTransform="translate(133.94884,1111.7477)"
       preserveAspectRatio="xMidYMid"
       id="pattern3"><path
         style="color:#000000;opacity:0.2;fill:#594f09;fill-opacity:1;stroke-width:5.7346;stroke-linecap:round;stroke-linejoin:round;-inkscape-stroke:none;paint-order:fill markers stroke"
         d="M 47.763256,0.08713934 C 44.904573,-0.18725436 41.897354,0.15290312 38.858991,1.5879897 33.113354,4.3020307 30.246317,9.366522 28.453839,14.098793 26.66136,18.831064 25.816295,23.781489 25.317738,28.435259 24.614632,34.99822 24.914122,37.872437 25.015376,40.89005 22.558191,42.244481 20.56691,43.119177 15.987861,46.523813 9.163508,51.597942 0.50302299,57.957451 0.01614425,69.462182 -0.22914709,75.255555 2.3578639,79.9941 5.246708,83.619423 c 2.8889197,3.62536 6.332447,6.480075 9.654728,8.870702 4.418041,3.179074 6.326891,3.913625 8.758677,5.152139 0.07635,2.949696 -0.04044,5.849916 1.086463,12.253226 0.793587,4.50966 1.950198,9.28781 4.121726,13.78764 2.171527,4.4998 5.695181,9.33324 11.816352,11.20037 6.310602,1.92484 11.851541,-0.19276 16.419742,-2.67689 4.56824,-2.48421 8.63384,-5.80494 12.264416,-9.12831 5.240655,-4.79725 7.21595,-7.42217 9.21789,-9.81151 3.112478,0.76589 6.479395,1.80216 13.955641,2.52008 5.130293,0.49266 10.666247,0.6627 16.106157,-0.23509 5.43987,-0.8979 11.35812,-2.89202 15.35565,-8.27709 4.18662,-5.63973 4.41789,-12.238977 3.65133,-18.099777 -0.76653,-5.8608 -2.67409,-11.533833 -4.79377,-16.69973 -3.29643,-8.033915 -5.85392,-11.942929 -7.45942,-14.616491 1.25196,-2.421543 2.58523,-4.590425 4.49132,-10.19229 1.35859,-3.992693 2.54559,-8.391382 2.81133,-13.070853 0.2657,-4.679433 -0.36019,-10.215232 -4.34578,-14.739666 -4.20204,-4.770444 -9.91457,-5.820775 -14.78445,-5.947427 -4.869885,-0.126614 -9.620903,0.709909 -14.000468,1.758463 -5.897575,1.412031 -8.081877,2.471849 -10.92034,3.572938 C 76.387924,16.933439 74.351968,14.587561 68.831174,10.31318 64.918154,7.2835866 60.562853,4.3175267 55.737946,2.2712905 53.325511,1.2482102 50.621977,0.36157084 47.763294,0.08725273 Z M 45.982418,16.674881 c -0.486425,0.229795 0.598073,-0.155716 3.236901,0.963213 2.638791,1.11908 6.14245,3.357808 9.38589,5.869001 6.486879,5.02235 11.91719,10.830766 11.91719,10.830766 a 8.3458605,8.3458605 0 0 0 9.38589,1.993663 c 0,0 6.476561,-2.729991 13.552441,-4.424164 3.53794,-0.847106 7.18794,-1.375143 9.67714,-1.310438 2.48916,0.06463 3.10103,0.760063 2.68808,0.291024 -0.19616,-0.222615 0.34167,0.486122 0.21278,2.755313 -0.12888,2.269153 -0.88679,5.525367 -1.94887,8.64669 -2.12413,6.242645 -5.174554,11.771565 -5.174554,11.771565 a 8.3458605,8.3458605 0 0 0 0.224126,8.51229 c 0,0 4.704758,7.534299 8.277048,16.240516 1.78617,4.353109 3.22999,8.957972 3.69616,12.522029 0.46612,3.564019 -0.17726,5.537045 -0.51523,5.992176 -0.14891,0.200315 -1.51608,1.237795 -4.67055,1.758463 -3.15447,0.52063 -7.527043,0.498293 -11.782791,0.08957 C 85.63261,98.35924 77.825165,96.230875 77.825165,96.230875 a 8.3458605,8.3458605 0 0 0 -8.74749,2.856113 c 0,0 -4.908132,6.127182 -10.976353,11.681952 -3.034129,2.77739 -6.353008,5.3523 -8.971464,6.77624 -2.618533,1.42394 -4.059515,1.23262 -3.584164,1.37764 0.28611,0.0873 -0.558652,-0.24378 -1.646438,-2.4977 -1.087786,-2.25408 -2.087168,-5.81394 -2.721713,-9.41953 C 39.908528,99.79444 39.91193,92.691536 39.91193,92.691536 a 8.3458605,8.3458605 0 0 0 -4.849776,-7.605052 c 0,0 -5.330268,-2.489234 -10.41634,-6.148989 -2.54298,-1.829858 -4.935119,-3.947112 -6.350589,-5.723376 -1.415471,-1.776302 -1.608832,-2.876523 -1.601651,-3.046488 0.0189,-0.421985 3.788523,-6.178129 9.262715,-10.24834 5.474154,-4.070211 11.02114,-6.91064 11.02114,-6.91064 a 8.3458605,8.3458605 0 0 0 4.558564,-7.974652 c 0,0 -0.432302,-7.228384 0.380787,-14.818091 0.406564,-3.794835 1.167761,-7.609058 2.150476,-10.203515 0.982753,-2.594419 2.070576,-3.411062 1.915276,-3.337701 z"
         id="path74-7" /></pattern></defs><g
     id="layer1"><rect
       style="opacity:0.35;fill:url(#pattern4);fill-opacity:1;stroke-width:0.723;stroke-linecap:round;stroke-linejoin:round;-inkscape-stroke:none;paint-order:stroke fill markers"
       id="rect4"
       width="677.33331"
       height="381"
       x="1.0172526e-05"
       y="-2.6645353e-14"
       rx="1.058" /></g></svg>
