<svg xmlns="http://www.w3.org/2000/svg" width="1280" height="320" viewBox="0 0 338.667 84.667"><path d="M545.459 450.022h12.7v33.867h-12.7zM782.415 464.289h12.7v33.867h-12.7zM821.908 479.942h12.7v33.867h-12.7zM644.191 464.477h12.7v33.867h-12.7zM861.4 468.202h12.7v33.867h-12.7zM742.922 458.542h12.7v33.867h-12.7zM841.654 459.15h12.7v33.867h-12.7zM802.161 470.231h12.7v33.867h-12.7zM762.669 484.479h12.7v33.867h-12.7zM703.43 468.246h12.7v33.867h-12.7zM683.683 478.622h12.7v33.867h-12.7zM565.205 440.003h12.7v33.867h-12.7zM584.952 435.578h12.7v33.867h-12.7zM624.444 447.927h12.7v33.867h-12.7zM604.698 441.911h12.7v33.867h-12.7zM663.937 459.304h12.7v33.867h-12.7zM723.176 475.921h12.7v33.867h-12.7z" style="fill:#ededed;fill-opacity:1;stroke:#000;stroke-width:7.9375e-09;stroke-linecap:round;paint-order:stroke fill markers;stop-color:#000" transform="translate(-540.446 -434.629)"/><text xml:space="preserve" x="800.387" y="458.152" style="font-style:normal;font-weight:400;font-size:6.35px;line-height:1.25;font-family:sans-serif;fill:#000;fill-opacity:1;stroke:none;stroke-width:.264583" transform="translate(-540.446 -434.629)"><tspan x="800.387" y="458.152" style="font-size:6.35px;fill:#fff;fill-opacity:1;stroke-width:.264583">|</tspan></text><text xml:space="preserve" x="842.781" y="458.152" style="font-style:normal;font-weight:400;font-size:6.35px;line-height:1.25;font-family:sans-serif;fill:#000;fill-opacity:1;stroke:none;stroke-width:.264583" transform="translate(-540.446 -434.629)"><tspan x="842.781" y="458.152" style="font-size:6.35px;fill:#fff;fill-opacity:1;stroke-width:.264583">|</tspan></text></svg>