<svg xmlns="http://www.w3.org/2000/svg" width="345" height="96" viewBox="0 0 91.281 25.4"><g transform="matrix(.02673 0 0 .02673 -.687 -2.062)"><circle cx="501.58" cy="552.362" r="475.191" style="color:#000;display:inline;overflow:visible;visibility:visible;opacity:1;fill:#000;fill-opacity:1;fill-rule:nonzero;stroke:none;stroke-width:2.299;stroke-linejoin:miter;stroke-miterlimit:4;stroke-dasharray:none;stroke-dashoffset:0;stroke-opacity:1;marker:none"/><circle cx="524" cy="550.362" r="54.066" style="color:#000;display:inline;overflow:visible;visibility:visible;opacity:1;fill:#fff;fill-opacity:1;fill-rule:nonzero;stroke:#fff;stroke-width:.963797;stroke-linejoin:miter;stroke-miterlimit:4;stroke-dasharray:none;stroke-dashoffset:0;stroke-opacity:1;marker:none"/><path d="M513.842 176.915a373.653 373.653 0 0 0-373.653 373.652A373.653 373.653 0 0 0 513.842 924.22V741.725a191.87 191.87 0 0 1-181.713-191.363A191.87 191.87 0 0 1 513.842 358.85Z" style="color:#000;display:inline;overflow:visible;visibility:visible;opacity:1;fill:#c00000;fill-opacity:1;fill-rule:nonzero;stroke:none;stroke-width:4.75142;stroke-linejoin:miter;stroke-miterlimit:4;stroke-dasharray:none;stroke-dashoffset:0;stroke-opacity:1;marker:none"/><path d="M514.768 394.052a156.086 156.086 0 0 0-156.084 156.086 156.086 156.086 0 0 0 156.084 156.084V631.95a82.154 82.154 0 0 1-72.922-81.588 82.154 82.154 0 0 1 72.922-81.533z" style="color:#000;display:inline;overflow:visible;visibility:visible;opacity:1;fill:#0070c0;fill-opacity:1;fill-rule:nonzero;stroke:none;stroke-width:4.75142;stroke-linejoin:miter;stroke-miterlimit:4;stroke-dasharray:none;stroke-dashoffset:0;stroke-opacity:1;marker:none"/><path d="M531.568 230.53v160.873a159.34 159.34 0 0 1 151.77 158.96 159.34 159.34 0 0 1-151.77 159.07V870.3a319.885 319.885 0 0 0 319.885-319.885A319.885 319.885 0 0 0 531.568 230.53" style="color:#000;display:inline;overflow:visible;visibility:visible;opacity:1;fill:#ffc000;fill-opacity:1;fill-rule:nonzero;stroke:none;stroke-width:4.75142;stroke-linejoin:miter;stroke-miterlimit:4;stroke-dasharray:none;stroke-dashoffset:0;stroke-opacity:1;marker:none"/></g><g aria-label="AOSC 社区门户" style="font-size:16.1488px;line-height:.85;stroke-width:.336432"><path d="M215.441 18.631h1.168l-3.492-9.006H212.1l-3.504 9.006h1.143l1.067-2.776h3.555zm-2.424-6.493 1.005 2.713h-2.839l1.017-2.713c.1-.29.264-.83.39-1.344.088.314.352 1.143.427 1.344M225.414 14.135c0-2.789-1.432-4.61-4.12-4.61-2.813 0-4.157 1.846-4.157 4.597 0 2.776 1.344 4.635 4.144 4.635 2.7 0 4.133-1.847 4.133-4.622m-7.084 0c0-2.261.93-3.618 2.964-3.618 2.022 0 2.927 1.357 2.927 3.618 0 2.26-.905 3.642-2.94 3.642-2.022 0-2.951-1.382-2.951-3.642M232.485 16.232c0-1.407-.866-1.997-2.45-2.587-1.456-.54-1.958-.905-1.958-1.809 0-.779.577-1.306 1.695-1.306.779 0 1.52.213 2.148.477l.352-.967c-.679-.301-1.495-.502-2.475-.502-1.695 0-2.863.866-2.863 2.286 0 1.394.778 2.11 2.31 2.662 1.62.59 2.11.967 2.11 1.847 0 .891-.69 1.444-2.021 1.444-.955 0-1.91-.264-2.512-.527v1.08c.565.276 1.456.427 2.461.427 1.96 0 3.203-.93 3.203-2.525M238.137 10.53c.804 0 1.482.238 2.035.49l.452-.955c-.678-.339-1.557-.527-2.474-.527-2.776 0-4.308 1.884-4.308 4.597 0 2.826 1.369 4.622 4.12 4.622.992 0 1.645-.113 2.31-.364v-.98c-.678.2-1.369.351-2.147.351-2.06 0-3.09-1.394-3.09-3.617 0-2.248 1.18-3.617 3.102-3.617" style="font-size:12.5602px" transform="translate(-179.732 -9.525)"/><path d="M215.717 28.466c-.323-.307-1.485-1.438-2.148-2.02.743-1.033 1.405-2.195 1.858-3.374l-1.018-.743-.323.08h-1.502l1.276-.742c-.29-.581-.904-1.421-1.47-2.035l-1.517.791c.5.598 1.017 1.39 1.308 1.987h-2.826v1.728h3.682c-.97 1.711-2.536 3.294-4.15 4.182.225.355.597 1.421.726 1.954.63-.371 1.227-.872 1.841-1.42v5.942h1.89v-6.298c.452.549.904 1.146 1.178 1.566zm5.039 3.924v-5.992h3.052v-1.857h-3.052V19.81h-1.987v4.731h-3.18v1.857h3.18v5.992h-3.891v1.905h9.317V32.39ZM227.99 32.503V22.264h11.757v-1.84h-13.63v13.92h14.05v-1.841zm10.675-2.164c-.808-.888-2.019-1.986-3.375-3.1a23.5 23.5 0 0 0 2.858-3.747l-1.825-.727a18.8 18.8 0 0 1-2.47 3.278c-1.212-1.001-2.455-1.954-3.505-2.777l-1.34 1.178a92 92 0 0 1 3.52 2.907c-1.292 1.163-2.713 2.197-4.182 2.956.436.355 1.146 1.098 1.47 1.485a24.7 24.7 0 0 0 4.133-3.197c1.292 1.179 2.455 2.293 3.198 3.165zM242.217 34.764h1.97V23.249h-1.97zm.501-14.163c.808.953 1.841 2.293 2.277 3.15l1.599-1.131c-.5-.84-1.599-2.1-2.406-3.02zm13.064-.355h-8.994v1.84h7.04v10.497c0 .323-.113.42-.436.42-.306.017-1.42.017-2.357-.032a6.4 6.4 0 0 1 .63 1.809c1.501.016 2.535-.016 3.197-.323.678-.307.92-.792.92-1.857zM261.418 26.447v-2.535h7.606v2.535zm4.248-4.312 1-.29a16.4 16.4 0 0 0-.936-2.213l-1.922.468c.275.63.598 1.422.792 2.035h-5.2v3.65c0 2.341-.162 5.668-1.906 7.961.469.194 1.324.808 1.696 1.18 1.356-1.81 1.922-4.377 2.132-6.687h7.702v.84h1.97v-6.944z" style="font-weight:700" transform="translate(-179.732 -9.525)"/></g></svg>