<svg xmlns="http://www.w3.org/2000/svg" width="345" height="96" viewBox="0 0 91.281 25.4"><g transform="matrix(.02673 0 0 .02673 -.687 -2.062)"><circle cx="501.58" cy="552.362" r="475.191" style="color:#000;display:inline;overflow:visible;visibility:visible;opacity:1;fill:#000;fill-opacity:1;fill-rule:nonzero;stroke:none;stroke-width:2.299;stroke-linejoin:miter;stroke-miterlimit:4;stroke-dasharray:none;stroke-dashoffset:0;stroke-opacity:1;marker:none"/><circle cx="524" cy="550.362" r="54.066" style="color:#000;display:inline;overflow:visible;visibility:visible;opacity:1;fill:#fff;fill-opacity:1;fill-rule:nonzero;stroke:#fff;stroke-width:.963797;stroke-linejoin:miter;stroke-miterlimit:4;stroke-dasharray:none;stroke-dashoffset:0;stroke-opacity:1;marker:none"/><path d="M513.842 176.915a373.653 373.653 0 0 0-373.653 373.652A373.653 373.653 0 0 0 513.842 924.22V741.725a191.87 191.87 0 0 1-181.713-191.363A191.87 191.87 0 0 1 513.842 358.85Z" style="color:#000;display:inline;overflow:visible;visibility:visible;opacity:1;fill:#c00000;fill-opacity:1;fill-rule:nonzero;stroke:none;stroke-width:4.75142;stroke-linejoin:miter;stroke-miterlimit:4;stroke-dasharray:none;stroke-dashoffset:0;stroke-opacity:1;marker:none"/><path d="M514.768 394.052a156.086 156.086 0 0 0-156.084 156.086 156.086 156.086 0 0 0 156.084 156.084V631.95a82.154 82.154 0 0 1-72.922-81.588 82.154 82.154 0 0 1 72.922-81.533z" style="color:#000;display:inline;overflow:visible;visibility:visible;opacity:1;fill:#0070c0;fill-opacity:1;fill-rule:nonzero;stroke:none;stroke-width:4.75142;stroke-linejoin:miter;stroke-miterlimit:4;stroke-dasharray:none;stroke-dashoffset:0;stroke-opacity:1;marker:none"/><path d="M531.568 230.53v160.873a159.34 159.34 0 0 1 151.77 158.96 159.34 159.34 0 0 1-151.77 159.07V870.3a319.885 319.885 0 0 0 319.885-319.885A319.885 319.885 0 0 0 531.568 230.53" style="color:#000;display:inline;overflow:visible;visibility:visible;opacity:1;fill:#ffc000;fill-opacity:1;fill-rule:nonzero;stroke:none;stroke-width:4.75142;stroke-linejoin:miter;stroke-miterlimit:4;stroke-dasharray:none;stroke-dashoffset:0;stroke-opacity:1;marker:none"/></g><g aria-label="AOSC" style="font-size:16.1488px;line-height:.85;stroke-width:.336432"><path d="M35.709 9.106h1.168L33.385.1h-1.017l-3.504 9.006h1.143l1.067-2.776h3.555zm-2.424-6.494 1.005 2.713h-2.84l1.018-2.713c.1-.288.264-.828.39-1.343.088.314.351 1.143.427 1.343M45.682 4.61c0-2.789-1.432-4.61-4.12-4.61-2.814 0-4.158 1.846-4.158 4.597 0 2.776 1.344 4.635 4.145 4.635 2.7 0 4.133-1.847 4.133-4.622m-7.084 0c0-2.261.93-3.618 2.964-3.618 2.022 0 2.926 1.357 2.926 3.618 0 2.26-.904 3.642-2.939 3.642-2.022 0-2.951-1.382-2.951-3.642M52.753 6.707c0-1.407-.867-1.997-2.45-2.587-1.456-.54-1.959-.905-1.959-1.809 0-.779.578-1.306 1.696-1.306.779 0 1.52.213 2.148.477l.351-.967c-.678-.302-1.494-.502-2.474-.502-1.695 0-2.864.866-2.864 2.285 0 1.395.78 2.11 2.311 2.663 1.62.59 2.11.967 2.11 1.847 0 .891-.69 1.444-2.022 1.444-.954 0-1.909-.264-2.512-.528v1.08c.566.277 1.457.428 2.462.428 1.96 0 3.203-.93 3.203-2.525M58.405 1.005c.804 0 1.482.238 2.035.49l.452-.955C60.214.2 59.335.013 58.418.013c-2.776 0-4.308 1.884-4.308 4.597 0 2.826 1.369 4.622 4.12 4.622.992 0 1.645-.113 2.31-.365v-.98c-.678.202-1.369.352-2.147.352-2.06 0-3.09-1.394-3.09-3.617 0-2.248 1.18-3.617 3.102-3.617" style="font-size:12.5602px"/></g><g aria-label="Portal" style="font-size:20.6375px;line-height:1.25;stroke-width:.264583"><path d="M31.6 19.783v5.431h-2.62V10.461q2.62-.11 3.063-.11 3.497 0 5.11 1.078 1.622 1.068 1.622 3.345 0 5.08-5.986 5.08-.444 0-1.19-.071m0-7.054v4.726q.665.07 1.048.07 1.793 0 2.62-.594.826-.605.826-1.955 0-2.298-3.698-2.298-.413 0-.796.05M39.268 19.793q0-2.47 1.421-4.021 1.431-1.552 3.769-1.552 2.459 0 3.82 1.491t1.36 4.082q0 2.58-1.391 4.1-1.38 1.523-3.79 1.523-2.458 0-3.828-1.532-1.36-1.542-1.36-4.091m2.62 0q0 3.567 2.57 3.567 1.179 0 1.864-.927.695-.927.695-2.64 0-3.517-2.56-3.517-1.178 0-1.873.927t-.696 2.59M57.89 16.77q-.675-.444-1.48-.444-.878 0-1.563.796-.675.796-.675 1.945v6.147h-2.52V14.422h2.52v.987q1.058-1.189 2.812-1.189 1.29 0 1.975.393zM60.853 16.447h-1.25v-2.025h1.25v-2.197l2.52-.927v3.124h2.962v2.025h-2.963v4.726q0 1.159.363 1.643.363.473 1.27.473t1.693-.493v2.317q-.877.303-2.5.303-1.612 0-2.478-.907-.867-.917-.867-2.6zM74.658 24.136q-.342.564-1.199.927-.846.353-1.773.353-1.744 0-2.741-.867-.998-.877-.998-2.479 0-1.874 1.4-2.932 1.412-1.058 4.001-1.058.444 0 1.048.15 0-1.904-2.408-1.904-1.42 0-2.378.474l-.544-1.955q1.3-.625 3.093-.625 2.47 0 3.618 1.129 1.149 1.118 1.149 4.252v2.308q0 2.156.866 2.71-.312.545-.695.666-.383.13-.877.13-.544 0-.977-.403t-.585-.876m-.241-4q-.645-.132-.968-.132-2.983 0-2.983 1.955 0 1.451 1.683 1.451 2.268 0 2.268-2.267zM80.08 10.4l2.519-.604V21.93q0 1.995 1.19 2.378-.585 1.109-1.996 1.109-1.713 0-1.713-2.379z" style="font-weight:700;font-family:&quot;Trebuchet MS&quot;;-inkscape-font-specification:&quot;Trebuchet MS Bold&quot;"/></g></svg>