<svg xmlns="http://www.w3.org/2000/svg" xmlns:xlink="http://www.w3.org/1999/xlink" width="100" height="100"><defs><clipPath id="f" clipPathUnits="userSpaceOnUse"><path d="M0 0h100v100H0z" style="color:#000;display:inline;overflow:visible;visibility:visible;opacity:1;fill:#ff0;fill-opacity:1;fill-rule:nonzero;stroke:none;stroke-width:20;stroke-linecap:square;stroke-linejoin:miter;stroke-miterlimit:4;stroke-dasharray:none;stroke-dashoffset:1.09889996;stroke-opacity:1;marker:none"/></clipPath><marker id="e" orient="auto" refX="0" refY="0" style="overflow:visible"><path d="M8.719 4.034-2.207.016 8.719-4.002c-1.746 2.372-1.736 5.618 0 8.036z" style="fill-rule:evenodd;stroke-width:.625;stroke-linejoin:round;stroke:#000;stroke-opacity:1;fill:#000;fill-opacity:1" transform="rotate(180)scale(.6)"/></marker></defs><g style="display:inline"><use xlink:href="#a" id="b" width="100" height="100" x="0" y="0" transform="translate(200 -100)"/><use xlink:href="#b" width="100%" height="100%" transform="translate(0 100)"/><use xlink:href="#b" width="100%" height="100%" transform="translate(0 200)"/><use xlink:href="#b" width="100%" height="100%" transform="translate(100)"/><use xlink:href="#b" width="100%" height="100%" transform="translate(100 100)"/><use xlink:href="#b" width="100%" height="100%" transform="translate(100 200)"/><use xlink:href="#b" width="100%" height="100%" transform="translate(200)"/><use xlink:href="#b" width="100%" height="100%" transform="translate(200 100)"/><use xlink:href="#b" width="100%" height="100%" transform="translate(200 200)"/><use xlink:href="#c" width="100%" height="100%" style="opacity:.3"/><use xlink:href="#d" width="100%" height="100%" style="opacity:.3"/><path d="M-348.84-380.862h526.662v360.006H-348.84z" style="opacity:1;fill:#fff;fill-opacity:1;fill-rule:evenodd;stroke:none;stroke-width:76.99082184;stroke-linecap:round;stroke-linejoin:round;stroke-miterlimit:4;stroke-dasharray:none;stroke-dashoffset:0;stroke-opacity:1;paint-order:normal"/><text xml:space="preserve" x="-326.822" y="-349.806" style="font-style:normal;font-variant:normal;font-weight:400;font-stretch:normal;line-height:0%;font-family:sans-serif;-inkscape-font-specification:Verdana;letter-spacing:0;word-spacing:0;fill:#000;fill-opacity:1;stroke:none"><tspan x="-326.822" y="-349.806" style="font-style:normal;font-variant:normal;font-weight:700;font-stretch:normal;font-size:23.6686px;line-height:1.25;font-family:sans-serif;-inkscape-font-specification:&quot;sans-serif Bold&quot;">Seamless pattern</tspan></text><path d="M-354.49-359.49h-6.171V51.516h229.605" style="color:#000;text-decoration:none;text-decoration-line:none;display:inline;overflow:visible;visibility:visible;fill:none;stroke:#000;stroke-width:3.77952766;stroke-linecap:butt;stroke-linejoin:miter;stroke-miterlimit:4;stroke-dasharray:none;stroke-dashoffset:0;stroke-opacity:1;marker:none;marker-end:url(#e)"/><path d="M-29.565 100v-7.167h2.007v4.511h1.918v-4.242h2.007v4.242h4.366V100ZM-22.743 87.818q0 .773.262 1.166.262.386.772.386.47 0 .738-.31.263-.318.263-.876 0-.697-.497-1.173-.504-.476-1.256-.476h-.282zm-.932-3.773h4.408v2.49h-1.145q.704.497 1.028 1.118.317.62.317 1.51 0 1.2-.696 1.952-.704.745-1.821.745-1.36 0-1.994-.93-.635-.939-.635-2.94v-1.455h-.193q-.586 0-.855.462-.276.462-.276 1.442 0 .793.159 1.476.158.683.476 1.27h-1.884q-.193-.794-.29-1.594-.103-.8-.103-1.6 0-2.09.828-3.015.82-.931 2.676-.931M-26.751 75.726h1.876q-.33.793-.496 1.531t-.166 1.394q0 .703.18 1.048.172.338.537.338.297 0 .456-.255.158-.262.234-.931l.063-.435q.241-1.897.793-2.552t1.731-.655q1.235 0 1.856.91.62.91.62 2.718 0 .766-.123 1.587-.118.813-.36 1.676h-1.875q.358-.738.538-1.51.179-.78.179-1.58 0-.725-.2-1.09t-.593-.366q-.331 0-.49.255-.166.249-.255 1l-.055.435q-.207 1.649-.766 2.31-.559.663-1.697.663-1.228 0-1.82-.842-.594-.841-.594-2.58 0-.682.103-1.434.104-.752.325-1.635zM-29.186 70.677h2.194V68.13h1.765v2.546h3.277q.538 0 .731-.214.186-.214.186-.849v-1.269h1.766v2.118q0 1.462-.607 2.076-.614.607-2.076.607h-3.277v1.228h-1.765v-1.228h-2.194zM-20.384 59.233h4.056v2.47h-10.664v-2.47h1.13q-.675-.51-.993-1.131-.324-.621-.324-1.428 0-1.428 1.139-2.346 1.13-.917 2.917-.917t2.925.917q1.131.918 1.131 2.346 0 .807-.317 1.428-.324.62-1 1.13m-5.001-1.642q0 .793.586 1.221.58.42 1.676.42t1.683-.42q.58-.428.58-1.22 0-.794-.58-1.208-.579-.42-1.683-.42-1.103 0-1.683.42-.58.414-.58 1.207M-24.889 45.837q-.151.324-.22.648-.076.318-.076.642 0 .952.613 1.47.608.51 1.746.51h3.559v2.47h-7.726v-2.47h1.27q-.76-.476-1.104-1.09-.352-.621-.352-1.483 0-.124.014-.27.009-.144.041-.42zM-23.15 36.883h.703v5.774q.87-.09 1.304-.628t.435-1.503q0-.78-.228-1.594-.235-.82-.704-1.683h1.904q.331.876.497 1.752.172.876.172 1.752 0 2.097-1.062 3.263-1.07 1.159-2.994 1.159-1.89 0-2.973-1.138-1.083-1.145-1.083-3.146 0-1.82 1.097-2.91 1.097-1.098 2.932-1.098m-.821 2.539q-.704 0-1.131.414-.435.407-.435 1.069 0 .717.407 1.166.4.448 1.159.558zM-26.992 35.994v-2.47l5.339-1.924-5.34-1.918v-2.476l7.726 3.042v2.71zM-26.992 25.805v-2.47h7.725v2.47zm-3.008 0v-2.47h2.014v2.47zM-23.15 13.237h.703v5.774q.87-.09 1.304-.628t.435-1.504q0-.78-.228-1.593-.235-.82-.704-1.683h1.904q.331.876.497 1.752.172.876.172 1.752 0 2.097-1.062 3.263-1.07 1.159-2.994 1.159-1.89 0-2.973-1.139-1.083-1.145-1.083-3.145 0-1.821 1.097-2.911 1.097-1.097 2.932-1.097m-.821 2.539q-.704 0-1.131.414-.435.407-.435 1.069 0 .717.407 1.165.4.449 1.159.56zM-26.992 12.065v-2.4l5.325-1.298-5.325-1.303V5l5.27-1.297-5.27-1.304V0l7.725 2.035v2.697l-5.311 1.304 5.311 1.297v2.697z" style="font-style:normal;font-variant:normal;font-weight:700;font-stretch:normal;font-size:medium;line-height:125%;font-family:sans-serif;-inkscape-font-specification:&quot;sans-serif Bold&quot;;letter-spacing:0;word-spacing:0;fill:#000;fill-opacity:1;stroke:none;stroke-width:1px;stroke-linecap:butt;stroke-linejoin:miter;stroke-opacity:1" transform="translate(200)"/><g id="a" clip-path="url(#f)" style="display:inline"><rect id="c" width="100" height="100" style="opacity:1;fill:#fffbf5;fill-opacity:1;stroke:none;stroke-width:.73;stroke-linecap:round;stroke-linejoin:round;stroke-dasharray:none;stroke-dashoffset:11;stroke-opacity:1"/><g id="d"><path d="M30.96 10.847 12.1 43.515" style="fill:none;fill-opacity:1;stroke:#e1e8ea;stroke-width:1.5;stroke-linecap:round;stroke-linejoin:round;stroke-dasharray:none;stroke-opacity:1"/><path id="g" d="M38.573 64.185 19.712 96.854" style="display:inline;fill:none;fill-opacity:1;stroke:#e1e8ea;stroke-width:1.5;stroke-linecap:round;stroke-linejoin:round;stroke-dasharray:none;stroke-opacity:1"/><use xlink:href="#g" style="stroke:#e1e8ea;stroke-width:.75;stroke-dasharray:none;stroke-opacity:1" transform="translate(66.788 -71.793)scale(1.0096)"/><use xlink:href="#g" style="stroke:#e1e8ea;stroke-width:.75;stroke-dasharray:none;stroke-opacity:1" transform="matrix(1.0137 0 0 1.0137 67.322 -14.589)"/><use xlink:href="#g" style="stroke:#e1e8ea;stroke-width:.75;stroke-dasharray:none;stroke-opacity:1" transform="matrix(.99702 0 0 .99702 10.062 -61.284)"/><use xlink:href="#g" style="stroke:#e1e8ea;stroke-width:.75;stroke-dasharray:none;stroke-opacity:1" transform="translate(19.969 -16.045)scale(1.02549)"/><use xlink:href="#g" style="stroke:#e1e8ea;stroke-width:.75041935;stroke-dasharray:none;stroke-opacity:1;fill:#fffbf5;fill-opacity:1" transform="matrix(.97279 0 0 .97279 44.152 -18.316)"/><use xlink:href="#g" style="stroke:#e1e8ea;stroke-width:.75;stroke-dasharray:none;stroke-opacity:1" transform="matrix(1.01972 0 0 1.01972 37.039 9.291)"/></g><use xlink:href="#c" width="100%" height="100%" transform="translate(-100 -100)"/><use xlink:href="#c" width="100%" height="100%" transform="translate(0 -100)"/><use xlink:href="#c" width="100%" height="100%" transform="translate(100 -100)"/><use xlink:href="#c" width="100%" height="100%" transform="translate(-100)"/><use xlink:href="#c" width="100%" height="100%"/><use xlink:href="#c" width="100%" height="100%" transform="translate(100)"/><use xlink:href="#c" width="100%" height="100%" transform="translate(-100 100)"/><use xlink:href="#c" width="100%" height="100%" transform="translate(0 100)"/><use xlink:href="#c" width="100%" height="100%" transform="translate(100 100)"/><use xlink:href="#d" width="100%" height="100%" transform="translate(-100 -100)"/><use xlink:href="#d" width="100%" height="100%" transform="translate(0 -100)"/><use xlink:href="#d" width="100%" height="100%" transform="translate(100 -100)"/><use xlink:href="#d" width="100%" height="100%" transform="translate(-100)"/><use xlink:href="#d" width="100%" height="100%"/><use xlink:href="#d" width="100%" height="100%" transform="translate(100)"/><use xlink:href="#d" width="100%" height="100%" transform="translate(-100 100)"/><use xlink:href="#d" width="100%" height="100%" transform="translate(0 100)"/><use xlink:href="#d" width="100%" height="100%" transform="translate(100 100)"/></g></g></svg>