<?xml version="1.0" encoding="UTF-8" standalone="no"?>
<svg
   xml:space="preserve"
   width="1024"
   height="268"
   viewBox="0 0 270.933 70.908"
   version="1.1"
   id="svg171"
   sodipodi:docname="banner_support_ctr.svg"
   inkscape:version="1.2.1 (9c6d41e410, 2022-07-14)"
   inkscape:export-filename="banner_support_ctr.png"
   inkscape:export-xdpi="192"
   inkscape:export-ydpi="192"
   xmlns:inkscape="http://www.inkscape.org/namespaces/inkscape"
   xmlns:sodipodi="http://sodipodi.sourceforge.net/DTD/sodipodi-0.dtd"
   xmlns="http://www.w3.org/2000/svg"
   xmlns:svg="http://www.w3.org/2000/svg"><sodipodi:namedview
     id="namedview173"
     pagecolor="#ffffff"
     bordercolor="#000000"
     borderopacity="0.25"
     inkscape:showpageshadow="2"
     inkscape:pageopacity="0.0"
     inkscape:pagecheckerboard="0"
     inkscape:deskcolor="#d1d1d1"
     showgrid="false"
     inkscape:zoom="1.2056723"
     inkscape:cx="499.30648"
     inkscape:cy="-38.567694"
     inkscape:window-width="2560"
     inkscape:window-height="1499"
     inkscape:window-x="0"
     inkscape:window-y="0"
     inkscape:window-maximized="1"
     inkscape:current-layer="svg171" /><defs
     id="defs153"><clipPath
       id="a"
       clipPathUnits="userSpaceOnUse"><path
         d="M0 0h270.933v70.908H0z"
         style="opacity:.6;fill:#000;stroke-width:.264583"
         id="path150" /></clipPath></defs><rect
     style="font-weight:600;font-size:13.4055px;line-height:0.8;font-family:'Source Sans 3';-inkscape-font-specification:'Source Sans 3 Semi-Bold';opacity:1;fill:#d28200;fill-opacity:1;stroke-width:0.527794"
     id="rect25172"
     width="270.93301"
     height="70.908249"
     x="-6.9580078e-06"
     y="-0.00012445069" /><g
     aria-label="  支持中心
                    分析、查验、解答
步步到位  轻松使用"
     id="text24008"
     style="font-weight:600;font-size:13.4055px;line-height:0.8;font-family:'Source Sans 3';-inkscape-font-specification:'Source Sans 3 Semi-Bold';fill:#73ff75;stroke-width:0.264583"><path
       d="m 54.608354,18.702414 v 1.769526 h -4.893008 v 1.595255 h 4.893008 v 1.568444 h -4.236138 v 1.568443 h 1.769526 l -0.723897,0.254705 c 0.670275,1.233306 1.501416,2.252124 2.520234,3.083265 -1.407578,0.603247 -3.056454,0.978601 -4.852791,1.206495 0.308326,0.361948 0.723897,1.126062 0.871357,1.555038 2.010825,-0.335138 3.901001,-0.871358 5.523066,-1.715904 1.447794,0.790924 3.190509,1.313739 5.281768,1.60866 0.214488,-0.455787 0.670275,-1.19309 1.018818,-1.581849 -1.769527,-0.187677 -3.324565,-0.549626 -4.624898,-1.085846 1.394172,-1.07244 2.493423,-2.480017 3.190509,-4.303165 l -1.126062,-0.65687 -0.294921,0.06703 h -2.640884 v -1.568444 h 4.933225 V 20.47194 h -4.933225 v -1.769526 z m -1.501416,6.501668 h 4.893007 c -0.589842,1.032224 -1.420983,1.849959 -2.439801,2.506829 -1.045629,-0.670275 -1.863364,-1.501416 -2.453206,-2.506829 z"
       style="font-weight:bold;font-family:'Noto Sans CJK SC';-inkscape-font-specification:'Noto Sans CJK SC Bold';fill:#ffffff"
       id="path26443" /><path
       d="m 67.8798,27.617072 c 0.563031,0.723897 1.179684,1.715904 1.407577,2.359368 l 1.380767,-0.790924 c -0.281516,-0.65687 -0.938385,-1.595255 -1.514822,-2.278935 z m 2.480017,-8.84763 v 1.461199 H 67.61169 v 1.4612 h 2.748127 v 1.166279 h -3.324564 v 1.461199 h 5.053874 v 1.07244 h -4.933224 v 1.447794 h 4.933224 v 2.734722 c 0,0.187677 -0.05362,0.227894 -0.26811,0.227894 -0.187677,0.01341 -0.898169,0.02681 -1.501416,-0.01341 0.187677,0.428976 0.402165,1.07244 0.455787,1.514822 0.965196,0 1.689093,-0.02681 2.185096,-0.254705 0.509409,-0.241299 0.65687,-0.643464 0.65687,-1.434388 v -2.774939 h 1.48801 v -1.447794 h -1.48801 v -1.07244 h 1.581849 V 22.85812 h -3.311159 v -1.166279 h 2.721317 v -1.4612 h -2.721317 v -1.461199 z m -6.153124,-0.05362 v 2.533639 h -1.514822 v 1.474606 h 1.514822 v 2.372773 l -1.72931,0.415571 0.348543,1.541632 1.380767,-0.388759 v 2.841966 c 0,0.174271 -0.06703,0.227893 -0.227894,0.227893 -0.160866,0.01341 -0.630058,0.01341 -1.112656,-0.0134 0.201082,0.428976 0.375354,1.099251 0.41557,1.48801 0.857952,0.01341 1.447794,-0.05362 1.863365,-0.294921 0.402165,-0.254704 0.53622,-0.656869 0.53622,-1.394172 v -3.284347 l 1.260117,-0.375354 -0.201083,-1.447794 -1.059034,0.294921 v -1.984014 h 1.152873 V 21.249459 H 65.681298 V 18.71582 Z"
       style="font-weight:bold;font-family:'Noto Sans CJK SC';-inkscape-font-specification:'Noto Sans CJK SC Bold';fill:#ffffff"
       id="path26445" /><path
       d="m 81.419355,18.702414 v 2.332557 h -4.638303 v 6.796589 h 1.60866 v -0.737302 h 3.029643 v 4.195921 h 1.702499 v -4.195921 h 3.043048 v 0.670275 h 1.689093 v -6.729562 h -4.732141 v -2.332557 z m -3.029643,6.809995 v -2.895588 h 3.029643 v 2.895588 z m 7.77519,0 h -3.043048 v -2.895588 h 3.043048 z"
       style="font-weight:bold;font-family:'Noto Sans CJK SC';-inkscape-font-specification:'Noto Sans CJK SC Bold';fill:#ffffff"
       id="path26447" /><path
       d="m 92.948084,22.549793 v 6.233558 c 0,1.715904 0.496003,2.252124 2.238718,2.252124 0.348543,0 1.87677,0 2.252124,0 1.648877,0 2.091258,-0.80433 2.278935,-3.351375 -0.442381,-0.107244 -1.139467,-0.402165 -1.514821,-0.683681 -0.09384,2.104664 -0.214488,2.53364 -0.898169,2.53364 -0.348543,0 -1.60866,0 -1.916986,0 -0.643464,0 -0.750708,-0.09384 -0.750708,-0.750708 v -6.233558 z m -2.426396,0.777519 c -0.160866,1.809743 -0.549626,3.820568 -1.032224,5.241551 l 1.635472,0.670275 c 0.455787,-1.528227 0.790924,-3.860784 0.978601,-5.603499 z m 8.365032,0.187677 c 0.710492,1.581849 1.39417,3.713324 1.60866,5.080685 l 1.63547,-0.670275 c -0.28151,-1.394172 -0.9786,-3.431808 -1.74271,-5.027063 z m -5.469444,-3.512241 c 1.246712,0.844546 2.908994,2.131475 3.646296,2.962616 l 1.179684,-1.260117 c -0.80433,-0.831142 -2.506828,-2.024231 -3.740134,-2.788345 z"
       style="font-weight:bold;font-family:'Noto Sans CJK SC';-inkscape-font-specification:'Noto Sans CJK SC Bold';fill:#ffffff"
       id="path26449" /><path
       d="m 82.697379,34.441866 -0.535515,0.217311 c 0.551038,1.148643 1.48237,2.413702 2.297285,3.112201 0.116417,-0.155222 0.325966,-0.372533 0.473427,-0.488949 -0.807154,-0.605366 -1.754008,-1.792814 -2.235197,-2.840563 z m -2.708623,0.01552 c -0.450144,1.187449 -1.241776,2.266242 -2.173108,2.933696 0.139699,0.108656 0.395816,0.333727 0.49671,0.450144 0.20955,-0.170744 0.411338,-0.357011 0.613127,-0.56656 v 0.535516 h 1.497892 c -0.178505,1.319386 -0.605366,2.553401 -2.444746,3.158767 0.131938,0.124178 0.28716,0.34925 0.35701,0.496711 1.979081,-0.714022 2.491313,-2.118781 2.700863,-3.655478 h 2.111019 c -0.08537,1.940274 -0.201788,2.700862 -0.395816,2.902651 -0.07761,0.07761 -0.170744,0.09313 -0.333727,0.09313 -0.178505,0 -0.659694,0 -1.164165,-0.04657 0.108655,0.162984 0.178505,0.411339 0.194027,0.582083 0.48895,0.03104 0.962377,0.0388 1.226254,0.01552 0.263878,-0.02328 0.442383,-0.07761 0.605366,-0.271638 0.271638,-0.302683 0.372533,-1.187449 0.488949,-3.570106 0.0078,-0.07761 0.0078,-0.2794 0.0078,-0.2794 H 78.96429 c 0.659694,-0.70626 1.241776,-1.614309 1.645354,-2.607729 z"
       style="font-weight:normal;font-size:7.7611px;font-family:'Noto Sans CJK SC';-inkscape-font-specification:'Noto Sans CJK SC';fill:#ffffff"
       id="path26451" /><path
       d="m 88.97611,35.155887 v 2.390419 c 0,1.086554 -0.06985,2.545641 -0.77611,3.585628 0.1397,0.04657 0.380294,0.201789 0.481188,0.294922 0.737305,-1.078793 0.84596,-2.716385 0.84596,-3.88055 v -0.03104 h 1.420281 v 3.927116 h 0.574322 v -3.927116 h 1.13312 v -0.551038 h -3.127723 v -1.396998 c 0.939093,-0.170745 1.955797,-0.426861 2.685341,-0.721783 l -0.496711,-0.457904 c -0.63641,0.294921 -1.754008,0.582082 -2.739668,0.768348 z m -2.11878,-0.853721 v 1.660876 h -1.164165 v 0.558799 h 1.102076 c -0.256116,1.071032 -0.783871,2.289524 -1.311626,2.941457 0.100895,0.1397 0.240594,0.372533 0.302683,0.527755 0.395816,-0.519994 0.77611,-1.358193 1.071032,-2.227436 v 3.671 h 0.56656 v -3.779655 c 0.263878,0.403577 0.574322,0.908048 0.70626,1.171926 l 0.372533,-0.465666 C 88.347461,38.13615 87.695529,37.259145 87.42389,36.925418 v -0.403577 h 1.148643 V 35.963042 H 87.42389 v -1.660876 z"
       style="font-weight:normal;font-size:7.7611px;font-family:'Noto Sans CJK SC';-inkscape-font-specification:'Noto Sans CJK SC';fill:#ffffff"
       id="path26453" /><path
       d="m 95.115141,41.256112 0.527755,-0.450144 c -0.481188,-0.56656 -1.179687,-1.27282 -1.738487,-1.722964 l -0.504471,0.442383 c 0.551038,0.450143 1.218493,1.117598 1.715203,1.730725 z"
       style="font-weight:normal;font-size:7.7611px;font-family:'Noto Sans CJK SC';-inkscape-font-specification:'Noto Sans CJK SC';fill:#ffffff"
       id="path26455" /><path
       d="m 103.04698,39.12957 h 3.14325 v 0.651933 h -3.14325 z m 0,-1.039987 h 3.14325 v 0.63641 h -3.14325 z m -0.57432,-0.419099 v 2.530118 h 4.32293 v -2.530118 z m -1.14088,2.995784 v 0.527755 h 6.6435 v -0.527755 z m 2.99578,-6.364102 v 0.98566 h -3.12772 v 0.512233 h 2.49907 c -0.66745,0.737304 -1.70744,1.404759 -2.66205,1.730725 0.12417,0.108655 0.29492,0.325966 0.38029,0.465666 1.05551,-0.419099 2.20415,-1.234015 2.91041,-2.157586 v 1.591026 h 0.57433 v -1.598787 c 0.71402,0.900288 1.87818,1.707442 2.94921,2.103258 0.0854,-0.147461 0.25612,-0.372533 0.38806,-0.481188 -0.9779,-0.302683 -2.03341,-0.946854 -2.70863,-1.653114 h 2.55341 v -0.512233 h -3.18205 v -0.98566 z"
       style="font-weight:normal;font-size:7.7611px;font-family:'Noto Sans CJK SC';-inkscape-font-specification:'Noto Sans CJK SC';fill:#ffffff"
       id="path26457" /><path
       d="m 108.75915,39.672847 0.12418,0.48895 c 0.58208,-0.162983 1.2961,-0.357011 1.9946,-0.558799 l -0.0543,-0.450144 c -0.76835,0.201788 -1.52118,0.403577 -2.06446,0.519993 z m 3.89607,-2.96474 v 0.504472 h 2.31281 v -0.504472 z m -0.51223,1.303865 c 0.22507,0.589844 0.43462,1.365954 0.49671,1.870425 l 0.48119,-0.131939 c -0.0699,-0.504471 -0.29492,-1.265059 -0.51999,-1.847141 z m 1.37372,-0.194027 c 0.13194,0.582082 0.27164,1.358192 0.31044,1.862664 l 0.48119,-0.07761 c -0.0466,-0.504472 -0.18627,-1.26506 -0.34149,-1.854903 z M 109.349,35.730209 c -0.0543,0.838199 -0.14746,1.994602 -0.24836,2.677579 h 2.08774 c -0.1009,1.598787 -0.22508,2.227436 -0.38806,2.39818 -0.0621,0.07761 -0.14746,0.09313 -0.27164,0.09313 -0.14746,0 -0.50447,-0.0078 -0.88476,-0.04657 0.0854,0.139699 0.14746,0.341488 0.15522,0.488949 0.37253,0.02328 0.7373,0.03104 0.93133,0.01552 0.23283,-0.02328 0.37253,-0.06985 0.50447,-0.232833 0.24836,-0.248355 0.35701,-0.977898 0.48119,-2.956979 0.008,-0.06985 0.0155,-0.240594 0.0155,-0.240594 l -0.51999,0.0078 h -0.0931 c 0.0931,-0.838199 0.20955,-2.235197 0.28716,-3.282945 h -2.39042 v 0.504471 h 1.8549 c -0.0621,0.931332 -0.16298,2.033409 -0.25611,2.778474 h -0.95462 c 0.0699,-0.651932 0.1397,-1.497892 0.18627,-2.173108 z m 4.34621,-1.48237 c -0.48119,1.086554 -1.33491,2.041169 -2.26624,2.631013 0.10866,0.116416 0.2794,0.349249 0.34925,0.465666 0.72954,-0.512233 1.4358,-1.241776 1.97132,-2.095497 0.54328,0.752826 1.32715,1.559981 2.03341,2.072213 0.0621,-0.155222 0.19403,-0.403577 0.29492,-0.535516 -0.72178,-0.465666 -1.55998,-1.288342 -2.04893,-2.025647 l 0.17074,-0.349249 z m -1.80057,6.302013 v 0.512232 h 3.95816 v -0.512232 h -1.18745 c 0.38029,-0.714021 0.81492,-1.738487 1.13312,-2.561163 l -0.52775,-0.131939 c -0.25612,0.814916 -0.72955,1.971319 -1.10984,2.693102 z"
       style="font-weight:normal;font-size:7.7611px;font-family:'Noto Sans CJK SC';-inkscape-font-specification:'Noto Sans CJK SC';fill:#ffffff"
       id="path26459" /><path
       d="m 118.39844,41.256112 0.52775,-0.450144 c -0.48118,-0.56656 -1.17968,-1.27282 -1.73848,-1.722964 l -0.50447,0.442383 c 0.55103,0.450143 1.21849,1.117598 1.7152,1.730725 z"
       style="font-weight:normal;font-size:7.7611px;font-family:'Noto Sans CJK SC';-inkscape-font-specification:'Noto Sans CJK SC';fill:#ffffff"
       id="path26461" /><path
       d="m 126.07417,36.72363 v 0.946854 h -0.69074 V 36.72363 Z m 0.42686,0 h 0.6985 v 0.946854 h -0.6985 z m -1.21073,-0.450144 c 0.1397,-0.256117 0.27164,-0.527755 0.38805,-0.814916 h 1.01671 c -0.1009,0.2794 -0.22508,0.582083 -0.35701,0.814916 z m 0.21731,-1.979081 c -0.2406,0.954616 -0.66746,1.878186 -1.21849,2.475791 0.12417,0.07761 0.34148,0.256116 0.43462,0.341489 l 0.16298,-0.20955 v 1.435803 c 0,0.877005 -0.0543,2.033408 -0.58208,2.856085 0.11641,0.05433 0.34149,0.186266 0.43462,0.271639 0.33373,-0.519994 0.49671,-1.202971 0.57432,-1.870426 h 0.76059 v 1.435804 h 0.42686 v -1.435804 h 0.6985 v 1.179688 c 0,0.07761 -0.0233,0.100894 -0.10866,0.100894 -0.0699,0.0078 -0.29492,0.0078 -0.5588,0 0.0699,0.131939 0.1397,0.357011 0.15523,0.49671 0.38805,0 0.62864,-0.0078 0.79163,-0.100894 0.16298,-0.08537 0.20955,-0.240594 0.20955,-0.488949 v -4.509199 h -0.81492 c 0.18627,-0.333728 0.36477,-0.729544 0.49671,-1.078793 l -0.35701,-0.225072 -0.0854,0.02328 h -1.07103 c 0.0621,-0.194027 0.12417,-0.388055 0.1785,-0.582082 z m 0.56656,3.818461 v 1.024466 h -0.71402 c 0.0155,-0.2794 0.0233,-0.551038 0.0233,-0.799394 v -0.225072 z m 0.42686,0 h 0.6985 v 1.024466 h -0.6985 z m 2.07997,-0.861482 c -0.13194,0.651933 -0.37253,1.303865 -0.70626,1.746248 0.12418,0.04657 0.34925,0.170744 0.45015,0.240594 0.1397,-0.20955 0.2794,-0.465666 0.39581,-0.752827 h 0.86149 v 0.939093 h -1.57551 v 0.519994 h 1.57551 v 1.490131 h 0.55103 v -1.490131 h 1.3582 v -0.519994 h -1.3582 v -0.939093 h 1.15641 v -0.512232 h -1.15641 v -0.737305 h -0.55103 v 0.737305 h -0.67522 c 0.0699,-0.201789 0.12418,-0.4191 0.17074,-0.628649 z m -0.58208,-2.553401 v 0.488949 h 1.06327 c -0.13194,0.729543 -0.43462,1.358192 -1.23401,1.715203 0.11641,0.09313 0.26387,0.279399 0.32596,0.395816 0.93133,-0.434622 1.28835,-1.195209 1.44357,-2.111019 h 1.13312 c -0.0466,0.908048 -0.10866,1.27282 -0.20179,1.373714 -0.0466,0.06209 -0.10866,0.06985 -0.22507,0.06985 -0.1009,0 -0.38806,-0.0078 -0.6985,-0.03104 0.0776,0.131939 0.12418,0.333727 0.1397,0.481188 0.32596,0.02328 0.64417,0.02328 0.80715,0.0078 0.19403,-0.01552 0.31821,-0.06985 0.4191,-0.194027 0.17075,-0.186267 0.2406,-0.682977 0.29492,-1.979081 0.008,-0.07761 0.008,-0.21731 0.008,-0.21731 z"
       style="font-weight:normal;font-size:7.7611px;font-family:'Noto Sans CJK SC';-inkscape-font-specification:'Noto Sans CJK SC';fill:#ffffff"
       id="path26463" /><path
       d="m 135.57376,36.149308 c -0.65194,0.908049 -1.97909,1.699681 -3.46146,2.196391 0.12418,0.108656 0.30269,0.341489 0.3803,0.473428 0.57432,-0.20955 1.1176,-0.457905 1.61431,-0.745066 v 0.287161 H 137.32 v -0.357011 c 0.52,0.2794 1.0788,0.527755 1.60655,0.714021 0.0931,-0.155222 0.2794,-0.395816 0.41134,-0.519993 -1.22626,-0.34925 -2.62325,-1.05551 -3.36832,-1.637593 l 0.14746,-0.194027 z m -1.10984,1.715203 c 0.44238,-0.279399 0.8382,-0.597604 1.17969,-0.939093 0.37253,0.294922 0.86924,0.628649 1.42804,0.939093 z m -1.01671,1.12536 v 2.452507 h 0.5588 v -0.318205 h 3.37608 v 0.287161 h 0.58208 v -2.421463 z m 0.5588,1.62207 v -1.117599 h 3.37608 v 1.117599 z m -0.65193,-6.340819 c -0.27164,0.745066 -0.7373,1.48237 -1.26506,1.955797 0.1397,0.07761 0.3803,0.232833 0.48895,0.333727 0.26388,-0.279399 0.53552,-0.628649 0.77611,-1.024465 h 0.41134 c 0.18627,0.333728 0.37253,0.721783 0.45014,0.98566 l 0.52,-0.178505 c -0.0699,-0.217311 -0.21731,-0.527755 -0.3803,-0.807155 h 1.24954 V 35.03171 h -1.97132 c 0.10089,-0.201789 0.19403,-0.403577 0.27164,-0.613127 z m 3.06564,0 c -0.18627,0.628649 -0.52776,1.234015 -0.9391,1.637592 0.1397,0.07761 0.37253,0.232833 0.48119,0.318205 0.17851,-0.186266 0.34925,-0.419099 0.50447,-0.682977 h 0.55104 c 0.22507,0.310444 0.4579,0.70626 0.5588,0.970138 l 0.54328,-0.201789 c -0.0854,-0.217311 -0.26388,-0.504471 -0.45791,-0.768349 h 1.44357 v -0.504471 h -2.3749 c 0.0931,-0.20955 0.1785,-0.426861 0.24059,-0.644171 z"
       style="font-weight:normal;font-size:7.7611px;font-family:'Noto Sans CJK SC';-inkscape-font-specification:'Noto Sans CJK SC';fill:#ffffff"
       id="path26465" /><path
       d="m 44.962769,48.286229 c -0.364772,0.63641 -0.98566,1.265059 -1.567743,1.676397 0.131939,0.100895 0.341489,0.325967 0.434622,0.442383 0.597605,-0.481188 1.265059,-1.210731 1.69192,-1.932514 z m -0.62865,-2.654296 v 1.761769 h -1.164165 v 0.5588 H 46.3132 v 2.460268 h 0.558799 c -0.977898,0.582083 -2.235197,0.946854 -3.771894,1.156404 0.124177,0.155222 0.248355,0.388055 0.302682,0.558799 2.972502,-0.457905 4.951582,-1.497892 5.968286,-3.515778 l -0.551038,-0.256116 c -0.42686,0.853721 -1.055509,1.521175 -1.893708,2.025647 v -2.429224 h 3.050112 v -0.5588 h -2.995785 v -0.99342 h 2.289525 v -0.543277 h -2.289525 v -0.830438 h -0.613126 v 2.367135 h -1.443565 v -1.761769 z"
       style="font-weight:normal;font-size:7.7611px;font-family:'Noto Sans CJK SC';-inkscape-font-specification:'Noto Sans CJK SC';fill:#ffffff"
       id="path26467" /><path
       d="m 52.723868,48.286229 c -0.364771,0.63641 -0.985659,1.265059 -1.567742,1.676397 0.131939,0.100895 0.341489,0.325967 0.434622,0.442383 0.597604,-0.481188 1.265059,-1.210731 1.69192,-1.932514 z m -0.628649,-2.654296 v 1.761769 h -1.164165 v 0.5588 H 54.0743 v 2.460268 h 0.558799 c -0.977899,0.582083 -2.235197,0.946854 -3.771895,1.156404 0.124178,0.155222 0.248356,0.388055 0.302683,0.558799 2.972502,-0.457905 4.951582,-1.497892 5.968286,-3.515778 l -0.551038,-0.256116 c -0.426861,0.853721 -1.05551,1.521175 -1.893708,2.025647 v -2.429224 h 3.050112 v -0.5588 h -2.995785 v -0.99342 h 2.289525 v -0.543277 h -2.289525 v -0.830438 h -0.613127 v 2.367135 h -1.443564 v -1.761769 z"
       style="font-weight:normal;font-size:7.7611px;font-family:'Noto Sans CJK SC';-inkscape-font-specification:'Noto Sans CJK SC';fill:#ffffff"
       id="path26469" /><path
       d="m 63.201353,45.694021 v 4.703227 h 0.543277 v -4.703227 z m 1.536698,-0.543277 v 6.107986 c 0,0.131939 -0.03881,0.170744 -0.170744,0.170744 -0.131939,0.0078 -0.5588,0.0078 -1.016704,-0.0078 0.09313,0.155222 0.186266,0.4191 0.21731,0.582083 0.566561,0 0.977899,-0.01552 1.218493,-0.116417 0.232833,-0.09313 0.318205,-0.263877 0.318205,-0.628649 v -6.107986 z m -6.030375,6.069181 0.131939,0.558799 c 1.024465,-0.201789 2.499074,-0.481188 3.88055,-0.752827 l -0.03104,-0.512233 -1.629831,0.302683 v -1.218492 h 1.55222 v -0.519994 h -1.55222 v -0.830438 h -0.551039 v 0.830438 h -1.528936 v 0.519994 h 1.528936 v 1.311626 z m 0.442383,-3.081157 c 0.186266,-0.08537 0.473427,-0.116417 2.902651,-0.34925 0.108656,0.178506 0.201789,0.341489 0.271639,0.481189 l 0.442383,-0.294922 C 62.54166,47.533402 62.029427,46.827142 61.594805,46.307148 l -0.42686,0.248356 c 0.194027,0.232833 0.395816,0.512232 0.582082,0.77611 l -1.986841,0.170744 c 0.318205,-0.4191 0.63641,-0.939093 0.900287,-1.451326 h 2.103259 v -0.512233 h -3.989206 v 0.512233 h 1.234015 c -0.248355,0.551038 -0.56656,1.047749 -0.682977,1.195209 -0.131938,0.186267 -0.248355,0.318206 -0.372533,0.341489 0.06985,0.155222 0.155222,0.42686 0.194028,0.551038 z"
       style="font-weight:normal;font-size:7.7611px;font-family:'Noto Sans CJK SC';-inkscape-font-specification:'Noto Sans CJK SC';fill:#ffffff"
       id="path26471" /><path
       d="m 68.851433,46.439087 v 0.56656 h 4.229799 v -0.56656 z m 0.512232,1.156404 c 0.232833,1.078793 0.465666,2.514596 0.527755,3.329512 l 0.574322,-0.170744 C 70.388131,49.962626 70.147536,48.565628 69.89142,47.471313 Z M 70.411414,45.1197 c 0.147461,0.388055 0.302683,0.900288 0.364772,1.234015 l 0.582082,-0.170744 c -0.07761,-0.333728 -0.248355,-0.822677 -0.395816,-1.210732 z m -1.893708,6.162313 v 0.5588 h 4.881731 v -0.5588 H 71.79289 c 0.28716,-1.039987 0.605365,-2.568924 0.814915,-3.764133 l -0.613127,-0.100894 c -0.1397,1.164165 -0.450144,2.817279 -0.745065,3.865027 z m -0.310444,-6.224402 c -0.434622,1.179687 -1.164165,2.343852 -1.924753,3.096679 0.100894,0.131939 0.271638,0.434622 0.333727,0.574322 0.263877,-0.271639 0.519994,-0.589844 0.768349,-0.939094 v 4.361739 h 0.582082 V 46.88147 c 0.302683,-0.527755 0.574322,-1.094315 0.791633,-1.660876 z"
       style="font-weight:normal;font-size:7.7611px;font-family:'Noto Sans CJK SC';-inkscape-font-specification:'Noto Sans CJK SC';fill:#ffffff"
       id="path26473" /><path
       d="m 77.854323,48.969206 c 0.06209,-0.06209 0.302683,-0.108656 0.56656,-0.108656 h 0.70626 v 1.117599 l -1.591025,0.271638 0.124177,0.56656 1.466848,-0.28716 v 1.598786 h 0.543277 v -1.707442 l 0.869243,-0.178505 -0.03104,-0.512233 -0.838199,0.155222 V 48.86055 h 0.783871 V 48.332795 H 79.67042 v -1.20297 h -0.543277 v 1.20297 h -0.752827 c 0.217311,-0.535515 0.434622,-1.171926 0.620888,-1.83938 h 1.528937 v -0.551038 h -1.389237 c 0.06985,-0.263878 0.124178,-0.535516 0.178506,-0.799394 l -0.566561,-0.116416 c -0.0388,0.302683 -0.100894,0.613127 -0.170744,0.91581 h -0.970137 v 0.551038 h 0.838198 c -0.155222,0.628649 -0.325966,1.140881 -0.403577,1.334909 -0.131939,0.341488 -0.232833,0.589844 -0.364772,0.628649 0.06209,0.1397 0.147461,0.403577 0.178506,0.512233 z m 3.03459,-3.531301 v 0.535516 h 2.483552 c -0.628649,0.98566 -1.792814,1.816097 -2.894891,2.242958 0.124178,0.116416 0.294922,0.333727 0.372533,0.473427 0.589844,-0.256116 1.187449,-0.597605 1.730726,-1.024465 0.63641,0.310444 1.334909,0.70626 1.715203,0.98566 l 0.349249,-0.465666 c -0.364772,-0.248356 -1.032226,-0.597605 -1.637592,-0.884766 0.512233,-0.481188 0.946854,-1.039987 1.234015,-1.684159 l -0.403577,-0.201788 -0.116417,0.02328 z m 0.0388,3.531301 v 0.535515 h 1.389237 v 1.90147 h -1.831619 v 0.543277 h 4.128905 v -0.543277 h -1.715203 v -1.90147 h 1.381475 v -0.535515 z"
       style="font-weight:normal;font-size:7.7611px;font-family:'Noto Sans CJK SC';-inkscape-font-specification:'Noto Sans CJK SC';fill:#ffffff"
       id="path26475" /><path
       d="m 89.193291,45.282683 c -0.240595,1.140882 -0.667455,2.235197 -1.26506,2.925935 0.1397,0.07761 0.411339,0.256116 0.519994,0.349249 0.597605,-0.752826 1.071032,-1.924752 1.350431,-3.166528 z m 1.893708,-0.08537 -0.551038,0.124178 c 0.341488,1.334909 0.752826,2.312807 1.420281,3.213095 0.08537,-0.162983 0.287161,-0.364772 0.450144,-0.481188 -0.589844,-0.768349 -1.001182,-1.653114 -1.319387,-2.856085 z m -4.555766,-0.170744 v 1.645353 h -1.187448 v 0.543277 h 1.133121 c -0.248356,1.071032 -0.737305,2.305047 -1.241776,2.949218 0.108655,0.147461 0.248355,0.403577 0.310444,0.558799 0.364771,-0.512232 0.721782,-1.358192 0.985659,-2.235197 v 3.671001 h 0.566561 v -3.841745 c 0.248355,0.434622 0.527754,0.946854 0.659693,1.234015 l 0.403577,-0.473427 c -0.147461,-0.240594 -0.799393,-1.20297 -1.06327,-1.544459 v -0.318205 h 0.977898 V 46.67192 h -0.977898 v -1.645353 z m 4.15995,4.617854 c 0.20955,0.388055 0.434621,0.838199 0.620888,1.26506 l -2.289525,0.263877 c 0.527755,-0.98566 1.032227,-2.235197 1.389237,-3.430406 L 89.798656,47.51788 c -0.325966,1.319387 -0.954615,2.75519 -1.164165,3.127723 -0.186266,0.388055 -0.341488,0.644171 -0.49671,0.698499 0.06985,0.155222 0.170744,0.450144 0.201789,0.574322 0.225071,-0.100895 0.551038,-0.155222 3.18205,-0.496711 0.08537,0.20955 0.155222,0.403577 0.201789,0.574322 l 0.543277,-0.248356 C 92.08042,51.157836 91.599231,50.179937 91.180132,49.442633 Z"
       style="font-weight:normal;font-size:7.7611px;font-family:'Noto Sans CJK SC';-inkscape-font-specification:'Noto Sans CJK SC';fill:#ffffff"
       id="path26477" /><path
       d="m 97.396774,45.057611 v 0.830438 h -2.157586 v 0.535516 h 2.157586 v 0.760588 H 95.46426 v 2.149824 h 1.893709 c -0.05433,0.426861 -0.170745,0.830438 -0.4191,1.19521 -0.411338,-0.287161 -0.745065,-0.636411 -0.98566,-1.039988 l -0.488949,0.162983 c 0.287161,0.496711 0.667455,0.91581 1.12536,1.26506 -0.357011,0.325966 -0.884766,0.597604 -1.637592,0.791632 0.124177,0.124177 0.28716,0.349249 0.35701,0.481188 0.807155,-0.240594 1.365954,-0.56656 1.76177,-0.946854 0.783871,0.473427 1.761769,0.783871 2.871607,0.939093 0.07762,-0.170744 0.225075,-0.395816 0.349245,-0.527755 -1.117594,-0.124177 -2.095493,-0.395816 -2.879364,-0.822676 0.310444,-0.457905 0.450144,-0.962377 0.512233,-1.497893 h 2.033408 v -2.149824 h -1.994603 v -0.760588 h 2.250716 v -0.535516 h -2.250716 v -0.830438 z m -1.389237,2.615491 h 1.389237 v 0.814915 l -0.0078,0.34925 h -1.381476 z m 1.955797,0 h 1.435804 v 1.164165 h -1.443565 l 0.0078,-0.34925 z m -3.057873,-2.662057 c -0.457905,1.179687 -1.210732,2.32833 -1.994603,3.073395 0.100895,0.1397 0.263878,0.442383 0.325967,0.574322 0.294921,-0.294922 0.582082,-0.636411 0.85372,-1.016704 v 4.555765 h 0.5588 v -5.401725 c 0.302683,-0.519994 0.582082,-1.063271 0.799393,-1.614309 z"
       style="font-weight:normal;font-size:7.7611px;font-family:'Noto Sans CJK SC';-inkscape-font-specification:'Noto Sans CJK SC';fill:#ffffff"
       id="path26479" /><path
       d="m 101.69642,45.569844 v 2.817279 c 0,1.094315 -0.0776,2.46803 -0.93909,3.438167 0.13194,0.06985 0.36477,0.263878 0.45014,0.380294 0.59761,-0.659693 0.86149,-1.55222 0.9779,-2.421463 h 1.94804 v 2.312808 h 0.58984 v -2.312808 h 2.0955 v 1.591026 c 0,0.139699 -0.0543,0.186266 -0.20955,0.194027 -0.14746,0.0078 -0.67522,0.01552 -1.21849,-0.0078 0.0776,0.155222 0.17074,0.411338 0.20179,0.558799 0.72954,0.0078 1.17968,0 1.44356,-0.09313 0.26388,-0.09313 0.35701,-0.271639 0.35701,-0.651932 v -5.805303 z m 0.57433,0.558799 h 1.86266 v 1.249537 h -1.86266 z m 4.548,0 v 1.249537 h -2.0955 v -1.249537 z m -4.548,1.800575 h 1.86266 v 1.303865 h -1.89371 c 0.0233,-0.294922 0.0311,-0.582082 0.0311,-0.84596 z m 4.548,0 v 1.303865 h -2.0955 v -1.303865 z"
       style="font-weight:normal;font-size:7.7611px;font-family:'Noto Sans CJK SC';-inkscape-font-specification:'Noto Sans CJK SC';fill:#ffffff"
       id="path26481" /></g><path
     sodipodi:type="star"
     style="opacity:1;fill:#ffffff;fill-opacity:0.2;stroke:none;stroke-width:0.264583"
     id="path26318"
     inkscape:flatsided="true"
     sodipodi:sides="3"
     sodipodi:cx="-68.922966"
     sodipodi:cy="-398.59427"
     sodipodi:r1="182.19133"
     sodipodi:r2="128.82872"
     sodipodi:arg1="0.7920154"
     sodipodi:arg2="1.839213"
     inkscape:rounded="-0.44"
     inkscape:randomized="0"
     d="m 59.050454,-268.91588 c 98.828206,-97.52885 -339.313264,-218.04151 -304.264904,-83.68935 35.04835,134.35216 358.48611,-184.83315 224.609552,-221.65647 -133.876562,-36.82331 -19.172853,402.87466 79.655352,305.34582 z"
     transform="matrix(0.25556756,0.06847912,-0.06847912,0.25556756,197.15803,143.80251)" /><path
     sodipodi:type="star"
     style="fill:#ffffff;fill-opacity:0.2;stroke:none;stroke-width:0.264583"
     id="path26318-4"
     inkscape:flatsided="true"
     sodipodi:sides="3"
     sodipodi:cx="-68.922966"
     sodipodi:cy="-398.59427"
     sodipodi:r1="182.19133"
     sodipodi:r2="128.82872"
     sodipodi:arg1="0.7920154"
     sodipodi:arg2="1.839213"
     inkscape:rounded="-0.44"
     inkscape:randomized="0"
     d="m 59.050454,-268.91588 c 98.828206,-97.52885 -339.313264,-218.04151 -304.264904,-83.68935 35.04835,134.35216 358.48611,-184.83315 224.609552,-221.65647 -133.876562,-36.82331 -19.172853,402.87466 79.655352,305.34582 z"
     transform="matrix(0.05346086,-0.09259693,0.09259693,0.05346086,173.67478,26.976539)" /><path
     sodipodi:type="star"
     style="fill:#ffffff;fill-opacity:0.2;stroke:none;stroke-width:0.264583"
     id="path26318-5"
     inkscape:flatsided="true"
     sodipodi:sides="3"
     sodipodi:cx="-68.922966"
     sodipodi:cy="-398.59427"
     sodipodi:r1="182.19133"
     sodipodi:r2="128.82872"
     sodipodi:arg1="0.7920154"
     sodipodi:arg2="1.839213"
     inkscape:rounded="-0.44"
     inkscape:randomized="0"
     d="m 59.050454,-268.91588 c 98.828206,-97.52885 -339.313264,-218.04151 -304.264904,-83.68935 35.04835,134.35216 358.48611,-184.83315 224.609552,-221.65647 -133.876562,-36.82331 -19.172853,402.87466 79.655352,305.34582 z"
     transform="matrix(0.05698153,-0.0328983,0.0328983,0.05698153,163.15972,78.396767)" /></svg>
