<?xml version="1.0" encoding="UTF-8" standalone="no"?>
<!-- Created with Inkscape (http://www.inkscape.org/) -->

<svg
   width="345"
   height="96"
   viewBox="0 0 91.28125 25.4"
   version="1.1"
   id="svg645"
   sodipodi:docname="portal-logo-typed.en.svg"
   inkscape:version="1.2.1 (9c6d41e410, 2022-07-14)"
   xmlns:inkscape="http://www.inkscape.org/namespaces/inkscape"
   xmlns:sodipodi="http://sodipodi.sourceforge.net/DTD/sodipodi-0.dtd"
   xmlns="http://www.w3.org/2000/svg"
   xmlns:svg="http://www.w3.org/2000/svg">
  <sodipodi:namedview
     id="namedview647"
     pagecolor="#ffffff"
     bordercolor="#666666"
     borderopacity="1.0"
     inkscape:showpageshadow="2"
     inkscape:pageopacity="0.0"
     inkscape:pagecheckerboard="0"
     inkscape:deskcolor="#d1d1d1"
     inkscape:document-units="mm"
     showgrid="false"
     inkscape:zoom="1.9269792"
     inkscape:cx="114.68728"
     inkscape:cy="110.27623"
     inkscape:window-width="1920"
     inkscape:window-height="1093"
     inkscape:window-x="0"
     inkscape:window-y="0"
     inkscape:window-maximized="1"
     inkscape:current-layer="text1092" />
  <defs
     id="defs642" />
  <g
     inkscape:label="图层 1"
     inkscape:groupmode="layer"
     id="layer1">
    <g
       id="g1245"
       transform="matrix(0.0267261,0,0,0.0267261,-0.68651,-2.0624875)">
      <circle
         style="color:#000000;display:inline;overflow:visible;visibility:visible;opacity:1;fill:#000000;fill-opacity:1;fill-rule:nonzero;stroke:none;stroke-width:2.299;stroke-linejoin:miter;stroke-miterlimit:4;stroke-dasharray:none;stroke-dashoffset:0;stroke-opacity:1;marker:none;enable-background:accumulate"
         id="path8317"
         cx="501.58014"
         cy="552.36218"
         r="475.19086" />
      <circle
         r="54.066284"
         cy="550.36218"
         cx="524"
         id="circle8306"
         style="color:#000000;display:inline;overflow:visible;visibility:visible;opacity:1;fill:#ffffff;fill-opacity:1;fill-rule:nonzero;stroke:#ffffff;stroke-width:0.963797;stroke-linejoin:miter;stroke-miterlimit:4;stroke-dasharray:none;stroke-dashoffset:0;stroke-opacity:1;marker:none;enable-background:accumulate" />
      <path
         style="color:#000000;display:inline;overflow:visible;visibility:visible;opacity:1;fill:#c00000;fill-opacity:1;fill-rule:nonzero;stroke:none;stroke-width:4.75142;stroke-linejoin:miter;stroke-miterlimit:4;stroke-dasharray:none;stroke-dashoffset:0;stroke-opacity:1;marker:none;enable-background:accumulate"
         d="M 513.8418,176.91489 A 373.65318,373.65318 0 0 0 140.18945,550.56724 373.65318,373.65318 0 0 0 513.8418,924.21958 V 741.72544 A 191.87151,191.87151 0 0 1 332.12891,550.36216 191.87151,191.87151 0 0 1 513.8418,358.85044 Z"
         id="circle8373"
         inkscape:connector-curvature="0" />
      <path
         style="color:#000000;display:inline;overflow:visible;visibility:visible;opacity:1;fill:#0070c0;fill-opacity:1;fill-rule:nonzero;stroke:none;stroke-width:4.75142;stroke-linejoin:miter;stroke-miterlimit:4;stroke-dasharray:none;stroke-dashoffset:0;stroke-opacity:1;marker:none;enable-background:accumulate"
         d="M 514.76758,394.05161 A 156.0855,156.0855 0 0 0 358.68359,550.13755 156.0855,156.0855 0 0 0 514.76758,706.22154 v -74.27149 a 82.154182,82.154182 0 0 1 -72.92188,-81.58789 82.154182,82.154182 0 0 1 72.92188,-81.5332 z"
         id="path8382"
         inkscape:connector-curvature="0" />
      <path
         style="color:#000000;display:inline;overflow:visible;visibility:visible;opacity:1;fill:#ffc000;fill-opacity:1;fill-rule:nonzero;stroke:none;stroke-width:4.75142;stroke-linejoin:miter;stroke-miterlimit:4;stroke-dasharray:none;stroke-dashoffset:0;stroke-opacity:1;marker:none;enable-background:accumulate"
         d="M 531.56836,230.53013 V 391.40318 A 159.33853,159.33853 0 0 1 683.33789,550.36216 159.33853,159.33853 0 0 1 531.56836,709.43247 V 870.29966 A 319.88508,319.88508 0 0 0 851.45312,550.41489 319.88508,319.88508 0 0 0 531.56836,230.53013 Z"
         id="path8387"
         inkscape:connector-curvature="0" />
    </g>
    <g
       aria-label="AOSC
"
       id="text1833"
       style="font-size:16.1488px;line-height:0.85;stroke-width:0.336432">
      <path
         d="m 35.708832,9.1061144 h 1.168099 L 33.385195,0.10045118 H 32.367819 L 28.863523,9.1061144 h 1.142979 l 1.067617,-2.7758042 h 3.554536 z M 33.284714,2.6124911 34.28953,5.3254943 h -2.838605 l 1.017376,-2.7130032 c 0.100481,-0.2888846 0.263764,-0.8289732 0.389366,-1.3439413 0.08792,0.3140049 0.351686,1.1429781 0.427047,1.3439413 z"
         style="font-size:12.5602px"
         id="path1167" />
      <path
         d="m 45.681624,4.6095629 c 0,-2.7883644 -1.431863,-4.609593322211 -4.119745,-4.609593322211 -2.813485,0 -4.157426,1.846349322211 -4.157426,4.597033122211 0,2.7758041 1.343941,4.6347137 4.144865,4.6347137 2.700443,0 4.132306,-1.8463494 4.132306,-4.6221535 z m -7.083952,0 c 0,-2.260836 0.929454,-3.61733754 2.964207,-3.61733754 2.022192,0 2.926526,1.35650154 2.926526,3.61733754 0,2.2608359 -0.904334,3.6424579 -2.939087,3.6424579 -2.022192,0 -2.951646,-1.381622 -2.951646,-3.6424579 z"
         style="font-size:12.5602px"
         id="path1169" />
      <path
         d="m 52.753018,6.7071162 c 0,-1.4067423 -0.866654,-1.9970717 -2.449239,-2.5874011 -1.456983,-0.5400886 -1.959391,-0.9043344 -1.959391,-1.8086688 0,-0.7787324 0.577769,-1.3062607 1.695627,-1.3062607 0.778732,0 1.519784,0.2135234 2.147794,0.4772875 l 0.351686,-0.96713533 c -0.678251,-0.3014448 -1.494664,-0.50240799 -2.47436,-0.50240799 -1.695627,0 -2.863725,0.86665378 -2.863725,2.28595632 0,1.3941822 0.778732,2.1101136 2.311077,2.6627624 1.620265,0.5903294 2.110113,0.9671354 2.110113,1.8463493 0,0.8917742 -0.690811,1.444423 -2.022192,1.444423 -0.954575,0 -1.90915,-0.2637642 -2.51204,-0.5275284 v 1.0801772 c 0.565209,0.2763244 1.456983,0.4270468 2.461799,0.4270468 1.959391,0 3.202851,-0.9294548 3.202851,-2.5246002 z"
         style="font-size:12.5602px"
         id="path1171" />
      <path
         d="m 58.405106,1.0047856 c 0.803853,0 1.482104,0.2386438 2.034752,0.4898477 l 0.452168,-0.95457513 c -0.678251,-0.3391254 -1.557465,-0.52752839 -2.47436,-0.52752839 -2.775804,0 -4.308148,1.88402992 -4.308148,4.59703312 0,2.8260449 1.369062,4.6221535 4.119745,4.6221535 0.992256,0 1.645387,-0.1130418 2.311077,-0.3642458 V 7.887775 c -0.678251,0.2009632 -1.369062,0.3516856 -2.147794,0.3516856 -2.059873,0 -3.089809,-1.3941822 -3.089809,-3.6173375 0,-2.2482758 1.180659,-3.6173375 3.102369,-3.6173375 z"
         style="font-size:12.5602px"
         id="path1173" />
    </g>
    <g
       aria-label="Portal"
       id="text1092"
       style="font-size:20.6375px;line-height:1.25;stroke-width:0.264583">
      <path
         d="m 31.599791,19.782513 v 5.431451 H 28.979796 V 10.461376 q 2.619995,-0.110846 3.063379,-0.110846 3.496685,0 5.10899,1.078229 1.622382,1.068152 1.622382,3.345532 0,5.07876 -5.985682,5.07876 -0.443383,0 -1.189074,-0.07054 z m 0,-7.053833 v 4.726068 q 0.665075,0.07054 1.047998,0.07054 1.793689,0 2.619995,-0.594537 0.826306,-0.604614 0.826306,-1.95492 0,-2.297534 -3.698224,-2.297534 -0.413153,0 -0.796075,0.05039 z"
         style="font-weight:bold;font-family:'Trebuchet MS';-inkscape-font-specification:'Trebuchet MS Bold'"
         id="path1154" />
      <path
         d="m 39.268315,19.79259 q 0,-2.468842 1.420844,-4.020685 1.43092,-1.551844 3.768762,-1.551844 2.458765,0 3.819147,1.491382 1.360382,1.491382 1.360382,4.081147 0,2.579687 -1.390613,4.1013 -1.380536,1.521613 -3.788916,1.521613 -2.458764,0 -3.829224,-1.53169 -1.360382,-1.541766 -1.360382,-4.091223 z m 2.619996,0 q 0,3.567224 2.56961,3.567224 1.178998,0 1.864228,-0.927075 0.695306,-0.927075 0.695306,-2.640149 0,-3.51684 -2.559534,-3.51684 -1.178998,0 -1.874304,0.927075 -0.695306,0.927075 -0.695306,2.589765 z"
         style="font-weight:bold;font-family:'Trebuchet MS';-inkscape-font-specification:'Trebuchet MS Bold'"
         id="path1156" />
      <path
         d="m 57.890434,16.769518 q -0.675152,-0.443383 -1.481305,-0.443383 -0.876691,0 -1.56192,0.796075 -0.675153,0.796075 -0.675153,1.944843 v 6.146911 H 51.65283 V 14.4216 h 2.519226 v 0.987536 q 1.058075,-1.189075 2.811457,-1.189075 1.289844,0 1.975073,0.393 z"
         style="font-weight:bold;font-family:'Trebuchet MS';-inkscape-font-specification:'Trebuchet MS Bold'"
         id="path1158" />
      <path
         d="M 60.853044,16.447057 H 59.603508 V 14.4216 h 1.249536 V 12.224834 L 63.37227,11.297759 V 14.4216 h 2.96261 v 2.025457 h -2.96261 v 4.726069 q 0,1.158844 0.362769,1.642535 0.362768,0.473615 1.26969,0.473615 0.906921,0 1.69292,-0.493769 v 2.317688 q -0.876691,0.302308 -2.499073,0.302308 -1.612305,0 -2.478918,-0.906922 -0.866614,-0.916998 -0.866614,-2.599841 z"
         style="font-weight:bold;font-family:'Trebuchet MS';-inkscape-font-specification:'Trebuchet MS Bold'"
         id="path1160" />
      <path
         d="m 74.658406,24.135736 q -0.342615,0.564306 -1.199152,0.927075 -0.84646,0.352692 -1.773535,0.352692 -1.743304,0 -2.740918,-0.866614 -0.997614,-0.876691 -0.997614,-2.478919 0,-1.874304 1.40069,-2.932379 1.410767,-1.058075 4.000531,-1.058075 0.443384,0 1.047998,0.151154 0,-1.904535 -2.40838,-1.904535 -1.420843,0 -2.378149,0.473614 L 69.065724,14.84483 q 1.299921,-0.624769 3.09361,-0.624769 2.468841,0 3.617608,1.128614 1.148768,1.118536 1.148768,4.252454 v 2.307611 q 0,2.156457 0.866613,2.710687 -0.312384,0.544153 -0.695306,0.665076 -0.382922,0.131 -0.876691,0.131 -0.544153,0 -0.97746,-0.403077 -0.433306,-0.403076 -0.58446,-0.87669 z M 74.41656,20.135205 q -0.644922,-0.131 -0.967383,-0.131 -2.982763,0 -2.982763,1.954919 0,1.451075 1.682843,1.451075 2.267303,0 2.267303,-2.267304 z"
         style="font-weight:bold;font-family:'Trebuchet MS';-inkscape-font-specification:'Trebuchet MS Bold'"
         id="path1162" />
      <path
         d="M 80.079778,10.400915 82.599004,9.7963003 V 21.928894 q 0,1.995227 1.189075,2.378149 -0.584461,1.10846 -1.995227,1.10846 -1.713074,0 -1.713074,-2.37815 z"
         style="font-weight:bold;font-family:'Trebuchet MS';-inkscape-font-specification:'Trebuchet MS Bold'"
         id="path1164" />
    </g>
  </g>
</svg>
