<svg xmlns="http://www.w3.org/2000/svg" width="345" height="96" viewBox="0 0 91.281 25.4"><g transform="matrix(.02673 0 0 .02673 -.687 -2.062)"><circle cx="501.58" cy="552.362" r="475.191" style="color:#000;display:inline;overflow:visible;visibility:visible;opacity:1;fill:#000;fill-opacity:1;fill-rule:nonzero;stroke:none;stroke-width:2.299;stroke-linejoin:miter;stroke-miterlimit:4;stroke-dasharray:none;stroke-dashoffset:0;stroke-opacity:1;marker:none"/><circle cx="524" cy="550.362" r="54.066" style="color:#000;display:inline;overflow:visible;visibility:visible;opacity:1;fill:#fff;fill-opacity:1;fill-rule:nonzero;stroke:#fff;stroke-width:.963797;stroke-linejoin:miter;stroke-miterlimit:4;stroke-dasharray:none;stroke-dashoffset:0;stroke-opacity:1;marker:none"/><path d="M513.842 176.915a373.653 373.653 0 0 0-373.653 373.652A373.653 373.653 0 0 0 513.842 924.22V741.725a191.87 191.87 0 0 1-181.713-191.363A191.87 191.87 0 0 1 513.842 358.85Z" style="color:#000;display:inline;overflow:visible;visibility:visible;opacity:1;fill:#c00000;fill-opacity:1;fill-rule:nonzero;stroke:none;stroke-width:4.75142;stroke-linejoin:miter;stroke-miterlimit:4;stroke-dasharray:none;stroke-dashoffset:0;stroke-opacity:1;marker:none"/><path d="M514.768 394.052a156.086 156.086 0 0 0-156.084 156.086 156.086 156.086 0 0 0 156.084 156.084V631.95a82.154 82.154 0 0 1-72.922-81.588 82.154 82.154 0 0 1 72.922-81.533z" style="color:#000;display:inline;overflow:visible;visibility:visible;opacity:1;fill:#0070c0;fill-opacity:1;fill-rule:nonzero;stroke:none;stroke-width:4.75142;stroke-linejoin:miter;stroke-miterlimit:4;stroke-dasharray:none;stroke-dashoffset:0;stroke-opacity:1;marker:none"/><path d="M531.568 230.53v160.873a159.34 159.34 0 0 1 151.77 158.96 159.34 159.34 0 0 1-151.77 159.07V870.3a319.885 319.885 0 0 0 319.885-319.885A319.885 319.885 0 0 0 531.568 230.53" style="color:#000;display:inline;overflow:visible;visibility:visible;opacity:1;fill:#ffc000;fill-opacity:1;fill-rule:nonzero;stroke:none;stroke-width:4.75142;stroke-linejoin:miter;stroke-miterlimit:4;stroke-dasharray:none;stroke-dashoffset:0;stroke-opacity:1;marker:none"/></g><text xml:space="preserve" x="208.596" y="18.631" style="font-style:normal;font-weight:400;font-size:16.1488px;line-height:.85;font-family:sans-serif;fill:#000;fill-opacity:1;stroke:none;stroke-width:.336432" transform="translate(-179.732 -9.525)"><tspan x="208.596" y="18.631" style="font-size:12.5602px;stroke-width:.336432">AOSC</tspan><tspan x="208.596" y="33.391" style="font-weight:700;font-size:16.1488px;stroke-width:.336432">社区门户</tspan></text></svg>