<?xml version="1.0" encoding="UTF-8" standalone="no"?>
<!-- Created with Inkscape (http://www.inkscape.org/) -->

<svg
   width="2100"
   height="900"
   viewBox="0 0 555.62498 238.125"
   version="1.1"
   id="svg1"
   inkscape:version="1.3.2 (091e20ef0f, 2023-11-25)"
   sodipodi:docname="apernet.svg"
   xml:space="preserve"
   inkscape:export-filename="apernet.png"
   inkscape:export-xdpi="96"
   inkscape:export-ydpi="96"
   xmlns:inkscape="http://www.inkscape.org/namespaces/inkscape"
   xmlns:sodipodi="http://sodipodi.sourceforge.net/DTD/sodipodi-0.dtd"
   xmlns="http://www.w3.org/2000/svg"
   xmlns:svg="http://www.w3.org/2000/svg"><sodipodi:namedview
     id="namedview1"
     pagecolor="#ffffff"
     bordercolor="#000000"
     borderopacity="0.25"
     inkscape:showpageshadow="2"
     inkscape:pageopacity="0.0"
     inkscape:pagecheckerboard="0"
     inkscape:deskcolor="#d1d1d1"
     inkscape:document-units="mm"
     inkscape:zoom="0.39289557"
     inkscape:cx="1020.6274"
     inkscape:cy="638.8466"
     inkscape:window-width="1920"
     inkscape:window-height="1100"
     inkscape:window-x="0"
     inkscape:window-y="0"
     inkscape:window-maximized="1"
     inkscape:current-layer="layer1" /><defs
     id="defs1" /><g
     inkscape:label="图层 1"
     inkscape:groupmode="layer"
     id="layer1"><path
       style="fill:#333333;fill-opacity:1;stroke-width:1.33111"
       d="M 66.145831,119.0625 V 56.725066 H 277.8125 489.47917 V 119.0625 181.39993 H 277.8125 66.145831 Z m 298.657799,0 V 62.007902 H 218.11616 71.428708 V 119.0625 176.11711 H 218.11616 364.80363 Z m -237.54265,43.44704 c 0.47812,-0.70456 1.03192,-1.88487 1.23066,-2.62296 0.23243,-0.86318 0.32688,-8.37739 0.26472,-21.0601 l -0.0966,-19.71811 -1.03442,-1.07951 c -0.56893,-0.59371 -1.27418,-1.0795 -1.56725,-1.0795 -0.32601,0 -0.40296,-0.12072 -0.19825,-0.31106 0.33472,-0.31122 7.69348,-3.56302 8.06302,-3.56302 0.10768,0 0.19586,1.14241 0.19586,2.53866 v 2.53865 l 1.49681,-1.42736 c 2.26211,-2.15717 3.4955,-2.88571 5.95,-3.5145 6.7442,-1.72779 13.0928,1.78997 15.49758,8.58719 0.83059,2.34771 0.98934,7.29587 0.32429,10.10839 -1.463,6.18717 -6.23798,11.2493 -11.99797,12.71953 -3.43484,0.87675 -5.9447,0.53715 -10.69679,-1.4473 -0.63485,-0.26512 -0.65331,0.0176 -0.50876,7.79115 0.13399,7.20576 0.22776,8.23888 0.87889,9.68443 0.40087,0.89001 1.09553,1.95978 1.54368,2.37729 l 0.8148,0.7591 h -5.51476 -5.51475 z m 18.72174,-21.31777 c 1.77345,-0.82621 3.82457,-3.01208 4.71476,-5.02454 2.91175,-6.58246 0.49935,-16.26198 -4.71607,-18.92266 -1.98174,-1.01102 -5.19914,-1.02351 -7.13219,-0.0277 -1.72031,0.88619 -3.90386,3.21502 -4.28139,4.56626 -0.15019,0.53757 -0.26978,4.14709 -0.26575,8.02118 0.007,6.40129 0.0748,7.19121 0.74768,8.66028 0.90177,1.96894 2.61924,3.12253 5.16382,3.46846 2.34734,0.31912 3.92942,0.11581 5.76914,-0.74125 z m -47.536243,3.45275 c -3.541363,-0.99628 -5.886321,-4.01747 -5.886321,-7.5838 0,-3.72053 1.937605,-6.11269 6.206107,-7.66206 2.269527,-0.82381 6.761507,-1.53144 9.721277,-1.53144 1.93589,0 1.90911,0.0822 1.31421,-4.03419 -0.70105,-4.85069 -2.97952,-7.00244 -7.43301,-7.01964 -1.99518,-0.008 -2.594319,0.14697 -4.045976,1.04446 -1.804831,1.11582 -3.273567,3.21776 -3.302684,4.72655 -0.0322,1.66589 -1.051167,-0.3109 -1.051167,-2.03919 0,-2.88825 1.912236,-5.38527 5.264969,-6.87499 1.963198,-0.87229 6.744848,-1.01646 9.281518,-0.2798 2.44618,0.71037 4.93912,3.07319 5.90725,5.59893 0.69267,1.80707 0.78799,2.86427 0.94342,10.46272 0.18603,9.09601 0.32781,9.83918 2.09818,10.99917 0.51726,0.33892 1.73092,0.69701 2.69702,0.79574 l 1.75657,0.17953 -2.43038,1.8735 c -2.18256,1.6825 -2.55704,1.85074 -3.67288,1.65001 -1.97479,-0.35526 -3.64002,-1.36027 -4.55296,-2.7478 l -0.84511,-1.28446 -1.25196,1.09923 c -2.86206,2.5129 -7.27772,3.59542 -10.718073,2.62753 z m 7.320823,-3.70962 c 1.66323,-0.77005 3.14445,-2.26388 3.69864,-3.73013 0.2187,-0.57863 0.49005,-2.36159 0.603,-3.96214 l 0.20537,-2.91009 h -1.94128 c -4.37305,0 -7.62105,1.15189 -9.024058,3.20036 -0.695539,1.01548 -0.802455,1.5405 -0.688961,3.38325 0.147852,2.40104 0.75493,3.39183 2.568809,4.1925 1.46649,0.64732 2.92456,0.59198 4.57848,-0.17375 z m 70.30846,3.81006 c -7.99654,-1.57153 -12.95179,-10.7766 -10.7742,-20.01466 0.75999,-3.22414 2.42362,-6.10763 4.78535,-8.29414 2.6953,-2.49537 5.1621,-3.45602 8.93607,-3.47996 3.26179,-0.0207 5.64242,0.8781 8.17862,3.08784 1.92345,1.67588 3.93447,5.6839 4.21483,8.40034 l 0.2068,2.00377 -10.87859,0.0932 -10.87861,0.0932 0.0908,2.019 c 0.25551,5.68668 4.58867,10.68666 9.86838,11.38704 3.6264,0.48106 8.15391,-0.86161 10.59653,-3.14248 1.15582,-1.07928 1.17865,-1.08487 0.92332,-0.22618 -1.79526,6.03789 -8.2526,9.45196 -15.26921,8.07301 z m 9.11056,-22.09143 c 0,-1.93243 -1.51547,-4.73387 -3.18774,-5.89275 -4.39733,-3.04734 -10.22108,-0.15146 -11.88863,5.91166 l -0.36324,1.3207 h 7.71981 7.7198 z m 49.25512,21.91812 c -1.04589,-0.32198 -2.04678,-0.97115 -2.77352,-1.79884 -2.23356,-2.54387 -2.26451,-2.73159 -2.45774,-14.90559 l -0.17609,-11.09395 -2.18032,-0.17609 -2.1803,-0.17609 4.82174,-5.43175 4.82174,-5.43176 0.0996,3.93496 0.0996,3.93494 h 5.27133 5.27133 v 1.58485 1.58485 h -5.28286 -5.28287 v 10.04869 c 0,10.92222 0.11488,11.69958 1.94206,13.1368 2.43036,1.91171 5.24037,1.74205 7.82778,-0.47268 l 1.45596,-1.24626 -0.29137,1.01596 c -1.37958,4.81027 -5.88469,7.06239 -10.98602,5.49196 z m 27.69858,0.24391 c -1.59315,-0.42203 -3.78155,-1.63399 -4.62678,-2.56235 -0.41398,-0.4547 -1.12372,-1.53988 -1.57719,-2.41156 -0.78834,-1.51534 -0.83358,-2.00965 -1.03152,-11.27004 -0.2455,-11.48566 -0.51088,-12.52983 -3.68243,-14.48886 l -1.05657,-0.65264 5.01872,-9.8e-4 5.01871,-9.9e-4 v 10.86247 c 0,10.69143 0.0134,10.88691 0.81948,12.41466 0.4507,0.8537 1.49451,2.02766 2.31957,2.60877 1.33265,0.93862 1.78486,1.05656 4.05077,1.05656 2.22018,0 2.77172,-0.1369 4.25666,-1.05656 1.12046,-0.69392 1.98736,-1.58934 2.52577,-2.60877 0.79292,-1.50135 0.81966,-1.83005 0.81633,-10.03738 -0.004,-8.2236 -0.0296,-8.54139 -0.8522,-10.30811 -0.51431,-1.10462 -1.24154,-2.03582 -1.84556,-2.36319 -0.94099,-0.51 -0.74662,-0.54103 3.47259,-0.55435 l 4.46938,-0.0141 0.10915,12.06248 c 0.12073,13.35609 0.18263,13.73421 2.43702,14.9 0.59584,0.30811 1.02899,0.6113 0.96257,0.67372 -0.26378,0.24796 -8.12912,3.70863 -8.42883,3.70863 -0.17635,0 -0.32063,-1.21016 -0.32063,-2.68923 v -2.68921 l -1.83136,1.86045 c -1.00725,1.02326 -2.65584,2.23793 -3.66352,2.69926 -1.97742,0.90528 -5.59662,1.32916 -7.36008,0.86199 z m 66.78655,-0.0704 c -7.99655,-1.57154 -12.95178,-10.77661 -10.77421,-20.01466 0.75999,-3.22415 2.42364,-6.10764 4.78534,-8.29415 2.6953,-2.49536 5.16212,-3.45602 8.9361,-3.47996 3.26177,-0.0207 5.64242,0.87811 8.17859,3.08784 1.92348,1.67589 3.93448,5.6839 4.21484,8.40034 l 0.20682,2.00377 -10.8786,0.0932 -10.87862,0.0932 0.0908,2.01899 c 0.25551,5.68669 4.58866,10.68666 9.8684,11.38704 3.62638,0.48107 8.1539,-0.8616 10.59651,-3.14247 1.15582,-1.07928 1.17865,-1.08487 0.92334,-0.22618 -1.79527,6.03788 -8.25263,9.45196 -15.26922,8.07301 z m 9.11056,-22.09143 c 0,-1.93243 -1.51547,-4.73387 -3.18775,-5.89275 -4.39733,-3.04734 -10.22107,-0.15147 -11.88863,5.91166 l -0.36323,1.3207 h 7.7198 7.71981 z m -137.538,20.08012 c 1.29058,-1.95019 1.68434,-5.74655 1.53281,-14.77813 -0.14122,-8.41704 -0.30238,-9.16112 -2.2713,-10.48637 l -1.09819,-0.7392 3.7396,-1.63983 c 2.05681,-0.90192 4.01698,-1.74118 4.35596,-1.86503 0.56174,-0.20522 0.61633,0.097 0.61633,3.41278 0,3.49466 0.0228,3.60364 0.57954,2.76713 1.21514,-1.8259 4.24314,-4.66076 5.86835,-5.49405 1.36697,-0.70087 2.11364,-0.84811 3.87411,-0.76388 l 2.18078,0.10437 0.10117,3.25484 0.10116,3.25483 -1.65049,-0.87756 c -3.20172,-1.70235 -6.85634,-0.88276 -8.94978,2.00717 -1.7839,2.46257 -2.10495,4.23777 -2.10495,11.63907 0,7.22184 0.29919,9.17136 1.62731,10.60368 l 0.86653,0.93451 h -5.12602 -5.12602 z m 91.48004,0.71793 c 0.29723,-0.33898 0.83687,-1.17102 1.19921,-1.84899 0.60014,-1.12289 0.65881,-2.1423 0.65881,-11.44615 0,-11.29813 -0.11355,-11.94829 -2.25219,-12.89493 -1.03471,-0.45803 -1.03184,-0.4601 3.17027,-2.32232 2.31327,-1.02514 4.2813,-1.86391 4.37341,-1.86391 0.0921,0 0.17578,1.62447 0.18594,3.60995 0.018,3.50362 0.0359,3.58399 0.61325,2.72946 1.37549,-2.03619 4.17096,-4.63635 5.88752,-5.47618 1.46917,-0.7188 2.2608,-0.87945 3.91267,-0.79413 l 2.07085,0.10703 0.10077,3.21626 0.10077,3.21625 -1.65721,-0.83897 c -3.48618,-1.76494 -7.19058,-0.70258 -9.17671,2.63171 -1.56848,2.63314 -1.87028,4.48221 -1.87028,11.4587 0,6.59063 0.38408,8.7865 1.80057,10.29429 l 0.78756,0.8383 h -5.22275 c -4.94512,0 -5.19403,-0.0328 -4.68235,-0.61634 z m 128.6467,0.65608 c 0.96852,-0.42838 2.35528,-1.35793 3.08167,-2.06564 0.7264,-0.70773 1.32072,-1.10828 1.32072,-0.89012 0,0.76183 1.91931,2.66923 3.33124,3.31058 2.26704,1.02976 3.11098,0.85847 5.84776,-1.187 l 2.47391,-1.84898 -1.78007,-0.22613 c -2.01852,-0.25644 -3.24252,-0.94017 -4.14483,-2.31533 -0.5342,-0.81412 -0.65095,-2.15808 -0.83316,-9.59224 -0.23221,-9.47355 -0.46648,-10.73106 -2.44653,-13.1332 -0.57966,-0.70323 -1.96199,-1.72452 -3.07184,-2.2695 -1.82338,-0.89539 -2.37441,-0.9909 -5.71591,-0.9909 -3.12116,0 -3.94824,0.12327 -5.30213,0.79054 -1.85454,0.91396 -3.66901,2.58306 -4.45019,4.0937 -0.67809,1.31128 -0.74047,3.98899 -0.11967,5.13991 0.46155,0.85574 0.4734,0.84501 0.89329,-0.80869 0.7922,-3.11998 3.6496,-5.14353 7.28292,-5.15755 4.6768,-0.0181 6.90133,2.43349 7.24784,7.98755 l 0.18232,2.92256 h -2.48399 c -3.29641,0 -7.36011,0.80672 -9.97505,1.98025 -2.72751,1.22401 -4.38271,3.11165 -4.89584,5.58333 -0.85789,4.13242 1.22807,7.60365 5.53385,9.20891 1.88784,0.70381 5.81894,0.44315 8.02375,-0.53205 z m -3.84245,-2.79199 c -2.18526,-0.26213 -3.72964,-2.25311 -3.72964,-4.80815 0,-3.58539 2.75479,-5.5005 8.68525,-6.03791 l 2.65637,-0.2407 -0.12379,3.33641 c -0.10888,2.93426 -0.24039,3.51243 -1.09084,4.79656 -1.37922,2.08251 -3.91194,3.25193 -6.39733,2.95379 z m 45.72819,2.46344 c 10.42837,-4.88 13.47901,-20.1977 5.50753,-27.65406 -2.78912,-2.60887 -4.44395,-3.22585 -8.65227,-3.22585 -4.19663,0 -5.86413,0.61785 -8.61713,3.19298 l -1.77251,1.65794 V 99.740514 c 0,-9.905399 -0.0595,-18.009823 -0.13217,-18.009823 -0.0726,0 -1.38018,0.571498 -2.90558,1.269998 -1.5254,0.698496 -3.64512,1.663417 -4.71049,2.144267 l -1.93705,0.874272 1.19967,0.409103 c 0.65983,0.22501 1.53149,0.856476 1.93705,1.403269 0.73175,0.98659 0.7381,1.20593 0.83367,28.79145 0.053,15.2885 0.23167,27.79726 0.39712,27.79726 0.16544,0 0.48966,-0.22752 0.72046,-0.50563 0.74384,-0.89627 2.2779,-0.97325 4.4589,-0.22377 3.52182,1.21026 4.7796,1.41111 8.11251,1.29547 2.72595,-0.0945 3.57842,-0.27965 5.56024,-1.20705 z m -9.43584,-2.34022 c -1.79286,-0.63912 -3.31565,-2.13908 -3.74661,-3.69036 -0.1914,-0.68897 -0.34888,-4.4683 -0.34996,-8.39853 -0.003,-7.73888 0.20066,-8.72348 2.16496,-10.51189 2.76837,-2.52051 7.22615,-2.99144 10.12945,-1.07013 1.84754,1.22264 3.3655,3.57892 4.31588,6.69946 1.03225,3.38933 0.81476,8.71557 -0.47005,11.51082 -1.22446,2.664 -2.5977,4.17255 -4.68161,5.14294 -2.05678,0.95775 -5.18761,1.09286 -7.36206,0.31769 z m -54.54954,1.93126 c -0.4879,-0.38381 -1.18284,-1.37433 -1.54431,-2.2012 -0.6212,-1.42104 -0.66257,-3.09015 -0.75509,-30.47094 -0.0538,-15.932145 -0.21231,-28.968044 -0.35218,-28.968671 -0.13988,-6.25e-4 -2.25511,0.905353 -4.70053,2.013287 l -4.44619,2.014407 1.37779,0.616861 c 2.52993,1.132663 2.4376,3.21e-4 2.32872,28.560426 l -0.0969,25.43561 -0.78994,1.47793 c -0.43448,0.81284 -1.06842,1.64006 -1.40876,1.83826 -0.4399,0.25618 1.1006,0.36347 5.32788,0.37109 l 5.94668,0.0106 z"
       id="path1" /></g></svg>
