<?xml version="1.0" encoding="UTF-8" standalone="no"?>
<!-- Created with Inkscape (http://www.inkscape.org/) -->

<svg
   width="2100"
   height="900"
   viewBox="0 0 555.62498 238.125"
   version="1.1"
   id="svg1"
   inkscape:version="1.4 (unknown)"
   sodipodi:docname="fastly.svg"
   xml:space="preserve"
   inkscape:export-filename="microsoft.png"
   inkscape:export-xdpi="96"
   inkscape:export-ydpi="96"
   xmlns:inkscape="http://www.inkscape.org/namespaces/inkscape"
   xmlns:sodipodi="http://sodipodi.sourceforge.net/DTD/sodipodi-0.dtd"
   xmlns="http://www.w3.org/2000/svg"
   xmlns:svg="http://www.w3.org/2000/svg"><sodipodi:namedview
     id="namedview1"
     pagecolor="#ffffff"
     bordercolor="#000000"
     borderopacity="0.25"
     inkscape:showpageshadow="2"
     inkscape:pageopacity="0.0"
     inkscape:pagecheckerboard="0"
     inkscape:deskcolor="#d1d1d1"
     inkscape:document-units="mm"
     inkscape:zoom="0.077552823"
     inkscape:cx="1070.2383"
     inkscape:cy="1147.6049"
     inkscape:window-width="1920"
     inkscape:window-height="1111"
     inkscape:window-x="0"
     inkscape:window-y="0"
     inkscape:window-maximized="1"
     inkscape:current-layer="layer1" /><defs
     id="defs1"><clipPath
       clipPathUnits="userSpaceOnUse"
       id="clipPath1"><rect
         style="opacity:0.129301;fill:#000000;fill-opacity:1;stroke-width:12.7;stroke-linecap:round;stroke-linejoin:round"
         id="rect2"
         width="60.854168"
         height="60.854168"
         x="195.08763"
         y="116.66334" /></clipPath></defs><g
     inkscape:label="图层 1"
     inkscape:groupmode="layer"
     id="layer1"><path
       style="fill:#ff282d;fill-opacity:1;stroke-width:0.219811"
       id="polygon204"
       d="m 298.67439,52.916667 v 79.870073 c 0,15.68156 3.86975,22.83849 20.73654,22.83849 3.99463,0 9.48377,-1.02802 13.62787,-1.91562 l -2.66563,-16.00631 c -2.80458,0.59174 -5.25686,0.52039 -7.0314,0.56413 -7.3762,0.18135 -6.73901,-2.24289 -6.73901,-9.19773 V 99.004926 h 14.04002 V 85.681872 H 316.60276 V 52.916667 Z m 58.74458,0 -17.92835,0.0024 0.002,13.574214 v 89.132209 h 26.7732 v -13.61886 h -8.84741 z m -219.66408,4.36e-4 c -18.49228,0 -21.6484,6.292915 -21.6484,20.793651 v 11.971553 l -9.10114,1.49661 v 11.826009 h 9.10114 V 142.0068 h -9.10071 v 13.62058 l 36.03618,-0.004 v -13.61633 h -9.00669 V 99.004757 h 13.52741 V 85.681702 H 134.03527 V 75.321807 c 0,-6.365525 1.64723,-7.015502 8.16222,-7.015502 1.77431,0 3.16698,0.07908 5.97396,0.52376 l 2.45656,-14.576664 c -4.14475,-0.746699 -8.87915,-1.336476 -12.87312,-1.336476 z m 37.6208,18.872006 v 4.553353 h 2.18695 v 6.191213 h 0.1245 c -17.14727,3.15671 -30.14207,18.171815 -30.14207,36.231955 0,20.35342 16.49974,36.85316 36.85318,36.85316 6.94647,0 13.44252,-1.92446 18.98835,-5.26559 l 3.22977,5.27247 h 18.93726 V 137.70331 H 221.2686 L 221.257,81.912879 h -17.92794 v 5.232113 c -3.6926,-2.215258 -7.80573,-3.799335 -12.18965,-4.611317 h 0.10128 v -6.191213 h 2.18739 V 71.789109 Z M 261.452,81.796547 c -16.83116,0 -26.93804,5.928046 -26.93804,21.039203 0,15.96467 12.473,21.33023 28.18951,24.01567 8.34206,1.69167 10.89441,3.38723 10.89441,6.91762 0,2.54387 -1.4398,7.32847 -10.3393,7.32847 -3.19803,0 -9.32375,0.11315 -15.16612,-1.01534 l 0.008,-2.37886 H 234.5241 v 13.38874 c 8.33832,2.11591 19.26618,4.53362 30.52887,4.53362 16.83096,0 24.82709,-8.02689 24.82709,-23.5636 0,-16.38276 -13.26906,-19.47738 -26.48125,-22.44352 -9.03887,-1.97632 -10.19677,-3.81096 -10.19677,-7.20397 0,-2.39836 1.0175,-6.822736 9.36088,-6.822736 2.92174,0 8.30792,0.01396 13.73177,1.003322 v 2.385301 h 13.57292 V 85.681872 C 281.52489,83.564869 272.855,81.796547 261.45227,81.796547 Z m 150.19039,3.885325 v 13.310611 h 8.81907 L 407.44322,131.01925 394.42543,98.992483 h 8.83752 V 85.682307 h -36.99657 v 13.310176 h 8.83881 l 22.97844,56.542597 c -2.65993,8.1339 -11.16481,12.80573 -18.70457,12.80573 -1.62747,0 -4.72947,-0.29163 -7.0975,-0.73456 l -1.62152,16.27205 c 3.69041,0.88673 9.01215,1.33003 13.00964,1.33003 16.25856,0 26.93405,-14.75114 33.43366,-30.4237 l 22.67791,-55.792575 h 8.8384 V 85.681872 Z m -226.17042,14.10484 c 9.43761,0.504478 17.03996,7.907218 17.8614,17.257328 v 0.61607 h -2.15218 v 2.14789 h 2.15261 v 0.58817 c -0.81704,9.35451 -8.42114,16.76188 -17.86183,17.26635 v -2.10753 h -2.14788 v 2.10195 c -9.62224,-0.56075 -17.31898,-8.29181 -17.82103,-17.92966 h 2.135 v -2.14788 h -2.12384 c 0.57064,-9.57101 8.23555,-17.22814 17.80987,-17.786248 v 2.112248 h 2.14788 z m 6.97172,9.597428 -6.92921,6.03794 c -0.34972,-0.12527 -0.72369,-0.19706 -1.11451,-0.19706 -1.86972,0 -3.38347,1.55829 -3.38347,3.47834 0,1.92225 1.51375,3.48006 3.38347,3.48006 1.86883,0 3.38604,-1.55781 3.38604,-3.48006 0,-0.36467 -0.0554,-0.71586 -0.1567,-1.04625 l 6.17833,-6.90817 z m 249.30342,32.69607 c -3.76756,0 -6.80105,2.99484 -6.80127,6.76307 0,3.76712 3.03347,6.76133 6.80127,6.76133 3.76756,0 6.81929,-2.99421 6.81929,-6.76133 0,-3.76823 -3.05151,-6.76307 -6.81929,-6.76307 z m 0,1.14027 c 3.12989,0 5.67946,2.49158 5.67946,5.6228 0,3.12945 -2.54957,5.69835 -5.67946,5.69835 -3.12923,0 -5.66164,-2.56912 -5.66186,-5.69835 0,-3.131 2.53263,-5.6228 5.66186,-5.6228 z m -2.58836,2.29815 v 6.64672 h 1.52579 v -2.00921 h 0.94623 l 1.3721,2.00921 h 1.87398 l -1.66106,-2.28011 c 0.84936,-0.25059 1.39059,-0.98574 1.39059,-2.06588 0,-1.46967 -1.02429,-2.30073 -2.66693,-2.30073 z m 1.52579,1.33347 h 1.25491 c 0.65832,0 1.12181,0.27198 1.12181,0.96768 0,0.73285 -0.46324,1.00289 -1.1596,1.00289 h -1.21712 z"
       clip-path="none"
       mask="none" /></g></svg>
