<?xml version="1.0" encoding="UTF-8" standalone="no"?>
<!-- Created with Inkscape (http://www.inkscape.org/) -->

<svg
   width="2100"
   height="900"
   viewBox="0 0 555.62498 238.125"
   version="1.1"
   id="svg1"
   inkscape:version="1.3.2 (091e20ef0f, 2023-11-25)"
   sodipodi:docname="fastly.svg"
   xml:space="preserve"
   inkscape:export-filename="microsoft.png"
   inkscape:export-xdpi="96"
   inkscape:export-ydpi="96"
   xmlns:inkscape="http://www.inkscape.org/namespaces/inkscape"
   xmlns:sodipodi="http://sodipodi.sourceforge.net/DTD/sodipodi-0.dtd"
   xmlns="http://www.w3.org/2000/svg"
   xmlns:svg="http://www.w3.org/2000/svg"><sodipodi:namedview
     id="namedview1"
     pagecolor="#ffffff"
     bordercolor="#000000"
     borderopacity="0.25"
     inkscape:showpageshadow="2"
     inkscape:pageopacity="0.0"
     inkscape:pagecheckerboard="0"
     inkscape:deskcolor="#d1d1d1"
     inkscape:document-units="mm"
     inkscape:zoom="0.077552823"
     inkscape:cx="1063.7911"
     inkscape:cy="1147.6049"
     inkscape:window-width="1920"
     inkscape:window-height="1100"
     inkscape:window-x="0"
     inkscape:window-y="0"
     inkscape:window-maximized="1"
     inkscape:current-layer="layer1" /><defs
     id="defs1"><clipPath
       clipPathUnits="userSpaceOnUse"
       id="clipPath1"><rect
         style="opacity:0.129301;fill:#000000;fill-opacity:1;stroke-width:12.7;stroke-linecap:round;stroke-linejoin:round"
         id="rect2"
         width="60.854168"
         height="60.854168"
         x="195.08763"
         y="116.66334" /></clipPath></defs><g
     inkscape:label="图层 1"
     inkscape:groupmode="layer"
     id="layer1"><path
       style="fill:#ff282d;fill-opacity:1;stroke-width:0.272393"
       id="polygon204"
       d="m 303.66485,37.093635 v 98.976145 c 0,19.43281 4.79546,28.30178 25.69702,28.30178 4.95021,0 11.75242,-1.27394 16.88785,-2.37387 l -3.30328,-19.83524 c -3.47548,0.73329 -6.51438,0.64487 -8.71341,0.69907 -9.1407,0.22473 -8.35108,-2.77942 -8.35108,-11.39796 V 94.206865 h 17.39859 v -16.51012 h -17.39859 v -40.60311 z m 72.79713,0 -22.21707,0.003 0.003,16.82136 V 164.3719 h 33.17773 V 147.49522 H 376.4618 Z m -272.21087,5.4e-4 c -22.915903,0 -26.827013,7.79827 -26.827013,25.76779 v 14.83532 l -11.27826,1.85462 v 14.65496 h 11.27826 v 53.288545 h -11.27773 v 16.87881 l 44.656553,-0.005 v -16.8735 H 99.641697 V 94.206655 H 116.40507 V 77.696535 H 99.641697 v -12.83813 c 0,-7.88825 2.041273,-8.69371 10.114743,-8.69371 2.19875,0 3.92457,0.098 7.40302,0.64905 l 3.04421,-18.06361 c -5.13624,-0.92532 -11.00317,-1.65618 -15.95256,-1.65618 z m 46.62023,23.38646 v 5.64258 h 2.7101 v 7.67224 h 0.15429 c -21.24915,3.91184 -37.35249,22.51877 -37.35249,44.899155 0,25.22225 20.44672,45.66897 45.66899,45.66897 8.60817,0 16.65816,-2.38482 23.53064,-6.5252 l 4.00237,6.53372 h 23.46732 v -22.20964 h -5.31006 l -0.0144,-69.136305 h -22.21656 v 6.48371 c -4.57593,-2.74518 -9.67298,-4.70819 -15.10559,-5.71441 h 0.1255 v -7.67224 h 2.71065 v -5.64258 z m 106.667,12.40136 c -20.85742,0 -33.38201,7.34612 -33.38201,26.07208 0,19.783655 15.45672,26.432735 34.93285,29.760565 10.3376,2.09634 13.5005,4.1975 13.5005,8.57241 0,3.15241 -1.78422,9.08155 -12.8126,9.08155 -3.96305,0 -11.55413,0.14021 -18.79408,-1.25823 l 0.01,-2.94791 h -16.82402 v 16.59152 c 10.33297,2.62206 23.87493,5.61812 37.83182,5.61812 20.85717,0 30.76608,-9.94704 30.76608,-29.20035 0,-20.30175 -16.4432,-24.13665 -32.81594,-27.81233 -11.2011,-2.44908 -12.63598,-4.7226 -12.63598,-8.927265 0,-2.97208 1.2609,-8.45483 11.60013,-8.45483 3.62066,0 10.2953,0.0173 17.01661,1.24333 v 2.9559 h 16.81975 v -16.47981 c -10.33841,-2.62342 -21.08227,-4.81475 -35.21269,-4.81475 z m 186.11808,4.81475 v 16.4947 h 10.92871 L 438.45274,133.87948 422.32091,94.191445 h 10.95159 v -16.49416 h -45.84668 v 16.49416 h 10.95317 l 28.47522,70.068395 c -3.29623,10.07965 -13.8356,15.86905 -23.17897,15.86905 -2.01679,0 -5.86083,-0.3614 -8.79533,-0.91028 l -2.00941,20.16456 c 4.57321,1.09884 11.16799,1.64819 16.12173,1.64819 20.14785,0 33.37707,-18.27983 41.43147,-37.70148 l 28.1028,-69.138965 h 10.95266 V 77.696745 Z M 163.3828,95.175665 c 11.69522,0.62515 21.11616,9.798735 22.1341,21.385535 v 0.76344 h -2.66701 v 2.66169 h 2.66754 v 0.72887 c -1.01249,11.59224 -10.43559,20.77156 -22.13463,21.39671 v -2.61168 h -2.66169 v 2.60477 c -11.92401,-0.69489 -21.46192,-10.27533 -22.08407,-22.21869 h 2.64572 v -2.66169 h -2.63189 c 0.70714,-11.86054 10.20561,-21.349365 22.07024,-22.040975 v 2.61753 h 2.66169 z m 8.63945,11.893265 -8.58677,7.48231 c -0.43338,-0.15524 -0.89681,-0.2442 -1.38112,-0.2442 -2.31698,0 -4.19284,1.93105 -4.19284,4.31041 0,2.38208 1.87586,4.31254 4.19284,4.31254 2.31588,0 4.19603,-1.93046 4.19603,-4.31254 0,-0.4519 -0.0686,-0.88711 -0.19419,-1.29653 l 7.65628,-8.56071 z m 308.94037,40.51745 c -4.66882,0 -8.42796,3.71124 -8.42823,8.38089 0,4.66827 3.75912,8.37874 8.42823,8.37874 4.66881,0 8.45056,-3.71047 8.45056,-8.37874 0,-4.66965 -3.78148,-8.38089 -8.45056,-8.38089 z m 0,1.41304 c 3.8786,0 7.03806,3.08759 7.03806,6.96785 0,3.87806 -3.15946,7.06147 -7.03806,7.06147 -3.87779,0 -7.01599,-3.18369 -7.01626,-7.06147 0,-3.87998 3.13847,-6.96785 7.01626,-6.96785 z m -3.20754,2.8479 v 8.23671 h 1.89079 v -2.48985 h 1.17257 l 1.70033,2.48985 h 2.32226 l -2.0584,-2.82555 c 1.05254,-0.31054 1.72323,-1.22154 1.72323,-2.56007 0,-1.82124 -1.26931,-2.85109 -3.30489,-2.85109 z m 1.89079,1.65245 h 1.5551 c 0.8158,0 1.39016,0.33704 1.39016,1.19916 0,0.90816 -0.57405,1.2428 -1.43699,1.2428 h -1.50827 z"
       clip-path="none"
       mask="none" /></g></svg>
