<?xml version="1.0" encoding="UTF-8"?>
<svg id="_图层_1" data-name="图层 1" xmlns="http://www.w3.org/2000/svg" viewBox="0 0 2100 900">
  <defs>
    <style>
      .cls-1 {
        fill: none;
        stroke: #e6e6e6;
        stroke-miterlimit: 10;
        stroke-width: 4px;
      }

      .cls-2 {
        fill: #2c2c2c;
      }

      .cls-2, .cls-3, .cls-4 {
        stroke-width: 0px;
      }

      .cls-3 {
        fill: #e5e5e4;
      }

      .cls-4 {
        fill: #e6e6e6;
      }
    </style>
  </defs>
  <path class="cls-2" d="M263.46,199.53h1540.69c25.3,0,45.85,20.54,45.85,45.85v441.63c0,7.43-6.03,13.46-13.46,13.46H263.46c-7.43,0-13.46-6.03-13.46-13.46V212.99c0-7.43,6.03-13.46,13.46-13.46Z"/>
  <g>
    <g>
      <path class="cls-3" d="M579.77,563.87h-66.87c-19.08,0-34.99-6.27-47.74-18.8-12.65-12.75-18.97-28.67-18.97-47.74v-96.31c0-20.17,7.25-36.73,21.75-49.71,13.08-11.45,28.07-17.17,44.96-17.17h64.42v13.08h-64.42c-13.63,0-25.67,4.69-36.14,14.06-11.67,10.25-17.5,23.49-17.5,39.73v96.31c0,15.7,5.07,28.56,15.21,38.59,10.14,10.25,22.95,15.37,38.42,15.37h53.96v-107.75h-33.85v-12.92h46.76v133.26Z"/>
      <path class="cls-3" d="M748.67,491.93h-96.47v17.5c0,17.23,3.21,28.78,9.65,34.66,5.23,4.8,14.72,7.19,28.45,7.19h55.92v12.59h-55.92c-17.11,0-29.54-3.43-37.28-10.3-9.27-8.39-13.9-23.11-13.9-44.15v-48.07c0-15.15,5.29-28.07,15.86-38.75,10.79-10.68,23.76-16.02,38.91-16.02s28.07,5.34,38.75,16.02c10.68,10.68,16.02,23.6,16.02,38.75v30.58ZM735.59,478.85v-17.5c0-11.66-4.09-21.53-12.26-29.59-7.96-8.18-17.77-12.26-29.43-12.26s-21.53,4.09-29.59,12.26c-8.07,8.18-12.1,18.04-12.1,29.59v17.5h83.39Z"/>
      <path class="cls-3" d="M917.41,491.93h-96.47v17.5c0,17.23,3.21,28.78,9.65,34.66,5.23,4.8,14.72,7.19,28.45,7.19h55.92v12.59h-55.92c-17.11,0-29.54-3.43-37.28-10.3-9.27-8.39-13.9-23.11-13.9-44.15v-48.07c0-15.15,5.29-28.07,15.86-38.75,10.79-10.68,23.76-16.02,38.91-16.02s28.07,5.34,38.75,16.02c10.68,10.68,16.02,23.6,16.02,38.75v30.58ZM904.33,478.85v-17.5c0-11.66-4.09-21.53-12.26-29.59-7.96-8.18-17.77-12.26-29.43-12.26s-21.53,4.09-29.59,12.26c-8.07,8.18-12.1,18.04-12.1,29.59v17.5h83.39Z"/>
      <path class="cls-3" d="M1087.3,558.64l-11.94,4.91-46.93-93.53-38.75,19.29v72.43h-13.08v-225.15h13.08v138.33l90.91-45.62,5.4,11.94-45.95,22.89,47.25,94.51Z"/>
      <path class="cls-3" d="M1278.92,401.02c0,25.07-8.5,43.33-25.51,54.78-11.77,7.96-26.54,11.94-44.31,11.94h-50.69v94.02h-13.08v-227.6h63.77c17.55,0,32.32,4.09,44.31,12.26,17,11.67,25.51,29.87,25.51,54.61ZM1266.01,401.02c0-20.17-6.59-34.72-19.78-43.66-9.81-6.76-22.18-10.14-37.12-10.14h-50.69v107.42h50.69c15.15,0,27.52-3.27,37.12-9.81,13.19-8.72,19.78-23.32,19.78-43.82Z"/>
      <path class="cls-3" d="M1351.36,356.71h-13.08v-20.11h13.08v20.11ZM1351.36,561.75h-13.08v-152.88h13.08v152.88Z"/>
      <path class="cls-3" d="M1520.1,491.93h-96.47v17.5c0,17.23,3.22,28.78,9.65,34.66,5.23,4.8,14.72,7.19,28.45,7.19h55.92v12.59h-55.92c-17.11,0-29.54-3.43-37.28-10.3-9.27-8.39-13.9-23.11-13.9-44.15v-48.07c0-15.15,5.29-28.07,15.86-38.75,10.79-10.68,23.76-16.02,38.91-16.02s28.07,5.34,38.75,16.02c10.68,10.68,16.02,23.6,16.02,38.75v30.58ZM1507.02,478.85v-17.5c0-11.66-4.09-21.53-12.26-29.59-7.96-8.18-17.77-12.26-29.43-12.26s-21.53,4.09-29.59,12.26c-8.07,8.18-12.1,18.04-12.1,29.59v17.5h83.39Z"/>
    </g>
    <path class="cls-1" d="M1499.67,632.92H366.55c-23.09,0-41.8-18.71-41.8-41.8v-282.76c0-23.09,18.71-41.8,41.8-41.8h1253.92c85.49,0,154.79,76.16,154.79,170.12v196.25h-34.92"/>
    <rect class="cls-4" x="1543.38" y="586.53" width="153.38" height="18.87"/>
  </g>
</svg>