<?xml version="1.0" encoding="UTF-8" standalone="no"?>
<!-- Created with Inkscape (http://www.inkscape.org/) -->

<svg
   width="2100"
   height="900"
   viewBox="0 0 555.62498 238.125"
   version="1.1"
   id="svg1"
   inkscape:version="1.3.2 (091e20ef0f, 2023-11-25)"
   sodipodi:docname="hit.svg"
   xml:space="preserve"
   inkscape:export-filename="microsoft.png"
   inkscape:export-xdpi="96"
   inkscape:export-ydpi="96"
   xmlns:inkscape="http://www.inkscape.org/namespaces/inkscape"
   xmlns:sodipodi="http://sodipodi.sourceforge.net/DTD/sodipodi-0.dtd"
   xmlns="http://www.w3.org/2000/svg"
   xmlns:svg="http://www.w3.org/2000/svg"><sodipodi:namedview
     id="namedview1"
     pagecolor="#ffffff"
     bordercolor="#000000"
     borderopacity="0.25"
     inkscape:showpageshadow="2"
     inkscape:pageopacity="0.0"
     inkscape:pagecheckerboard="0"
     inkscape:deskcolor="#d1d1d1"
     inkscape:document-units="mm"
     inkscape:zoom="0.37094187"
     inkscape:cx="847.84175"
     inkscape:cy="336.98003"
     inkscape:window-width="1920"
     inkscape:window-height="1100"
     inkscape:window-x="0"
     inkscape:window-y="0"
     inkscape:window-maximized="1"
     inkscape:current-layer="layer1" /><defs
     id="defs1"><clipPath
       clipPathUnits="userSpaceOnUse"
       id="clipPath1"><rect
         style="opacity:0.129301;fill:#000000;fill-opacity:1;stroke-width:12.7;stroke-linecap:round;stroke-linejoin:round"
         id="rect2"
         width="60.854168"
         height="60.854168"
         x="195.08763"
         y="116.66334" /></clipPath></defs><g
     inkscape:label="图层 1"
     inkscape:groupmode="layer"
     id="layer1"><g
       style="fill:none"
       id="g3"
       transform="matrix(0.24804687,0,0,0.24804687,214.3125,55.562501)"><rect
         width="512"
         height="512"
         fill="#ffffff"
         id="rect1"
         x="0"
         y="0" /><path
         fill-rule="evenodd"
         clip-rule="evenodd"
         d="m 373.723,451.454 c 4.033,0 7.277,3.254 7.277,7.299 0,4.045 -3.244,7.298 -7.277,7.298 -2.717,0 -5.347,0 -7.89,-0.351 -9.731,-0.88 -12.712,-1.319 -16.92,-3.606 -1.666,-0.879 -3.419,-2.022 -5.874,-3.605 -0.964,-0.616 -2.104,-1.319 -3.331,-2.11 -2.893,-3.87 -5.085,-5.276 -8.592,-2.99 -1.052,0.615 -2.279,1.671 -3.594,2.99 -0.439,1.846 -0.789,3.605 -1.14,5.364 C 324.015,473.086 322.349,481 309.286,481 h -86.617 c -9.907,0 -28.668,-2.726 -28.668,-12.75 0,-8.706 16.92,-24.534 25.249,-26.205 -0.614,-0.527 -1.228,-1.143 -1.754,-1.67 -2.98,-2.99 -5.786,-6.068 -8.416,-9.233 -18.323,-27.348 -29.457,-42.121 -29.544,-82.482 0,-34.558 13.501,-67.094 37.96,-91.627 7.452,-7.475 11.661,-17.499 11.661,-28.139 0,-10.64 -4.209,-20.577 -11.661,-28.139 -0.087,0 -0.087,0 -0.087,-0.088 -0.965,-0.879 -7.452,-5.1 -7.627,-5.188 -9.118,-4.661 -19.288,-7.123 -29.457,-7.123 -4.209,0 -8.417,0.44 -12.537,1.319 -2.543,0.44 -5.085,-0.351 -6.838,-2.286 -1.754,-1.847 -2.367,-4.573 -1.666,-7.035 6.926,-23.302 27.265,-39.306 51.287,-40.625 6.224,-5.276 13.851,-8.354 22.092,-8.706 0.263,-0.088 5.26,0.088 6.839,0.264 29.369,2.462 56.634,15.389 77.324,36.757 22.093,22.95 22.882,29.018 22.882,60.85 v 33.503 l 11.572,67.796 7.189,38.34 4.033,43.967 c 0,18.642 -9.907,36.404 5.435,38.603 1.754,0.263 3.682,0.351 5.786,0.351 z M 204.784,150.457 c -9.556,-3.078 -33.577,17.059 -33.139,28.227 0.702,1.055 3.945,0.967 7.54,0 3.507,-0.968 27.703,0.703 31.649,3.341 0,0 8.504,-23.742 -6.05,-31.568 z m 38.926,19.081 c 4.032,0 7.276,-3.341 7.276,-7.298 0,-4.045 -3.244,-7.299 -7.276,-7.299 -3.945,0 -7.189,3.254 -7.189,7.299 0,3.957 3.244,7.298 7.189,7.298 z M 216.006,284.38 c -24.723,38.339 -24.986,64.192 -16.043,92.946 5.26,17.323 13.764,34.734 27.615,51.265 19.638,6.42 42.169,10.553 61.194,7.651 3.77,-0.528 7.101,-1.319 9.994,-2.375 0,-0.527 -0.088,-1.055 -0.088,-1.582 -0.087,-0.264 -0.087,-0.616 -0.087,-0.88 -0.877,-8.793 -2.28,-24.006 -5.786,-41.592 -3.244,-16.18 -8.154,-34.47 -15.956,-51.442 -4.296,-9.409 -9.556,-17.498 -13.764,-24.709 -7.189,-18.642 -8.943,-45.989 -12.099,-61.378 -11.134,5.892 -18.147,9.057 -25.599,19.433 -2.718,3.782 -5.699,8.002 -9.381,12.663 z"
         fill="#462929"
         id="path1" /><path
         d="m 474.76,223.252 h -40.43 c -1.758,-9.318 -4.219,-18.46 -7.207,-27.251 l 35.156,-20.306 c 2.989,-1.671 4.043,-5.538 2.285,-8.439 l -26.982,-46.767 c -1.67,-2.901 -5.537,-3.956 -8.437,-2.285 l -35.157,20.306 c -6.064,-7.12 -12.744,-13.801 -19.775,-19.955 l 20.303,-35.2504 c 1.757,-2.9889 0.703,-6.7689 -2.286,-8.527 L 345.561,47.8781 c -2.989,-1.7581 -6.768,-0.7032 -8.526,2.2856 L 316.82,85.2385 c -8.789,-3.1646 -17.841,-5.626 -27.158,-7.2963 V 37.2414 C 289.662,33.813 286.85,31 283.422,31 h -53.877 c -3.428,0 -6.24,2.813 -6.24,6.2414 v 40.525 c -9.317,1.6703 -18.369,4.1317 -27.246,7.2084 L 175.756,49.7242 c -1.67,-2.901 -5.537,-3.9559 -8.526,-2.1977 L 120.561,74.426 c -2.989,1.7581 -3.956,5.5381 -2.286,8.5269 l 20.303,35.0751 c -7.207,6.153 -13.887,12.746 -19.951,19.867 L 83.3828,117.588 c -2.9883,-1.758 -6.8555,-0.703 -8.5254,2.286 L 47.875,166.552 c -1.6699,2.989 -0.6152,6.769 2.2852,8.527 l 35.0683,20.219 c -3.164,8.703 -5.625,17.845 -7.3828,27.163 H 37.2402 c -3.4277,0 -6.2402,2.813 -6.2402,6.241 v 53.887 c 0,3.429 2.8125,6.242 6.2402,6.242 h 40.4297 c 1.6699,9.318 4.1309,18.46 7.2071,27.251 l -35.1563,20.306 c -2.9883,1.671 -4.043,5.538 -2.2852,8.439 l 26.9825,46.767 c 1.6699,2.901 5.5371,3.956 8.4375,2.198 l 35.0685,-20.131 c 6.152,7.12 12.744,13.801 19.863,19.955 l -20.215,35.075 c -1.758,2.988 -0.703,6.856 2.285,8.526 l 46.67,26.988 c 2.989,1.67 6.768,0.615 8.526,-2.286 l 18.808,-24.702 c -15.293,-23.383 -24.257,-39.03 -31.289,-80.786 -12.744,-12.746 -27.422,-29.8 -34.365,-46.327 -7.207,-17.054 -10.898,-35.25 -10.898,-53.975 0,-18.812 3.691,-36.92 10.898,-54.062 6.943,-16.527 16.963,-31.295 29.707,-44.042 12.744,-12.746 27.686,-22.767 44.121,-29.8 17.139,-7.208 35.244,-10.9 54.053,-10.9 18.721,0 36.826,3.692 53.965,10.9 16.523,7.033 31.377,17.054 44.121,29.8 12.744,12.747 22.763,27.603 29.707,44.042 7.207,17.142 10.898,35.25 10.898,54.062 0,18.725 -3.691,36.921 -10.898,53.975 -6.592,16.966 -10.547,23.999 -17.842,34.723 l 7.91,55.733 c 7.119,-6.065 13.535,-19.163 19.6,-26.284 l 35.156,20.307 c 2.988,1.67 6.768,0.615 8.525,-2.286 l 26.895,-46.678 c 1.758,-2.989 0.703,-6.857 -2.285,-8.527 l -34.981,-20.219 c 3.164,-8.791 5.625,-17.933 7.295,-27.251 h 40.606 c 3.427,0 6.24,-2.813 6.24,-6.154 v -53.974 c 0,-3.429 -2.813,-6.242 -6.24,-6.242 z"
         fill="#462929"
         id="path2" /><path
         d="m 204.784,150.457 c -9.556,-3.078 -33.577,17.059 -33.139,28.227 0.702,1.055 3.945,0.967 7.54,0 3.507,-0.968 27.703,0.703 31.649,3.341 0,0 8.504,-23.742 -6.05,-31.568 z"
         fill="#ffcc66"
         id="path3" /></g></g></svg>
