<?xml version="1.0" encoding="UTF-8" standalone="no"?>
<!-- Created with Inkscape (http://www.inkscape.org/) -->

<svg
   width="2100"
   height="900"
   viewBox="0 0 555.62498 238.125"
   version="1.1"
   id="svg1"
   inkscape:version="1.3.2 (091e20ef0f, 2023-11-25)"
   sodipodi:docname="jlu-lug.svg"
   xml:space="preserve"
   inkscape:export-filename="microsoft.png"
   inkscape:export-xdpi="96"
   inkscape:export-ydpi="96"
   xmlns:inkscape="http://www.inkscape.org/namespaces/inkscape"
   xmlns:sodipodi="http://sodipodi.sourceforge.net/DTD/sodipodi-0.dtd"
   xmlns="http://www.w3.org/2000/svg"
   xmlns:svg="http://www.w3.org/2000/svg"><sodipodi:namedview
     id="namedview1"
     pagecolor="#ffffff"
     bordercolor="#000000"
     borderopacity="0.25"
     inkscape:showpageshadow="2"
     inkscape:pageopacity="0.0"
     inkscape:pagecheckerboard="0"
     inkscape:deskcolor="#d1d1d1"
     inkscape:document-units="mm"
     inkscape:zoom="0.37094187"
     inkscape:cx="847.84174"
     inkscape:cy="336.98002"
     inkscape:window-width="1920"
     inkscape:window-height="1100"
     inkscape:window-x="0"
     inkscape:window-y="0"
     inkscape:window-maximized="1"
     inkscape:current-layer="layer1" /><defs
     id="defs1"><clipPath
       clipPathUnits="userSpaceOnUse"
       id="clipPath1"><rect
         style="opacity:0.129301;fill:#000000;fill-opacity:1;stroke-width:12.7;stroke-linecap:round;stroke-linejoin:round"
         id="rect2"
         width="60.854168"
         height="60.854168"
         x="195.08763"
         y="116.66334" /></clipPath></defs><g
     inkscape:label="图层 1"
     inkscape:groupmode="layer"
     id="layer1"><g
       style="color:#0e419c;fill:currentColor"
       id="g1"
       transform="matrix(0.20583468,0,0,0.20583468,214.3125,55.562501)"><circle
         fill="none"
         stroke="currentColor"
         stroke-width="20.5"
         cx="308.5"
         cy="308.5"
         r="298.25"
         id="circle1" /><path
         d="m 101.29,361.34 c 5.99,-1.85 12.56,-2.94 18.71,-1.27 5.55,1.63 8.67,8.59 5.76,13.69 -3.59,5.88 -10.45,8.64 -17.95,10.56 l -2.89,-6.36 c 16.43,-4.47 13.39,-14.69 -3.57,-8.55 -14.06,4.35 -28.1,8.73 -42.19,12.96 -0.57,-2.54 -1.31,-5.04 -2.19,-7.48 14.79,-4.44 29.53,-9.08 44.32,-13.55 z"
         id="path1" /><path
         d="m 51.86,349.14 66.4,-11.64 1.43,7.58 -66.74,11.64 z"
         id="path2" /><path
         d="m 104.42,301.99 11.33,-0.43 1.03,26.93 -66.99,2.36 -0.24,-7.73 55.59,-2.21 z"
         id="path3" /><path
         d="m 49.99,280.52 66.92,5.84 -0.59,7.54 -66.86,-5.57 z"
         id="path4" /><path
         d="m 58.04,238.76 1.46,-6.86 65.72,16.19 -1.72,7.35 -46.1,4.61 42.34,10.44 -1.52,6.7 -66.03,-15.79 1.98,-7.21 46.97,-4.57 z"
         id="path5" /><path
         d="m 89.78,167.43 4.14,-6.51 40.94,25.24 c 5.72,3.98 12.2,9.21 12.3,16.83 -0.66,6.23 -5.45,12.77 -12.16,13.02 -8.12,0.52 -15.2,-4.18 -21.97,-7.99 l -35.41,-21.47 4.08,-6.41 40.17,24.04 c 3.86,2.13 9.82,3.88 12.82,-0.5 3.28,-4.04 -0.69,-8.89 -4.19,-11.14 z"
         id="path6" /><path
         d="m 124.68,124.35 4.93,-5.28 49.38,46.13 -5.42,5.82 -43.27,-19.77 32.98,30.8 -5.12,5.5 -49.39,-46.13 5.75,-6.17 43.48,19.88 -33.15,-30.96 z"
         id="path7" /><path
         d="m 146.58,104.87 6.12,-4.72 41.43,53.7 -6.12,4.72 z"
         id="path8" /><path
         d="m 190.56,76.8 6.93,-3.78 20.85,65.49 -7.07,3.85 -44.65,-52.51 7.31,-3.99 32.07,38.38 z"
         id="path9" /><path
         d="m 216.22,64.82 26.59,-7.97 3.63,10.73 -19.49,6.19 4.51,13.9 18,-5.73 3.66,11.14 -18.09,6.02 5.51,17.07 19.85,-6.43 3.74,11.08 -27.34,8.65 z"
         id="path10" /><path
         d="m 266.45,51.35 c 7.48,-0.32 14.93,-1.9 22.43,-1.33 5.62,0.87 8,7.01 9.33,11.83 1.9,8.67 2.29,20.11 -6.37,25.33 7.05,8.26 10.58,18.76 14.1,28.79 l -8.41,0.08 -11.82,-23.7 c -1.47,-2.87 -4.92,-2.3 -7.58,-2.64 l 2.75,27.67 -7.82,0.9 -6.61,-66.93 m 9.04,10.77 1.7,16.8 c 4.52,-0.57 11.28,0.78 13.69,-4.13 0.81,-4.46 1.23,-11.21 -3.75,-13.38 -3.87,-0.34 -7.76,0.58 -11.64,0.71 z"
         id="path11" /><path
         d="m 323.87,52.87 c 4.73,-6.09 15.09,-5.39 19.42,0.81 3.35,4.94 3.58,11.17 3.64,16.94 l -7.58,0.18 c -0.81,-3.99 -0.84,-10.41 -6.27,-10.67 -6.6,-1.06 -9.28,8.67 -4.37,12.17 5.15,4.08 12.49,6.39 14.84,13.15 2.95,9.06 1.69,19.65 -3.51,27.66 -4.57,7.33 -16.63,7.42 -21.51,0.4 -3.84,-5.81 -4.78,-13.23 -3.45,-19.99 l 6.58,-0.53 c 0.7,4.77 0.38,11.56 5.83,13.62 8.78,2.72 13.51,-12.09 6.07,-16.1 -4.75,-3.09 -10.58,-5.57 -12.96,-11.12 -3.64,-8.52 -2.32,-19.13 3.27,-26.52 z"
         id="path12" /><path
         d="m 352.78,121.27 16.77,-65.41 7.41,2.06 -16.78,65.3 z"
         id="path13" /><path
         d="m 390.44,74.01 4.49,-10.74 27.39,11.46 -4.49,10.74 -17.55,-7.34 -21.7,51.85 7.05,2.95 21.7,-51.85 z"
         id="path14" /><path
         d="m 426.79,122.82 10.63,-40.36 7.58,5.27 -7.24,26.47 21.42,-16.48 7.57,4.69 -32.76,24.59 -16.34,23.93 -6.33,-4.58 z"
         id="path15" /><circle
         cx="472.28"
         cy="155.72"
         r="10.5"
         id="circle15" /><path
         d="m 502.38,191.29 c 9.35,-4.48 20,-8.73 30.48,-6.16 6.72,1.3 11.4,9.15 8.83,15.6 -1.94,5.87 -6.95,9.84 -11.57,13.6 l -5.56,-5.26 c 2.64,-3.41 7.65,-6.81 6.22,-11.72 -1.92,-5.28 -8.78,-5.11 -13.23,-3.69 -8.94,2.8 -17.56,7.13 -24.79,13.11 -3.45,2.79 -6.38,8.46 -2.71,12.21 4.6,3.55 10.68,0.99 14.71,0.12 l 0.12,8.37 c -6.17,1.65 -12.68,3.1 -19.03,1.65 -6.51,-1.89 -10.54,-9.67 -7.82,-16.01 4.29,-10.57 14.6,-16.9 24.35,-21.82 z"
         id="path16" /><path
         d="m 489.62,245.16 65.64,-17.08 1.91,7.36 -25.62,6.84 3.89,14.74 25.97,-6.14 1.88,7.11 -65.78,16.36 -1.88,-7.11 28.48,-7.43 -3.88,-14.72 -28.62,7.08 z"
         id="path17" /><path
         d="m 498.86,285.51 67.06,-6.28 0.59,7.61 -67.06,6.28 z"
         id="path18" /><path
         d="m 500.14,311.01 0.47,-6.88 67.67,4.69 -0.47,6.77 -46.13,13.29 45,3.12 -0.45,6.42 -67.67,-4.68 0.46,-6.61 45.33,-13.06 z"
         id="path19" /><path
         d="m 495.38,349.23 2.09,-7.86 61.65,32.52 -2.21,8.29 -69.2,-4.09 2.11,-7.94 15.82,0.95 3.78,-14.04 -13.26,-7.33 m 23.86,12.38 -2.55,9.75 24.22,1.58 z"
         id="path20" /><path
         d="m 171,460.39 c 4.66,-1.06 7.36,-5.72 10.79,-8.73 2.07,1.75 4.14,3.5 6.25,5.21 4.55,-1.91 8.5,1.25 12.39,3.17 -1.99,3.03 -4.05,6.03 -5.9,9.15 4.57,1.36 8.95,3.32 12.97,5.9 -5.97,6.33 -15.84,5.22 -23.81,5.08 -0.23,6.05 5.32,9.77 8.71,14.03 -11.35,8.16 -25.55,-2.32 -37.99,1.22 1.23,-9.17 -13.53,-3.94 -12.94,-12.45 0.31,-3.34 -1.62,-8.38 2.75,-9.71 4.81,1.16 8.69,4.75 13.57,5.79 2.08,-2.21 4.38,-5.36 3.7,-8.48 -3.27,-5.02 -8.06,-9.98 -6.58,-16.56 6.86,-3.41 10.53,4.6 16.09,6.38 z"
         id="path21" /><path
         d="m 130.25,499.19 c 5,-1.02 8.18,-5.66 13.17,-6.66 0.02,6.9 7.46,5.56 12.14,6.85 5.72,0.94 9.58,5.68 13.94,9.06 -3.79,5.72 -10.88,6 -16.79,7.99 4.36,2.3 8.78,4.52 12.88,7.26 -4.19,1.56 -6.28,5.29 -8.55,8.67 -7.6,-3.01 -14.84,-7.41 -20.41,-13.44 -1.59,-6.73 7.44,-8.43 12.32,-8.14 3.47,0.63 10.68,0.79 10.95,-3.51 -6.04,-3.95 -13.71,-3.7 -20.59,-2.94 -5.19,2.55 -4.36,10.56 -9.73,13.4 -2.62,2.33 -5.03,-0.83 -6.84,-2.52 1.54,-3.92 1.63,-8.09 1.46,-12.22 0.08,-3.04 3.97,-2.87 6.05,-3.8 z"
         id="path22" /><path
         d="m 247.35,521.42 c 2.83,-10.01 6.21,-20.69 14.6,-27.5 8.12,5.97 8.39,19.22 0.22,25.23 -3.63,3.43 -10.98,3.17 -11.89,8.99 -0.91,6.87 -0.16,13.85 -0.96,20.75 9.29,-2.62 16.04,-9.69 21.55,-17.26 -2.22,1.65 -4.25,3.53 -6.21,5.48 -1.8,-1.45 -3.63,-2.88 -5.43,-4.31 3.53,-3.36 8.38,-4.56 12.3,-7.26 3.2,-7.95 1.21,-22.79 12.91,-23.43 -1.32,6.88 4.96,10.98 6.61,16.93 -1.2,5.01 -7.16,6.26 -10.42,9.63 -2.32,4.89 -2.14,10.49 -2.06,15.79 7.34,0.16 10.2,7.8 14.9,12.14 3.46,3.34 3.6,8.63 -0.2,11.77 -5.22,-2.88 -10.29,-6.22 -13.3,-11.53 -0.76,0.06 -2.26,0.2 -3.01,0.26 -0.64,6.81 3.24,13.21 1.64,19.98 -8.95,0.37 -9.99,-10.72 -12.03,-17.17 -4.32,1.04 -7.97,3.77 -12.23,5 -0.39,-4.57 -1.21,-9.09 -2.64,-13.45 -0.75,0.47 -2.25,1.4 -3,1.87 -0.39,7.5 0.79,14.97 0.17,22.46 -7.73,-2.94 -5.07,-12.14 -5.63,-18.48 -4.02,2.02 -7.06,7.03 -11.94,6.58 -4.33,-2.8 -5.17,-10.16 -0.4,-13.01 5.59,-7.75 11.89,-15.48 15.42,-24.39 -3.78,1.73 -7.12,4.2 -10.68,6.31 -3.68,1.04 -6.87,-2.63 -8,-5.79 6.45,-2.16 13.29,-3.18 19.71,-5.59 m 5.1,-1.3 c 6.42,-3.62 15.83,-12.78 8.8,-19.98 -5.16,5.4 -7.99,12.61 -8.8,19.98 m -11.85,33.02 c 2.85,-1.77 4.59,-4.61 4.94,-7.94 -2.44,2.08 -4.11,4.85 -4.94,7.94 z"
         id="path23" /><path
         d="m 360.23,490 c -0.11,-3.44 1.93,-6.48 4.24,-8.83 2.66,-0.36 6.16,0.91 6.16,4.06 0.82,13.66 1.07,27.35 3.91,40.8 3.63,-1.98 7.1,-4.21 10.52,-6.53 -0.81,-1.53 -1.62,-3.07 -2.38,-4.61 6.05,0.89 14.22,-1.7 18.09,4.46 -7.57,2.69 -15.09,5.62 -22.27,9.22 -7.07,2.92 -5.6,12.47 -3.36,18.18 4.7,2.77 10.66,3.18 15.8,5.24 4.44,1.89 9.37,-0.58 13.79,1.31 4.04,1.55 8.17,4.42 8.73,9.06 -4.03,0.92 -7.31,3.32 -8.41,7.45 -4.73,-1.05 -10.08,1.68 -14.23,-1.66 -5.79,-4.78 -10.28,-10.89 -15.7,-16.07 0.4,6.46 1.72,15.62 -4.41,19.75 -10.06,0.52 -18.63,-6.4 -27.28,-10.71 1.74,-4.29 6.02,-5.88 9.68,-8.05 2.96,-3.56 5.67,-8.81 4.04,-13.47 -2.8,0.93 -5.36,2.41 -7.98,3.72 -0.99,-2.92 -1.91,-5.87 -2.69,-8.85 4.65,-1.95 12.95,-1.94 13.26,-8.55 -0.42,-11.98 0.43,-23.94 0.49,-35.92 z"
         id="path24" /><path
         d="m 443.62,446.76 c 3.31,-10.53 18.29,-13.97 26.9,-8.21 -1.43,2.57 -2.96,5.1 -4.27,7.74 -6.83,-0.17 -3.67,7.33 -7.03,10.94 -4.85,6.5 -7.76,15.69 -4.41,23.47 3.07,-5.7 4.81,-12.1 8.42,-17.5 1.99,-3 6.8,-3.4 8.94,-0.37 3.24,6.27 6.4,12.91 6.11,20.16 -0.55,5.73 8.47,4.31 9.43,-0.21 2.53,-6.88 8.14,-13.02 16.01,-12.82 -2.22,2.73 -2.65,6.18 -3.34,9.49 -2.43,3.36 -5.74,5.94 -8.62,8.89 3.65,5.24 12.27,9.97 8.91,17.39 -3.23,4.82 -6.8,9.62 -10.94,13.68 -4.65,-0.24 -9.23,0.53 -13.79,1.34 1.97,-8.34 11.79,-11.34 14.62,-19.18 0.99,-2.38 -0.96,-4.63 -1.64,-6.82 -5.56,8.04 -13.97,14.35 -16.4,24.24 -2.66,0.07 -5.33,0.07 -7.99,0.1 2.78,-10.78 13.31,-17.15 18.08,-26.99 -2.41,0.17 -4.76,0.63 -7.12,1.09 -1.6,-8.25 -2.13,-16.8 -4.9,-24.76 -1.01,-3.47 -6.2,-3.59 -7.08,0.03 -2.37,6.63 -2.68,13.83 -4.54,20.62 -1.58,4.55 4.56,7.11 3.35,11.73 -4.88,0.56 -11.16,1.68 -14.98,-2.14 -1.69,-7.83 -2.72,-15.9 -2.98,-23.93 -3.01,1.58 -6.18,2.81 -9.32,4.07 -6.93,-2.66 -12.15,-8.06 -13.05,-15.62 3.35,-4.98 7.76,1.24 11.85,0.91 1.55,-2.4 0.26,-5.24 0.41,-7.84 3.19,-3.11 7.66,-5.09 9.37,-9.5 m -6.72,12.2 c -0.42,6.09 2.46,11.79 9.11,12.18 0.43,-4 0.59,-8.02 1.05,-12.02 -3.38,-0.16 -6.77,-0.34 -10.16,-0.16 z"
         id="path25" /><circle
         fill="none"
         stroke="currentColor"
         stroke-width="17.8"
         cx="308.5"
         cy="308.5"
         r="164.5"
         id="circle25" /><path
         d="m 255,168.31 v 37.65 l 8.91,1.46 v 1 H 236.1 v -1 l 8.45,-1.91 v -29.04 h -8.13 z"
         id="path26" /><path
         d="m 276.66,172.58 c 6.33,-5.69 17.5,-4.75 22.28,2.48 6.82,10.19 3.34,26.43 -7.63,32.26 -5.94,2.3 -15.79,1.98 -17.37,-5.27 -1.51,-5.49 7.02,-7.19 8.92,-2.83 1.56,2.65 -2.19,3.94 -2.53,5.63 1.22,2.07 4.67,2.69 7.18,0.71 4.6,-3.3 4.47,-9.6 4.8,-14.68 -5.27,2.34 -12.3,3.01 -16.52,-1.69 -4.88,-4.32 -4.12,-12.7 0.87,-16.61 m 9.02,-0.96 c -5.3,3.02 -4.13,10.66 -3.06,15.69 1.47,5.32 9.87,2.88 9.76,-2.25 0.62,-4.73 0.74,-15.58 -6.7,-13.44 z"
         id="path27" /><path
         d="m 328.45,169.05 h 7.12 v 26.51 h 6.54 v 2.47 h -6.58 V 206 l 6.48,1.61 v 1 h -22.86 v -1 l 6.27,-1.61 v -8.03 h -16.35 l 19.38,-28.92 m -15.18,26.35 h 12.15 v -17.02 z"
         id="path28" /><path
         d="m 347.67,182.53 c 1.46,-9.53 12.44,-16.06 21.51,-12.74 3.48,0.77 6.45,3.91 5.02,7.64 -0.98,3.26 -6.4,4.1 -8.95,1.14 -1.59,-2.95 2.03,-4.42 1.61,-6.27 -0.88,-1.33 -4.79,-2.36 -7.22,0.36 -3.19,3.8 -2.62,9.15 -3.18,13.77 7.57,-4.2 20,-1.26 20.62,8.57 1.18,11.39 -13.78,16.65 -22.29,11.25 -8.21,-4.65 -8.53,-15.49 -7.12,-23.72 m 12.7,4.72 c -4.95,3.18 -3.28,10.1 -2.62,14.92 0.42,4.08 6.65,5.91 8.4,1.98 1.85,-4.67 2.09,-9.96 0.47,-14.69 -0.83,-2.59 -3.98,-3.69 -6.25,-2.21 z"
         id="path29" /><path
         d="m 212.7,216.16 h 192.46 v 56.04 h -12.05 v -43.13 h -79.76 v 77.16 h -12.48 v -77.12 h -77.02 v 75.14 h -11.5 v -88.09 z"
         id="path30" /><path
         d="m 393.15,305.12 h 12.1 v 23.92 h -12.12 v -23.92 z"
         id="path31" /><path
         d="m 300.93,373.04 h 12.41 v 31.09 h -12.47 v -31.09 z"
         id="path32" /><path
         d="m 212.43,339.05 h 10.92 c 1.09,29.82 9.76,62.19 33.75,81.85 17.09,14.2 40.47,18.66 62.1,15.31 16.96,-2.12 33.53,-9.16 45.88,-21.14 16.42,-15.79 25.53,-38.05 28.09,-60.44 h 12.26 c -1.78,26.67 -13.91,52.99 -33.88,70.93 -18.09,16.01 -42.73,22.86 -66.55,22.47 -27.5,1.01 -55.11,-12.57 -70.7,-35.32 -14.91,-21.44 -21.45,-48.02 -21.87,-73.88 z"
         id="path33" /><path
         d="m 346.29,284.31 c 5.98,-4.81 17.21,0.88 13.8,8.72 -17.98,19.34 -36.66,38.05 -54.8,57.26 -9.44,11.13 -26.7,11.69 -39.12,5.64 -27.68,-15.11 -55.13,-30.84 -80.68,-49.39 -2.29,-1.41 -3.52,-3.8 -4.08,-6.35 8.22,5.43 18.38,6.06 27.75,3.68 9.2,13.61 23.72,22.43 38.84,28.1 9.74,3.48 21.08,4.64 30.43,-0.61 24.7,-12.41 46.13,-30.22 67.86,-47.05 z"
         id="path34" /><path
         d="m 403.5,276.76 c 9.37,0.28 19.64,-3.32 28.37,1.31 4.64,1.87 3.32,10.09 -1.87,9.7 -20.9,1.14 -39.06,14.93 -50.34,31.87 -1.96,3.28 -3.91,7.68 -1.56,11.27 1.85,3.61 6.34,3.88 9.9,3.7 12.44,-0.61 25.58,-1.52 36.47,-8.17 5.87,-3.34 8.33,-11.42 15.61,-12.43 4.76,-0.85 8.89,4.99 6.01,9.06 -4.34,6.56 -11.74,10.07 -18.54,13.52 -17.43,8.29 -35.89,14.15 -54.37,19.61 -18.71,6.02 -38.64,7.4 -58.16,6.39 -3.43,-0.14 -8.51,-0.34 -9.29,-4.6 0.74,-3.43 3.64,-5.81 5.73,-8.47 19.21,-21.76 39.53,-42.49 59.89,-63.17 7.56,-9.74 21.31,-7.56 32.15,-9.59 z"
         id="path35" /></g></g></svg>
