<?xml version="1.0" encoding="UTF-8" standalone="no"?>
<!-- Created with Inkscape (http://www.inkscape.org/) -->

<svg
   width="2100"
   height="900"
   viewBox="0 0 555.62498 238.125"
   version="1.1"
   id="svg1"
   inkscape:version="1.3.2 (091e20ef0f, 2023-11-25)"
   sodipodi:docname="loongson.svg"
   xml:space="preserve"
   inkscape:export-filename="microsoft.png"
   inkscape:export-xdpi="96"
   inkscape:export-ydpi="96"
   xmlns:inkscape="http://www.inkscape.org/namespaces/inkscape"
   xmlns:sodipodi="http://sodipodi.sourceforge.net/DTD/sodipodi-0.dtd"
   xmlns="http://www.w3.org/2000/svg"
   xmlns:svg="http://www.w3.org/2000/svg"><sodipodi:namedview
     id="namedview1"
     pagecolor="#ffffff"
     bordercolor="#000000"
     borderopacity="0.25"
     inkscape:showpageshadow="2"
     inkscape:pageopacity="0.0"
     inkscape:pagecheckerboard="0"
     inkscape:deskcolor="#d1d1d1"
     inkscape:document-units="mm"
     inkscape:zoom="0.33111331"
     inkscape:cx="955.86614"
     inkscape:cy="1126.5026"
     inkscape:window-width="1920"
     inkscape:window-height="1100"
     inkscape:window-x="0"
     inkscape:window-y="0"
     inkscape:window-maximized="1"
     inkscape:current-layer="layer1" /><defs
     id="defs1"><clipPath
       clipPathUnits="userSpaceOnUse"
       id="clipPath1"><rect
         style="opacity:0.129301;fill:#000000;fill-opacity:1;stroke-width:12.7;stroke-linecap:round;stroke-linejoin:round"
         id="rect2"
         width="60.854168"
         height="60.854168"
         x="195.08763"
         y="116.66334" /></clipPath></defs><g
     inkscape:label="图层 1"
     inkscape:groupmode="layer"
     id="layer1"><g
       id="g1"
       transform="translate(-191.82287,-361.0675)"><g
         id="g13"
         transform="matrix(0.51461779,0,0,0.51461779,257.96716,422.53958)"><path
           class="cls-1"
           d="M 386.21,11.28 H 360.6 V 4.6 c 0,-2.35 -1.97,-4.28 -4.52,-4.53 h -26.16 c -2.3,0.15 -4.19,1.65 -4.61,3.66 -0.01,0.06 0,7.55 0,7.55 H 269.35 V 3.87 c -0.34,-2.01 -2.12,-3.58 -4.39,-3.81 h -26.07 c -2.29,0.15 -4.24,1.65 -4.66,3.66 -0.04,0.25 0,7.55 0,7.55 0,0 -25.16,0.04 -25.24,0.04 -2.1,0 -3.89,1.36 -4.29,3.16 -0.05,0.2 0,12.48 0,12.48 0.05,2.07 1.83,3.74 4.12,3.82 h 25.4 v 4.83 c 0,2.33 2.09,4.42 4.6,4.42 0,0 25.4,0.02 25.5,0.02 2.48,0 5.02,-1.58 5.02,-3.75 v -5.52 h 55.96 v 5.1 c 0.18,2.21 2.14,3.97 4.6,4.15 0,0 25.6,0 25.66,0 2.49,0 4.59,-1.62 5.02,-3.74 0.04,-0.22 0,-5.5 0,-5.5 h 25.32 c 0,0 0.04,-0.01 0.08,-0.01 2.39,0 4.32,-1.74 4.34,-3.88 V 15.17 c -0.01,-2.09 -1.85,-3.78 -4.13,-3.88 z"
           id="path1"
           style="fill:#e60012;stroke-width:0px" /><path
           class="cls-1"
           d="m 246.69,56.49 c -0.07,0 -0.14,0 -0.2,-0.03 h -25.46 c -1.88,0.13 -3.42,1.36 -3.85,2.99 -1.34,14.87 -11.07,80.47 -12.5,96.52 0.16,1.84 1.73,3.3 3.75,3.54 6.58,-0.02 19.32,-0.06 25.9,-0.08 0.03,-0.01 0.03,-0.01 0.09,-0.01 2.4,0 4.32,-1.76 4.32,-3.91 1.45,-16.37 10.83,-79.01 12.27,-95.23 -0.06,-2.09 -1.97,-3.78 -4.32,-3.78 z"
           id="path2"
           style="fill:#e60012;stroke-width:0px" /><path
           class="cls-1"
           d="m 373.97,56.45 c 0,0 -25.56,0.03 -25.64,0.03 -2.36,0 -4.26,1.69 -4.34,3.78 1.42,16.23 10.83,78.87 12.25,95.23 0,2.15 1.95,3.91 4.35,3.91 0.03,0 0.06,0 0.09,0.01 6.57,0.02 19.31,0.06 25.9,0.08 2,-0.24 3.57,-1.7 3.75,-3.54 -1.44,-16.05 -11.17,-81.65 -12.52,-96.52 -0.42,-1.63 -1.94,-2.86 -3.84,-2.99 z"
           id="path3"
           style="fill:#e60012;stroke-width:0px" /><path
           class="cls-1"
           d="m 334.05,59.51 c -0.37,-1.66 -1.98,-2.93 -3.92,-3.06 H 307 c -2.1,0 -4.56,2.05 -4.25,4.02 0.04,0.24 9.22,67.9 9.4,69.44 h 31.09 c 0,0 -6.96,-53.36 -9.19,-70.4 z"
           id="path4"
           style="fill:#e60012;stroke-width:0px" /><path
           class="cls-1"
           d="m 343.53,144.34 c 0,-2.12 -1.9,-3.85 -4.27,-3.89 h -38.27 c -2.88,0 -5.17,-0.75 -6.8,-2.2 -1.62,-1.42 -2.44,-4 -2.44,-7.68 0,0 0,-55.17 0.02,-70.35 -0.09,-2.09 -1.98,-3.76 -4.33,-3.76 h -25.29 c -2.11,0 -3.93,1.36 -4.3,3.15 -0.04,0.25 0,73.62 0,73.62 0,9.91 4.17,17.52 12.49,22.66 3.81,2.37 9.64,3.53 17.86,3.53 h 52.49 c 2.25,-0.14 4.06,-1.82 4.06,-3.9 0,-0.01 0,-0.02 0.02,-0.04 -0.36,-3.21 -0.84,-7.68 -1.19,-10.94 -0.05,-0.05 -0.06,-0.11 -0.06,-0.2 z"
           id="path5"
           style="fill:#e60012;stroke-width:0px" /><path
           class="cls-1"
           d="m 183.62,22.18 h -12.69 c 0,0 3.82,-15.75 4.2,-17.62 0.53,-2.55 -2.25,-4.54 -5.03,-4.55 h -27.89 c -2.46,0 -4.51,1.59 -4.96,3.68 -0.06,0.28 -4.33,18.49 -4.33,18.49 H 77.3 c 0,0 4.04,-16.61 4.24,-17.62 C 82.09,1.96 79.27,0.02 76.5,0.02 H 48.89 c -2.46,0 -4.51,1.59 -4.95,3.68 v 0 c -1.17,4.51 -4.57,18.49 -4.57,18.49 0,0 -33.03,0.03 -33.08,0.03 -2.11,0 -4.3,1.4 -4.3,3.15 v 12.74 c 0,1.97 1.63,3.83 3.74,3.83 H 34.6 c 0,0 -19.14,78.89 -27.39,112.98 -0.33,2.43 2.27,4.46 5.04,4.46 0.13,0 27.7,-0.06 27.82,-0.06 2.79,0 4.12,-1.39 5.04,-4.53 0.04,-0.13 27.4,-112.86 27.4,-112.86 H 93.95 V 87.7 c 0,0 -13.58,4 -21.16,6.82 -1.38,0.47 -2.43,1.56 -2.72,2.89 0,0 0,0.01 0,0.02 -0.78,4.08 -4.96,20.5 -4.99,20.63 -0.5,2.22 2.08,4.63 4.35,3.9 1.69,-0.53 24.53,-8.03 24.53,-8.03 v 20.89 c 0,7.58 2.83,13.77 8.4,18.44 5.19,4.28 15.38,6.24 22.68,6.24 h 58.26 c 0,0 0.11,-0.04 0.19,-0.04 2.19,0 4,-1.46 4.29,-3.37 v -12.02 c -0.13,-1.9 -1.73,-3.41 -3.79,-3.64 h -42.14 c -5.99,0 -8.89,-2.45 -8.89,-7.51 V 100.1 l 51.81,-17.73 c 0,0 2.89,-1.13 2.89,-3.15 V 59.87 c 0,-2.52 -2.68,-4.06 -4.84,-3.2 -0.07,0.02 -49.87,17.02 -49.87,17.02 V 41.93 c 0,0 50.43,-0.04 50.53,-0.04 2.22,0 4.29,-1.56 4.29,-3.47 V 25.65 c 0,-1.97 -1.93,-3.48 -4.15,-3.48 z"
           id="path6"
           style="fill:#e60012;stroke-width:0px" /><path
           class="cls-1"
           d="m 593.74,11.91 c 0,0 -70.02,-0.02 -70.02,-0.02 v -7.7 c -0.24,-2.13 -2.09,-3.85 -4.47,-4.08 h -30.77 c -2.3,0.15 -4.19,1.65 -4.61,3.66 v 8.12 c 0,0 -69.52,0.02 -69.56,0.02 -4.1,0 -7.42,3.29 -7.49,7.37 -0.01,18.05 0,99.27 0,117.11 0.12,4.03 3.43,7.27 7.48,7.27 0.03,0 69.55,-0.04 69.55,-0.04 0,0 0,9.25 0,11.73 0.18,2.22 2.15,3.98 4.61,4.16 0,0 30.21,-0.01 30.27,-0.01 2.43,0 4.47,-1.54 4.97,-3.59 v -12.29 l 69.96,0.04 c 0,0 0.03,0 0.06,0 4.14,0 7.5,-3.36 7.5,-7.5 V 19.4 c 0,-4.14 -3.35,-7.49 -7.5,-7.49 z M 483.86,123.15 H 442.64 V 33.11 h 41.22 v 90.03 z m 81.6,0 H 523.73 V 33.11 h 41.73 v 90.03 z"
           id="path7"
           style="fill:#e60012;stroke-width:0px" /><path
           class="cls-1"
           d="M 701.46,0.19 H 630.6 c -1.71,0 -3.48,1.14 -3.48,2.55 V 17.5 c 0,1.59 1.32,3.09 3.03,3.09 h 23.01 c -0.28,2.03 -0.33,4.48 -0.29,11.75 H 630.6 c -1.71,0 -3.48,1.13 -3.48,2.55 v 14.76 c 0,1.59 1.32,3.1 3.03,3.1 h 22.89 c 0.16,18.97 0.36,50 0.38,101.95 0,2.37 2.12,4.49 4.67,4.49 0,0 15.62,0.01 15.73,0.01 2.51,0 5.1,-1.6 5.1,-3.8 V 52.74 h 23.01 c 1.71,0 3.02,-1.51 3.02,-3.1 V 34.88 c 0,-1.42 -1.76,-2.55 -3.47,-2.55 H 678.93 V 20.58 h 23.01 c 1.71,0 3.02,-1.5 3.02,-3.09 V 2.73 c 0,-1.41 -1.76,-2.55 -3.47,-2.55 z"
           id="path8"
           style="fill:#e60012;stroke-width:0px" /><path
           class="cls-1"
           d="m 716.98,40.53 h 46.79 c 1.71,0 3.02,-1.51 3.02,-3.1 v -18.1 c 0,-1.41 -1.77,-2.55 -3.48,-2.55 h -45.88 c -1.71,0 -3.48,1.13 -3.48,2.55 v 18.1 c 0,1.59 1.32,3.1 3.02,3.1 z"
           id="path9"
           style="fill:#e60012;stroke-width:0px" /><path
           class="cls-1"
           d="m 716.98,86.54 h 46.79 c 1.71,0 3.02,-1.51 3.02,-3.11 V 65.34 c 0,-1.41 -1.77,-2.55 -3.48,-2.55 h -45.88 c -1.71,0 -3.48,1.14 -3.48,2.55 v 18.09 c 0,1.6 1.32,3.11 3.02,3.11 z"
           id="path10"
           style="fill:#e60012;stroke-width:0px" /><path
           class="cls-1"
           d="M 817.68,108.25 H 807.54 V 3.86 C 807.19,1.82 805.37,0.23 803.08,0 h -24.8 c -2.33,0.15 -4.3,1.68 -4.73,3.71 -0.33,1.83 -0.11,2.11 -0.03,104.54 h -56.08 c -1.71,0 -3.48,1.13 -3.48,2.55 V 130 c 0,1.59 1.32,3.1 3.02,3.1 h 56.55 c 0.01,6.92 0.01,14.2 0.02,21.89 0,2.37 2.11,4.5 4.67,4.5 0,0 24.12,0.02 24.23,0.02 2.51,0 5.1,-1.6 5.1,-3.8 v -22.6 h 10.58 c 1.71,0 3.03,-1.51 3.03,-3.1 v -19.2 c 0,-1.42 -1.77,-2.55 -3.48,-2.55 z"
           id="path11"
           style="fill:#e60012;stroke-width:0px" /><path
           class="cls-1"
           d="m 701.58,62.91 h -14.24 c -1.75,0.11 -3.22,1.25 -3.55,2.78 -0.03,0.2 0,90.14 0,90.14 0,1.78 1.59,3.37 3.5,3.37 0,0 13.74,0.01 13.82,0.01 1.88,0 3.82,-1.2 3.82,-2.85 V 65.81 c -0.26,-1.53 -1.62,-2.73 -3.35,-2.89 z"
           id="path12"
           style="fill:#e60012;stroke-width:0px" /><path
           class="cls-1"
           d="m 647.23,63 h -16.37 c -1.74,0.11 -3.22,1.26 -3.55,2.79 -0.03,0.19 0,69.68 0,69.68 0,5.72 -1.49,7.72 -3.55,8.16 v 0 c -0.6,0.19 -1.03,0.75 -1.03,1.42 v 12.92 c 0,0.81 0.65,1.47 1.47,1.48 10.86,-1.3 20.6,-5.78 22.94,-13.47 1.06,-3.36 1.58,-9.45 1.65,-18.29 l -0.05,-61.77 c -0.26,-1.53 0.22,-2.73 -1.51,-2.9 z"
           id="path13"
           style="fill:#e60012;stroke-width:0px" /></g><path
         class="cls-1"
         d="m 345.46761,517.44024 -2.91787,11.47598 c -0.36539,-1.11673 -0.71531,-2.24372 -1.09615,-3.36045 -0.58665,-1.72397 -1.15273,-3.46852 -1.68794,-5.21308 -0.41683,-1.34315 -1.33801,-2.41355 -2.73262,-2.75834 -0.37053,-0.0926 -0.76163,-0.13888 -1.13731,-0.13888 h -6.55107 l -4.80138,19.79735 h 6.49447 l 3.42735,-13.77117 3.89566,11.52229 c 0.6021,1.83204 2.887,2.24888 4.647,2.24888 h 3.88021 l 4.80139,-19.79735 h -6.22174 z"
         id="path14"
         style="fill:#e60012;stroke-width:0px" /><path
         class="cls-1"
         d="m 562.23491,517.32189 -2.98993,11.74357 c -0.37052,-1.14759 -0.73074,-2.30034 -1.12186,-3.44279 -0.6021,-1.76513 -1.17846,-3.55087 -1.72912,-5.33145 -0.42712,-1.37401 -1.36888,-2.46501 -2.79951,-2.82525 -0.38081,-0.0978 -0.78223,-0.14412 -1.16304,-0.14412 h -6.70547 l -4.90944,20.26049 h 6.64885 l 3.50969,-14.09023 3.98829,11.7899 c 0.61754,1.87321 2.95391,2.30033 4.75507,2.30033 h 3.96771 l 4.90944,-20.26049 h -6.36581 z"
         id="path15"
         style="fill:#e60012;stroke-width:0px" /><path
         class="cls-1"
         d="m 439.02513,517.44024 -2.91787,11.47598 c -0.36539,-1.11673 -0.71534,-2.24372 -1.09615,-3.36045 -0.58666,-1.72397 -1.15273,-3.46852 -1.68794,-5.21308 -0.4117,-1.34315 -1.33802,-2.41355 -2.73263,-2.75834 -0.37052,-0.0926 -0.76163,-0.13888 -1.13731,-0.13888 h -6.55107 l -4.8014,19.79735 h 6.4945 l 3.42734,-13.77117 3.89051,11.52229 c 0.6021,1.83204 2.887,2.24888 4.647,2.24888 h 3.88023 l 4.80138,-19.79735 h -6.22173 z"
         id="path16"
         style="fill:#e60012;stroke-width:0px" /><path
         class="cls-1"
         d="m 295.54969,517.20351 c -2.53192,-0.37565 -5.18219,-0.29846 -7.67809,-0.0257 -0.84913,0.0926 -1.69825,0.21615 -2.52163,0.43743 -2.94362,0.78736 -4.54407,2.61941 -5.67625,6.1394 -0.27788,0.95204 -0.55578,1.90408 -0.78736,2.87671 -0.2573,0.97262 -0.44256,1.97098 -0.60209,2.93846 -0.16475,0.99836 -0.25731,1.9504 -0.25731,2.87158 0,0.7925 0.13887,1.4615 0.44257,2.01729 0.84911,1.5593 2.53192,2.39299 4.18899,2.73262 2.007,0.41171 4.11693,0.57124 6.15482,0.51977 1.89895,-0.0412 3.80818,-0.23673 5.62993,-0.79251 0.85425,-0.25731 1.70852,-0.63299 2.44957,-1.13731 1.40492,-0.96234 2.24888,-2.43415 2.80467,-4.00887 0.31392,-0.90058 0.53521,-1.82689 0.77707,-2.7532 0.43743,-1.65707 0.75134,-3.34501 0.96749,-5.04326 0.18011,-1.41519 0.48888,-3.02595 -0.34479,-4.30221 -0.71019,-1.09613 -2.03789,-1.65705 -3.2524,-1.99671 -0.75133,-0.211 -1.51812,-0.37053 -2.30034,-0.48375 z m -0.97778,5.5373 c -0.54549,3.04139 -1.20935,6.06735 -2.20255,8.99552 -0.34481,1.11671 -1.41521,1.62619 -2.55251,1.81145 -0.0669,0.0463 -2.20255,0.13888 -3.1752,-0.1132 -1.15788,-0.32421 -1.85262,-0.97777 -1.66736,-2.04302 0.47346,-2.73778 1.091,-5.45496 1.971,-8.08979 0.41683,-1.3483 1.15788,-2.01731 2.82525,-2.20257 0.0463,-0.0206 0.95204,-0.0926 1.29683,-0.0926 0.32422,0 0.69474,0 1.13731,0.0515 0.44257,0.0206 0.83367,0.0926 1.20935,0.21099 0.37052,0.1132 0.66901,0.27791 0.90058,0.50948 0.23157,0.25731 0.32421,0.58152 0.25217,0.97262 z"
         id="path17"
         style="fill:#e60012;stroke-width:0px" /><path
         class="cls-1"
         d="m 319.70585,517.20351 c -2.53192,-0.37565 -5.1822,-0.29846 -7.67809,-0.0257 -0.84398,0.0926 -1.6931,0.21615 -2.51648,0.43743 -2.94362,0.78736 -4.53894,2.61941 -5.67624,6.1394 -0.27789,0.95204 -0.55579,1.90408 -0.78737,2.87671 -0.2573,0.97262 -0.43743,1.97098 -0.60209,2.93846 -0.15949,0.99836 -0.25217,1.9504 -0.25217,2.87158 0,0.7925 0.13887,1.4615 0.43743,2.01729 0.84396,1.5593 2.53192,2.39299 4.18899,2.73262 2.00185,0.41171 4.11693,0.57124 6.15482,0.51977 1.89893,-0.0412 3.80818,-0.23673 5.62991,-0.79251 0.85427,-0.25731 1.70854,-0.63299 2.44959,-1.13731 1.4049,-0.96234 2.25404,-2.43415 2.80467,-4.00887 0.31392,-0.90058 0.53521,-1.82689 0.77707,-2.7532 0.43743,-1.65707 0.75649,-3.34501 0.96749,-5.04326 0.17505,-1.41519 0.48888,-3.02595 -0.34479,-4.30221 -0.71532,-1.09613 -2.03789,-1.65705 -3.2524,-1.99671 -0.7462,-0.211 -1.51812,-0.37053 -2.30034,-0.48375 z m -0.97778,5.5373 c -0.54548,3.04139 -1.20935,6.06735 -2.20255,8.99552 -0.34995,1.11671 -1.41521,1.62619 -2.54736,1.81145 -0.0669,0.0463 -2.20257,0.13888 -3.1752,-0.1132 -1.15788,-0.32421 -1.85262,-0.97777 -1.66736,-2.04302 0.4683,-2.73778 1.091,-5.45496 1.97098,-8.08979 0.41685,-1.3483 1.1579,-2.01731 2.82527,-2.20257 0.0515,-0.0206 0.95204,-0.0926 1.29683,-0.0926 0.3242,0 0.69472,0 1.13731,0.0515 0.44257,0.0206 0.83367,0.0926 1.20935,0.21099 0.37052,0.1132 0.66901,0.27791 0.90058,0.50948 0.23157,0.25731 0.32421,0.58152 0.25215,0.97262 z"
         id="path18"
         style="fill:#e60012;stroke-width:0px" /><path
         class="cls-1"
         d="m 266.78255,531.72604 c -0.32421,-0.0875 -0.62267,-0.23159 -0.86455,-0.45287 -0.8697,-0.80794 -0.37566,-2.50619 -0.11845,-3.49425 l 2.6194,-10.59083 h -7.0091 c 0,0 -2.75834,11.18779 -3.19062,13.16906 -0.88,4.3125 0.48888,6.81355 5.21306,7.02454 3.61778,0.13888 7.55974,0.2676 11.89797,-0.31908 l 1.44092,-5.75855 c -1.69307,0.30361 -3.08255,0.50945 -4.77564,0.62783 -1.11671,0.0772 -2.24373,0.0566 -3.36046,-0.01 -0.57123,-0.036 -1.25053,-0.0257 -1.84747,-0.19555 z"
         id="path19"
         style="fill:#e60012;stroke-width:0px" /><path
         class="cls-1"
         d="m 598.72132,531.81867 c -0.31906,-0.0875 -0.61754,-0.23158 -0.8594,-0.45286 -0.86456,-0.8028 -0.37053,-2.4959 -0.11846,-3.47883 l 2.60912,-10.55996 h -6.98851 c 0,0 -2.74806,11.14663 -3.17519,13.12277 -0.88,4.29705 0.48375,6.79295 5.19764,6.99879 3.60234,0.13888 7.534,0.26246 11.85679,-0.31906 l 1.43579,-5.73798 c -1.68794,0.29846 -3.07226,0.50946 -4.76022,0.62783 -1.11158,0.0772 -2.23858,0.0617 -3.35015,-0.01 -0.57123,-0.036 -1.25053,-0.0257 -1.84233,-0.19557 z"
         id="path20"
         style="fill:#e60012;stroke-width:0px" /><path
         class="cls-1"
         d="m 384.75355,522.05636 h 9.89609 l 1.19392,-4.77565 h -11.09001 c -4.63671,0 -7.69355,2.29006 -8.55296,5.60934 -0.72047,2.71203 0.6021,5.44981 4.33308,6.37612 1.60047,0.3911 2.5731,0.37052 4.21988,0.37052 2.43412,0 1.85262,2.75834 -0.66901,3.03625 -0.56094,0.0669 -1.28141,0.0463 -1.90409,0.0463 h -8.57869 l -1.14759,4.68818 h 8.77939 c 3.17518,0 6.3967,-0.0926 8.85142,-1.46153 1.75999,-0.99835 3.24209,-2.78409 3.49939,-5.1719 0.31908,-3.22666 -1.64676,-5.74829 -6.28348,-5.7946 h -2.75834 c -2.48047,-0.0206 -1.92468,-2.8304 0.211,-2.92304 z"
         id="path21"
         style="fill:#e60012;stroke-width:0px" /><path
         class="cls-1"
         d="m 413.26336,517.20351 c -2.53192,-0.37565 -5.18219,-0.29846 -7.67809,-0.0257 -0.84911,0.0926 -1.69825,0.21615 -2.52163,0.43743 -2.93846,0.78736 -4.53894,2.61941 -5.67623,6.1394 -0.2779,0.95204 -0.55578,1.90408 -0.78737,2.87671 -0.25731,0.97262 -0.44257,1.97098 -0.6021,2.93846 -0.15949,0.99836 -0.25217,1.9504 -0.25217,2.87158 0,0.7925 0.13887,1.4615 0.43743,2.01729 0.84911,1.5593 2.53707,2.39299 4.19413,2.73262 2.00186,0.41171 4.11181,0.57124 6.15483,0.51977 1.89894,-0.0412 3.80818,-0.23673 5.62992,-0.79251 0.85427,-0.25731 1.70853,-0.63299 2.44958,-1.13731 1.40491,-0.96234 2.25402,-2.43415 2.80467,-4.00887 0.31391,-0.90058 0.53006,-1.82689 0.77707,-2.7532 0.43744,-1.65707 0.7565,-3.34501 0.97263,-5.04326 0.17505,-1.41519 0.4889,-3.02595 -0.33964,-4.30221 -0.71532,-1.09613 -2.03789,-1.65705 -3.25239,-1.99671 -0.75134,-0.211 -1.52328,-0.37053 -2.30035,-0.48375 z m -0.97777,5.5373 c -0.5455,3.04139 -1.20935,6.06735 -2.19742,8.99552 -0.34479,1.11671 -1.41519,1.62619 -2.54736,1.81145 -0.0669,0.0463 -2.20256,0.13888 -3.17518,-0.1132 -1.1579,-0.32421 -1.85262,-0.97777 -1.67251,-2.04302 0.47345,-2.73778 1.09099,-5.45496 1.97613,-8.08979 0.41683,-1.3483 1.15788,-2.01731 2.82525,-2.20257 0.0515,-0.0206 0.95204,-0.0926 1.29683,-0.0926 0.32422,0 0.69474,0 1.13731,0.0515 0.43743,0.0206 0.83369,0.0926 1.20421,0.21099 0.37566,0.1132 0.66899,0.27791 0.90572,0.50948 0.23159,0.25731 0.32421,0.58152 0.25217,0.97262 z"
         id="path22"
         style="fill:#e60012;stroke-width:0px" /><path
         class="cls-1"
         d="m 584.16279,517.47113 c -2.47532,-0.36539 -5.06384,-0.29335 -7.50314,-0.0257 -0.82852,0.0875 -1.65705,0.211 -2.46501,0.42713 -2.87156,0.77194 -4.43601,2.56281 -5.54758,6.00044 -0.27275,0.93147 -0.54035,1.85778 -0.77192,2.80982 -0.24702,0.95205 -0.43228,1.92467 -0.58668,2.87671 -0.15949,0.97263 -0.25215,1.90409 -0.25215,2.80467 0,0.77192 0.13888,1.43064 0.42713,1.97614 0.82853,1.51812 2.47532,2.3415 4.09635,2.67087 1.96071,0.40139 4.01917,0.55578 6.01588,0.50945 1.85263,-0.0412 3.72069,-0.23157 5.50127,-0.77707 0.83368,-0.24701 1.6725,-0.61754 2.39297,-1.11157 1.37404,-0.9366 2.20257,-2.37753 2.73776,-3.91625 0.30877,-0.87998 0.51977,-1.78571 0.7565,-2.69144 0.43227,-1.6159 0.74105,-3.26782 0.95204,-4.93005 0.17505,-1.37917 0.47859,-2.95904 -0.3345,-4.20441 -0.69988,-1.0704 -1.99158,-1.6159 -3.1752,-1.9504 -0.73076,-0.20586 -1.48723,-0.36024 -2.24888,-0.47346 z m -0.9572,5.40863 c -0.53006,2.97449 -1.17847,5.9284 -2.14595,8.78967 -0.33964,1.09099 -1.38433,1.59016 -2.49075,1.77029 -0.0669,0.0412 -2.15626,0.13381 -3.10315,-0.1132 -1.13215,-0.31906 -1.81145,-0.9572 -1.63134,-1.99158 0.46317,-2.676 1.06527,-5.3263 1.92982,-7.90453 0.40655,-1.31228 1.13216,-1.97098 2.75836,-2.1511 0.0463,-0.0206 0.93145,-0.0926 1.27111,-0.0926 0.31906,0 0.67929,0 1.11157,0.0463 0.42713,0.0206 0.81309,0.0875 1.17333,0.20584 0.36537,0.10814 0.65356,0.27275 0.88514,0.49403 0.22643,0.25217 0.31392,0.5661 0.24701,0.95204 z"
         id="path23"
         style="fill:#e60012;stroke-width:0px" /><path
         class="cls-1"
         d="m 627.52448,517.47626 c -2.47017,-0.36537 -5.05869,-0.29332 -7.50312,-0.0257 -0.8234,0.0875 -1.65707,0.21099 -2.46503,0.42714 -2.87156,0.77192 -4.43085,2.55766 -5.54243,6.00044 -0.27275,0.92632 -0.5455,1.85778 -0.77193,2.80981 -0.25216,0.95204 -0.43228,1.92468 -0.58666,2.87157 -0.15949,0.97263 -0.24702,1.90409 -0.24702,2.80467 0,0.77192 0.13382,1.43064 0.42713,1.97614 0.8234,1.51812 2.47532,2.33636 4.09637,2.67087 1.95553,0.40139 4.01915,0.55578 6.01073,0.50945 1.85262,-0.0412 3.71554,-0.23157 5.50127,-0.77707 0.83367,-0.24701 1.66736,-0.61754 2.39297,-1.11157 1.37403,-0.9366 2.19742,-2.37239 2.73776,-3.91625 0.30877,-0.87998 0.51976,-1.78571 0.75649,-2.69144 0.43228,-1.6159 0.74105,-3.26782 0.95205,-4.92489 0.17505,-1.37917 0.47859,-2.95391 -0.33451,-4.20444 -0.69987,-1.0704 -1.99157,-1.61589 -3.17519,-1.9504 -0.7359,-0.20584 -1.48725,-0.36021 -2.24888,-0.47343 z m -0.95718,5.40864 c -0.53006,2.96935 -1.17848,5.92326 -2.14597,8.78453 -0.3345,1.09099 -1.37917,1.58502 -2.49075,1.77029 -0.0669,0.0412 -2.1511,0.13381 -3.10315,-0.1132 -1.13215,-0.31906 -1.81144,-0.9572 -1.63134,-1.99158 0.46317,-2.676 1.06527,-5.3263 1.92469,-7.90453 0.40655,-1.31228 1.127,-1.97098 2.75834,-2.1511 0.0463,-0.0206 0.93147,-0.0926 1.2711,-0.0926 0.31906,0 0.6793,0 1.11158,0.0463 0.42714,0.0206 0.81309,0.0875 1.17333,0.20584 0.36539,0.1132 0.65871,0.27275 0.88515,0.49403 0.22642,0.24702 0.31391,0.5661 0.24186,0.95204 z"
         id="path24"
         style="fill:#e60012;stroke-width:0px" /><path
         class="cls-1"
         d="m 476.99363,522.25706 c -0.30877,0.33966 -0.86456,0.6021 -1.28655,0.71532 -0.41683,0.10814 -1.44608,0.0978 -1.44608,0.0978 h -4.31248 l -3.43251,14.51222 h -7.42079 l 3.42736,-14.51222 h -4.65729 c 0,0 -0.9366,0.0206 -1.26597,-0.12351 -0.12856,-0.0566 -0.54548,-0.30877 -0.75134,-0.62783 -0.1132,-0.17505 -0.53519,-0.6587 -0.3139,-1.5593 0.15949,-0.6587 0.87484,-3.42734 0.87484,-3.42734 h 22.29838 c 0,0 -0.6021,2.91273 -0.79765,3.45823 -0.29332,0.81309 -0.61754,1.12701 -0.92631,1.46665 z"
         id="path25"
         style="fill:#e60012;stroke-width:0px" /><path
         class="cls-1"
         d="m 495.50958,537.53607 -14.80555,0.0156 c 0,0 -0.83882,0 -1.54901,-0.0875 -0.82853,-0.0978 -1.26081,-0.23157 -2.06361,-1.0704 -0.56608,-0.5918 -0.95205,-1.63649 -0.72561,-2.76864 0.0566,-0.30877 1.51297,-5.77402 2.76865,-10.46734 0.1801,-0.669 0.37566,-1.45636 0.51461,-2.00186 0.36023,-1.4049 0.97262,-2.33122 1.48725,-2.72232 1.22993,-0.93147 2.31064,-1.06526 4.73447,-1.06526 4.95064,0 11.99575,-0.006 12.37656,0 0.81309,0.01 1.35859,0.14918 1.74971,0.51976 0.47859,0.44772 0.4014,1.20935 0.33964,1.43064 -0.0566,0.22128 -0.65356,2.46503 -0.65356,2.46503 h -12.88604 l -0.89542,3.37588 h 11.01797 l -1.1682,4.41027 h -11.01797 l -0.94173,3.55088 h 12.89117 l -1.16817,4.41027 z"
         id="path26"
         style="fill:#e60012;stroke-width:0px" /><path
         class="cls-1"
         d="m 518.84236,530.66592 c -0.36024,1.32257 -0.38597,1.91437 -1.29171,3.27297 -1.00864,1.50783 -1.76513,1.90924 -2.78407,2.44443 -1.01895,0.53521 -2.01731,0.73076 -3.41192,0.94691 -1.19391,0.18516 -2.75836,0.21099 -4.01917,0.21099 -2.9436,0 -5.5733,-0.55065 -7.18919,-2.03788 -0.9572,-0.86972 -1.19393,-2.45988 -1.2454,-3.56632 -0.0515,-1.10642 0.12351,-2.51648 0.52492,-4.21986 l 0.15444,-0.66901 0.15949,-0.669 c 0.40141,-1.70852 0.90573,-3.4119 1.48725,-4.52348 0.57637,-1.11157 1.22993,-2.20772 2.59883,-3.08257 1.16817,-0.74618 2.58852,-0.95204 4.00371,-1.16817 1.30715,-0.20071 2.73778,-0.211 4.27648,-0.211 1.32257,0 2.67087,0.10289 3.71554,0.3345 1.16304,0.25731 1.77544,0.53006 2.50618,0.97778 0.77194,0.47859 1.49241,1.17333 1.72912,1.90923 0.32937,1.00864 0.19557,1.79087 0.12856,2.89731 l -6.36067,-0.0926 c 0.072,-0.67929 0.0515,-1.15788 -0.37053,-1.54385 -0.42712,-0.38597 -1.4049,-0.55579 -2.41356,-0.55579 -0.55579,0 -1.19391,-0.0412 -1.6725,0.1132 -0.47859,0.15444 -1.00864,0.24186 -1.33801,0.48375 -0.27788,0.22128 -0.5249,0.50945 -0.71016,0.83367 -0.3448,0.58152 -0.30877,0.79251 -0.54037,1.56958 -0.19041,0.63812 -0.38595,1.52328 -0.66898,2.72747 -0.37568,1.60561 -0.65357,2.79438 -0.72563,3.44795 -0.0669,0.64327 -0.24186,1.71367 0.18517,2.20257 0.72047,0.82338 1.73427,0.84396 2.86642,0.84396 0.98293,0 2.08422,-0.28818 2.70176,-0.67414 0.61754,-0.38597 0.77707,-1.13731 1.09097,-2.19227 h 6.62314 z"
         id="path27"
         style="fill:#e60012;stroke-width:0px" /><path
         class="cls-1"
         d="m 538.94847,537.5618 h -4.28677 c -0.24188,0 -0.83369,-0.072 -1.00864,-0.16474 -0.41686,-0.21613 -0.65358,-0.42197 -0.75649,-0.86969 -0.10815,-0.44773 -0.01,-1.13731 0.10814,-1.61077 0.11845,-0.47343 1.3483,-5.36232 1.3483,-5.36232 h -7.03484 l -2.01729,8.00746 h -6.60769 l 5.08957,-20.1936 h 4.87343 c 0.43743,0 1.04982,0.23157 1.24023,0.76163 0.0978,0.27275 0.10815,0.85942 -0.0309,1.37403 l -0.31906,1.20422 -1.11673,4.43599 h 7.03484 l 1.95555,-7.77072 h 6.60769 l -5.08957,20.19361 z"
         id="path28"
         style="fill:#e60012;stroke-width:0px" /><path
         class="cls-1"
         d="m 681.30204,517.21896 -10.53422,12.08323 -1.91954,8.30592 h -3.96255 c -0.21099,0 -1.0138,0 -1.3483,-0.35508 -0.26246,-0.28304 -0.47344,-0.38597 -0.55579,-1.02924 -0.0618,-0.50946 0.0978,-0.90572 0.20071,-1.35859 0.10289,-0.44771 1.28654,-5.56301 1.28654,-5.56301 l -4.97121,-12.08323 h 5.13074 c 0.41684,0 0.96234,0.036 1.41006,0.31906 0.4477,0.28304 0.45801,0.45287 0.62783,0.81309 0.28304,0.59696 0.51461,1.3483 0.51461,1.3483 l 1.5593,4.84771 5.68653,-7.32816 z"
         id="path29"
         style="fill:#e60012;stroke-width:0px" /><g
         id="g30"
         transform="matrix(0.51461779,0,0,0.51461779,257.96716,422.53958)"><polygon
           class="cls-1"
           points="208.77,208.87 205.13,223.48 218.35,223.5 224.37,198.65 204.51,205.78 "
           id="polygon29"
           style="fill:#e60012;stroke-width:0px" /><path
           class="cls-1"
           d="m 196.77,213.98 c -0.62,-0.09 -2.27,-0.61 -2.27,-2.72 0.05,-2.87 0.43,-5.53 1.19,-8.31 0.75,-2.75 1.86,-5.36 3.22,-7.84 0.6,-0.98 1.67,-1.62 2.89,-1.62 0,0 0.01,0 0.02,0 h 23.8 l 2.22,-9.29 h -30.49 c -1.26,0 -2.47,0.18 -3.63,0.54 -1.17,0.32 -2.24,0.81 -3.27,1.39 -1.03,0.58 -1.93,1.26 -2.74,2.06 -0.77,0.81 -1.39,1.66 -1.89,2.55 -1.52,3.01 -2.78,6.15 -3.76,9.38 -1.03,3.23 -1.71,6.55 -2.07,10 -0.18,1.3 -0.09,2.69 0.18,4.17 0.27,1.48 0.76,2.87 1.48,4.13 0.76,1.3 1.75,2.38 3.05,3.28 1.25,0.89 2.87,1.43 4.75,1.62 3.12,0.3 8.23,0.32 12.34,0.22 l 2.34,-9.41 c -0.56,0.01 -1.66,0.04 -2.67,0.04 -1.39,0.04 -3.3,0 -4.69,-0.18 z"
           id="path30"
           style="fill:#e60012;stroke-width:0px" /></g><g
         id="g31"
         transform="matrix(0.51461779,0,0,0.51461779,257.96716,422.53958)"><polygon
           class="cls-1"
           points="759.18,208.84 755.53,223.45 768.75,223.46 774.78,198.61 754.91,205.75 "
           id="polygon30"
           style="fill:#e60012;stroke-width:0px" /><path
           class="cls-1"
           d="m 747.17,213.95 c -0.62,-0.09 -2.27,-0.61 -2.27,-2.72 0.05,-2.87 0.43,-5.53 1.19,-8.31 0.75,-2.75 1.86,-5.36 3.22,-7.84 0.6,-0.98 1.67,-1.62 2.89,-1.62 0,0 0.01,0 0.02,0 h 23.8 l 2.22,-9.29 h -30.49 c -1.26,0 -2.47,0.18 -3.63,0.54 -1.17,0.32 -2.24,0.81 -3.27,1.39 -1.03,0.58 -1.93,1.26 -2.74,2.06 -0.77,0.81 -1.39,1.66 -1.89,2.55 -1.52,3.01 -2.78,6.15 -3.76,9.38 -1.03,3.23 -1.71,6.55 -2.07,10 -0.18,1.3 -0.09,2.69 0.18,4.17 0.27,1.48 0.76,2.87 1.48,4.13 0.76,1.3 1.75,2.38 3.05,3.28 1.25,0.89 2.87,1.43 4.75,1.62 3.12,0.3 8.23,0.32 12.34,0.22 l 2.34,-9.41 c -0.56,0.01 -1.66,0.04 -2.67,0.04 -1.39,0.04 -3.3,0 -4.69,-0.18 z"
           id="path31"
           style="fill:#e60012;stroke-width:0px" /></g></g></g></svg>
