<?xml version="1.0" encoding="UTF-8" standalone="no"?>
<!-- Created with Inkscape (http://www.inkscape.org/) -->

<svg
   width="2100"
   height="900"
   viewBox="0 0 555.62498 238.125"
   version="1.1"
   id="svg1"
   inkscape:version="1.3.2 (091e20ef0f, 2023-11-25)"
   sodipodi:docname="lug-ustc.svg"
   xml:space="preserve"
   inkscape:export-filename="microsoft.png"
   inkscape:export-xdpi="96"
   inkscape:export-ydpi="96"
   xmlns:inkscape="http://www.inkscape.org/namespaces/inkscape"
   xmlns:sodipodi="http://sodipodi.sourceforge.net/DTD/sodipodi-0.dtd"
   xmlns="http://www.w3.org/2000/svg"
   xmlns:svg="http://www.w3.org/2000/svg"><sodipodi:namedview
     id="namedview1"
     pagecolor="#ffffff"
     bordercolor="#000000"
     borderopacity="0.25"
     inkscape:showpageshadow="2"
     inkscape:pageopacity="0.0"
     inkscape:pagecheckerboard="0"
     inkscape:deskcolor="#d1d1d1"
     inkscape:document-units="mm"
     inkscape:zoom="0.27866544"
     inkscape:cx="41.268125"
     inkscape:cy="868.42489"
     inkscape:window-width="1920"
     inkscape:window-height="1100"
     inkscape:window-x="0"
     inkscape:window-y="0"
     inkscape:window-maximized="1"
     inkscape:current-layer="layer1" /><defs
     id="defs1"><clipPath
       clipPathUnits="userSpaceOnUse"
       id="clipPath1"><rect
         style="opacity:0.129301;fill:#000000;fill-opacity:1;stroke-width:12.7;stroke-linecap:round;stroke-linejoin:round"
         id="rect2"
         width="60.854168"
         height="60.854168"
         x="195.08763"
         y="116.66334" /></clipPath></defs><g
     inkscape:label="图层 1"
     inkscape:groupmode="layer"
     id="layer1"><g
       id="g1"
       transform="matrix(0.98971708,0,0,0.98971708,15.893847,-42.704196)"><path
         style="opacity:0.1;fill:#b9bfc4;fill-opacity:1;fill-rule:evenodd;stroke:none;stroke-width:0.264583px;stroke-linecap:butt;stroke-linejoin:miter;stroke-opacity:1"
         d="m 212.75472,156.69652 -2.64583,5.29167 v 10.58333 l 7.9375,52.91667 7.9375,-2.64583 7.9375,-1.32292 h 6.61458 l -18.52083,-62.17709 -3.96875,-2.64583 h -5.29167"
         id="path1615"
         inkscape:connector-curvature="0" /><path
         style="fill:#102638;fill-opacity:1;stroke-width:0.219766"
         d="m 217.22599,227.43483 c 0,-0.0934 -1.92803,-15.00189 -4.28451,-33.12975 -2.35647,-18.12788 -4.28492,-33.23568 -4.28544,-33.57288 -10e-4,-0.98246 0.77824,-2.24187 2.09384,-3.3819 0.92975,-0.80566 1.89187,-1.32879 4.01429,-2.18274 3.41827,-1.37533 37.87593,-13.7105 38.3054,-13.7126 0.42867,-0.002 1.06842,-1.01555 2.49613,-3.95429 1.4007,-2.8831 1.69259,-4.49057 1.23643,-6.80918 -0.89347,-4.54144 -3.89503,-7.55413 -10.67689,-10.71652 -3.23885,-1.51029 -5.74445,-2.34031 -9.23018,-3.05763 -1.9949,-0.41052 -8.55309,-0.59611 -9.18354,-0.25987 -0.49575,0.26439 -1.25535,0.0358 -1.25535,-0.37767 0,-0.80827 4.90325,-3.52722 8.02146,-4.44804 4.31855,-1.27527 5.43078,-1.33317 10.76854,-0.56063 3.6975,0.53515 7.7337,0.0927 8.96564,-0.98308 0.21713,-0.18949 1.07157,-1.29264 1.89877,-2.45124 1.72424,-2.41503 3.69194,-4.34193 6.07832,-5.95225 2.08997,-1.4103 2.78108,-1.69684 5.32984,-2.209792 2.75049,-0.55356 4.4559,-0.5211 7.72799,0.14692 6.66986,1.361932 11.55782,5.224832 14.72458,11.636582 1.43311,2.90165 2.09478,5.12514 2.41972,8.13136 0.46818,4.33131 1.34458,6.45186 3.72951,9.02403 1.86288,2.0091 2.85958,3.48681 3.70086,5.48687 1.45367,3.45595 6.49336,16.71961 6.47011,17.02826 -0.0512,0.67983 -15.28402,49.56476 -15.52492,49.82233 -0.13772,0.14718 -11.31123,5.16926 -24.83,11.15995 l -24.57956,10.89216 -1.31634,-0.25904 c -2.98273,-0.58683 -10.17324,0.12355 -14.80772,1.46285 -2.47769,0.71605 -6.55207,2.44317 -7.04284,2.98547 -0.37372,0.41293 -0.96414,0.56123 -0.96414,0.24217 z m 2.88574,-2.75869 1.43336,-0.62115 -0.28451,-1.90617 c -0.15649,-1.0484 -1.18486,-7.83987 -2.28528,-15.09215 -3.09749,-20.41394 -3.79118,-25.28006 -4.7071,-33.01988 -0.0608,-0.51368 -0.0318,-0.93399 0.0645,-0.93399 0.33237,0 1.97182,9.94904 5.54077,33.62421 1.10237,7.31272 2.12402,14.08701 2.27035,15.054 0.14631,0.96696 0.36058,1.75792 0.47614,1.75765 0.6541,-0.001 4.7153,-1.32441 4.7153,-1.53601 0,-0.13887 -1.13916,-5.73431 -2.53147,-12.43416 -5.60866,-26.98914 -8.61151,-42.31795 -8.34257,-42.58689 0.0523,-0.0524 0.1433,0.0426 0.20217,0.21103 0.51662,1.47802 4.10178,17.97951 6.79886,31.29318 1.59385,7.86775 4.80624,23.49697 4.84005,23.5482 0.0119,0.0182 0.76363,-0.10015 1.67016,-0.26312 0.90654,-0.16301 2.06855,-0.3016 2.58226,-0.30796 0.5137,-0.006 0.934,-0.1051 0.934,-0.21959 0,-0.20609 -7.28019,-27.93053 -9.55388,-36.38313 -1.13982,-4.23736 -2.34015,-9.18532 -2.66003,-10.96514 -0.10912,-0.60707 -0.0824,-0.81178 0.0917,-0.7041 0.27956,0.17287 1.39227,3.60288 2.43092,7.49368 1.21681,4.55819 5.12257,19.36533 7.95565,30.16067 l 2.72452,10.38172 2.36249,0.002 c 1.86786,0.002 2.36249,-0.0615 2.36249,-0.30226 0,-0.73281 -18.31616,-59.67209 -18.80096,-60.49936 -0.69364,-1.1836 -1.43132,-1.7513 -2.80624,-2.15959 -1.60485,-0.47659 -2.50728,-0.40913 -4.00501,0.29943 -1.52079,0.71946 -2.405,1.65232 -2.73788,2.88856 -0.22354,0.83016 -0.22333,5.48466 2.2e-4,5.49279 0.0604,0.002 0.12493,0.57184 0.14333,1.26587 0.0274,1.03269 6.81416,54.06737 7.22926,56.49223 0.0686,0.40059 0.19857,0.69727 0.28885,0.65931 0.0903,-0.0379 0.80918,-0.34858 1.59753,-0.6902 z m 44.55097,-13.41491 c 9.95386,-4.41186 18.13473,-8.05835 18.17972,-8.10333 0.28314,-0.28314 1.64135,-8.15515 2.30386,-13.35287 0.59468,-4.6655 0.82903,-14.82913 0.44121,-19.13481 -1.14933,-12.76016 -4.81733,-22.69542 -11.55621,-31.30153 -1.74372,-2.22687 -2.42154,-2.8462 -3.48869,-3.18758 -1.41968,-0.45416 -2.80944,-0.12614 -9.1436,2.15762 -6.56065,2.36548 -7.67708,2.83566 -7.92461,3.33751 -0.0894,0.18143 -0.77157,1.74169 -1.51586,3.46754 -8.36644,19.4001 -12.78701,34.84928 -14.08456,49.22328 -0.35528,3.93578 -0.16914,12.9931 0.33308,16.20588 0.31269,2.00037 1.53869,6.49258 2.79285,10.2333 l 0.26265,0.78337 2.65111,-1.15344 c 1.45811,-0.63438 10.79519,-4.76312 20.74905,-9.17494 z m 6.19342,-94.53217 c 0.6945,-0.35914 1.31141,-1.33952 1.31141,-2.08406 0,-1.16481 -1.25264,-2.41742 -2.41743,-2.41742 -1.16479,0 -2.41743,1.25261 -2.41743,2.41742 0,0.72237 0.60649,1.71531 1.26642,2.07342 0.77778,0.422 1.45535,0.42519 2.25703,0.01 z m 24.16986,104.23989 c -0.99246,-1.36642 -1.87549,-2.46575 -1.9623,-2.44288 -0.0868,0.0233 -1.66868,1.04323 -3.51525,2.26747 -3.61858,2.39907 -4.1211,2.67746 -3.93386,2.1794 0.0647,-0.1721 4.54454,-14.65262 9.95523,-32.17896 5.41069,-17.52637 10.23258,-33.1431 10.71531,-34.70384 0.5626,-1.81902 0.93894,-2.72628 1.04832,-2.5273 0.0939,0.1708 1.27259,3.16723 2.61943,6.65892 1.34683,3.49169 2.54262,6.52383 2.65729,6.73813 0.14038,0.26233 0.10709,0.67704 -0.10191,1.26926 -0.17069,0.4838 -1.81075,6.30274 -3.64459,12.93095 -7.72655,27.92689 -11.68028,41.94033 -11.893,42.15305 -0.0771,0.0772 -0.95229,-0.97774 -1.94474,-2.3442 z m 15.08445,-39.10969 c 1.85254,-6.66673 3.40554,-12.1586 3.45111,-12.20419 0.0456,-0.0457 0.31008,0.53848 0.58781,1.29784 1.41732,3.87535 5.7673,15.03118 6.16528,15.81128 0.25126,0.4925 0.37465,0.96877 0.2742,1.05835 -0.17131,0.15289 -13.59762,6.15803 -13.76788,6.15803 -0.0434,0 1.43693,-5.45457 3.28948,-12.12131 z"
         id="path2188"
         inkscape:connector-curvature="0" /><flowRoot
         xml:space="preserve"
         id="flowRoot2172"
         style="font-style:normal;font-weight:normal;font-size:40px;line-height:25px;font-family:sans-serif;letter-spacing:0px;word-spacing:0px;fill:#000000;fill-opacity:1;stroke:none;stroke-width:1px;stroke-linecap:butt;stroke-linejoin:miter;stroke-opacity:1"
         transform="translate(196.90659,-65.819242)"><flowRegion
           id="flowRegion2174"><rect
             id="rect2176"
             width="40"
             height="60"
             x="320"
             y="292" /></flowRegion><flowPara
           id="flowPara2178" /></flowRoot><flowRoot
         xml:space="preserve"
         id="flowRoot2180"
         style="font-style:normal;font-weight:normal;font-size:40px;line-height:25px;font-family:sans-serif;letter-spacing:0px;word-spacing:0px;fill:#000000;fill-opacity:1;stroke:none;stroke-width:1px;stroke-linecap:butt;stroke-linejoin:miter;stroke-opacity:1"
         transform="translate(196.90659,-65.819242)"><flowRegion
           id="flowRegion2182"><rect
             id="rect2184"
             width="360"
             height="360"
             x="100"
             y="192" /></flowRegion><flowPara
           id="flowPara2186" /></flowRoot></g></g></svg>
