<?xml version="1.0" encoding="UTF-8" standalone="no"?>
<!-- Created with Inkscape (http://www.inkscape.org/) -->

<svg
   width="2100"
   height="900"
   viewBox="0 0 555.62498 238.125"
   version="1.1"
   id="svg1"
   inkscape:version="1.3.2 (091e20ef0f, 2023-11-25)"
   sodipodi:docname="microsoft.svg"
   xml:space="preserve"
   inkscape:export-filename="microsoft.png"
   inkscape:export-xdpi="96"
   inkscape:export-ydpi="96"
   xmlns:inkscape="http://www.inkscape.org/namespaces/inkscape"
   xmlns:sodipodi="http://sodipodi.sourceforge.net/DTD/sodipodi-0.dtd"
   xmlns="http://www.w3.org/2000/svg"
   xmlns:svg="http://www.w3.org/2000/svg"><sodipodi:namedview
     id="namedview1"
     pagecolor="#ffffff"
     bordercolor="#000000"
     borderopacity="0.25"
     inkscape:showpageshadow="2"
     inkscape:pageopacity="0.0"
     inkscape:pagecheckerboard="0"
     inkscape:deskcolor="#d1d1d1"
     inkscape:document-units="mm"
     inkscape:zoom="0.28217382"
     inkscape:cx="590.06182"
     inkscape:cy="492.60417"
     inkscape:window-width="1920"
     inkscape:window-height="1100"
     inkscape:window-x="0"
     inkscape:window-y="0"
     inkscape:window-maximized="1"
     inkscape:current-layer="layer1" /><defs
     id="defs1" /><g
     inkscape:label="图层 1"
     inkscape:groupmode="layer"
     id="layer1"><g
       id="g1"
       transform="translate(-144.4625,-127.42761)"><path
         fill="#737373"
         d="m 386.66283,219.40481 v 54.17062 h -9.40465 v -42.50891 h -0.12512 l -16.80294,42.50891 h -6.26976 l -17.1791,-42.50891 h -0.1256 v 42.50891 h -8.65223 v -54.17062 h 13.54266 l 15.54896,40.1264 h 0.25071 l 16.42673,-40.1264 z m 7.7745,4.13801 c 0,-1.50474 0.50156,-2.75867 1.63009,-3.76185 1.12858,-1.00313 2.38252,-1.50474 3.88726,-1.50474 1.63014,0 3.00947,0.50161 4.01265,1.50474 1.00318,1.00318 1.63014,2.25711 1.63014,3.76185 0,1.50474 -0.50161,2.75872 -1.63014,3.76185 -1.12858,1.00317 -2.38251,1.50474 -4.01265,1.50474 -1.63015,0 -2.88408,-0.50157 -3.88726,-1.50474 -1.00312,-1.12853 -1.63009,-2.38247 -1.63009,-3.76185 z m 10.15697,11.16019 v 38.87242 h -9.15384 v -38.87242 z m 27.71228,32.2265 c 1.37933,0 2.88407,-0.25071 4.51421,-1.00318 1.63015,-0.62696 3.13489,-1.50474 4.51422,-2.50791 v 8.52687 c -1.50474,0.87777 -3.13488,1.50474 -5.01578,1.88095 -1.88095,0.3763 -3.88725,0.62697 -6.14436,0.62697 -5.76815,0 -10.40777,-1.75555 -13.91882,-5.392 -3.63649,-3.63644 -5.39199,-8.27606 -5.39199,-13.79346 0,-6.26971 1.8809,-11.41095 5.51735,-15.42355 3.63649,-4.01266 8.77768,-6.01896 15.549,-6.01896 1.7555,0 3.51105,0.25071 5.14119,0.62697 1.75554,0.3763 3.13488,1.00317 4.13801,1.50474 v 8.77763 c -1.37934,-1.00313 -2.88408,-1.8809 -4.26341,-2.38252 -1.50474,-0.50156 -3.00948,-0.87772 -4.51422,-0.87772 -3.63645,0 -6.52052,1.12853 -8.77763,3.51104 -2.25711,2.38251 -3.26029,5.5174 -3.26029,9.53 0,3.88726 1.12858,7.02214 3.26029,9.15384 2.1317,2.13171 5.01578,3.26029 8.65223,3.26029 z M 467.29179,234.076 c 0.75237,0 1.37934,0 2.00631,0.12559 0.62696,0.12559 1.12857,0.25071 1.50474,0.3763 v 9.2792 c -0.50157,-0.37631 -1.12853,-0.75237 -2.13171,-1.00313 -1.00318,-0.25071 -2.0063,-0.50161 -3.38569,-0.50161 -2.25711,0 -4.13801,1.00317 -5.64275,2.88412 -1.50474,1.8809 -2.38251,4.76498 -2.38251,8.77763 v 19.56162 h -9.15384 V 234.7033 h 9.15384 v 6.14431 h 0.12559 c 0.87778,-2.13171 2.13171,-3.76185 3.76185,-5.01578 1.75555,-1.12853 3.76185,-1.75555 6.14436,-1.75555 z m 4.01261,20.69019 c 0,-6.39517 1.88095,-11.53635 5.39199,-15.2982 3.63645,-3.76185 8.65228,-5.64275 15.0474,-5.64275 6.01895,0 10.78398,1.7555 14.16962,5.39199 3.38569,3.63645 5.14123,8.52683 5.14123,14.67119 0,6.26976 -1.88095,11.28554 -5.39199,15.04739 -3.63645,3.76185 -8.52687,5.6428 -14.79664,5.6428 -6.01895,0 -10.78393,-1.75555 -14.29502,-5.26659 -3.51104,-3.63649 -5.26659,-8.52687 -5.26659,-14.54583 z m 9.53005,-0.3763 c 0,4.01265 0.87777,7.14753 2.75867,9.27924 1.88095,2.13171 4.51422,3.26028 7.89991,3.26028 3.26024,0 5.89355,-1.00317 7.64905,-3.26028 1.75555,-2.13171 2.63332,-5.26659 2.63332,-9.53 0,-4.13806 -0.87777,-7.27294 -2.63332,-9.53005 -1.7555,-2.13171 -4.38881,-3.26024 -7.5237,-3.26024 -3.38564,0 -5.89355,1.12853 -7.77445,3.38564 -2.13171,2.38251 -3.00948,5.5174 -3.00948,9.65541 z m 43.8882,-9.4046 c 0,1.25393 0.37631,2.38251 1.25398,3.13488 0.87778,0.75237 2.63327,1.63014 5.51735,2.75867 3.63649,1.50474 6.26976,3.13488 7.6491,4.89043 1.50474,1.8809 2.25711,4.01261 2.25711,6.64592 0,3.63645 -1.37934,6.52053 -4.26341,8.77764 -2.75868,2.25711 -6.64593,3.26028 -11.41095,3.26028 -1.63014,0 -3.38564,-0.25071 -5.39199,-0.62697 -2.00631,-0.3763 -3.63645,-0.87777 -5.01579,-1.50474 v -9.02843 c 1.63015,1.12853 3.51105,2.1317 5.392,2.75867 1.8809,0.62697 3.63644,1.00318 5.26658,1.00318 2.00631,0 3.63645,-0.25071 4.51422,-0.87778 1.00313,-0.62696 1.50474,-1.50474 1.50474,-2.88407 0,-1.25398 -0.50161,-2.25711 -1.50474,-3.26029 -1.00317,-0.87777 -3.00948,-1.88095 -5.7682,-3.00948 -3.38564,-1.37933 -5.76815,-3.00948 -7.14749,-4.76502 -1.37933,-1.7555 -2.1317,-4.01261 -2.1317,-6.77133 0,-3.51104 1.37933,-6.39512 4.13801,-8.65223 2.75872,-2.25711 6.39516,-3.38568 10.78398,-3.38568 1.37934,0 2.88408,0.12559 4.51422,0.50161 1.63014,0.3763 3.13488,0.75237 4.26341,1.12853 v 8.90303 c -1.25393,-0.75237 -2.63327,-1.50474 -4.26341,-2.1317 -1.63014,-0.62697 -3.26029,-0.87778 -4.76503,-0.87778 -1.75549,0 -3.13488,0.37631 -4.0126,1.00318 -0.87778,0.87777 -1.37939,1.75554 -1.37939,3.00948 z m 20.56479,9.7808 c 0,-6.39516 1.88095,-11.53635 5.39199,-15.2982 3.63645,-3.76185 8.65223,-5.64275 15.0474,-5.64275 6.01896,0 10.78398,1.7555 14.16962,5.392 3.38569,3.63644 5.14119,8.52682 5.14119,14.67118 0,6.26977 -1.8809,11.28555 -5.39199,15.0474 -3.63645,3.76185 -8.52683,5.64279 -14.79659,5.64279 -6.01896,0 -10.78399,-1.75554 -14.29503,-5.26658 -3.38564,-3.6365 -5.26659,-8.52688 -5.26659,-14.54584 z m 9.53,-0.3763 c 0,4.01266 0.87778,7.14754 2.75872,9.27924 1.8809,2.13171 4.51422,3.26029 7.89986,3.26029 3.26029,0 5.89356,-1.00318 7.6491,-3.26029 1.75555,-2.1317 2.63332,-5.26658 2.63332,-9.53 0,-4.13805 -0.87777,-7.27294 -2.63332,-9.53005 -1.75554,-2.1317 -4.38881,-3.26023 -7.52369,-3.26023 -3.38564,0 -5.89356,1.12853 -7.77451,3.38564 -2.0063,2.38251 -3.00948,5.51739 -3.00948,9.6554 z m 60.6912,-12.16327 h -13.66806 v 31.34872 h -9.27925 v -31.34872 h -6.52052 v -7.5237 h 6.52052 v -5.39199 c 0,-4.01265 1.37934,-7.39829 4.01266,-10.03161 2.63327,-2.63327 6.01896,-3.88725 10.15697,-3.88725 1.12857,0 2.13175,0.12559 3.00948,0.12559 0.87777,0 1.63014,0.25071 2.2571,0.50156 v 7.89991 c -0.25071,-0.12559 -0.87772,-0.3763 -1.63009,-0.62697 -0.75237,-0.25071 -1.63014,-0.3763 -2.63332,-0.3763 -1.8809,0 -3.38564,0.62697 -4.38881,1.75554 -1.00318,1.12853 -1.50474,3.00948 -1.50474,5.26659 v 4.63962 h 13.66806 v -8.77768 l 9.15384,-2.75867 v 11.53635 h 9.27919 v 7.5237 h -9.27919 v 18.18228 c 0,2.38246 0.50156,4.01261 1.25393,5.01578 0.87777,1.00318 2.25711,1.50474 4.13801,1.50474 0.50161,0 1.12858,-0.12559 1.88095,-0.3763 0.75237,-0.25071 1.37933,-0.50157 1.8809,-0.87773 v 7.5237 c -0.62697,0.3763 -1.50474,0.62697 -2.88408,0.87772 -1.37933,0.25072 -2.63327,0.37631 -4.01261,0.37631 -3.88725,0 -6.77132,-1.00318 -8.65227,-3.00948 -1.8809,-2.0063 -2.88408,-5.14119 -2.88408,-9.27924 z"
         id="path1"
         style="stroke-width:1.25395" /><rect
         fill="#f25022"
         width="42.885075"
         height="42.885075"
         id="rect1"
         x="210.60834"
         y="201.34792"
         style="stroke-width:1.25395" /><rect
         x="258.00757"
         fill="#7fba00"
         width="42.885075"
         height="42.885075"
         id="rect2"
         y="201.34792"
         style="stroke-width:1.25395" /><rect
         y="248.74722"
         fill="#00a4ef"
         width="42.885075"
         height="42.885075"
         id="rect3"
         x="210.60834"
         style="stroke-width:1.25395" /><rect
         x="258.00757"
         y="248.74722"
         fill="#ffb900"
         width="42.885075"
         height="42.885075"
         id="rect4"
         style="stroke-width:1.25395" /></g></g></svg>
