<?xml version="1.0" encoding="UTF-8"?>
<svg id="_图层_1" data-name="图层 1" xmlns="http://www.w3.org/2000/svg" viewBox="0 0 2100 900">
  <defs>
    <style>
      .cls-1 {
        font-family: Georgia-Bold, Georgia;
        font-size: 86.34px;
        font-weight: 700;
        letter-spacing: .06em;
      }

      .cls-1, .cls-2, .cls-3 {
        fill: #6a005f;
      }

      .cls-2 {
        fill-rule: evenodd;
      }

      .cls-2, .cls-3 {
        stroke-width: 0px;
      }
    </style>
  </defs>
  <text class="cls-1" transform="translate(677.19 682.12)"><tspan x="0" y="0">NANJING UNIVERSITY</tspan></text>
  <g>
    <path class="cls-2" d="M250.13,222.92c18.94,11.04,43.86,18.82,73.72,19.09,30.6.35,56.56-5.63,75.29-17.49,18.88,11.81,45.13,17.96,75.43,17.49,29.3-.39,55.1-8.05,73.75-18.94.36,43.98-.68,85.91-.68,129.68s2.34,88.6-8.79,121.84c-5.42,16.31-13.58,29.98-22.79,42.79-9.06,12.7-20.3,23.83-32.37,33-12.55,9.56-27.05,16.33-41.79,23.76-12.64,6.36-25.34,12.93-37.65,19.62-1.72.94-3.73,1.57-4.97,3.22-6.63-4.47-13.85-8.05-21.01-11.81-7.22-3.7-14.5-7.49-21.72-11.19-7.46-3.81-14.92-7.07-21.99-10.83-7.07-3.73-13.5-8.08-19.8-12.96-24.77-18.91-43.89-43.42-55.22-76.03-5.8-16.83-7.46-36.1-8.46-56.97-.95-20.57-.44-42.47-.44-63.81,0-43.47-.62-86.21-.62-130-.03-.24-.03-.47.11-.47ZM391.65,238.55c-26.04,11.48-67.06,14.83-100.32,8.11-10.42-2.1-19.89-4.92-28.11-8.73-1.09-.53-2.31-1.42-3.67-1.31-.38,40.45.65,82.42.65,121.39,0,20.27-.98,40.99-.18,60.28.89,19.21,3.05,37.44,8.32,53.12,5.18,15.39,12.11,28.62,20.75,40.67,12.9,18.05,28.53,33.03,48.3,43.74,6.66,3.55,13.67,6.72,20.77,10,13.85,6.48,27.7,13.26,41.47,19.98,13.72-6.83,27.67-13.32,41.34-19.98,7.04-3.4,14.11-6.3,20.72-9.88,13.14-6.99,24.33-16.37,34.27-26.9,14.86-15.66,26.99-35.13,34.33-57.77,10.3-31.82,8.16-72.09,8.16-112.82s.12-81.41.42-121.84c-1.24,0-2.46.77-3.64,1.31-8.55,3.76-17.78,6.89-28.06,8.91-24.18,4.71-53.83,4-76.59-.98-11.72-2.54-22.11-6.48-31.28-11.16-1.89,1.51-4.7,2.55-7.64,3.85Z"/>
    <path class="cls-2" d="M402.51,251.3c12.81,1.39,22.44,8.08,28.23,17.58.77,1.25,2.04,3.25,1.93,4.23-.18,1.04-.95,1.87-1.93,1.8-1.27-.06-1.63-1.8-2.58-3.37-4.88-8.55-12.78-14.44-24.09-16.42.53,2.6,1.72,5.12,2.73,7.81.95,2.66,1.95,5.42,2.87,8.02.44.47-.06,1.09,0,1.75,2.04-.15,4.32-.06,3.99,2.22-.44,2.93-9.2.71-12.46,1.45-.36,2.25-.06,5.24-.15,7.76,1.78,1.07,10.24-.89,11.96.35.5.33.71,1.36.65,1.9-.47,3.19-9.05.59-12.46,1.42-.5,2.66.73,6.39-1.93,6.57-2.55.15-1.83-3.37-1.89-6.42-3.2-1.16-11.96,1.68-12.61-1.4-.89-4.38,9.39-1.21,12.43-2.43.3-2.16.3-5.44,0-7.63-2.84-1.07-11.84,1.48-12.43-1.42-.47-2.25,1.78-2.6,3.85-2.37.45-.42-.24-.95,0-1.6,2.07-5.15,3.76-10.68,5.92-15.8-13.67,1.87-22.31,10.15-26.64,21.81,1.48-.06,3.73-.92,6.69-1.42,3.14-.53,9.51-1.98,7.64,2.4-2.57.83-5.51.74-8.17,1.3-2.6.51-4.97,1.42-7.16,2.22-.41.8-.53,1.92-.65,3.05,2.31-.35,4.73-1.36,7.81-1.92,2.22-.39,8.82-1.98,8.17,1.6-.3,1.57-2.19,1.36-3.67,1.45-4.27.26-9.62,1.66-12.31,3.17-.12.56,0,1.83.18,2.54,2.61-.68,4.5-1.24,7.82-1.77,2.07-.27,7.04-1.66,7.52.65.68,3.31-5.15,2.36-7.96,2.87-3.05.56-4.89,1.42-6.72,2.04.68,1.57.71,3.58-.83,3.85-3.19.71-3.55-6.81-3.67-9.86-.12-4.68.53-8.82,1.48-11.98,4.21-14.44,15.45-23.67,31.9-26.13,1.19-1.74,1.19-5.24,3.5-5,2.04.2,1.83,3.61,3.04,5.15ZM401.41,258.78c-.53-1.36-1.06-4.38-2.6-4.11-2.69,5.56-4.5,12.02-6.87,18.02,1.36.06,3.94-.06,5.27,0-1.01-5.36,5.09-5.68,3.85,0h5.45c-1.54-4.11-3.49-9.44-5.09-13.91Z"/>
    <path class="cls-2" d="M324.03,265.15c.8.63-.27,1.6.14,2.22,2.31-.44,5.18,1.33,5.42,2.57.33,1.6-1.45,3.31-.98,5.42,3.91,2.49,4.85,7.93,9.29,9.94,1.92,3.64,3.19,9.15,2.37,14.17-.65,3.82-4.44,4.24-3.67,9.24.36,2.16,1.66,6.51,3.19,7.19,1.01.44,2.37-.09,3.37.62.8.98.42,3.11-.18,4.03-3.08.56-4.2,3.81-7.99,2.55-1.42-.53-3.91-2.16-4.62-3.38-.47-.77-.42-1.87-.8-2.69-.8-1.81-2.22-2.9-3.05-4.17-2.31.71-9.41-.5-8.28,3.23.53,1.66,6.15.83,4.32,5.09-.65,1.48-5.51,3.55-7.34,3.96-.65.12-1.84.21-2.25.15-.59-.06-1.12-.62-1.89-.8-1.54-.29-3.61.39-5.27,0-1.01-.18-3.79-2.16-4.8-3.01-.65-.59-1.95-2.19-2.19-2.87-.74-1.74-.26-3.19-2.14-3.99-.82-.36-1.89-.21-2.83-.47-1.71-.42-3.55-1.81-4.94-.77-1.74,1.93,1.01,2.75,1.89,4.44.86,1.6.33,2.78.5,5.09-.56.77-1.78,2.16-3.2,2.39-1.93.36-4.53-1.09-7.22-1.74-1.75-.44-4.38-.44-4.73-2.22-.24-1.12.88-1.77,1.09-2.72.33-1.27-.38-2.28.48-3.31-1.21-1.87-.68-4.77-.8-8.14-.12-3.67-.06-6.15.8-8.79.32-.94.38-2.04.68-2.57.47-1.12,3.76-3.76,5.09-4.44,3.01-1.69,8.05-3.02,13.38-2.25,1.12.12,2.13,1.06,3.19,1.28,2.02.35,4.73-.21,6.87,0,.65-.39,1.18-.8,1.6-1.42.18-3.46-1.77-4.82-2.72-7.19.44-3.5-.59-7.46.65-10.8.33-.94,1.9-3.61,2.73-4.53.8-.92,2.49-2.22,3.49-2.4,1.83-.32,4.91.71,6.69,1.3,1-.71,3.25-.71,4.65-.18ZM314.59,272.37c1.59.39,2.19-1.54,2.9-2.57-.42-.77-.18-2.22-1.31-2.25.15,2.28-.94,3.31-1.59,4.82ZM308.73,271.69c.18.24.65.21,1.13.21.41-.95.56-2.22,1.06-3.02-1.39-.44-2.31,1.69-2.19,2.81ZM318.76,272.22c-1.45,1.12-4.23,2.25-3.34,4.62.12.03.3,0,.3.12,1.83-.53,2.34-2.49,3.67-3.64,1.12-.95,3.19-1.57,3.02-3.73-1.84-.68-2.48,1.66-3.64,2.63ZM318.76,279.68c.03.06.33.32.33.41.59.38,1.01-.35,1.71-.41,1.3-.12,2.25.62,3.05.62.77-.74.09-2.1-.8-2.22-1.06,1.71-4.82-1.39-4.29,1.6ZM328.94,278.08c-.83-.09-1.15.83-1.09,1.42.12,1.09,2.07,2.31,3.2,2.25-.36-.68-1.3-3.55-2.1-3.67ZM315.06,280.48c-1.3.51-2.04,1.69-2.37,3.14,1.07.44,1.27-1.07,2.19-1.21,1.1.59,1.07,2.28,2.25,2.69.29.47,1.71-.18,1.77.47,0,.86-1.36.86-2.24,1.31-.95.47-2.7,1.86-4.15,2.75-2.54,1.45-5.86,3.34-2.07,5.03.41-.33-.03-1.13.18-1.51.3-.77,3.43-2.99,3.79-3.05.65-.12,1.39.35,1.95.27,1.66-.21,2.04-1.81,3.49-2.43.92.2,1.84.38,3.08.35,1.45.51.68,3.26,2.36,3.55.77-1.07.18-2.54,1.13-3.55-.15-1.03-1.09-1.3-.98-2.51.27-.62.98-.77,1.6-1.01,1.51,1.09,1.21,4,2.7,5.09,1.3-.8,1.63-3.7.82-5.09-.71-1.15-2.9-1.6-3.38-2.48-3.72.03-6.57.94-9.41,1.83-1.12-.95-1.6-2.6-2.72-3.64ZM333.41,290.72c1.19-.68.54-3.17-.76-3.23-.57.92-.57,3.2.76,3.23ZM318.4,292.11c.36.85,1.69.68,1.93,1.6-.47,1.77,1.01,2.66,1.31,4.17-.95,1.36-2.43.12-2.87-.8-.71.12-1.15.47-1.15,1.27,3.67.24,1.66,4.5-.62,5.24-.68.3-1.63,0-2.4.18-.89.23-1.72,1.24-2.69,1.6-1.51.53-2.9.09-3.82.83-.47,1.86-.24,4.17,1.13,4.14,1.36-.06,1.3-2.75,2.69-3.2,1.99.33,1.78-1.24,2.87-1.6.59-.24,1.27.18,2.05,0,2.21-.62,2.8-3.49,4.17-5.15,3.61.44,4.5-2.69,4.62-5.24-2.01.39-4.43.65-4.79-1.09-.18-1.27.98-1.83,1.3-3.05-.95-1.63-3.46-.35-3.7,1.1ZM288.78,292.61c-.71,0-.56-.86-1.42-.65.12,1.21-1.01,1.21-1.3,1.89.18.86,1.3.86,1.6,1.63,2.52-.06,3.2-1.9,5.39-2.25-.42-2.96-2.66-1.6-4.26-.62ZM296.59,291.49c-.59.92.06,2.45.95,2.87,1.48-.65,1.01-3.13-.95-2.87ZM304.88,298c.68-.8.35-2.84-.83-2.84-.48.65-.71,3.2.83,2.84ZM279.19,299.66c1,.56,3.37.74,4.14-.18-.56-1.09-.56-2.04-.47-3.02-1.6.62-3.14,1.45-3.67,3.2ZM305.65,300.4c1.3.24,3.9.56,4.21-.74-.65-1.66-4.44-1.57-4.21.74ZM287.65,303.44c-.71.06-.42-.86-1.13-.8-.94.03-.94,1.01-1.77,1.12-.32-.12-.53-.36-1.12-.33-.36.33-.89.5-.77,1.25.83-.36,1.07-.21,1.75.18.26-.3.18-.92.8-.92-.12,2.37-1.57,4.82-4.29,5.06-.26,1.27-1.09,1.9-1.92,2.58-.65,2.93.18,5.62,3.02,5.62.21-.53.14-1.36.18-2.13-.83-.77-1.6-1.57-1.28-3.49.45-.39,1.01-.68,1.9-.65,1.21-1.13,2.28-2.49,3.05-4.15-.53-1.77,1.3-3.01,2.07-1.56,0,.47-.5,1.3.3,1.27.65-.18,0-.65,0-1.12.8-1.04,2.55-1.09,3.05-2.4-1.21-1.89-2.51-.06-3.82.47ZM279.96,306.38c.89-.74,1.19-2.49.65-3.73-1.6,0-1.9,3.08-.65,3.73ZM300.41,306.78c.12.59,1.33.3,1.74.18,0-.21.06-.36.18-.47-.24-.38-.71-.62-1.16-.8.18.8-.83.42-.77,1.09ZM313.96,308.71c-.62.29-1.27.5-1.57,1.12-.23,1.07.41,2.99-.5,3.34-1.54-1.09-2.69-.27-3.7.83-.77-.15-1.01-.89-2.19-.65-.12.53-.59,2.49.3,2.55.89-.18-.47-1.66.65-1.66.29.77.83,1.25,1.24,1.84-.06,1.18-.48,3.58.18,4.47,1.9-.57.09-4.83,2.43-5,.77.44.56,1.9.63,3.05.68.3,1.5,1.33,2.69,1.45,1.3.15,3.63-.3,4.14-1.27-.83-.65-2.19-.68-2.84-1.45-.26-.17-.18-.83-.18-1.24-1.57-1.06-2.31-3.73-1.6-6.1.24-.77,1.83-1.87.47-2.73-.24.27-.12.95-.15,1.45ZM284.28,317.98v.44c1.42-.15,1.75,1.57,2.9,1.16-.36-1.1-1.72-1.9-2.9-1.6Z"/>
    <path class="cls-2" d="M512.57,313.36c-1.54-1.01-3.55.42-5.15.77-1.93.47-3.64.44-4.44,2.1-.36.77-.18,1.63-.47,2.37-1.31,3.11-4.32,3.91-6.69,5.89-1.6.3-3.49-.32-5.41,0-1.3.24-1.92,1.07-4,.65-2.96-.53-7.02-2.49-7.66-4.14-1.27-3.2,2.22-3.73,4.32-4.62.57-3.19-1.75-2.69-4.49-3.02-1.3-.18-2.81-.68-3.52-.5-.71.21-2.66,2.66-3.31,4.17-.36.77-.3,1.83-.65,2.55-.95,1.89-4.62,3.93-6.68,3.79-2.64-.09-3.08-2.43-6.07-2.81-.68-1.33-.92-3.23,0-4.03.74-.62,2.76-.3,3.67-.98,1.09-.77,3.58-7.13,2.72-10.18-.56-1.95-3.11-3.67-3.52-5.24-.12-.59-.18-1.92-.18-2.75,0-3.85.12-9.09,2.43-11.93.95-1.21,2.66-1.83,3.85-3.04,2.13-2.31,2.42-6.04,5.56-6.84-.09-2.22-.71-3.79-1.12-5.62,1.18-1.45,2.43-2.9,5.42-2.57.5-.71-.63-1.54.15-2.22,1.28-.47,3.61-.59,4.44.18,1.69-.71,3.61-1.01,5.48-1.3,3.28-.5,5.15,2.81,6.36,5,.88,1.54,1.66,2.46,1.93,4.91.11,1.12.03,2.57,0,4.03,0,1.27.15,2.78,0,3.64-.56,3.16-5.12,6.69-1.1,8.76,2.1-.27,4.56.41,6.8,0,1.18-.21,2.31-1.16,3.05-1.28,2.4-.42,5.3-.24,7.19,0,4.67.62,8.34,3.67,11.3,6.39.06,1.86,1.45,3.46,1.78,5.54.47,3.31.35,8.55-.15,11.84-.27,1.66-.86,3.23-.32,5.56.24,1.07,1.18,1.69,1.09,2.57-.15,2.1-2.81,2.1-5.06,2.72-4.02,1.1-8.29,3.08-10.06-.95.09-2.37-.26-3.55.65-5.15.83-1.54,3.25-2.07,1.9-4.26ZM486.89,272.37c.06-1.04-1.13-1.24-1.42-2.25-.3-.86.38-2.01-.53-2.76-1.95,1.54-.26,5.39,1.96,5ZM491.5,271.9c.59.06,1-.09,1.24-.36-.21-1.39-.77-2.49-2.04-2.84-.26.89.74,2.01.8,3.2ZM478.89,269.59c.12,2.69,2.39,2.84,3.84,4.35,1.13,1.21,1.42,2.81,2.84,3.02,1.63-1.95-1.48-4.2-3.17-4.91-.74-1.09-1.63-2.96-3.52-2.45ZM473.63,279.21c0-.39-.59-1.21-1.24-1.12-.72.12-1.96,3.28-1.96,3.67,1.19.09,3.26-1.51,3.2-2.55ZM480.31,278.73c-.74.09-1.6-.77-2.19-.65-.71.17-1.54,1.98-.36,2.22.71-.44,3.32-1.04,4.32,0,.97-.62.5-1.72-.36-2.22-.71-.03-.62.53-1.42.65ZM486.58,280.48c-1.59.71-1.66,2.9-3.19,3.64-2.66-1.06-5.62-1.78-9.29-1.83-.47,1.07-3.08,1.54-3.49,3.02-.47,1.51,0,3.55.77,4.56,1.9-.83,2.07-7.52,4.68-3.82-.23.95-.95,1.45-1.16,2.43,1.07.71.48,2.25.98,3.37,1.95,0,1.09-2.75,2.4-3.37,1.03-.23,2.33-.23,3.34-.53,1.54,1.09,2.72,3.13,5.39,2.16,1.42,1.45,4.08,2.01,3.88,4.56,1.22,0,1.98-1.3,1.86-2.04-.12-1.51-3.35-2.75-4.92-3.67-.92-.56-1.66-1.33-2.54-1.78-1.07-.5-2.55-.44-2.72-1.6.12-.53,1.07-.23,1.6-.26,1.18-.56,1.18-2.37,2.42-2.9.83.14,1.21,1.57,2.05,1.21.03-1.09-.98-2.55-2.05-3.14ZM467.29,289.86c1.12,1.98,2.36-.89,1.57-2.37-1.28.06-1.39,1.3-1.57,2.37ZM479.25,291.01c.44,1.1,1.3,1.78,1.39,3.17-.68,1.78-3.29,1.04-4.94,1.09.38,2.25.83,5.72,4.62,5,1.24,1.93,2.19,4.06,4.2,5.27,2.78-1.06,2.55,1.71,4.92,1.6,1.42.42,1.36,3.11,2.69,3.2,1.57.12,1.66-2.75,1.15-4.32-1.36-.56-2.58-.09-4.03-.65-.68-.26-1.18-1.18-1.89-1.42-1.07-.35-2.22.06-3.19-.35-1.36-.53-2.43-2.6-2.43-4.29.33-.77,1.78-.36,1.96-1.3-.06-.59-.47-.8-.95-.92-.59.92-2.16,2.22-3.05.62.62-1.33,1.69-2.13,1.45-4.35.41-.56,1.6-.39,1.74-1.24-.09-1.6-2.75-2.61-3.64-1.1ZM508.25,293.15c2.07.44,2.96,2.22,5.44,2.34.23-.83,1.54-.74,1.72-1.63-.47-.62-1.51-.68-1.42-1.89-.95-.21-.71.77-1.6.65-1.54-1.18-3.49-2.07-4.14.53ZM503.93,294.36c.71-.53,1.42-1.68.95-2.87-2.04-.3-2.67,2.37-.95,2.87ZM496.94,295.16c-.71.42-1.22,2.1-.47,2.84,1.57.38,1.71-2.64.47-2.84ZM517.96,299.66c1.04.68,2.9.41,4.17.15-.42-1.92-2.04-2.69-3.67-3.35.15,1.01,0,2.04-.5,3.2ZM491.67,299.92c.53.86,2.84.77,3.97.47.42-2.39-3.85-2.49-3.97-.47ZM509.85,303.12c.77.98,2.22,1.33,3.02,2.25-.06.36-.29.83,0,1.12,1.01-.09.41-.77.32-1.45,2.39-1.74,2.1,2.43,3.17,3.97.71,1.04,1.6,1.15,1.95,1.93.59.12,1.24.18,1.77.32,1.36,2.43-2.25,3.52-.83,5.95,3.55.47,4.08-5.89,1.48-6.86,0-.53-.24-.77-.36-1.13-2.66-.35-4.56-3.1-4.32-5.27.59,1.18,1.51.27,2.54.74-.06-.68-.53-.98-1.09-1.25-.45.03-.68.33-1.15.33-.42-.36-.71-.92-1.42-1.12-.71,0-.53.95-1.39.8-1.04-.86-2.75-2.25-3.69-.32ZM521.63,306.2c.92-.89.59-3.49-.77-3.55-.71,1.07-.51,3.2.77,3.55ZM499.16,306.78c.38.36,1.04.36,1.75.36,0-.26.05-.36.17-.53-.59-.39-1.89-1.39-1.92.17ZM487.83,310.16c-.29,1.57,0,2.78-.18,4.44-.83.77-1.72,1.36-1.54,2.72-.83.8-2.55.68-3.05,1.78,2.05,1.12,5.54,1.21,6.87-.51.21-1.09-.26-2.9.95-3.05,2.01.42.26,4.53,2.25,5,.57-.98.39-3.52,0-4.47.74-.47.74-1.6,1.75-1.84.11.53-.36,1.66.29,1.66.65-.39.56-2.01.18-2.55-1.33-.3-1.33.65-2.4.65-.59-1.57-2.25-1.66-3.7-.83-.53-.98-.17-1.98-.29-3.46-1.18-.45-1.54-1.63-1.95-2.46-.59,1.33.41,2.19.82,2.9ZM514.29,319.72c1.12-.33,1.95-.95,2.75-1.6-.91-.63-2.75.26-2.75,1.6Z"/>
    <path class="cls-2" d="M430.57,277.46c.98-.14,1.27-1.27,2.57-1.09,2.02.15,2.49,5.6,2.73,8.29.36,4.73-.06,17.46-4.8,13.23-.12-1.04.07-1.75.3-2.4-2.26-1.33-6.75-2.34-10.68-2.72-1.98-.15-4.77.12-4-2.55.63-2.13,5.62-.77,7.66-.5,3.17.53,5,1.06,7.49,1.77.53-.41.24-1.63.5-2.4-1.86-1.39-8.16-3.05-12.28-3.31-2.01-.15-4.03.09-4.03-1.93,0-.92.71-1.18,1.3-1.77,5.74.09,10.39,1.21,14.68,2.69,1.18-4.02-4.08-4.53-7.05-5.27-2.96-.68-5.98-.83-8.28-1.09-1.3-.65-1.18-3.29.8-3.35,3.67-.09,10.68,1.3,13.08,2.39Z"/>
    <path class="cls-2" d="M406.33,322.77c-3.55-4.62,7.81-4.14,9.23-6.54-1.57-.8-3.79-1.18-5.89-1.45-2.16-.29-4.38-.53-6.39-.53.15,3.2,1.57,8.64-1.87,9.62-2.43.62-9.88-.06-10.23-1.78-.74-3.94,5.68-1.36,8.58-1.75.77-1.72.09-4.59-.47-6.1-5.71-.47-11.18.62-15.92,1.66,1.42,2.22,5.56,1.66,5.89,3.82.8,4.76-7.43-.06-8.61-.83-4.49-2.58-7.78-5.57-11.01-9.89-1.27-1.69-3.84-4.94-3.67-6.66.18-1.71,3.94-2.69,6.39-3.34,14.36-3.87,30.9-5.36,46.88-2.1,2.16.44,4.65,1.27,7.16,2.1,2.1.65,6.01,1.51,6.28,3.02.33,1.98-3.35,6.66-4.17,7.82-3.64,4.88-7.4,7.93-13.05,10.5-2.66,1.19-5.68,2.52-9.11,2.43ZM370.4,303.44c2.16,4.11,5.21,7.25,8.64,10.06,2.31-.83,4.82-1.51,7.52-1.92-1.06-1.01-2.4-1.6-3.85-2.73-1.06-.8-3.13-1.98-3.04-3.64.14-1.75,3.87-2.64,6.39-3.2,8.37-1.86,18.2-1.63,26.19.12,2.48.59,6.69,1.24,6.69,3.22,0,1.12-1.9,2.75-2.9,3.49-1.36,1.13-2.9,1.24-3.79,2.73,2.96.21,5.21,1.15,7.63,1.92,3.62-2.52,6.33-5.92,8.28-10.06-15.21-6.36-42.35-5.92-57.77,0ZM385.43,306.2c6.21,5.41,21.37,5.41,27.58,0-7.4-2.43-20.21-2.43-27.58,0Z"/>
    <path class="cls-3" d="M293.22,416.49c0-.35-.15-.8-.3-1.48-.18-.62-.32-1.09-.5-1.27-.26-.42-.77-.71-1.57-.83-.77-.12-1.71-.21-2.9-.21h-16.96v-1.45l18.91-13.97h-11.93c-1.33,0-2.34.06-3.05.24-.74.15-1.24.39-1.54.8-.23.24-.47.77-.65,1.54-.24.77-.36,1.27-.36,1.51h-1.13v-9.44h1.13c.06.29.12.8.36,1.45.18.71.36,1.12.47,1.3.3.39.77.68,1.36.77.65.15,1.72.27,3.25.27h11.36c.47,0,.98-.12,1.48-.3.53-.18.88-.38,1.18-.68.36-.44.65-.98.92-1.6.27-.65.39-1.21.44-1.66h1.12v6.63l-17.64,12.96h11.01c1.34,0,2.4-.03,3.11-.24.74-.12,1.22-.41,1.45-.77.21-.29.41-.74.59-1.45.18-.71.3-1.25.36-1.57h1.12v9.44h-1.12Z"/>
    <path class="cls-3" d="M273.16,442.86l-1.01-9.53,1.15-.12c.15.82.33,1.54.56,2.07.18.53.41.77.71.77.06,0,.18-.03.29-.09.12-.03.26-.06.36-.15l4.97-2.4-.8-8.08c-.8-.24-1.48-.44-2.04-.54-.59-.15-1.12-.3-1.6-.35-.53-.12-.89-.12-1.18-.18h-.71c-.44.06-.71.39-.92,1.12-.14.71-.21,1.45-.18,2.31l-1.15.12-.89-8.7,1.15-.06c.06.27.15.62.29,1.07.15.38.33.71.57.94.3.44.65.71.98.95.32.21.8.38,1.39.56,3.02.86,6.4,1.74,10.12,2.84,3.73,1.01,7.05,1.92,10,2.75l.12,1.28-19.09,9.71c-.38.15-.74.38-.98.62s-.47.56-.65.98c-.12.26-.24.59-.27.98-.09.42-.09.74-.09,1.04l-1.12.09ZM281.56,432.68l8.61-4.38-9.26-2.55.65,6.93Z"/>
    <path class="cls-3" d="M300.62,467.04c-.06-.27-.24-.74-.53-1.33-.29-.53-.59-.95-.8-1.19-.32-.3-.91-.44-1.71-.44-.75.03-1.75.18-2.9.44l-16.54,3.64-.3-1.36,15.48-17.75-11.66,2.54c-1.3.27-2.28.59-2.93.92-.68.36-1.12.71-1.36,1.1-.18.3-.3.86-.3,1.63-.06.86-.06,1.39,0,1.57l-1.12.29-2.07-9.26,1.13-.27c.12.3.35.74.68,1.39.32.65.56,1.01.77,1.16.39.35.86.47,1.51.47s1.72-.12,3.2-.47l11.1-2.46c.5-.12.98-.29,1.45-.56.42-.29.74-.62.94-.95.3-.45.48-1.1.59-1.75.06-.74.09-1.3.03-1.69l1.12-.24,1.45,6.42-14.44,16.54,10.71-2.43c1.36-.3,2.3-.56,3.02-.92.68-.3,1.06-.62,1.24-1.04.11-.32.23-.89.26-1.57.03-.71.03-1.27-.03-1.57l1.12-.29,2.04,9.2-1.16.21Z"/>
    <path class="cls-3" d="M307.84,480.62c-.18-.26-.42-.59-.68-.92-.29-.32-.56-.59-.8-.83-.32-.26-.62-.41-.94-.32-.3.03-.66.12-.95.32l-11.9,6.81c-.62.36-1.33.62-2.19.74-.83.15-1.66.15-2.49,0-.94-.24-1.83-.56-2.66-1.12-.77-.56-1.45-1.39-2.04-2.37-.86-1.48-1.19-2.96-.86-4.47.36-1.45,1.19-2.58,2.69-3.41.6-.35,1.28-.53,1.98-.53.65.06,1.19.42,1.6,1.07.26.59.38,1.06.24,1.6-.06.53-.42.95-.92,1.28-.32.17-.68.29-1.04.35-.36.06-.68.06-1,.06-.33-.03-.65-.03-1.06-.03-.39-.03-.74,0-1.01.03-.18.36-.29.83-.29,1.42,0,.56.2,1.15.59,1.86.42.71.95,1.15,1.48,1.39.56.27,1.18.36,1.83.27.59-.06,1.3-.27,2.08-.59.77-.36,1.6-.71,2.46-1.21l10.62-6.13c.3-.21.56-.41.71-.59.18-.26.24-.59.24-1.03-.03-.39-.15-.83-.3-1.33-.18-.47-.36-.83-.5-1.15l1.04-.57,5.06,8.82-.98.59Z"/>
    <path class="cls-3" d="M299.7,507.08l-6.31-8.26.89-.71c.23.21.53.56.86.98.38.39.68.68.86.83.36.18.65.24.94.24.3-.06.63-.18.95-.41l13.31-10.18c.3-.2.54-.44.68-.71.12-.24.12-.59,0-1.06-.12-.35-.26-.77-.47-1.21-.22-.45-.39-.77-.57-1.07l.92-.71,6.3,8.26-.95.71c-.18-.27-.47-.53-.8-.86-.32-.35-.65-.62-.98-.82-.29-.24-.65-.33-.98-.27-.33.06-.62.2-.92.41l-13.29,10.18c-.26.21-.5.44-.62.74-.12.33-.15.62-.06,1.06.09.18.27.59.47,1.01.24.5.45.89.65,1.16l-.92.71Z"/>
    <path class="cls-3" d="M339.45,515.28c-.24-.21-.65-.48-1.19-.8-.59-.29-1.01-.47-1.36-.53-.47-.06-1.01.12-1.66.56-.59.5-1.36,1.15-2.12,2.01l-11.73,12.25-1.01-.98,2.9-23.35-8.23,8.61c-.92,1.01-1.57,1.74-1.95,2.43-.35.62-.5,1.21-.47,1.63,0,.38.23.89.65,1.57.41.68.71,1.12.89,1.3l-.77.83-6.9-6.57.83-.8c.2.21.62.44,1.27.77.65.36,1.06.56,1.3.56.51.03,1.01-.12,1.54-.53.5-.35,1.3-1.03,2.31-2.13l7.93-8.26c.29-.38.59-.74.83-1.24.2-.51.3-.92.27-1.3-.03-.59-.21-1.15-.51-1.78-.32-.68-.59-1.12-.89-1.48l.77-.83,4.8,4.59-2.72,21.72,7.57-7.93c.92-1.01,1.6-1.83,1.95-2.43.35-.65.47-1.18.47-1.6-.12-.33-.35-.86-.71-1.45-.36-.59-.65-1.04-.88-1.33l.76-.83,6.81,6.48-.77.83Z"/>
    <path class="cls-3" d="M352.53,539.07c-.24-.12-.6-.27-.95-.47-.41-.18-.74-.29-1.04-.35-.39,0-.68.03-1.01.21-.23.15-.5.42-.74.77l-1.01,1.48c-.71,1.09-1.24,1.81-1.45,2.19-.27.42-.44.68-.56.95-1.6-.27-3.08-.62-4.44-1.16-1.36-.56-2.67-1.15-3.79-1.89-1.21-.89-2.25-1.9-3.04-3.11-.86-1.24-1.39-2.55-1.66-3.94-.27-1.51-.27-2.99.09-4.53.29-1.54.95-3.14,2.01-4.62.95-1.48,2.13-2.66,3.46-3.58,1.33-.92,2.75-1.54,4.23-1.86,1.45-.33,2.97-.33,4.47-.03,1.51.3,2.99.92,4.29,1.81,1.07.74,1.95,1.51,2.6,2.34.59.8,1.07,1.54,1.48,2.34l1.12-.56,1.1.77-4.41,6.78-1.06-.77c.3-.89.53-1.69.71-2.63.24-.92.3-1.78.24-2.69-.06-.85-.29-1.68-.71-2.43-.39-.74-1.07-1.45-1.89-2.04-1.01-.62-1.96-1.04-2.99-1.15-1.04-.12-2.1,0-3.16.42-1.07.36-2.13,1-3.14,1.98-1.07.92-2.07,2.01-3.02,3.37-.8,1.21-1.42,2.46-1.86,3.76-.44,1.27-.62,2.52-.62,3.67.03,1.16.3,2.28.83,3.31.53.98,1.33,1.87,2.37,2.61.82.53,1.59.95,2.42,1.06.83.18,1.48.29,1.89.18.41-.45.77-.83,1.1-1.33.32-.47.62-.89.82-1.19l.68-1.06c.29-.39.47-.74.53-1.09.12-.36.08-.74-.18-1.1-.24-.33-.53-.74-.98-1.12-.5-.41-.86-.74-1.15-.89l.65-1.06,8.43,5.71-.68.98Z"/>
    <path class="cls-3" d="M410.53,542.83c-.3,0-.71.06-1.3.2-.59.12-1.07.27-1.45.5-.39.26-.62.8-.74,1.57-.14.77-.23,1.71-.23,2.84v10.06c0,1.24-.27,2.36-.8,3.32-.56.98-1.24,1.74-2.1,2.36-.83.56-1.75,1.04-2.73,1.24-.95.3-1.83.42-2.72.42-1.36,0-2.63-.18-3.7-.56-1.09-.35-1.98-.86-2.75-1.48-.71-.62-1.27-1.3-1.6-2.13-.41-.8-.59-1.63-.59-2.49v-13.61c0-.44-.06-.74-.18-1.01-.12-.27-.39-.51-.77-.68-.24-.18-.59-.33-1.04-.41-.45-.09-.8-.15-1.04-.15v-1.18h9.59v1.18c-.3,0-.68.03-1.13.12-.47.09-.8.2-1.01.27-.41.09-.65.35-.74.62-.15.36-.21.71-.21,1.06v12.73c0,.59.06,1.27.21,1.92.15.68.42,1.3.8,1.93.44.59,1.01,1.07,1.75,1.42.74.38,1.69.62,2.99.62,1.18,0,2.19-.24,3.01-.62.77-.36,1.45-.83,1.9-1.45.42-.59.77-1.21.98-1.87.15-.65.27-1.24.27-1.93v-9.44c0-1.24-.12-2.22-.27-2.99-.2-.74-.44-1.27-.74-1.51-.41-.27-.95-.48-1.57-.65-.68-.12-1.18-.23-1.54-.23v-1.18h9.44v1.18Z"/>
    <path class="cls-3" d="M437.37,531.11c-.27.18-.68.42-1.15.83-.54.44-.89.77-1.07,1.04-.24.39-.26.95-.06,1.69.15.8.47,1.72.94,2.78l6.78,15.51-1.33.62-20.36-11.75,4.76,10.92c.5,1.22.98,2.13,1.45,2.69.44.65.89.98,1.31,1.09.35.15.91.15,1.68,0,.8-.09,1.33-.2,1.57-.29l.47,1.07-8.73,3.82-.47-1.09c.29-.12.68-.44,1.27-.92.53-.42.86-.77.98-.95.24-.42.27-.98.15-1.63-.12-.62-.47-1.57-1.07-3.02l-4.56-10.42c-.24-.44-.47-.92-.83-1.27-.36-.36-.71-.62-1.13-.77-.47-.12-1.1-.27-1.78-.21-.74.06-1.3.15-1.69.33l-.44-1.09,6.04-2.63,18.94,10.95-4.38-10.09c-.54-1.21-1.04-2.13-1.48-2.75-.45-.62-.86-.95-1.28-1-.38-.12-.86-.12-1.6,0-.68.12-1.21.27-1.56.38l-.45-1.1,8.61-3.7.44.98Z"/>
    <path class="cls-3" d="M460.51,544.49l-9.35,4.56-.5-1.04c.27-.12.62-.38,1.13-.62.47-.3.8-.56.94-.71.24-.33.42-.62.44-.92.03-.3-.03-.65-.2-.98l-7.4-15.03c-.11-.35-.32-.65-.53-.82-.24-.15-.59-.21-1.07-.18-.35.03-.77.12-1.24.18-.53.15-.89.26-1.18.38l-.54-1.04,9.39-4.56.5,1.04c-.3.15-.62.38-1.04.62-.38.24-.74.5-.98.8-.3.27-.47.65-.47.98,0,.26.11.59.23.91l7.34,15.03c.15.33.35.59.65.74.24.21.59.26,1.01.24.24,0,.62-.06,1.13-.24.48-.12.92-.27,1.24-.39l.5,1.04Z"/>
    <path class="cls-3" d="M471.85,508.17c-.21.24-.48.51-.71.83-.23.33-.39.71-.47.98-.15.41-.24.77-.15,1.21.06.39.15.89.26,1.39.53,1.84,1.36,4.62,2.49,8.35,1.18,3.76,2.37,7.66,3.61,11.75l-1.04.83c-3.85-2.28-7.54-4.46-11.1-6.66-3.61-2.13-6.01-3.55-7.28-4.32-.3-.15-.62-.3-.98-.39-.32-.03-.68-.03-1.09,0-.36.06-.71.15-1.04.29s-.62.33-.89.44l-.74-.89,7.46-5.94.77.89c-.65.56-1.13,1.06-1.48,1.48-.35.44-.42.77-.23,1.01.06.12.18.24.29.3.15.12.24.2.36.26.95.59,2.55,1.48,4.76,2.81,2.23,1.39,5.36,3.23,9.44,5.62-.65-2.07-1.36-4.53-2.22-7.34-.89-2.81-1.51-4.7-1.87-5.74-.32-1.03-.59-1.66-.77-1.95-.21-.35-.38-.62-.5-.83-.15-.21-.39-.29-.68-.27-.29,0-.59.06-.95.21-.35.15-.71.33-1.06.53-.3.18-.6.35-.89.56l-.77-.92,6.74-5.36.71.86Z"/>
    <path class="cls-3" d="M497.68,500.66l4.94,4.68-12.31,14.74-.89-.71c.21-.27.44-.65.77-1.09.26-.47.44-.77.47-1.01.12-.32.09-.62,0-.89-.12-.29-.36-.56-.65-.8l-12.75-10.68c-.27-.23-.56-.39-.86-.44-.26-.09-.59-.06-1,.12-.3.12-.6.38-1.01.65-.41.33-.71.59-.95.8l-.86-.68,11.45-13.79,4.26,3.58-.77.95c-.77-.39-1.77-.59-2.9-.59-1.21-.03-2.04.18-2.51.59-.27.23-.51.53-.86.82-.3.33-.65.77-1.07,1.21l-2.25,2.81,6.99,5.86,1.72-1.98c.5-.63.85-1.16,1-1.54.12-.42.12-.86,0-1.27-.06-.41-.27-.83-.59-1.33-.29-.44-.59-.86-.89-1.22l.78-.92,6.92,5.8-.74.89c-.44-.24-.94-.53-1.5-.74-.53-.23-1.01-.35-1.36-.38-.53,0-1.01.12-1.36.38-.41.21-.8.62-1.24,1.22l-1.72,1.95,5.39,4.44c.53.47.94.77,1.33.95.38.21.74.21,1.09.18.3-.09.68-.33,1.06-.65.3-.33.77-.89,1.39-1.6.18-.26.51-.56.87-1.06.41-.39.71-.8.91-1.15.27-.33.45-.77.65-1.19.21-.35.27-.71.21-.95,0-.74-.29-1.63-.8-2.78-.45-1.07-.83-1.81-1.1-2.28l.74-.89Z"/>
    <path class="cls-3" d="M516.86,479.12l-2.96,5.39c-2.57.23-4.83.44-6.72.71-1.89.18-3.9.47-5.98.83l-1.15,2.07,6.42,3.49c.35.18.68.3.94.32.36,0,.65-.09.98-.36.18-.15.39-.44.68-.82.3-.36.53-.74.68-1.07l1.04.56-4.67,8.61-1.01-.57c.12-.23.24-.59.44-1.07.21-.44.27-.74.3-.94.03-.36-.03-.63-.21-.92-.18-.27-.44-.47-.77-.71l-14.74-7.99c-.3-.12-.65-.24-.95-.3-.32-.06-.65.06-.95.3-.23.24-.47.53-.74.86-.29.32-.56.62-.68.89l-1.04-.5,5.12-9.44c.47-.86.95-1.66,1.54-2.22.59-.68,1.24-1.21,1.98-1.66.68-.39,1.45-.56,2.28-.59.77,0,1.63.18,2.48.68.8.44,1.42.94,1.89,1.5.48.53.8,1.16,1.01,1.9.18.65.24,1.36.24,2.13-.06.71-.18,1.54-.35,2.37,1.89-.27,3.49-.5,4.73-.65,1.24-.18,2.78-.42,4.62-.65.8-.12,1.45-.26,1.86-.42.5-.24.86-.41,1.22-.68.29-.2.53-.47.83-.8.26-.33.44-.62.59-.83l1.04.56ZM497.63,478.4c-1.24-.68-2.4-.86-3.53-.53-1.06.32-1.98,1.15-2.66,2.43l-1.36,2.46,8.76,4.68,1.01-1.87c.71-1.3.89-2.63.53-3.97-.39-1.36-1.3-2.36-2.75-3.19Z"/>
    <path class="cls-3" d="M510.92,459.37c.65-.36,1.3-.53,1.98-.59.71-.06,1.45,0,2.28.23,2.01.47,3.43,1.63,4.32,3.43.88,1.81,1.06,3.76.5,5.95-.26.95-.68,1.95-1.22,2.87-.59.98-1.18,1.66-1.83,2.28l.98.98-.33,1.3-7.69-1.8.35-1.27c1.01,0,1.89-.12,2.78-.3.86-.12,1.66-.38,2.49-.77.77-.41,1.42-.95,1.98-1.54.56-.65.94-1.42,1.21-2.43.17-.71.27-1.42.21-1.95-.03-.63-.21-1.1-.47-1.51-.26-.47-.62-.83-.98-1.13-.47-.26-1-.5-1.59-.68-.89-.18-1.81-.18-2.7.12-.92.32-1.69.95-2.34,1.83-.47.62-.98,1.3-1.54,2.13-.53.74-1.06,1.48-1.54,2.07-.89,1.1-1.87,1.83-2.99,2.31-1.1.48-2.4.5-3.85.15-.86-.24-1.6-.65-2.28-1.18-.62-.56-1.15-1.15-1.54-1.98-.41-.74-.65-1.59-.74-2.46-.09-.95-.03-1.83.21-2.75.29-1.01.65-1.93,1.18-2.63.53-.74,1.07-1.39,1.72-1.9l-.95-.98.29-1.3,7.49,1.83-.33,1.3c-.89,0-1.78.03-2.63.12-.86.09-1.63.27-2.4.56-.74.3-1.32.74-1.89,1.3-.53.56-.89,1.27-1.19,2.22-.24,1.04-.12,1.98.3,2.81.47.86,1.18,1.42,2.07,1.69.97.27,1.83.2,2.6-.06.77-.27,1.45-.83,2.07-1.54.56-.68,1.06-1.36,1.54-2.04.47-.68.94-1.3,1.42-1.93.41-.53.89-1.09,1.39-1.57.5-.47,1.04-.92,1.63-1.21Z"/>
    <path class="cls-3" d="M524.64,444.04l-1.42,10.3-1.15-.15c.03-.36.06-.74.09-1.3.06-.56.03-.92-.03-1.21-.09-.33-.26-.62-.47-.83s-.56-.32-.98-.38l-16.6-2.22c-.38-.03-.68,0-.94,0-.27.12-.57.36-.77.8-.15.3-.36.65-.5,1.15-.18.44-.35.86-.41,1.18l-1.13-.15,1.42-10.3,1.12.15c-.03.3-.03.71-.03,1.19,0,.5.03.89.09,1.27.09.39.26.68.53.88.26.18.59.3.94.3l16.58,2.31c.36.06.65,0,.94-.09.33-.12.6-.38.77-.77.12-.18.29-.53.44-1.01.21-.5.29-.95.35-1.3l1.16.18Z"/>
    <path class="cls-3" d="M509.96,416.64l-.06,1.09c-.42.09-.89.27-1.39.5-.56.24-1.09.51-1.57.77-.47.33-.94.65-1.3,1.07-.41.35-.64.71-.71,1.09-.06.32-.12.74-.18,1.24,0,.5-.06,1.01-.06,1.42l-.06.97,18.5.65c.35,0,.68-.03.98-.18.36-.12.53-.42.71-.77.12-.18.24-.56.42-1.22.12-.62.21-1.06.24-1.42l1.16.03-.45,10.92-1.12-.06c0-.26-.06-.8-.09-1.39-.03-.65-.09-1.04-.21-1.3-.12-.33-.29-.65-.56-.83-.27-.18-.63-.26-1.07-.3l-18.62-.71-.05.98v1.24c0,.47,0,.98.05,1.39.03.38.24.77.59,1.18.36.39.8.77,1.27,1.09.44.33.98.68,1.51.95.53.26,1.01.44,1.36.53l-.06,1.15-6.27-.23.77-20.15,6.27.26Z"/>
    <path class="cls-3" d="M505.17,391.4c.03.15.12.47.18.89.18.39.29.71.42.86.24.45.44.71.56.89.15.15.53.45,1.09.86,1.21.92,2.4,1.69,3.62,2.46,1.21.71,2.77,1.6,4.61,2.72.71.45,1.27.74,1.69.83.44.21,1.03.26,1.83.26l4.41.06c.39,0,.77-.06,1.07-.24.23-.15.47-.42.65-.74.12-.27.23-.68.35-1.24.12-.59.2-1.01.24-1.39h1.19l-.24,10.83-1.12-.06c0-.3-.06-.71-.12-1.33-.03-.59-.12-1.01-.2-1.27-.15-.42-.39-.65-.63-.83-.29-.18-.65-.24-1.06-.24l-5.62-.06c-.18-.06-.47.06-.95.26-.47.21-1,.41-1.54.71-1.3.65-2.69,1.36-4.14,2.1-1.48.77-2.76,1.45-3.82,2.04-.62.29-1.09.59-1.42.95-.32.23-.56.53-.86.89-.15.26-.3.59-.35.95-.12.36-.18.68-.21.95h-1.13l.15-9.89h1.19c0,1.13.05,1.92.17,2.43.12.42.3.65.53.68.06,0,.18-.03.3-.09.18-.06.41-.18.65-.27.29-.15.65-.32.97-.5.39-.18.74-.36,1.06-.56.98-.5,1.98-.98,2.93-1.51.95-.47,2.22-1.18,3.79-2.01-2.72-1.72-4.83-3.08-6.39-4-1.48-.92-2.4-1.36-2.69-1.36-.27,0-.48.06-.62.27-.15.12-.24.38-.36.68-.12.33-.18.65-.2,1.04-.03.36-.03.74-.09,1.04h-1.18l.18-8.05h1.12Z"/>
    <g>
      <path class="cls-3" d="M390.44,486.9c-.86,0-1.57.35-2.22,1.06-.66.68-.95,1.6-.95,2.72,0,.98.29,1.81.89,2.43.59.62,1.36.92,2.25.92s1.6-.3,2.19-.92c.59-.62.86-1.51.86-2.6s-.26-1.95-.92-2.6c-.53-.65-1.27-1.01-2.1-1.01Z"/>
      <path class="cls-3" d="M405.03,486.9c-.83,0-1.54.35-2.1,1.15-.62.92-.98,2.7-.98,5.3s.3,4.23.9,5.09c.65.89,1.36,1.31,2.25,1.31.83,0,1.6-.42,2.22-1.31.59-.86.92-2.52.92-5.09s-.33-4.29-.92-5.15c-.62-.83-1.39-1.3-2.28-1.3Z"/>
      <path class="cls-3" d="M491.67,334.58h-184.72c-.24.03-.18.32-.3.5-.18,23.74.09,48.18,0,71.29-.18,23.41,3.22,44.57,10.83,61.23,7.46,16.49,19.71,28.35,33.62,38.32,14.15,10.03,31.84,15.42,48.18,23.86,16.28-8.49,33.92-13.79,48-24.06,13.91-10.06,26.49-21.6,33.86-38.27,7.34-16.72,10.65-37.32,10.65-61.41s.18-47.94-.12-71.47ZM349.3,439.43c12.55-6.51,25.12-13.67,34.95-23.14-6.51,1.6-11.72,1.77-17.1,1.71.89-1.42,2.36-2.31,3.55-3.46,8.29-7.75,17.57-15.15,22.08-26.9-3.04,1.04-6.87,1.9-10.98,1.9,8.08-10.36,14.45-22.52,17.82-37.53h.47c3.32,15.06,9.8,27.08,17.85,37.53-3.61-.24-6.63-.39-10.8-2.01.18,1.74,1.09,3.4,1.87,4.91,3.99,7.34,10.41,13.17,16.39,18.82,2.43,2.25,5.03,4.23,7.16,6.75-6.63.59-9.65.06-16.93-1.86,2.36,2.81,5.47,4.88,8.34,7.16,7.82,6.39,17.16,11.16,26.57,16.13.74.39,1.9.65,2.19,1.63-7.81,1.09-16.49.5-24.91-2.19-10.3-3.55-20.06-3.76-27.29,2.99-8.04-6.48-16.01-6.57-28.88-3.17-7.34,2.28-16.93,3.31-24.65,2.37.27-1.06,1.51-1.21,2.31-1.63ZM377.86,501.05h-1.92v-12.22c-.47.5-1.1.86-1.87,1.25-.71.5-1.36.83-1.98,1.06v-1.8c1.09-.56,1.98-1.19,2.81-1.89.82-.77,1.39-1.42,1.71-2.07h1.24v15.69ZM394.97,497.67c-.47,1.19-1.12,2.1-1.95,2.7-.89.62-1.9.94-3.02.94-1.25,0-2.25-.33-3.02-1.04-.77-.65-1.25-1.6-1.42-2.87l1.83-.18c.18.89.5,1.54.95,1.93.41.44,1.01.59,1.68.59.56,0,1.09-.15,1.57-.42.42-.26.77-.62,1.06-1.09.3-.48.54-1.07.71-1.81.21-.77.29-1.54.29-2.36v-.45c-.38.68-.89,1.18-1.6,1.54-.65.39-1.39.59-2.13.59-1.31,0-2.4-.5-3.28-1.42-.92-.98-1.4-2.19-1.4-3.73s.47-2.84,1.42-3.82c.95-.95,2.13-1.42,3.49-1.42,1.07,0,1.95.26,2.85.77.83.53,1.48,1.33,1.95,2.4.35,1.01.62,2.43.62,4.38s-.27,3.59-.62,4.77ZM409.61,497.76c-.38,1.13-.92,2.05-1.68,2.61-.74.62-1.72.94-2.84.94-1.51,0-2.72-.53-3.58-1.63-1.04-1.28-1.57-3.4-1.57-6.33,0-1.9.23-3.38.59-4.47.39-1.15.95-2.01,1.72-2.57.74-.68,1.71-.95,2.84-.95.83,0,1.57.15,2.22.47.62.3,1.16.83,1.57,1.45.42.68.71,1.42.95,2.34.23.92.35,2.16.35,3.73,0,1.8-.21,3.31-.56,4.41ZM424.73,501.05h-10.35c0-.44.06-.95.24-1.3.27-.71.71-1.45,1.3-2.1.56-.71,1.4-1.45,2.49-2.4,1.68-1.42,2.84-2.46,3.46-3.32.59-.8.92-1.54.92-2.31s-.3-1.39-.86-1.89c-.53-.53-1.24-.83-2.14-.83s-1.65.29-2.22.86c-.53.56-.82,1.33-.82,2.28l-2.02-.17c.18-1.45.65-2.61,1.54-3.38.89-.8,2.07-1.12,3.59-1.12s2.69.38,3.55,1.21c.89.86,1.33,1.89,1.33,3.11,0,.59-.11,1.27-.38,1.87-.26.59-.71,1.24-1.27,1.93-.59.65-1.6,1.54-2.99,2.72-1.15.95-1.89,1.66-2.22,1.95-.3.38-.59.71-.8,1.09h7.66v1.81ZM408.91,457.42l.5,4.14h-17.93l.53-4.14h-56.23l7.02-8.61c5.95-.32,17.43-1.84,27.26-5.51,19.12-7.16,30.72,2.66,30.72,2.66,9.14-7.66,20.63-6.07,31.25-2.16,10,3.67,25.3,4.79,25.3,4.79l6.59,8.82h-55.01Z"/>
    </g>
  </g>
  <g>
    <path class="cls-2" d="M796.08,217.03c.83.23,1.01-.77.42-.83,9.44,1.75,12.43,13.73,23.2,15.56,10.24,10.89-3.43,24.12-3.38,35.04,5.21,6.99,14.38-.32,19.41.86,1.13.24,3.7,1.89,4.65,3.34,5.65,8.91.59,22.4-9.68,24.09-2.13,1.8-3.85,4.03-7.22,4.68-10.92,14.35-26.69,23.85-38.83,37.11-4.71,8.67-12.55,14.21-18.14,21.99-8.26,3.31-8.32,17.1-9.68,26.99-.73,5.06-3.19,9.18,1.25,10.95,7.9-3.38,12.55-9.97,17.31-16.42,6.9-4.23,11.15-11.1,17.31-16.07,5.06-7.75,11.3-14.29,16.45-21.95,7.25-3.97,11.84-10.69,16.87-16.87,6.98-3.16,8.82-11.48,15.21-15.18,7.16,1.28,12.02-3.88,18.14-2.16,2.63.83,5.51,5.74,7.61,7.64,3.28,2.93,8.82,6.36,12.22,9.26,1.6,1.9,2.69,4.71,4.23,7.16,1.74,2.78,5.8,5.77,5.51,9.32-.24,2.46-2.34,8.23-3.43,10.95-.89,2.4-1.18,8.05-2.07,10.57-1.07,3.05-3.38,4.7-4.23,9.32-.5,2.99-.36,6.16-1.27,9.26-1.6,5.56-1.95,12.22-2.49,20.69-.39,5.21-1.42,9.65-2.57,14.77-1.33,6.1,0,10.8-.38,17.73-.12,1.54-1.07,1.69-1.31,2.99-.29,1.72.72,4.11.44,5.86-.2,1.33-1.06,2.49-1.27,3.82-.85,5.98.53,14.15.42,20.68,0,2.07-.21,5.21,0,6.75.53,3.46,2.46,7.31,2.96,13.5.42,4.76,1.07,11.92.42,14.35-.71,2.66-7.31,6.96-9.71,9.74-3.61,4.24-6.07,7.84-7.99,11.36-9.89,0-9.89,9.88-18.58,10.98-4.83-6.48-6.3-18.44-16.9-17.73-5.68-5.15-10.09-11.57-18.97-13.47-6.75,7.52.44,19.86-2.14,29.51-2.51,9.44-15.15,12.04-14.32,22.76-2.66,2.66-5.97,4.7-10.56,3.34-.42-8.4-8.85-14-9.26-22.31-1.46-2.78-4.39-4.12-6.75-5.89-2.64.3-5.39,2.78-8.5,2.52-3.64-.3-9.26-5.51-9.26-7.58,0-4.97,14.91-9.47,18.58-15.6,4.62-7.93,2.17-17.37-2.96-22.85-5.8-2.75-9.38,5.62-15.21,2.52-1.18-5.95,6.04-7.25,5.92-12.61-.12-5.15-6.45-8.97-8.88-13.56-1.69-.92-4.23.15-5.5-.38-4.15,4.56-7.64,9.77-11.81,14.35-5.65,1.83-11.66.06-16.01,4.2-3.67,3.46-6.39,10-8.88,16.04-1.83,4.47-3.99,9.03-3.79,13.56-.3,1.51-1.72,1.92-1.72,3.76.21,3.11,5.15,5.33,3.82,7.16,6.18,1.84,10.95,5.15,14.76,9.26-.59,3.99,2.84,7.52,3.79,11.01,2.55,8.91-2.07,16.66-5.06,22.76-7.07,3.49-13.29,2.4-20.69,0-7.46-7.1-16.96-17.52-21.93-27.82-1.74-3.64-.23-9.11-.86-14.32-.24-2.16-1.36-3.76-.82-5.92-4.38-10.72-4.77-26.61-2.52-39.27.44-2.6,1.33-5.77,3.76-7.16,1.6.39,1.54,2.37,2.96,2.93-.47,2.96,1.48,5.39,2.55,8.02.18,4.05,1.72,8.11,4.24,10.98,11.06-6.04,15.53-17.7,21.07-28.27,8.61-5.77,11.63-16.54,19.86-22.84,2.19-1.63,3.08-2.1,5.48-3.35,1.98-.98,3.04-1.95,4.23-3.79.53-6.15-2.78-8.82-.42-14.35,5.12-4.91,15.04-2.75,18.11-10.98-1.92-7.16.53-16.98-7.16-18.55-2.13-.47-3.64,1.15-5.45,1.24-5.68.33-8.61-3.7-12.7-5.47-5.97-2.61-11.45-.3-18.14-.83-1.83-2.37-3.02-5.41-4.2-8.46,1.77-3.82,3.73-7.46,7.16-9.71,1.31-.2,1.66.62,2.54.86,3.7-1.92,4.71-6.51,9.71-7.16,3.49-6.36,9.71-10,13.05-16.51,8.49-4.82,15.36-12.73,24.05-17.26,3.02-1.6,6.81-1.77,8.05-5.5-.44-4.06.83-6.54.83-10.57,0-2.52,1.36-4.62,1.68-7.19.71-5.77-.56-13.22-.86-18.94-.47-10.15,2.19-20.86,2.13-31.28,1.24-1.13,1.77-2.99,2.95-4.2.89-10.57,2.81-21.63.83-32.91-.95-5.56-4.15-10.18-2.96-15.62.89-3.88,3.85-6.33,6.33-9.32,10.74-1.25,19.29.35,22.79,8.05-2.22,5.71.33,13.17,2.13,16.9ZM824.37,497.7c1.15-.92,1.83-2.34,2.9-3.37,0-9.71-.35-22.4,0-30.81.18-2.69-.41-5.68-.38-8.4.15-8.97,2.34-17.9,2.1-26.66-.15-5.77-1.24-11.3,0-16.84,1.18-5.18,3.14-9.41,2.96-14.8-.12-3.26-1.36-6.28-1.24-9.26.18-7.46,2.84-14.06,3.79-21.93.12-1.09-.83-1.98-.86-2.99-.09-6.01,2.51-12.76.86-18.97-.59-.47-3.82-5.45-5.91-3.43-5.33,5.18-13.38,13.94-19,20.68-2.9,3.52-6.57,7.84-7.58,12.25-1.72,7.55,6.75,7.55,9.71,11.84,2.87,4.15,1.84,6.36,2.07,12.26-2.69.91-3.46,4.59-5.92,7.16-1.01,1.1-2.73,1.75-3.76,2.96-4.24,5-4.5,12.14-7.61,18.59-2.84,5.83-8.4,12.22-8.85,17.69-.62,7.07,5.71,11.63,5.89,18.62-1.01,2.87-4.56,5.03-3.37,8.85,2.19,1.86,5.68,2.49,9.29,2.93,7.4,5.03,0,17.05,1.24,23.17,7.87,1.39,16.22,1.21,23.67.47ZM773.71,397.26c-.06,5.23-3.97,7.64-4.24,11.36-2.22,1.09-5,1.92-6.3,3.82-.65.88-.18,2.75-.88,4.23-.63,1.28-1.72,1.33-2.08,2.49-1.15,3.58-.71,8.19-1.24,12.66,5.68,6.57-.65,15.89,1.24,25.78,2.01,1.84,5.09,6.01,8.88,5.51,6.86-1.01,2.87-16.54,5.89-21.54,1.63-2.75,3.82-4.79,4.65-8.88.62-3.23-.24-7.58.83-10.95.56-1.78,2.07-3.25,2.55-5.06,1.54-5.95,1.18-12.52,2.95-18.14-2.07-3.7-9.38-5.33-12.25-1.27Z"/>
    <path class="cls-2" d="M1792.15,221.2c-2.33,7.67.84,16.61-4.65,21.1-1.21,1.04-2.63,1.01-3.79,1.74-2.16,1.39-3.11,3.79-5.47,5.06-4.32,1.33-8.82-.39-12.25.83-3.37,1.18-4.44,5.42-5.51,9.26-5.56,6.48-8.7,12.76-10.95,22.4,5.09,7.04,18.11,9.53,15.59,21.51-10.5,4.38-14.5,16.16-10.95,28.68,1,3.55,5.15,9.8,8.85,10.57,1.22.23,3.38-.53,5.09-.42,2.55.21,8.47,3.25,11.37,2.93,2.84-.27,4.35-2.67,6.33-4.17,0-10.6,13.56-26.05-4.62-25.75-4.32-3.49-3.49-12.96-3.79-18.17-2.01-1.6-2.04-4.06-3.4-5.89-2.46-3.34-6.96-4.06-10.57-6.36,2.79-9.77,13.44-5.95,22.82-7.13,6.06,5.27,7.07,14.44,7.19,22.76.42,1.13,1.95,1.16,2.49,2.13,8.7-6.63,10.62-20.06,15.63-30.39.09-6.01,3.2-10.42,4.65-16.1.41-1.66-.03-3.43.41-5,1.1-3.79,3.91-7.48,3.82-11.01-.12-3.58-3.08-6.45-4.67-9.71,1.66-9.71,13.99-8.76,19.88-14.32,3,1.51,6.72,2.22,8.41,5.06-.18,1.95-1.33,2.9-1.69,4.65.8,6.21,8.02,6.9,7.61,12.67-.18,2.52-3.7,4.23-5.47,6.78-3.85,5.33-2.99,13.26-8.02,16.43-2.54,8.55-9.23,15.74-13.5,24.5-1.06,2.13-1.12,4.44-2.13,6.78-1.77,3.91-5.92,6.33-8.43,10.06-5.83,8.76-7.96,19.32-12.67,28.74-.47,5.62-3.43,9.59-1.68,14.74,2.96,3.08,6.69-.95,10.97-.42,5.83-4.85,6.51-16.72,15.6-18.11,1.3-.2,2.96.12,4.65,0,1.92-.18,3.64-1.33,4.65-1.3,1.71.12,2.96,1.48,4.65,2.13,3.46,1.33,7.96,1.87,9.74,5.06,1.07,3.87-2.16,5.15-3.81,7.6-1.25,1.77-1.45,4.08-2.52,5.92-1.77,2.84-4.73,5.27-6.77,8.4-4.29,6.52-8.37,12.64-11.81,19.83-7.31,5.83-12.61,15.8-23.2,16.9-9.3,6.45-19.62,11.96-23.65,23.64,1.87,5.09,6.3,5.51,11.81,7.19,6.21,1.86,11.36,5.21,10.12,13.5,6.16,1.01,9.53-1.3,15.21-.42,12.25,1.83,8.71,18.58,1.69,24.03-.65.53-.86,2.49-1.27,2.99-2.19,2.49-5.44,5.03-6.74,5.06-1.48.03-2.78-1.83-4.23-2.16-.95-.18-1.22.83-2.52.86-1,.03-2.36-.89-2.96-.86-6.51.33-12.43,5-18.17,2.96-2.55,3.49-5.74,9.17-6.33,13.97-.83,6.86,3.4,6.8,5.92,10.95.59.95.29,2.34.85,3.34,2.87,5.89,10.01,10.03,11.39,14.83v4.23c4.98,3.26,4.62,10.06,7.61,16.04,2.84,5.71,10.44,10.15,8.85,19.8-1.66,9.89-13.02,11.69-19.42,17.75-4.8.27-9.67.36-13.5-1.27-3.52-5.74-9.02-10.8-16.04-10.98-3.82-.09-7.76,3.52-12.66,2.96-.77-.09-1.31-1.24-2.14-1.33-1.04,0-2.14.98-2.93.89-8.2-.59-14.77-1.51-21.51-5.89.42-2.54-1-3.26-1.3-5.06,8.29-6.69,22.79-2.37,32.49-3.79,5.27-4.23,13.46-3.38,19.42-6.34,2.01-8.37-4.09-12.22-6.31-17.76.03-1.83.56-1.71,0-2.9-5.42-13.55,6.31-31.16-5.51-40.13-11.45,7.84-22.73,19.44-28.68,34.21-10.48,6.21-19.68,14.71-27.05,24.92-1.95,2.69-3.96,8.88-6.74,11.33-2.9,2.67-10.84,6.1-14.33,6.78-3.43.65-6.92-1.57-10.56.39-4.2-1.09-10.36-2.34-16.48-3.34-5.56-.92-13.64-4.29-13.08-10.12.18-1.81,4.38-8.82,6.34-10.12,3.97-2.61,10.86-2.19,15.62-3.82,2.02-.65,3.08-2.34,5.09-2.1,6.45-5.65,12.96-11.22,20.24-16.01.97-1.89,2.66-3.02,3.37-5.06,3.31-3.17,7.61-5.42,9.7-9.74,3.17-2.55,6.21-4.65,9.71-6.27,9.74-4.71,17.64-13.38,27.43-19.09,1.04.83,2.57-.53,3.82-.8,5.98-5.59,10.65-12.46,12.22-22.4,9.62-6.24.57-14.38-5.06-19.38,2.22-3.2,8.58-4.68,12.25-7.64,5.23-4.17,8.81-10.83,13.08-16.87,3.01-4.29,13.49-18.56,11.39-26.16-2.4-8.61-17.73-1.42-18.56,5.06-8.88,3.08-13.19,10.77-20.72,15.21-10.95,9.59-21.03,20.03-32.91,28.71-.95.83-1.18,2.46-2.1,3.38-7.37,4.82-16.01-.06-25.36,2.48-3.04-2.25-7.1-3.52-8.4-7.55,6.63-5.39,12.37-11.87,21.54-12.67,3.91-1.25,6.39-4.97,9.68-7.19.98-.62,2.54-.62,3.82-1.27,1.9-.92,2.54-1.57,5.03-2.52,4.38-1.69,7.43-5.33,11.83-8.02,4.8-2.93,10.75-4.67,15.21-7.61,2.31-1.57,4.47-5.35,7.16-7.16,2.31-1.57,5.44-1.75,8.44-2.96,5.89-2.4,14.59-7.46,15.59-11.84,1.81-7.49-5.11-11.46-9.29-15.18-5.03.33-8.52,5.86-13.46,5.92-2.49,0-2.93-1.6-5.06-2.57-2.52-1.07-6.15-.5-7.16-3.35-2.07,1.6-3.32-.03-5.09-.83-5.2,4.97-5.32,12.64-9.29,18.58-4.62,2.46-10.15,11.69-15.18,5.03,5.03-7.34,9.54-15.27,14.36-22.79-2.31-5.41-4.56-19.41-11.84-13.14,2.63,9.77-2.31,16.75-8.44,21.13-1.86-.18-3.11-1.93-5.06-1.66-7.04.92-3.23,11.6-3.82,16.45-.33,2.81-6.42,13.52-9.67,14.77-1.54.62-4.26-.03-6.33.44-2.9-1.66-6.57-4.11-10.56-3.37-2.05-3.76-4.68-6.07-3.82-10.12.65-2.75,4.38-4.32,4.68-6.75.18-1.95-1.25-4.17-3-6.42-2.99-3.82-4.47-6.92-6.72-11.33,2.19-4.14,7.01-5.65,7.16-11.84,10.06.32,15.22,10.68,22.79,16.04,3.73-.62,3.31-5.06,4.21-7.99,1.06-3.34,3.13-4.79,1.27-8.91-.56-1.27-2.16-2.07-2.96-3.38-.74-1.21-.8-3.17-1.69-4.62-1.13-2.01-2.96-2.46-2.93-5.48-4.08-1.51-7.48-8.64-11.8-10.15-2.73-.86-4.74.95-7.61-.44,2.57-4.26,5.21-8.53,7.61-13.08,7.66-3.76,10.23,3.76,15.63,4.65,1.89-2.07,1.36-4.15,1.65-8.02,1.36-.8,1.69-2.75,2.96-3.76,4.58-3.76,10.95-1.45,16.9-2.57,8.08-1.48,13.7-5.27,19.82-8.82,1.54-2.43,2.28-5.56,3.79-8.02.45-13.17,7.84-23.79,7.6-37.17-.11-6.54-3.79-15.6,0-21.51.12-1.45-.32-3.43.42-4.2,4.08-4.14,7.58-8.73,13.5-11.01,3.9,3.02,8.99,4.82,11.84,8.88,1.95.47,2.6,2.19,5.09,2.13.95,2.43,5.33,5.62,8.85,5.44,1.42,2.99,4.06,4.68,5.89,7.16ZM1711.13,321.7c3.19-5.54,10-9.32,8.88-17.7-2.75-2.72-6.15-2.19-8.46-5.12-5.97-.88-13.38-1.48-13.94,3.79-.09,1.04,3.11,9.08,3.82,10.18.83,1.15,2.67,1.84,3.38,2.93,1.36,2.13.68,4.94,2.54,5.92,1.75-.06,2.34.74,3.79,0ZM1731.82,300.16c-5.36,4.41-7.73,11.1-11.39,17.28-1.71,2.93-4.62,6.86-4.21,8.88.95,5.21,6.75,1.83,11.37,1.3,5.09-.65,8.88-.41,10.57-3.81-1.6-7.64,2.75-15.33-1.28-22.37-1.66-.44-3.25-.98-5.06-1.27Z"/>
    <path class="cls-2" d="M1461.26,317.03c2.99-.5,6.07,2.01,8.85,2.55,3.67.74,5.91.09,9.71,1.71,6.3,2.64,10.06,6.75,4.68,13.44-2.37,2.99-6.87,3.94-8.88,6.39-7.1,1.18-16.04,4.23-21.13,8.88-10.78,3.61-20.84,9.5-30.37,13.05-1.03-.27-1.94-.62-3.37-.42-1.95.59-2.78,2.34-5.09,2.54-5.92,8.35-4.62,21.51-8.43,31.25.8,2.57.68,7.19-.86,8.82-1.48,26.43-13.14,48.33-29.54,62.47-.47.38-1.12.53-2.1.44-13.88,14-28.56,26.84-48.98,33.32-.83.3-.94,1.27-1.69,1.69-6.66,1.04-13.41,6.16-19.79,6.33-2.72.09-5.86-.41-8.91-.41-2.64,0-5.92,1.54-7.58-.83-.09-1.98,2.25-1.81,3.37-2.55,1.04-.68,1.93-1.89,2.96-2.55,6.89-4.21,14.77-7.4,21.51-11.81,8.79-5.74,16.34-13.05,25.34-18.17,18.94-17.84,36.33-39.54,45.16-64.99.26-7.4,6.1-20.1-1.28-24.89-8.14,2.1-10.98,9.56-18.97,11.81-.92,2.34-2.96,3.55-3.79,5.92-11.07,6.24-18.71,15.92-27.47,24.47-5.39-.56-7.28-4.56-10.12-7.57-10.27-4.68-16.63-13.2-24.06-20.69,1.68-4.92,7.91-5.36,10.56-9.32,4.03.88,8.62,1.36,12.23,0,1.98-.75,3.23-2.79,5.06-3.76,2.13-1.15,4.85-1.27,7.16-2.13,1.6-.59,2.67-1.95,4.21-2.51,2.66-.98,6.04-1.31,9.32-2.55,5.95-2.28,10.8-6.4,16.9-7.22,8.17-1.04,13.02-7.07,22.37-7.58,8.14-5.59,1.07-19.26,4.62-29.98-1.65-25.78,5.39-48.68-.83-70.88-2.19-1.45-2.95-4.32-3.79-7.19,4.03-7.84,9.29-15.54,19.82-15.6,6.04,4.56,13.74,10.92,21.93,14.77,1.71,5.33,8.58,7.9,5.47,14.77-1.54,3.43-5.92,5.62-8.41,9.32-4.14,6.03-2.96,12.81-5.09,20.21-2.37,2.52-1.54,7.72-2.54,12.25-.21,1.04-1.36,2.07-1.66,3.41-1.45,6.54-1.06,15.95-1.71,21.9-.35,3.43-1.89,7.52-1.24,10.18,1.48,5.95,9.71,4.26,14.77,1.69,3.35-5.09,11.04-8.82,18.96-12.31,8.29-3.49,19.83-11.04,12.7-17.7Z"/>
    <path class="cls-2" d="M1085.63,243.19c4.27,1.3,10.42-1.27,13.5-3.82,1.36.8,2.81-.38,4.21.86,5.51-2.49,17.66,1.01,23.26,4.67,1.72,1.13,4.71,4.68,5.03,5.89.77,2.76-1.01,5-.83,6.75.42,4.56,2.79,7.34,1.25,11.84-.66,1.81-3.02,4.09-4.62,4.59-7.93,2.55-16.92-7.58-25.75-2.07-4.8-.95-8.37-5.06-7.61-10.12-1.47-5.24-13.81-5.8-14.35-10.98-.39-3.7,3.73-5.06,5.91-7.6Z"/>
    <path class="cls-2" d="M1015.96,349.55c1.19-5.36,11.78-10.62,18.17-13.52,2.01-.89,4.61-1.3,6.75-1.63,1.71-1.27,3.75-2.22,5.89-2.99,15.57-13.49,34.32-23.88,54.48-31.25,1.71-.62,3.84-1.63,5.44-2.55,1.12-.59,1.48-1.69,2.55-2.52,4.32-3.08,10.47-4.38,15.18-6.78,2.28-1.16,4.52-2.16,6.77-3.38,1.87-1,3.2-2.99,5.03-4.2,1.9-1.24,4.26-1.72,5.94-2.93,3.35-2.52,5.77-6.57,9.27-8.85,2.31-1.6,5.44-2.54,8.05-3.82,2.24-1.15,4.73-1.98,6.74-2.99,4.95,2.49,10.63,4.26,13.91,8.44.39,6.36-5.39,10.53-9.71,14.35-1.6,1.48-2.57,3.88-4.21,5.09-3.91,2.99-8.88,4.65-14.38,5.51-4.56.71-8.94,3.76-14.74,2.49-3.4,3.22-8.23,3.46-11.83,5.98-2.55,1.72-5.24,4.85-7.61,7.1-7.31,7.1-15.78,13.44-23.23,20.68-4.8,1.04-8.06,6.36-12.64,10.98-5.12,5.24-11.07,8.49-13.94,15.66-3.35,2.49-4.68,2.52-10.12,2.49-10.63-.03-21.02,3.02-29.95-2.9-1.27-.85-1.42-2.45-2.55-3.4-2.78-2.34-7.22-1.72-9.29-5.06Z"/>
    <path class="cls-2" d="M1169.2,345.73c.12,10.03-10.12,15.39-15.63,22.4-7.1,2.01-11.39,6.86-13.08,14.35,3.7,4.77,8.79-3.14,13.08,0,2.02,5.62.36,13.11-2.54,16.45-2.96-.33-3.19,2.1-4.61,3.38-1.01.12-1.66-.09-2.14-.45-3.55,5.18-11.42,6.04-15.21,10.98-7.58.65-17.64,3.67-21.51-2.52-2.34-13.58,7.67-16.96,10.98-26.16,3.97-2.19,6.92-5.47,8.05-10.59,2.13-3.02,8.23-7.28,7.99-12.67-.18-4.26-4.23-6.45-8.88-5.06-3.43,1.13-8.44,7.4-11.37,10.56-3.84,4.17-7.16,8.32-9.71,11.81-1.89,1.12-4.89,1.07-5.51,3.41-3.61-1.04-9.58.27-12.66-1.24-4.24-5.09,2.95-8.17,7.16-11.45,1.66-1.21,3.08-2.25,4.65-3.32,3.76-2.75,6.98-5.71,11.39-8.46,2.52-1.6,5.33-2.79,7.61-4.27,2.31-1.42,3.85-3.55,5.47-4.58,5.18-3.43,12.46-4,14.38-10.15,5.74-2.34,11.6-4.97,16.87-1.69,3.34,2.07,5.03,5.86,8.02,7.19,2.46,1.06,5.65-.03,7.19,2.07Z"/>
    <path class="cls-2" d="M1051,387.08c4.14-4.53,10.06-10.27,19.42-7.55,10.23,2.93,18.82,20.54,19.41,30.81.21,3.58-1.12,10.24-2.55,12.22-1.03,1.48-3.81,2.72-5.88,4.2-2.7,1.99-4.59,4.85-9.71,3.85-3.99-.83-16.13-11.48-17.31-16.07-.61-2.4.6-4.56.42-6.78-.56-7.1-6.51-12.96-3.79-20.69Z"/>
    <path class="cls-2" d="M1546.94,465.59c-2.04,8.85-13.02,7.81-20.24,11.87-3.37,1.93-6.75,5.68-11.01,8.02-5.51,2.93-12.08,1.92-17.28,5.03-9.24,1.09-13.11-2.28-19.41-7.58-7.16-6.01-11.54-11.72-16.87-19.41-3.88-5.56-8.49-8.4-9.7-14.77-10.36-14.77-20.95-31.67-24.51-50.69-3.43-4.91-2.49-11.6-5.09-17.28,9.59-1.74,8.94,9.79,15.66,12.28,1.87,3.88,5.09,6.39,8.02,9.27v1.66c7.22,6.75,11.83,16.01,19.41,22.43-.35,1.16.59,1.04.42,2.04,9.06,7.99,19.98,14.08,29.57,21.54,7.22.06,10.33,5.12,16.01,7.19,10.57-1.95,17.52,3.26,27.85,3.79,1.98,1.98,5.12,2.81,7.19,4.62Z"/>
    <path class="cls-2" d="M1622.49,498.53c-.06-2.16,1.87-2.34,2.52-3.82,1.1-5.48-.38-12.13,4.23-14.74.92-6.84,6.66-10.95,6.37-18.14-.36-7.78-4.97-15.48-5.92-22.82,3.32-4.59,9.06-10.42,15.59-6.72.8.39,2.52,1.95,3.82,2.9,5.38,4.21,12.1,12.93,16.04,16.9,3.08,10.86,2.48,19.53,2.93,29.98-3.35,12.72-12.46,21.01-26.13,19.83-7.1,5.06-13.44-1.42-19.45-3.38Z"/>
    <path class="cls-2" d="M1140.5,504.45c-1.75-11.16-1-23.35-.41-34.21.12-2.66.35-5.94.83-8.4.36-2.07,1.78-3.37,1.71-5.5-.3-6.28-5.8-12.46-.89-18.53.35-.09.44-.47.89-.47,13.5,1.92,20.71,10.92,25.72,25.77,2.43,7.31,6.45,14.41,7.19,21.07.77,7.61-3.5,13.05-5.51,18.59-3.43,1.51-5.98,5.09-8.88,7.16-1.48,1.04-4.21,2.75-6.75,2.57-5.21-.53-8.29-7.52-13.91-8.05Z"/>
    <path class="cls-2" d="M1002.88,501.49c3.19-6.54,8.47-9.85,15.22-10.54,3.87-.41,8.13.3,12.66-2.13,3.11-3.46,6.4-3.26,10.54-4.65,6.1-1.95,10-5.15,13.91-8.43,1.19-.98,2.43-.5,3.82-1.24,2.51-1.33,4.46-3.96,7.6-4.26.95-.41,1.54-1.27,1.69-2.51,5.7-1.24,12.69-6.96,19.83-6.75.68-.59,1.95-.57,2.51-1.28,9.29,3.46,12.78-10.95,8.88-18.56.65-1.89,1.12-4.05,0-5.5,2.31-4.97,4.38-10.24,10.54-11.37,1.09.74,1.89,1.78,3.4,2.13,9.82,10.62,7.78,27.79,7.6,45.55-.18,14.47,3.05,28.71,2.96,42.2-4.77,3.64-9.06,18.02-15.63,18.58-2.77.24-3.79-2.54-5.91-2.54-3.02-5.44-5.21-11.72-7.61-17.7-8.4-7.49-11.71-20.06-21.51-26.19-4.32,4.41-8.94,8.53-10.56,15.6-2.46,1.33-3.61,4.02-5.89,5.47-4.97,12.22-16.16,20.48-21.96,30.42-2.73.12-5.47,3.41-9.3,2.96-1.87-.24-2.31-1.81-3.79-2.54-3.32-1.63-7.63-1.24-10.12-2.99-3.05-2.01-3.79-9.24-4.2-12.64-1.01-7.84-.44-15.86-4.68-21.1ZM1085.63,469.44c-1.54.45-2.54,5.3-3.81,7.55-1.42,2.63-3.47,4.23-3.79,5.95-1.63,8.02,6.54,7.78,10.98,10.56,1.78,1.09,2.78,3.43,4.21,3.73,2.36.53,3.49-.62,5.5-1.21,5.86-11.54,3.79-23.32-.44-35.03-7.25-1.31-10.51,7.78-12.64,8.46Z"/>
  </g>
</svg>