<?xml version="1.0" encoding="UTF-8" standalone="no"?>
<!-- Created with Inkscape (http://www.inkscape.org/) -->

<svg
   width="2100"
   height="900"
   viewBox="0 0 555.62498 238.125"
   version="1.1"
   id="svg1"
   inkscape:version="1.3.2 (091e20ef0f, 2023-11-25)"
   sodipodi:docname="nluug.svg"
   xml:space="preserve"
   inkscape:export-filename="microsoft.png"
   inkscape:export-xdpi="96"
   inkscape:export-ydpi="96"
   xmlns:inkscape="http://www.inkscape.org/namespaces/inkscape"
   xmlns:sodipodi="http://sodipodi.sourceforge.net/DTD/sodipodi-0.dtd"
   xmlns="http://www.w3.org/2000/svg"
   xmlns:svg="http://www.w3.org/2000/svg"><sodipodi:namedview
     id="namedview1"
     pagecolor="#ffffff"
     bordercolor="#000000"
     borderopacity="0.25"
     inkscape:showpageshadow="2"
     inkscape:pageopacity="0.0"
     inkscape:pagecheckerboard="0"
     inkscape:deskcolor="#d1d1d1"
     inkscape:document-units="mm"
     inkscape:zoom="0.29302964"
     inkscape:cx="1129.5786"
     inkscape:cy="-92.140851"
     inkscape:window-width="1920"
     inkscape:window-height="1100"
     inkscape:window-x="0"
     inkscape:window-y="0"
     inkscape:window-maximized="1"
     inkscape:current-layer="layer1" /><defs
     id="defs1"><clipPath
       clipPathUnits="userSpaceOnUse"
       id="clipPath1"><rect
         style="opacity:0.129301;fill:#000000;fill-opacity:1;stroke-width:12.7;stroke-linecap:round;stroke-linejoin:round"
         id="rect2"
         width="60.854168"
         height="60.854168"
         x="195.08763"
         y="116.66334" /></clipPath><clipPath
       clipPathUnits="userSpaceOnUse"
       id="clipPath1262"><g
         id="g1266"
         transform="translate(-380.0555,-558.637)"><path
           d="M 0,841.89 H 595.28 V 0 H 0 Z"
           id="path1264" /></g></clipPath><clipPath
       clipPathUnits="userSpaceOnUse"
       id="clipPath1256"><g
         id="g1260"
         transform="translate(-120.3988,-588.0071)"><path
           d="M 0,841.89 H 595.28 V 0 H 0 Z"
           id="path1258" /></g></clipPath><clipPath
       clipPathUnits="userSpaceOnUse"
       id="clipPath1250"><g
         id="g1254"
         transform="translate(-153.9027,-606.2884)"><path
           d="M 0,841.89 H 595.28 V 0 H 0 Z"
           id="path1252" /></g></clipPath><clipPath
       clipPathUnits="userSpaceOnUse"
       id="clipPath1244"><g
         id="g1248"
         transform="translate(-190.184,-606.2884)"><path
           d="M 0,841.89 H 595.28 V 0 H 0 Z"
           id="path1246" /></g></clipPath><clipPath
       clipPathUnits="userSpaceOnUse"
       id="clipPath1238"><g
         id="g1242"
         transform="translate(-229.5243,-589.1321)"><path
           d="M 0,841.89 H 595.28 V 0 H 0 Z"
           id="path1240" /></g></clipPath><clipPath
       clipPathUnits="userSpaceOnUse"
       id="clipPath1232"><g
         id="g1236"
         transform="translate(-267.9496,-623.0228)"><path
           d="M 0,841.89 H 595.28 V 0 H 0 Z"
           id="path1234" /></g></clipPath><clipPath
       clipPathUnits="userSpaceOnUse"
       id="clipPath1226"><g
         id="g1230"><path
           d="M 0,841.89 H 595.28 V 0 H 0 Z"
           id="path1228" /></g></clipPath><clipPath
       clipPathUnits="userSpaceOnUse"
       id="clipPath1220"><g
         id="g1224"
         transform="translate(-319.7699,-606.2884)"><path
           d="M 0,841.89 H 595.28 V 0 H 0 Z"
           id="path1222" /></g></clipPath><clipPath
       clipPathUnits="userSpaceOnUse"
       id="clipPath1214"><g
         id="g1218"
         transform="translate(-318.1908,-573.1605)"><path
           d="M 0,841.89 H 595.28 V 0 H 0 Z"
           id="path1216" /></g></clipPath><clipPath
       clipPathUnits="userSpaceOnUse"
       id="clipPath1208"><g
         id="g1212"><path
           d="M 0,841.89 H 595.28 V 0 H 0 Z"
           id="path1210" /></g></clipPath><clipPath
       clipPathUnits="userSpaceOnUse"
       id="clipPath2"><rect
         style="opacity:0.25671;fill:#b9bfc4;stroke-width:10.4792;stroke-linecap:round;stroke-linejoin:round"
         id="rect3"
         width="287.58838"
         height="80.817612"
         x="212.00186"
         y="-122.43213" /></clipPath></defs><g
     inkscape:label="图层 1"
     inkscape:groupmode="layer"
     id="layer1"><g
       style="clip-rule:evenodd;fill-rule:evenodd;stroke-linejoin:round;stroke-miterlimit:2"
       id="g3"
       transform="matrix(0.52297465,0,0,0.52297465,8.8429767,3.0541712)"><path
         d="m 237.758,222.776 -64.22,111.233 H 301.64 Z"
         style="fill:#fa198b"
         id="path1" /><path
         d="m 173.622,333.862 -64.051,-110.94 63.882,-110.94 -0.084,-0.147 h 0.169 l 0.169,-0.293 0.167,0.292 127.766,-0.292 z M 435.188,111.334 v 123.958 h -33.25 l -41.5,-71.542 h -0.787 v 71.542 H 329.69 V 111.334 h 33.614 l 40.955,71.421 h 1.029 v -71.421 z m 21.766,123.958 V 111.334 h 29.961 v 97.669 h 51.568 v 26.289 z m 172.89,-123.958 h 29.9 v 79.955 c 0,27.721 -21.124,45.577 -52.416,45.577 -31.534,0 -52.476,-17.856 -52.476,-45.577 v -79.955 h 29.96 v 77.353 c 0,12.892 9.079,22.152 22.516,22.152 13.376,0 22.516,-9.26 22.516,-22.152 z m 125.594,0 h 29.9 v 79.955 c 0,27.721 -21.124,45.577 -52.416,45.577 -31.534,0 -52.476,-17.856 -52.476,-45.577 v -79.955 h 29.96 v 77.353 c 0,12.892 9.079,22.152 22.516,22.152 13.376,0 22.516,-9.26 22.516,-22.152 z m 131.949,40.492 c -2.663,-10.047 -10.834,-15.918 -22.818,-15.918 -17.976,0 -29.295,13.558 -29.295,37.223 0,23.848 10.713,37.587 29.295,37.587 16.221,0 25.3,-7.509 25.603,-20.583 H 865.598 V 166.72 h 53.445 v 17.968 c 0,33.29 -22.819,52.299 -54.716,52.299 -35.529,0 -59.619,-24.271 -59.619,-63.492 0,-40.553 26.148,-63.856 59.256,-63.856 28.689,0 50.721,17.492 53.747,42.187 z"
         style="fill:#26266b"
         id="path2" /></g></g></svg>
