<?xml version="1.0" encoding="UTF-8" standalone="no"?>
<!-- Created with Inkscape (http://www.inkscape.org/) -->

<svg
   width="2100"
   height="900"
   viewBox="0 0 555.625 238.125"
   version="1.1"
   id="svg1"
   xmlns="http://www.w3.org/2000/svg"
   xmlns:svg="http://www.w3.org/2000/svg">
  <defs
     id="defs1" />
  <g
     id="layer1">
    <g
       id="g2"
       transform="matrix(9.8472924,0,0,9.8472924,-673.62697,-484.37138)">
      <g
         id="text234"
         style="font-weight:500;font-size:40px;line-height:1.25;font-family:Roboto;-inkscape-font-specification:'Roboto, Medium';letter-spacing:0px;word-spacing:0px;white-space:pre;fill:#003f85"
         transform="matrix(0.26458333,0,0,0.26458333,61.177216,21.531645)"
         aria-label="pine64">
        <path
           d="m 115.23438,146.07227 q 0,4.90234 -2.22657,7.83203 -2.22656,2.91015 -5.97656,2.91015 -3.47656,0 -5.56641,-2.28515 v 10.01953 h -4.74609 v -29.25781 h 4.375 l 0.19531,2.14843 q 2.08985,-2.53906 5.6836,-2.53906 3.86718,0 6.05468,2.89063 2.20704,2.87109 2.20704,7.98828 z m -4.72657,-0.41016 q 0,-3.16406 -1.26953,-5.01953 -1.25,-1.85547 -3.59375,-1.85547 -2.91015,0 -4.17969,2.40234 v 9.375 q 1.28907,2.46094 4.21875,2.46094 2.26563,0 3.53516,-1.81641 1.28906,-1.83593 1.28906,-5.54687 z m 13.78907,10.76172 h -4.7461 v -21.13281 h 4.7461 z m -5.03907,-26.6211 q 0,-1.09375 0.6836,-1.8164 0.70312,-0.72266 1.99218,-0.72266 1.28907,0 1.99219,0.72266 0.70313,0.72265 0.70313,1.8164 0,1.07422 -0.70313,1.79688 -0.70312,0.70312 -1.99219,0.70312 -1.28906,0 -1.99218,-0.70312 -0.6836,-0.72266 -0.6836,-1.79688 z m 14.60938,5.48829 0.13672,2.4414 q 2.34375,-2.83203 6.15234,-2.83203 6.60156,0 6.71875,7.55859 v 13.96485 h -4.74609 v -13.69141 q 0,-2.01172 -0.87891,-2.96875 -0.85938,-0.97656 -2.83203,-0.97656 -2.8711,0 -4.27735,2.59766 v 15.03906 h -4.74609 v -21.13281 z m 27.14843,21.52343 q -4.51171,0 -7.32421,-2.83203 -2.79297,-2.85156 -2.79297,-7.57812 v -0.58594 q 0,-3.16406 1.21093,-5.64453 1.23047,-2.5 3.4375,-3.88672 2.20704,-1.38672 4.92188,-1.38672 4.31641,0 6.66016,2.75391 2.36328,2.7539 2.36328,7.79297 v 1.91406 h -13.8086 q 0.21485,2.61719 1.73828,4.14062 1.54297,1.52344 3.86719,1.52344 3.26172,0 5.3125,-2.63672 l 2.5586,2.44141 q -1.26954,1.89453 -3.39844,2.94922 -2.10938,1.03515 -4.7461,1.03515 z m -0.5664,-18.10547 q -1.95313,0 -3.16406,1.36719 -1.19141,1.36719 -1.52344,3.8086 h 9.04297 v -0.35157 q -0.15625,-2.38281 -1.26953,-3.59375 -1.11329,-1.23047 -3.08594,-1.23047 z"
           id="path7" />
        <path
           style="fill:#4d90e6"
           d="m 187.63672,127.84961 v 3.92578 h -0.58594 q -3.98437,0.0586 -6.36719,2.1875 -2.38281,2.12891 -2.83203,6.03516 2.28516,-2.40235 5.83985,-2.40235 3.76953,0 5.9375,2.65625 2.1875,2.65625 2.1875,6.85547 0,4.33594 -2.5586,7.03125 -2.53906,2.67578 -6.67969,2.67578 -4.25781,0 -6.91406,-3.14453 -2.63672,-3.14453 -2.63672,-8.24219 v -1.62109 q 0,-7.48047 3.63282,-11.71875 3.65234,-4.23828 10.48828,-4.23828 z m -5.09766,13.57422 q -1.5625,0 -2.87109,0.8789 -1.28906,0.87891 -1.89453,2.34375 v 1.44532 q 0,3.16406 1.32812,5.03906 1.32813,1.85547 3.4375,1.85547 2.10938,0 3.33985,-1.58203 1.23046,-1.58203 1.23046,-4.16016 0,-2.57812 -1.25,-4.19922 -1.25,-1.62109 -3.32031,-1.62109 z m 29.1211,4.86328 h 3.53515 v 3.80859 h -3.53515 v 6.32813 h -4.7461 v -6.32813 h -12.28515 l -0.13672,-2.89062 12.26562,-19.21875 h 4.90235 z m -12.1875,0 h 7.4414 v -11.875 l -0.35156,0.625 z"
           id="path9" />
      </g>
      <g
         class="a"
         id="g26"
         style="isolation:isolate"
         transform="matrix(0.18140324,0,0,0.18140324,75.124488,54.625478)">
        <path
           class="b"
           d="m 239.073,61.61 3.738,9.374 -12.121,-5.347 z"
           transform="translate(-199.243,-53.212)"
           id="path6"
           style="fill:#4d90e6;fill-opacity:1" />
        <path
           class="c"
           d="m 229.33,163.263 19,-8.343 v 16.767 z"
           transform="translate(-198.069,-133.802)"
           id="path8"
           style="fill:#0069b5;fill-opacity:1" />
        <path
           class="d"
           d="m 227.81,296.973 15.859,6.979 7.268,-16.643 z"
           transform="translate(-196.756,-248.145)"
           id="path10"
           style="fill:#003f85;fill-opacity:1" />
        <path
           class="e"
           d="M 152.633,10.342 146.85,7.789 153.928,0 h -0.011 l 7.078,7.789 -5.823,2.571 a 3.282,3.282 0 0 1 -0.363,0.147 c -0.079,0.027 -0.155,0.05 -0.23,0.07 a 2.365,2.365 0 0 1 -1.088,0.02 c -0.059,-0.012 -0.119,-0.026 -0.179,-0.041 a 5.974,5.974 0 0 1 -0.6,-0.181 c -0.025,-0.01 -0.052,-0.02 -0.079,-0.033 z"
           transform="translate(-126.832)"
           id="path12"
           style="fill:#4d90e6;fill-opacity:1" />
        <path
           class="b"
           d="m 81.6,61.61 -3.74,9.374 12.12,-5.348 z"
           transform="translate(-67.246,-53.212)"
           id="path14"
           style="fill:#4d90e6;fill-opacity:1" />
        <path
           class="b"
           d="m 89.856,114.695 a 1.412,1.412 0 0 1 -0.243,-0.082 L 73.3,107.5 v 0 l 16.351,-7.127 a 1.4,1.4 0 0 1 0.209,-0.074 2.327,2.327 0 0 1 0.543,-0.063 2.218,2.218 0 0 1 0.532,0.063 1.46,1.46 0 0 1 0.209,0.074 l 16.351,7.127 v 0 q -8.159,3.556 -16.318,7.113 a 1.435,1.435 0 0 1 -0.211,0.074 h -0.005 a 2.2,2.2 0 0 1 -1.028,0.022 z"
           transform="translate(-63.308,-86.576)"
           id="path16"
           style="fill:#4d90e6;fill-opacity:1" />
        <path
           class="c"
           d="m 47.777,163.263 -19,-8.343 v 16.767 z"
           transform="translate(-24.857,-133.802)"
           id="path18"
           style="fill:#0069b5;fill-opacity:1" />
        <path
           class="d"
           d="M 23.126,296.973 7.268,303.953 0,287.31 Z"
           transform="translate(0,-248.145)"
           id="path20"
           style="fill:#003f85;fill-opacity:1" />
        <path
           class="d"
           d="m 90.662,368.291 a 1.821,1.821 0 0 0 -0.281,0.044 3.462,3.462 0 0 0 -0.552,0.17 l -16.209,7.226 14.841,6.554 a 0.634,0.634 0 0 1 0.378,0.579 v 8.58 h 3.674 v -8.58 a 0.634,0.634 0 0 1 0.378,-0.579 l 14.841,-6.554 -16.211,-7.231 a 3.414,3.414 0 0 0 -0.552,-0.17 1.843,1.843 0 0 0 -0.281,-0.044"
           transform="translate(-63.584,-318.086)"
           id="path22"
           style="fill:#003f85;fill-opacity:1" />
        <path
           class="c"
           d="m 75.246,243.634 c -0.438,-0.2 -8.175,-3.531 -18.816,-8.115 0,0 18,-7.82 18.538,-8.054 a 2.216,2.216 0 0 1 1.723,0 c 0.543,0.232 18.538,8.054 18.538,8.054 l -18.816,8.115 a 1.724,1.724 0 0 1 -0.484,0.123 0.715,0.715 0 0 1 -0.187,0 1.933,1.933 0 0 1 -0.496,-0.123 z"
           transform="translate(-48.738,-196.308)"
           id="path24"
           style="fill:#0069b5;fill-opacity:1" />
      </g>
      <path
         style="font-size:13.3333px;line-height:1;font-family:Roboto;-inkscape-font-specification:'Roboto, Normal';text-align:end;letter-spacing:0px;word-spacing:0px;text-anchor:end;white-space:pre;fill:#003f85"
         d="m 462.91097,267.49477 q 0.64453,0 1.1263,-0.39063 0.48176,-0.39062 0.53385,-0.97656 h 1.13932 q -0.0326,0.60547 -0.41667,1.15235 -0.38411,0.54687 -1.02864,0.87239 -0.63802,0.32552 -1.35416,0.32552 -1.4388,0 -2.29166,-0.95703 -0.84636,-0.96354 -0.84636,-2.6302 v -0.20182 q 0,-1.02865 0.37761,-1.82943 0.3776,-0.80078 1.08072,-1.24348 0.70964,-0.44271 1.67318,-0.44271 1.18489,0 1.96614,0.70963 0.78775,0.70964 0.83984,1.84245 h -1.13932 q -0.0521,-0.6836 -0.52083,-1.11979 -0.46224,-0.44271 -1.14583,-0.44271 -0.91797,0 -1.42578,0.66406 -0.5013,0.65755 -0.5013,1.90755 v 0.22786 q 0,1.21745 0.5013,1.875 0.5013,0.65755 1.43229,0.65755 z m 3.83462,-2.73437 q 0,-1.03515 0.40365,-1.86197 0.41015,-0.82682 1.13281,-1.27604 0.72916,-0.44922 1.66015,-0.44922 1.4388,0 2.32421,0.99609 0.89193,0.99609 0.89193,2.64973 v 0.0846 q 0,1.02864 -0.39714,1.84895 -0.39062,0.8138 -1.1263,1.26953 -0.72916,0.45573 -1.67968,0.45573 -1.43229,0 -2.32421,-0.99609 -0.88542,-0.99609 -0.88542,-2.63671 z m 1.21094,0.14323 q 0,1.17187 0.54036,1.8815 0.54687,0.70964 1.45833,0.70964 0.91797,0 1.45833,-0.71615 0.54036,-0.72265 0.54036,-2.01822 0,-1.15885 -0.55338,-1.87499 -0.54688,-0.72266 -1.45833,-0.72266 -0.89193,0 -1.4388,0.70963 -0.54687,0.70964 -0.54687,2.03125 z m 7.84503,-3.60025 0.0326,0.78125 q 0.77474,-0.91146 2.08984,-0.91146 1.47786,0 2.01171,1.13281 0.35156,-0.50781 0.91146,-0.82031 0.5664,-0.3125 1.33463,-0.3125 2.3177,0 2.35676,2.45442 v 4.72004 h -1.20442 v -4.64842 q 0,-0.75521 -0.34505,-1.1263 -0.34505,-0.37761 -1.15885,-0.37761 -0.67057,0 -1.11328,0.40365 -0.44271,0.39713 -0.51432,1.07421 v 4.67447 h -1.21094 v -4.61587 q 0,-1.53646 -1.5039,-1.53646 -1.18489,0 -1.62109,1.00911 v 5.14322 h -1.20442 v -7.04425 z m 11.68617,0 0.0326,0.78125 q 0.77474,-0.91146 2.08984,-0.91146 1.47786,0 2.01171,1.13281 0.35156,-0.50781 0.91146,-0.82031 0.5664,-0.3125 1.33463,-0.3125 2.3177,0 2.35676,2.45442 v 4.72004 h -1.20442 v -4.64842 q 0,-0.75521 -0.34505,-1.1263 -0.34505,-0.37761 -1.15885,-0.37761 -0.67057,0 -1.11328,0.40365 -0.44271,0.39713 -0.51432,1.07421 v 4.67447 h -1.21094 v -4.61587 q 0,-1.53646 -1.5039,-1.53646 -1.18489,0 -1.62109,1.00911 v 5.14322 h -1.20442 v -7.04425 z m 14.9023,6.34764 q -0.70312,0.82682 -2.06379,0.82682 -1.1263,0 -1.71875,-0.65104 -0.58593,-0.65755 -0.59244,-1.9401 v -4.58332 h 1.20442 v 4.55077 q 0,1.60156 1.30208,1.60156 1.3802,0 1.83593,-1.02865 v -5.12368 h 1.20443 v 7.04425 h -1.14583 z m 4.14062,-6.34764 0.0391,0.88541 q 0.80729,-1.01562 2.10937,-1.01562 2.23307,0 2.2526,2.51952 v 4.65494 h -1.20443 v -4.66145 q -0.007,-0.76171 -0.35156,-1.12629 -0.33854,-0.36459 -1.06119,-0.36459 -0.58594,0 -1.02865,0.3125 -0.4427,0.3125 -0.6901,0.82031 v 5.01952 h -1.20442 v -7.04425 z m 7.52602,7.04425 h -1.20442 v -7.04425 h 1.20442 z m -1.30208,-8.91274 q 0,-0.29296 0.17578,-0.49479 0.18229,-0.20182 0.53385,-0.20182 0.35157,0 0.53386,0.20182 0.18229,0.20183 0.18229,0.49479 0,0.29297 -0.18229,0.48828 -0.18229,0.19532 -0.53386,0.19532 -0.35156,0 -0.53385,-0.19532 -0.17578,-0.19531 -0.17578,-0.48828 z m 4.86327,0.16276 v 1.70573 h 1.3151 v 0.93099 h -1.3151 v 4.36847 q 0,0.42318 0.17578,0.63802 0.17578,0.20834 0.59896,0.20834 0.20833,0 0.57291,-0.0781 v 0.97656 q -0.47526,0.13021 -0.92447,0.13021 -0.80729,0 -1.21745,-0.48828 -0.41015,-0.48828 -0.41015,-1.38672 v -4.36847 h -1.28255 v -0.93099 h 1.28255 v -1.70573 z m 5.02603,6.98566 1.64062,-5.27993 h 1.28906 l -2.83203,8.13149 q -0.65755,1.75781 -2.08983,1.75781 l -0.22787,-0.0195 -0.44922,-0.0846 v -0.97656 l 0.32552,0.026 q 0.61198,0 0.95052,-0.24739 0.34505,-0.2474 0.56641,-0.90495 l 0.26692,-0.71614 -2.51301,-6.96613 h 1.3151 z"
         id="text1209"
         transform="matrix(0.26428944,0,0,0.26428944,-21.171265,-3.7864796)"
         aria-label="community" />
    </g>
  </g>
</svg>
