<?xml version="1.0" encoding="UTF-8" standalone="no"?>
<!-- Created with Inkscape (http://www.inkscape.org/) -->

<svg
   width="2100"
   height="900"
   viewBox="0 0 555.62498 238.125"
   version="1.1"
   id="svg1"
   inkscape:version="1.3.2 (091e20ef0f, 2023-11-25)"
   sodipodi:docname="qingcloud.svg"
   xml:space="preserve"
   inkscape:export-filename="microsoft.png"
   inkscape:export-xdpi="96"
   inkscape:export-ydpi="96"
   xmlns:inkscape="http://www.inkscape.org/namespaces/inkscape"
   xmlns:sodipodi="http://sodipodi.sourceforge.net/DTD/sodipodi-0.dtd"
   xmlns="http://www.w3.org/2000/svg"
   xmlns:svg="http://www.w3.org/2000/svg"><sodipodi:namedview
     id="namedview1"
     pagecolor="#ffffff"
     bordercolor="#000000"
     borderopacity="0.25"
     inkscape:showpageshadow="2"
     inkscape:pageopacity="0.0"
     inkscape:pagecheckerboard="0"
     inkscape:deskcolor="#d1d1d1"
     inkscape:document-units="mm"
     inkscape:zoom="0.27866544"
     inkscape:cx="888.1618"
     inkscape:cy="868.42488"
     inkscape:window-width="1920"
     inkscape:window-height="1100"
     inkscape:window-x="0"
     inkscape:window-y="0"
     inkscape:window-maximized="1"
     inkscape:current-layer="layer1" /><defs
     id="defs1"><clipPath
       clipPathUnits="userSpaceOnUse"
       id="clipPath1"><rect
         style="opacity:0.129301;fill:#000000;fill-opacity:1;stroke-width:12.7;stroke-linecap:round;stroke-linejoin:round"
         id="rect2"
         width="60.854168"
         height="60.854168"
         x="195.08763"
         y="116.66334" /></clipPath></defs><g
     inkscape:label="图层 1"
     inkscape:groupmode="layer"
     id="layer1"><g
       id="g1"
       transform="matrix(14.529398,0,0,14.529398,-7172.5515,-5357.241)"><path
         d="m 500.77165,377.98917 c -8.2e-4,3.4e-4 -0.002,5.3e-4 -0.003,5.3e-4 -9e-4,0 -0.002,-1.9e-4 -0.003,-5.3e-4 l -1.57601,-0.89892 c -3.9e-4,-6.7e-4 -5.9e-4,-0.001 -5.9e-4,-0.002 0,-7.7e-4 2e-4,-0.002 5.9e-4,-0.002 v -1.79638 c -4.8e-4,-6.3e-4 -7.4e-4,-0.001 -7.4e-4,-0.002 0,-7.9e-4 2.6e-4,-0.002 7.4e-4,-0.002 l 1.57601,-0.89966 h 0.005 l 1.57601,0.89966 c 3.7e-4,6.7e-4 5.8e-4,0.001 5.8e-4,0.002 0,7.8e-4 -2.1e-4,0.002 -5.8e-4,0.002 v 1.79638 c 3.2e-4,6.9e-4 5.1e-4,10e-4 5.1e-4,0.002 0,7.7e-4 -1.9e-4,0.002 -5.1e-4,0.002 z"
         fill="#0fa06d"
         id="path1"
         style="stroke-width:0.264583" /><path
         d="m 503.32802,378.42666 h -5.11761 v 1.011 h 5.11761 z"
         fill="#0fa06d"
         id="path2"
         style="stroke-width:0.264583" /><path
         d="m 507.78985,376.42768 c 0,0.548 -0.16991,1.02565 -0.49048,1.35826 l 0.47043,0.76047 h -0.57579 l -0.28493,-0.474 c -0.25281,0.12591 -0.53311,0.18856 -0.81621,0.18243 -1.113,0 -1.70662,-0.80002 -1.70662,-1.82716 0,-1.02714 0.59362,-1.82716 1.70662,-1.82716 1.11302,0 1.70068,0.80002 1.70068,1.82716 z m -1.17089,1.16633 -0.59954,-0.99783 h 0.54983 l 0.40513,0.65935 c 0.14428,-0.25069 0.21518,-0.53603 0.20479,-0.82419 0,-0.69672 -0.33465,-1.28941 -1.09001,-1.28941 -0.75536,0 -1.09445,0.58902 -1.09445,1.28575 0,0.69672 0.33539,1.28868 1.09519,1.28868 0.18415,0.005 0.36653,-0.0367 0.52906,-0.12235"
         fill="#393945"
         id="path3"
         style="stroke-width:0.264583" /><path
         d="m 508.16381,374.60052 h 0.58026 v 0.53775 h -0.58026 z m 0.5706,3.58984 H 508.169 v -2.51362 h 0.56541 z"
         fill="#393945"
         id="path4"
         style="stroke-width:0.264583" /><path
         d="m 511.0397,378.19036 v -1.46525 c 0,-0.40954 -0.18994,-0.61687 -0.56541,-0.61687 -0.40513,0 -0.66038,0.34067 -0.66038,0.73262 v 1.3495 h -0.56541 v -2.51363 h 0.54538 v 0.2425 h 0.1202 c 0.14841,-0.19268 0.39548,-0.30623 0.73533,-0.30623 0.63516,0 0.95571,0.38022 0.95571,1.00735 v 1.57001 z"
         fill="#393945"
         id="path5"
         style="stroke-width:0.264583" /><path
         d="m 514.43875,375.67664 v 2.39053 c 0,0.71138 -0.48527,1.15535 -1.23023,1.15535 -0.67596,0 -1.13083,-0.28133 -1.18721,-0.80954 h 0.56022 c 0.0549,0.25127 0.27528,0.3502 0.62032,0.3502 0.48006,0 0.67522,-0.29305 0.67522,-0.73263 v -0.17071 h -0.1269 c -0.11946,0.1729 -0.34501,0.30625 -0.71009,0.30625 -0.69527,0 -1.12043,-0.54361 -1.12043,-1.27403 0,-0.73042 0.43852,-1.27622 1.1234,-1.27622 0.37991,0 0.61513,0.14652 0.73014,0.30623 h 0.1202 v -0.24543 z m -0.54536,1.21542 c 0,-0.43518 -0.23521,-0.80588 -0.71011,-0.80588 -0.44001,0 -0.69525,0.33041 -0.69525,0.80588 0,0.47547 0.25524,0.80001 0.69525,0.80001 0.4749,0 0.71011,-0.37068 0.71011,-0.80001 z"
         fill="#393945"
         id="path6"
         style="stroke-width:0.264583" /><path
         d="m 517.94834,377.12366 c -0.11723,0.66667 -0.64553,1.12969 -1.45285,1.12969 -1.07516,0 -1.67989,-0.76557 -1.67989,-1.82714 0,-1.06157 0.60695,-1.82569 1.67989,-1.82569 0.76057,0 1.28071,0.41466 1.40983,1.04179 h -0.62997 c -0.11502,-0.33554 -0.36063,-0.50331 -0.7806,-0.50331 -0.73531,0 -1.07516,0.59195 -1.07516,1.28868 0,0.69672 0.33835,1.28868 1.0759,1.28868 0.44077,0 0.73088,-0.21979 0.82513,-0.5927 z"
         fill="#393945"
         id="path7"
         style="stroke-width:0.264583" /><path
         d="m 518.8733,374.60052 h -0.56542 v 3.59058 h 0.56542 z"
         fill="#393945"
         id="path8"
         style="stroke-width:0.264583" /><path
         d="m 521.79827,376.93454 c 0,0.77073 -0.48527,1.32384 -1.28516,1.32384 -0.79986,0 -1.2859,-0.55679 -1.2859,-1.32384 0,-0.76704 0.48527,-1.3187 1.2859,-1.3187 0.80063,0 1.28516,0.55386 1.28516,1.3187 z m -0.56542,0 c 0,-0.43956 -0.22259,-0.84397 -0.71974,-0.84397 -0.49713,0 -0.72049,0.40441 -0.72049,0.84397 0,0.43958 0.22262,0.84984 0.72049,0.84984 0.49789,0 0.71974,-0.4 0.71974,-0.84984 z"
         fill="#393945"
         id="path9"
         style="stroke-width:0.264583" /><path
         d="m 522.68184,375.67669 v 1.46523 c 0,0.40955 0.18997,0.61687 0.56468,0.61687 0.40513,0 0.6604,-0.34067 0.6604,-0.73263 v -1.34947 h 0.56539 v 2.51361 h -0.54536 v -0.24177 h -0.1202 c -0.14841,0.19269 -0.39476,0.30625 -0.73459,0.30625 -0.63516,0 -0.9557,-0.38023 -0.9557,-1.00737 v -1.57072 z"
         fill="#393945"
         id="path10"
         style="stroke-width:0.264583" /><path
         d="m 526.66094,375.91924 h 0.12038 v -1.31872 h 0.56542 v 3.58984 h -0.54557 v -0.24178 h -0.12012 c -0.14023,0.17291 -0.37095,0.30626 -0.7501,0.30626 -0.69003,0 -1.1004,-0.57293 -1.1004,-1.32385 0,-0.75094 0.4146,-1.31872 1.1004,-1.31872 0.37545,0 0.59346,0.12894 0.72999,0.30697 z m 0.1315,1.0154 c 0,-0.43956 -0.21008,-0.84397 -0.70512,-0.84397 -0.46513,0 -0.69506,0.36045 -0.69506,0.84397 0,0.48353 0.22993,0.84985 0.69506,0.84985 0.49504,0 0.70512,-0.40003 0.70512,-0.84985 z"
         fill="#393945"
         id="path11"
         style="stroke-width:0.264583" /></g></g></svg>
