<?xml version="1.0" encoding="UTF-8" standalone="no"?>
<!-- Created with Inkscape (http://www.inkscape.org/) -->

<svg
   width="2100"
   height="900"
   viewBox="0 0 555.62498 238.125"
   version="1.1"
   id="svg1"
   inkscape:version="1.3.2 (091e20ef0f, 2023-11-25)"
   sodipodi:docname="sjtug.svg"
   xml:space="preserve"
   inkscape:export-filename="microsoft.png"
   inkscape:export-xdpi="96"
   inkscape:export-ydpi="96"
   xmlns:inkscape="http://www.inkscape.org/namespaces/inkscape"
   xmlns:sodipodi="http://sodipodi.sourceforge.net/DTD/sodipodi-0.dtd"
   xmlns="http://www.w3.org/2000/svg"
   xmlns:svg="http://www.w3.org/2000/svg"><sodipodi:namedview
     id="namedview1"
     pagecolor="#ffffff"
     bordercolor="#000000"
     borderopacity="0.25"
     inkscape:showpageshadow="2"
     inkscape:pageopacity="0.0"
     inkscape:pagecheckerboard="0"
     inkscape:deskcolor="#d1d1d1"
     inkscape:document-units="mm"
     inkscape:zoom="0.22480256"
     inkscape:cx="1443.4889"
     inkscape:cy="369.21288"
     inkscape:window-width="1920"
     inkscape:window-height="1100"
     inkscape:window-x="0"
     inkscape:window-y="0"
     inkscape:window-maximized="1"
     inkscape:current-layer="layer1" /><defs
     id="defs1"><clipPath
   clipPathUnits="userSpaceOnUse"
   id="clipPath1"><rect
     style="opacity:0.129301;fill:#000000;fill-opacity:1;stroke-width:12.7;stroke-linecap:round;stroke-linejoin:round"
     id="rect2"
     width="60.854168"
     height="60.854168"
     x="195.08763"
     y="116.66334" /></clipPath><clipPath
   clipPathUnits="userSpaceOnUse"
   id="clipPath1262"><g
     id="g1266"
     transform="translate(-380.0555,-558.637)"><path
       d="M 0,841.89 H 595.28 V 0 H 0 Z"
       id="path1264" /></g></clipPath><clipPath
   clipPathUnits="userSpaceOnUse"
   id="clipPath1256"><g
     id="g1260"
     transform="translate(-120.3988,-588.0071)"><path
       d="M 0,841.89 H 595.28 V 0 H 0 Z"
       id="path1258" /></g></clipPath><clipPath
   clipPathUnits="userSpaceOnUse"
   id="clipPath1250"><g
     id="g1254"
     transform="translate(-153.9027,-606.2884)"><path
       d="M 0,841.89 H 595.28 V 0 H 0 Z"
       id="path1252" /></g></clipPath><clipPath
   clipPathUnits="userSpaceOnUse"
   id="clipPath1244"><g
     id="g1248"
     transform="translate(-190.184,-606.2884)"><path
       d="M 0,841.89 H 595.28 V 0 H 0 Z"
       id="path1246" /></g></clipPath><clipPath
   clipPathUnits="userSpaceOnUse"
   id="clipPath1238"><g
     id="g1242"
     transform="translate(-229.5243,-589.1321)"><path
       d="M 0,841.89 H 595.28 V 0 H 0 Z"
       id="path1240" /></g></clipPath><clipPath
   clipPathUnits="userSpaceOnUse"
   id="clipPath1232"><g
     id="g1236"
     transform="translate(-267.9496,-623.0228)"><path
       d="M 0,841.89 H 595.28 V 0 H 0 Z"
       id="path1234" /></g></clipPath><clipPath
   clipPathUnits="userSpaceOnUse"
   id="clipPath1226"><g
     id="g1230"><path
       d="M 0,841.89 H 595.28 V 0 H 0 Z"
       id="path1228" /></g></clipPath><clipPath
   clipPathUnits="userSpaceOnUse"
   id="clipPath1220"><g
     id="g1224"
     transform="translate(-319.7699,-606.2884)"><path
       d="M 0,841.89 H 595.28 V 0 H 0 Z"
       id="path1222" /></g></clipPath><clipPath
   clipPathUnits="userSpaceOnUse"
   id="clipPath1214"><g
     id="g1218"
     transform="translate(-318.1908,-573.1605)"><path
       d="M 0,841.89 H 595.28 V 0 H 0 Z"
       id="path1216" /></g></clipPath><clipPath
   clipPathUnits="userSpaceOnUse"
   id="clipPath1208"><g
     id="g1212"><path
       d="M 0,841.89 H 595.28 V 0 H 0 Z"
       id="path1210" /></g></clipPath><clipPath
   clipPathUnits="userSpaceOnUse"
   id="clipPath2"><rect
     style="opacity:0.25671;fill:#b9bfc4;stroke-width:10.4792;stroke-linecap:round;stroke-linejoin:round"
     id="rect3"
     width="287.58838"
     height="80.817612"
     x="212.00186"
     y="-122.43213" /></clipPath><clipPath
   clipPathUnits="userSpaceOnUse"
   id="clipPath3"><rect
     style="opacity:0.25671;fill:#b9bfc4;stroke-width:11.8943;stroke-linecap:round;stroke-linejoin:round"
     id="rect4"
     width="85.776512"
     height="16.947403"
     x="244.23143"
     y="34.239693" /></clipPath><clipPath
   id="_clip1">
                <path
   d="m 556.898,110.327 c -61.787,3.473 -147.33,46.321 -214.675,135.619 -22.045,29.232 -41.857,61.43 -56.498,92.031 -31.16,7.525 -77.571,15.611 -94.758,23.192 -36.386,59.64 -33.658,120.558 -41.886,174.693 35.179,-52.467 55.175,-74.393 111.442,-101.773 2.037,18.34 8.834,32.676 21.226,41.079 11.486,9.605 27.138,12.199 45.332,9.116 -10.858,61.626 -26.444,86.879 -67.218,135.125 49.788,-22.791 109.109,-36.915 156.448,-88.294 2.565,-18.609 -2.419,-65.455 -3.75,-97.483 25.399,-22.488 50.91,-50.388 72.955,-79.62 67.345,-89.298 85.028,-183.324 71.382,-243.685 z m -61.508,81.559 c 5.023,3.788 6.025,10.932 2.236,15.956 -3.789,5.023 -10.933,6.025 -15.956,2.236 -5.024,-3.789 -6.025,-10.933 -2.237,-15.956 3.789,-5.024 10.933,-6.025 15.957,-2.236 z"
   id="path12" />
            </clipPath>
        
        
        
        
        
    </defs><g
     inkscape:label="图层 1"
     inkscape:groupmode="layer"
     id="layer1"><g
       id="g2"
       transform="matrix(0.79821798,0,0,0.79821798,26.117818,24.024671)"><g
         id="g7678"
         transform="matrix(0.22604322,0,0,0.22604322,23.480754,52.649822)"
         style="clip-rule:evenodd;fill-rule:evenodd;stroke-miterlimit:1.41421"><g
           transform="matrix(0.845768,0,0,0.845768,92.2275,-12.8563)"
           id="g4">
            <path
   d="M 360,30.436 C 542.013,30.436 689.564,177.987 689.564,360 689.564,542.014 542.013,689.565 360,689.565 177.986,689.565 30.435,542.014 30.435,360 30.435,177.987 177.986,30.436 360,30.436 Z"
   style="fill:#ffa600"
   id="path2" />
        </g><g
           transform="matrix(0.845768,0,0,0.845768,92.2275,-12.8563)"
           id="g8">
            <path
   d="m 281.923,474.938 c 13.839,10.437 -12.049,68.1 -57.822,128.794 -45.773,60.694 -73.64,69.846 -107.938,90.999 12.514,-40.918 12.049,-68.101 57.822,-128.795 45.773,-60.694 94.098,-101.435 107.938,-90.998 z"
   style="fill:#ffc200"
   id="path6" />
        </g><g
           transform="matrix(0.845768,0,0,0.845768,92.2275,-12.8563)"
           id="g19">
            <path
   d="m 556.898,110.327 c -61.787,3.473 -147.33,46.321 -214.675,135.619 -22.045,29.232 -41.857,61.43 -56.498,92.031 -31.16,7.525 -77.571,15.611 -94.758,23.192 -36.386,59.64 -33.658,120.558 -41.886,174.693 35.179,-52.467 55.175,-74.393 111.442,-101.773 2.037,18.34 8.834,32.676 21.226,41.079 11.486,9.605 27.138,12.199 45.332,9.116 -10.858,61.626 -26.444,86.879 -67.218,135.125 49.788,-22.791 109.109,-36.915 156.448,-88.294 2.565,-18.609 -2.419,-65.455 -3.75,-97.483 25.399,-22.488 50.91,-50.388 72.955,-79.62 67.345,-89.298 85.028,-183.324 71.382,-243.685 z m -61.508,81.559 c 5.023,3.788 6.025,10.932 2.236,15.956 -3.789,5.023 -10.933,6.025 -15.956,2.236 -5.024,-3.789 -6.025,-10.933 -2.237,-15.956 3.789,-5.024 10.933,-6.025 15.957,-2.236 z"
   style="fill:#ffffff"
   id="path10" />
            <clipPath
   id="clipPath1-5">
                <path
   d="m 556.898,110.327 c -61.787,3.473 -147.33,46.321 -214.675,135.619 -22.045,29.232 -41.857,61.43 -56.498,92.031 -31.16,7.525 -77.571,15.611 -94.758,23.192 -36.386,59.64 -33.658,120.558 -41.886,174.693 35.179,-52.467 55.175,-74.393 111.442,-101.773 2.037,18.34 8.834,32.676 21.226,41.079 11.486,9.605 27.138,12.199 45.332,9.116 -10.858,61.626 -26.444,86.879 -67.218,135.125 49.788,-22.791 109.109,-36.915 156.448,-88.294 2.565,-18.609 -2.419,-65.455 -3.75,-97.483 25.399,-22.488 50.91,-50.388 72.955,-79.62 67.345,-89.298 85.028,-183.324 71.382,-243.685 z m -61.508,81.559 c 5.023,3.788 6.025,10.932 2.236,15.956 -3.789,5.023 -10.933,6.025 -15.956,2.236 -5.024,-3.789 -6.025,-10.933 -2.237,-15.956 3.789,-5.024 10.933,-6.025 15.957,-2.236 z"
   id="path1" />
            </clipPath>
            <g
   clip-path="url(#_clip1)"
   id="g17">
                <path
   d="m 285.075,300.926 38.973,61.257 -24.338,49.053 38.073,28.766 40.538,-36.813 69.574,20.756"
   style="fill:none;stroke:#ffa600;stroke-width:2.25px"
   id="path15" />
            </g>
        </g></g><g
         id="g1"
         transform="matrix(0.81102202,0,0,0.81102202,9.2509943,27.39072)"><path
           d="m 342.93588,123.66828 c 0,9.95407 -6.34061,18.57866 -19.02182,25.87376 -12.68122,7.29511 -32.7939,12.37441 -60.33804,15.23791 -0.9545,-0.68178 -2.45443,-2.31807 -4.49979,-4.90885 -2.04535,-2.59079 -3.818,-5.1134 -5.31792,-7.56782 -3.95436,-6.54515 -6.88604,-14.18115 -8.79504,-22.908 l 19.22636,2.8635 c 6.27243,0.68178 11.79489,1.02267 16.56739,1.02267 15.13564,0 22.70346,-3.34075 22.70346,-10.02225 -18.54457,-1.63628 -31.70303,-4.19298 -39.47539,-7.67008 -7.77236,-3.47711 -11.65853,-9.64727 -11.65853,-18.510487 0,-12.953929 7.70417,-23.317072 23.11253,-31.089429 15.40836,-7.772357 36.271,-11.658536 62.58793,-11.658536 l 6.34061,43.566108 c -14.18115,-4.090714 -33.54386,-6.476964 -58.08815,-7.15875 2.8635,4.090714 7.636,7.295107 14.3175,9.613174 6.6815,2.31808 13.0562,3.88618 19.12409,4.70433 6.0679,0.81814 11.454,2.72714 16.15833,5.727 4.70432,2.99985 7.05648,7.2951 7.05648,12.88575 z"
           style="clip-rule:evenodd;fill:#ffa600;fill-opacity:1;fill-rule:nonzero;stroke-width:0.170446;stroke-linejoin:round;stroke-miterlimit:2"
           id="path1-5" /><path
           d="m 361.13956,47.785525 c 7.49964,2.8635 14.59021,5.079304 21.27171,6.647411 6.6815,1.568107 11.454,2.42034 14.3175,2.556697 l 4.29525,0.204535 c -0.9545,16.908286 -2.18171,31.05534 -3.68164,42.441161 -1.49993,11.385821 -3.74982,22.294391 -6.74968,32.725711 -2.99986,10.43133 -6.74968,18.71502 -11.24947,24.85109 -9.95407,12.95393 -24.40792,19.97633 -43.36157,21.06718 0.68179,-0.68178 1.6022,-1.73855 2.76124,-3.1703 1.15903,-1.43175 3.1703,-5.4202 6.0338,-11.96534 2.8635,-6.54514 5.38611,-14.21523 7.56782,-23.01027 2.18171,-8.79503 4.19298,-21.37398 6.0338,-37.73684 1.84083,-16.362856 2.76124,-34.566534 2.76124,-54.611035 z"
           style="clip-rule:evenodd;fill:#ffa600;fill-opacity:1;fill-rule:nonzero;stroke-width:0.170446;stroke-linejoin:round;stroke-miterlimit:2"
           id="path2-6" /><path
           d="m 415.13699,56.989633 c 13.77207,3.954357 29.79403,5.931535 48.06589,5.931535 12.4085,0 24.06703,-0.749964 34.97561,-2.249892 -4.49979,7.499642 -7.22693,20.112678 -8.18143,37.839107 l -25.36243,0.818143 c -3.95436,21.544424 -6.61332,43.702464 -7.97689,66.474104 -15.40836,-2.18171 -26.58965,-4.90885 -33.54386,-8.18143 l -3.68164,-1.84082 14.72657,-55.63371 -31.29397,0.81814 c 3.40893,-4.22707 6.13607,-9.988159 8.18143,-17.283266 2.04536,-7.295108 3.20439,-13.601626 3.47711,-18.919554 z"
           style="clip-rule:evenodd;fill:#ffa600;fill-opacity:1;fill-rule:nonzero;stroke-width:0.170446;stroke-linejoin:round;stroke-miterlimit:2"
           id="path3" /><path
           d="m 579.17463,159.25749 c -14.04479,0 -22.83982,-4.70432 -26.38511,-14.11296 -4.22707,4.36342 -9.98816,7.70417 -17.28327,10.02225 -7.2951,2.31807 -13.87434,3.4771 -19.73769,3.4771 -9.81772,0 -16.84011,-0.40907 -21.06718,-1.22721 l -2.24989,-0.40907 c -0.13636,-1.77265 -0.20454,-3.64756 -0.20454,-5.62473 0,-1.97718 0.0341,-4.53388 0.10227,-7.67009 0.0682,-3.13622 1.2613,-12.20397 3.57937,-27.20325 2.31807,-14.99929 5.79518,-30.339469 10.43132,-46.02054 5.727,-2.8635 13.22665,-5.590643 22.49893,-8.181429 9.27229,-2.590785 17.5219,-3.954357 24.74882,-4.090714 -1.49992,2.590786 -3.40892,6.20425 -5.727,10.840393 -2.31807,4.636143 -5.69291,13.635714 -10.12451,26.998714 -4.43161,13.362996 -7.26102,26.112396 -8.48824,38.248176 l 20.86265,-7.36328 c 0.13635,-11.454 1.09085,-21.85123 2.8635,-31.191699 1.77264,-9.340465 3.4771,-15.78334 5.11339,-19.328625 l 2.65896,-5.317929 c 10.36315,4.090714 23.11254,6.136072 38.24818,6.136072 -5.99971,16.362857 -10.22678,30.918981 -12.68121,43.668371 -2.45443,12.7494 -3.68164,20.72629 -3.68164,23.93068 v 5.82927 l 0.6136,8.18143 c -1.09085,0.27271 -2.45442,0.40907 -4.09071,0.40907 z"
           style="clip-rule:evenodd;fill:#ffa600;fill-opacity:1;fill-rule:nonzero;stroke-width:0.170446;stroke-linejoin:round;stroke-miterlimit:2"
           id="path4" /><path
           d="m 631.33124,163.3482 c -16.49922,-6.54514 -27.6805,-14.86292 -33.54386,-24.95335 0,-14.99929 4.43161,-31.36215 13.29482,-49.088574 8.86322,-17.726429 18.81729,-29.453143 29.86222,-35.180143 5.86335,0 11.31764,0.340892 16.36285,1.022678 16.90829,-0.818143 30.68036,-2.522607 41.31622,-5.113393 l 5.727,-1.227214 c -5.45429,17.999143 -9.81772,37.157322 -13.09029,57.474536 -5.59064,-2.45443 -11.52218,-5.93154 -17.79461,-10.431321 -6.27242,-4.499786 -11.38582,-8.999572 -15.34017,-13.499358 -11.454,16.226501 -18.27186,33.816569 -20.45358,52.770219 l 26.99872,-7.15875 c 0.27271,-4.90886 0.9545,-9.95408 2.04536,-15.13565 9.40864,2.59079 20.72628,3.88618 33.95292,3.88618 -3.54528,7.636 -8.86321,22.29439 -15.95378,43.97518 l -3.68164,10.84039 c -6.27243,-2.31807 -10.97675,-8.93139 -14.11297,-19.83996 -9.81771,5.31793 -21.68078,9.20411 -35.58921,11.65853 z"
           style="clip-rule:evenodd;fill:#ffa600;fill-opacity:1;fill-rule:nonzero;stroke-width:0.170446;stroke-linejoin:round;stroke-miterlimit:2"
           id="path5" /></g></g></g></svg>
