<?xml version="1.0" encoding="UTF-8" standalone="no"?>
<!-- Created with Inkscape (http://www.inkscape.org/) -->

<svg
   width="2100"
   height="900"
   viewBox="0 0 555.62498 238.125"
   version="1.1"
   id="svg1"
   inkscape:version="1.4 (unknown)"
   sodipodi:docname="sustech.svg"
   xml:space="preserve"
   inkscape:export-filename="microsoft.png"
   inkscape:export-xdpi="96"
   inkscape:export-ydpi="96"
   xmlns:inkscape="http://www.inkscape.org/namespaces/inkscape"
   xmlns:sodipodi="http://sodipodi.sourceforge.net/DTD/sodipodi-0.dtd"
   xmlns="http://www.w3.org/2000/svg"
   xmlns:svg="http://www.w3.org/2000/svg"><sodipodi:namedview
     id="namedview1"
     pagecolor="#ffffff"
     bordercolor="#000000"
     borderopacity="0.25"
     inkscape:showpageshadow="2"
     inkscape:pageopacity="0.0"
     inkscape:pagecheckerboard="0"
     inkscape:deskcolor="#d1d1d1"
     inkscape:document-units="mm"
     inkscape:zoom="0.22480256"
     inkscape:cx="1447.9372"
     inkscape:cy="373.66123"
     inkscape:window-width="1920"
     inkscape:window-height="1111"
     inkscape:window-x="0"
     inkscape:window-y="0"
     inkscape:window-maximized="1"
     inkscape:current-layer="layer1" /><defs
     id="defs1"><clipPath
   clipPathUnits="userSpaceOnUse"
   id="clipPath1"><rect
     style="opacity:0.129301;fill:#000000;fill-opacity:1;stroke-width:12.7;stroke-linecap:round;stroke-linejoin:round"
     id="rect2"
     width="60.854168"
     height="60.854168"
     x="195.08763"
     y="116.66334" /></clipPath><clipPath
   clipPathUnits="userSpaceOnUse"
   id="clipPath1262"><g
     id="g1266"
     transform="translate(-380.0555,-558.637)"><path
       d="M 0,841.89 H 595.28 V 0 H 0 Z"
       id="path1264" /></g></clipPath><clipPath
   clipPathUnits="userSpaceOnUse"
   id="clipPath1256"><g
     id="g1260"
     transform="translate(-120.3988,-588.0071)"><path
       d="M 0,841.89 H 595.28 V 0 H 0 Z"
       id="path1258" /></g></clipPath><clipPath
   clipPathUnits="userSpaceOnUse"
   id="clipPath1250"><g
     id="g1254"
     transform="translate(-153.9027,-606.2884)"><path
       d="M 0,841.89 H 595.28 V 0 H 0 Z"
       id="path1252" /></g></clipPath><clipPath
   clipPathUnits="userSpaceOnUse"
   id="clipPath1244"><g
     id="g1248"
     transform="translate(-190.184,-606.2884)"><path
       d="M 0,841.89 H 595.28 V 0 H 0 Z"
       id="path1246" /></g></clipPath><clipPath
   clipPathUnits="userSpaceOnUse"
   id="clipPath1238"><g
     id="g1242"
     transform="translate(-229.5243,-589.1321)"><path
       d="M 0,841.89 H 595.28 V 0 H 0 Z"
       id="path1240" /></g></clipPath><clipPath
   clipPathUnits="userSpaceOnUse"
   id="clipPath1232"><g
     id="g1236"
     transform="translate(-267.9496,-623.0228)"><path
       d="M 0,841.89 H 595.28 V 0 H 0 Z"
       id="path1234" /></g></clipPath><clipPath
   clipPathUnits="userSpaceOnUse"
   id="clipPath1226"><g
     id="g1230"><path
       d="M 0,841.89 H 595.28 V 0 H 0 Z"
       id="path1228" /></g></clipPath><clipPath
   clipPathUnits="userSpaceOnUse"
   id="clipPath1220"><g
     id="g1224"
     transform="translate(-319.7699,-606.2884)"><path
       d="M 0,841.89 H 595.28 V 0 H 0 Z"
       id="path1222" /></g></clipPath><clipPath
   clipPathUnits="userSpaceOnUse"
   id="clipPath1214"><g
     id="g1218"
     transform="translate(-318.1908,-573.1605)"><path
       d="M 0,841.89 H 595.28 V 0 H 0 Z"
       id="path1216" /></g></clipPath><clipPath
   clipPathUnits="userSpaceOnUse"
   id="clipPath1208"><g
     id="g1212"><path
       d="M 0,841.89 H 595.28 V 0 H 0 Z"
       id="path1210" /></g></clipPath><clipPath
   clipPathUnits="userSpaceOnUse"
   id="clipPath2"><rect
     style="opacity:0.25671;fill:#b9bfc4;stroke-width:10.4792;stroke-linecap:round;stroke-linejoin:round"
     id="rect3"
     width="287.58838"
     height="80.817612"
     x="212.00186"
     y="-122.43213" /></clipPath><clipPath
   clipPathUnits="userSpaceOnUse"
   id="clipPath3"><rect
     style="opacity:0.25671;fill:#b9bfc4;stroke-width:11.8943;stroke-linecap:round;stroke-linejoin:round"
     id="rect4"
     width="85.776512"
     height="16.947403"
     x="244.23143"
     y="34.239693" /></clipPath><clipPath
   id="_clip1">
                <path
   d="m 556.898,110.327 c -61.787,3.473 -147.33,46.321 -214.675,135.619 -22.045,29.232 -41.857,61.43 -56.498,92.031 -31.16,7.525 -77.571,15.611 -94.758,23.192 -36.386,59.64 -33.658,120.558 -41.886,174.693 35.179,-52.467 55.175,-74.393 111.442,-101.773 2.037,18.34 8.834,32.676 21.226,41.079 11.486,9.605 27.138,12.199 45.332,9.116 -10.858,61.626 -26.444,86.879 -67.218,135.125 49.788,-22.791 109.109,-36.915 156.448,-88.294 2.565,-18.609 -2.419,-65.455 -3.75,-97.483 25.399,-22.488 50.91,-50.388 72.955,-79.62 67.345,-89.298 85.028,-183.324 71.382,-243.685 z m -61.508,81.559 c 5.023,3.788 6.025,10.932 2.236,15.956 -3.789,5.023 -10.933,6.025 -15.956,2.236 -5.024,-3.789 -6.025,-10.933 -2.237,-15.956 3.789,-5.024 10.933,-6.025 15.957,-2.236 z"
   id="path12" />
            </clipPath>
        
        
        
        
        
    <style
   id="style1">.a{fill:#ed6c00;}.b{fill:#fff;}</style></defs><g
     inkscape:label="图层 1"
     inkscape:groupmode="layer"
     id="layer1"><g
       id="g1"
       transform="matrix(1.2742005,0,0,1.2742005,225.27318,43.963209)"><path
         class="a"
         d="m 40.74,96.44 v -17 a 2.28,2.28 0 0 0 -2.26,-2.12 h 0.05 A 99.78,99.78 0 0 1 21,75.45 1.21,1.21 0 0 0 19.68,75.83 c -0.29,0.48 -0.15,0.84 0,1.41 0.15,0.57 0.87,3 0.87,3 0.47,2 3.17,2.51 4.89,2.87 l 7.69,1.67 c 3.72,0.8 4.73,3.68 4.73,7.49 v 3.37 c 0,3 -0.49,4.88 -2.46,5 -2.49,0.12 -4.31,-2.37 -5.28,-4.53 0,0 -0.05,-0.1 -0.07,-0.14 V 95.9 c -0.09,-0.2 -0.16,-0.39 -0.23,-0.57 -0.65,-1.62 -2.12,-5.2 -2.12,-5.2 a 2,2 0 0 0 -0.51,-0.85 1.52,1.52 0 0 0 -1,-0.29 h -2.6 l 3.35,11.62 c 0.69,2.39 1.53,5.14 3.41,6.89 2.32,2.18 6.08,3.35 11.09,3.35 5.01,0 8.78,-1.17 11.09,-3.35 1.88,-1.75 2.72,-4.5 3.41,-6.89 L 59.27,89 h -2.6 a 1.53,1.53 0 0 0 -1,0.29 2,2 0 0 0 -0.5,0.85 c 0,0 -1.46,3.58 -2.13,5.2 -0.06,0.18 -0.14,0.37 -0.23,0.57 v 0.07 l -0.06,0.14 c -1,2.16 -2.8,4.65 -5.3,4.53 -2,-0.09 -2.45,-2 -2.46,-5 v -3.39 c 0,-3.81 1,-6.69 4.73,-7.49 L 57.4,83.1 c 1.73,-0.36 4.43,-0.85 4.89,-2.87 l 0.88,-3 c 0.15,-0.57 0.28,-0.93 0,-1.41 a 1.21,1.21 0 0 0 -1.32,-0.38 100,100 0 0 1 -17.54,1.83 v 0 a 2.3,2.3 0 0 0 -2.27,2.12 v 17 a 0.68,0.68 0 0 1 -0.67,0.69 0.69,0.69 0 0 1 -0.68,-0.69"
         id="path1" /><path
         class="a"
         d="m 41.81,9.28 c 0,0 -5.23,2.92 -7.1,6.86 -0.79,1.66 -0.34,2.73 2.69,0.87 A 63.44,63.44 0 0 1 50.19,10.73 C 55.26,8.92 64.58,6.73 65.25,7.06 65.53,7.2 65.54,7.72 65.01,8.21 51.82,20.33 50.39,29.36 54,30.79 c 1.78,0.7 4.78,0.29 7.45,-0.58 2.67,-0.87 5.28,-2 8.27,-2.1 7,-0.21 10,13.14 2.39,25.79 C 67.84,61 56.48,70 55.67,69.68 q -0.56,-0.23 -0.33,-1.2 c 0.11,-0.44 4.18,-9.4 0.95,-10.82 -0.5,-0.23 -1.76,0.13 -3,3 -1.49,3.65 -2.68,4.34 -3.29,4.18 -0.61,-0.16 -0.41,-1.17 -0.31,-1.86 0.1,-0.69 0.24,-1.26 -0.14,-1 -0.38,0.26 -4,4.33 -5.15,4.24 -0.4,0 -0.66,-0.47 -0.4,-1.08 0.26,-0.61 0.53,-1.43 0.53,-1.43 0,0 -6.25,6.08 -13.88,7.53 -0.57,0.11 -2.1,0.48 -2.58,0.22 a 0.68,0.68 0 0 1 0.05,-1.1 c 0.49,-0.33 8.58,-4.52 12.08,-10.41 1.06,-1.79 1.09,-2.7 0.8,-3.17 -0.7,-1.22 -4.14,0 -6.41,0.94 -2.27,0.94 -5.66,2.94 -10,3.67 -5.34,0.91 -11.72,-0.71 -15,-4.81 -3.8,-4.74 -4,-9.39 -3.5,-14.12 1.7,-14.79 15.84,-24.18 20.75,-27.2 5.93,-3.66 14.72,-7.46 15.39,-7.19 0.35,0.14 0.5,0.67 -0.42,1.21"
         id="path2" /><path
         class="b"
         d="M 23.41,42.39 C 23.32,40.64 23.23,38.52 23.25,36.7 h -0.06 c -0.41,1.68 -0.94,3.53 -1.47,5.19 l -1.89,6 H 18 L 16.24,42 c -0.49,-1.7 -1,-3.58 -1.3,-5.3 v 0 c -0.05,1.78 -0.14,3.93 -0.24,5.78 l -0.29,5.6 H 12.09 L 13,33.92 h 3.09 l 1.7,5.7 c 0.49,1.72 0.91,3.34 1.23,4.93 h 0.06 c 0.34,-1.56 0.77,-3.22 1.28,-4.94 l 1.77,-5.69 h 3.08 l 0.82,14.16 h -2.35 z"
         id="path3" /><path
         class="b"
         d="m 31.16,35.05 a 1.33,1.33 0 0 1 -1.41,1.36 1.31,1.31 0 0 1 -1.34,-1.36 1.38,1.38 0 0 1 2.75,0 z m -2.61,13 V 37.85 H 31 v 10.23 z"
         id="path4" /><path
         class="b"
         d="m 33.61,41 c 0,-1.24 0,-2.27 -0.09,-3.17 h 2.16 l 0.1,1.83 h 0.07 a 2.86,2.86 0 0 1 2.58,-2 2.47,2.47 0 0 1 0.57,0 v 2.38 a 3.3,3.3 0 0 0 -0.68,-0.06 2.19,2.19 0 0 0 -2.16,1.89 4.25,4.25 0 0 0 -0.07,0.84 v 5.34 h -2.48 z"
         id="path5" /><path
         class="b"
         d="m 40.56,41 c 0,-1.24 0,-2.27 -0.09,-3.17 h 2.16 l 0.1,1.83 h 0.07 a 2.86,2.86 0 0 1 2.58,-2 2.47,2.47 0 0 1 0.57,0 v 2.38 a 3.3,3.3 0 0 0 -0.68,-0.06 2.19,2.19 0 0 0 -2.16,1.89 5.18,5.18 0 0 0 -0.07,0.84 v 5.34 h -2.48 z"
         id="path6" /><path
         class="b"
         d="m 56.2,42.89 c 0,3.86 -2.49,5.4 -4.78,5.4 -2.67,0 -4.68,-1.94 -4.68,-5.27 0,-3.33 2.09,-5.38 4.82,-5.38 2.73,0 4.64,2.07 4.64,5.25 z M 49.27,43 c 0,1.89 0.78,3.48 2.23,3.48 1.45,0 2.17,-1.6 2.17,-3.51 0,-1.56 -0.58,-3.46 -2.17,-3.46 -1.59,0 -2.23,1.82 -2.23,3.49 z"
         id="path7" /><path
         class="b"
         d="m 58.2,41 c 0,-1.24 0,-2.27 -0.09,-3.17 h 2.16 l 0.1,1.83 h 0.07 a 2.86,2.86 0 0 1 2.58,-2 2.47,2.47 0 0 1 0.57,0 v 2.38 a 3.3,3.3 0 0 0 -0.68,-0.06 2.19,2.19 0 0 0 -2.16,1.89 5.18,5.18 0 0 0 -0.07,0.84 v 5.34 H 58.2 Z"
         id="path8" /><path
         class="b"
         d="m 65,45.78 a 5.09,5.09 0 0 0 2.36,0.68 c 1,0 1.53,-0.46 1.53,-1.15 0,-0.69 -0.38,-1.05 -1.54,-1.55 -1.86,-0.75 -2.61,-1.8 -2.6,-3 0,-1.79 1.43,-3.16 3.65,-3.16 a 5.34,5.34 0 0 1 2.49,0.58 L 70.4,40 a 4.06,4.06 0 0 0 -1.93,-0.54 c -0.88,0 -1.35,0.47 -1.35,1.08 0,0.61 0.42,0.93 1.62,1.45 1.71,0.71 2.52,1.67 2.53,3.11 0,1.93 -1.45,3.19 -3.92,3.19 a 5.83,5.83 0 0 1 -2.84,-0.68 z"
         id="path9" /></g></g></svg>
