<?xml version="1.0" encoding="UTF-8" standalone="no"?>
<svg
   id="_图层_1"
   data-name="图层 1"
   viewBox="0 0 2100 900"
   version="1.1"
   sodipodi:docname="sysu.svg"
   xml:space="preserve"
   inkscape:version="1.4.2 (unknown)"
   xmlns:inkscape="http://www.inkscape.org/namespaces/inkscape"
   xmlns:sodipodi="http://sodipodi.sourceforge.net/DTD/sodipodi-0.dtd"
   xmlns="http://www.w3.org/2000/svg"
   xmlns:svg="http://www.w3.org/2000/svg"><sodipodi:namedview
     id="namedview37"
     pagecolor="#ffffff"
     bordercolor="#000000"
     borderopacity="0.25"
     inkscape:showpageshadow="2"
     inkscape:pageopacity="0.0"
     inkscape:pagecheckerboard="0"
     inkscape:deskcolor="#d1d1d1"
     inkscape:zoom="0.35182723"
     inkscape:cx="1090.0236"
     inkscape:cy="410.71295"
     inkscape:window-width="1920"
     inkscape:window-height="1004"
     inkscape:window-x="1920"
     inkscape:window-y="0"
     inkscape:window-maximized="1"
     inkscape:current-layer="_图层_1" /><defs
     id="defs1"><style
       id="style1">
      .cls-1 {
        font-family: Georgia-Bold, Georgia;
        font-size: 86.34px;
        font-weight: 700;
        letter-spacing: .06em;
      }

      .cls-1, .cls-2, .cls-3 {
        fill: #6a005f;
      }

      .cls-2 {
        fill-rule: evenodd;
      }

      .cls-2, .cls-3 {
        stroke-width: 0px;
      }
    </style><clipPath
       id="clipPath18"
       clipPathUnits="userSpaceOnUse"><path
         id="path16"
         d="M 0,200 H 200 V 0 H 0 Z" /></clipPath></defs><g
     clip-path="url(#clipPath18)"
     id="g14"
     transform="matrix(2.500005,0,0,-2.500005,799.999,700.0005)"><g
       transform="translate(154.1577,155.7943)"
       id="g20"><path
         id="path22"
         style="fill:#00561f;fill-opacity:1;fill-rule:evenodd;stroke:none"
         d="m 0,0 c 0.179,-0.174 0.412,-0.232 0.697,-0.174 0.997,0.116 1.577,2.158 2.743,1.456 0.644,-0.522 0.644,-1.63 0.697,-2.274 0,-0.813 -0.523,-1.224 -2.565,-1.573 -0.11,-0.058 -0.174,0 -0.522,-0.348 -0.295,-0.47 0.522,-0.934 -0.295,-1.636 -0.407,-0.353 1.287,-1.693 1.403,-1.92 0.116,-0.296 0.523,-0.064 0.464,0.401 -0.052,0.121 -0.116,0.586 -0.29,0.992 -0.232,0.701 -0.585,1.456 -0.406,1.752 0.174,0.411 0.876,0 1.63,-0.523 0.581,-0.411 1.694,-0.411 2.042,-0.934 0.407,-0.528 0.755,-0.76 0.233,-2.86 C 5.715,-7.989 5.071,-8.221 4.49,-8.395 3.556,-8.749 3.034,-9.277 2.1,-9.625 1.572,-9.857 0.29,-10.321 0,-10.67 v 3.615 c 0.179,-0.116 0.348,-0.174 0.522,-0.174 0.175,0.058 0.412,0.348 0.354,0.522 C 0.638,-6.358 0.29,-6.005 0,-5.773 Z m 0,-10.907 h 0.058 c 1.868,-0.871 2.274,-1.34 2.564,-2.797 0.233,-1.224 0.644,-2.1 -0.348,-2.802 C 1.398,-16.854 0.697,-16.622 0,-16.215 Z M -2.744,2.448 c 0.063,-0.058 0.122,-0.116 0.122,-0.174 0.174,-0.406 0.58,0.116 0.87,0 C -1.166,2.1 -0.644,1.636 -0.586,1.224 -0.464,0.76 -0.29,0.237 0,0 v -5.773 c -0.116,0.058 -0.174,0.116 -0.237,0.174 -0.349,0.175 -0.46,-0.232 -0.581,-0.469 -0.058,-0.174 0.121,-0.465 0.412,-0.581 0.169,-0.174 0.29,-0.29 0.406,-0.406 v -3.615 c -0.058,-0.063 -0.058,-0.179 0,-0.237 v -5.308 c -0.818,0.585 -1.63,1.461 -2.744,1.984 v 1.926 c 0.18,-0.053 0.296,-0.18 0.412,-0.232 0.348,-0.233 0.818,0 0.702,0.348 0,0.116 -0.47,0.411 -1.114,0.876 v 2.796 c 0.122,-0.052 0.18,-0.116 0.296,-0.116 0.174,0.064 0.464,0 0.464,0.29 -0.058,0.18 -0.058,0.296 -0.348,0.412 -0.174,0.116 -0.29,0.116 -0.412,0 v 3.441 c 0.18,0 0.238,0.057 0.296,0.115 0.348,0.296 0.464,0.407 0.116,0.586 -0.058,-0.058 -0.116,0.058 -0.412,-0.058 v 2.739 c 0.412,0.58 0.47,1.108 0,1.456 z m -2.158,0.296 c 0.237,0.464 0.47,0.812 0.76,0.812 0.527,0 1.108,-0.644 1.398,-1.108 v -2.1 c -0.058,0.058 -0.174,0.122 -0.29,0.122 -0.179,0 -0.232,-0.18 -0.29,-0.233 -0.581,-0.585 -1.108,-1.05 -1.578,-1.635 z m 2.158,-16.975 c -0.174,0.116 -0.406,0.179 -0.696,0.237 -0.465,-0.058 -0.818,-0.644 -1.462,-0.527 v 3.614 c 0.818,-0.522 1.636,-1.045 2.158,-1.398 z m -2.158,-3.092 c 0.354,-0.117 0.644,-0.169 0.702,-0.407 0.348,-1.166 0.411,-1.34 -0.058,-2.743 -0.116,-0.407 -0.349,-0.581 -0.644,-0.639 z m 2.158,6.01 v 2.796 c -0.111,0.122 -0.232,0.354 -0.232,0.412 0.121,0.116 0.174,0.174 0.232,0.174 v 3.441 c -0.232,0 -0.522,0.057 -0.58,0.115 0.174,0.349 0.232,0.349 0.58,0.528 v 2.739 c -0.058,-0.116 -0.174,-0.29 -0.348,-0.407 -0.406,-0.411 -1.34,-0.527 -1.81,-0.411 v -5.303 l 0.058,0.058 c 0.296,0.058 0.237,-0.238 0.296,-0.238 0.174,-0.29 0.116,-0.348 -0.296,-0.464 h -0.058 v -1.984 c 0.818,-0.522 1.578,-1.05 2.158,-1.456 M -6.881,0.116 c 0.407,0.586 0.813,1.108 1.166,1.456 0.291,0.354 0.581,0.818 0.813,1.172 v -4.142 c -0.111,-0.117 -0.174,-0.233 -0.29,-0.349 0.058,-0.058 0.116,-0.121 0.29,-0.179 v -5.303 c -0.29,-0.063 -0.232,0 -0.464,-0.18 -0.058,-0.116 0.232,-0.406 0.464,-0.464 v -1.984 l -0.111,0.058 c -0.644,0.412 -1.287,0.818 -1.868,1.166 v 3.092 c 0.29,0 0.581,0.059 0.697,0.232 0.76,0.76 1.108,1.23 0.237,1.578 -0.058,-0.058 -0.469,0.348 -0.934,-0.058 z m 1.979,-14.637 v 3.614 c -0.58,0.354 -1.103,0.644 -1.63,0.939 l -0.349,0.169 v -4.374 c 0.523,0 1.166,-0.058 1.631,-0.29 0.116,0 0.237,-0.058 0.348,-0.058 m -1.979,-1.752 c 0.349,-0.233 0.76,-0.465 1.166,-0.697 0.291,-0.174 0.523,-0.232 0.813,-0.353 v -3.789 c -0.697,-0.116 -1.572,0.348 -1.979,0.876 z m -6.944,12.774 c 0.47,0 3.266,3.736 3.968,5.018 0.174,0.755 0.76,1.573 1.108,1.921 0.586,0.47 0.992,0.354 1.225,-0.058 0.29,-0.522 0.232,-1.514 -0.059,-2.912 -0.174,-0.934 -0.464,-0.528 -0.643,-0.818 -0.987,-1.225 -2.095,-2.396 -2.739,-3.272 -0.411,-0.459 0.238,-1.045 0.586,-0.87 1.166,1.398 2.448,3.266 3.498,4.606 v -3.905 l -0.058,-0.058 c -0.702,-0.76 -1.108,-0.411 -1.461,-1.282 0.058,-0.232 0.876,-0.412 1.519,-0.412 v -3.092 c -0.353,0.238 -0.76,0.412 -1.05,0.586 -0.232,0.116 -0.644,0.348 -1.108,0.406 -0.348,0.058 -0.818,-0.174 -1.166,0 -0.522,0.291 -0.934,0.586 -1.224,0.76 -0.354,0.232 -0.586,0.29 -1.056,0.523 -0.464,0.237 -1.398,0.759 -2.327,0.701 -0.875,-0.058 -1.925,-1.34 -2.627,-1.635 -0.644,-0.291 -1.224,-0.581 -1.752,-0.813 -0.639,-0.29 -1.161,-0.528 -1.805,-0.238 -0.934,0.412 -0.696,2.101 -0.174,2.57 0.818,0.644 1.515,1.166 2.158,1.868 0.407,0.464 0.639,1.108 0.992,1.456 0.349,0.349 0.755,0.349 1.108,0.407 0.407,0.116 0.876,0.237 1.167,-0.116 0.29,-0.291 0.29,-0.697 0.58,-0.992 0.412,-0.407 0.76,-0.407 1.34,-0.349 m 6.944,-10.674 v 4.374 c -2.047,1.05 -3.619,1.81 -4.606,2.042 -0.47,0.116 -1.81,0.296 -2.28,0.296 -1.103,0.169 -1.224,-0.296 -1.103,-0.882 0.291,-1.282 1.689,-1.804 2.101,-1.746 1.282,0.232 1.688,-0.29 2.622,-0.644 0.58,-0.174 2.042,-0.517 1.631,-0.928 -0.465,-0.47 -0.523,-0.064 -0.992,-0.354 -0.407,-0.29 -1.921,0.586 -2.449,0.121 -0.29,-0.295 0.058,-1.171 -0.528,-1.282 -0.348,-0.063 -0.87,0.459 -1.34,0.755 -1.34,0.76 -2.738,2.1 -4.079,2.68 -1.461,0.586 -1.577,-0.116 -1.403,-1.05 0.058,-0.522 0,-0.755 0.469,-1.746 0.523,-1.05 3.441,-1.578 4.491,-2.628 0.644,-0.58 1.224,-0.76 0.934,-1.05 -0.528,-0.871 -0.992,-1.573 -1.926,-1.921 -0.876,-0.411 -4.374,3.266 -4.433,2.211 0.117,-0.813 0.76,-1.805 0.876,-2.68 0.233,-1.283 0.233,-2.333 0.291,-2.681 0.232,-0.818 1.804,-1.166 3.614,-0.581 0.76,0.285 1.694,0.755 2.506,1.219 1.109,0.644 2.28,3.208 2.918,2.86 1.52,-0.817 1.578,-1.108 2.686,-2.448 v 3.963 c -1.166,0.643 -2.158,1.224 -1.81,1.635 0.233,0.291 0.934,0.465 1.81,0.465" /></g><g
       transform="translate(112.7478,172.6483)"
       id="g24"><path
         id="path26"
         style="fill:#00561f;fill-opacity:1;fill-rule:evenodd;stroke:none"
         d="M 0,0 C 1.282,-0.406 2.158,-0.47 2.216,-0.232 2.564,0.818 3.034,2.68 3.092,4.2 3.155,4.96 3.794,5.25 4.258,5.366 5.366,5.714 5.72,5.894 6.237,5.714 7.176,5.308 7.699,4.496 8.163,3.44 8.342,2.918 8.812,3.498 7.757,1.224 7.292,0.116 7.408,-0.058 7.582,-0.29 c 0.47,-0.349 1.051,-0.291 1.985,-0.291 1.108,0.058 1.809,1.515 3.208,-1.403 0.232,-0.348 0.29,-0.813 -0.174,-1.224 -0.586,-0.465 -1.694,-0.523 -3.034,-0.876 -1.752,-0.406 -4.259,0.063 -4.201,-1.103 0.354,-2.918 2.216,-7.35 5.251,-10.907 0.759,-0.934 1.809,-1.81 3.034,-2.511 1.746,-0.993 3.203,-1.805 2.158,-2.037 -1.636,-0.354 -7.176,0.169 -8.459,1.34 -1.34,1.282 -4.084,9.799 -4.49,11.487 -0.058,0.058 -0.174,0.122 -0.296,-0.058 -1.335,-1.688 -4.136,-4.78 -6.353,-5.773 -0.992,-0.406 -2.1,0.233 -2.39,0.639 -0.348,0.412 -2.918,1.694 -3.15,2.686 -0.058,0.58 0.29,0.522 0.586,0.464 3.614,-0.76 4.374,0.179 5.361,0.586 2.627,1.108 3.736,3.968 3.503,4.142 -3.387,0.58 -4.611,0.464 -5.308,1.921 -0.992,4.612 0.818,4.838 2.681,4.142 C -1.572,0.528 -0.348,0.058 0,0" /></g><g
       transform="translate(72.8586,163.317)"
       id="g28"><path
         id="path30"
         style="fill:#00561f;fill-opacity:1;fill-rule:evenodd;stroke:none"
         d="m 0,0 c 0.464,0.058 0.876,0 1.456,-0.464 1.578,-1.051 2.042,-3.093 2.802,-4.143 0.29,0 0.818,0.349 1.457,0.755 0.817,0.586 1.751,1.171 1.577,1.403 C 6.643,-1.224 3.208,6.88 2.506,7.936 2.448,8.047 2.216,8.337 2.158,8.458 0.876,10.147 2.39,11.487 2.976,11.667 3.905,11.957 6.532,11.081 6.59,10.147 6.474,9.155 7.466,6.823 8.395,4.606 c 0.876,-1.862 1.636,-3.73 2.042,-4.374 0.238,-0.58 2.274,1.166 2.918,1.868 0.876,0.58 -0.702,3.614 -0.116,4.548 0.232,0.47 2.739,1.108 3.968,-0.696 0.581,-1.05 0.876,-2.57 1.161,-3.968 0.232,-0.992 0.586,-2.216 0.76,-2.623 0.179,-0.464 -0.813,-3.092 -1.224,-3.794 -0.818,-0.638 -2.159,1.457 -2.686,2.628 -0.29,0.639 -0.348,0.871 -0.581,0.934 -0.58,-0.179 -1.926,-1.108 -2.564,-1.926 -0.354,-0.411 -0.232,-1.171 -0.76,-1.578 C 8.865,-5.366 6.59,-6.939 6.416,-7.467 6.295,-7.757 5.54,-9.271 5.482,-9.625 5.419,-9.973 4.432,-10.089 4.2,-10.263 c -0.527,-0.528 -1.34,0.412 -2.453,1.05 -1.167,0.58 -0.871,1.34 -0.934,2.564 0,1.34 -0.755,3.441 -1.451,4.786 C -0.992,-1.166 -1.398,-0.348 0,0" /></g><g
       transform="translate(52.3879,161.9753)"
       id="g32"><path
         id="path34"
         style="fill:#00561f;fill-opacity:1;fill-rule:evenodd;stroke:none"
         d="M 0,0 C 1.05,0.643 3.034,0.586 3.963,0.179 4.839,-0.29 4.96,-1.282 4.723,-1.979 L 4.49,-2.512 c -0.232,-0.696 0.058,-2.564 0.291,-2.739 0.29,-0.348 0.527,-0.58 1.108,-0.464 0.469,-0.058 1.282,-1.81 0.934,-2.622 -0.116,-0.29 -0.174,-0.586 -0.581,-1.05 -0.992,-0.934 -1.577,-2.449 -1.868,-3.968 3.034,-3.034 5.657,-6.005 8.575,-9.097 1.398,-1.752 2.332,-3.731 1.63,-4.607 -0.58,-0.527 -2.448,0.116 -4.49,2.042 L 1.63,-17.086 C 1.224,-17.73 0.818,-18.78 0.29,-20.004 v -1.05 c 0.058,-0.348 0.232,-0.76 0.122,-1.05 C 0.29,-22.278 0.174,-22.452 0,-22.626 v 13.761 c 0.412,-0.406 0.818,-0.696 0.929,-0.638 0.701,0.522 0.765,1.92 0.585,2.448 -0.174,0.76 -0.522,1.868 -1.34,2.216 C 0.116,-4.897 0.058,-4.897 0,-4.897 Z m -3.324,-4.607 c 0.464,0.412 1.05,0.992 1.63,1.636 0.528,0.755 0.818,2.1 1.34,2.739 C -0.232,-0.111 -0.116,-0.058 0,0 v -4.897 c -0.76,-0.29 -1.398,-1.456 -1.572,-1.984 0.058,-0.348 0.875,-1.34 1.572,-1.984 v -13.761 c -0.354,-0.348 -0.818,-0.644 -1.282,-0.702 -0.523,-0.058 -1.108,0.412 -2.042,0.644 v 6.474 c 0.29,-0.179 0.585,-0.237 0.702,-0.116 0.87,0.702 0.992,0.871 1.224,1.805 0.116,0.353 -1.224,1.63 -1.926,2.158 z m -4.317,-9.682 c 0.465,0.237 0.523,0.702 0.644,1.398 0.523,1.868 0.581,2.57 1.166,3.794 -0.934,0.876 -1.984,1.694 -2.86,2.564 -0.174,0.18 -0.406,0.296 -0.585,0.354 -0.581,0.174 -0.929,0.813 -0.929,1.572 v 0.238 c 0,0.575 0.174,1.224 0.586,1.857 0.227,0.354 2.443,1.172 3.087,0.533 0.933,-0.934 1.925,-2.163 2.917,-2.86 0.059,0.058 0.175,0.174 0.291,0.232 v -7.756 c -0.116,0.116 -0.232,0.179 -0.291,0.232 -0.348,0 -0.295,-0.464 -0.295,-0.644 -0.227,-0.871 -0.697,-1.514 -1.282,-1.863 -0.348,-0.116 0.992,-1.166 1.868,-1.572 v -6.474 c -0.174,0.058 -0.349,0.116 -0.586,0.174 -0.871,0.058 -1.63,0.058 -2.332,0.76 -0.407,0.87 -0.639,1.282 -0.813,1.862 -0.121,0.238 -0.295,0.47 -0.528,0.755 -0.696,0.765 -1.224,1.461 -1.63,2.454 -0.179,0.585 0.174,2.216 1.572,2.39" /></g><g
       transform="translate(99.9974,11.213)"
       id="g36"><path
         id="path38"
         style="fill:#00561f;fill-opacity:1;fill-rule:evenodd;stroke:none"
         d="m 0,0 c -49.036,0 -88.785,39.749 -88.785,88.784 0,49.036 39.749,88.785 88.785,88.785 49.036,0 88.785,-39.749 88.785,-88.785 C 88.785,39.749 49.036,0 0,0 m 0,179.468 c -50.08,0 -90.684,-40.598 -90.684,-90.684 C -90.684,38.699 -50.08,-1.9 0,-1.9 50.08,-1.9 90.684,38.699 90.684,88.784 90.684,138.87 50.08,179.468 0,179.468 M 0,-4.612 c -51.584,0 -93.402,41.812 -93.402,93.396 0,51.585 41.818,93.402 93.402,93.402 51.584,0 93.402,-41.817 93.402,-93.402 C 93.402,37.2 51.584,-4.612 0,-4.612 m 0,193.399 c -55.23,0 -99.997,-44.772 -99.997,-100.003 0,-55.225 44.767,-99.997 99.997,-99.997 55.23,0 100.003,44.772 100.003,99.997 0,55.231 -44.773,100.003 -100.003,100.003" /></g><g
       transform="translate(39.3615,114.6334)"
       id="g40"><path
         id="path42"
         style="fill:#00561f;fill-opacity:1;fill-rule:nonzero;stroke:none"
         d="M 0,0 -4.96,1.287 -4.833,1.73 C -3.541,1.588 -2.396,1.825 -1.409,2.433 -0.422,3.044 0.206,3.831 0.48,4.786 0.697,5.53 0.66,6.174 0.39,6.717 0.116,7.261 -0.28,7.609 -0.792,7.756 -1.119,7.851 -1.43,7.857 -1.731,7.778 -2.132,7.661 -2.564,7.424 -3.034,7.05 -3.372,6.78 -4.016,6.11 -4.981,5.05 -6.327,3.562 -7.461,2.628 -8.39,2.242 -9.313,1.862 -10.263,1.81 -11.234,2.084 c -1.235,0.354 -2.163,1.14 -2.775,2.353 -0.618,1.219 -0.713,2.57 -0.291,4.048 0.132,0.469 0.306,0.897 0.517,1.282 0.211,0.385 0.539,0.855 0.977,1.403 0.248,0.307 0.401,0.576 0.464,0.803 0.058,0.19 0.037,0.406 -0.048,0.659 -0.084,0.253 -0.253,0.485 -0.517,0.702 l 0.116,0.401 5.578,-1.589 -0.116,-0.406 c -1.657,0.132 -3.029,-0.142 -4.116,-0.823 -1.082,-0.675 -1.778,-1.541 -2.079,-2.591 -0.232,-0.818 -0.195,-1.525 0.111,-2.137 0.306,-0.606 0.754,-0.997 1.34,-1.166 0.348,-0.1 0.712,-0.105 1.092,-0.01 0.38,0.089 0.771,0.285 1.177,0.58 0.401,0.29 0.971,0.849 1.72,1.673 1.045,1.155 1.884,1.963 2.517,2.416 0.633,0.46 1.277,0.76 1.942,0.913 0.665,0.153 1.34,0.132 2.031,-0.068 C -0.417,10.194 0.464,9.477 1.045,8.374 1.63,7.276 1.731,6.068 1.356,4.754 1.219,4.274 1.029,3.825 0.781,3.409 0.596,3.092 0.317,2.723 -0.058,2.295 -0.433,1.873 -0.649,1.567 -0.707,1.367 -0.76,1.176 -0.744,1.013 -0.66,0.871 -0.575,0.728 -0.322,0.548 0.095,0.327 Z" /></g><g
       transform="translate(38.6518,114.2808)"
       id="g44"><path
         id="path46"
         style="fill:#00561f;fill-opacity:1;fill-rule:nonzero;stroke:none"
         d="m 0,0 -1.071,-7.862 -0.417,0.058 0.053,0.39 c 0.084,0.591 0.079,1.008 -0.016,1.246 -0.095,0.237 -0.243,0.416 -0.449,0.543 -0.205,0.121 -0.738,0.243 -1.609,0.359 l -7.456,1.018 c -1.361,0.185 -2.279,0.206 -2.749,0.058 -0.47,-0.142 -0.881,-0.433 -1.24,-0.865 -0.354,-0.433 -0.58,-1.008 -0.681,-1.726 -0.11,-0.823 -0.021,-1.551 0.269,-2.179 0.291,-0.633 0.744,-1.134 1.357,-1.514 0.612,-0.375 1.725,-0.676 3.34,-0.897 l 6.216,-0.844 c 0.68,-0.095 1.176,-0.09 1.488,0.015 0.311,0.101 0.538,0.254 0.68,0.454 0.217,0.311 0.37,0.776 0.449,1.393 l 0.417,-0.058 -0.718,-5.266 -0.417,0.053 0.042,0.317 c 0.064,0.427 0.021,0.796 -0.11,1.102 -0.132,0.306 -0.365,0.549 -0.692,0.723 -0.221,0.132 -0.649,0.238 -1.271,0.322 l -5.784,0.791 c -1.788,0.243 -3.065,0.533 -3.825,0.876 -0.765,0.348 -1.414,1.024 -1.952,2.027 -0.544,1.002 -0.708,2.295 -0.491,3.872 0.179,1.32 0.496,2.317 0.944,2.987 0.612,0.913 1.319,1.525 2.121,1.826 0.808,0.301 1.842,0.364 3.108,0.195 l 7.456,-1.018 c 0.876,-0.116 1.425,-0.143 1.652,-0.074 0.227,0.063 0.422,0.211 0.58,0.433 0.159,0.226 0.28,0.654 0.359,1.303 z" /></g><g
       transform="translate(36.8525,95.7008)"
       id="g48"><path
         id="path50"
         style="fill:#00561f;fill-opacity:1;fill-rule:nonzero;stroke:none"
         d="m 0,0 -9.139,-8.058 6.601,0.333 c 0.923,0.047 1.535,0.211 1.847,0.491 0.422,0.385 0.601,1.007 0.543,1.857 l 0.417,0.021 0.259,-5.071 -0.417,-0.021 c -0.116,0.644 -0.248,1.077 -0.391,1.288 -0.142,0.216 -0.369,0.38 -0.67,0.49 -0.306,0.111 -0.823,0.148 -1.546,0.106 l -12.78,-0.644 -0.021,0.385 12.258,11.028 -9.762,-0.495 c -0.881,-0.043 -1.467,-0.275 -1.757,-0.697 -0.29,-0.417 -0.422,-0.886 -0.396,-1.409 l 0.016,-0.364 -0.412,-0.021 -0.279,5.445 0.416,0.021 c 0.053,-0.844 0.259,-1.424 0.613,-1.741 0.358,-0.311 0.944,-0.448 1.757,-0.406 l 10.833,0.549 0.395,0.348 c 0.391,0.348 0.644,0.649 0.76,0.902 0.116,0.254 0.169,0.618 0.158,1.087 l 0.417,0.021 z" /></g><g
       transform="translate(44.0387,66.5554)"
       id="g52"><path
         id="path54"
         style="fill:#00561f;fill-opacity:1;fill-rule:nonzero;stroke:none"
         d="M 0,0 -0.39,-0.153 C -0.638,0.29 -0.918,0.596 -1.229,0.765 -1.667,1.002 -2.686,1.234 -4.306,1.472 l -6.4,1.045 -3.456,-1.372 c -0.739,-0.296 -1.182,-0.512 -1.33,-0.665 -0.148,-0.148 -0.248,-0.359 -0.296,-0.644 -0.042,-0.285 0.006,-0.612 0.159,-0.992 l 0.316,-0.802 -0.385,-0.153 -3.187,8.015 0.39,0.153 0.296,-0.744 c 0.169,-0.422 0.375,-0.728 0.623,-0.912 0.168,-0.148 0.395,-0.222 0.675,-0.233 0.2,-0.01 0.654,0.127 1.372,0.412 l 2.865,1.134 4.786,5.794 c 0.944,1.151 1.467,1.9 1.572,2.258 0.106,0.359 0.074,0.771 -0.1,1.23 L -6.015,15.154 -3.293,8.305 -3.688,8.147 -3.81,8.453 C -3.973,8.87 -4.147,9.134 -4.332,9.25 -4.517,9.371 -4.675,9.403 -4.807,9.35 -5.066,9.25 -5.588,8.717 -6.379,7.746 l -3.71,-4.459 5.335,-0.86 C -3.451,2.211 -2.622,2.168 -2.28,2.3 c 0.19,0.08 0.312,0.233 0.365,0.465 0.079,0.306 0.01,0.791 -0.206,1.44 l 0.39,0.159 z" /></g><g
       transform="translate(38.0999,57.9535)"
       id="g56"><path
         id="path58"
         style="fill:#00561f;fill-opacity:1;fill-rule:nonzero;stroke:none"
         d="M 0,0 3.203,4.796 -2.522,3.905 Z M -0.496,-0.781 -3.446,3.778 -5.05,3.509 C -5.588,3.414 -5.989,3.282 -6.263,3.108 -6.622,2.87 -6.796,2.554 -6.78,2.147 -6.77,1.91 -6.575,1.44 -6.189,0.738 l -0.349,-0.232 -2.781,4.296 0.354,0.226 c 0.369,-0.416 0.807,-0.675 1.314,-0.77 0.506,-0.095 1.393,-0.042 2.659,0.153 L 8.295,6.459 8.411,6.279 0.839,-5.224 C 0.127,-6.316 -0.269,-7.087 -0.348,-7.546 -0.401,-7.889 -0.322,-8.263 -0.1,-8.68 l -0.349,-0.227 -4.041,6.247 0.353,0.227 0.164,-0.258 c 0.327,-0.502 0.622,-0.808 0.897,-0.918 0.19,-0.074 0.38,-0.053 0.57,0.073 0.116,0.074 0.221,0.17 0.321,0.28 0.043,0.053 0.222,0.301 0.528,0.749 z" /></g><g
       transform="translate(57.7574,50.5207)"
       id="g60"><path
         id="path62"
         style="fill:#00561f;fill-opacity:1;fill-rule:nonzero;stroke:none"
         d="m 0,0 -3.018,-2.865 -0.28,0.295 c 0.528,0.839 0.844,1.504 0.945,2.011 0.1,0.501 0.063,1.023 -0.106,1.567 -0.1,0.301 -0.396,0.712 -0.892,1.234 l -0.791,0.829 -8.591,-8.168 c -0.569,-0.539 -0.891,-0.908 -0.976,-1.108 -0.084,-0.196 -0.089,-0.438 -0.026,-0.723 0.069,-0.285 0.253,-0.586 0.554,-0.908 l 0.354,-0.369 -0.301,-0.285 -5.546,5.83 0.306,0.291 0.354,-0.37 c 0.306,-0.322 0.606,-0.527 0.907,-0.617 0.217,-0.069 0.454,-0.058 0.718,0.037 0.19,0.063 0.559,0.364 1.118,0.892 l 8.596,8.168 -0.765,0.802 c -0.712,0.755 -1.393,1.145 -2.032,1.187 -0.897,0.053 -1.815,-0.248 -2.754,-0.902 l -0.301,0.311 3.019,2.865 z" /></g><g
       transform="translate(56.6203,39.8782)"
       id="g64"><path
         id="path66"
         style="fill:#00561f;fill-opacity:1;fill-rule:nonzero;stroke:none"
         d="M 0,0 -4.395,3.409 -3.182,4.97 1.208,1.557 Z" /></g><g
       transform="translate(70.5211,42.6624)"
       id="g68"><path
         id="path70"
         style="fill:#00561f;fill-opacity:1;fill-rule:nonzero;stroke:none"
         d="m 0,0 -2.554,-4.443 -0.401,0.237 c 0.48,1.214 0.559,2.375 0.232,3.494 C -3.05,0.401 -3.641,1.219 -4.49,1.736 -5.15,2.137 -5.778,2.274 -6.374,2.158 -6.976,2.042 -7.414,1.752 -7.693,1.293 -7.873,1.002 -7.957,0.702 -7.957,0.395 c 0,-0.416 0.116,-0.902 0.348,-1.45 0.174,-0.396 0.644,-1.204 1.414,-2.412 1.077,-1.689 1.678,-3.034 1.81,-4.031 0.116,-0.992 -0.084,-1.926 -0.612,-2.786 -0.665,-1.103 -1.667,-1.784 -3.002,-2.058 -1.341,-0.269 -2.665,-0.005 -3.984,0.796 -0.412,0.254 -0.776,0.533 -1.092,0.839 -0.322,0.312 -0.686,0.75 -1.098,1.32 -0.232,0.316 -0.449,0.538 -0.649,0.659 -0.169,0.101 -0.385,0.143 -0.649,0.127 -0.269,-0.011 -0.538,-0.116 -0.818,-0.311 l -0.359,0.216 3.018,4.96 0.359,-0.221 c -0.564,-1.562 -0.665,-2.961 -0.301,-4.185 0.365,-1.224 1.019,-2.121 1.953,-2.696 0.723,-0.438 1.419,-0.591 2.089,-0.454 0.671,0.132 1.161,0.454 1.483,0.981 0.185,0.306 0.285,0.66 0.301,1.05 0.01,0.391 -0.074,0.818 -0.248,1.283 -0.18,0.469 -0.565,1.171 -1.166,2.105 -0.834,1.314 -1.388,2.337 -1.657,3.071 -0.274,0.733 -0.396,1.435 -0.369,2.116 0.031,0.681 0.232,1.329 0.606,1.942 0.639,1.044 1.562,1.704 2.776,1.973 1.219,0.269 2.411,0.048 3.577,-0.659 0.428,-0.259 0.813,-0.565 1.145,-0.908 0.259,-0.264 0.544,-0.639 0.85,-1.108 0.311,-0.475 0.549,-0.77 0.723,-0.871 0.169,-0.105 0.332,-0.132 0.491,-0.089 0.158,0.047 0.401,0.237 0.728,0.58 z" /></g><g
       transform="translate(75.3281,39.16)"
       id="g72"><path
         id="path74"
         style="fill:#00561f;fill-opacity:1;fill-rule:nonzero;stroke:none"
         d="m 0,0 -2.316,-5.81 0.284,-0.11 c 0.908,-0.359 1.673,-0.338 2.312,0.063 0.633,0.406 1.224,1.145 1.778,2.205 l 0.401,-0.158 -2.981,-7.471 -0.396,0.158 c 0.237,0.849 0.327,1.588 0.264,2.211 -0.064,0.628 -0.238,1.102 -0.523,1.424 -0.29,0.322 -0.77,0.618 -1.451,0.887 l -1.604,-4.016 c -0.311,-0.791 -0.469,-1.282 -0.475,-1.488 -0.005,-0.2 0.064,-0.39 0.201,-0.575 0.137,-0.185 0.411,-0.359 0.818,-0.522 l 0.849,-0.343 c 1.335,-0.528 2.528,-0.644 3.578,-0.349 1.05,0.296 2,1.008 2.854,2.132 l 0.391,-0.158 -2.454,-4.279 -12.331,4.918 0.153,0.39 0.475,-0.19 c 0.411,-0.164 0.775,-0.227 1.087,-0.179 0.221,0.026 0.427,0.137 0.622,0.337 0.143,0.138 0.359,0.57 0.644,1.282 l 3.741,9.388 c 0.259,0.648 0.401,1.049 0.422,1.213 0.027,0.274 -0.026,0.512 -0.163,0.723 -0.185,0.301 -0.512,0.544 -0.976,0.728 l -0.475,0.19 0.158,0.391 11.946,-4.76 -1.683,-4.221 -0.401,0.158 c 0.211,1.113 0.216,1.963 0.026,2.565 -0.184,0.591 -0.575,1.129 -1.166,1.609 -0.343,0.285 -1.055,0.638 -2.137,1.071 z" /></g><g
       transform="translate(87.3635,36.1874)"
       id="g76"><path
         id="path78"
         style="fill:#00561f;fill-opacity:1;fill-rule:nonzero;stroke:none"
         d="m 0,0 5.752,-10.733 1.181,6.501 c 0.169,0.902 0.148,1.541 -0.052,1.91 -0.28,0.496 -0.839,0.813 -1.684,0.95 L 5.271,-0.96 10.268,-1.868 10.194,-2.28 C 9.54,-2.248 9.092,-2.274 8.849,-2.364 8.606,-2.454 8.395,-2.638 8.216,-2.908 8.042,-3.177 7.889,-3.673 7.762,-4.385 l -2.29,-12.585 -0.38,0.069 -7.936,14.442 -1.747,-9.609 c -0.158,-0.865 -0.068,-1.493 0.275,-1.868 0.343,-0.38 0.77,-0.612 1.282,-0.707 l 0.359,-0.063 -0.074,-0.412 -5.366,0.976 0.079,0.412 c 0.833,-0.148 1.446,-0.084 1.831,0.195 0.385,0.275 0.654,0.813 0.802,1.615 l 1.942,10.669 -0.254,0.465 c -0.248,0.459 -0.48,0.775 -0.702,0.944 -0.221,0.169 -0.564,0.306 -1.023,0.407 l 0.079,0.411 z" /></g><g
       transform="translate(102.0742,34.3111)"
       id="g80"><path
         id="path82"
         style="fill:#00561f;fill-opacity:1;fill-rule:nonzero;stroke:none"
         d="M 0,0 7.852,1.156 7.915,0.738 7.519,0.686 C 6.928,0.596 6.532,0.475 6.332,0.322 6.126,0.163 5.994,-0.032 5.936,-0.259 5.873,-0.491 5.905,-1.04 6.036,-1.905 L 7.129,-9.35 c 0.2,-1.367 0.438,-2.248 0.702,-2.66 0.274,-0.411 0.664,-0.728 1.181,-0.95 0.512,-0.226 1.13,-0.279 1.847,-0.179 0.818,0.127 1.494,0.412 2.021,0.871 0.523,0.454 0.881,1.023 1.077,1.72 0.19,0.691 0.169,1.847 -0.069,3.461 l -0.913,6.2 c -0.1,0.681 -0.243,1.156 -0.427,1.43 -0.185,0.27 -0.396,0.443 -0.628,0.523 -0.364,0.126 -0.85,0.142 -1.462,0.053 L 10.395,1.53 15.656,2.306 15.719,1.889 15.402,1.842 C 14.975,1.783 14.637,1.641 14.374,1.43 14.115,1.214 13.946,0.923 13.872,0.565 13.809,0.311 13.825,-0.127 13.914,-0.744 l 0.85,-5.778 c 0.264,-1.789 0.338,-3.098 0.216,-3.92 -0.116,-0.829 -0.58,-1.642 -1.398,-2.438 -0.813,-0.802 -2.01,-1.32 -3.588,-1.552 -1.314,-0.19 -2.359,-0.163 -3.129,0.085 -1.05,0.327 -1.831,0.839 -2.343,1.53 -0.512,0.686 -0.865,1.662 -1.05,2.928 L 2.38,-2.443 c -0.132,0.876 -0.259,1.409 -0.391,1.609 -0.126,0.201 -0.322,0.343 -0.575,0.438 -0.258,0.09 -0.712,0.085 -1.351,-0.021 z" /></g><g
       transform="translate(121.4532,38.1446)"
       id="g84"><path
         id="path86"
         style="fill:#00561f;fill-opacity:1;fill-rule:nonzero;stroke:none"
         d="M 0,0 10.39,-6.364 8.126,-0.153 C 7.809,0.712 7.472,1.256 7.113,1.467 6.622,1.757 5.978,1.747 5.182,1.44 L 5.034,1.836 9.809,3.572 9.952,3.176 C 9.371,2.876 8.997,2.628 8.833,2.427 8.669,2.227 8.58,1.963 8.564,1.641 8.548,1.319 8.664,0.813 8.912,0.132 l 4.385,-12.026 -0.364,-0.132 -14.152,8.469 3.345,-9.181 c 0.301,-0.828 0.697,-1.324 1.182,-1.477 0.486,-0.153 0.977,-0.143 1.467,0.037 l 0.343,0.126 0.143,-0.396 -5.124,-1.862 -0.148,0.39 c 0.792,0.301 1.288,0.665 1.483,1.098 0.201,0.432 0.158,1.034 -0.121,1.799 l -3.715,10.195 -0.448,0.269 c -0.444,0.274 -0.808,0.427 -1.082,0.464 -0.285,0.037 -0.644,-0.021 -1.087,-0.164 l -0.148,0.391 z" /></g><g
       transform="translate(145.4159,32.9233)"
       id="g88"><path
         id="path90"
         style="fill:#00561f;fill-opacity:1;fill-rule:nonzero;stroke:none"
         d="m 0,0 0.211,-0.364 -6.986,-3.984 -0.211,0.369 0.448,0.248 c 0.385,0.227 0.66,0.47 0.813,0.744 0.121,0.185 0.163,0.417 0.127,0.697 -0.016,0.195 -0.217,0.633 -0.597,1.303 l -5.007,8.786 c -0.391,0.681 -0.67,1.087 -0.839,1.219 -0.169,0.126 -0.396,0.195 -0.692,0.195 -0.29,0.005 -0.627,-0.1 -1.002,-0.317 l -0.443,-0.248 -0.206,0.364 6.981,3.979 0.206,-0.364 -0.438,-0.259 c -0.391,-0.216 -0.665,-0.464 -0.823,-0.733 -0.117,-0.19 -0.159,-0.428 -0.132,-0.707 0.015,-0.195 0.216,-0.633 0.596,-1.304 l 5.007,-8.785 c 0.391,-0.681 0.671,-1.087 0.845,-1.214 0.174,-0.126 0.406,-0.19 0.701,-0.195 0.291,-0.005 0.623,0.1 0.998,0.311 z" /></g><g
       transform="translate(150.0277,55.4897)"
       id="g92"><path
         id="path94"
         style="fill:#00561f;fill-opacity:1;fill-rule:nonzero;stroke:none"
         d="m 0,0 0.264,-0.322 c -0.37,-0.427 -0.565,-0.976 -0.581,-1.646 0,-0.496 0.206,-1.478 0.618,-2.955 l 3.424,-12.411 -0.29,-0.243 -11.856,6.037 c -1.43,0.728 -2.306,1.118 -2.639,1.182 -0.332,0.058 -0.749,-0.074 -1.25,-0.407 l -0.269,0.328 5.672,4.701 0.269,-0.322 -0.195,-0.158 c -0.512,-0.422 -0.808,-0.776 -0.887,-1.061 -0.063,-0.195 -0.021,-0.38 0.116,-0.548 0.09,-0.106 0.217,-0.211 0.38,-0.312 0.164,-0.105 0.639,-0.359 1.425,-0.76 l 7.403,-3.793 -2.016,7.181 c -0.242,0.866 -0.427,1.43 -0.538,1.699 -0.116,0.269 -0.237,0.48 -0.359,0.633 -0.147,0.174 -0.321,0.29 -0.527,0.343 -0.201,0.058 -0.422,0.048 -0.66,-0.031 -0.332,-0.111 -0.707,-0.338 -1.119,-0.681 l -0.269,0.322 z" /></g><g
       transform="translate(153.0512,58.53)"
       id="g96"><path
         id="path98"
         style="fill:#00561f;fill-opacity:1;fill-rule:nonzero;stroke:none"
         d="m 0,0 5.023,-3.726 0.185,0.248 c 0.58,0.781 0.755,1.531 0.522,2.248 -0.226,0.718 -0.786,1.478 -1.672,2.285 l 0.253,0.349 6.464,-4.792 -0.259,-0.348 C 9.762,-3.288 9.071,-3.013 8.448,-2.913 7.825,-2.813 7.324,-2.86 6.939,-3.055 6.554,-3.251 6.142,-3.641 5.709,-4.232 l 3.478,-2.58 c 0.68,-0.502 1.118,-0.781 1.308,-0.834 0.195,-0.058 0.401,-0.042 0.612,0.048 0.217,0.084 0.454,0.3 0.713,0.654 l 0.548,0.739 c 0.855,1.15 1.272,2.274 1.251,3.366 -0.016,1.087 -0.459,2.19 -1.324,3.303 l 0.248,0.338 3.508,-3.462 -7.904,-10.669 -0.338,0.248 0.301,0.412 c 0.269,0.353 0.417,0.691 0.454,1.002 0.032,0.222 -0.026,0.454 -0.169,0.692 -0.095,0.173 -0.454,0.49 -1.076,0.949 l -8.116,6.021 c -0.559,0.411 -0.913,0.649 -1.066,0.717 -0.253,0.095 -0.501,0.106 -0.738,0.027 -0.343,-0.106 -0.66,-0.359 -0.961,-0.76 L -3.863,-4.427 -4.2,-4.179 3.461,6.152 7.113,3.445 6.854,3.102 C 5.831,3.588 5.008,3.81 4.38,3.783 3.757,3.752 3.14,3.514 2.527,3.066 2.163,2.807 1.636,2.211 0.945,1.277 Z" /></g><g
       transform="translate(159.8385,69.8607)"
       id="g100"><path
         id="path102"
         style="fill:#00561f;fill-opacity:1;fill-rule:nonzero;stroke:none"
         d="m 0,0 6.253,-2.485 0.243,0.601 C 6.881,-0.913 7.081,-0.143 7.097,0.411 7.108,0.966 6.939,1.477 6.58,1.936 6.226,2.401 5.672,2.781 4.918,3.081 3.831,3.514 2.923,3.577 2.206,3.277 1.483,2.976 0.897,2.258 0.449,1.129 Z m 7.002,-2.786 4.005,-1.589 c 0.77,-0.305 1.277,-0.453 1.514,-0.438 0.238,0.016 0.465,0.117 0.676,0.312 0.216,0.19 0.454,0.612 0.712,1.266 l 0.391,-0.153 -2.908,-7.313 -0.39,0.153 c 0.264,0.659 0.38,1.134 0.348,1.419 -0.026,0.285 -0.121,0.512 -0.28,0.686 -0.158,0.169 -0.622,0.412 -1.393,0.718 l -9.271,3.683 c -0.77,0.306 -1.277,0.454 -1.514,0.438 -0.238,-0.016 -0.464,-0.116 -0.681,-0.311 -0.216,-0.19 -0.454,-0.613 -0.712,-1.261 l -0.385,0.153 2.633,6.637 C 0.438,3.34 1.061,4.559 1.615,5.261 2.169,5.968 2.87,6.442 3.715,6.696 4.559,6.944 5.414,6.896 6.279,6.553 7.329,6.137 8.047,5.408 8.437,4.379 8.68,3.72 8.738,2.912 8.606,1.957 l 6.2,1.51 c 0.808,0.2 1.319,0.369 1.552,0.496 0.332,0.2 0.585,0.485 0.754,0.86 L 17.503,4.664 15.714,0.169 7.377,-1.847 Z" /></g><g
       transform="translate(163.4509,88.1804)"
       id="g104"><path
         id="path106"
         style="fill:#00561f;fill-opacity:1;fill-rule:nonzero;stroke:none"
         d="M 0,0 5.076,-0.718 4.997,-1.177 C 3.694,-1.182 2.586,-1.546 1.673,-2.264 0.765,-2.981 0.222,-3.831 0.063,-4.813 -0.063,-5.572 0.037,-6.211 0.369,-6.723 0.702,-7.234 1.134,-7.53 1.662,-7.62 2,-7.678 2.311,-7.646 2.596,-7.535 c 0.385,0.158 0.792,0.448 1.214,0.871 0.3,0.306 0.876,1.039 1.709,2.205 1.172,1.631 2.195,2.691 3.071,3.177 0.876,0.485 1.815,0.643 2.813,0.475 1.266,-0.212 2.274,-0.887 3.023,-2.027 0.75,-1.14 0.998,-2.469 0.744,-3.989 -0.079,-0.475 -0.205,-0.923 -0.369,-1.33 -0.169,-0.406 -0.443,-0.912 -0.813,-1.509 -0.211,-0.332 -0.337,-0.612 -0.374,-0.844 -0.032,-0.195 0.01,-0.411 0.121,-0.654 0.116,-0.238 0.311,-0.454 0.596,-0.639 l -0.068,-0.411 -5.725,0.955 0.068,0.411 c 1.668,0.059 2.997,0.486 4,1.283 1.002,0.796 1.593,1.73 1.773,2.812 0.137,0.834 0.021,1.541 -0.348,2.111 -0.375,0.569 -0.861,0.907 -1.467,1.007 -0.359,0.059 -0.718,0.022 -1.087,-0.11 -0.364,-0.138 -0.734,-0.37 -1.098,-0.713 C 10.01,-4.786 9.503,-5.409 8.854,-6.311 7.947,-7.577 7.203,-8.474 6.627,-8.997 6.052,-9.525 5.44,-9.899 4.796,-10.126 c -0.638,-0.227 -1.319,-0.28 -2.026,-0.163 -1.208,0.205 -2.163,0.817 -2.865,1.846 -0.702,1.029 -0.939,2.216 -0.718,3.567 0.085,0.491 0.222,0.961 0.417,1.404 0.148,0.332 0.385,0.733 0.713,1.192 0.327,0.465 0.506,0.797 0.538,0.998 0.031,0.195 0,0.358 -0.1,0.49 -0.106,0.132 -0.37,0.285 -0.808,0.454 z" /></g><g
       transform="translate(179.7341,97.1375)"
       id="g108"><path
         id="path110"
         style="fill:#00561f;fill-opacity:1;fill-rule:nonzero;stroke:none"
         d="m 0,0 0.422,-0.005 -0.116,-8.037 -0.422,0.006 0.005,0.506 c 0.011,0.449 -0.063,0.807 -0.216,1.082 -0.106,0.195 -0.285,0.353 -0.538,0.459 -0.18,0.09 -0.66,0.137 -1.43,0.147 l -10.11,0.143 c -0.787,0.011 -1.277,-0.021 -1.478,-0.1 -0.195,-0.085 -0.369,-0.248 -0.522,-0.501 -0.153,-0.248 -0.232,-0.591 -0.232,-1.024 l -0.011,-0.507 -0.422,0.006 0.116,8.036 0.422,-0.006 -0.01,-0.511 c -0.006,-0.443 0.068,-0.802 0.226,-1.082 0.101,-0.195 0.28,-0.353 0.539,-0.47 0.179,-0.084 0.654,-0.137 1.424,-0.142 l 10.11,-0.148 c 0.787,-0.01 1.277,0.027 1.478,0.111 0.195,0.084 0.375,0.253 0.522,0.501 0.153,0.254 0.227,0.591 0.238,1.024 z" /></g><g
       transform="translate(163.9712,111.4785)"
       id="g112"><path
         id="path114"
         style="fill:#00561f;fill-opacity:1;fill-rule:nonzero;stroke:none"
         d="M 0,0 4.126,0.538 4.179,0.132 C 3.256,-0.232 2.612,-0.586 2.232,-0.934 1.852,-1.277 1.572,-1.726 1.393,-2.264 1.293,-2.57 1.293,-3.076 1.388,-3.784 l 0.147,-1.139 11.757,1.535 c 0.775,0.1 1.261,0.206 1.446,0.322 0.179,0.111 0.332,0.301 0.443,0.57 0.111,0.269 0.142,0.623 0.084,1.055 l -0.068,0.507 0.417,0.058 1.044,-7.984 -0.417,-0.052 -0.068,0.506 c -0.058,0.443 -0.18,0.786 -0.375,1.034 -0.132,0.185 -0.332,0.312 -0.601,0.391 -0.19,0.058 -0.665,0.037 -1.43,-0.058 L 2.01,-8.575 2.153,-9.672 c 0.132,-1.029 0.448,-1.747 0.944,-2.158 0.697,-0.57 1.61,-0.871 2.76,-0.892 l 0.053,-0.427 -4.121,-0.539 z" /></g><g
       transform="translate(159.351,127.5638)"
       id="g116"><path
         id="path118"
         style="fill:#00561f;fill-opacity:1;fill-rule:nonzero;stroke:none"
         d="M 0,0 0.401,0.116 C 0.612,-0.348 0.86,-0.681 1.156,-0.881 1.562,-1.15 2.564,-1.483 4.147,-1.868 l 6.274,-1.636 3.567,1.04 c 0.765,0.221 1.225,0.401 1.388,0.533 0.164,0.137 0.28,0.343 0.348,0.617 0.074,0.28 0.053,0.612 -0.058,1.003 l -0.242,0.828 0.401,0.121 2.422,-8.279 -0.407,-0.121 -0.221,0.776 c -0.127,0.432 -0.306,0.754 -0.533,0.965 -0.159,0.159 -0.375,0.254 -0.655,0.29 -0.195,0.032 -0.664,-0.063 -1.403,-0.279 l -2.96,-0.866 -5.303,-5.313 c -1.045,-1.055 -1.636,-1.757 -1.779,-2.106 -0.137,-0.348 -0.142,-0.754 -0.01,-1.229 l -0.401,-0.121 -2.069,7.076 0.401,0.116 0.095,-0.317 c 0.122,-0.427 0.275,-0.707 0.444,-0.844 0.174,-0.132 0.332,-0.18 0.469,-0.137 0.259,0.073 0.834,0.554 1.715,1.44 l 4.1,4.095 -5.218,1.356 C 3.229,-2.522 2.411,-2.401 2.053,-2.507 1.863,-2.565 1.725,-2.707 1.646,-2.929 1.535,-3.23 1.562,-3.715 1.72,-4.385 L 1.319,-4.501 Z" /></g><g
       transform="translate(99.809,62.0659)"
       id="g120"><path
         id="path122"
         style="fill:#00561f;fill-opacity:1;fill-rule:nonzero;stroke:none"
         d="M 0,0 H 3.836 L 3.593,0.966 H 2.079 L 3.271,2.031 2.87,3.773 H 0.032 L 0.016,2.321 H 1.108 L 1.013,2.902 H 2.047 L 2.111,2.258 0.047,0.997 Z M -5.514,3.773 H -6.612 L -8.321,0 h 1.519 z M 6.11,2.775 6.496,1.936 H 5.688 Z M 6.918,0.997 7.387,0 8.786,0.063 8.242,0.934 8.886,0.966 8.337,1.905 H 7.561 L 6.612,3.773 H 5.646 L 4.659,2 5.013,0.997 Z m -9.192,1.436 h -1.277 l 0.179,0.68 1.224,0.016 z m 1.081,1.34 H -4 L -4.665,1.741 h 2.259 L -2.501,0.934 H -4.955 L -5.256,0 h 3.773 z m 39.929,38.862 c -5.483,0 -10.1,-3.731 -11.435,-8.796 H 6.875 v -1.594 h 20.12 C 26.937,31.771 26.906,31.29 26.906,30.805 V 30.778 H 6.875 V 29.18 H 15.84 C 12.717,29.174 10.184,26.641 10.184,23.513 V 7.519 H 7.978 V 21.333 H 9.34 v 1.066 H 4.348 V 18.6 c -0.691,0.792 -1.599,1.377 -2.623,1.662 v 1.214 h 0.576 v 0.944 h -4.248 v -0.944 h 0.58 V 20.204 C -2.359,19.877 -3.229,19.27 -3.889,18.473 v 3.91 H -8.96 v -1.05 h 1.377 V 7.519 h -2.3 v 15.994 c 0,3.128 -2.528,5.661 -5.657,5.667 h 9.029 v 1.598 h -20.025 v 0.027 c 0,0.485 -0.037,0.966 -0.09,1.44 h 20.115 v 1.594 h -20.421 c -1.34,5.065 -5.952,8.796 -11.434,8.796 -0.813,0 -1.61,-0.079 -2.375,-0.237 3.182,8.178 11.118,13.977 20.421,13.977 h 4.912 v 1.314 c 0,8.612 6.986,15.587 15.598,15.587 8.606,0 15.592,-6.975 15.592,-15.587 v -1.314 h 4.913 c 9.303,0 17.244,-5.799 20.42,-13.977 -0.765,0.158 -1.561,0.237 -2.379,0.237 M 20.473,26.794 c -1.029,1.441 -2.707,2.38 -4.606,2.386 h 9.582 C 23.56,28.858 21.856,28.008 20.473,26.794 M 16.98,19.112 c 0,-0.074 0.005,-0.148 0.005,-0.216 h -5.202 v 4.617 c 0,2.247 1.82,4.068 4.073,4.068 1.472,0 2.76,-0.781 3.472,-1.958 C 17.861,23.856 16.98,21.586 16.98,19.112 M 14.036,13.825 V 13.814 7.519 h -2.253 v 9.778 h 3.535 C 14.516,16.363 14.036,15.149 14.036,13.825 M -3.889,7.519 v 8.052 c 0.343,2.053 2.084,3.62 4.184,3.62 1.921,0 3.546,-1.34 4.053,-3.156 V 7.519 Z M 0.19,-4.359 c -6.744,0 -12.485,4.285 -14.659,10.279 H 14.843 C 12.669,-0.074 6.933,-4.359 0.19,-4.359 M -11.477,17.297 V 7.519 h -2.195 v 6.306 c 0,1.324 -0.48,2.538 -1.277,3.472 z m -7.519,8.374 c 0.718,1.145 1.989,1.91 3.446,1.91 2.248,0 4.073,-1.821 4.073,-4.068 v -4.617 h -5.144 c 0,0.068 0.005,0.142 0.005,0.216 0,2.496 -0.897,4.78 -2.38,6.559 m -1.145,1.16 c -1.377,1.193 -3.071,2.027 -4.944,2.349 h 9.519 c -1.884,-0.006 -3.546,-0.929 -4.575,-2.349 M 20.69,58.122 h -0.027 -3.372 c -0.226,9.25 -7.793,16.684 -17.101,16.684 -9.308,0 -16.875,-7.434 -17.107,-16.684 h -3.372 -0.021 c -13.07,0 -23.665,-10.596 -23.665,-23.666 0,-13.065 10.595,-23.66 23.665,-23.66 h 3.393 c 0.232,-9.25 7.799,-16.685 17.107,-16.685 9.308,0 16.875,7.435 17.101,16.685 h 3.399 c 13.065,0 23.66,10.595 23.66,23.66 0,13.07 -10.595,23.666 -23.66,23.666 M 1.741,57.557 h -0.86 v 2.412 h 0.86 z m -2.248,0 h -0.86 v 2.412 h 0.86 z m 6.802,0 H 3.261 v 2.412 H 2.422 v 1.535 h 0.802 v 1.393 H 2.422 v 0.217 c 0,1.123 -0.828,2.047 -1.905,2.205 v 3.868 h -0.659 v -3.868 c -1.077,-0.158 -1.9,-1.082 -1.9,-2.205 v -0.217 h -0.807 v -1.393 h 0.807 V 59.969 H -2.881 V 57.557 H -5.92 V 55.288 H -7.419 V 53.827 H 7.794 v 1.461 H 6.295 Z M 2.675,30.778 h -4.97 V 42.34 h 1.398 c 0.063,0.538 0.512,0.949 1.061,0.949 0.548,0 0.997,-0.411 1.06,-0.949 h 1.451 z m 0,-4.015 h -4.971 v 2.38 H 2.675 Z M 6.332,52.217 H 2.675 V 43.875 H 1.43 c -0.354,0.269 -0.792,0.433 -1.266,0.433 -0.475,0 -0.913,-0.164 -1.267,-0.433 h -1.192 v 8.342 H -5.957 V 26.763 H -7.456 V 23.032 H 7.83 v 3.731 H 6.332 Z M 0.19,46.967 c 0.834,0 1.509,0.676 1.509,1.509 0,0.834 -0.675,1.509 -1.509,1.509 -0.834,0 -1.509,-0.675 -1.509,-1.509 0,-0.833 0.675,-1.509 1.509,-1.509 M 46.477,32.831 C 46.455,32.515 46.434,32.198 46.403,31.886 46.387,31.734 46.366,31.591 46.35,31.443 46.318,31.169 46.287,30.9 46.244,30.625 46.223,30.467 46.192,30.304 46.165,30.145 46.123,29.892 46.081,29.639 46.033,29.391 45.996,29.222 45.959,29.058 45.922,28.889 45.87,28.652 45.817,28.409 45.759,28.172 45.711,28.003 45.669,27.834 45.622,27.665 45.558,27.433 45.495,27.206 45.426,26.974 45.374,26.805 45.321,26.641 45.263,26.473 45.194,26.246 45.12,26.024 45.041,25.802 44.983,25.639 44.92,25.47 44.857,25.306 44.777,25.09 44.688,24.874 44.598,24.658 44.535,24.494 44.466,24.33 44.392,24.167 44.303,23.956 44.208,23.745 44.107,23.539 44.033,23.375 43.96,23.217 43.88,23.053 c -0.1,-0.205 -0.205,-0.406 -0.311,-0.606 -0.084,-0.159 -0.163,-0.317 -0.253,-0.47 -0.111,-0.201 -0.227,-0.401 -0.343,-0.596 -0.09,-0.153 -0.174,-0.306 -0.269,-0.454 -0.116,-0.195 -0.248,-0.391 -0.375,-0.586 -0.095,-0.142 -0.185,-0.29 -0.285,-0.433 -0.132,-0.195 -0.269,-0.385 -0.411,-0.575 -0.095,-0.137 -0.19,-0.274 -0.291,-0.406 -0.147,-0.201 -0.306,-0.391 -0.459,-0.586 -0.095,-0.121 -0.19,-0.242 -0.29,-0.358 -0.185,-0.227 -0.38,-0.449 -0.575,-0.671 C 39.944,17.233 39.881,17.149 39.807,17.07 39.538,16.774 39.263,16.489 38.984,16.21 38.878,16.099 38.762,15.999 38.651,15.893 38.477,15.719 38.298,15.545 38.118,15.381 37.981,15.26 37.844,15.144 37.712,15.022 37.543,14.88 37.38,14.732 37.211,14.59 37.063,14.468 36.91,14.352 36.762,14.231 36.599,14.104 36.435,13.972 36.272,13.846 36.113,13.724 35.95,13.608 35.791,13.492 35.622,13.376 35.459,13.255 35.29,13.139 35.126,13.028 34.958,12.917 34.794,12.806 34.625,12.695 34.456,12.59 34.282,12.484 c -0.174,-0.11 -0.348,-0.211 -0.522,-0.316 -0.174,-0.1 -0.343,-0.201 -0.517,-0.296 -0.18,-0.1 -0.364,-0.2 -0.544,-0.295 -0.174,-0.09 -0.353,-0.18 -0.527,-0.269 -0.19,-0.095 -0.375,-0.185 -0.565,-0.275 C 31.433,10.954 31.253,10.875 31.074,10.796 30.879,10.711 30.689,10.627 30.488,10.543 30.309,10.469 30.124,10.4 29.945,10.331 29.75,10.252 29.549,10.178 29.343,10.105 29.164,10.041 28.979,9.983 28.795,9.92 28.589,9.851 28.383,9.783 28.177,9.719 27.992,9.667 27.808,9.614 27.623,9.566 27.412,9.503 27.201,9.445 26.985,9.392 26.8,9.345 26.615,9.308 26.425,9.26 26.209,9.213 25.987,9.16 25.766,9.118 25.586,9.081 25.402,9.049 25.217,9.018 24.99,8.981 24.763,8.933 24.536,8.901 24.362,8.875 24.183,8.859 24.009,8.838 22.922,8.696 21.814,8.617 20.69,8.617 20.151,8.617 19.618,8.638 19.096,8.669 18.906,7.255 18.563,5.889 18.083,4.591 17.993,4.358 17.904,4.126 17.803,3.894 17.751,3.773 17.698,3.651 17.645,3.53 17.587,3.398 17.529,3.266 17.466,3.134 17.408,3.007 17.35,2.886 17.286,2.759 17.223,2.633 17.16,2.511 17.091,2.385 17.028,2.263 16.97,2.142 16.901,2.026 16.822,1.878 16.737,1.73 16.653,1.588 16.553,1.419 16.447,1.251 16.347,1.087 16.257,0.95 16.173,0.813 16.083,0.681 16.009,0.57 15.935,0.459 15.862,0.353 15.777,0.232 15.698,0.116 15.608,0 15.534,-0.106 15.455,-0.211 15.371,-0.317 15.281,-0.443 15.186,-0.559 15.091,-0.681 15.012,-0.776 14.943,-0.871 14.864,-0.96 14.701,-1.156 14.537,-1.346 14.368,-1.536 14.289,-1.62 14.21,-1.705 14.131,-1.789 14.02,-1.905 13.909,-2.021 13.798,-2.137 13.714,-2.227 13.624,-2.311 13.535,-2.401 13.424,-2.507 13.308,-2.617 13.192,-2.728 13.107,-2.807 13.023,-2.887 12.933,-2.966 12.769,-3.113 12.606,-3.251 12.442,-3.393 12.358,-3.462 12.268,-3.53 12.184,-3.604 12.025,-3.736 11.857,-3.863 11.693,-3.989 11.609,-4.052 11.519,-4.116 11.429,-4.185 11.292,-4.285 11.15,-4.385 11.007,-4.48 10.923,-4.543 10.828,-4.607 10.738,-4.67 10.58,-4.775 10.416,-4.876 10.252,-4.976 10.179,-5.023 10.11,-5.071 10.036,-5.113 9.804,-5.256 9.572,-5.388 9.334,-5.519 9.26,-5.557 9.187,-5.594 9.113,-5.636 8.933,-5.731 8.759,-5.815 8.585,-5.905 8.49,-5.952 8.4,-5.995 8.311,-6.037 8.137,-6.116 7.962,-6.195 7.788,-6.269 7.704,-6.311 7.614,-6.348 7.53,-6.385 7.276,-6.49 7.023,-6.591 6.759,-6.686 6.744,-6.691 6.728,-6.701 6.707,-6.707 6.459,-6.796 6.205,-6.881 5.947,-6.96 5.862,-6.992 5.778,-7.013 5.688,-7.039 5.498,-7.097 5.308,-7.155 5.113,-7.203 5.018,-7.229 4.928,-7.255 4.833,-7.277 4.617,-7.329 4.406,-7.377 4.184,-7.424 4.121,-7.44 4.058,-7.456 3.989,-7.472 3.709,-7.525 3.425,-7.577 3.14,-7.62 3.071,-7.63 3.002,-7.641 2.934,-7.651 2.712,-7.683 2.491,-7.709 2.269,-7.736 2.169,-7.746 2.074,-7.752 1.979,-7.762 1.773,-7.783 1.562,-7.799 1.351,-7.81 1.261,-7.815 1.171,-7.82 1.082,-7.825 0.786,-7.841 0.485,-7.847 0.19,-7.847 H 0.185 c -0.296,0 -0.591,0.006 -0.887,0.022 -0.095,0.005 -0.184,0.01 -0.274,0.015 -0.211,0.011 -0.417,0.027 -0.623,0.048 -0.1,0.01 -0.195,0.016 -0.295,0.026 -0.217,0.027 -0.438,0.053 -0.655,0.085 -0.073,0.01 -0.147,0.021 -0.216,0.031 -0.285,0.043 -0.565,0.095 -0.844,0.148 -0.074,0.016 -0.148,0.037 -0.217,0.053 -0.211,0.042 -0.416,0.09 -0.627,0.142 -0.095,0.022 -0.196,0.048 -0.291,0.074 -0.19,0.053 -0.374,0.106 -0.559,0.159 -0.09,0.026 -0.185,0.052 -0.28,0.084 -0.237,0.074 -0.469,0.153 -0.701,0.237 -0.053,0.022 -0.106,0.037 -0.159,0.059 -0.237,0.089 -0.469,0.179 -0.702,0.279 -0.095,0.037 -0.19,0.079 -0.29,0.122 -0.163,0.073 -0.322,0.142 -0.485,0.221 -0.1,0.047 -0.201,0.095 -0.301,0.143 -0.164,0.079 -0.322,0.163 -0.48,0.247 -0.09,0.048 -0.18,0.09 -0.269,0.143 -0.232,0.121 -0.454,0.253 -0.681,0.391 -0.09,0.052 -0.174,0.11 -0.264,0.168 -0.148,0.09 -0.29,0.18 -0.432,0.275 -0.106,0.068 -0.206,0.137 -0.307,0.205 -0.126,0.09 -0.253,0.18 -0.374,0.27 -0.1,0.073 -0.206,0.148 -0.306,0.221 -0.137,0.106 -0.269,0.211 -0.407,0.322 -0.137,0.111 -0.279,0.227 -0.416,0.343 -0.132,0.111 -0.259,0.222 -0.386,0.338 -0.105,0.089 -0.2,0.184 -0.3,0.274 -0.101,0.095 -0.201,0.19 -0.296,0.285 -0.1,0.095 -0.2,0.195 -0.301,0.296 -0.095,0.095 -0.184,0.195 -0.274,0.29 -0.1,0.1 -0.195,0.206 -0.29,0.311 -0.143,0.158 -0.29,0.322 -0.428,0.491 -0.11,0.132 -0.216,0.269 -0.321,0.401 -0.08,0.095 -0.153,0.19 -0.227,0.29 -0.095,0.122 -0.185,0.243 -0.275,0.364 -0.068,0.095 -0.137,0.196 -0.206,0.291 -0.089,0.126 -0.179,0.253 -0.263,0.385 -0.064,0.094 -0.122,0.189 -0.185,0.284 -0.153,0.243 -0.306,0.491 -0.449,0.744 -0.052,0.09 -0.105,0.18 -0.158,0.275 -0.079,0.137 -0.153,0.28 -0.227,0.422 -0.053,0.1 -0.1,0.201 -0.153,0.301 -0.068,0.148 -0.142,0.29 -0.206,0.433 -0.047,0.1 -0.095,0.205 -0.142,0.306 -0.063,0.147 -0.132,0.295 -0.195,0.448 -0.016,0.042 -0.032,0.09 -0.053,0.132 -0.591,1.462 -1.008,3.008 -1.229,4.622 -0.528,-0.031 -1.056,-0.052 -1.589,-0.052 -1.145,0 -2.263,0.079 -3.366,0.221 -0.159,0.021 -0.322,0.042 -0.48,0.063 -0.238,0.037 -0.475,0.08 -0.713,0.122 -0.174,0.031 -0.348,0.058 -0.517,0.095 -0.232,0.047 -0.459,0.1 -0.691,0.153 -0.174,0.037 -0.348,0.074 -0.522,0.121 -0.227,0.053 -0.449,0.116 -0.671,0.18 -0.174,0.047 -0.348,0.095 -0.522,0.147 -0.222,0.064 -0.433,0.138 -0.649,0.206 -0.174,0.058 -0.348,0.116 -0.517,0.174 -0.211,0.079 -0.422,0.159 -0.633,0.238 -0.169,0.068 -0.343,0.132 -0.512,0.2 -0.201,0.09 -0.406,0.174 -0.612,0.264 -0.169,0.074 -0.338,0.148 -0.502,0.227 -0.2,0.095 -0.401,0.19 -0.596,0.285 -0.163,0.084 -0.327,0.169 -0.491,0.253 -0.195,0.101 -0.385,0.206 -0.58,0.312 -0.158,0.089 -0.317,0.184 -0.475,0.274 -0.19,0.111 -0.38,0.222 -0.564,0.337 -0.159,0.101 -0.312,0.201 -0.465,0.301 -0.184,0.117 -0.364,0.238 -0.543,0.359 -0.153,0.106 -0.301,0.211 -0.449,0.317 -0.179,0.132 -0.353,0.258 -0.527,0.385 -0.143,0.111 -0.285,0.227 -0.433,0.343 -0.169,0.132 -0.343,0.269 -0.507,0.406 -0.142,0.116 -0.279,0.238 -0.417,0.359 -0.163,0.143 -0.327,0.285 -0.49,0.433 -0.132,0.121 -0.259,0.248 -0.391,0.369 -0.158,0.153 -0.322,0.301 -0.475,0.459 -0.11,0.106 -0.211,0.222 -0.311,0.327 -0.311,0.322 -0.607,0.644 -0.897,0.982 -0.127,0.148 -0.259,0.29 -0.385,0.438 -0.127,0.158 -0.253,0.321 -0.375,0.48 -0.121,0.153 -0.248,0.311 -0.369,0.464 -0.122,0.164 -0.238,0.328 -0.354,0.491 -0.116,0.163 -0.237,0.327 -0.348,0.491 -0.116,0.168 -0.222,0.337 -0.332,0.506 -0.111,0.169 -0.222,0.338 -0.328,0.507 -0.105,0.174 -0.205,0.348 -0.306,0.517 -0.1,0.179 -0.205,0.353 -0.306,0.533 -0.095,0.174 -0.19,0.348 -0.285,0.528 -0.089,0.184 -0.184,0.364 -0.279,0.548 -0.085,0.18 -0.169,0.359 -0.259,0.539 -0.084,0.19 -0.169,0.379 -0.253,0.564 -0.079,0.185 -0.158,0.37 -0.232,0.554 -0.079,0.19 -0.159,0.385 -0.227,0.58 -0.074,0.19 -0.143,0.375 -0.211,0.565 -0.069,0.196 -0.137,0.396 -0.201,0.596 -0.063,0.19 -0.126,0.381 -0.179,0.57 -0.063,0.206 -0.121,0.412 -0.174,0.618 -0.053,0.19 -0.111,0.385 -0.159,0.58 -0.047,0.206 -0.095,0.422 -0.142,0.633 -0.048,0.19 -0.09,0.386 -0.127,0.581 -0.042,0.216 -0.084,0.438 -0.121,0.654 -0.032,0.195 -0.063,0.385 -0.095,0.581 -0.037,0.226 -0.058,0.458 -0.084,0.691 -0.027,0.19 -0.053,0.374 -0.069,0.564 -0.026,0.248 -0.042,0.496 -0.058,0.75 -0.011,0.174 -0.026,0.348 -0.037,0.527 -0.016,0.333 -0.021,0.665 -0.026,1.003 0,0.09 -0.006,0.184 -0.006,0.274 0,0.095 0.006,0.19 0.006,0.28 0.005,0.338 0.01,0.67 0.026,1.002 0.011,0.18 0.026,0.354 0.037,0.528 0.016,0.253 0.032,0.501 0.058,0.749 0.016,0.19 0.042,0.375 0.069,0.565 0.026,0.232 0.047,0.464 0.084,0.691 0.032,0.19 0.063,0.386 0.095,0.581 0.037,0.216 0.079,0.438 0.121,0.654 0.037,0.195 0.079,0.39 0.127,0.58 0.047,0.211 0.095,0.428 0.142,0.634 0.048,0.195 0.106,0.39 0.159,0.58 0.053,0.206 0.111,0.412 0.174,0.612 0.053,0.195 0.116,0.385 0.179,0.575 0.064,0.201 0.132,0.401 0.201,0.597 0.068,0.19 0.137,0.38 0.211,0.564 0.068,0.195 0.148,0.385 0.227,0.58 0.074,0.185 0.153,0.37 0.232,0.555 0.084,0.189 0.169,0.374 0.253,0.564 0.09,0.18 0.174,0.359 0.259,0.544 0.095,0.179 0.19,0.364 0.279,0.543 0.095,0.174 0.19,0.354 0.285,0.528 0.101,0.179 0.206,0.353 0.306,0.533 0.101,0.169 0.201,0.343 0.306,0.517 0.106,0.169 0.217,0.338 0.328,0.506 0.11,0.169 0.216,0.338 0.332,0.507 0.111,0.164 0.232,0.327 0.348,0.491 0.116,0.163 0.232,0.327 0.354,0.491 0.121,0.158 0.248,0.311 0.369,0.464 0.122,0.163 0.248,0.322 0.375,0.48 0.126,0.148 0.258,0.29 0.385,0.438 0.29,0.332 0.586,0.659 0.897,0.981 0.1,0.106 0.201,0.222 0.311,0.328 0.153,0.158 0.317,0.306 0.475,0.453 0.132,0.127 0.259,0.254 0.391,0.375 0.163,0.148 0.327,0.29 0.49,0.433 0.138,0.121 0.275,0.242 0.417,0.358 0.164,0.138 0.338,0.275 0.507,0.412 0.148,0.111 0.29,0.227 0.433,0.333 0.174,0.137 0.348,0.258 0.527,0.39 0.148,0.106 0.296,0.211 0.449,0.317 0.179,0.121 0.359,0.242 0.543,0.363 0.153,0.095 0.306,0.196 0.465,0.296 0.184,0.116 0.374,0.227 0.564,0.338 0.158,0.089 0.317,0.184 0.475,0.274 0.195,0.106 0.385,0.211 0.58,0.311 0.164,0.085 0.328,0.169 0.491,0.248 0.195,0.101 0.396,0.196 0.596,0.291 0.164,0.079 0.333,0.153 0.502,0.227 0.206,0.089 0.411,0.179 0.612,0.263 0.169,0.069 0.343,0.132 0.512,0.201 0.211,0.079 0.422,0.158 0.633,0.232 0.169,0.063 0.343,0.121 0.517,0.18 0.216,0.068 0.427,0.142 0.649,0.205 0.174,0.053 0.348,0.101 0.522,0.148 0.222,0.063 0.444,0.127 0.671,0.179 0.174,0.048 0.348,0.085 0.522,0.122 0.232,0.053 0.459,0.111 0.691,0.153 0.169,0.032 0.343,0.063 0.517,0.095 0.238,0.042 0.475,0.084 0.713,0.121 0.158,0.027 0.321,0.042 0.48,0.058 1.103,0.148 2.221,0.227 3.366,0.227 0.533,0 1.066,-0.021 1.594,-0.053 0.211,1.562 0.607,3.066 1.171,4.485 0.037,0.095 0.074,0.185 0.106,0.275 0.063,0.148 0.126,0.29 0.195,0.433 0.047,0.105 0.095,0.216 0.142,0.321 0.064,0.143 0.132,0.28 0.201,0.417 0.053,0.111 0.111,0.217 0.164,0.322 0.073,0.137 0.142,0.269 0.216,0.407 0.058,0.105 0.126,0.211 0.185,0.321 0.131,0.227 0.269,0.454 0.411,0.681 0.069,0.1 0.137,0.211 0.206,0.311 0.079,0.127 0.163,0.248 0.248,0.37 0.074,0.105 0.148,0.205 0.222,0.306 0.084,0.121 0.174,0.237 0.263,0.353 0.08,0.106 0.164,0.211 0.243,0.312 0.085,0.11 0.174,0.221 0.264,0.327 0.153,0.184 0.317,0.374 0.48,0.554 0.09,0.1 0.179,0.195 0.269,0.29 0.1,0.106 0.195,0.211 0.296,0.311 0.095,0.095 0.19,0.19 0.285,0.285 0.105,0.101 0.211,0.201 0.316,0.301 0.095,0.084 0.185,0.174 0.285,0.264 0.137,0.121 0.28,0.243 0.422,0.364 0.122,0.1 0.243,0.201 0.364,0.301 0.143,0.116 0.285,0.232 0.433,0.343 0.095,0.068 0.195,0.142 0.29,0.211 0.132,0.095 0.259,0.19 0.391,0.28 0.095,0.068 0.195,0.131 0.295,0.2 0.148,0.095 0.296,0.19 0.443,0.285 0.09,0.053 0.169,0.106 0.259,0.158 0.222,0.137 0.454,0.269 0.686,0.396 0.084,0.048 0.169,0.09 0.253,0.132 0.164,0.089 0.327,0.174 0.491,0.253 0.1,0.053 0.201,0.095 0.301,0.143 0.163,0.079 0.327,0.153 0.496,0.226 0.089,0.037 0.179,0.08 0.274,0.117 0.238,0.1 0.48,0.195 0.723,0.284 0.042,0.016 0.084,0.032 0.132,0.048 0.232,0.084 0.475,0.169 0.718,0.243 0.089,0.031 0.184,0.058 0.274,0.084 0.185,0.053 0.369,0.111 0.559,0.158 0.095,0.027 0.19,0.053 0.291,0.08 0.211,0.047 0.416,0.095 0.627,0.142 0.069,0.016 0.143,0.032 0.217,0.048 0.279,0.058 0.559,0.105 0.844,0.147 0.069,0.016 0.143,0.021 0.216,0.032 0.217,0.032 0.438,0.058 0.655,0.084 0.1,0.011 0.195,0.021 0.295,0.032 0.206,0.016 0.412,0.032 0.623,0.048 0.09,0.005 0.179,0.01 0.274,0.01 0.296,0.016 0.591,0.026 0.887,0.026 H 0.19 c 0.295,0 0.596,-0.01 0.892,-0.026 0.089,0 0.179,-0.005 0.269,-0.01 0.211,-0.016 0.422,-0.032 0.628,-0.048 0.095,-0.016 0.19,-0.021 0.285,-0.032 0.227,-0.026 0.448,-0.052 0.675,-0.084 0.063,-0.011 0.132,-0.016 0.201,-0.032 0.285,-0.042 0.569,-0.089 0.849,-0.147 0.069,-0.016 0.132,-0.032 0.195,-0.043 0.222,-0.047 0.433,-0.1 0.649,-0.153 0.095,-0.021 0.185,-0.047 0.275,-0.068 0.2,-0.053 0.39,-0.111 0.585,-0.169 0.085,-0.027 0.169,-0.048 0.254,-0.079 0.258,-0.079 0.517,-0.164 0.77,-0.259 0.011,0 0.021,-0.005 0.037,-0.01 C 7.018,75.514 7.276,75.408 7.535,75.303 7.614,75.266 7.699,75.229 7.783,75.192 7.962,75.118 8.137,75.033 8.311,74.954 8.4,74.912 8.49,74.87 8.58,74.823 c 0.179,-0.085 0.364,-0.18 0.538,-0.275 0.074,-0.037 0.142,-0.074 0.216,-0.111 0.238,-0.132 0.47,-0.264 0.702,-0.406 0.069,-0.042 0.137,-0.084 0.206,-0.127 0.169,-0.105 0.338,-0.211 0.501,-0.322 0.085,-0.058 0.174,-0.116 0.264,-0.179 0.143,-0.1 0.285,-0.2 0.433,-0.306 0.084,-0.064 0.169,-0.121 0.253,-0.185 0.174,-0.132 0.343,-0.269 0.512,-0.411 0.068,-0.053 0.137,-0.106 0.206,-0.164 0.179,-0.148 0.353,-0.301 0.527,-0.459 0.085,-0.069 0.164,-0.148 0.243,-0.222 0.121,-0.116 0.243,-0.232 0.359,-0.343 0.09,-0.084 0.169,-0.168 0.253,-0.253 0.116,-0.121 0.232,-0.237 0.348,-0.364 0.074,-0.079 0.148,-0.158 0.222,-0.237 0.174,-0.196 0.343,-0.386 0.507,-0.586 0.068,-0.079 0.137,-0.169 0.205,-0.258 0.106,-0.127 0.206,-0.254 0.301,-0.386 0.079,-0.1 0.153,-0.2 0.227,-0.306 0.095,-0.121 0.179,-0.242 0.264,-0.364 0.074,-0.106 0.142,-0.211 0.216,-0.316 0.095,-0.143 0.185,-0.291 0.28,-0.433 0.09,-0.148 0.179,-0.296 0.264,-0.443 0.095,-0.159 0.19,-0.317 0.279,-0.481 0.064,-0.11 0.122,-0.226 0.18,-0.343 0.068,-0.131 0.137,-0.258 0.205,-0.39 0.059,-0.121 0.117,-0.243 0.175,-0.364 0.063,-0.137 0.121,-0.269 0.184,-0.406 0.053,-0.122 0.106,-0.238 0.153,-0.359 0.101,-0.227 0.19,-0.459 0.28,-0.697 0.48,-1.298 0.823,-2.664 1.013,-4.079 0.522,0.032 1.055,0.053 1.594,0.053 1.124,0 2.232,-0.079 3.319,-0.221 0.174,-0.022 0.353,-0.037 0.527,-0.064 0.227,-0.037 0.454,-0.079 0.681,-0.116 0.185,-0.032 0.369,-0.063 0.549,-0.1 0.221,-0.042 0.443,-0.095 0.659,-0.148 0.19,-0.037 0.375,-0.079 0.56,-0.127 0.216,-0.052 0.427,-0.11 0.638,-0.174 0.185,-0.047 0.369,-0.1 0.554,-0.158 0.206,-0.058 0.412,-0.127 0.618,-0.195 0.184,-0.064 0.369,-0.122 0.548,-0.19 0.206,-0.069 0.407,-0.143 0.602,-0.222 0.179,-0.068 0.364,-0.142 0.543,-0.211 0.201,-0.084 0.391,-0.169 0.586,-0.253 0.179,-0.074 0.359,-0.158 0.533,-0.238 0.19,-0.089 0.375,-0.179 0.565,-0.274 0.174,-0.09 0.353,-0.179 0.527,-0.269 0.18,-0.095 0.364,-0.195 0.544,-0.296 0.174,-0.095 0.343,-0.195 0.517,-0.295 0.174,-0.105 0.348,-0.206 0.522,-0.311 0.174,-0.111 0.343,-0.217 0.512,-0.327 0.164,-0.111 0.332,-0.222 0.496,-0.333 0.169,-0.116 0.332,-0.238 0.501,-0.359 0.159,-0.11 0.322,-0.227 0.481,-0.343 0.163,-0.127 0.327,-0.264 0.49,-0.39 0.148,-0.122 0.301,-0.238 0.449,-0.359 0.169,-0.142 0.332,-0.29 0.501,-0.433 0.132,-0.116 0.269,-0.237 0.406,-0.358 0.18,-0.164 0.359,-0.338 0.533,-0.512 0.111,-0.106 0.227,-0.206 0.333,-0.317 0.279,-0.28 0.554,-0.57 0.823,-0.86 0.074,-0.079 0.137,-0.164 0.211,-0.243 0.195,-0.221 0.39,-0.443 0.575,-0.67 0.1,-0.116 0.195,-0.237 0.29,-0.359 0.153,-0.195 0.312,-0.385 0.459,-0.585 0.101,-0.137 0.196,-0.269 0.291,-0.407 0.142,-0.19 0.279,-0.38 0.411,-0.575 0.1,-0.148 0.19,-0.29 0.285,-0.432 0.127,-0.196 0.259,-0.386 0.375,-0.586 0.095,-0.148 0.179,-0.301 0.269,-0.449 0.116,-0.2 0.232,-0.401 0.343,-0.601 0.09,-0.153 0.169,-0.312 0.253,-0.465 0.106,-0.205 0.211,-0.406 0.311,-0.612 0.08,-0.163 0.153,-0.322 0.227,-0.485 0.101,-0.206 0.196,-0.417 0.285,-0.628 0.074,-0.158 0.143,-0.327 0.206,-0.491 0.09,-0.216 0.179,-0.427 0.259,-0.643 0.063,-0.17 0.126,-0.338 0.184,-0.502 0.079,-0.221 0.153,-0.443 0.222,-0.67 0.058,-0.169 0.111,-0.332 0.163,-0.506 0.069,-0.227 0.132,-0.46 0.196,-0.686 0.047,-0.169 0.089,-0.338 0.137,-0.507 0.058,-0.238 0.111,-0.48 0.163,-0.718 0.037,-0.163 0.074,-0.332 0.111,-0.501 0.048,-0.248 0.09,-0.501 0.132,-0.755 0.027,-0.158 0.058,-0.321 0.079,-0.48 0.043,-0.274 0.074,-0.543 0.106,-0.817 0.016,-0.148 0.037,-0.291 0.053,-0.444 0.031,-0.311 0.052,-0.628 0.074,-0.944 0.005,-0.111 0.015,-0.217 0.021,-0.327 0.021,-0.433 0.031,-0.866 0.031,-1.304 0,-0.432 -0.01,-0.865 -0.031,-1.298 -0.006,-0.111 -0.016,-0.216 -0.021,-0.327 M 22.426,64.39 C 19.545,73.947 10.685,80.912 0.19,80.912 c -10.495,0 -19.36,-6.965 -22.241,-16.522 -15.751,-0.902 -28.246,-13.951 -28.246,-29.934 0,-15.972 12.495,-29.026 28.246,-29.929 2.881,-9.561 11.746,-16.521 22.241,-16.521 10.495,0 19.355,6.96 22.236,16.521 15.75,0.903 28.251,13.957 28.251,29.929 0,15.983 -12.501,29.032 -28.251,29.934 M 0.19,40.002 c -0.38,0 -0.686,-0.311 -0.686,-0.686 v -5.488 c 0,-0.38 0.306,-0.686 0.686,-0.686 0.375,0 0.686,0.306 0.686,0.686 v 5.488 c 0,0.375 -0.311,0.686 -0.686,0.686" /></g></g></svg>
