<?xml version="1.0" encoding="UTF-8" standalone="no"?>
<!-- Created with Inkscape (http://www.inkscape.org/) -->

<svg
   width="2100"
   height="900"
   viewBox="0 0 555.62498 238.125"
   version="1.1"
   id="svg1"
   inkscape:version="1.3.2 (091e20ef0f, 2023-11-25)"
   sodipodi:docname="xtom.svg"
   xml:space="preserve"
   inkscape:export-filename="microsoft.png"
   inkscape:export-xdpi="96"
   inkscape:export-ydpi="96"
   xmlns:inkscape="http://www.inkscape.org/namespaces/inkscape"
   xmlns:sodipodi="http://sodipodi.sourceforge.net/DTD/sodipodi-0.dtd"
   xmlns="http://www.w3.org/2000/svg"
   xmlns:svg="http://www.w3.org/2000/svg"><sodipodi:namedview
     id="namedview1"
     pagecolor="#ffffff"
     bordercolor="#000000"
     borderopacity="0.25"
     inkscape:showpageshadow="2"
     inkscape:pageopacity="0.0"
     inkscape:pagecheckerboard="0"
     inkscape:deskcolor="#d1d1d1"
     inkscape:document-units="mm"
     inkscape:zoom="0.27866544"
     inkscape:cx="956.34392"
     inkscape:cy="897.13314"
     inkscape:window-width="1920"
     inkscape:window-height="1100"
     inkscape:window-x="0"
     inkscape:window-y="0"
     inkscape:window-maximized="1"
     inkscape:current-layer="layer1" /><defs
     id="defs1"><clipPath
       clipPathUnits="userSpaceOnUse"
       id="clipPath1"><rect
         style="opacity:0.129301;fill:#000000;fill-opacity:1;stroke-width:12.7;stroke-linecap:round;stroke-linejoin:round"
         id="rect2"
         width="60.854168"
         height="60.854168"
         x="195.08763"
         y="116.66334" /></clipPath></defs><g
     inkscape:label="图层 1"
     inkscape:groupmode="layer"
     id="layer1"><g
       id="g1"
       transform="matrix(14.836276,0,0,14.836276,-5244.9627,-7262.4659)"><path
         d="m 373.0873,496.53197 h -1.9513 v 4.05143 h -1.60404 v -4.05143 h -1.96783 v -1.30638 h 5.52317 z m 6.21771,1.35599 c 0,0.49609 -0.11575,0.95911 -0.34727,1.37252 -0.23151,0.41341 -0.57877,0.74414 -1.02526,0.99219 -0.46302,0.24805 -1.00872,0.3638 -1.65364,0.3638 -0.66146,0 -1.2237,-0.13229 -1.67018,-0.38034 -0.46302,-0.26458 -0.79375,-0.59531 -1.02526,-1.00872 -0.21498,-0.41341 -0.33073,-0.8599 -0.33073,-1.33945 0,-0.47956 0.11575,-0.92605 0.33073,-1.33946 0.21497,-0.41341 0.56224,-0.76067 1.02526,-1.00872 0.46302,-0.24805 1.02526,-0.38034 1.68671,-0.38034 0.4961,0 0.92605,0.0661 1.32292,0.21497 0.39688,0.14883 0.71107,0.34727 0.95912,0.59532 0.24804,0.24804 0.42994,0.5457 0.56224,0.87643 0.0992,0.33073 0.16536,0.67799 0.16536,1.0418 z m -1.65365,0 c 0,-0.19844 -0.0331,-0.38034 -0.0827,-0.54571 -0.0661,-0.16536 -0.14883,-0.31419 -0.26458,-0.42995 -0.11576,-0.11575 -0.26458,-0.21497 -0.42995,-0.28112 -0.16536,-0.0661 -0.3638,-0.0992 -0.59531,-0.0992 -0.42995,0 -0.77722,0.13229 -1.02526,0.38033 -0.24805,0.24805 -0.3638,0.57878 -0.3638,0.99219 0,0.41341 0.13229,0.74414 0.3638,0.99219 0.24804,0.24805 0.57877,0.38034 1.00872,0.38034 0.29766,0 0.54571,-0.0661 0.76068,-0.1819 0.21497,-0.11576 0.3638,-0.28112 0.47956,-0.47956 0.11575,-0.19844 0.14882,-0.46302 0.14882,-0.7276 z m 8.86355,2.6789 h -1.60404 v -3.09232 l -1.45521,1.78594 h -0.13229 l -1.45521,-1.78594 v 3.09232 h -1.57096 v -5.34127 h 1.45521 l 1.63711,2.00091 1.65364,-2.00091 h 1.45521 v 5.34127 z"
         id="path1"
         style="fill:#000000;fill-opacity:1;fill-rule:nonzero;stroke-width:0.264583" /><path
         d="m 359.85814,496.7304 h 2.16627 l -2.72851,-2.72851 c -0.29766,-0.29766 -0.79375,-0.29766 -1.09141,0 -0.29766,0.29765 -0.29766,0.79375 0,1.0914 z m 3.70416,1.53789 h -2.16627 l 2.8608,2.86081 c 0.29766,0.29766 0.79375,0.29766 1.09141,0 0.29766,-0.29765 0.29766,-0.79375 0,-1.0914 z"
         id="path2"
         style="fill:#000000;fill-opacity:1;fill-rule:nonzero;stroke-width:0.264583" /><path
         d="m 363.62845,496.7304 1.70325,-1.70325 c 0.29766,-0.29766 0.29766,-0.79375 0,-1.09141 -0.29765,-0.29765 -0.79375,-0.29765 -1.0914,0 l -2.79466,2.79466 z m -3.72071,1.53789 -1.70325,1.70326 c -0.29766,0.29766 -0.29766,0.79375 0,1.09141 0.29766,0.29765 0.79375,0.29765 1.09141,0 l 2.79466,-2.79467 z"
         id="path3"
         style="fill:#9ca3af;fill-opacity:1;fill-rule:nonzero;stroke-width:0.264583" /></g></g></svg>
