<?xml version="1.0" encoding="UTF-8" standalone="no"?>
<!-- Created with Inkscape (http://www.inkscape.org/) -->

<svg
   width="2240"
   height="800"
   viewBox="0 0 592.66665 211.66667"
   version="1.1"
   id="svg1"
   inkscape:version="1.3.2 (091e20ef0f, 2023-11-25)"
   sodipodi:docname="liblol.svg"
   inkscape:export-filename="liblol.png"
   inkscape:export-xdpi="96"
   inkscape:export-ydpi="96"
   xmlns:inkscape="http://www.inkscape.org/namespaces/inkscape"
   xmlns:sodipodi="http://sodipodi.sourceforge.net/DTD/sodipodi-0.dtd"
   xmlns="http://www.w3.org/2000/svg"
   xmlns:svg="http://www.w3.org/2000/svg">
  <sodipodi:namedview
     id="namedview1"
     pagecolor="#ed6969"
     bordercolor="#000000"
     borderopacity="0.25"
     inkscape:showpageshadow="2"
     inkscape:pageopacity="0.0"
     inkscape:pagecheckerboard="0"
     inkscape:deskcolor="#d1d1d1"
     inkscape:document-units="mm"
     inkscape:zoom="0.29304583"
     inkscape:cx="883.8208"
     inkscape:cy="856.52132"
     inkscape:window-width="1920"
     inkscape:window-height="1100"
     inkscape:window-x="0"
     inkscape:window-y="0"
     inkscape:window-maximized="1"
     inkscape:current-layer="layer1"
     inkscape:export-bgcolor="#ed6969ff" />
  <defs
     id="defs1" />
  <g
     inkscape:label="图层 1"
     inkscape:groupmode="layer"
     id="layer1">
    <rect
       style="opacity:1;fill:#ed6969;fill-opacity:1;stroke-width:2.32474;stroke-linecap:round;stroke-linejoin:round"
       id="rect1"
       width="592.66669"
       height="211.66667"
       x="-1.0172526e-05"
       y="-2.5431316e-06" />
    <circle
       style="fill:#ca3193;fill-opacity:1;stroke:none;stroke-width:11.5588;paint-order:stroke fill markers"
       id="path1"
       cx="114.90627"
       cy="-116.07372"
       r="211.66667"
       transform="scale(1,-1)" />
    <circle
       style="fill:#da8abd;fill-opacity:1;stroke:#ed6969;stroke-width:21.1667;stroke-dasharray:none;stroke-opacity:1;paint-order:stroke fill markers"
       id="path2-5"
       cx="351.74289"
       cy="-159.22942"
       r="66.145836"
       transform="scale(1,-1)" />
    <circle
       style="fill:#ffd3ef;fill-opacity:1;stroke:#ed6969;stroke-width:21.1667;stroke-dasharray:none;stroke-opacity:1;paint-order:stroke fill markers"
       id="path2"
       cx="430.44788"
       cy="-182.42416"
       r="42.951103"
       transform="scale(1,-1)" />
    <g
       id="text2"
       style="font-size:33.8667px;line-height:0;font-family:'Noto Color Emoji';-inkscape-font-specification:'Noto Color Emoji';fill:#ca3193;stroke-width:16.9333;paint-order:stroke fill markers"
       aria-label="新世界很大&#10;libLoL&#10;带您去看看">
      <path
         style="font-size:47.625px;line-height:0.8;font-family:misans;-inkscape-font-specification:misans;fill:#ffffff"
         d="m 49.775532,53.652214 h -8.143875 v 11.049 q 0,1.80975 -0.428625,2.76225 -0.428625,0.9525 -1.571625,1.3335 -1.095375,0.428625 -3.190875,0.428625 h -2.905125 l -0.714375,-3.81 h 2.524125 q 1.3335,0 1.857375,-0.142875 0.523875,-0.1905 0.619125,-0.66675 0.142875,-0.47625 0.142875,-1.666875 v -9.286875 h -8.810625 v -3.6195 h 8.810625 v -4.7625 h -9.7155 v -3.571875 h 5.715 q -0.85725,-4.66725 -1.476375,-7.239 h -2.8575 v -3.476625 h 8.334375 l -1.42875,-4.3815 3.952875,-0.66675 q 0.428625,1.143 1.571625,5.04825 h 7.477125 v 3.476625 h -2.57175 q -0.66675,3.095625 -1.80975,7.239 h 5.42925 v 3.571875 h -8.9535 v 4.7625 h 8.143875 z M 70.492407,42.650839 v 3.857625 h -4.953 v 23.098125 h -3.71475 V 46.508464 h -5.5245 q 0,6.096 -0.428625,10.00125 -0.428625,3.857625 -1.476375,6.95325 -1.000125,3.048 -3.000375,6.429375 l -3.857625,-1.905 q 2.00025,-3.048 3.000375,-5.9055 1.04775,-2.8575 1.42875,-6.57225 0.428625,-3.762375 0.428625,-9.81075 v -14.76375 q 4.238625,-0.381 8.5725,-1.285875 4.333875,-0.9525 7.33425,-2.0955 l 1.23825,3.81 q -2.524125,1.04775 -6.143625,1.905 -3.6195,0.85725 -7.096125,1.23825 v 8.143875 z m -34.623375,-8.1915 0.28575,1.143 q 1.143,5.23875 1.285875,6.096 h 4.191 q 0.9525,-3.095625 1.857375,-7.239 z m -0.142875,21.9075 q -2.286,5.953125 -5.000625,10.0965 l -2.905125,-1.80975 q 1.381125,-1.952625 2.4765,-4.191 1.095375,-2.238375 2.286,-5.334 z m 9.667875,-1.190625 q 2.143125,2.95275 4.524375,6.477 l -2.714625,2.143125 q -2.38125,-3.71475 -4.47675,-6.6675 z M 111.35466,41.412589 v 15.14475 H 93.257157 v -15.14475 h -7.62 v 22.479 h 31.242003 v 4.191 H 81.398532 v -26.67 h -5.42925 v -4.09575 h 5.42925 v -9.62025 h 4.238625 v 9.62025 h 7.62 V 26.505964 h 4.191 v 10.810875 h 9.763123 V 26.410714 h 4.14338 v 10.906125 h 6.52462 v 4.09575 z m -4.14338,11.096625 V 41.412589 h -9.763123 v 11.096625 z m 56.91188,7.286625 q -5.28638,-1.666875 -9.76313,-4.048125 v 14.097 h -4.14337 v -15.14475 h 2.23837 q -4.81012,-2.809875 -7.8105,-6.096 -2.71462,2.95275 -8.04862,6.048375 h 2.8575 v 2.333625 q 0,4.048125 -2.286,7.381875 -2.23838,3.33375 -7.4295,6.096 l -2.52413,-3.381375 q 3.2385,-1.476375 5.00063,-3.000375 1.80975,-1.524 2.4765,-3.190875 0.71437,-1.7145 0.71437,-3.90525 v -1.666875 q -4.66725,2.57175 -10.4775,4.619625 l -1.7145,-3.762375 q 10.52513,-3.14325 17.38313,-8.905875 H 127.78528 V 28.077589 h 33.57563 v 19.192875 h -13.04925 q 3.19087,2.8575 7.47712,5.000625 4.28625,2.143125 10.00125,3.71475 z m -21.47888,-23.622 v -4.524375 h -10.8585 v 4.524375 z m 3.81,0 h 10.90613 v -4.524375 h -10.90613 z m -3.81,3.14325 h -10.8585 v 4.47675 h 10.8585 z m 3.81,0 v 4.47675 h 10.90613 v -4.47675 z m 37.81425,-10.4775 q -1.85737,2.8575 -5.09587,6.524625 -3.2385,3.6195 -6.2865,6.238875 l -1.7145,-3.90525 q 2.38125,-2.047875 5.28637,-5.334 2.95275,-3.33375 4.52438,-5.81025 z m 19.812,30.6705 q 3.28613,3.14325 9.19163,5.81025 l -2.19075,3.571875 q -6.76275,-3.381375 -10.57275,-7.667625 -3.76238,-4.333875 -6.04838,-11.382375 h -3.81 v 14.716125 l 7.76288,-3.381375 0.61912,4.0005 -12.192,4.905375 -1.7145,-3.71475 q 1.00013,-0.5715 1.28588,-0.9525 0.33337,-0.428625 0.33337,-1.23825 v -35.6235 h 23.09813 v 21.288375 h -11.57288 q 1.38113,4.048125 3.47663,7.000875 3.52425,-2.19075 8.1915,-5.81025 l 2.23837,2.905125 q -4.66725,3.429 -8.09625,5.572125 z m 1.905,-22.00275 v -5.286375 h -15.33525 v 5.286375 z m -21.1455,2.238375 q -1.85737,3.286125 -4.23862,6.619875 v 23.52675 h -3.90525 v -18.4785 q -2.4765,2.95275 -4.28625,4.572 l -1.61925,-4.09575 q 2.4765,-2.143125 5.61975,-6.38175 3.19087,-4.238625 5.23875,-7.953375 z m 21.1455,1.285875 h -15.33525 v 5.191125 h 15.33525 z m 35.814,1.7145 q 1.66688,7.52475 6.23888,13.04925 4.572,5.5245 12.954,10.00125 l -2.57175,4.0005 q -13.81125,-7.953375 -18.33563,-19.669125 -2.286,5.9055 -7.09612,10.810875 -4.7625,4.85775 -11.52525,9.04875 l -2.61938,-4.09575 q 8.04863,-4.429125 13.04925,-10.38225 5.00063,-6.00075 5.61975,-13.43025 h -17.76412 v -4.09575 h 17.85937 v -11.52525 h 4.33388 v 11.52525 h 18.00225 v 4.09575 h -18.0975 q 0,0.428625 -0.0476,0.66675 z"
         id="path3" />
      <path
         style="font-weight:bold;font-size:45.1556px;line-height:1.2;font-family:misans;-inkscape-font-specification:'misans Bold';fill:#ffffff"
         d="m 28.015496,77.064323 h 8.128008 v 26.416027 q 0,1.58045 1.580446,1.58045 h 1.354668 v 7.67645 h -3.973693 q -3.431826,0 -5.283205,-1.67076 -1.806224,-1.71591 -1.806224,-4.8768 z m 23.796963,0.948267 q 0,2.167469 -1.309512,3.476982 -1.264357,1.264357 -3.476982,1.264357 -2.167469,0 -3.431826,-1.264357 -1.264356,-1.309513 -1.264356,-3.476982 0,-2.167468 1.264356,-3.431825 1.264357,-1.309513 3.431826,-1.309513 2.212625,0 3.476982,1.309513 1.309512,1.264357 1.309512,3.431825 z m -0.677334,7.405519 V 112.73725 H 43.007117 V 85.418109 Z m 5.554102,27.319141 V 77.064323 h 8.128008 v 11.514678 h 0.270933 q 1.219202,-1.761068 3.070581,-2.754492 1.896536,-1.038578 4.018849,-1.038578 3.251203,0 5.64445,1.715913 2.438403,1.715912 3.747915,4.876804 1.309512,3.160893 1.309512,7.450675 0,4.425247 -1.309512,7.721607 -1.309512,3.29636 -3.747915,5.05743 -2.438402,1.76107 -5.734761,1.76107 -2.122314,0 -3.973693,-0.99343 -1.806224,-0.99342 -3.025426,-2.79964 h -0.270933 v 3.16089 z m 7.947385,-13.636994 q 0,3.070584 1.309513,4.876804 1.309512,1.80623 3.567292,1.80623 2.348092,0 3.70276,-1.80623 1.354668,-1.80622 1.354668,-4.876804 0,-3.115736 -1.309513,-4.92196 -1.309512,-1.806224 -3.567292,-1.806224 -2.348091,0 -3.702759,1.806224 -1.354669,1.806224 -1.354669,4.92196 z M 95.613321,77.064323 v 28.086787 h 16.346329 v 7.58614 H 87.214379 V 77.064323 Z m 31.428249,36.305107 q -4.06401,0 -7.08943,-1.71592 -2.98027,-1.76106 -4.60587,-4.96711 -1.58045,-3.25121 -1.58045,-7.631299 0,-4.334938 1.58045,-7.540986 1.6256,-3.251203 4.60587,-4.967116 3.02542,-1.761068 7.08943,-1.761068 4.064,0 7.04427,1.761068 3.02543,1.715913 4.60587,4.967116 1.62561,3.206048 1.62561,7.540986 0,4.380089 -1.62561,7.631299 -1.58044,3.20605 -4.60587,4.96711 -2.98027,1.71592 -7.04427,1.71592 z m 0,-7.67646 q 2.30293,0 3.61245,-1.76106 1.35466,-1.80623 1.35466,-4.876809 0,-3.070581 -1.35466,-4.83165 -1.30952,-1.761068 -3.61245,-1.761068 -2.30294,0 -3.6576,1.761068 -1.30952,1.761069 -1.30952,4.83165 0,3.070579 1.30952,4.876809 1.35466,1.76106 3.6576,1.76106 z m 26.00965,-28.628647 v 28.086787 h 16.34633 v 7.58614 H 144.65228 V 77.064323 Z"
         id="path4" />
      <path
         style="font-size:19.05px;line-height:0.9;font-family:misans;-inkscape-font-specification:misans;fill:#ffffff"
         d="m 40.155281,121.46921 v 1.84785 h 3.1623 v 1.4478 h -3.1623 v 1.88595 h -1.523999 v -1.88595 h -2.87655 v 1.88595 h -1.50495 v -1.88595 h -2.87655 v 1.88595 h -1.524 v -1.88595 h -3.14325 v -1.4478 h 3.14325 v -1.84785 h 1.524 v 1.84785 h 2.87655 v -1.84785 h 1.50495 v 1.84785 h 2.87655 v -1.84785 z m -11.372849,9.23925 h -1.54305 v -3.25755 h 15.563849 v 3.25755 h -1.5621 v -1.80975 H 28.782432 Z m 7.02945,-1.2192 v 1.65735 h 5.391149 v 3.90525 q 0,0.85725 -0.1905,1.31445 -0.17145,0.4572 -0.6477,0.6477 -0.4572,0.1905 -1.352549,0.1905 h -1.88595 l -0.3048,-1.42875 h 1.6002 q 0.70485,0 0.9525,-0.1905 0.24765,-0.20955 0.2667,-0.7239 v -2.26695 h -3.82905 v 6.0579 h -1.61925 v -6.0579 h -3.81 v 4.66725 h -1.524 v -6.11505 h 5.334 v -1.65735 z m 14.477999,-3.6195 q 0.9525,-1.0287 1.69545,-2.286 0.762,-1.27635 1.2954,-2.5146 l 1.46685,0.3429 q -0.32385,0.8001 -0.6858,1.54305 h 7.94385 v 1.42875 l -1.46685,2.3241 -1.4097,-0.47625 1.16205,-1.77165 h -7.0866 q -0.66675,1.08585 -1.69545,2.3241 z m 0.4191,-4.3434 q -0.62865,1.5621 -1.4478,2.87655 v 7.4676 h -1.50495 v -5.35305 q -0.62865,0.762 -1.69545,1.8669 l -0.5715,-1.69545 q 1.16205,-1.2192 2.1336,-2.68605 0.97155,-1.4859 1.524,-2.8956 z m 6.5532,8.382 q 0,1.04775 -0.4953,1.46685 -0.4953,0.4191 -1.69545,0.4191 h -1.54305 l -0.3429,-1.46685 h 1.39065 q 0.66675,0 0.89535,-0.1905 0.24765,-0.20955 0.24765,-0.78105 v -3.9624 h 1.54305 z m -3.1623,-2.68605 q -0.55245,1.0668 -1.35255,2.19075 -0.8001,1.1049 -1.5621,1.9431 l -1.2192,-0.85725 q 0.7239,-0.762 1.4859,-1.8288 0.762,-1.0668 1.35255,-2.11455 z m 5.27685,-0.6096 q 2.0574,2.667 2.99085,3.98145 l -1.2573,0.85725 q -1.69545,-2.45745 -2.8575,-3.9624 z m -5.2959,5.50545 q 0.47625,0.51435 1.0287,1.16205 0.55245,0.6477 1.0287,1.23825 l -1.1811,0.97155 q -0.6096,-0.8763 -1.9431,-2.45745 z m 5.69595,0.0381 q 1.20015,1.7145 2.8575,4.36245 l -1.35255,0.89535 q -0.8763,-1.58115 -2.76225,-4.4577 z m -14.19225,4.953 q 0.89535,-1.7145 1.77165,-4.51485 l 1.4478,0.4191 q -0.89535,2.9718 -1.7526,4.70535 z m 11.43,-1.35255 q 0,-0.66675 0.0762,-1.73355 l 1.524,0.4191 -0.1524,1.9812 q -0.05715,0.762 -0.3429,1.16205 -0.28575,0.40005 -0.78105,0.5334 -0.4953,0.1524 -1.3335,0.1524 h -3.94335 q -0.81915,0 -1.27635,-0.1905 -0.4572,-0.1905 -0.66675,-0.66675 -0.20955,-0.4572 -0.20955,-1.3335 v -3.4671 h 1.524 v 2.99085 q 0,0.70485 0.2286,0.93345 0.24765,0.2286 0.9144,0.2286 h 3.1242 q 0.762,0 1.0287,-0.1905 0.2667,-0.1905 0.28575,-0.81915 z m 16.021049,-4.78155 q -0.9525,1.31445 -2.19075,2.76225 -1.23825,1.4478 -2.22885,2.4003 l 8.6106,-0.381 q -0.6096,-0.74295 -1.1049,-1.31445 -0.47625,-0.5715 -0.81915,-0.9906 l -0.43815,-0.51435 1.20015,-0.93345 q 1.8288,1.9812 4.7244,5.50545 l -1.2954,1.1049 -1.04775,-1.3335 -11.9634,0.59055 -0.51435,-1.58115 q 1.2954,-1.04775 2.60985,-2.4765 1.3335,-1.4478 2.38125,-2.83845 h -6.172199 v -1.58115 h 7.467599 v -3.67665 h -6.2484 v -1.58115 h 6.2484 v -3.048 h 1.7145 v 3.048 h 6.2103 v 1.58115 h -6.2103 v 3.67665 h 7.4295 v 1.58115 z m 27.432,-2.22885 H 90.085329 q -0.400049,0.6858 -0.800099,1.23825 h 9.067799 v 8.70585 h -1.524 v -0.85725 H 88.65658 v 0.8763 h -1.4859 v -6.30555 q -1.08585,1.04775 -2.83845,2.38125 l -0.70485,-1.50495 q 2.9718,-2.07645 4.572,-4.5339 h -4.36245 v -1.31445 h 5.12445 q 0.2667,-0.4953 0.59055,-1.2573 h -4.3815 v -1.2573 h 4.819649 q 0.1524,-0.43815 0.381,-1.35255 -3.276599,0.1524 -5.638799,0.20955 l -0.09525,-1.3716 q 3.29565,-0.0381 7.429499,-0.3048 4.1529,-0.2667 7.1628,-0.6096 l 0.1143,1.42875 q -3.56235,0.3429 -7.3152,0.55245 -0.2286,0.9906 -0.36195,1.4478 h 7.44855 v 1.2573 h -7.8486 q -0.381,0.9906 -0.51435,1.2573 h 9.715501 z m -11.811,3.5052 h 8.172449 v -1.0668 H 88.65658 Z m 8.172449,1.143 H 88.65658 v 1.0668 h 8.172449 z m -8.172449,2.19075 v 1.0668 h 8.172449 v -1.0668 z m 30.861,-6.83895 h -10.38225 q -0.40005,0.6858 -0.8001,1.23825 h 9.0678 v 8.70585 h -1.524 v -0.85725 h -8.17245 v 0.8763 h -1.4859 v -6.30555 q -1.08585,1.04775 -2.83845,2.38125 l -0.70485,-1.50495 q 2.9718,-2.07645 4.572,-4.5339 h -4.36245 v -1.31445 h 5.12445 q 0.2667,-0.4953 0.59055,-1.2573 h -4.3815 v -1.2573 h 4.81965 q 0.1524,-0.43815 0.381,-1.35255 -3.2766,0.1524 -5.6388,0.20955 l -0.0953,-1.3716 q 3.29565,-0.0381 7.4295,-0.3048 4.1529,-0.2667 7.1628,-0.6096 l 0.1143,1.42875 q -3.56235,0.3429 -7.3152,0.55245 -0.2286,0.9906 -0.36195,1.4478 h 7.44855 v 1.2573 h -7.8486 q -0.381,0.9906 -0.51435,1.2573 h 9.7155 z m -11.811,3.5052 h 8.17245 v -1.0668 h -8.17245 z m 8.17245,1.143 h -8.17245 v 1.0668 h 8.17245 z m -8.17245,2.19075 v 1.0668 h 8.17245 v -1.0668 z"
         id="path5" />
    </g>
  </g>
</svg>
