<?xml version="1.0" encoding="UTF-8" standalone="no"?>
<svg
   xml:space="preserve"
   width="640"
   height="440"
   viewBox="0 0 169.333 116.416"
   version="1.1"
   id="svg70"
   sodipodi:docname="main1.svg"
   inkscape:version="1.4.1 (unknown)"
   xmlns:inkscape="http://www.inkscape.org/namespaces/inkscape"
   xmlns:sodipodi="http://sodipodi.sourceforge.net/DTD/sodipodi-0.dtd"
   xmlns:xlink="http://www.w3.org/1999/xlink"
   xmlns="http://www.w3.org/2000/svg"
   xmlns:svg="http://www.w3.org/2000/svg"><sodipodi:namedview
     id="namedview70"
     pagecolor="#ffffff"
     bordercolor="#000000"
     borderopacity="0.25"
     inkscape:showpageshadow="2"
     inkscape:pageopacity="0.0"
     inkscape:pagecheckerboard="0"
     inkscape:deskcolor="#d1d1d1"
     inkscape:zoom="1.0674026"
     inkscape:cx="534.00655"
     inkscape:cy="185.02858"
     inkscape:window-width="1707"
     inkscape:window-height="991"
     inkscape:window-x="0"
     inkscape:window-y="0"
     inkscape:window-maximized="1"
     inkscape:current-layer="svg70" /><defs
     id="defs2"><linearGradient
       id="a"><stop
         offset="0"
         style="stop-color:#ccc;stop-opacity:1"
         id="stop1" /><stop
         offset="1"
         style="stop-color:#faf7f1;stop-opacity:0"
         id="stop2" /></linearGradient><linearGradient
       xlink:href="#a"
       id="b"
       x1="-9.207"
       x2="-2.857"
       y1="53.938"
       y2="53.938"
       gradientTransform="translate(9.207 4.27)"
       gradientUnits="userSpaceOnUse" /></defs><rect
     width="169.333"
     height="116.416"
     style="fill:#faf7f1;fill-opacity:1;stroke:none;stroke-width:0.507999;stroke-linecap:round;stroke-linejoin:round;stroke-dashoffset:11;stroke-opacity:1;stroke-dasharray:none"
     id="rect2" /><g
     aria-label="装上就能用 用了都说好"
     style="font-size:15.517px;line-height:1.1;font-family:misans;-inkscape-font-specification:misans;text-align:center;letter-spacing:0;text-anchor:middle;stroke:#000;stroke-width:.306257;stroke-linecap:round;stroke-linejoin:round;stroke-dashoffset:11"
     id="g3"><path
       stroke="none"
       d="M13.413 36.356q-.951.468-1.856.936-.905.452-1.326.686l-.546-1.138q.219-.078 1.482-.687 1.264-.608 2.246-1.092v-3.229h1.217v6.583h-1.217zm2.153.062h3.01v-1.715h-3.353v-1.108h3.353v-1.763h1.217v1.763h3.432v1.108h-3.432v1.715h2.98v1.077h-7.207Zm-3.463-1.216q-1.108-1.28-1.997-2.137l.811-.749q1.186 1.154 2.044 2.106zm7.58 7.862q1.405.889 3.651 1.403l-.562 1.248q-1.715-.452-2.916-1.06-1.202-.624-2.075-1.514-.874-.889-1.607-2.183-.733.686-1.622 1.279v2.355l3.057-.983.11 1.202-4.493 1.435-.421-.983q.327-.187.421-.328.11-.14.11-.436V43q-1.53.858-3.401 1.622l-.5-1.216q1.763-.64 3.09-1.342 1.325-.717 2.417-1.575H9.7v-1.186h6.395q-.42-.842-.593-1.092l1.202-.436.78 1.528h5.693v1.186H17.25q.655 1.076 1.435 1.81.889-.438 2.854-1.592l.64.983q-1.186.749-2.496 1.373m12.651-5.382v6.24h6.52v1.419H25.238v-1.42h5.6V31.817h1.497v4.508h5.788v1.357zm15.6-4.196v1.201H40.96v-1.201h3.073q-.219-.936-.468-1.654l1.247-.187q.312 1.014.5 1.84zm6.566 3.213h-4.102q-.063 2.278-.343 3.838-.281 1.544-.843 2.807-.546 1.264-1.544 2.746l-1.076-.811q.982-1.373 1.497-2.496.53-1.139.78-2.527.25-1.404.328-3.557h-1.404v-1.216h1.435v-.063l.031-3.634h1.201l-.031 1.435q-.016 1.372-.016 2.2v.062H54.5zm-1.263-1.638q-.453-.514-1.607-1.778l-.39-.421.811-.764q.203.187 1.201 1.263.593.655.827.89zm-5.99 5.023h-2.044v4.087q0 .686-.156 1.045-.14.359-.499.5-.343.155-.998.155h-1.186l-.234-1.216h.952q.406 0 .593-.063.203-.078.265-.25t.062-.53v-3.728h-2.308V36.06h5.553zm-1.17-2.948h-3.229v1.887h3.229zm8.454 4.508q0 .421-.015.89-.016.452-.031.81l-.032.765q-.03.889-.358 1.248-.328.358-1.139.358h-.702q-.702 0-1.03-.39-.311-.39-.311-1.232v-6.52h1.17v6.286q0 .421.124.546.14.11.484.11h.14q.406 0 .515-.11.125-.125.14-.546.047-1.31.047-2.418zm-7.752 1.794q-.343-.92-1.045-2.278l.951-.483q.546 1.045 1.092 2.2zm-3.619-2.23q-.546 1.715-1.529 3.634l-1.03-.577q.36-.687.75-1.607.39-.936.701-1.825zm18.313-8.206q1.154 1.42 2.418 3.136l-.999.764-.592-.842-5.507.374-.203-1.107q.765-.75 1.482-1.7.718-.968 1.28-1.904l1.247.515q-.826 1.28-2.308 2.964l3.244-.219-.982-1.326zm4.102 5.46q-.686 0-1.014-.374-.327-.375-.327-1.186V31.91h1.232v2.387q2.59-1.076 3.635-1.7l.561 1.138q-.624.344-1.872.89t-2.324.967v.873q0 .468.156.64.172.171.593.171h1.513q.421 0 .608-.046.203-.063.281-.234.094-.188.125-.609.015-.28.031-.686.016-.421.016-.718l1.185.375-.031.483-.062 1.139q-.063.827-.453 1.154-.39.328-1.294.328zm-8.392 7.612v-8.688h5.725v7.128q0 .593-.156.905-.156.327-.515.452-.343.125-.998.125H60.13l-.25-1.232h1.124q.452 0 .561-.14t.11-.593v-1.014h-3.292v3.057zm4.493-6.395v-1.217h-3.292v1.217zm8.392 2.667q-.078 1.45-.125 1.903-.094.842-.515 1.17-.405.343-1.341.343h-2.418q-.733 0-1.076-.39-.344-.374-.344-1.185V39.21h1.264v2.09q2.496-1.092 3.65-1.872l.64 1.139q-.734.436-1.95.998-1.201.562-2.34 1.014v1.185q0 .468.187.656.203.171.64.171h1.357q.608 0 .826-.171.219-.188.266-.734.03-.343.062-.826.031-.5.031-.843zm-11.684-1.607v1.217h3.292v-1.217zm14.928-8.033H84.81v11.418q0 1.03-.437 1.42t-1.56.39H81.19l-.219-1.342h1.42q.468 0 .67-.062.219-.078.297-.265.078-.188.078-.593V41.66h-3.744v4.133H78.32V41.66h-3.728q-.109 1.326-.452 2.355-.328 1.014-1.014 2.184l-1.248-.655q.655-1.077.936-1.84.296-.78.39-1.78.11-.998.11-2.854zm5.007 3.884v-2.558h-3.65v2.558zm1.373 0h3.744v-2.558h-3.744zm-1.373 3.744V37.9h-3.65v1.654q0 .53-.015.78zm1.373-2.434v2.434h3.744V37.9Z"
       style="font-size:15.5987px;text-align:start;text-anchor:start;stroke:none"
       id="path2" /><path
       d="M10.905 49.852h11.436v11.359q0 1.024-.434 1.412t-1.552.388h-1.613l-.218-1.335h1.412q.466 0 .668-.062.217-.077.294-.264.078-.186.078-.59v-2h-3.724v4.111h-1.366V58.76h-3.708q-.109 1.32-.45 2.343-.326 1.009-1.009 2.173l-1.241-.652q.652-1.07.93-1.831.296-.776.389-1.77.108-.992.108-2.839zm4.981 3.864v-2.545h-3.63v2.545zm1.366 0h3.724v-2.545h-3.724zm-1.366 3.724v-2.42h-3.63v1.644q0 .528-.016.776zm1.366-2.42v2.42h3.724v-2.42zm8.364-5.028h12.289v1.381l-5.152 3.647v5.88q0 .792-.217 1.21-.202.42-.683.59-.48.187-1.35.187h-2.25l-.232-1.443h2.032q.544 0 .792-.078t.341-.295q.093-.233.093-.714v-6.051l4.36-2.933H25.617Zm22.887.497q-.822 1.815-1.815 3.196h1.862v1.133h-2.778q-.667.73-1.474 1.427h3.228v6.005h-4.454v.807h-1.164v-5.043l-1.055.668-.48-1.164q2.311-1.35 3.739-2.7h-3.523v-1.133h2.747V51.87h-2.188v-1.118h2.188V49.03h1.21v1.722h1.893v1.118h-1.893v1.815h.637q1.303-1.552 2.203-3.708zm4.236 4.64q.87 1.178 1.18 2.016.325.823.325 1.754 0 .9-.248 1.427-.248.528-.791.76-.543.218-1.474.218h-.838l-.264-1.288h.915q.59 0 .885-.109.31-.108.434-.372.125-.28.125-.807 0-.73-.342-1.52-.341-.807-1.241-1.863l1.412-4.36h-2.498v12.196h-1.257v-13.39h5.012v1.303zm-9.667 3.615h3.259v-1.397h-3.259zm0 1.024v1.427h3.259v-1.427zm26.767-.59q0 .419-.031 1.117-.016.683-.047 1.195-.062.807-.434 1.102-.372.31-1.21.31h-1.304q-.807 0-1.148-.341-.326-.326-.326-1.164v-3.88h-1.583l-.03.466q-.078 1.366-.45 2.312-.373.931-1.056 1.645-.667.698-1.815 1.459l-.854-1.086q1.055-.637 1.63-1.18.574-.543.869-1.288.31-.76.372-1.94l.015-.387h-1.66v-5.416h2.048q-.372-.636-.9-1.443-.512-.807-.729-1.101l1.04-.652q1.148 1.614 1.722 2.498l-1.086.698h2.203q.637-.993 1.909-3.103l1.148.59q-.745 1.225-1.552 2.513h2.095v5.416h-2.032v3.398q0 .45.124.59.14.124.543.124h.636q.419 0 .543-.124.14-.124.155-.59.016-.357.016-1.955zm-11.172-6.44q-.45-.636-1.009-1.38-.558-.76-1.024-1.366l1.07-.776q1.335 1.692 2.033 2.685zm8.736.606h-5.369v2.932h5.369zm-6.998 5.307.31 1.458-2.746 2.328-.854-.916q.264-.28.341-.465.094-.202.094-.512v-5.245h-1.49v-1.335h2.762v6.13zm16.929-5.602q-.28 2.234-.59 3.615-.295 1.381-.807 2.437.326.263.683.574.357.294.76.62.559.481.636.543l-.9 1.102q-1.086-.993-1.862-1.66-.48.683-1.163 1.38-.668.684-1.63 1.475l-.977-.978q.946-.76 1.598-1.396.667-.652 1.148-1.35-1.194-1.024-2.094-1.676.543-2.064.946-4.624h-1.427v-1.335h1.629q.217-1.8.295-2.84l1.303.11q-.14 1.365-.326 2.73h2.778zm8.038 2.405v1.35H82.16v4.283q0 1.024-.45 1.412-.435.403-1.568.403h-1.567l-.295-1.35h1.474q.652 0 .854-.17.202-.187.202-.776v-3.802h-3.321v-1.35h3.32v-1.831l2.452-2.328h-5.12v-1.35h6.843v1.335l-2.824 2.824v1.35zm-10.49 2.778q.419-.916.698-2.126.28-1.226.512-2.995h-1.738q-.34 2.25-.837 4.05z"
       style="text-align:start;text-anchor:start"
       id="path3" /></g><path
     d="M9.617 75.195v-.868h8.922v.868h-4.261v7.716h-.982v-7.716zm5.274 1.462q.695.49 1.696 1.247 1.002.756 1.472 1.155l-.562.766q-.562-.48-1.482-1.196-.92-.725-1.625-1.246Zm13.858 3.659q-.061.541-.174 1.277-.122.726-.388 1.012-.256.296-.654.296-.368 0-.654-.245-.286-.235-.562-.787-.113-.215-.215-.49-.634.715-1.523 1.43l-.603-.674q1.155-.869 1.83-1.666-.42-1.564-.583-3.587h-5.386v-.757h2.187v-.868h-1.778v-.705h1.778v-.961h.828v.96h1.758v.706h-1.758v.868h2.31l-.02-.47-.082-2.125h.848q.04 1.298.092 2.268l.02.327h2.688v.757h-2.637q.123 1.553.389 2.739.633-.971 1.093-2.31l.777.327q-.358.91-.746 1.635-.389.726-.848 1.35.122.357.296.745.133.307.245.43.123.122.256.122.112 0 .173-.163.072-.174.154-.624.071-.44.133-1.052zm-.9-4.558q-.46-.501-1.45-1.452l.52-.531q.634.572 1.503 1.42zm-3.106 5.733-1.605.123v1.308h-.828v-1.247l-2.422.184-.061-.777 2.483-.184v-.756h-1.972v-.695q.347-.511.664-1.053H19.93v-.715h1.482l.358-.715.817.163-.276.552h2.545v.715h-2.923q-.347.613-.623 1.053h1.052v-.715h.777v.715h1.584v.695h-1.584v.695l1.574-.113.02.48zm6.684-5.866v1.093h-.9v-1.931h3.782q-.246-.573-.501-1.084l.96-.184q.174.348.583 1.268h3.209v1.931h-.89v-1.093zm5.804 2.77q-.306.786-.654 1.369-.347.582-.817 1.042 1.339.572 2.923 1.278l-.399.899q-1.492-.736-3.301-1.553-.756.5-1.88.879-1.114.378-2.77.715l-.245-.9q1.37-.224 2.32-.49.96-.266 1.625-.623-1.615-.706-2.709-1.104.389-.562.93-1.513h-2.248v-.828h2.688q.44-.858.766-1.665l.88.306q-.277.654-.624 1.36h5.304v.827zm-4.609 1.123q.9.338 2.28.92.449-.388.766-.879.317-.5.562-1.165h-2.943q-.368.695-.665 1.124m16.066 2.024q0 .5-.133.767-.123.265-.419.367-.286.113-.807.113h-1.176l-.163-.808h1.053q.316 0 .47-.05.153-.052.214-.185.062-.143.062-.429V74.95h-6.194v7.92h-.889v-8.737h7.982zm-6.5-5.488h5.028v.777h-5.028Zm.552 1.799h3.904v3.27H42.74zm.807.756v1.768h2.29v-1.768zm11.729 3.832q-1.063 0-1.85-.47-.787-.48-1.216-1.37-.42-.899-.42-2.125t.42-2.115q.429-.9 1.216-1.37t1.85-.47 1.85.47 1.206 1.37q.429.889.429 2.115t-.43 2.126q-.419.889-1.205 1.37-.787.47-1.85.47m0-.97q.736 0 1.287-.348.552-.358.849-1.032.306-.675.306-1.615 0-.93-.306-1.604-.297-.675-.849-1.033-.551-.357-1.287-.357-1.124 0-1.779.797-.654.787-.654 2.197t.654 2.208q.655.786 1.779.786m7.184.92q-.93 0-1.676-.4-.746-.398-1.155-1.113l.828-.573q.327.573.838.859t1.176.286q.725 0 1.195-.327.48-.337.48-.858 0-.358-.194-.603-.184-.246-.592-.43-.399-.184-1.094-.378-.777-.214-1.277-.43-.49-.224-.838-.653-.348-.44-.348-1.135 0-.613.337-1.103.348-.501.961-.777t1.4-.276q.9 0 1.554.378.664.368 1.063 1.022l-.798.542q-.327-.47-.807-.736t-1.032-.266q-.45 0-.828.154-.378.153-.593.419-.214.265-.214.582 0 .42.235.685.245.255.623.409t1.022.316q.746.205 1.257.45.521.235.859.675.337.429.337 1.114 0 .654-.337 1.144-.338.49-.95.757-.614.265-1.432.265"
     aria-label="下载安同 OS"
     style="font-size:10.2199px;line-height:1.2;font-family:misans;-inkscape-font-specification:misans;letter-spacing:0;stroke-width:.273748;stroke-linecap:round;stroke-linejoin:round;stroke-dashoffset:11"
     id="path4" /><path
     d="M77.533 78.567a3.36 3.36 0 0 1-3.361 3.362 3.36 3.36 0 0 1-3.362-3.362 3.36 3.36 0 0 1 3.362-3.361 3.36 3.36 0 0 1 3.361 3.361"
     style="fill:none;stroke:#000;stroke-width:.717915;stroke-linecap:round;stroke-linejoin:round;stroke-dashoffset:11"
     id="path5" /><path
     d="M74.014 76.06a.36.36 0 0 0-.197.1.36.36 0 0 0 0 .508l1.54 1.54h-3.386a.36.36 0 0 0-.36.358.36.36 0 0 0 .36.36h3.385l-1.54 1.54a.36.36 0 0 0 0 .509.36.36 0 0 0 .508 0l2.407-2.409-2.407-2.406a.36.36 0 0 0-.31-.1"
     style="color:#000;fill:#000;stroke-linecap:round;stroke-linejoin:round;stroke-dashoffset:11;-inkscape-stroke:none"
     id="path6" /><path
     d="M0 0h6.35v116.416H0z"
     style="fill:url(#b);stroke:none;stroke-width:.264583;stroke-linecap:round;stroke-linejoin:round;stroke-dashoffset:11;stroke-opacity:1"
     id="path7" /><g
     transform="translate(85.416 -13.284)scale(.194)"
     id="g67"><ellipse
       cx="314.599"
       cy="383.685"
       rx="122.348"
       ry="121.232"
       style="fill:#ffe8e0;fill-opacity:1"
       id="ellipse7" /><path
       d="M179.833 335.164c33.12-62.985 103.71-116.103 185.225-94.559 12.759 3.372 46.624 22.355 46.624 22.355s-2.51 54.659 20.302 84.125c0 0 10.702-.113 15.236 5.341 2.004 11.028.161 23.09 10.045 23.565 8.496.41 14.426 9.15 17.064 18.744 7.66 6.507 16.896-4.919 17.426 16.237.53 21.157-1.39 12.092-12.195 17.877-2.912 116.547-2.41 134.863-40.715 146.621l-29.183 8.959c-.148-17.02 5.094-36.252-8.595-63.672-9.721-13.678-22.08-21.027-36.323-23.852 3.558-35.48 28.837-60.81 42.237-97.834.044-9.568-1.08-18.969-7.312-27.64l-11.164-4.595-4.02-11.04-11.63-7.882 1.466-10.4-14.405-8.912.23-10.769-15.427-4.487c1.542 20.219-1.657 39.604-3.693 54.456-20.292 7.836-58.444 8.847-63.873 5.093l-4.423-12.326-13.216 8.355c-13.384-32.438-1.206-57.994 8.056-84.335-4.647 8.605-15.162 22.556-19.624 30.788l-10.704 5.124-.584 8.657-12.472 8.001 2.803 15.018-10.652 6.398-4.253 20.05z"
       style="fill:#252e33;fill-opacity:1"
       id="path8" /><circle
       cx="249.381"
       cy="405.526"
       r="35.391"
       style="fill:#fff;fill-opacity:1;stroke:none;stroke-width:11;stroke-linecap:round;stroke-linejoin:round;stroke-dasharray:none;stroke-opacity:1;paint-order:fill markers stroke"
       id="circle8" /><path
       d="M392.258 412.488c-2.403 20.262-18.057 29.338-34.635 29.338s-30.018-16.54-30.018-36.945c0-10.689 1.707-29.78 1.707-29.78 6.445-3.415 22.862-6.078 30.756-6.078 9.134 0 25.736 8.281 31.242 16.204 0 0 2.035 18.099.948 27.26"
       style="fill:#fff;fill-opacity:1;stroke-width:11;stroke-linecap:round;stroke-linejoin:round;paint-order:fill markers stroke"
       id="path9" /><g
       transform="translate(114.135 -78.367)"
       id="g11"><path
         d="M271.818 490.344a25.136 25.136 0 0 1-25.137 25.136 25.136 25.136 0 0 1-25.136-25.136 25.136 25.136 0 0 1 25.136-25.137 25.136 25.136 0 0 1 25.137 25.137"
         style="color:#000;fill:#252e33;stroke-linecap:round;stroke-linejoin:round;-inkscape-stroke:none;paint-order:fill markers stroke"
         id="path10" /><ellipse
         cx="247.656"
         cy="504.734"
         rx="13.053"
         ry="12.015"
         style="fill:#d3dbdf;fill-opacity:.265455;stroke:none;stroke-width:13.8598;stroke-linecap:round;stroke-linejoin:round;stroke-dasharray:none;stroke-opacity:1;paint-order:fill markers stroke"
         id="ellipse10" /><path
         d="M246.68 459.708c-16.854 0-30.636 13.78-30.636 30.635s13.782 30.637 30.637 30.637 30.636-13.782 30.636-30.637-13.781-30.635-30.636-30.635m0 11a19.55 19.55 0 0 1 19.637 19.635 19.554 19.554 0 0 1-19.636 19.637 19.554 19.554 0 0 1-19.637-19.637 19.55 19.55 0 0 1 19.637-19.635"
         style="color:#000;fill:#000;stroke-linecap:round;stroke-linejoin:round;-inkscape-stroke:none;paint-order:fill markers stroke"
         id="path11" /></g><g
       transform="translate(7.056 -78.93)"
       id="g13"><path
         d="M271.818 490.344a25.136 25.136 0 0 1-25.137 25.136 25.136 25.136 0 0 1-25.136-25.136 25.136 25.136 0 0 1 25.136-25.137 25.136 25.136 0 0 1 25.137 25.137"
         style="color:#000;fill:#252e33;stroke-linecap:round;stroke-linejoin:round;-inkscape-stroke:none;paint-order:fill markers stroke"
         id="path12" /><ellipse
         cx="247.656"
         cy="504.734"
         rx="13.053"
         ry="12.015"
         style="fill:#d3dbdf;fill-opacity:.265455;stroke:none;stroke-width:13.8598;stroke-linecap:round;stroke-linejoin:round;stroke-dasharray:none;stroke-opacity:1;paint-order:fill markers stroke"
         id="ellipse12" /><path
         d="M246.68 459.708c-16.854 0-30.636 13.78-30.636 30.635s13.782 30.637 30.637 30.637 30.636-13.782 30.636-30.637-13.781-30.635-30.636-30.635m0 11a19.55 19.55 0 0 1 19.637 19.635 19.554 19.554 0 0 1-19.636 19.637 19.554 19.554 0 0 1-19.637-19.637 19.55 19.55 0 0 1 19.637-19.635"
         style="color:#000;fill:#000;stroke-linecap:round;stroke-linejoin:round;-inkscape-stroke:none;paint-order:fill markers stroke"
         id="path13" /></g><path
       d="M326.443 377.171c19.03-14.115 45.294-10.573 66.141 7.736"
       style="fill:none;fill-opacity:1;stroke:#000;stroke-width:11;stroke-linecap:round;stroke-linejoin:round;stroke-dasharray:none;stroke-opacity:1;paint-order:fill markers stroke"
       id="path14" /><path
       d="M331.66 447.734c0 8.497 2.267 32.837-13.657 32.616-9.738-.135-29.342-26.107-27.133-34.383 4.197 1.664 9 1.183 17.855-.806 10.18 3.535 12.111 4.238 22.936 2.573"
       style="fill:#f18a83;fill-opacity:1;stroke-width:11;stroke-linecap:round;stroke-linejoin:round;paint-order:fill markers stroke"
       id="path15" /><path
       d="M329.854 448.243c3.043 10.656-1.613 32.167-11.352 32.167s-22.64-11.206-22.64-19.703c1.817-1.528 7.611-13.732 6.642-14.895 0 0 18.714 5.71 27.35 2.43"
       style="fill:#ffada5;fill-opacity:1;stroke-width:11;stroke-linecap:round;stroke-linejoin:round;paint-order:fill markers stroke"
       id="path16" /><path
       d="M286.662 444.766c6.573 3.14 18.548 1.778 21.485.294 2.578 2.169 17.07 3.53 22.368 2.55 6.066 18.236-1.249 33.266-11.969 32.867s-20.504-17.66-20.504-17.66"
       style="fill:none;fill-opacity:1;stroke:#010101;stroke-width:8;stroke-linecap:round;stroke-linejoin:round;stroke-dasharray:none;stroke-opacity:1;paint-order:fill markers stroke"
       id="path17" /><path
       d="M317.962 346.241c-1.288-9.803 1.15-19.513 7-29.178-.63 14.22 1.466 21.234 2.804 30.305 3.213-14.265 5.19-24.798 13.533-32.589.956 7.947 2.46 49.907 1.067 49.907-6.034 4.188-61.12 6.642-86.247.238 0-8.497-2.252-15.546.078-32.619 8.934 6.926 47.753 14.62 61.765 13.936"
       style="fill:#151d23;fill-opacity:1;stroke-width:11;stroke-linecap:round;stroke-linejoin:round;paint-order:fill markers stroke"
       id="path18" /><ellipse
       cx="376.082"
       cy="166.724"
       rx="10.786"
       ry="13.262"
       style="fill:#151d23;fill-opacity:1;stroke:none;stroke-width:11.7577;stroke-linecap:round;stroke-linejoin:round;stroke-dasharray:none;stroke-opacity:1;paint-order:fill markers stroke"
       transform="rotate(23.217)"
       id="ellipse18" /><ellipse
       cx="305.043"
       cy="304.145"
       rx="9.59"
       ry="11.79"
       style="fill:#151d23;fill-opacity:1;stroke:none;stroke-width:10.4533;stroke-linecap:round;stroke-linejoin:round;stroke-dasharray:none;stroke-opacity:1;paint-order:fill markers stroke"
       id="ellipse19" /><ellipse
       cx="326.245"
       cy="303.408"
       rx="7.339"
       ry="9.023"
       style="fill:#151d23;fill-opacity:1;stroke:none;stroke-width:8;stroke-linecap:round;stroke-linejoin:round;stroke-dasharray:none;stroke-opacity:1;paint-order:fill markers stroke"
       id="ellipse20" /><path
       d="m69.017 506.088 163.407-16.033 134.928 10.592s21.616 7.4 28.928 17.632c7.311 10.233 8.852 23.286 9.974 43.73 1.123 20.444 2.09 80.725 19.08 120.274l-202.122 2.395c5.946-13.626 11.506-27.412 12.983-42.9-6.285-12.358-12.04-24.76-14.073-37.474-40.875 13.005-83.566 23.057-127.965 21.969-27.116-23.667-20.243-77.075-25.14-120.185"
       style="fill:#3b484f;fill-opacity:1;stroke-width:8;stroke-linecap:round;stroke-linejoin:round;paint-order:fill markers stroke"
       id="path20" /><path
       d="M106.173 601.297c-1.192 13.578-1.96 16.342-4.77 21.28-6.202-5.717-9.574-8.397-11.735-19.417"
       style="fill:#fff;fill-opacity:1;stroke:#2559a8;stroke-width:6;stroke-linecap:round;stroke-linejoin:round;stroke-dasharray:none;stroke-opacity:1;paint-order:fill markers stroke"
       id="path21" /><path
       d="M104.725 621.866c.476-.89 1.318-8.265 1.872-11.502s1.145-6.04 1.315-6.229c.371-.413 113.113-7.626 113.52-7.266.608.537-21.771 11.379-33.24 14.163-19.174 4.653-50.646 8.56-79.381 11.879-4.686.541-4.905.485-4.086-1.045"
       style="fill:#2a3742;fill-opacity:1;stroke:none;stroke-width:5.09665;stroke-linecap:round;stroke-linejoin:round;stroke-dasharray:none;stroke-opacity:1;paint-order:fill markers stroke"
       id="path22" /><path
       d="M79.026 600.554c4.109 9.159 8.506 20.624 16.615 27.783 45.353-4.365 89.674-10.563 128.562-26.42 3.08 13.59 6.128 27.26 10.623 37.315 1.018 27.387-5.417 32.413-9.806 43.58"
       style="fill:none;fill-opacity:1;stroke:#000;stroke-width:11;stroke-linecap:round;stroke-linejoin:round;stroke-dasharray:none;stroke-opacity:1;paint-order:stroke fill markers"
       id="path23" /><path
       d="M259.653 598.439c-1.982-.518-4.208-1.138-4.947-1.378-1.996-.647-4.224-1.89-4.404-2.457-.087-.274-.02-1.23.149-2.126.263-1.393.247-1.808-.11-2.9-.411-1.257-.406-1.314.462-4.881 2.779-11.424 4.161-21.684 4.388-32.576.19-9.108-.43-16.195-1.93-22.052l-.465-1.811 1.116-.153c1.528-.21 3.613-1.24 5.612-2.771l1.675-1.284 1.31 1.466c1.846 2.063 3.515 4.959 4.399 7.629 1.29 3.897 1.564 6.767 1.68 17.555.15 13.69.701 17.686 2.698 19.52.327.3 2.022 1.372 3.766 2.382 2.887 1.671 8.608 5.374 10.13 6.556l.616.48-1.3.657c-3.621 1.836-7.349 2.972-12.09 3.687-3.72.561-4.917 1.16-5.894 2.951-.304.557-1.08 3.43-1.745 6.457-.66 3-1.27 5.575-1.356 5.722-.103.178-1.38-.05-3.76-.673"
       style="fill:#fff;fill-opacity:1;stroke:none;stroke-width:1.52199;stroke-linecap:round;stroke-linejoin:round;stroke-dasharray:none;stroke-opacity:1;paint-order:stroke fill markers"
       id="path24" /><path
       d="M247.42 576.266c14.545 2.38 29.11 4.614 44.092 3.505l-20.029 13.101-3.712 12.935-23.523-7.093z"
       style="fill:#b6c4d4;fill-opacity:1;stroke-width:8;stroke-linecap:round;stroke-linejoin:round;paint-order:fill markers stroke"
       id="path25" /><path
       d="M404.615 377.187s1.341 4.037 13.684 10.109c5.264 2.59 14.6 1.227 18.939 3.274 4.663 2.202 6.034 10.2 13.382 15.336 6.578 4.597 7.674-1.698 14.443 1.894 4.142 2.199 1.904 4.882 6.766 7.782 2.619 1.56 12.54.685 12.54.685l-1.953 12.661-6.6 6.226c.133 44.77 4.63 96.74-8.966 119.776-13.596 23.038-32.724 26.298-55.304 29.896l-12.803-64.936c5.192-12.597 8.77-30.036 12.908-45.792.838 26.731-.346 58.027 7.959 78.89 33.25-23.786 23.68-71.137 28.869-116.465-5.465-1.876-14.152-4.111-13.214-13.908-10.488 3.81-19.984-7.756-26.58-18.607 1.388-8.441-1.814-17.717-4.07-26.82m-62.724-141.095c21.875 4.037 43.035 9.854 68.937 26.282l2.013 53.652c-5.825-29.143-31.382-57.729-70.95-79.934m14.931 89.513 17.558-1.44 5.04 13.815 13.996 3.104-7.136 10.362 5.62 8.368 13.447-6.172-7.719 13.616-.03 4.156zm-122.13-6.642c12.71-23.087 18.693-24.535 30.84-30.68l-42.164 57.513-8.43 8.78-1.084-15.744 6.315-.874 5.76-8.934s-5.433-7.04-4.494-8.92c.94-1.881 13.257-1.14 13.257-1.14"
       style="fill:#151d23;fill-opacity:1;stroke-width:8;stroke-linecap:round;stroke-linejoin:round;paint-order:fill markers stroke"
       id="path26" /><path
       d="M292.701 241.686c-55.18 12.243-101.2 65.325-111.484 89.767-71.787-95.908-31.55-233.629 6.955-232.427 38.504 1.201 57.857 102.44 104.53 142.66"
       style="color:#000;fill:#252e33;stroke-linecap:round;stroke-linejoin:round;-inkscape-stroke:none;paint-order:fill markers stroke"
       id="path27" /><path
       d="M228.187 270.28c-9.941 6.389-30.49 26.834-40.831 42.801-9.739 0-28.58-63.565-30.89-81.363-7.795-60.083 17.055-113.214 27.754-115.632s18.312 13.247 23.029 37.835c3.966 20.677 2.79 44.512 6.208 63.645 6.888 38.565 9.888 45.267 14.73 52.714"
       style="fill:#fff;fill-opacity:1;stroke-width:11;stroke-linecap:round;stroke-linejoin:round;paint-order:fill markers stroke"
       id="path28" /><path
       d="M183.724 336.096c-20.924-69.33-.46-107.36 19.592-59.924"
       style="fill:none;fill-opacity:1;stroke:#3479d7;stroke-width:8;stroke-linecap:round;stroke-linejoin:round;stroke-dasharray:none;stroke-opacity:1;paint-order:fill markers stroke"
       transform="translate(7.056 -78.93)"
       id="path29" /><path
       d="M178.865 333.75c3.433 11.99 8.094 24.93 14.198 38.545a4 4 0 1 0 7.3-3.274c-8.287-18.487-13.82-35.64-17.181-50.681 0 0-4.312 15.47-4.317 15.41"
       style="color:#000;fill:#e75049;fill-opacity:1;stroke-linecap:round;stroke-linejoin:round;-inkscape-stroke:none;paint-order:fill markers stroke"
       transform="translate(7.056 -78.93)"
       id="path30" /><path
       d="M188.344 93.528c-12.93-.403-23.839 10.023-32.383 25.11s-15.057 35.763-18.082 59.49c-6.05 47.455 1.99 107.261 38.936 156.621a5.5 5.5 0 0 0 9.472-1.164c4.557-10.83 18.344-30.114 37.531-47.516 19.188-17.402 43.81-33.186 70.075-39.013a5.5 5.5 0 0 0 2.398-9.537c-21.892-18.866-38.465-53.674-54.014-84.286-7.774-15.305-15.325-29.55-23.742-40.431-8.416-10.881-18.173-18.899-30.191-19.274M188 104.523c7.234.225 14.334 5.313 21.834 15.01 7.5 9.695 14.924 23.5 22.635 38.68 13.871 27.31 28.623 59.02 49.469 80.679-25.067 7.676-47.58 22.767-65.51 39.029-16.41 14.883-28.682 30.365-35.885 43.014-30.471-45.13-37.206-98.635-31.752-141.416 2.874-22.542 9.154-42.064 16.74-55.46 7.586-13.394 16.147-19.734 22.47-19.536"
       style="color:#000;fill:#000;stroke-linecap:round;stroke-linejoin:round;-inkscape-stroke:none;paint-order:fill markers stroke"
       id="path31" /><path
       d="M479.667 398.048c-1.29-.5-5.836-.24-7.652-2.682-1.864-2.505-.99-7.728-1.66-9.305-1.518-3.578-2.037-3.25-5.787-7.745-3.002-3.597-9.995-1.843-11.984-4.022-4.082-4.473-2.182-19.878-6.493-23.274-5.394-4.248-11.12-.585-14.158-4.181-20.696-24.499-21.549-50.514-20.79-82.841-20.13-16.786-60.156-30.83-89.442-27.343 4.674-83.555 24.583-155.918 72.315-151.263s77.882 254.985 85.651 312.656"
       style="color:#000;fill:#252e33;stroke-linecap:round;stroke-linejoin:round;-inkscape-stroke:none;paint-order:fill markers stroke"
       id="path32" /><path
       d="M388.25 100.38c34.628-1.988 22.35 163.035 22.35 163.035-29.391-18.712-52.68-25.06-75.598-26.113-3.41-45.575 18.622-134.933 53.249-136.922"
       style="fill:#fff;fill-opacity:1;stroke-width:8;stroke-linecap:round;stroke-linejoin:round;paint-order:fill markers stroke"
       id="path33" /><path
       d="M351.516 317.592c-1.842-7.82-2.412-16.094-2.086-24.365.79-19.981 6.814-39.936 12.79-53.373 10.279-23.113 26.83-19.44 27.65-5.473.892 15.155-.044 40.856 2.186 69.99.737 9.623 1.82 19.62 3.427 29.737"
       style="fill:none;fill-opacity:1;stroke:#3479d7;stroke-width:8;stroke-linecap:round;stroke-linejoin:round;stroke-dasharray:none;stroke-opacity:1;paint-order:fill markers stroke"
       transform="translate(7.056 -78.93)"
       id="path34" /><path
       d="M386.834 280.785c.518 16.415 1.697 34.944 4.719 53.951a4 4 0 0 0 7.9-1.256c-2.269-14.273-3.482-28.348-4.153-41.476.009.15-8.466-11.219-8.466-11.219m-41.019 6.455c-.911 10.447-.56 21.137 1.828 31.27a4 4 0 0 0 7.787-1.836c-2.816-11.955-2.506-25.326-.48-38.05 0 0-8.944 8.625-9.135 8.617"
       style="color:#000;fill:#e75049;stroke-linecap:round;stroke-linejoin:round;-inkscape-stroke:none;paint-order:fill markers stroke"
       transform="translate(7.056 -78.93)"
       id="path35" /><path
       d="M383.285 229.808c23.6-49.8 28.695-85.746 28.695-85.746s2.62 26.85 2.938 51.236c.317 24.386-5.722 67.719-5.722 67.719-21.241-6.13-54.029-21.55-76.315-24.012l.008-7.976c14.733-1.45 32.622-4.028 50.396-1.221"
       style="fill:#1b222c;fill-opacity:.334218;stroke-width:8;stroke-linecap:round;stroke-linejoin:round;paint-order:fill markers stroke"
       id="path36" /><path
       d="M401.974 114.195c18.853 30.973 8.301 99.09 9.2 151.186"
       style="fill:none;fill-opacity:1;stroke:#000;stroke-width:11;stroke-linecap:round;stroke-linejoin:round;stroke-dasharray:none;stroke-opacity:1;paint-order:fill markers stroke"
       id="path37" /><path
       d="M423.964 126.16c28.953 80.343 49.263 191.578 51.498 269.93 0 0-6.59-12.205-12.386-17.044-3.77-3.148-6.105.46-10.33-4.866-3.395-4.277-5.2-17.788-8.406-21.03-5.274-5.334-10.404-.158-12.727-2.893-8.194-9.648-5.522-14.111-5.522-14.111l23.298-.448z"
       style="fill:#151d23;fill-opacity:1;stroke-width:8;stroke-linecap:round;stroke-linejoin:round;paint-order:fill markers stroke"
       id="path38" /><path
       d="M389.613 79.689c-11.357.06-21.563 4.237-29.96 11.453-9.597 8.247-17.05 20.214-23.026 34.705-11.952 28.982-18.062 68.376-20.418 110.5a5.5 5.5 0 0 0 6.143 5.77c26.136-3.112 64.089 9.82 83.299 24.68-.618 31.224.875 58.487 22.082 83.59 1.606 1.902 3.922 2.997 5.763 3.4 1.841.4 3.3.365 4.488.396 2.377.062 3.353.094 4.704 1.158-.665-.524-.047-.058.322 1.437.37 1.496.666 3.723.951 6.123s.567 4.983 1.12 7.518c.552 2.535 1.217 5.146 3.44 7.582 1.828 2.002 3.806 2.432 5.264 2.727s2.695.378 3.758.505c2.127.255 2.928.758 2.8.606 1.998 2.394 3.248 3.646 3.766 4.256.432.507.596.872.985 1.76.02.097.04.132.049.275.031.572.046 1.481.103 2.533.114 2.104.086 4.933 2.356 7.985 2.275 3.059 5.32 3.775 7.365 4.181 1.023.203 1.903.307 2.494.385s1.059.288.217-.04a5.5 5.5 0 0 0 7.44-5.86c-3.87-28.725-13.364-105.898-27.903-176.583-7.27-35.342-15.776-69.058-25.64-94.613-4.933-12.777-10.175-23.519-16.051-31.564-5.877-8.046-12.665-13.825-20.973-14.635a48 48 0 0 0-4.938-.23m-3.654 11.16c2.39-.243 4.892-.24 7.524.017 3.624.354 8.22 3.415 13.158 10.176 4.938 6.76 9.944 16.79 14.672 29.037 9.455 24.494 17.921 57.836 25.127 92.867 12.31 59.85 20.17 119.04 24.877 154.7-.72-.787-1.328-1.419-2.526-2.854-3.128-3.75-7.326-4.168-9.943-4.48-1.084-.13-1.819-.218-2.39-.305-.105-.251-.342-.61-.63-1.93-.374-1.717-.654-4.038-.943-6.472-.29-2.434-.581-4.976-1.195-7.463s-1.375-5.22-4.196-7.442c-4.044-3.184-8.628-3.446-11.222-3.513-1.238-.033-2.02-.09-2.319-.143-19.305-23.014-20.063-46.87-19.31-78.918a5.5 5.5 0 0 0-1.977-4.353c-20.248-16.884-56.548-30.188-86.976-28.903 2.571-39.062 8.56-75.253 19.107-100.828 5.552-13.462 12.318-23.936 20.025-30.559 5.78-4.967 11.965-7.907 19.137-8.634"
       style="color:#000;fill:#000;stroke-linecap:round;stroke-linejoin:round;-inkscape-stroke:none;paint-order:fill markers stroke"
       id="path39" /><path
       d="M231.947 268.284c-13.504-25.517-18.653-73.052-21.48-106.183-1.008-11.83-8.22-31.322-12.409-37.015"
       style="fill:none;fill-opacity:1;stroke:#000;stroke-width:8;stroke-linecap:round;stroke-linejoin:round;stroke-dasharray:none;stroke-opacity:1;paint-order:fill markers stroke"
       id="path40" /><path
       d="M201.138 277.726c-10.92-50.778-1.72-101.557-1.173-152.335 0 0 11.434 34.193 11.751 58.58.318 24.386 16.427 86.443 16.427 86.443-21.486 18.843-37.064 39.423-48.579 61.198l-5.444-9.37z"
       style="fill:#1b222c;fill-opacity:.334218;stroke-width:8;stroke-linecap:round;stroke-linejoin:round;paint-order:fill markers stroke"
       id="path41" /><path
       d="M269.41 602.919c78.988-12.824 106.276-45.132 133.865-72.64 5.648 47.238 4.384 108.521 18.716 151.812-17.32 1.139-39.617 1.567-62.788 1.87-.918-9.68-1.72-30.556-3.451-45.927-33.53 6.61-67.843 9.295-102.202 11.756z"
       style="fill:#2a3742;fill-opacity:1;stroke-width:8;stroke-linecap:round;stroke-linejoin:round;paint-order:fill markers stroke"
       id="path42" /><path
       d="M414.575 604.444c40.308-12.887 57.159-4.387 67.597 9.96l-7.46 12.022 1.484 51.298-50.665-.996z"
       style="fill:#252e33;fill-opacity:1;stroke-width:8;stroke-linecap:round;stroke-linejoin:round;paint-order:fill markers stroke"
       id="path43" /><path
       d="M178.803 340.303c36.9-86.5 153.34-138.524 231.474-76.338"
       style="fill:none;fill-opacity:1;stroke:#000;stroke-width:11;stroke-dasharray:none;stroke-opacity:1"
       id="path44" /><path
       d="M209.065 373.957s-1.978 3.112 5.427-14.268c1.437-3.372 7.59-2.365 11.395-8.09 2.397-3.609-2.23-10.681.529-14.92 2.284-3.508 7.513-1.513 10.155-5.076 2.656-3.582 1.967-7.312 4.603-11.029 2.343-3.304 5.945-3.215 8.327-6.385 10.277-13.68 18.693-28.44 18.693-28.44-17.107 32.705-17.102 60.308-8.571 85.368l13.803-13.198 6.872 15.996c20.347.203 40.624.736 62.284-5.189 2.332-19.678.616-46.873.01-72.007 0 0 .983 2.815 11.395 20.3 1.368 2.296 4.639-.656 6.94 3.059 1.445 2.334-2.552 7.489-.868 10.315 2.213 3.716 11.976 5.546 14.626 9.73 1.387 2.189-4.167 6.296-2.803 8.576 2.093 3.5 10.712 3.83 12.934 7.33 1.955 3.082 1.433 7.212 3.16 10.29 1.968 3.508 10.971 5.576 12.758 8.815 7.55 13.683 5.97 25.468 5.97 25.468 7.04 3.91 15.88 4.223 26.075 1.822 0 0 1.104 13.905 8.542 20.61 3.015 2.719 11.584-1.725 17.99-1.68 4.066.027 2.885 6.31 5.83 8.18 4.551 2.892 7.875 2.035 11.513 1.421 3.637-.613 9.453-4.649 9.453-4.649 3.696-7.307 5.356-15.498-1.028-26.235l-9.769-2.729"
       style="fill:none;fill-opacity:1;stroke:#000;stroke-width:11;stroke-linecap:round;stroke-linejoin:round;stroke-dasharray:none;stroke-opacity:1;paint-order:stroke fill markers"
       id="path45" /><path
       d="m33.977 350.827 173.684-12.793 19.68 253.883-173.683 11.809Z"
       style="fill:#eab793;fill-opacity:1;stroke:#000;stroke-width:11;stroke-linecap:round;stroke-linejoin:round;stroke-opacity:1;paint-order:fill markers stroke"
       id="path46" /><path
       d="m58.578 376.904 127.434-9.348 15.252 199.268-128.417 7.872z"
       style="fill:#fff;fill-opacity:1;stroke:#000;stroke-width:11;stroke-linecap:round;stroke-linejoin:round;stroke-opacity:1;paint-order:fill markers stroke"
       id="path47" /><path
       d="m53.441 584.505 142.355-106.46-.26-10.747 23.176-20.17 5.871 144.056L56.04 601.478z"
       style="fill:#1b222c;fill-opacity:.143396;stroke-width:8;stroke-linecap:round;stroke-linejoin:round;paint-order:fill markers stroke"
       id="path48" /><path
       d="M217.858 381.739c9.36-14.889 49.548-12.508 61.5-1.547m-56.293-43.652c7.04-5.22 29.436-10.961 45.642-6.963m58.519-1.092c10.908-4.058 37.171-.13 47.962 8.123"
       style="fill:none;fill-opacity:1;stroke:#000;stroke-width:11;stroke-linecap:round;stroke-linejoin:round;stroke-dasharray:none;stroke-opacity:1;paint-order:fill markers stroke"
       id="path49" /><path
       d="m409.84 602.539 28.087-3.984c19.32 24.338 11.415 50.946 10.957 76.932l-25.432.664z"
       style="fill:#151d23;fill-opacity:1;stroke-width:8;stroke-linecap:round;stroke-linejoin:round;paint-order:fill markers stroke"
       id="path50" /><path
       d="M413.864 597.097c-.094-1.422-.172-3.389-.172-4.37-.001-1.64.047-1.796.595-1.907.328-.066 1.73-.312 3.116-.548 5.852-.993 12.157-2.592 17.997-4.564 1.51-.51 2.84-.827 2.954-.704.224.242 2.151 7.049 2.03 7.17-.04.04-1.8.366-3.912.724-7.043 1.193-15.271 3.574-20.353 5.89-1.08.492-1.991.895-2.024.895s-.137-1.163-.23-2.586"
       style="fill:#3578d6;fill-opacity:1;stroke:none;stroke-width:1.59137;stroke-linecap:round;stroke-linejoin:round;stroke-dasharray:none;stroke-opacity:1;paint-order:fill markers stroke"
       id="path51" /><path
       d="M421.407 589.514a123 123 0 0 0 13.993-3.806c1.51-.51 2.84-.827 2.954-.704.224.242 2.151 7.049 2.03 7.17-.04.04-1.8.366-3.912.724-5.623.952-12.001 2.662-16.93 4.491.07-.035 1.865-7.875 1.865-7.875"
       style="fill:#a03c3d;fill-opacity:1;stroke:none;stroke-width:1.59137;stroke-linecap:round;stroke-linejoin:round;stroke-dasharray:none;stroke-opacity:1;paint-order:fill markers stroke"
       id="path52" /><path
       d="M406.95 392.584a5.5 5.5 0 0 0-3.964 3.812c-6.086 21.076-15.94 36.316-24.697 51.625-8.757 15.31-16.44 30.949-16.438 51.52a5.5 5.5 0 0 0 2.885 4.838c12.236 6.612 18.471-2.136 32.629 26.445 6.5 13.123 5.795 30.76 6.205 55.3s2.301 55.62 15.63 94.997a5.5 5.5 0 0 0 6.976 3.445 5.5 5.5 0 0 0 3.445-6.973c-8.65-25.555-12.241-47.186-13.82-66 1.71-1.662 5.926-4.104 11.42-5.806 5.88-1.822 13.147-3.026 20.367-3.18 7.219-.154 14.396.758 20.117 2.848 4.697 1.716 8.23 4.152 10.6 7.297-1.329 2.023-3.49 3.505-6.579 4.921a58 58 0 0 0-1.664-2.193 5.5 5.5 0 0 0-3.69-2.027 5.5 5.5 0 0 0-4.042 1.176 5.5 5.5 0 0 0-.85 7.732c9.562 11.927 13.572 27.819 8.67 51.713a5.5 5.5 0 0 0 4.281 6.494 5.5 5.5 0 0 0 6.495-4.283c4.043-19.708 2.453-36.008-3.61-49.096 5.27-2.611 10.39-6.53 12.535-13.185a5.5 5.5 0 0 0-.365-4.243c-3.796-7.23-10.53-11.907-18.006-14.638-6.957-2.542-14.702-3.534-22.402-3.52l-2.934-10.492c9.02-4.717 17.957-11.566 24.332-21.508 5.072-7.91 7.595-18.9 9.201-31.476s2.099-26.705 2.047-40.342c-.102-27.275-2.431-52.925-2.773-58.408a5.5 5.5 0 0 0-5.832-5.149 5.5 5.5 0 0 0-5.147 5.832c.398 6.37 2.652 31.09 2.752 57.768.05 13.338-.448 27.081-1.959 38.904-1.51 11.823-4.23 21.758-7.548 26.934-11.692 18.232-36.611 24.276-46.706 26.043-.165-21.152.238-38.573-7.289-53.768-13.433-27.118-27.112-28.445-34.193-30.332.876-15.911 6.914-28.326 14.809-42.127 8.54-14.929 19.145-31.275 25.716-54.033a5.5 5.5 0 0 0-3.757-6.81 5.5 5.5 0 0 0-2.846-.055m29.02 192.996 1.885 6.74c-4.902.626-9.611 1.633-13.89 2.959-3.271 1.014-6.288 2.167-8.989 3.559a419 419 0 0 1-.283-7.922c4.432-.589 12.236-1.99 21.277-5.336"
       style="color:#000;fill:#000;fill-opacity:.996078;stroke-linecap:round;stroke-linejoin:round;-inkscape-stroke:none;paint-order:stroke fill markers"
       id="path53" /><path
       d="M214.381 379.208c-3.584 64.581 2.784 86.238 32.384 105.466 31.638 20.552 79.43 12.884 125.773 16.676"
       style="fill:none;fill-opacity:1;stroke:#000;stroke-width:11;stroke-linecap:round;stroke-linejoin:round;stroke-dasharray:none;stroke-opacity:1;paint-order:stroke fill markers"
       id="path54" /><path
       d="M250.04 526.469c7.182 25.37 1.285 47.288-5.131 69.677"
       style="fill:none;fill-opacity:1;stroke:#242d32;stroke-width:11;stroke-linecap:round;stroke-linejoin:round;stroke-dasharray:none;stroke-opacity:1;paint-order:stroke fill markers"
       id="path55" /><path
       d="M254.862 627.197c-.126-.372-.932-7.144-1.486-12.487-.29-2.796-.565-5.406-.61-5.8l-.083-.719 2.052.556c1.129.306 2.923.772 3.988 1.036s2.031.54 2.148.612c.379.234-2.227 9.287-3.695 12.84-.724 1.752-1.976 4.181-2.155 4.181-.047 0-.118-.099-.159-.22"
       style="fill:#fff;fill-opacity:1;stroke:none;stroke-width:1.05155;stroke-linecap:round;stroke-linejoin:round;stroke-dasharray:none;stroke-opacity:1;paint-order:stroke fill markers"
       id="path56" /><path
       d="M249.903 514.638c7.832-11.402 13.782-6.947 21.687 3.434s10.854 42.827 10.854 42.827c18.517 10.05 22.613 17.824 32.882 26.572l9.76-11.928-11.386-7.229c-11.622 10.993-19.111 25.33-35.965 28.736-3.346 15.702-11.363 35.056-14.135 39.114s-8.899 2.095-10.51-2.116-3.758-28.907-3.758-28.907"
       style="fill:none;fill-opacity:1;stroke:#3478d5;stroke-width:6;stroke-linecap:round;stroke-linejoin:round;stroke-dasharray:none;stroke-opacity:1;paint-order:stroke fill markers"
       id="path57" /><path
       d="M227.311 583.727c-11.173-1.681-17.696-5.45-22.5-12.998-3.617-5.686-4.76-10.118-4.423-17.159.248-5.201.664-6.892 2.786-11.34 3.236-6.784 7.91-11.95 12.66-13.993 4.33-1.863 15.63-3.278 20.388-2.554l9.289.5 1.188 5.059c2.66 11.332 1.883 30.035-1.942 46.687l-1.494 6.501-9.22-.087c-1.77-.017-4.8-.326-6.732-.617"
       style="fill:#ffe8e0;fill-opacity:1;stroke:none;stroke-width:7.72893;stroke-linecap:round;stroke-linejoin:round;stroke-dasharray:none;stroke-opacity:1;paint-order:stroke fill markers"
       id="path58" /><path
       d="m196.452 544.316 6.423-2.584c4.968 26.708 19.929 41.682 39.882 36.998 2.6 3.956-3.035 12.707-.826 16.489l-45.48-22.113z"
       style="fill:#e0b7aa;fill-opacity:1;stroke-width:8;stroke-linecap:round;stroke-linejoin:round;paint-order:fill markers stroke"
       id="path59" /><path
       d="M306.228 499.484s-43.203.586-51.707.888c-8.505.302-15.687 12.53-12.463 17.332 17.407 25.931-.054 80.134-1.215 79.347 0 0 1.326 18.82 4.797 34.88 3.471 16.059 11.072 17.53 24.298 16.38 13.226-1.149 94.88-25.325 121.87-66.128"
       style="fill:none;fill-opacity:1;stroke:#000;stroke-width:11;stroke-linecap:round;stroke-linejoin:round;stroke-dasharray:none;stroke-opacity:1;paint-order:stroke fill markers"
       id="path60" /><path
       d="M258.738 631.653c5.684-5.714 9.572-28.474 12.58-41.872 10.46-.877 17.79-5.228 23.798-9.284-4.382-5.035-12.231-9.955-19.924-14.327-3.604-16.592-.895-33.828-15.466-50.14-1.92 4.415-5.828 6.856-7.748 6.676-15.719-1.513-35.534-3.924-46.01 8.16-10.477 12.083-15.511 30.51-3.192 47.137s37.509 13.794 42.228 13.16c-3.092 11.263 10.93 11.402 20.142 14.666"
       style="fill:none;fill-opacity:1;stroke:#000;stroke-width:11;stroke-linecap:round;stroke-linejoin:round;stroke-dasharray:none;stroke-opacity:1;paint-order:stroke fill markers"
       id="path61" /><path
       d="M85.18 557.462a31.18 35.002 0 0 1-31.179 35.002 31.18 35.002 0 0 1-31.18-35.002 31.18 35.002 0 0 1 31.18-35.002 31.18 35.002 0 0 1 31.18 35.002"
       style="color:#000;fill:#ffe8e0;stroke-linecap:round;stroke-linejoin:round;-inkscape-stroke:none;paint-order:fill markers stroke"
       id="path62" /><path
       d="M31.467 575.697c30.216 9.667 46.99-9.74 33.807-47.846 12.98 8.876 20.94 22.08 23.006 40.364-7.445 10.094-14.132 21.168-27.738 23.288-14.966.839-20.764-8.939-29.075-15.806"
       style="fill:#e0b7aa;fill-opacity:1;stroke-width:8;stroke-linecap:round;stroke-linejoin:round;paint-order:fill markers stroke"
       id="path63" /><path
       d="M54.002 516.959c-20.557 0-36.68 18.525-36.68 40.504s16.123 40.502 36.68 40.502 36.68-18.523 36.68-40.502-16.123-40.504-36.68-40.504m0 11c13.883 0 25.68 12.82 25.68 29.504 0 16.683-11.797 29.502-25.68 29.502-13.884 0-25.68-12.819-25.68-29.502 0-16.684 11.796-29.504 25.68-29.504"
       style="color:#000;fill:#000;stroke-linecap:round;stroke-linejoin:round;-inkscape-stroke:none;paint-order:fill markers stroke"
       id="path64" /><path
       d="M226.784 491.507h24.945"
       style="fill:#fff;fill-opacity:1;stroke:#000;stroke-width:11;stroke-linecap:round;stroke-linejoin:round;stroke-dasharray:none;stroke-opacity:1;paint-order:fill markers stroke"
       id="path65" /><path
       d="M101.605 599.405 99.064 615.4"
       style="fill:#fff;fill-opacity:1;stroke:#000;stroke-width:6;stroke-linecap:round;stroke-linejoin:round;stroke-dasharray:none;stroke-opacity:1;paint-order:fill markers stroke"
       id="path66" /><path
       d="M224.778 485.288c-.075-.374-.304-3.208-.508-6.297-.204-3.09-.462-6.23-.573-6.979l-.202-1.361 1.478 1.872c2.289 2.901 7.09 7.738 10.477 10.552l3.071 2.554-1.597.08c-.878.043-3.94.12-6.803.17-4.972.086-5.213.06-5.343-.59"
       style="fill:#000;fill-opacity:1;stroke:#000;stroke-width:2.04245;stroke-linecap:round;stroke-linejoin:round;stroke-dasharray:none;stroke-opacity:1;paint-order:fill markers stroke"
       id="path67" /></g><g
     style="stroke:#000;stroke-width:11;stroke-dasharray:none;stroke-opacity:1"
     id="g70"><path
       d="M288.101 371.696c-1.263 18.011-3.216 36.33-.186 52.433 4.99 3.057 11.62 1.31 17.353 0"
       style="fill:none;stroke:#000;stroke-width:11;stroke-linecap:round;stroke-linejoin:round;stroke-dasharray:none;stroke-opacity:1;paint-order:fill markers stroke"
       transform="translate(49.003 -7.977)scale(.194)"
       id="path68" /><path
       d="m276.346 388.49 25.937-3.546v44.596m12.875-60.27c8.154-.498 16.392-1.737 24.07 2.052-1.237 6.042-6.248 11.612-11.382 17.167 10.13 19.04 8.393 32.58-1.866 42.17"
       style="fill:none;stroke:#000;stroke-width:11;stroke-linecap:round;stroke-linejoin:round;stroke-dasharray:none;stroke-opacity:1;paint-order:fill markers stroke"
       transform="translate(49.003 -7.977)scale(.194)"
       id="path69" /><path
       d="M313.665 402.484c12.03-.927 24.423-.041 36.012-3.172m-65.307 64.375c2.612.186 30.414-1.68 30.414-1.68m-24.817 2.053 2.986 50.194m18.473-50.381 5.038 57.844m-25.004-41.424 20.525-1.679m-20.152 18.1 22.392-2.8m-25.75 22.579 26.683-5.971m13.248-50.194 22.018-1.866c-.186 6.344-.766 11.942-6.344 18.286 15.427 21.458 10.27 29.658-3.546 32.28m-12.314-47.581 3.171 58.964"
       style="fill:none;stroke:#000;stroke-width:11;stroke-linecap:round;stroke-linejoin:round;stroke-dasharray:none;stroke-opacity:1;paint-order:fill markers stroke"
       transform="translate(49.003 -7.977)scale(.194)"
       id="path70" /></g></svg>
