<?xml version="1.0" encoding="UTF-8" standalone="no"?>
<!-- Created with Inkscape (http://www.inkscape.org/) -->

<svg
   width="2100"
   height="900"
   viewBox="0 0 555.62498 238.125"
   version="1.1"
   id="svg1"
   inkscape:version="1.3.2 (091e20ef0f, 2023-11-25)"
   sodipodi:docname="cqu-lanunion.svg"
   xml:space="preserve"
   inkscape:export-filename="microsoft.png"
   inkscape:export-xdpi="96"
   inkscape:export-ydpi="96"
   xmlns:inkscape="http://www.inkscape.org/namespaces/inkscape"
   xmlns:sodipodi="http://sodipodi.sourceforge.net/DTD/sodipodi-0.dtd"
   xmlns="http://www.w3.org/2000/svg"
   xmlns:svg="http://www.w3.org/2000/svg"><sodipodi:namedview
     id="namedview1"
     pagecolor="#ffffff"
     bordercolor="#000000"
     borderopacity="0.25"
     inkscape:showpageshadow="2"
     inkscape:pageopacity="0.0"
     inkscape:pagecheckerboard="0"
     inkscape:deskcolor="#d1d1d1"
     inkscape:document-units="mm"
     inkscape:zoom="0.19626629"
     inkscape:cx="1632.9854"
     inkscape:cy="1131.1163"
     inkscape:window-width="1920"
     inkscape:window-height="1100"
     inkscape:window-x="0"
     inkscape:window-y="0"
     inkscape:window-maximized="1"
     inkscape:current-layer="layer1" /><defs
     id="defs1"><clipPath
       clipPathUnits="userSpaceOnUse"
       id="clipPath1"><rect
         style="opacity:0.129301;fill:#000000;fill-opacity:1;stroke-width:12.7;stroke-linecap:round;stroke-linejoin:round"
         id="rect2"
         width="60.854168"
         height="60.854168"
         x="195.08763"
         y="116.66334" /></clipPath><clipPath
       clipPathUnits="userSpaceOnUse"
       id="clipPath1262"><g
         id="g1266"
         transform="translate(-380.0555,-558.637)"><path
           d="M 0,841.89 H 595.28 V 0 H 0 Z"
           id="path1264" /></g></clipPath><clipPath
       clipPathUnits="userSpaceOnUse"
       id="clipPath1256"><g
         id="g1260"
         transform="translate(-120.3988,-588.0071)"><path
           d="M 0,841.89 H 595.28 V 0 H 0 Z"
           id="path1258" /></g></clipPath><clipPath
       clipPathUnits="userSpaceOnUse"
       id="clipPath1250"><g
         id="g1254"
         transform="translate(-153.9027,-606.2884)"><path
           d="M 0,841.89 H 595.28 V 0 H 0 Z"
           id="path1252" /></g></clipPath><clipPath
       clipPathUnits="userSpaceOnUse"
       id="clipPath1244"><g
         id="g1248"
         transform="translate(-190.184,-606.2884)"><path
           d="M 0,841.89 H 595.28 V 0 H 0 Z"
           id="path1246" /></g></clipPath><clipPath
       clipPathUnits="userSpaceOnUse"
       id="clipPath1238"><g
         id="g1242"
         transform="translate(-229.5243,-589.1321)"><path
           d="M 0,841.89 H 595.28 V 0 H 0 Z"
           id="path1240" /></g></clipPath><clipPath
       clipPathUnits="userSpaceOnUse"
       id="clipPath1232"><g
         id="g1236"
         transform="translate(-267.9496,-623.0228)"><path
           d="M 0,841.89 H 595.28 V 0 H 0 Z"
           id="path1234" /></g></clipPath><clipPath
       clipPathUnits="userSpaceOnUse"
       id="clipPath1226"><g
         id="g1230"><path
           d="M 0,841.89 H 595.28 V 0 H 0 Z"
           id="path1228" /></g></clipPath><clipPath
       clipPathUnits="userSpaceOnUse"
       id="clipPath1220"><g
         id="g1224"
         transform="translate(-319.7699,-606.2884)"><path
           d="M 0,841.89 H 595.28 V 0 H 0 Z"
           id="path1222" /></g></clipPath><clipPath
       clipPathUnits="userSpaceOnUse"
       id="clipPath1214"><g
         id="g1218"
         transform="translate(-318.1908,-573.1605)"><path
           d="M 0,841.89 H 595.28 V 0 H 0 Z"
           id="path1216" /></g></clipPath><clipPath
       clipPathUnits="userSpaceOnUse"
       id="clipPath1208"><g
         id="g1212"><path
           d="M 0,841.89 H 595.28 V 0 H 0 Z"
           id="path1210" /></g></clipPath><clipPath
       clipPathUnits="userSpaceOnUse"
       id="clipPath2"><rect
         style="opacity:0.25671;fill:#b9bfc4;stroke-width:10.4792;stroke-linecap:round;stroke-linejoin:round"
         id="rect3"
         width="287.58838"
         height="80.817612"
         x="212.00186"
         y="-122.43213" /></clipPath><clipPath
       clipPathUnits="userSpaceOnUse"
       id="clipPath3"><rect
         style="opacity:0.25671;fill:#b9bfc4;stroke-width:11.8943;stroke-linecap:round;stroke-linejoin:round"
         id="rect4"
         width="85.776512"
         height="16.947403"
         x="244.23143"
         y="34.239693" /></clipPath><linearGradient
       id="linearGradient9182"><stop
         style="stop-color:#55c7ff;stop-opacity:1;"
         offset="0"
         id="stop9184" /><stop
         style="stop-color:#2b69ff;stop-opacity:1;"
         offset="1"
         id="stop9186" /></linearGradient><linearGradient
       id="linearGradient5892"
       spreadMethod="pad"
       gradientTransform="matrix(190.60693,0,0,190.60693,-234.07121,40.419435)"
       gradientUnits="userSpaceOnUse"
       y2="0"
       x2="1"
       y1="0"
       x1="0"><stop
         id="stop5894"
         offset="0"
         style="stop-opacity:1;stop-color:#19e1fe" /><stop
         id="stop5896"
         offset="1"
         style="stop-opacity:1;stop-color:#19b5fe" /></linearGradient><radialGradient
       fx="0"
       fy="0"
       cx="0"
       cy="0"
       r="1"
       gradientUnits="userSpaceOnUse"
       gradientTransform="matrix(153.35164,0,0,153.35164,185.94709,-313.36527)"
       spreadMethod="pad"
       id="radialGradient72-9"><stop
         style="stop-opacity:1;stop-color:#339dff"
         offset="0"
         id="stop74-4" /><stop
         style="stop-opacity:1;stop-color:#4552ff"
         offset="1"
         id="stop76-9" /></radialGradient><style
       id="style1">.cls-1{filter:url(#luminosity-noclip);}.cls-2{fill:#231815;}.cls-3,.cls-4{fill:#1d6bad;}.cls-4{font-size:13.31px;font-family:TimesNewRomanPS-BoldMT, Times New Roman;font-weight:700;}.cls-5{mask:url(#mask);}</style><filter
       id="luminosity-noclip"
       x="42.33"
       y="34.59"
       width="57.08"
       height="15.15"
       filterUnits="userSpaceOnUse"
       color-interpolation-filters="sRGB"><feFlood
         flood-color="#fff"
         result="bg"
         id="feFlood1" /><feBlend
         in="SourceGraphic"
         in2="bg"
         id="feBlend1" /></filter><mask
       id="mask"
       x="42.33"
       y="34.59"
       width="57.08"
       height="15.15"
       maskUnits="userSpaceOnUse"><g
         id="_编组_"
         data-name="&lt;编组&gt;"
         class="cls-1"><g
           id="_编组_2"
           data-name="&lt;编组&gt;"><path
             class="cls-2"
             d="M47.17,47.15a1,1,0,0,0,0,.3c0,.06.13.14.15,0a.82.82,0,0,0,0-.29c0-.09-.19-.16-.19-.06Z"
             id="path1" /></g><g
           id="_编组_3"
           data-name="&lt;编组&gt;"><path
             class="cls-2"
             d="M50.46,46.94c.1,0-.1-.09-.14-.09s.1.09.14.09Z"
             id="path2" /></g><g
           id="_编组_4"
           data-name="&lt;编组&gt;"><path
             class="cls-2"
             d="M48.44,45.54h.28c.08,0,0-.14-.07-.14h-.29c-.15,0,0,.13.08.13Z"
             id="path3" /></g><g
           id="_编组_5"
           data-name="&lt;编组&gt;"><path
             class="cls-2"
             d="M54.83,45.16a2,2,0,0,0,0,.3c0,.05.13.14.14.05a1.84,1.84,0,0,0,0-.29c0-.09-.2-.15-.2-.06Z"
             id="path4" /></g><g
           id="_编组_6"
           data-name="&lt;编组&gt;"><path
             class="cls-2"
             d="M57.77,46.66c.15,0,.15-.09,0-.09s-.15.09,0,.09Z"
             id="path5" /></g><g
           id="_编组_7"
           data-name="&lt;编组&gt;"><path
             class="cls-2"
             d="M59.13,43.61c.13,0,.31-.23.12-.23s-.31.23-.12.23Z"
             id="path6" /></g><g
           id="_编组_8"
           data-name="&lt;编组&gt;"><path
             class="cls-2"
             d="M60.38,46.09c.15,0,0-.1-.1-.1s0,.1.1.1Z"
             id="path7" /></g><g
           id="_编组_9"
           data-name="&lt;编组&gt;"><path
             class="cls-2"
             d="M61.63,46c.08.38.41.4.75.37,0,0-.09-.14-.14-.12q-.35.13-.38-.2c0-.06-.23-.06-.23-.06Z"
             id="path8" /></g><g
           id="_编组_10"
           data-name="&lt;编组&gt;"><path
             class="cls-2"
             d="M62.35,38.74c.15,0,0-.15-.07-.15s0,.15.07.15Z"
             id="path9" /></g><g
           id="_编组_11"
           data-name="&lt;编组&gt;"><path
             class="cls-2"
             d="M65.43,42.43h.32c.15,0,0-.14-.08-.14h-.24c-.16,0-.16.15,0,.15Z"
             id="path10" /></g><g
           id="_编组_12"
           data-name="&lt;编组&gt;"><path
             class="cls-2"
             d="M68.55,45.27h.32c.12,0,0-.15-.07-.15h-.24c-.16,0-.17.16,0,.16Z"
             id="path11" /></g><g
           id="_编组_13"
           data-name="&lt;编组&gt;"><path
             class="cls-2"
             d="M64.9,44.67c.17,0,0-.09-.06-.09s0,.09.06.09Z"
             id="path12" /></g><g
           id="_编组_14"
           data-name="&lt;编组&gt;"><path
             class="cls-2"
             d="M63.22,41.26c.16,0,0-.09-.11-.09s0,.09.11.09Z"
             id="path13" /></g><g
           id="_编组_15"
           data-name="&lt;编组&gt;"><path
             class="cls-2"
             d="M72.71,40.92a1,1,0,0,0,0,.29s.14.14.15.06a1.21,1.21,0,0,0,0-.31c0-.09-.22-.14-.22,0Z"
             id="path14" /></g><g
           id="_编组_16"
           data-name="&lt;编组&gt;"><path
             class="cls-2"
             d="M77.09,38.45h.58c.12,0,0-.15-.07-.15h-.55c-.16,0-.09.15,0,.15Z"
             id="path15" /></g><g
           id="_编组_17"
           data-name="&lt;编组&gt;"><path
             class="cls-2"
             d="M80.77,39h.33c.15,0,0-.13-.08-.13h-.24c-.16,0-.16.13,0,.13Z"
             id="path16" /></g><g
           id="_编组_18"
           data-name="&lt;编组&gt;"><path
             class="cls-2"
             d="M77.7,42.4h.58s-.08-.12-.14-.11a4.9,4.9,0,0,1-.55,0c-.15,0,0,.09.11.08Z"
             id="path17" /></g><g
           id="_编组_19"
           data-name="&lt;编组&gt;"><path
             class="cls-2"
             d="M80.93,43.47a.7.7,0,0,0,0,.28s.15.15.17.07a1,1,0,0,0,0-.31c0-.09-.24-.11-.24,0Z"
             id="path18" /></g><g
           id="_编组_20"
           data-name="&lt;编组&gt;"><path
             class="cls-2"
             d="M75.39,45.55h.32c.12,0,0-.14-.1-.14h-.28c-.14,0,0,.14.06.14Z"
             id="path19" /></g><g
           id="_编组_21"
           data-name="&lt;编组&gt;"><path
             class="cls-2"
             d="M73.92,44l-.33,0s.09.11.15.11l.27,0c.15,0,0-.08-.09-.08Z"
             id="path20" /></g><g
           id="_编组_22"
           data-name="&lt;编组&gt;"><path
             class="cls-2"
             d="M85.82,45.72h-.29c-.1,0,.07.11.13.11h.26c.15,0,0-.09-.11-.09Z"
             id="path21" /></g><g
           id="_编组_23"
           data-name="&lt;编组&gt;"><path
             class="cls-2"
             d="M82.81,46.07l.31,0S83,46,83,46a1.3,1.3,0,0,1-.29,0c-.1,0,.11.06.14.06Z"
             id="path22" /></g><g
           id="_编组_24"
           data-name="&lt;编组&gt;"><path
             class="cls-2"
             d="M83.64,43.8c.18,0,0-.05-.07-.05s0,.05.07.05Z"
             id="path23" /></g><g
           id="_编组_25"
           data-name="&lt;编组&gt;"><path
             class="cls-2"
             d="M79.88,45.81c.11,0,.25-.09.07-.09s-.25.09-.07.09Z"
             id="path24" /></g><g
           id="_编组_26"
           data-name="&lt;编组&gt;"><path
             class="cls-2"
             d="M80.47,40.47l.33,0c.14,0,.05-.15,0-.17l-.26,0c-.16,0-.22.21,0,.21Z"
             id="path25" /></g><g
           id="_编组_27"
           data-name="&lt;编组&gt;"><path
             class="cls-2"
             d="M93,44.41h.11c.12.1.39-.16.18-.15h-.38c-.07,0,0,.14.08.14Z"
             id="path26" /></g><g
           id="_编组_28"
           data-name="&lt;编组&gt;"><path
             class="cls-2"
             d="M90.93,46a2.48,2.48,0,0,0,0,.29s.07.14.08.08a1.53,1.53,0,0,0,0-.29s-.11-.15-.11-.09Z"
             id="path27" /></g><g
           id="_编组_29"
           data-name="&lt;编组&gt;"><path
             class="cls-2"
             d="M93.29,46H93c-.07,0-.26.09-.1.1h.35c.11,0,.19-.08,0-.09Z"
             id="path28" /></g><g
           id="_编组_30"
           data-name="&lt;编组&gt;"><path
             class="cls-2"
             d="M58,38.1h0s0,0,0,0a.6.6,0,0,0,.13.51l-.1-.43c-.14.42-.14.19,0,.26h.22l-.14.22s.17-.34.06-.41L58,38.14l.08.41v0c0-.11-.12-.41-.12-.42Z"
             id="path29" /></g></g></mask><style
       id="style1-5">.cls-1{font-size:15.01px;font-family:TimesNewRomanPS-BoldMT, Times New Roman;font-weight:700;letter-spacing:0.05em;}.cls-1,.cls-3{fill:#1d6bad;}.cls-2{letter-spacing:0.01em;}</style><clipPath
       clipPathUnits="userSpaceOnUse"
       id="clipPath4"><rect
         style="opacity:0.0773393;fill:#000000;fill-opacity:1;stroke-width:44.1558;stroke-linecap:round;stroke-linejoin:round"
         id="rect5"
         width="217.36871"
         height="68.246368"
         x="3.0576382"
         y="7.4422498" /></clipPath></defs><g
     inkscape:label="图层 1"
     inkscape:groupmode="layer"
     id="layer1"><g
       id="g5"
       transform="matrix(0.80970558,0,0,0.80970558,-153.60464,22.656929)"><g
         id="_编组_31"
         data-name="&lt;编组&gt;"
         transform="matrix(0.93122159,0,0,0.93122159,268.90916,53.076138)"><g
           id="_编组_32"
           data-name="&lt;编组&gt;"><path
             id="_路径_"
             data-name="&lt;路径&gt;"
             class="cls-3"
             d="m 27.17,59.09 a 19.91,19.91 0 0 0 4.06,12.68 c 0,0 5.28,-7 4.77,-9.49 a 13.33,13.33 0 0 1 -2.72,1.87 22,22 0 0 0 0,-9.2 20.79,20.79 0 0 0 -3.17,8.05 c 0,0.09 -0.16,0 -0.16,0 0,0 -2.27,-3.41 -2.78,-3.91 z" /><path
             id="_路径_2"
             data-name="&lt;路径&gt;"
             class="cls-3"
             d="m 66.75,112.74 a 26.42,26.42 0 0 1 -9.32,1 c -3.23,-0.27 -6.74,-1.43 -8.87,-3.54 1.4,0.21 4.26,0.45 5.54,-0.44 a 48,48 0 0 1 -7.73,-1.53 12.54,12.54 0 0 1 -6,-4 37.39,37.39 0 0 1 7.43,1.2 c 0.11,-1.28 -0.26,-1.66 -1.64,-1.82 a 18.33,18.33 0 0 1 -6.65,-2.24 13,13 0 0 1 -5.08,-4.83 12.72,12.72 0 0 1 4.1,1.37 c 0.28,0.11 0.85,0.37 1.53,0.68 V 98.41 A 1.93,1.93 0 0 0 39.49,97.07 8.6,8.6 0 0 0 38,96.37 23.61,23.61 0 0 1 28.12,86.6 35.11,35.11 0 0 1 33.34,89 c 0.43,-0.82 -0.37,-1.19 -1.38,-2 a 17.35,17.35 0 0 1 -3.64,-4.28 19.4,19.4 0 0 1 -2,-5.24 30,30 0 0 1 3.69,3 c 0.11,-0.27 0.2,-0.49 0.22,-0.55 a 1.87,1.87 0 0 0 -0.48,-1.53 20.84,20.84 0 0 1 -2.57,-4.91 23.83,23.83 0 0 1 -0.6,-5.46 q 1.65,2.33 3.32,4.67 a 9,9 0 0 0 1.65,2 16.36,16.36 0 0 1 1.28,-3.27 19.68,19.68 0 0 1 2.32,-2.83 10.3,10.3 0 0 1 -1,6.79 42.71,42.71 0 0 0 -2.45,6.61 6.05,6.05 0 0 0 1.24,1 c 0.25,-0.07 1.18,-4.69 2.32,-6.39 0.43,2.16 0.71,4.38 1.12,6.55 0.31,1.57 -0.73,4.76 -1.43,6.71 a 13.53,13.53 0 0 0 2.4,1.61 15.54,15.54 0 0 1 0.41,-6.22 17,17 0 0 1 2.38,4.26 13.46,13.46 0 0 1 1.25,3.84 c 0,0.22 0,0.42 0,0.64 0,1.34 -0.44,2.74 0,4 a 15.71,15.71 0 0 1 0.44,1.51 19.88,19.88 0 0 0 2.71,1 16.13,16.13 0 0 1 -1.25,-2.92 5.66,5.66 0 0 1 -0.1,-3.13 14.68,14.68 0 0 0 3.38,3.78 12.56,12.56 0 0 1 2.43,2.71 5.28,5.28 0 0 1 0.58,1.35 20.15,20.15 0 0 1 0.93,4 c 1.3,0.47 2.28,0.84 3.4,1.34 l -3.27,-6.12 a 23.51,23.51 0 0 1 9,5.79 c 1.08,1.14 2.07,2.38 3.25,3.42 a 15.34,15.34 0 0 0 3.86,2.01 z" /></g><g
           id="_编组_33"
           data-name="&lt;编组&gt;"><path
             id="_路径_3"
             data-name="&lt;路径&gt;"
             class="cls-3"
             d="m 114.33,59.09 a 19.91,19.91 0 0 1 -4.06,12.68 c 0,0 -5.28,-7 -4.77,-9.49 a 13.33,13.33 0 0 0 2.72,1.87 22,22 0 0 1 0,-9.2 20.79,20.79 0 0 1 3.17,8.05 c 0,0.09 0.16,0 0.16,0 0,0 2.27,-3.41 2.78,-3.91 z" /><path
             id="_路径_4"
             data-name="&lt;路径&gt;"
             class="cls-3"
             d="m 74.75,112.74 a 26.42,26.42 0 0 0 9.32,1 c 3.23,-0.27 6.74,-1.43 8.87,-3.54 -1.4,0.21 -4.26,0.45 -5.54,-0.44 a 48,48 0 0 0 7.73,-1.53 12.54,12.54 0 0 0 6,-4 37.39,37.39 0 0 0 -7.43,1.2 c -0.11,-1.28 0.26,-1.66 1.64,-1.82 a 18.33,18.33 0 0 0 6.65,-2.24 13,13 0 0 0 5.08,-4.83 12.72,12.72 0 0 0 -4.1,1.37 c -0.28,0.11 -0.85,0.37 -1.53,0.68 v -0.18 a 1.93,1.93 0 0 1 0.56,-1.31 8.6,8.6 0 0 1 1.49,-0.73 23.61,23.61 0 0 0 9.88,-9.77 35.11,35.11 0 0 0 -5.21,2.4 c -0.43,-0.82 0.37,-1.19 1.38,-2 a 17.35,17.35 0 0 0 3.64,-4.28 19.4,19.4 0 0 0 2,-5.24 30,30 0 0 0 -3.69,3 c -0.11,-0.27 -0.2,-0.49 -0.22,-0.55 a 1.87,1.87 0 0 1 0.48,-1.53 20.84,20.84 0 0 0 2.57,-4.91 23.83,23.83 0 0 0 0.6,-5.46 q -1.65,2.33 -3.32,4.67 a 9,9 0 0 1 -1.65,2 16.36,16.36 0 0 0 -1.28,-3.27 19.68,19.68 0 0 0 -2.32,-2.83 10.3,10.3 0 0 0 1,6.79 42.71,42.71 0 0 1 2.45,6.61 6.05,6.05 0 0 1 -1.24,1 c -0.25,-0.07 -1.18,-4.69 -2.32,-6.39 -0.43,2.16 -0.71,4.38 -1.12,6.55 -0.31,1.57 0.73,4.76 1.43,6.71 a 13.53,13.53 0 0 1 -2.4,1.61 15.54,15.54 0 0 0 -0.41,-6.22 17,17 0 0 0 -2.38,4.26 13.46,13.46 0 0 0 -1.25,3.84 c 0,0.22 0,0.42 0,0.64 0,1.34 0.44,2.74 0,4 a 15.71,15.71 0 0 0 -0.44,1.51 19.88,19.88 0 0 1 -2.71,1 16.13,16.13 0 0 0 1.25,-2.92 5.66,5.66 0 0 0 0.1,-3.13 14.68,14.68 0 0 1 -3.38,3.78 12.56,12.56 0 0 0 -2.37,2.73 5.28,5.28 0 0 0 -0.58,1.35 20.15,20.15 0 0 0 -0.93,4 c -1.3,0.47 -2.28,0.84 -3.4,1.34 l 3.27,-6.12 a 23.51,23.51 0 0 0 -9,5.79 c -1.08,1.14 -2.07,2.38 -3.25,3.42 a 15.34,15.34 0 0 1 -3.92,1.99 z" /></g><path
           id="_路径_5"
           data-name="&lt;路径&gt;"
           class="cls-3"
           d="m 45,53.82 h 2.45 c 0.25,0 0.25,-1.14 0.25,-1.14 h 1.85 v 7.38 H 51 v 2.09 H 45 V 60.1 h 1.7 V 56 H 45 Z" /><path
           id="_路径_6"
           data-name="&lt;路径&gt;"
           class="cls-3"
           d="m 73.6,55.88 h 2.13 c 0,0 0.14,-1.32 1.28,-1.32 1.14,0 1.47,0.68 1.25,1.37 -1,1.85 -3.36,1.73 -4.66,4.64 v 1.51 H 81 v -2.66 h -2 v 1.06 h -3.13 c 0.83,-2 5.49,-1.19 5.15,-5.32 A 3.11,3.11 0 0 0 77.63,52.5 c -3.16,0 -4.2,2.5 -4.03,3.38 z" /><path
           id="_复合路径_"
           data-name="&lt;复合路径&gt;"
           class="cls-3"
           d="m 58.41,55.88 c 0.07,-1.64 0.73,-3.2 3.9,-3.2 3.17,0 4.26,2 4.26,4.74 0,2.74 -0.64,5 -4.08,5 -3.44,0 -3.8,-2.48 -3.8,-2.48 h 2.56 c 0.71,1.68 3.11,0.59 2.7,-1.45 -3.41,1.12 -5.38,0.14 -5.54,-2.61 z m 4.08,-1.34 A 1.44,1.44 0 1 0 63.85,56 1.4,1.4 0 0 0 62.49,54.54 Z" /><path
           id="_复合路径_2"
           data-name="&lt;复合路径&gt;"
           class="cls-3"
           d="m 87.93,55.88 c 0.07,-1.64 0.73,-3.2 3.9,-3.2 3.17,0 4.26,2 4.26,4.74 0,2.74 -0.64,5 -4.08,5 -3.44,0 -3.8,-2.48 -3.8,-2.48 h 2.56 c 0.71,1.68 3.11,0.59 2.7,-1.45 -3.41,1.12 -5.37,0.14 -5.54,-2.61 z M 92,54.54 A 1.44,1.44 0 1 0 93.37,56 1.4,1.4 0 0 0 92,54.54 Z" /><text
           class="cls-4"
           transform="rotate(110.53,-6.9971502,29.227299)"
           id="text29">C</text><text
           class="cls-4"
           transform="rotate(97.56,-18.561129,35.057848)"
           id="text30">H</text><text
           class="cls-4"
           transform="rotate(84.47,-33.19136,42.520707)"
           id="text31">O</text><text
           class="cls-4"
           transform="rotate(71.53,-51.875633,52.14713)"
           id="text32">N</text><text
           class="cls-4"
           transform="rotate(58.59,-77.099336,64.758001)"
           id="text33">G</text><text
           class="cls-4"
           transform="rotate(45.39,-116.42127,84.774489)"
           id="text34">Q</text><text
           class="cls-4"
           transform="rotate(34.97,-168.33351,114.65154)"
           id="text35">I</text><text
           class="cls-4"
           transform="matrix(0.91,0.42,-0.42,0.91,41.92,121.73)"
           id="text36">N</text><text
           class="cls-4"
           transform="rotate(11.92,-580.53164,320.1617)"
           id="text37">G</text><text
           class="cls-4"
           transform="rotate(2.5,-2922.7332,1588.7842)"
           id="text38" /><text
           class="cls-4"
           transform="rotate(-3.01,2493.7329,-1309.4512)"
           id="text39" /><text
           class="cls-4"
           transform="rotate(-12.06,649.0259,-306.05355)"
           id="text40">U</text><text
           class="cls-4"
           transform="rotate(-24.61,333.825,-144.74249)"
           id="text41">N</text><text
           class="cls-4"
           transform="rotate(-34.69,243.44154,-102.67608)"
           id="text42">I</text><text
           class="cls-4"
           transform="rotate(-44.7,194.81868,-73.839529)"
           id="text43">V</text><text
           class="cls-4"
           transform="rotate(-56.71,157.21528,-55.121886)"
           id="text44">E</text><text
           class="cls-4"
           transform="matrix(0.36,-0.93,0.93,0.36,123.31,96.42)"
           id="text45">R</text><text
           class="cls-4"
           transform="rotate(-80.16,113.99753,-33.44639)"
           id="text46">S</text><text
           class="cls-4"
           transform="rotate(-88.96,102.43327,-28.330607)"
           id="text47">I</text><text
           class="cls-4"
           transform="matrix(-0.15,-0.99,0.99,-0.15,128.97,66.64)"
           id="text48">T</text><text
           class="cls-4"
           transform="rotate(-110.66,82.446025,-16.442646)"
           id="text49">Y</text><path
           id="_复合路径_3"
           data-name="&lt;复合路径&gt;"
           class="cls-3"
           d="M 134.52,70.86 A 63.65,63.65 0 1 1 70.86,7.21 63.65,63.65 0 0 1 134.52,70.86 Z M 70.86,2.67 A 68.19,68.19 0 1 0 139.05,70.86 68.19,68.19 0 0 0 70.86,2.67 Z" /><g
           class="cls-5"
           mask="url(#mask)"
           id="g49"><path
             id="齿轮"
             class="cls-3"
             d="M 98.71,49.74 H 43 a 0.69,0.69 0 0 1 -0.59,-1.06 29,29 0 0 1 5.8,-6.39 0.69,0.69 0 0 1 1,0.08 l 1.33,1.54 0.61,0.71 a 0.69,0.69 0 0 0 0.87,0.15 l 4.55,-2.66 a 0.69,0.69 0 0 0 0.31,-0.82 l -1,-3 a 0.7,0.7 0 0 1 0.38,-0.86 36,36 0 0 1 9.9,-2.74 0.7,0.7 0 0 1 0.78,0.62 c 0.06,0.59 0.14,1.46 0.21,2.19 0.07,0.73 0.08,1.07 0.34,1.33 0.26,0.26 5.88,0.15 5.88,0.15 a 0.69,0.69 0 0 0 0.69,-0.6 l 0.41,-3.15 a 0.7,0.7 0 0 1 0.77,-0.61 36.36,36.36 0 0 1 9.73,2.55 0.7,0.7 0 0 1 0.38,0.87 l -1,3 a 0.69,0.69 0 0 0 0.28,0.81 l 4.5,2.9 a 0.69,0.69 0 0 0 0.9,-0.13 l 2.2,-2.54 a 0.7,0.7 0 0 1 1,-0.09 29,29 0 0 1 6.18,6.71 0.69,0.69 0 0 1 -0.7,1.04 z" /></g><g
           id="_编组_34"
           data-name="&lt;编组&gt;"><rect
             id="_路径_7"
             data-name="&lt;路径&gt;"
             class="cls-3"
             x="69.019997"
             y="109.87"
             width="3.7"
             height="1.14" /><rect
             class="cls-3"
             x="67.760002"
             y="107.76"
             width="6.2199998"
             height="1.14"
             id="rect49" /><rect
             class="cls-3"
             x="66.5"
             y="105.64"
             width="8.7299995"
             height="1.14"
             id="rect50" /><rect
             class="cls-3"
             x="65.239998"
             y="103.53"
             width="11.25"
             height="1.14"
             id="rect51" /><rect
             class="cls-3"
             x="63.98"
             y="101.41"
             width="13.76"
             height="1.14"
             id="rect52" /><rect
             class="cls-3"
             x="62.73"
             y="99.300003"
             width="16.280001"
             height="1.14"
             id="rect53" /><rect
             class="cls-3"
             x="61.470001"
             y="97.18"
             width="18.790001"
             height="1.14"
             id="rect54" /><rect
             class="cls-3"
             x="60.209999"
             y="95.07"
             width="21.309999"
             height="1.14"
             id="rect55" /><rect
             class="cls-3"
             x="58.950001"
             y="92.949997"
             width="23.82"
             height="1.14"
             id="rect56" /><rect
             class="cls-3"
             x="57.689999"
             y="90.839996"
             width="26.34"
             height="1.14"
             id="rect57" /><rect
             class="cls-3"
             x="56.439999"
             y="88.720001"
             width="28.860001"
             height="1.14"
             id="rect58" /><rect
             class="cls-3"
             x="55.18"
             y="86.610001"
             width="31.370001"
             height="1.14"
             id="rect59" /><rect
             class="cls-3"
             x="53.919998"
             y="84.489998"
             width="33.889999"
             height="1.14"
             id="rect60" /><rect
             class="cls-3"
             x="52.66"
             y="82.379997"
             width="36.400002"
             height="1.14"
             id="rect61" /><rect
             class="cls-3"
             x="51.41"
             y="80.260002"
             width="38.919998"
             height="1.14"
             id="rect62" /><rect
             class="cls-3"
             x="50.150002"
             y="78.150002"
             width="41.43"
             height="1.14"
             id="rect63" /><rect
             class="cls-3"
             x="48.889999"
             y="76.029999"
             width="43.950001"
             height="1.14"
             id="rect64" /><rect
             class="cls-3"
             x="47.630001"
             y="73.919998"
             width="46.470001"
             height="1.14"
             id="rect65" /><rect
             class="cls-3"
             x="46.369999"
             y="71.800003"
             width="48.98"
             height="1.14"
             id="rect66" /><rect
             class="cls-3"
             x="45.119999"
             y="69.690002"
             width="51.5"
             height="1.14"
             id="rect67" /><rect
             id="_路径_8"
             data-name="&lt;路径&gt;"
             class="cls-3"
             x="43.860001"
             y="67.57"
             width="54.009998"
             height="1.14" /></g><g
           id="_编组_35"
           data-name="&lt;编组&gt;"><path
             id="_复合路径_4"
             data-name="&lt;复合路径&gt;"
             class="cls-3"
             d="M 70.87,117.87 30.68,48.17 H 111 l -0.91,1.7 z M 34.61,50.44 70.86,113.32 107.11,50.44 Z" /><rect
             id="_路径_9"
             data-name="&lt;路径&gt;"
             class="cls-3"
             x="41.84"
             y="64.110001"
             width="57.939999"
             height="2.27" /><path
             id="_复合路径_5"
             data-name="&lt;复合路径&gt;"
             class="cls-3"
             d="m 81.22,99.92 -5.1,-9.12 -5.32,9.07 -1,-1.6 -4.4,-7.47 -4.12,7.37 -2,-1.11 4.77,-8.54 -3.81,-6.52 -4.38,6.9 -1.92,-1.22 6.37,-10 5,8.58 5.35,-9.56 1,1.66 4.42,7.9 5,-8.58 6.74,10.62 z M 66.68,88.5 l 4.08,7 4.08,-7 -4.08,-7.28 z m 10.77,0 3.8,6.79 4,-7 -4,-6.32 z" /></g><g
           id="校名毛笔字"><g
             id="学"><path
               id="_路径_10"
               data-name="&lt;路径&gt;"
               class="cls-3"
               d="m 43,32.61 a 5.94,5.94 0 0 0 0.11,1.23 c 0,0.35 0.09,0.71 0.1,1.06 a 0.62,0.62 0 0 1 -0.44,0.64 1.92,1.92 0 0 1 -0.89,0.24 0.44,0.44 0 0 1 -0.4,-0.3 A 4.84,4.84 0 0 1 41.19,34 c -0.06,-0.63 -0.1,-1.27 -0.13,-1.91 A 8.9,8.9 0 0 1 41,31 a 0.34,0.34 0 0 0 0,-0.16 1.34,1.34 0 0 0 -0.17,0.39 c -0.28,0.84 -0.58,1.68 -0.79,2.55 a 13.6,13.6 0 0 0 -0.22,1.63 7,7 0 0 1 -0.32,1.72 3.08,3.08 0 0 1 -0.37,0.66 0.69,0.69 0 0 1 -0.52,0.28 7.88,7.88 0 0 0 -2,0.55 1.25,1.25 0 0 1 -0.72,0.1 0.47,0.47 0 0 1 -0.15,-0.17 1.07,1.07 0 0 1 0,-1.11 c 0.29,-0.67 0.62,-1.32 0.93,-2 l 0.74,-1.61 1.4,-3.08 c 0.41,-0.9 0.81,-1.79 1.2,-2.7 a 0.41,0.41 0 0 0 -0.26,-0.61 0.59,0.59 0 0 1 -0.4,-0.23 0.69,0.69 0 0 1 0.09,-0.81 l 0.39,-0.51 c 0,-0.06 0.11,-0.08 0.13,-0.15 l 0.13,-0.13 a 1.61,1.61 0 0 1 0.31,-0.28 1.38,1.38 0 0 1 1.13,0.11 0.2,0.2 0 0 1 0.12,0.19 0.53,0.53 0 0 0 0.07,0.23 l 0.16,-0.14 a 0.55,0.55 0 0 1 0.63,-0.12 c 0.28,0.11 0.57,0.22 0.84,0.36 a 0.81,0.81 0 0 1 0.18,0.2 0.91,0.91 0 0 1 0,0.69 9.19,9.19 0 0 1 -0.46,1.06 1,1 0 0 0 0,0.92 c 0,0.12 0.1,0 0.13,0 a 2.4,2.4 0 0 0 0.31,-1.13 0.59,0.59 0 0 1 0.2,-0.17 c 0.3,-0.05 0.6,0 0.9,-0.1 a 0.76,0.76 0 0 1 0.59,0.08 1.45,1.45 0 0 1 0.25,0.29 2.34,2.34 0 0 1 0.19,1 c 0,0.43 0.12,0.85 0.13,1.29 a 5.55,5.55 0 0 1 -0.11,1.22 c 0,0.19 -0.22,0.28 -0.36,0.38 a 1.25,1.25 0 0 1 -0.31,0.17 c -0.14,0.05 -0.15,0.14 -0.12,0.27 a 9.25,9.25 0 0 0 0.47,1.16 c 0.12,0.31 0.25,0.61 0.36,0.92 a 0.18,0.18 0 0 0 0.21,0.14 1.31,1.31 0 0 1 1,0.26 1.7,1.7 0 0 1 0.28,0.32 3.33,3.33 0 0 1 0.2,1.07 c 0,0.2 0.06,0.4 0.09,0.66 0.26,-0.53 0.43,-1.05 0.68,-1.53 0.05,-0.1 0.17,-0.13 0.22,-0.23 l 0.07,-0.08 a 0.52,0.52 0 0 1 0.17,-0.15 h 0.23 a 0.37,0.37 0 0 1 0.39,0.31 4.49,4.49 0 0 1 0.1,0.44 0.59,0.59 0 0 0 0.34,0.45 c 0.07,0 0.12,0.09 0.19,0.13 a 0.29,0.29 0 0 1 0.12,0.42 l -0.4,0.73 c -0.36,0.63 -0.71,1.26 -1.07,1.88 -0.12,0.21 -0.27,0.42 -0.4,0.62 a 0.82,0.82 0 0 1 -0.2,0.18 1,1 0 0 1 -0.67,0 c -0.17,0 -0.34,-0.12 -0.51,-0.14 -0.17,-0.02 -0.42,-0.24 -0.5,-0.51 a 6.66,6.66 0 0 0 -0.38,-1.24 c -0.29,-0.55 -0.53,-1.13 -0.79,-1.7 -0.06,-0.13 -0.12,-0.22 -0.31,-0.12 A 0.47,0.47 0 0 1 44.15,35.98 1.52,1.52 0 0 1 43.9,35.7 c -0.18,-0.27 -0.19,-0.27 0,-0.53 a 0.42,0.42 0 0 0 0,-0.46 c -0.25,-0.57 -0.5,-1.14 -0.71,-1.72 a 2.24,2.24 0 0 0 -0.13,-0.25 c 0,0 0,-0.19 -0.06,-0.13 z" /><path
               id="_路径_11"
               data-name="&lt;路径&gt;"
               class="cls-3"
               d="M 36,20.84 A 1.44,1.44 0 0 1 35.82,19.68 1.77,1.77 0 0 1 36,18.9 a 0.58,0.58 0 0 1 0.17,-0.15 1.53,1.53 0 0 1 0.4,0 0.43,0.43 0 0 1 0.33,0.16 1.92,1.92 0 0 0 0.57,0.44 0.51,0.51 0 0 0 0.26,0.05 1.48,1.48 0 0 1 0.8,0.13 1.3,1.3 0 0 1 0.57,0.89 13.42,13.42 0 0 1 0.25,2.46 7.78,7.78 0 0 1 0,1.51 c -0.05,0.33 -0.15,0.65 -0.19,1 q -0.13,0.91 -0.22,1.82 a 9.83,9.83 0 0 0 0,1.8 1.48,1.48 0 0 1 -0.13,0.86 0.54,0.54 0 0 1 -0.17,0.15 A 0.93,0.93 0 0 1 38,30 0.16,0.16 0 0 1 37.88,29.89 10.83,10.83 0 0 1 37.35,27.4 c -0.11,-0.95 -0.23,-1.9 -0.36,-2.84 -0.1,-0.73 -0.15,-1.46 -0.22,-2.2 A 1.8,1.8 0 0 0 36.41,21.43 C 36.28,21.18 36.08,21 36,20.84 Z" /><path
               id="_路径_12"
               data-name="&lt;路径&gt;"
               class="cls-3"
               d="M 36,20.84 A 5.9,5.9 0 0 1 36.44,21.38 3,3 0 0 1 36,20.84 Z" /><path
               id="_路径_13"
               data-name="&lt;路径&gt;"
               class="cls-3"
               d="m 40.32,25.29 -0.31,0.28 a 0.61,0.61 0 0 1 0.31,-0.28 z" /><path
               id="_路径_14"
               data-name="&lt;路径&gt;"
               class="cls-3"
               d="m 47.15,34.81 -0.28,-0.32 a 0.62,0.62 0 0 1 0.28,0.32 z" /><path
               id="_路径_15"
               data-name="&lt;路径&gt;"
               class="cls-3"
               d="m 45.36,27.71 -0.25,-0.29 a 0.51,0.51 0 0 1 0.25,0.29 z" /><path
               id="_路径_16"
               data-name="&lt;路径&gt;"
               class="cls-3"
               d="m 43.9,35.64 0.25,0.28 A 0.52,0.52 0 0 1 43.9,35.64 Z" /><path
               id="_路径_17"
               data-name="&lt;路径&gt;"
               class="cls-3"
               d="m 48.38,34.86 c 0,0.11 -0.15,0.16 -0.22,0.23 0.03,-0.09 0.14,-0.15 0.22,-0.23 z" /><path
               id="_路径_18"
               data-name="&lt;路径&gt;"
               class="cls-3"
               d="m 43.44,26.12 -0.18,-0.2 a 0.28,0.28 0 0 1 0.18,0.2 z" /><path
               id="_路径_19"
               data-name="&lt;路径&gt;"
               class="cls-3"
               d="m 47.92,39.8 0.2,-0.18 a 0.28,0.28 0 0 1 -0.2,0.18 z" /><path
               id="_路径_20"
               data-name="&lt;路径&gt;"
               class="cls-3"
               d="m 43.63,27.45 -0.2,0.17 a 0.25,0.25 0 0 1 0.2,-0.17 z" /><path
               id="_路径_21"
               data-name="&lt;路径&gt;"
               class="cls-3"
               d="m 48.62,34.63 -0.17,0.15 a 0.2,0.2 0 0 1 0.17,-0.15 z" /><path
               id="_路径_22"
               data-name="&lt;路径&gt;"
               class="cls-3"
               d="M 36.22,18.75 36,18.9 a 0.2,0.2 0 0 1 0.22,-0.15 z" /><path
               id="_路径_23"
               data-name="&lt;路径&gt;"
               class="cls-3"
               d="m 38.61,30 0.17,-0.15 A 0.2,0.2 0 0 1 38.61,30 Z" /><path
               id="_路径_24"
               data-name="&lt;路径&gt;"
               class="cls-3"
               d="m 35.7,38.5 0.15,0.17 A 0.19,0.19 0 0 1 35.7,38.5 Z" /><path
               id="_路径_25"
               data-name="&lt;路径&gt;"
               class="cls-3"
               d="m 39.87,25.7 a 0.35,0.35 0 0 1 -0.13,0.15 c 0.01,-0.08 0.09,-0.11 0.13,-0.15 z" /><path
               id="_路径_26"
               data-name="&lt;路径&gt;"
               class="cls-3"
               d="m 43,32.61 c 0.1,-0.08 0.09,0 0.11,0.07 C 43.13,32.75 43,32.6 43,32.61 Z" /></g><g
             id="大"><path
               id="_路径_27"
               data-name="&lt;路径&gt;"
               class="cls-3"
               d="m 85.85,21.34 -0.06,0.18 c -0.05,0 0,0.13 -0.08,0.18 l -0.06,0.18 c -0.05,0 0,0.13 -0.08,0.18 l -0.06,0.18 c -0.05,0 0,0.13 -0.08,0.18 -0.08,0.05 0.06,0.11 0.1,0.1 a 13.93,13.93 0 0 0 1.62,0 0.6,0.6 0 0 0 0.26,-0.11 0.26,0.26 0 0 0 0.1,-0.35 1.15,1.15 0 0 1 -0.07,-0.92 c 0.06,-0.17 0.18,-0.22 0.28,-0.09 a 1,1 0 0 0 0.86,0.41 0.44,0.44 0 0 1 0.32,0.16 c 0.12,0.16 0.33,0.15 0.49,0.25 a 0.78,0.78 0 0 1 0.42,0.6 2.4,2.4 0 0 1 -0.12,0.44 1.59,1.59 0 0 1 -1.18,1 12.41,12.41 0 0 1 -3,0.36 c -0.21,0 -0.43,0 -0.64,0 -0.05,0 -0.12,0 -0.15,0.06 -0.03,0.06 0,0.13 -0.08,0.18 a 1.51,1.51 0 0 0 0.26,0.74 11.53,11.53 0 0 1 0.88,2.31 3.48,3.48 0 0 0 1.35,2 4.17,4.17 0 0 0 1.07,0.57 c 0.06,0.06 0.16,0 0.22,0.09 l 0.18,0.06 c 0,0.05 0.13,0 0.18,0.08 0.3,0.25 0.3,0.32 0,0.54 a 2.88,2.88 0 0 1 -1.08,0.54 h -0.06 c -0.07,0 -0.13,0 -0.19,0 l -0.5,-0.08 A 1.68,1.68 0 0 1 86.58,31.26 3,3 0 0 0 85.45,31 0.46,0.46 0 0 1 85.27,31 0.5,0.5 0 0 1 84.97,30.59 24.15,24.15 0 0 1 84.51,28 13.68,13.68 0 0 0 84,25.44 a 2,2 0 0 0 -0.22,0.42 4.5,4.5 0 0 1 -2.6,1.89 6.25,6.25 0 0 1 -1.23,0 8.09,8.09 0 0 1 -1,-0.1 8.31,8.31 0 0 1 -0.85,-0.23 1.26,1.26 0 0 1 -0.79,-0.65 1,1 0 0 1 0.27,-0.93 0.07,0.07 0 0 1 0.1,0 1.22,1.22 0 0 0 1,0.34 6.15,6.15 0 0 0 1.89,-0.18 3.47,3.47 0 0 0 1.61,-1.26 c 0.15,-0.2 0.14,-0.2 -0.1,-0.24 a 0.86,0.86 0 0 0 -0.67,0.2 2.63,2.63 0 0 1 -0.88,0.4 c -0.1,0 -0.14,-0.05 -0.18,-0.11 a 1.9,1.9 0 0 1 -0.17,-0.3 1.1,1.1 0 0 0 -0.45,-0.51 0.27,0.27 0 0 1 -0.13,-0.29 1.44,1.44 0 0 1 0.71,-1 0.43,0.43 0 0 1 0.2,0 c 0.72,0 1.44,-0.05 2.16,-0.1 a 1.07,1.07 0 0 0 1,-0.7 c 0.24,-0.49 0.45,-1 0.67,-1.5 0.22,-0.5 0.38,-0.93 0.58,-1.39 0.2,-0.46 0.42,-1 0.63,-1.45 0.13,-0.31 0.25,-0.63 0.37,-0.94 0.05,0 0,-0.12 0.08,-0.18 0.19,-0.26 0,-0.41 -0.15,-0.59 -0.15,-0.18 -0.16,-0.36 0.09,-0.51 l 0.27,-0.18 a 2,2 0 0 1 1.42,-0.23 0.23,0.23 0 0 1 0.2,0.18 5.18,5.18 0 0 0 0.45,1.07 A 0.84,0.84 0 0 1 88,17.48 3.52,3.52 0 0 0 86.8,19 11.53,11.53 0 0 0 86.19,20.52 c -0.05,0 0,0.13 -0.08,0.18 a 2.2,2.2 0 0 0 -0.18,0.5 c -0.06,0.01 -0.04,0.08 -0.08,0.14 z" /><path
               id="_路径_28"
               data-name="&lt;路径&gt;"
               class="cls-3"
               d="m 78.1,27.46 0.85,0.23 A 2.67,2.67 0 0 1 78.1,27.46 Z" /><path
               id="_路径_29"
               data-name="&lt;路径&gt;"
               class="cls-3"
               d="m 89.69,22.89 0.12,-0.44 a 0.75,0.75 0 0 1 -0.12,0.44 z" /><path
               id="_路径_30"
               data-name="&lt;路径&gt;"
               class="cls-3"
               d="m 86.59,31.27 0.37,0.1 a 0.53,0.53 0 0 1 -0.37,-0.1 z" /><path
               id="_路径_31"
               data-name="&lt;路径&gt;"
               class="cls-3"
               d="m 88.46,30.24 a 0.44,0.44 0 0 1 -0.22,-0.09 c 0.07,0.03 0.16,0.02 0.22,0.09 z" /><path
               id="_路径_32"
               data-name="&lt;路径&gt;"
               class="cls-3"
               d="m 86,16.59 a 0.3,0.3 0 0 1 -0.08,0.18 C 85.9,16.71 85.89,16.64 86,16.59 Z" /><path
               id="_路径_33"
               data-name="&lt;路径&gt;"
               class="cls-3"
               d="m 85.71,21.7 a 0.32,0.32 0 0 1 0.08,-0.18 c -0.02,0.06 -0.01,0.14 -0.08,0.18 z" /><path
               id="_路径_34"
               data-name="&lt;路径&gt;"
               class="cls-3"
               d="m 85.57,22.06 a 0.36,0.36 0 0 1 0.08,-0.18 c -0.02,0.06 -0.01,0.12 -0.08,0.18 z" /><path
               id="_路径_35"
               data-name="&lt;路径&gt;"
               class="cls-3"
               d="M 88.82,30.38 A 0.39,0.39 0 0 1 88.64,30.3 c 0.06,0.02 0.14,0.01 0.18,0.08 z" /><path
               id="_路径_36"
               data-name="&lt;路径&gt;"
               class="cls-3"
               d="m 85.44,22.42 a 0.32,0.32 0 0 1 0.08,-0.18 c -0.03,0.06 -0.02,0.14 -0.08,0.18 z" /><path
               id="_路径_37"
               data-name="&lt;路径&gt;"
               class="cls-3"
               d="m 84.68,24.49 a 0.31,0.31 0 0 1 0.08,-0.18 c -0.02,0.06 -0.01,0.14 -0.08,0.18 z" /><path
               id="_路径_38"
               data-name="&lt;路径&gt;"
               class="cls-3"
               d="m 85.85,21.34 a 0.32,0.32 0 0 1 0.08,-0.18 c -0.03,0.06 -0.02,0.13 -0.08,0.18 z" /><path
               id="_路径_39"
               data-name="&lt;路径&gt;"
               class="cls-3"
               d="m 86.11,20.65 a 0.33,0.33 0 0 1 0.08,-0.18 c -0.02,0.06 -0.01,0.14 -0.08,0.18 z" /><path
               id="_路径_40"
               data-name="&lt;路径&gt;"
               class="cls-3"
               d="m 85.27,31 h 0.18 a 0.15,0.15 0 0 1 -0.18,0 z" /><path
               id="_路径_41"
               data-name="&lt;路径&gt;"
               class="cls-3"
               d="m 87.45,31.45 a 0.29,0.29 0 0 1 0.19,0 c -0.06,0.06 -0.12,0.01 -0.19,0 z" /></g><g
             id="庆"><path
               id="_路径_42"
               data-name="&lt;路径&gt;"
               class="cls-3"
               d="m 61.69,20.94 a 0.21,0.21 0 0 0 -0.24,0.16 c -0.26,0.68 -0.43,1.39 -0.66,2.09 -0.39,1.16 -0.8,2.32 -1.19,3.48 -0.28,0.81 -0.53,1.62 -0.82,2.42 a 21.84,21.84 0 0 0 -0.8,2.32 c -0.12,0.5 -0.2,1 -0.33,1.5 a 1.72,1.72 0 0 1 -0.58,1 0.85,0.85 0 0 1 -1.34,-0.35 2.79,2.79 0 0 1 -0.15,-0.44 c 0,-0.07 0,-0.13 0,-0.2 a 3.39,3.39 0 0 1 0.25,-2 c 0.29,-0.6 0.64,-1.18 0.94,-1.78 a 16.37,16.37 0 0 0 0.68,-1.6 c 0.17,-0.47 0.36,-0.93 0.54,-1.39 0.18,-0.46 0.34,-0.91 0.55,-1.35 0.27,-0.59 0.48,-1.21 0.73,-1.81 0.25,-0.6 0.44,-1.1 0.65,-1.65 0.21,-0.55 0.38,-0.82 0.57,-1.23 l 0.84,-1.76 0.78,-1.65 c 0.13,-0.28 0.26,-0.57 0.4,-0.84 0,-0.07 0.1,-0.15 0,-0.22 -0.1,-0.07 -0.13,0 -0.19,0.08 a 29.23,29.23 0 0 1 -3.09,2.19 2,2 0 0 1 -1.23,0.29 1.14,1.14 0 0 1 -0.84,-0.43 1.32,1.32 0 0 0 -0.63,-0.36 0.32,0.32 0 0 1 -0.22,-0.34 0.64,0.64 0 0 1 0.32,-0.6 2.94,2.94 0 0 1 0.67,-0.35 c 0.26,-0.11 0.53,-0.18 0.79,-0.27 a 0.45,0.45 0 0 0 0.19,-0.08 8,8 0 0 0 1.79,-0.92 c 0.19,-0.11 0.36,-0.25 0.55,-0.38 0.19,-0.13 0.11,-0.1 0,-0.15 -0.3,-0.15 -0.61,-0.26 -0.92,-0.39 A 1.92,1.92 0 0 1 58.58,13 2,2 0 0 1 58.45,12.6 0.59,0.59 0 0 1 58.66,12.08 1.36,1.36 0 0 1 59,12 a 6.94,6.94 0 0 1 1.14,0.11 7.15,7.15 0 0 0 1.13,0.1 2.64,2.64 0 0 0 0.84,-0.13 0.85,0.85 0 0 1 0.58,0 3.15,3.15 0 0 0 0.51,0.15 0.59,0.59 0 0 1 0.44,0.33 c 0.05,0.09 0.09,0.22 0.21,0.18 a 0.32,0.32 0 0 0 0.2,-0.3 0.74,0.74 0 0 1 0,-0.31 0.61,0.61 0 0 1 0.78,-0.32 4.81,4.81 0 0 0 0.63,0.27 0.85,0.85 0 0 1 0.43,0.41 c 0.1,0.17 0.2,0.34 0.3,0.51 0.1,0.17 0,0.13 0.09,0.18 0.18,0.38 -0.11,0.59 -0.32,0.82 a 7.86,7.86 0 0 1 -0.93,0.8 c -0.29,0.24 -0.49,0.56 -0.75,0.82 -0.26,0.26 -0.33,0.36 -0.5,0.55 l -0.07,0.09 c 0,0.06 -0.08,0.15 0,0.19 0.08,0.04 0.14,0 0.21,0 a 0.47,0.47 0 0 1 0.12,-0.06 c 0.05,0 0.13,0 0.18,-0.09 0.21,0 0.34,-0.2 0.5,-0.3 a 0.51,0.51 0 0 1 0.18,-0.06 c 0.37,0.1 0.39,0.14 0.38,0.52 0,0.13 -0.06,0.31 0.05,0.37 0.11,0.06 0.21,-0.09 0.32,-0.14 l 0.12,-0.06 a 0.89,0.89 0 0 1 0.25,-0.08 0.69,0.69 0 0 1 0.59,0.28 c 0.16,0.22 0.44,0.32 0.59,0.56 0,0.05 0,0.13 0.09,0.18 a 0.42,0.42 0 0 1 -0.09,0.49 8.5,8.5 0 0 1 -0.85,0.86 3.88,3.88 0 0 0 -0.33,0.37 0.12,0.12 0 0 0 0,0.16 c 0.05,0.07 0.1,0 0.15,0 a 1.17,1.17 0 0 0 0.28,-0.15 0.87,0.87 0 0 1 0.29,-0.09 l 0.49,0.15 a 1.36,1.36 0 0 1 0.9,0.78 c 0,0.11 0.06,0.2 0.07,0.3 0.01,0.1 0,0.3 0,0.45 a 0.49,0.49 0 0 1 -0.29,0.45 c -0.28,0.12 -0.58,0.19 -0.87,0.29 a 0.44,0.44 0 0 0 -0.19,0.08 0.91,0.91 0 0 0 -0.42,0.45 c 0,0.08 -0.07,0.16 0.1,0.16 a 0.39,0.39 0 0 1 0.3,0.55 1.65,1.65 0 0 0 -0.08,0.19 c -0.09,0.25 -0.08,0.24 0.19,0.28 a 2,2 0 0 1 1.08,0.56 0.37,0.37 0 0 1 0.1,0.38 18.8,18.8 0 0 1 -0.46,1.85 c 0,0.07 0,0.12 0,0.16 a 2.36,2.36 0 0 0 1,0.41 0.38,0.38 0 0 0 0.13,0 c 0.08,0 0.15,0 0.23,0 a 0.21,0.21 0 0 1 0.23,0.19 1.12,1.12 0 0 1 -0.51,1.42 2.29,2.29 0 0 1 -0.43,0.14 1.31,1.31 0 0 1 -1,-0.16 c -0.13,-0.08 -0.2,-0.22 -0.34,-0.29 -0.14,-0.07 -0.11,0 -0.14,0.06 a 1.72,1.72 0 0 1 -0.2,0.61 0.76,0.76 0 0 1 -0.21,0.21 1,1 0 0 1 -0.29,0.09 h -0.15 c -0.07,0 -0.13,0 -0.19,0 a 4.74,4.74 0 0 1 -0.95,0.1 c -0.28,0 -0.41,-0.12 -0.37,-0.4 a 1.13,1.13 0 0 1 0.2,-0.66 0.24,0.24 0 0 1 0.17,-0.11 0.59,0.59 0 0 0 0.53,-0.34 c 0.1,-0.15 0.22,-0.29 0.32,-0.43 a 0.44,0.44 0 0 0 0.08,-0.34 0.39,0.39 0 0 0 -0.07,-0.24 1.08,1.08 0 0 1 -0.2,-0.54 0.36,0.36 0 0 1 0.23,-0.36 c 0.05,0 0.13,0 0.18,-0.09 0.37,-0.09 0.46,-0.32 0.39,-0.55 A 0.15,0.15 0 0 0 66.03,24.94 6.53,6.53 0 0 0 65.59,25.47 1.14,1.14 0 0 1 65,26 c -0.3,0.06 -0.34,0.24 -0.41,0.47 a 21.82,21.82 0 0 1 -0.91,2.65 c -0.12,0.28 -0.16,0.59 -0.28,0.87 a 1.64,1.64 0 0 1 -0.37,0.57 0.63,0.63 0 0 1 -0.25,0.08 1,1 0 0 1 -1.16,-0.64 0.71,0.71 0 0 1 0.1,-0.69 c 0.14,-0.22 0.21,-0.46 0.32,-0.68 0.11,-0.22 0.17,-0.42 0.26,-0.63 0.2,-0.46 0.4,-0.93 0.57,-1.4 0.12,-0.31 0.27,-0.61 0.4,-0.92 A 17.24,17.24 0 0 0 64,23.93 c 0.06,-0.21 0,-0.27 -0.2,-0.34 l -0.32,-0.1 c -0.34,-0.1 -0.4,-0.19 -0.36,-0.53 0.04,-0.34 0,-0.47 0.34,-0.44 -0.1,-0.14 -0.24,-0.14 -0.35,-0.18 -0.11,-0.04 -0.5,-0.13 -0.6,-0.43 a 0.49,0.49 0 0 0 -0.19,-0.22 0.62,0.62 0 0 1 -0.26,-0.84 c 0,-0.06 -0.05,0 -0.08,0 v 0 a 0.6,0.6 0 0 1 -0.29,0.09 z" /><path
               id="_路径_43"
               data-name="&lt;路径&gt;"
               class="cls-3"
               d="m 62.92,24.33 a 1.91,1.91 0 0 1 0,1.12 0.76,0.76 0 0 1 -0.43,0.41 2.74,2.74 0 0 1 -0.94,0.26 0.61,0.61 0 0 1 -0.7,-0.62 2.79,2.79 0 0 1 0.16,-0.67 1.78,1.78 0 0 1 0.41,-0.69 4.55,4.55 0 0 1 0.6,-0.81 c 0.09,-0.08 0.18,-0.17 0.31,-0.12 0.13,0.05 0.27,0.14 0.27,0.31 a 0.61,0.61 0 0 0 0.25,0.45 1.79,1.79 0 0 1 0.07,0.36 z" /><path
               id="_路径_44"
               data-name="&lt;路径&gt;"
               class="cls-3"
               d="m 66.86,21.68 a 2.73,2.73 0 0 1 0.64,-0.24 l 0.42,-0.13 a 2.78,2.78 0 0 1 -0.64,0.24 z" /><path
               id="_路径_45"
               data-name="&lt;路径&gt;"
               class="cls-3"
               d="m 58.32,15.76 a 8.51,8.51 0 0 1 -1,0.35 4.54,4.54 0 0 1 0.78,-0.29 z" /><path
               id="_路径_46"
               data-name="&lt;路径&gt;"
               class="cls-3"
               d="m 68.38,28.35 0.43,-0.14 a 0.75,0.75 0 0 1 -0.43,0.14 z" /><path
               id="_路径_47"
               data-name="&lt;路径&gt;"
               class="cls-3"
               d="m 58.45,12.61 0.13,0.4 a 0.65,0.65 0 0 1 -0.13,-0.4 z" /><path
               id="_路径_48"
               data-name="&lt;路径&gt;"
               class="cls-3"
               d="M 62.92,24.33 62.81,24 a 0.54,0.54 0 0 1 0.11,0.33 z" /><path
               id="_路径_49"
               data-name="&lt;路径&gt;"
               class="cls-3"
               d="m 59,12 -0.32,0.11 A 0.45,0.45 0 0 1 59,12 Z" /><path
               id="_路径_50"
               data-name="&lt;路径&gt;"
               class="cls-3"
               d="m 66.7,19.18 -0.29,0.09 a 0.33,0.33 0 0 1 0.29,-0.09 z" /><path
               id="_路径_51"
               data-name="&lt;路径&gt;"
               class="cls-3"
               d="m 66.17,28.87 0.29,-0.09 a 0.35,0.35 0 0 1 -0.29,0.09 z" /><path
               id="_路径_52"
               data-name="&lt;路径&gt;"
               class="cls-3"
               d="m 68.16,20.41 a 0.71,0.71 0 0 1 -0.07,-0.3 c 0.02,0.1 0.09,0.19 0.07,0.3 z" /><path
               id="_路径_53"
               data-name="&lt;路径&gt;"
               class="cls-3"
               d="m 66,16.53 -0.25,0.08 A 0.28,0.28 0 0 1 66,16.53 Z" /><path
               id="_路径_54"
               data-name="&lt;路径&gt;"
               class="cls-3"
               d="m 62.73,30.63 0.25,-0.08 a 0.26,0.26 0 0 1 -0.25,0.08 z" /><path
               id="_路径_55"
               data-name="&lt;路径&gt;"
               class="cls-3"
               d="m 61.69,20.94 0.21,-0.07 a 0.21,0.21 0 0 1 -0.21,0.07 z" /><path
               id="_路径_56"
               data-name="&lt;路径&gt;"
               class="cls-3"
               d="m 65.73,26.52 a 0.25,0.25 0 0 1 0.07,0.24 z" /><path
               id="_路径_57"
               data-name="&lt;路径&gt;"
               class="cls-3"
               d="m 69.1,26.6 a 0.47,0.47 0 0 1 -0.23,0 c 0.08,0.03 0.13,-0.03 0.23,0 z" /><path
               id="_路径_58"
               data-name="&lt;路径&gt;"
               class="cls-3"
               d="M 66.29,13.19 A 0.38,0.38 0 0 1 66.2,13 c 0.07,0 0.06,0.12 0.09,0.19 z" /><path
               id="_路径_59"
               data-name="&lt;路径&gt;"
               class="cls-3"
               d="M 64.87,15.93 64.7,16 a 0.16,0.16 0 0 1 0.17,-0.07 z" /><path
               id="_路径_60"
               data-name="&lt;路径&gt;"
               class="cls-3"
               d="m 64.19,16.28 a 0.32,0.32 0 0 1 -0.18,0.09 c 0.04,-0.07 0.12,-0.06 0.18,-0.09 z" /><path
               id="_路径_61"
               data-name="&lt;路径&gt;"
               class="cls-3"
               d="m 61.94,20.85 c 0,0 0,-0.08 0.09,-0.07 0.09,0.01 0,0 0,0.07 z" /><path
               id="_路径_62"
               data-name="&lt;路径&gt;"
               class="cls-3"
               d="m 65.82,28.94 a 0.31,0.31 0 0 1 0.19,0 C 66,28.92 65.89,29 65.82,28.94 Z" /><path
               id="_路径_63"
               data-name="&lt;路径&gt;"
               class="cls-3"
               d="m 65.94,25.54 a 0.41,0.41 0 0 1 -0.18,0.09 c 0.04,-0.07 0.12,-0.06 0.18,-0.09 z" /><path
               id="_路径_64"
               data-name="&lt;路径&gt;"
               class="cls-3"
               d="m 55.54,32.92 a 0.35,0.35 0 0 1 0,0.2 c 0.02,-0.12 -0.03,-0.12 0,-0.2 z" /><path
               id="_路径_65"
               data-name="&lt;路径&gt;"
               class="cls-3"
               d="m 67.26,17.56 a 0.37,0.37 0 0 1 -0.09,-0.18 c 0.07,0.04 0.07,0.12 0.09,0.18 z" /><path
               id="_路径_66"
               data-name="&lt;路径&gt;"
               class="cls-3"
               d="m 65.14,20 a 7.45,7.45 0 0 0 -0.46,0.92 c 0,0.12 -0.12,0.12 -0.23,0.12 a 10,10 0 0 0 -1.29,0.08 c 0,0 -0.07,0 -0.06,-0.05 a 11.57,11.57 0 0 1 1.69,-1 L 65,20 c 0,0 0.12,-0.09 0.14,0 z" /><path
               id="_路径_67"
               data-name="&lt;路径&gt;"
               class="cls-3"
               d="m 64.9,21.4 0.39,-0.25 a 1.55,1.55 0 0 0 0.58,-0.65 0.25,0.25 0 0 1 0.2,-0.15 2.84,2.84 0 0 1 0.45,-0.07 c 0.09,0 0.13,0 0.16,0.12 0.03,0.12 0,0.1 -0.1,0.13 a 1.6,1.6 0 0 0 -0.7,0.54 1.21,1.21 0 0 1 -0.98,0.33 z" /><path
               id="_路径_68"
               data-name="&lt;路径&gt;"
               class="cls-3"
               d="m 64.24,17.28 c 0,0 0,0.09 0,0.12 l -0.39,0.21 c -0.08,0 -0.08,0 -0.09,-0.08 -0.01,-0.08 0,-0.24 0,-0.36 0,-0.12 -0.07,-0.21 0.08,-0.23 0.15,-0.02 0.26,0 0.34,0.1 0.08,0.1 0.02,0.15 0.06,0.24 z" /><path
               id="_路径_69"
               data-name="&lt;路径&gt;"
               class="cls-3"
               d="m 64.24,18.94 c -0.13,0 -0.23,0.11 -0.29,0 -0.06,-0.11 0,-0.18 0.12,-0.23 l 0.37,-0.2 c 0,0 0.11,-0.1 0.16,0 0.05,0.1 0.08,0.14 0,0.22 a 1,1 0 0 1 -0.36,0.21 z" /><path
               id="_路径_70"
               data-name="&lt;路径&gt;"
               class="cls-3"
               d="m 62.07,19.71 c 0.19,-0.25 0.3,-0.49 0.59,-0.54 0.06,0 0.14,-0.08 0.17,0 0.03,0.08 0,0.17 -0.08,0.21 a 4.16,4.16 0 0 1 -0.68,0.33 z" /><path
               id="_路径_71"
               data-name="&lt;路径&gt;"
               class="cls-3"
               d="m 65.71,17.9 a 0.07,0.07 0 0 1 0.08,0 0.04,0 -90 0 0 0,0.08 c 0,0 -0.06,0 -0.07,-0.05 -0.01,-0.05 -0.04,-0.01 -0.01,-0.03 z" /><path
               id="_路径_72"
               data-name="&lt;路径&gt;"
               class="cls-3"
               d="m 63.1,21 0.06,0.05 c 0,0 -0.07,0 -0.1,0 -0.03,0 0.02,0.01 0.04,-0.05 z" /><path
               id="_路径_73"
               data-name="&lt;路径&gt;"
               class="cls-3"
               d="m 65.14,20 c 0,0 -0.06,0 -0.09,0 -0.03,0 0.07,-0.08 0.12,-0.06 0.05,0.02 -0.01,0.06 -0.03,0.06 z" /></g><g
             id="重"><path
               id="_路径_74"
               data-name="&lt;路径&gt;"
               class="cls-3"
               d="m 115,27.71 c -0.13,0.32 -0.17,0.66 -0.27,1 a 5.22,5.22 0 0 1 -0.5,0.58 c -0.46,0.34 -0.93,0.11 -1.38,0 a 2.8,2.8 0 0 0 -1.81,0 c -0.19,0.07 -0.2,0.11 0,0.21 0.38,0.24 0.77,0.47 1.16,0.69 a 2.3,2.3 0 0 0 1,0.33 0.66,0.66 0 0 1 0.34,0.11 0.74,0.74 0 0 1 0.2,0.17 6,6 0 0 1 0.19,1.39 0.68,0.68 0 0 1 -0.42,0.61 1.2,1.2 0 0 1 -0.92,0.11 6.05,6.05 0 0 0 -1.42,-0.26 A 4.26,4.26 0 0 0 109,33 c -0.15,0.08 -0.12,0.12 0,0.21 0.12,0.09 0.31,0.17 0.46,0.27 0.15,0.1 0.09,0.1 0.16,0.1 h 0.06 c 0.07,0 0.1,0.1 0.17,0.1 a 2.1,2.1 0 0 0 0.54,0.39 0.8,0.8 0 0 1 0.46,0.69 5.33,5.33 0 0 1 0,1.31 0.45,0.45 0 0 1 -0.12,0.14 1.58,1.58 0 0 1 -0.84,0.09 4.3,4.3 0 0 1 -1.65,-0.37 10.38,10.38 0 0 0 -1.65,-0.53 c -0.17,-0.06 -0.34,-0.14 -0.51,-0.22 a 6.61,6.61 0 0 1 -0.67,-0.58 v 0 0 c -0.11,-0.16 -0.3,-0.25 -0.42,-0.4 l -0.65,-0.55 c -0.12,-0.06 -0.19,-0.18 -0.31,-0.23 a 4.58,4.58 0 0 1 -0.36,-0.32 c -0.09,-0.09 -0.19,-0.22 -0.11,-0.35 a 0.34,0.34 0 0 1 0.38,-0.21 3.61,3.61 0 0 1 0.69,0.31 22.77,22.77 0 0 0 2.55,1 c 0.31,0.1 0.61,0.25 0.93,0.35 a 0.81,0.81 0 0 0 0.54,0.05 0.64,0.64 0 0 0 -0.26,-0.22 7.76,7.76 0 0 0 -1,-0.54 c -0.6,-0.3 -1.25,-0.48 -1.84,-0.82 l -1.4,-0.81 a 3.68,3.68 0 0 1 -0.62,-0.43 0.46,0.46 0 0 1 -0.16,-0.31 0.94,0.94 0 0 0 -0.28,-0.62 c 0,-0.07 -0.1,-0.09 -0.13,-0.15 a 0.24,0.24 0 0 1 0,-0.29 0.25,0.25 0 0 1 0.31,-0.11 8.58,8.58 0 0 1 1.72,0.67 7.67,7.67 0 0 1 1,0.51 c 0.17,0.1 0.31,0 0.32,-0.16 0.01,-0.16 0.09,-0.26 0.28,-0.21 a 0.55,0.55 0 0 0 0.17,0 c 0.13,0 0.32,0.1 0.38,-0.07 a 0.57,0.57 0 0 0 -0.32,-0.6 7.6,7.6 0 0 0 -1.11,-0.15 l -1.12,-0.1 c -0.15,0 -0.16,-0.06 -0.1,-0.18 a 1,1 0 0 1 0.81,-0.59 c 0.12,0 0.26,0 0.34,-0.14 0.08,-0.14 0,-0.16 -0.06,-0.19 a 1.81,1.81 0 0 0 -0.9,-0.08 c -0.07,0 -0.08,0.07 -0.1,0.12 -0.02,0.05 0,0.21 -0.06,0.32 a 1.16,1.16 0 0 1 -0.2,0.23 l -0.3,0.16 a 0.49,0.49 0 0 1 -0.71,-0.29 1.37,1.37 0 0 1 0,-0.91 0.46,0.46 0 0 1 0.31,-0.28 0.74,0.74 0 0 0 0.28,-0.15 c 0.16,-0.17 0.08,-0.36 0,-0.54 a 1.11,1.11 0 0 1 0,-0.43 c 0,-0.19 0.43,-0.29 0.61,-0.16 a 0.72,0.72 0 0 1 0.19,0.19 0.19,0.19 0 0 0 0.32,0.05 0.39,0.39 0 0 0 0.17,-0.47 c -0.15,-0.36 -0.07,-0.5 0.31,-0.54 a 1.88,1.88 0 0 1 0.51,0 0.33,0.33 0 0 1 0.31,0.32 0.28,0.28 0 0 0 0,0.08 c 0.12,0.14 0.13,0 0.17,-0.06 a 0.45,0.45 0 0 1 0.66,-0.2 2.08,2.08 0 0 0 0.73,0.13 0.6,0.6 0 0 1 0.46,0.28 1.64,1.64 0 0 1 0.11,0.56 c 0,0.18 0.1,0.2 0.23,0.19 h 1.21 c 0.48,0 1,-0.05 1.45,-0.1 a 13.16,13.16 0 0 0 1.32,-0.23 c 0.12,0 0.25,0 0.37,-0.07 0.12,-0.07 0.36,0 0.44,-0.23 0.08,-0.23 0.36,-0.17 0.49,-0.08 0.13,0.09 0.28,0.11 0.41,0.19 a 1.34,1.34 0 0 1 0.29,0.25 2.87,2.87 0 0 0 0.38,0.54 c -0.17,0.09 -0.04,0.11 -0.04,0.18 z" /><path
               id="_路径_75"
               data-name="&lt;路径&gt;"
               class="cls-3"
               d="m 100.84,37.59 a 9.75,9.75 0 0 0 -0.82,1.23 c -0.36,0.57 -0.7,1.16 -1.05,1.74 l -0.24,0.41 a 1.17,1.17 0 0 1 -1.09,0.55 3,3 0 0 1 -1.14,-0.19 0.46,0.46 0 0 1 -0.14,-0.12 1,1 0 0 1 -0.24,-0.58 8.12,8.12 0 0 0 -0.2,-1.2 c -0.07,-0.27 -0.1,-0.54 -0.16,-0.81 -0.06,-0.27 0.07,-0.31 0.12,-0.46 a 6,6 0 0 0 0.2,-1.37 2.93,2.93 0 0 0 -0.07,-1 c 0,-0.13 0.09,-0.13 0.13,-0.2 0.04,-0.07 0.15,0 0.21,0.11 a 5.89,5.89 0 0 1 0.55,1 c 0.11,0.31 0.19,0.63 0.3,0.94 a 5.8,5.8 0 0 1 0.29,0.86 c 0,0.12 0.19,0.14 0.3,0 0.11,-0.14 0.26,-0.3 0.38,-0.45 0.12,-0.15 0.11,-0.12 0.13,-0.2 l 0.13,-0.18 c 0,-0.06 0.1,-0.09 0.1,-0.16 l 0.12,-0.15 c 0,-0.07 0.11,-0.11 0.13,-0.19 l 0.19,-0.24 a 1.16,1.16 0 0 1 0.22,-0.26 l 0.3,-0.34 c 0.15,-0.12 0.15,-0.12 0.07,-0.2 L 98,35.34 C 97.84,35.26 97.67,35.19 97.51,35.1 a 1.69,1.69 0 0 0 -0.89,-0.22 c -0.28,0 -0.35,-0.06 -0.42,-0.33 a 12.18,12.18 0 0 1 -0.42,-2.18 c 0,-0.16 0.05,-0.22 0.17,-0.24 a 4.6,4.6 0 0 1 1,0 2.48,2.48 0 0 1 0.45,0 1.15,1.15 0 0 1 0.25,0.08 1.26,1.26 0 0 1 0.26,0.22 1.67,1.67 0 0 0 0.35,0.3 c 0.07,0 0.09,0.1 0.17,0.1 l 1.13,0.69 c 0.11,0.06 0.17,0.17 0.28,0.21 l 0.68,0.56 c 0.12,0.06 0.19,0.18 0.31,0.23 a 0.71,0.71 0 0 0 0.84,0 0.86,0.86 0 0 1 0.73,-0.12 0.36,0.36 0 0 0 0.27,0 4.69,4.69 0 0 1 -0.56,-1.11 0.92,0.92 0 0 1 0,-0.54 0.38,0.38 0 0 1 0.55,-0.29 c 0.14,0 0.28,0.12 0.42,0.18 a 1.88,1.88 0 0 1 0.32,0.27 0.38,0.38 0 0 0 0.08,0.31 5.7,5.7 0 0 1 0.53,0.9 3.28,3.28 0 0 0 0.46,0.57 0.56,0.56 0 0 1 0.15,0.43 c 0,0.14 0.07,0.29 0,0.43 a 0.74,0.74 0 0 1 -0.17,0.2 1.49,1.49 0 0 1 -0.7,0 1.51,1.51 0 0 0 -0.32,0 0.13,0.13 0 0 0 -0.13,0.12 c 0,0.07 0,0.1 0.1,0.13 0.55,0.24 1.06,0.56 1.59,0.84 a 0.84,0.84 0 0 1 0.5,1 0.82,0.82 0 0 0 0.11,0.54 c 0.12,0.22 0.09,0.29 -0.12,0.42 a 4.3,4.3 0 0 1 -0.45,0.23 0.56,0.56 0 0 1 -0.57,-0.13 1,1 0 0 1 -0.3,-0.31 1.33,1.33 0 0 0 -0.63,-0.46 12.27,12.27 0 0 1 -1.68,-1 0.48,0.48 0 0 0 -0.65,0 1.2,1.2 0 0 0 -0.36,0.46 z" /><path
               id="_路径_76"
               data-name="&lt;路径&gt;"
               class="cls-3"
               d="m 102,30.13 c -0.48,0.26 -1,0.38 -1.51,0.64 -0.15,-0.08 -0.25,-0.23 -0.4,-0.3 L 100,30.4 A 1,1 0 0 1 99.77,30.2 L 99.51,30 c -0.37,-0.34 -0.24,-0.65 0.15,-0.87 a 6.64,6.64 0 0 1 1.27,-0.34 2.17,2.17 0 0 1 0.88,-0.1 0.34,0.34 0 0 1 0.32,0.25 1.59,1.59 0 0 1 0,1.08 0.34,0.34 0 0 1 -0.13,0.11 z" /><path
               id="_路径_77"
               data-name="&lt;路径&gt;"
               class="cls-3"
               d="m 105.3,34.62 0.67,0.58 a 2.48,2.48 0 0 1 -0.67,-0.58 z" /><path
               id="_路径_78"
               data-name="&lt;路径&gt;"
               class="cls-3"
               d="m 114.21,29.28 0.5,-0.58 a 1.92,1.92 0 0 1 -0.5,0.58 z" /><path
               id="_路径_79"
               data-name="&lt;路径&gt;"
               class="cls-3"
               d="m 104.85,34.19 a 2.36,2.36 0 0 1 0.42,0.4 c -0.14,-0.14 -0.27,-0.22 -0.42,-0.4 z" /><path
               id="_路径_80"
               data-name="&lt;路径&gt;"
               class="cls-3"
               d="m 100.09,30.47 c 0.17,0.05 0.26,0.21 0.4,0.3 -0.17,-0.05 -0.27,-0.2 -0.4,-0.3 z" /><path
               id="_路径_81"
               data-name="&lt;路径&gt;"
               class="cls-3"
               d="m 100.84,37.59 a 0.86,0.86 0 0 1 0.3,-0.36 z" /><path
               id="_路径_82"
               data-name="&lt;路径&gt;"
               class="cls-3"
               d="m 103.34,32.93 -0.32,-0.27 a 0.63,0.63 0 0 1 0.32,0.27 z" /><path
               id="_路径_83"
               data-name="&lt;路径&gt;"
               class="cls-3"
               d="m 100.76,34.49 a 1,1 0 0 1 -0.31,-0.23 c 0.13,0.04 0.21,0.15 0.31,0.23 z" /><path
               id="_路径_84"
               data-name="&lt;路径&gt;"
               class="cls-3"
               d="m 103.89,33.41 a 1.07,1.07 0 0 1 0.31,0.23 c -0.13,-0.03 -0.2,-0.15 -0.31,-0.23 z" /><path
               id="_路径_85"
               data-name="&lt;路径&gt;"
               class="cls-3"
               d="m 114.46,27 -0.29,-0.25 a 0.5,0.5 0 0 1 0.29,0.25 z" /><path
               id="_路径_86"
               data-name="&lt;路径&gt;"
               class="cls-3"
               d="m 108.13,26.56 -0.26,-0.23 a 0.39,0.39 0 0 1 0.26,0.23 z" /><path
               id="_路径_87"
               data-name="&lt;路径&gt;"
               class="cls-3"
               d="m 108.25,34.05 a 0.53,0.53 0 0 1 0.26,0.22 z" /><path
               id="_路径_88"
               data-name="&lt;路径&gt;"
               class="cls-3"
               d="m 99.77,33.7 a 1.21,1.21 0 0 1 -0.28,-0.21 c 0.12,0.03 0.19,0.14 0.28,0.21 z" /><path
               id="_路径_89"
               data-name="&lt;路径&gt;"
               class="cls-3"
               d="m 97.84,32.39 -0.26,-0.22 a 0.44,0.44 0 0 1 0.26,0.22 z" /><path
               id="_路径_90"
               data-name="&lt;路径&gt;"
               class="cls-3"
               d="m 99.18,36.68 -0.22,0.26 a 0.43,0.43 0 0 1 0.22,-0.26 z" /><path
               id="_路径_91"
               data-name="&lt;路径&gt;"
               class="cls-3"
               d="m 99.55,36.13 c 0.1,0.06 0.1,0.08 -0.07,0.2 0.03,-0.06 0.15,-0.1 0.07,-0.2 z" /><path
               id="_路径_92"
               data-name="&lt;路径&gt;"
               class="cls-3"
               d="m 99.76,30.21 0.23,0.2 a 0.34,0.34 0 0 1 -0.23,-0.2 z" /><path
               id="_路径_93"
               data-name="&lt;路径&gt;"
               class="cls-3"
               d="m 104.07,29.37 0.2,-0.23 a 0.35,0.35 0 0 1 -0.2,0.23 z" /><path
               id="_路径_94"
               data-name="&lt;路径&gt;"
               class="cls-3"
               d="m 113.7,30.75 -0.2,-0.17 a 0.27,0.27 0 0 1 0.2,0.17 z" /><path
               id="_路径_95"
               data-name="&lt;路径&gt;"
               class="cls-3"
               d="m 106.28,26.35 c 0,0 0,0.23 -0.17,0.06 0.09,0.07 0.13,-0.01 0.17,-0.06 z" /><path
               id="_路径_96"
               data-name="&lt;路径&gt;"
               class="cls-3"
               d="m 104.41,35.78 0.17,-0.2 a 0.27,0.27 0 0 1 -0.17,0.2 z" /><path
               id="_路径_97"
               data-name="&lt;路径&gt;"
               class="cls-3"
               d="m 96.33,35.7 c -0.06,0 -0.1,-0.14 -0.21,-0.11 0.13,-0.07 0.17,0.03 0.21,0.11 z" /><path
               id="_路径_98"
               data-name="&lt;路径&gt;"
               class="cls-3"
               d="m 98.28,37.87 a 0.48,0.48 0 0 1 -0.13,0.2 c 0,-0.07 0.08,-0.14 0.13,-0.2 z" /><path
               id="_路径_99"
               data-name="&lt;路径&gt;"
               class="cls-3"
               d="m 98.77,37.18 a 0.43,0.43 0 0 1 -0.13,0.19 c 0,-0.09 0.08,-0.13 0.13,-0.19 z" /><path
               id="_路径_100"
               data-name="&lt;路径&gt;"
               class="cls-3"
               d="m 115,27.71 c 0,-0.06 -0.12,-0.08 -0.13,-0.16 -0.01,-0.08 0.13,0.07 0.13,0.16 z" /><path
               id="_路径_101"
               data-name="&lt;路径&gt;"
               class="cls-3"
               d="m 109.55,33.55 a 0.35,0.35 0 0 1 -0.16,-0.1 c 0.07,-0.01 0.11,0.06 0.16,0.1 z" /><path
               id="_路径_102"
               data-name="&lt;路径&gt;"
               class="cls-3"
               d="m 109.78,33.69 c -0.07,0 -0.12,-0.06 -0.17,-0.1 -0.05,-0.04 0.12,0.06 0.17,0.1 z" /><path
               id="_路径_103"
               data-name="&lt;路径&gt;"
               class="cls-3"
               d="m 98.36,32.79 a 0.32,0.32 0 0 1 -0.17,-0.1 c 0.08,0 0.12,0.07 0.17,0.1 z" /><path
               id="_路径_104"
               data-name="&lt;路径&gt;"
               class="cls-3"
               d="m 98.52,37.52 a 0.31,0.31 0 0 1 -0.1,0.16 c 0,-0.07 0.06,-0.1 0.1,-0.16 z" /><path
               id="_路径_105"
               data-name="&lt;路径&gt;"
               class="cls-3"
               d="m 102,30.13 0.12,-0.14 A 0.14,0.14 0 0 1 102,30.13 Z" /><path
               id="_路径_106"
               data-name="&lt;路径&gt;"
               class="cls-3"
               d="m 96.35,41.2 0.14,0.12 A 0.15,0.15 0 0 1 96.35,41.2 Z" /><path
               id="_路径_107"
               data-name="&lt;路径&gt;"
               class="cls-3"
               d="m 102.8,30.37 a 0.32,0.32 0 0 1 0.13,0.15 c 0,0 -0.12,-0.07 -0.13,-0.15 z" /><path
               id="_路径_108"
               data-name="&lt;路径&gt;"
               class="cls-3"
               d="m 110.61,36.22 0.12,-0.14 a 0.15,0.15 0 0 1 -0.12,0.14 z" /><path
               id="_路径_109"
               data-name="&lt;路径&gt;"
               class="cls-3"
               d="m 110,30.65 c 0.05,0.06 0.2,0.13 0.15,0.22 -0.05,0.09 -0.18,0 -0.28,0 h -0.13 c -0.07,0 -0.14,-0.06 -0.15,-0.13 -0.01,-0.07 0.07,-0.13 0.13,-0.18 0.06,-0.05 0.13,0 0.19,0.05 z" /></g></g></g><g
         id="_编组_-3"
         data-name="&lt;编组&gt;"
         transform="matrix(1.649141,0,0,1.649141,431.80383,49.803797)"
         clip-path="url(#clipPath4)"><text
           class="cls-1"
           transform="translate(10.15,93.44)"
           id="text1">CHONGQING UNIVERSIT<tspan
   class="cls-2"
   x="198.75999"
   y="0"
   id="tspan1">Y</tspan></text><g
           id="校名毛笔字-5"><g
             id="学-6"><path
               id="_路径_-2"
               data-name="&lt;路径&gt;"
               class="cls-3"
               d="m 31.28,49.9 a 16.59,16.59 0 0 0 -2,2.77 c -0.57,0.82 -1.13,1.63 -1.77,2.4 A 1.74,1.74 0 0 1 25.4,55.57 5.38,5.38 0 0 1 23,54.4 1.24,1.24 0 0 1 22.78,53 13.52,13.52 0 0 1 24.9,49.54 C 26,48.15 27,46.73 28.17,45.36 a 24.87,24.87 0 0 1 2.14,-2.49 0.94,0.94 0 0 0 0.21,-0.42 3.74,3.74 0 0 0 -1.07,0.5 c -2.15,1.24 -4.33,2.44 -6.37,3.86 a 38,38 0 0 0 -3.49,3 19.64,19.64 0 0 1 -3.87,3 8.6,8.6 0 0 1 -2,0.71 1.94,1.94 0 0 1 -1.6,-0.39 22,22 0 0 0 -5.31,-2.65 3.51,3.51 0 0 1 -1.68,-1.12 1.3,1.3 0 0 1 0,-0.64 3,3 0 0 1 2,-2.41 c 1.84,-0.87 3.74,-1.61 5.61,-2.41 q 2.28,-1 4.55,-2 4.31,-1.9 8.62,-3.83 c 2.51,-1.12 5,-2.24 7.52,-3.42 A 1.14,1.14 0 0 0 34,32.9 a 1.65,1.65 0 0 1 -0.41,-1.24 1.92,1.92 0 0 1 1.7,-1.53 c 0.59,-0.13 1.18,-0.24 1.76,-0.35 0.18,-0.09 0.38,0 0.55,-0.08 h 0.52 a 4.51,4.51 0 0 1 1.17,0 C 40.51,30 41,31 41.48,32 a 0.55,0.55 0 0 1 -0.11,0.63 1.48,1.48 0 0 0 -0.29,0.6 h 0.59 a 1.55,1.55 0 0 1 1.54,0.92 c 0.38,0.76 0.78,1.51 1.09,2.31 a 2.27,2.27 0 0 1 0,0.74 2.55,2.55 0 0 1 -1.37,1.36 25.69,25.69 0 0 1 -2.93,1.38 2.9,2.9 0 0 0 -1.62,2 c -0.13,0.34 0.18,0.22 0.35,0.16 a 6.72,6.72 0 0 0 2.75,-1.79 1.66,1.66 0 0 1 0.74,0 c 0.72,0.44 1.3,1.07 2.07,1.45 a 2.13,2.13 0 0 1 1.09,1.24 4.06,4.06 0 0 1 0,1.06 6.54,6.54 0 0 1 -1.44,2.4 c -0.75,0.94 -1.33,2 -2.11,2.94 a 15.51,15.51 0 0 1 -2.49,2.33 c -0.42,0.32 -1,0.17 -1.45,0.14 a 3.49,3.49 0 0 1 -1,-0.21 c -0.4,-0.15 -0.58,0 -0.75,0.34 A 25.84,25.84 0 0 0 35,55.33 c -0.31,0.86 -0.61,1.74 -0.95,2.59 a 0.49,0.49 0 0 0 0.19,0.68 3.66,3.66 0 0 1 1.68,2.48 4.75,4.75 0 0 1 0,1.17 c -0.22,1.13 -1.07,1.9 -1.63,2.83 -0.29,0.49 -0.63,0.94 -1,1.55 1.54,-0.63 2.85,-1.41 4.26,-1.93 0.29,-0.1 0.6,0 0.89,-0.08 h 0.29 a 1.47,1.47 0 0 1 0.63,0 c 0.16,0.15 0.32,0.29 0.47,0.44 a 1,1 0 0 1 0.17,1.36 12.54,12.54 0 0 1 -0.61,1.12 1.64,1.64 0 0 0 -0.12,1.56 c 0.08,0.2 0.09,0.41 0.15,0.62 a 0.8,0.8 0 0 1 -0.53,1.1 c -0.73,0.27 -1.46,0.53 -2.2,0.78 -1.91,0.65 -3.81,1.31 -5.72,1.94 -0.65,0.22 -1.33,0.37 -2,0.56 a 2.3,2.3 0 0 1 -0.74,0 c -0.67,-0.2 -1,-0.77 -1.36,-1.28 -0.36,-0.51 -0.48,-0.87 -0.8,-1.24 a 1.64,1.64 0 0 1 -0.1,-2 18.61,18.61 0 0 0 1.51,-3.3 c 0.42,-1.69 1,-3.34 1.5,-5 0.12,-0.38 0.15,-0.68 -0.43,-0.83 a 1.31,1.31 0 0 1 -1,-1.43 4.24,4.24 0 0 1 0,-1.06 c 0.12,-0.9 0.11,-0.92 1,-1.1 a 1.18,1.18 0 0 0 0.89,-0.93 C 30,54.27 30.56,52.62 31.2,51 a 6.27,6.27 0 0 0 0.2,-0.76 c 0.01,-0.13 0.16,-0.3 -0.12,-0.34 z" /><path
               id="_路径_2-9"
               data-name="&lt;路径&gt;"
               class="cls-3"
               d="m 38.45,12.29 a 4,4 0 0 1 1.78,-2.74 5,5 0 0 1 2,-1.16 1.62,1.62 0 0 1 0.63,0 4.28,4.28 0 0 1 0.91,0.65 1.21,1.21 0 0 1 0.38,1 5.36,5.36 0 0 0 0.38,2 1.42,1.42 0 0 0 0.43,0.59 4.14,4.14 0 0 1 1.44,1.75 3.64,3.64 0 0 1 -0.4,2.86 37.5,37.5 0 0 1 -4,5.61 21.74,21.74 0 0 1 -3,3.09 c -0.72,0.58 -1.5,1.08 -2.21,1.67 q -2,1.66 -3.85,3.4 a 27.48,27.48 0 0 0 -3.4,3.71 4.15,4.15 0 0 1 -1.87,1.56 1.51,1.51 0 0 1 -0.63,0 2.59,2.59 0 0 1 -1.31,-1.18 0.45,0.45 0 0 1 0,-0.45 30.27,30.27 0 0 1 3.51,-6.18 c 1.54,-2.18 3,-4.4 4.52,-6.61 1.15,-1.71 2.41,-3.34 3.62,-5 a 5,5 0 0 0 1,-2.62 c 0.12,-0.65 -0.02,-1.31 0.07,-1.95 z" /><path
               id="_路径_3-1"
               data-name="&lt;路径&gt;"
               class="cls-3"
               d="m 38.45,12.29 a 16.48,16.48 0 0 1 -0.08,1.94 8.41,8.41 0 0 1 0.08,-1.94 z" /><path
               id="_路径_4-2"
               data-name="&lt;路径&gt;"
               class="cls-3"
               d="m 39.33,29.67 h -1.17 a 1.7,1.7 0 0 1 1.17,0 z" /><path
               id="_路径_5-7"
               data-name="&lt;路径&gt;"
               class="cls-3"
               d="m 35.91,62.25 v -1.17 a 1.73,1.73 0 0 1 0,1.17 z" /><path
               id="_路径_6-0"
               data-name="&lt;路径&gt;"
               class="cls-3"
               d="M 45.37,44.09 V 43 a 1.42,1.42 0 0 1 0,1.09 z" /><path
               id="_路径_7-9"
               data-name="&lt;路径&gt;"
               class="cls-3"
               d="m 27.6,58 v 1 a 1.44,1.44 0 0 1 0,-1 z" /><path
               id="_路径_8-3"
               data-name="&lt;路径&gt;"
               class="cls-3"
               d="m 38.4,64.63 c -0.28,0.16 -0.59,0.05 -0.89,0.08 0.28,-0.19 0.59,-0.06 0.89,-0.08 z" /><path
               id="_路径_9-6"
               data-name="&lt;路径&gt;"
               class="cls-3"
               d="m 44.31,37.21 v -0.74 a 0.77,0.77 0 0 1 0,0.74 z" /><path
               id="_路径_10-0"
               data-name="&lt;路径&gt;"
               class="cls-3"
               d="M 28.27,74.1 H 29 a 0.78,0.78 0 0 1 -0.73,0 z" /><path
               id="_路径_11-6"
               data-name="&lt;路径&gt;"
               class="cls-3"
               d="m 42.23,40.32 h -0.74 a 0.71,0.71 0 0 1 0.74,0 z" /><path
               id="_路径_12-2"
               data-name="&lt;路径&gt;"
               class="cls-3"
               d="M 39.33,64.59 H 38.7 a 0.56,0.56 0 0 1 0.63,0 z" /><path
               id="_路径_13-6"
               data-name="&lt;路径&gt;"
               class="cls-3"
               d="m 42.88,8.4 h -0.63 a 0.57,0.57 0 0 1 0.63,0 z" /><path
               id="_路径_14-1"
               data-name="&lt;路径&gt;"
               class="cls-3"
               d="m 27.09,36.26 h 0.63 a 0.56,0.56 0 0 1 -0.63,0 z" /><path
               id="_路径_15-8"
               data-name="&lt;路径&gt;"
               class="cls-3"
               d="m 5.15,48.72 v 0.64 a 0.54,0.54 0 0 1 0,-0.64 z" /><path
               id="_路径_16-7"
               data-name="&lt;路径&gt;"
               class="cls-3"
               d="m 37.63,29.7 a 1,1 0 0 1 -0.55,0.08 c 0.17,-0.15 0.37,-0.07 0.55,-0.08 z" /><path
               id="_路径_17-9"
               data-name="&lt;路径&gt;"
               class="cls-3"
               d="m 31.28,49.9 c 0.37,0 0.14,0.21 0.11,0.35 C 31.37,50.12 31.41,50 31.28,49.9 Z" /></g><g
             id="大-2"><path
               id="_路径_18-0"
               data-name="&lt;路径&gt;"
               class="cls-3"
               d="m 145.42,43.44 v 0.53 c -0.11,0.17 0,0.37 -0.08,0.54 v 0.52 c -0.11,0.17 0,0.37 -0.08,0.55 v 0.53 c -0.11,0.17 0,0.37 -0.08,0.54 -0.06,0.35 0.24,0.25 0.34,0.21 1.43,-0.51 3,-0.58 4.35,-1.26 a 1.69,1.69 0 0 0 0.62,-0.48 0.73,0.73 0 0 0 0,-1 3.21,3.21 0 0 1 -0.86,-2.42 c 0,-0.49 0.33,-0.74 0.69,-0.43 a 2.92,2.92 0 0 0 2.61,0.48 1.24,1.24 0 0 1 1,0.21 c 0.45,0.33 1,0.17 1.49,0.32 a 2.19,2.19 0 0 1 1.58,1.3 6.7,6.7 0 0 1 0,1.28 4.44,4.44 0 0 1 -2.48,3.43 34.67,34.67 0 0 1 -7.74,3.13 c -0.58,0.15 -1.15,0.36 -1.71,0.56 -0.14,0 -0.32,0.09 -0.36,0.28 -0.04,0.19 0,0.37 -0.09,0.54 a 4.22,4.22 0 0 0 1.23,1.82 32.23,32.23 0 0 1 4.05,5.61 9.72,9.72 0 0 0 5.13,4.5 11.65,11.65 0 0 0 3.29,0.76 c 0.21,0.1 0.45,0 0.67,0.07 h 0.52 c 0.17,0.11 0.38,0 0.55,0.09 1,0.46 1,0.64 0.29,1.49 a 8,8 0 0 1 -2.51,2.25 l -0.15,0.05 c -0.17,0.08 -0.37,0 -0.54,0.08 l -1.4,0.14 a 4.69,4.69 0 0 1 -1.06,0 8.48,8.48 0 0 0 -3.24,0.21 1.29,1.29 0 0 1 -0.52,0 1.41,1.41 0 0 1 -1.11,-0.9 67.5,67.5 0 0 1 -3.1,-6.55 38.24,38.24 0 0 0 -3.16,-6.63 5.72,5.72 0 0 0 -0.29,1.29 9.7,9.7 0 0 1 -2.35,4.23 9.69,9.69 0 0 1 -3.28,2.76 17.46,17.46 0 0 1 -3.29,1 22.62,22.62 0 0 1 -2.86,0.48 23.22,23.22 0 0 1 -2.46,0 3.52,3.52 0 0 1 -2.59,-1.17 2.86,2.86 0 0 1 0.06,-2.7 0.2,0.2 0 0 1 0.28,-0.05 3.4,3.4 0 0 0 3.05,0.16 17.2,17.2 0 0 0 4.79,-2.1 9.71,9.71 0 0 0 3.38,-4.52 c 0.25,-0.63 0.22,-0.65 -0.45,-0.56 a 2.4,2.4 0 0 0 -1.67,1 7.35,7.35 0 0 1 -2.08,1.72 c -0.24,0.16 -0.41,0 -0.56,-0.16 a 5.31,5.31 0 0 1 -0.69,-0.68 3.08,3.08 0 0 0 -1.6,-1.06 0.77,0.77 0 0 1 -0.56,-0.7 4,4 0 0 1 1.22,-3.1 1.2,1.2 0 0 1 0.51,-0.27 c 1.93,-0.61 3.86,-1.19 5.77,-1.84 A 3,3 0 0 0 139.94,47 c 0.29,-1.51 0.48,-3 0.73,-4.55 0.25,-1.55 0.36,-2.77 0.55,-4.16 0.19,-1.39 0.44,-2.9 0.64,-4.36 0.13,-0.94 0.22,-1.88 0.32,-2.81 0.11,-0.17 0,-0.36 0.08,-0.54 0.31,-0.83 -0.29,-1.12 -0.83,-1.49 -0.7,-0.48 -0.71,-0.86 -0.14,-1.44 0.21,-0.21 0.39,-0.47 0.6,-0.67 a 5.56,5.56 0 0 1 3.65,-1.65 0.64,0.64 0 0 1 0.67,0.36 14.49,14.49 0 0 0 2,2.56 2.34,2.34 0 0 1 0,3.19 9.83,9.83 0 0 0 -2,4.91 32.22,32.22 0 0 0 -0.55,4.53 c -0.11,0.17 0,0.37 -0.08,0.55 a 6.15,6.15 0 0 0 -0.13,1.5 c -0.06,0.14 0.04,0.34 -0.03,0.51 z" /><path
               id="_路径_19-2"
               data-name="&lt;路径&gt;"
               class="cls-3"
               d="m 129,65.61 h 2.46 a 7.46,7.46 0 0 1 -2.46,0 z" /><path
               id="_路径_20-3"
               data-name="&lt;路径&gt;"
               class="cls-3"
               d="m 156.92,44.84 v -1.28 a 2.11,2.11 0 0 1 0,1.28 z" /><path
               id="_路径_21-7"
               data-name="&lt;路径&gt;"
               class="cls-3"
               d="m 154.64,69.7 h 1.06 a 1.49,1.49 0 0 1 -1.06,0 z" /><path
               id="_路径_22-5"
               data-name="&lt;路径&gt;"
               class="cls-3"
               d="m 158.93,65.56 a 1.22,1.22 0 0 1 -0.67,-0.07 c 0.23,0.01 0.46,-0.09 0.67,0.07 z" /><path
               id="_路径_23-9"
               data-name="&lt;路径&gt;"
               class="cls-3"
               d="m 142.25,30.56 a 0.83,0.83 0 0 1 -0.08,0.54 c 0.02,-0.18 -0.06,-0.38 0.08,-0.54 z" /><path
               id="_路径_24-2"
               data-name="&lt;路径&gt;"
               class="cls-3"
               d="m 145.31,44.52 a 0.89,0.89 0 0 1 0.08,-0.54 c -0.02,0.17 0.07,0.37 -0.08,0.54 z" /><path
               id="_路径_25-2"
               data-name="&lt;路径&gt;"
               class="cls-3"
               d="m 145.2,45.59 a 1,1 0 0 1 0.08,-0.55 c -0.01,0.19 0.07,0.38 -0.08,0.55 z" /><path
               id="_路径_26-8"
               data-name="&lt;路径&gt;"
               class="cls-3"
               d="m 160,65.68 a 1.08,1.08 0 0 1 -0.55,-0.09 c 0.19,0.01 0.39,-0.07 0.55,0.09 z" /><path
               id="_路径_27-9"
               data-name="&lt;路径&gt;"
               class="cls-3"
               d="m 145.1,46.66 a 0.9,0.9 0 0 1 0.08,-0.54 c -0.02,0.18 0.06,0.38 -0.08,0.54 z" /><path
               id="_路径_28-7"
               data-name="&lt;路径&gt;"
               class="cls-3"
               d="m 144.55,52.79 a 0.88,0.88 0 0 1 0.09,-0.54 c -0.02,0.18 0.07,0.38 -0.09,0.54 z" /><path
               id="_路径_29-3"
               data-name="&lt;路径&gt;"
               class="cls-3"
               d="m 145.42,43.44 a 0.9,0.9 0 0 1 0.08,-0.54 c -0.02,0.18 0.06,0.38 -0.08,0.54 z" /><path
               id="_路径_30-6"
               data-name="&lt;路径&gt;"
               class="cls-3"
               d="m 145.63,41.4 a 0.92,0.92 0 0 1 0.08,-0.55 c -0.01,0.15 0.07,0.39 -0.08,0.55 z" /><path
               id="_路径_31-1"
               data-name="&lt;路径&gt;"
               class="cls-3"
               d="m 150.88,69.91 h 0.52 a 0.43,0.43 0 0 1 -0.52,0 z" /><path
               id="_路径_32-2"
               data-name="&lt;路径&gt;"
               class="cls-3"
               d="m 157.1,69.56 a 0.8,0.8 0 0 1 0.54,-0.08 c -0.16,0.14 -0.36,0.06 -0.54,0.08 z" /></g><g
             id="庆-9"><path
               id="_路径_33-3"
               data-name="&lt;路径&gt;"
               class="cls-3"
               d="m 89.85,43.69 a 0.59,0.59 0 0 0 -0.77,0.23 c -1.29,1.59 -2.35,3.33 -3.57,5 -2,2.76 -4.12,5.48 -6.17,8.23 C 77.91,59 76.52,61 75.06,62.83 a 61,61 0 0 0 -4.13,5.49 c -0.75,1.22 -1.4,2.51 -2.18,3.71 a 4.82,4.82 0 0 1 -2.4,2.1 2.39,2.39 0 0 1 -3.25,-2.13 7.8,7.8 0 0 1 0,-1.29 c 0.11,-0.17 0,-0.38 0.08,-0.55 a 9.49,9.49 0 0 1 2.39,-5.12 c 1.3,-1.35 2.72,-2.57 4,-3.91 a 45.74,45.74 0 0 0 3.2,-3.68 c 0.86,-1.1 1.76,-2.16 2.64,-3.24 0.88,-1.08 1.7,-2.12 2.61,-3.12 1.23,-1.34 2.31,-2.8 3.5,-4.18 1.19,-1.38 2.13,-2.54 3.14,-3.84 0.78,-1 1.71,-1.85 2.58,-2.76 L 91,36.41 c 1.17,-1.24 2.34,-2.48 3.51,-3.72 0.6,-0.63 1.18,-1.28 1.8,-1.89 0.15,-0.14 0.39,-0.33 0.2,-0.57 -0.19,-0.24 -0.38,0 -0.57,0 a 81.69,81.69 0 0 1 -10.1,3.15 5.53,5.53 0 0 1 -3.38,-0.18 3.18,3.18 0 0 1 -1.85,-1.88 3.7,3.7 0 0 0 -1.36,-1.51 0.89,0.89 0 0 1 -0.3,-1.09 1.78,1.78 0 0 1 1.37,-1.33 8.22,8.22 0 0 1 2.09,-0.35 c 0.78,-0.07 1.56,0 2.34,0 a 1.26,1.26 0 0 0 0.58,0 22.36,22.36 0 0 0 5.54,-0.91 c 0.6,-0.14 1.18,-0.36 1.78,-0.53 0.27,-0.08 0.38,-0.16 0.13,-0.41 -0.66,-0.66 -1.4,-1.23 -2.11,-1.83 a 5.37,5.37 0 0 1 -2.27,-3.42 5.66,5.66 0 0 1 0,-1.17 1.66,1.66 0 0 1 1,-1.22 3.81,3.81 0 0 1 1,0 19.41,19.41 0 0 1 2.92,1.28 20,20 0 0 0 2.93,1.25 7.39,7.39 0 0 0 2.35,0.38 2.39,2.39 0 0 1 1.52,0.55 8.81,8.81 0 0 0 1.22,0.84 1.66,1.66 0 0 1 0.87,1.26 c 0.07,0.28 0.06,0.66 0.39,0.65 a 0.89,0.89 0 0 0 0.78,-0.62 2.07,2.07 0 0 1 0.37,-0.79 1.7,1.7 0 0 1 2.35,-0.19 13.43,13.43 0 0 0 1.45,1.26 2.38,2.38 0 0 1 0.79,1.47 c 0.13,0.53 0.24,1.07 0.35,1.61 0.07,0.18 0,0.38 0.08,0.56 0.14,1.17 -0.81,1.47 -1.55,1.91 a 22,22 0 0 1 -3.22,1.3 c -1,0.38 -1.78,1.07 -2.71,1.54 -0.61,0.31 -1.2,0.68 -1.79,1 a 1.57,1.57 0 0 0 -0.26,0.18 c -0.15,0.13 -0.33,0.32 -0.25,0.49 0.08,0.17 0.34,0.22 0.57,0.11 a 1.31,1.31 0 0 1 0.37,-0.06 c 0.18,-0.08 0.38,0 0.56,-0.08 a 3.92,3.92 0 0 0 1.59,-0.36 1.43,1.43 0 0 1 0.52,0 c 0.89,0.58 0.92,0.72 0.57,1.71 -0.12,0.34 -0.42,0.76 -0.18,1 0.24,0.24 0.64,-0.05 1,-0.11 l 0.37,-0.06 a 2.49,2.49 0 0 1 0.74,0 1.94,1.94 0 0 1 1.32,1.26 c 0.25,0.72 0.9,1.23 1.07,2 0.08,0.18 0,0.38 0.08,0.55 a 1.18,1.18 0 0 1 -0.66,1.23 23.75,23.75 0 0 1 -3,1.56 10.83,10.83 0 0 0 -1.18,0.69 0.34,0.34 0 0 0 -0.18,0.41 c 0.08,0.24 0.25,0.1 0.4,0.09 a 3.26,3.26 0 0 0 0.88,-0.16 2.44,2.44 0 0 1 0.85,0 c 0.39,0.27 0.79,0.53 1.17,0.81 a 3.79,3.79 0 0 1 1.72,2.93 c -0.12,0.28 0,0.58 -0.07,0.86 -0.07,0.28 -0.14,0.83 -0.26,1.23 a 1.37,1.37 0 0 1 -1.17,0.94 c -0.85,0.07 -1.7,0 -2.55,0 a 1.24,1.24 0 0 0 -0.58,0 2.55,2.55 0 0 0 -1.51,0.82 c -0.17,0.19 -0.31,0.37 0.12,0.52 a 1.1,1.1 0 0 1 0.34,1.71 4.6,4.6 0 0 0 -0.38,0.45 c -0.45,0.6 -0.43,0.57 0.26,0.92 a 5.48,5.48 0 0 1 2.38,2.42 1,1 0 0 1 -0.06,1.09 52.54,52.54 0 0 1 -2.81,4.52 c -0.13,0.17 -0.17,0.3 0,0.47 a 6.6,6.6 0 0 0 2.4,2 1.07,1.07 0 0 0 0.37,0 c 0.21,0.1 0.45,0 0.67,0.07 a 0.59,0.59 0 0 1 0.44,0.69 c -0.11,1.7 -0.5,2.63 -2.59,3.34 a 6.4,6.4 0 0 1 -1.28,0 3.67,3.67 0 0 1 -2.64,-1.34 c -0.27,-0.31 -0.33,-0.76 -0.64,-1.07 -0.31,-0.31 -0.27,-0.18 -0.42,0 a 4.82,4.82 0 0 1 -1,1.45 2.13,2.13 0 0 1 -0.75,0.37 2.85,2.85 0 0 1 -0.85,0 h -0.43 c -0.17,-0.12 -0.37,0 -0.54,-0.09 a 13.25,13.25 0 0 1 -2.6,-0.56 c -0.76,-0.23 -1,-0.68 -0.65,-1.39 A 3.17,3.17 0 0 1 91.78,65 0.66,0.66 0 0 1 92.33,64.87 1.64,1.64 0 0 0 94,64.42 c 0.39,-0.32 0.83,-0.57 1.23,-0.88 a 1.22,1.22 0 0 0 0.5,-0.85 1.09,1.09 0 0 0 0,-0.69 3,3 0 0 1 -0.07,-1.6 1,1 0 0 1 0.93,-0.75 c 0.18,-0.08 0.38,0 0.56,-0.08 1,0.09 1.49,-0.45 1.5,-1.13 A 0.43,0.43 0 0 0 98,58 a 18.24,18.24 0 0 0 -1.61,1 3.19,3.19 0 0 1 -2.22,0.89 c -0.86,-0.11 -1.11,0.34 -1.48,0.89 A 61,61 0 0 1 88,67.08 c -0.57,0.63 -0.94,1.42 -1.5,2.07 a 4.57,4.57 0 0 1 -1.5,1.18 1.77,1.77 0 0 1 -0.74,0 2.84,2.84 0 0 1 -2.44,-2.6 2,2 0 0 1 0.85,-1.73 c 0.55,-0.46 1,-1 1.45,-1.53 0.45,-0.53 0.82,-1 1.24,-1.44 0.93,-1.05 1.86,-2.12 2.73,-3.22 0.58,-0.74 1.25,-1.4 1.86,-2.11 a 48.17,48.17 0 0 0 3.35,-4.09 c 0.34,-0.5 0.29,-0.71 -0.23,-1.07 L 92.29,52 C 91.48,51.45 91.38,51.14 91.8,50.28 92.05,49.76 92.16,49.02 93.1,49.4 92.95,48.95 92.58,48.83 92.32,48.63 91.75,48.2 91.1,47.85 91.11,46.97 a 1.37,1.37 0 0 0 -0.32,-0.76 1.74,1.74 0 0 1 0,-2.45 c 0,-0.19 -0.11,-0.14 -0.21,-0.08 h -0.11 a 1.67,1.67 0 0 1 -0.62,0.01 z" /><path
               id="_路径_34-1"
               data-name="&lt;路径&gt;"
               class="cls-3"
               d="m 90.19,53.75 a 5.33,5.33 0 0 1 -1.07,2.94 2.13,2.13 0 0 1 -1.51,0.73 7.65,7.65 0 0 1 -2.73,-0.11 1.71,1.71 0 0 1 -1.32,-2.24 7.81,7.81 0 0 1 1,-1.66 5,5 0 0 1 1.67,-1.48 12.72,12.72 0 0 1 2.29,-1.64 c 0.32,-0.13 0.62,-0.31 0.93,-0.05 a 1,1 0 0 1 0.46,1.06 1.69,1.69 0 0 0 0.27,1.4 5,5 0 0 1 0.01,1.05 z" /><path
               id="_路径_35-9"
               data-name="&lt;路径&gt;"
               class="cls-3"
               d="m 102.93,50.1 a 7.63,7.63 0 0 1 1.9,-0.08 c 0.41,0 0.82,0 1.23,0 a 7.76,7.76 0 0 1 -1.9,0.08 c -0.41,0.03 -0.82,0.01 -1.23,0 z" /><path
               id="_路径_36-4"
               data-name="&lt;路径&gt;"
               class="cls-3"
               d="M 85.34,27 A 23.77,23.77 0 0 1 82.42,27.08 12.68,12.68 0 0 1 84.76,27 c 0.24,0 0.39,0 0.58,0 z" /><path
               id="_路径_37-7"
               data-name="&lt;路径&gt;"
               class="cls-3"
               d="m 101.24,69.15 h 1.28 a 2.09,2.09 0 0 1 -1.28,0 z" /><path
               id="_路径_38-8"
               data-name="&lt;路径&gt;"
               class="cls-3"
               d="m 88.41,18.74 v 1.17 a 1.81,1.81 0 0 1 0,-1.17 z" /><path
               id="_路径_39-4"
               data-name="&lt;路径&gt;"
               class="cls-3"
               d="M 90.19,53.75 V 52.7 a 1.51,1.51 0 0 1 0,1.05 z" /><path
               id="_路径_40-5"
               data-name="&lt;路径&gt;"
               class="cls-3"
               d="m 90.37,17.52 h -1 a 1.25,1.25 0 0 1 1,0 z" /><path
               id="_路径_41-0"
               data-name="&lt;路径&gt;"
               class="cls-3"
               d="m 104.66,43.33 h -0.85 a 0.92,0.92 0 0 1 0.85,0 z" /><path
               id="_路径_42-3"
               data-name="&lt;路径&gt;"
               class="cls-3"
               d="m 94.89,68.61 h 0.85 a 1,1 0 0 1 -0.85,0 z" /><path
               id="_路径_43-6"
               data-name="&lt;路径&gt;"
               class="cls-3"
               d="m 107.49,47.84 a 2,2 0 0 1 0.07,-0.86 c -0.02,0.29 0.09,0.59 -0.07,0.86 z" /><path
               id="_路径_44-1"
               data-name="&lt;路径&gt;"
               class="cls-3"
               d="m 105.09,35.68 h -0.74 a 0.79,0.79 0 0 1 0.74,0 z" /><path
               id="_路径_45-0"
               data-name="&lt;路径&gt;"
               class="cls-3"
               d="M 84.26,70.33 H 85 a 0.73,0.73 0 0 1 -0.74,0 z" /><path
               id="_路径_46-6"
               data-name="&lt;路径&gt;"
               class="cls-3"
               d="m 89.85,43.69 h 0.63 a 0.57,0.57 0 0 1 -0.63,0 z" /><path
               id="_路径_47-3"
               data-name="&lt;路径&gt;"
               class="cls-3"
               d="m 95.76,62 a 0.69,0.69 0 0 1 0,0.69 z" /><path
               id="_路径_48-2"
               data-name="&lt;路径&gt;"
               class="cls-3"
               d="m 104.66,65.13 a 1.32,1.32 0 0 1 -0.67,-0.07 c 0.23,0.01 0.46,-0.06 0.67,0.07 z" /><path
               id="_路径_49-0"
               data-name="&lt;路径&gt;"
               class="cls-3"
               d="m 108.74,27 a 1.07,1.07 0 0 1 -0.08,-0.56 c 0.15,0.2 0.07,0.4 0.08,0.56 z" /><path
               id="_路径_50-6"
               data-name="&lt;路径&gt;"
               class="cls-3"
               d="m 102.62,33.1 h -0.52 a 0.44,0.44 0 0 1 0.52,0 z" /><path
               id="_路径_51-1"
               data-name="&lt;路径&gt;"
               class="cls-3"
               d="m 100.5,33.46 a 0.9,0.9 0 0 1 -0.56,0.08 c 0.17,-0.15 0.38,-0.07 0.56,-0.08 z" /><path
               id="_路径_52-5"
               data-name="&lt;路径&gt;"
               class="cls-3"
               d="m 90.59,43.66 c 0.08,-0.08 0.18,-0.18 0.29,-0.11 0.11,0.07 0,0.15 -0.08,0.18 z" /><path
               id="_路径_53-5"
               data-name="&lt;路径&gt;"
               class="cls-3"
               d="m 93.93,68.5 a 0.88,0.88 0 0 1 0.54,0.09 c -0.18,-0.02 -0.38,0.06 -0.54,-0.09 z" /><path
               id="_路径_54-4"
               data-name="&lt;路径&gt;"
               class="cls-3"
               d="m 97.17,59.57 a 1.15,1.15 0 0 1 -0.56,0.08 C 96.78,59.5 97,59.58 97.17,59.57 Z" /><path
               id="_路径_55-7"
               data-name="&lt;路径&gt;"
               class="cls-3"
               d="m 63.17,70.21 a 1,1 0 0 1 -0.08,0.55 C 63.1,70.57 63,70.37 63.17,70.21 Z" /><path
               id="_路径_56-6"
               data-name="&lt;路径&gt;"
               class="cls-3"
               d="m 107.56,39.49 a 1,1 0 0 1 -0.08,-0.55 c 0.15,0.16 0.07,0.36 0.08,0.55 z" /><path
               id="_路径_57-5"
               data-name="&lt;路径&gt;"
               class="cls-3"
               d="m 99.83,44.09 a 20.81,20.81 0 0 0 -2,2 c -0.21,0.28 -0.44,0.22 -0.71,0.13 a 28,28 0 0 0 -3.5,-0.9 c -0.07,0 -0.18,-0.07 -0.11,-0.19 1.71,-0.68 3.55,-0.7 5.31,-1.08 0.26,-0.06 0.53,-0.08 0.79,-0.12 0.26,-0.04 0.23,-0.04 0.22,0.16 z" /><path
               id="_路径_58-6"
               data-name="&lt;路径&gt;"
               class="cls-3"
               d="m 98,47.66 1.25,-0.34 a 4.34,4.34 0 0 0 2.11,-1.21 0.7,0.7 0 0 1 0.67,-0.22 7.94,7.94 0 0 1 1.27,0.2 0.39,0.39 0 0 1 0.32,0.46 c 0,0.29 -0.21,0.24 -0.37,0.26 a 4.46,4.46 0 0 0 -2.33,0.83 3.38,3.38 0 0 1 -2.92,0.02 z" /><path
               id="_路径_59-9"
               data-name="&lt;路径&gt;"
               class="cls-3"
               d="m 99.76,36.13 c 0,0.12 0,0.27 -0.15,0.31 -0.4,0.08 -0.81,0.16 -1.21,0.22 -0.24,0 -0.2,-0.14 -0.18,-0.28 0.07,-0.33 0.13,-0.67 0.22,-1 0.09,-0.33 0,-0.62 0.41,-0.53 0.41,0.09 0.72,0.11 0.81,0.55 0.05,0.24 0.07,0.47 0.1,0.73 z" /><path
               id="_路径_60-3"
               data-name="&lt;路径&gt;"
               class="cls-3"
               d="m 98.35,40.56 c -0.39,0 -0.7,0.1 -0.74,-0.35 -0.04,-0.45 0.23,-0.45 0.52,-0.5 0.29,-0.05 0.77,-0.16 1.15,-0.21 0.14,0 0.38,-0.18 0.42,0.12 0.04,0.3 0.09,0.44 -0.21,0.57 a 2.91,2.91 0 0 1 -1.14,0.37 z" /><path
               id="_路径_61-7"
               data-name="&lt;路径&gt;"
               class="cls-3"
               d="m 91.9,40.75 c 0.7,-0.49 1.21,-1 2,-0.91 0.17,0 0.44,-0.09 0.42,0.24 -0.02,0.33 -0.09,0.46 -0.39,0.48 a 11.61,11.61 0 0 1 -2.03,0.19 z" /><path
               id="_路径_62-4"
               data-name="&lt;路径&gt;"
               class="cls-3"
               d="m 103.14,39.07 a 0.21,0.21 0 0 1 0.18,0.17 c 0,0.1 0,0.19 -0.13,0.18 -0.13,-0.01 -0.14,-0.11 -0.14,-0.2 0,-0.09 -0.05,-0.14 0.09,-0.15 z" /><path
               id="_路径_63-5"
               data-name="&lt;路径&gt;"
               class="cls-3"
               d="m 93.5,45.18 0.11,0.19 c -0.1,0 -0.23,0 -0.27,-0.07 -0.04,-0.07 0.08,-0.12 0.16,-0.12 z" /><path
               id="_路径_64-2"
               data-name="&lt;路径&gt;"
               class="cls-3"
               d="m 99.83,44.09 c 0,-0.11 -0.14,-0.09 -0.22,-0.12 0.11,-0.09 0.25,-0.15 0.36,0 0.11,0.15 -0.05,0.1 -0.14,0.12 z" /></g><g
             id="重-5"><path
               id="_路径_65-4"
               data-name="&lt;路径&gt;"
               class="cls-3"
               d="m 213.52,12.4 c 0.29,0.91 0.84,1.7 1.21,2.58 a 14.58,14.58 0 0 1 0,2.14 c -0.37,1.57 -1.78,1.93 -3,2.45 a 7.82,7.82 0 0 0 -3.87,3.26 c -0.27,0.48 -0.23,0.59 0.31,0.51 1.25,-0.17 2.49,-0.4 3.72,-0.64 a 6.42,6.42 0 0 0 2.76,-1.13 1.84,1.84 0 0 1 0.91,-0.39 2.05,2.05 0 0 1 0.74,0 16.79,16.79 0 0 1 2.94,2.62 1.9,1.9 0 0 1 0.2,2.06 3.35,3.35 0 0 1 -1.76,1.9 16.92,16.92 0 0 0 -3.48,2 c -1.58,1.34 -3.2,2.65 -4,4.7 -0.17,0.45 0,0.48 0.33,0.48 0.33,0 1,-0.2 1.46,-0.25 0.17,-0.07 0.37,0 0.54,-0.08 h 0.21 c 0.17,-0.08 0.38,0 0.55,-0.08 a 5.88,5.88 0 0 0 1.84,-0.16 2.24,2.24 0 0 1 2.23,0.64 14.9,14.9 0 0 1 2.29,2.85 1.25,1.25 0 0 1 0,0.52 4.42,4.42 0 0 1 -1.65,1.74 12,12 0 0 1 -4.19,2.21 c -1.65,0.32 -2.94,1.32 -4.46,1.87 -0.48,0.18 -1,0.31 -1.47,0.45 a 18.46,18.46 0 0 1 -2.46,0 h -0.05 -0.05 c -0.53,-0.14 -1.08,0 -1.61,-0.09 h -2.37 c -0.36,0.09 -0.73,0 -1.09,0.08 a 12.79,12.79 0 0 1 -1.34,0 c -0.36,0 -0.79,-0.12 -0.86,-0.55 a 0.94,0.94 0 0 1 0.44,-1.14 10.1,10.1 0 0 1 2,-0.59 63.62,63.62 0 0 0 7.27,-2.45 c 0.85,-0.36 1.75,-0.59 2.61,-0.93 a 2.26,2.26 0 0 0 1.24,-0.87 1.78,1.78 0 0 0 -0.94,0 21.68,21.68 0 0 0 -3.16,0.71 c -1.82,0.44 -3.54,1.25 -5.39,1.59 l -4.46,0.82 a 10.3,10.3 0 0 1 -2.1,0.22 1.29,1.29 0 0 1 -0.9,-0.37 2.63,2.63 0 0 0 -1.71,-0.81 c -0.17,-0.12 -0.37,0 -0.54,-0.09 a 0.66,0.66 0 0 1 -0.63,-0.53 c -0.07,-0.38 0.12,-0.6 0.47,-0.79 a 24,24 0 0 1 4.86,-1.7 21.44,21.44 0 0 1 3,-0.65 c 0.55,-0.08 0.74,-0.47 0.39,-0.9 -0.35,-0.43 -0.28,-0.73 0.22,-1 a 1.52,1.52 0 0 0 0.37,-0.28 c 0.27,-0.25 0.86,-0.38 0.68,-0.82 A 1.6,1.6 0 0 0 200,32.8 a 21.25,21.25 0 0 0 -2.63,1.7 c -0.86,0.59 -1.72,1.19 -2.56,1.82 -0.33,0.25 -0.45,0.17 -0.54,-0.2 a 2.72,2.72 0 0 1 0.65,-2.74 c 0.23,-0.23 0.58,-0.44 0.48,-0.91 -0.07,-0.32 -0.23,-0.39 -0.48,-0.3 a 5.06,5.06 0 0 0 -2,1.46 c -0.14,0.15 -0.05,0.3 0,0.44 0.05,0.14 0.29,0.53 0.44,0.79 a 3.23,3.23 0 0 1 0,0.84 c -0.12,0.29 -0.22,0.6 -0.36,0.88 a 1.38,1.38 0 0 1 -2,0.66 3.84,3.84 0 0 1 -1.74,-1.86 1.28,1.28 0 0 1 0.16,-1.15 2.07,2.07 0 0 0 0.33,-0.83 c 0,-0.65 -0.49,-0.92 -0.87,-1.24 a 3.1,3.1 0 0 1 -0.77,-0.92 c -0.25,-0.47 0.39,-1.4 1,-1.44 a 2,2 0 0 1 0.74,0.07 0.54,0.54 0 0 0 0.77,-0.47 1.08,1.08 0 0 0 -0.5,-1.29 c -1,-0.49 -1.07,-0.94 -0.32,-1.71 a 5.24,5.24 0 0 1 1.1,-0.9 0.91,0.91 0 0 1 1.25,0.11 0.77,0.77 0 0 0 0.23,0.11 c 0.5,0.08 0.28,-0.24 0.25,-0.45 a 1.27,1.27 0 0 1 1,-1.61 5.82,5.82 0 0 0 1.78,-1.05 1.69,1.69 0 0 1 1.47,-0.24 4.59,4.59 0 0 1 1.24,1 c 0.32,0.4 0.57,0.23 0.85,0 0.85,-0.74 1.7,-1.5 2.52,-2.27 1,-0.93 2,-1.87 2.9,-2.83 a 36.78,36.78 0 0 0 2.4,-2.88 c 0.22,-0.28 0.46,-0.53 0.66,-0.82 0.2,-0.29 0.77,-0.64 0.52,-1.3 -0.15,-0.39 0.46,-1 0.91,-1.07 0.45,-0.07 0.8,-0.29 1.22,-0.35 a 3.74,3.74 0 0 1 1.06,0 8,8 0 0 0 1.8,0.46 c 0.17,0.09 0.39,-0.04 0.56,0.09 z" /><path
               id="_路径_66-7"
               data-name="&lt;路径&gt;"
               class="cls-3"
               d="m 201.38,59 a 27.25,27.25 0 0 0 0.49,4.11 c 0.28,1.87 0.61,3.73 0.91,5.6 0.07,0.43 0.14,0.87 0.22,1.3 a 3.28,3.28 0 0 1 -1.33,3.15 8.27,8.27 0 0 1 -2.77,1.65 1.29,1.29 0 0 1 -0.52,0 2.73,2.73 0 0 1 -1.56,-0.79 22.69,22.69 0 0 0 -2.59,-2.19 c -0.63,-0.44 -1.19,-1 -1.81,-1.43 C 192,70.09 192,69.62 191.84,69.2 a 16.86,16.86 0 0 0 -2.07,-3.2 8.2,8.2 0 0 0 -1.94,-2 c -0.3,-0.22 0,-0.44 -0.09,-0.65 0.15,-0.3 0.4,-0.18 0.63,-0.15 a 16.47,16.47 0 0 1 3,1.13 c 0.79,0.47 1.55,1 2.35,1.46 a 16.19,16.19 0 0 1 2.17,1.31 c 0.27,0.22 0.65,0 0.68,-0.5 0.03,-0.5 0,-1.11 0,-1.66 -0.09,-0.22 0,-0.45 -0.08,-0.67 v -0.63 c -0.07,-0.17 0,-0.37 -0.08,-0.54 v -0.54 c -0.07,-0.21 0,-0.44 -0.08,-0.64 v -0.86 a 3.24,3.24 0 0 1 0,-1 v -1.28 c 0.09,-0.53 0.09,-0.53 -0.23,-0.55 l -4.8,1.18 c -0.5,0.12 -1,0.28 -1.48,0.38 A 4.73,4.73 0 0 0 187.43,61 c -0.6,0.52 -0.84,0.51 -1.49,0.06 a 34,34 0 0 1 -4.84,-3.87 0.53,0.53 0 0 1 -0.06,-0.82 12.87,12.87 0 0 1 2,-1.81 6.92,6.92 0 0 1 0.95,-0.84 3.21,3.21 0 0 1 0.66,-0.29 3.53,3.53 0 0 1 1,0 4.67,4.67 0 0 0 1.3,0 c 0.17,-0.08 0.37,0 0.54,-0.08 l 3.65,-0.57 c 0.33,-0.08 0.66,0 1,-0.07 h 2.45 a 9.45,9.45 0 0 0 1.09,-0.07 2,2 0 0 0 1.88,-1.43 2.41,2.41 0 0 1 1.34,-1.59 1,1 0 0 0 0.59,-0.49 13.12,13.12 0 0 1 -3.19,-1.34 2.57,2.57 0 0 1 -1,-1.16 1.07,1.07 0 0 1 0.64,-1.6 c 0.39,-0.15 0.81,-0.25 1.21,-0.37 a 5.25,5.25 0 0 1 1.17,0 1,1 0 0 0 0.74,0.52 15.92,15.92 0 0 1 2.75,0.95 9.16,9.16 0 0 0 2,0.38 1.58,1.58 0 0 1 1.11,0.64 c 0.23,0.34 0.66,0.49 0.83,0.88 a 2.06,2.06 0 0 1 0,0.74 4.17,4.17 0 0 1 -1.4,1.37 4.22,4.22 0 0 0 -0.67,0.61 0.37,0.37 0 0 0 -0.05,0.49 c 0.11,0.16 0.28,0.14 0.44,0.09 1.61,-0.49 3.28,-0.74 4.92,-1.09 a 2.35,2.35 0 0 1 2.79,1.14 2.28,2.28 0 0 0 1.21,1 c 0.66,0.25 0.71,0.45 0.51,1.12 a 12,12 0 0 1 -0.53,1.32 1.57,1.57 0 0 1 -1.44,0.75 2.92,2.92 0 0 1 -1.2,-0.1 3.73,3.73 0 0 0 -2.19,0.16 34.28,34.28 0 0 1 -5.39,0.93 1.34,1.34 0 0 0 -1.31,1.29 3.37,3.37 0 0 0 -0.06,1.15 z" /><path
               id="_路径_67-4"
               data-name="&lt;路径&gt;"
               class="cls-3"
               d="m 190.33,41.08 c -0.56,1.43 -1.49,2.68 -2.06,4.1 -0.46,0.12 -0.94,0 -1.4,0.09 h -0.32 a 2.69,2.69 0 0 1 -0.85,0 h -1 c -1.39,0 -1.68,-1 -1.26,-2.12 0.42,-1.12 1.45,-2 2.08,-3 a 6.06,6.06 0 0 1 1.68,-1.81 1,1 0 0 1 1.13,-0.06 4.44,4.44 0 0 1 2,2.31 1,1 0 0 1 0,0.49 z" /><path
               id="_路径_68-4"
               data-name="&lt;路径&gt;"
               class="cls-3"
               d="m 205.47,44.64 h 2.46 a 6.92,6.92 0 0 1 -2.46,0 z" /><path
               id="_路径_69-3"
               data-name="&lt;路径&gt;"
               class="cls-3"
               d="M 214.72,17.12 V 15 a 5.36,5.36 0 0 1 0,2.12 z" /><path
               id="_路径_70-0"
               data-name="&lt;路径&gt;"
               class="cls-3"
               d="m 203.75,44.54 a 6.58,6.58 0 0 1 1.61,0.09 5.93,5.93 0 0 1 -1.61,-0.09 z" /><path
               id="_路径_71-7"
               data-name="&lt;路径&gt;"
               class="cls-3"
               d="m 186.87,45.27 c 0.46,-0.2 0.94,0 1.4,-0.09 a 4.07,4.07 0 0 1 -1.4,0.09 z" /><path
               id="_路径_72-8"
               data-name="&lt;路径&gt;"
               class="cls-3"
               d="m 201.38,59 a 2.4,2.4 0 0 1 0,-1.31 z" /><path
               id="_路径_73-6"
               data-name="&lt;路径&gt;"
               class="cls-3"
               d="m 198.26,44.6 h -1.17 a 1.77,1.77 0 0 1 1.17,0 z" /><path
               id="_路径_74-8"
               data-name="&lt;路径&gt;"
               class="cls-3"
               d="m 195.6,52.59 a 2.88,2.88 0 0 1 -1.09,0.07 2.93,2.93 0 0 1 1.09,-0.07 z" /><path
               id="_路径_75-8"
               data-name="&lt;路径&gt;"
               class="cls-3"
               d="m 200.29,44.62 a 3,3 0 0 1 1.09,-0.08 2.74,2.74 0 0 1 -1.09,0.08 z" /><path
               id="_路径_76-4"
               data-name="&lt;路径&gt;"
               class="cls-3"
               d="m 211.15,11.83 h -1.06 a 1.39,1.39 0 0 1 1.06,0 z" /><path
               id="_路径_77-3"
               data-name="&lt;路径&gt;"
               class="cls-3"
               d="m 196.86,22.37 h -1 a 1.1,1.1 0 0 1 1,0 z" /><path
               id="_路径_78-1"
               data-name="&lt;路径&gt;"
               class="cls-3"
               d="m 210.72,38.07 a 1.48,1.48 0 0 1 0.94,0 z" /><path
               id="_路径_79-4"
               data-name="&lt;路径&gt;"
               class="cls-3"
               d="m 192.06,52.7 a 3.38,3.38 0 0 1 -1,0.07 2.34,2.34 0 0 1 1,-0.07 z" /><path
               id="_路径_80-9"
               data-name="&lt;路径&gt;"
               class="cls-3"
               d="m 185.58,53.42 h -1 a 1.22,1.22 0 0 1 1,0 z" /><path
               id="_路径_81-2"
               data-name="&lt;路径&gt;"
               class="cls-3"
               d="m 196.2,60.11 v 1 a 1.19,1.19 0 0 1 0,-1 z" /><path
               id="_路径_82-0"
               data-name="&lt;路径&gt;"
               class="cls-3"
               d="m 196,58.27 c 0.33,-0.05 0.35,0 0.23,0.55 -0.06,-0.19 0.12,-0.48 -0.23,-0.55 z" /><path
               id="_路径_83-6"
               data-name="&lt;路径&gt;"
               class="cls-3"
               d="m 185.7,45.3 h 0.85 a 1,1 0 0 1 -0.85,0 z" /><path
               id="_路径_84-8"
               data-name="&lt;路径&gt;"
               class="cls-3"
               d="m 193.35,35.7 v -0.84 a 1,1 0 0 1 0,0.84 z" /><path
               id="_路径_85-9"
               data-name="&lt;路径&gt;"
               class="cls-3"
               d="m 216.31,21.18 h -0.74 a 0.75,0.75 0 0 1 0.74,0 z" /><path
               id="_路径_86-2"
               data-name="&lt;路径&gt;"
               class="cls-3"
               d="m 192.57,25.28 c 0,0.19 0.33,0.57 -0.25,0.45 0.3,-0.03 0.24,-0.26 0.25,-0.45 z" /><path
               id="_路径_87-6"
               data-name="&lt;路径&gt;"
               class="cls-3"
               d="M 205.7,48.71 V 48 a 0.75,0.75 0 0 1 0,0.71 z" /><path
               id="_路径_88-6"
               data-name="&lt;路径&gt;"
               class="cls-3"
               d="m 188.37,63.2 c -0.22,0 -0.47,-0.12 -0.63,0.15 0.13,-0.35 0.38,-0.25 0.63,-0.15 z" /><path
               id="_路径_89-4"
               data-name="&lt;路径&gt;"
               class="cls-3"
               d="m 196.45,64.27 a 1.35,1.35 0 0 1 0.08,0.67 c -0.17,-0.21 -0.07,-0.45 -0.08,-0.67 z" /><path
               id="_路径_90-9"
               data-name="&lt;路径&gt;"
               class="cls-3"
               d="m 196.22,61.92 a 1.2,1.2 0 0 1 0.08,0.64 c -0.15,-0.19 -0.05,-0.42 -0.08,-0.64 z" /><path
               id="_路径_91-5"
               data-name="&lt;路径&gt;"
               class="cls-3"
               d="m 213.52,12.4 c -0.19,-0.06 -0.4,0 -0.57,-0.1 0.2,0.01 0.41,-0.1 0.57,0.1 z" /><path
               id="_路径_92-0"
               data-name="&lt;路径&gt;"
               class="cls-3"
               d="m 212.56,34.64 a 1,1 0 0 1 -0.54,0.08 c 0.17,-0.14 0.36,-0.07 0.54,-0.08 z" /><path
               id="_路径_93-4"
               data-name="&lt;路径&gt;"
               class="cls-3"
               d="m 213.32,34.53 a 0.82,0.82 0 0 1 -0.55,0.08 c 0.17,-0.15 0.37,-0.06 0.55,-0.08 z" /><path
               id="_路径_94-8"
               data-name="&lt;路径&gt;"
               class="cls-3"
               d="m 187.42,53.34 a 0.89,0.89 0 0 1 -0.54,0.08 c 0.12,-0.15 0.36,-0.07 0.54,-0.08 z" /><path
               id="_路径_95-7"
               data-name="&lt;路径&gt;"
               class="cls-3"
               d="m 196.33,63.1 a 0.87,0.87 0 0 1 0.08,0.54 c -0.14,-0.16 -0.06,-0.36 -0.08,-0.54 z" /><path
               id="_路径_96-1"
               data-name="&lt;路径&gt;"
               class="cls-3"
               d="m 190.33,41.08 v -0.53 a 0.4,0.4 0 0 1 0,0.53 z" /><path
               id="_路径_97-7"
               data-name="&lt;路径&gt;"
               class="cls-3"
               d="m 198.38,74.85 h 0.52 a 0.43,0.43 0 0 1 -0.52,0 z" /><path
               id="_路径_98-2"
               data-name="&lt;路径&gt;"
               class="cls-3"
               d="m 192.47,40.13 a 0.89,0.89 0 0 1 0.54,0.09 c -0.19,-0.02 -0.38,0.07 -0.54,-0.09 z" /><path
               id="_路径_99-7"
               data-name="&lt;路径&gt;"
               class="cls-3"
               d="m 219.67,38.39 v -0.52 a 0.42,0.42 0 0 1 0,0.52 z" /><path
               id="_路径_100-2"
               data-name="&lt;路径&gt;"
               class="cls-3"
               d="m 208.16,27.74 c 0.23,0 0.66,-0.08 0.72,0.19 0.06,0.27 -0.37,0.36 -0.62,0.49 a 3.23,3.23 0 0 1 -0.34,0.16 c -0.19,0.07 -0.42,0.13 -0.56,0 -0.14,-0.13 -0.09,-0.41 -0.06,-0.61 0.03,-0.2 0.3,-0.21 0.49,-0.23 z" /></g></g></g></g></g></svg>
