<?xml version="1.0" encoding="UTF-8"?>
<svg id="_图层_1" data-name="图层 1" xmlns="http://www.w3.org/2000/svg" viewBox="0 0 491.62 155.81">
  <defs>
    <style>
      .cls-1 {
        fill: none;
        stroke: #e6e6e6;
        stroke-miterlimit: 10;
        stroke-width: 4px;
      }

      .cls-2 {
        fill: #2c2c2c;
      }

      .cls-2, .cls-3, .cls-4 {
        stroke-width: 0px;
      }

      .cls-3 {
        fill: #e5e5e4;
      }

      .cls-4 {
        fill: #e6e6e6;
      }
    </style>
  </defs>
  <path class="cls-2" d="M94.55,24.05h284.71c25.3,0,45.85,20.54,45.85,45.85v48.4c0,7.43-6.03,13.46-13.46,13.46H94.55c-7.43,0-13.46-6.03-13.46-13.46V37.51c0-7.43,6.03-13.46,13.46-13.46Z"/>
  <g>
    <g>
      <path class="cls-3" d="M151.99,102.39h-14.38c-4.1,0-7.52-1.35-10.27-4.04-2.72-2.74-4.08-6.16-4.08-10.27v-20.71c0-4.34,1.56-7.9,4.68-10.69,2.81-2.46,6.03-3.69,9.67-3.69h13.85v2.81h-13.85c-2.93,0-5.52,1.01-7.77,3.02-2.51,2.2-3.76,5.05-3.76,8.54v20.71c0,3.38,1.09,6.14,3.27,8.3,2.18,2.2,4.93,3.3,8.26,3.3h11.6v-23.17h-7.28v-2.78h10.05v28.65Z"/>
      <path class="cls-3" d="M188.31,86.92h-20.74v3.76c0,3.7.69,6.19,2.07,7.45,1.12,1.03,3.16,1.55,6.12,1.55h12.02v2.71h-12.02c-3.68,0-6.35-.74-8.02-2.21-1.99-1.8-2.99-4.97-2.99-9.49v-10.34c0-3.26,1.14-6.03,3.41-8.33,2.32-2.3,5.11-3.45,8.37-3.45s6.03,1.15,8.33,3.45c2.3,2.3,3.45,5.07,3.45,8.33v6.57ZM185.5,84.11v-3.76c0-2.51-.88-4.63-2.64-6.36-1.71-1.76-3.82-2.64-6.33-2.64s-4.63.88-6.36,2.64c-1.73,1.76-2.6,3.88-2.6,6.36v3.76h17.93Z"/>
      <path class="cls-3" d="M224.59,86.92h-20.74v3.76c0,3.7.69,6.19,2.07,7.45,1.12,1.03,3.16,1.55,6.12,1.55h12.02v2.71h-12.02c-3.68,0-6.35-.74-8.02-2.21-1.99-1.8-2.99-4.97-2.99-9.49v-10.34c0-3.26,1.14-6.03,3.41-8.33,2.32-2.3,5.11-3.45,8.37-3.45s6.03,1.15,8.33,3.45c2.3,2.3,3.45,5.07,3.45,8.33v6.57ZM221.78,84.11v-3.76c0-2.51-.88-4.63-2.64-6.36-1.71-1.76-3.82-2.64-6.33-2.64s-4.63.88-6.36,2.64c-1.73,1.76-2.6,3.88-2.6,6.36v3.76h17.93Z"/>
      <path class="cls-3" d="M261.12,101.27l-2.57,1.05-10.09-20.11-8.33,4.15v15.57h-2.81v-48.41h2.81v29.74l19.55-9.81,1.16,2.57-9.88,4.92,10.16,20.32Z"/>
      <path class="cls-3" d="M302.32,67.37c0,5.39-1.83,9.32-5.48,11.78-2.53,1.71-5.71,2.57-9.53,2.57h-10.9v20.21h-2.81v-48.94h13.71c3.77,0,6.95.88,9.53,2.64,3.66,2.51,5.48,6.42,5.48,11.74ZM299.54,67.37c0-4.34-1.42-7.46-4.25-9.39-2.11-1.45-4.77-2.18-7.98-2.18h-10.9v23.1h10.9c3.26,0,5.92-.7,7.98-2.11,2.84-1.88,4.25-5.02,4.25-9.42Z"/>
      <path class="cls-3" d="M317.89,57.85h-2.81v-4.32h2.81v4.32ZM317.89,101.93h-2.81v-32.87h2.81v32.87Z"/>
      <path class="cls-3" d="M354.18,86.92h-20.74v3.76c0,3.7.69,6.19,2.07,7.45,1.12,1.03,3.16,1.55,6.12,1.55h12.02v2.71h-12.02c-3.68,0-6.35-.74-8.02-2.21-1.99-1.8-2.99-4.97-2.99-9.49v-10.34c0-3.26,1.14-6.03,3.41-8.33,2.32-2.3,5.11-3.45,8.37-3.45s6.04,1.15,8.33,3.45c2.3,2.3,3.45,5.07,3.45,8.33v6.57ZM351.36,84.11v-3.76c0-2.51-.88-4.63-2.64-6.36-1.71-1.76-3.82-2.64-6.33-2.64s-4.63.88-6.36,2.64-2.6,3.88-2.6,6.36v3.76h17.93Z"/>
    </g>
    <path class="cls-1" d="M349.78,117.24H106.15c-4.96,0-8.99-4.02-8.99-8.99v-60.8c0-4.96,4.02-8.99,8.99-8.99h269.61c18.38,0,33.28,16.38,33.28,36.58v42.2h-7.51"/>
    <rect class="cls-4" x="359.18" y="107.26" width="32.98" height="4.06"/>
  </g>
</svg>