<?xml version="1.0" encoding="UTF-8" standalone="no"?>
<!-- Created with Inkscape (http://www.inkscape.org/) -->

<svg
   width="2100"
   height="900"
   viewBox="0 0 555.62498 238.125"
   version="1.1"
   id="svg1"
   inkscape:version="1.3.2 (091e20ef0f, 2023-11-25)"
   sodipodi:docname="geekpie.svg"
   xml:space="preserve"
   inkscape:export-filename="microsoft.png"
   inkscape:export-xdpi="96"
   inkscape:export-ydpi="96"
   xmlns:inkscape="http://www.inkscape.org/namespaces/inkscape"
   xmlns:sodipodi="http://sodipodi.sourceforge.net/DTD/sodipodi-0.dtd"
   xmlns="http://www.w3.org/2000/svg"
   xmlns:svg="http://www.w3.org/2000/svg"><sodipodi:namedview
     id="namedview1"
     pagecolor="#ffffff"
     bordercolor="#000000"
     borderopacity="0.25"
     inkscape:showpageshadow="2"
     inkscape:pageopacity="0.0"
     inkscape:pagecheckerboard="0"
     inkscape:deskcolor="#d1d1d1"
     inkscape:document-units="mm"
     inkscape:zoom="0.27866544"
     inkscape:cx="1121.4164"
     inkscape:cy="868.42488"
     inkscape:window-width="1920"
     inkscape:window-height="1100"
     inkscape:window-x="0"
     inkscape:window-y="0"
     inkscape:window-maximized="1"
     inkscape:current-layer="layer1" /><defs
     id="defs1"><clipPath
       clipPathUnits="userSpaceOnUse"
       id="clipPath1"><rect
         style="opacity:0.129301;fill:#000000;fill-opacity:1;stroke-width:12.7;stroke-linecap:round;stroke-linejoin:round"
         id="rect2"
         width="60.854168"
         height="60.854168"
         x="195.08763"
         y="116.66334" /></clipPath><clipPath
       clipPathUnits="userSpaceOnUse"
       id="clipPath1262"><g
         id="g1266"
         transform="translate(-380.0555,-558.637)"><path
           d="M 0,841.89 H 595.28 V 0 H 0 Z"
           id="path1264" /></g></clipPath><clipPath
       clipPathUnits="userSpaceOnUse"
       id="clipPath1256"><g
         id="g1260"
         transform="translate(-120.3988,-588.0071)"><path
           d="M 0,841.89 H 595.28 V 0 H 0 Z"
           id="path1258" /></g></clipPath><clipPath
       clipPathUnits="userSpaceOnUse"
       id="clipPath1250"><g
         id="g1254"
         transform="translate(-153.9027,-606.2884)"><path
           d="M 0,841.89 H 595.28 V 0 H 0 Z"
           id="path1252" /></g></clipPath><clipPath
       clipPathUnits="userSpaceOnUse"
       id="clipPath1244"><g
         id="g1248"
         transform="translate(-190.184,-606.2884)"><path
           d="M 0,841.89 H 595.28 V 0 H 0 Z"
           id="path1246" /></g></clipPath><clipPath
       clipPathUnits="userSpaceOnUse"
       id="clipPath1238"><g
         id="g1242"
         transform="translate(-229.5243,-589.1321)"><path
           d="M 0,841.89 H 595.28 V 0 H 0 Z"
           id="path1240" /></g></clipPath><clipPath
       clipPathUnits="userSpaceOnUse"
       id="clipPath1232"><g
         id="g1236"
         transform="translate(-267.9496,-623.0228)"><path
           d="M 0,841.89 H 595.28 V 0 H 0 Z"
           id="path1234" /></g></clipPath><clipPath
       clipPathUnits="userSpaceOnUse"
       id="clipPath1226"><g
         id="g1230"><path
           d="M 0,841.89 H 595.28 V 0 H 0 Z"
           id="path1228" /></g></clipPath><clipPath
       clipPathUnits="userSpaceOnUse"
       id="clipPath1220"><g
         id="g1224"
         transform="translate(-319.7699,-606.2884)"><path
           d="M 0,841.89 H 595.28 V 0 H 0 Z"
           id="path1222" /></g></clipPath><clipPath
       clipPathUnits="userSpaceOnUse"
       id="clipPath1214"><g
         id="g1218"
         transform="translate(-318.1908,-573.1605)"><path
           d="M 0,841.89 H 595.28 V 0 H 0 Z"
           id="path1216" /></g></clipPath><clipPath
       clipPathUnits="userSpaceOnUse"
       id="clipPath1208"><g
         id="g1212"><path
           d="M 0,841.89 H 595.28 V 0 H 0 Z"
           id="path1210" /></g></clipPath></defs><g
     inkscape:label="图层 1"
     inkscape:groupmode="layer"
     id="layer1"><g
       id="g3692"
       transform="matrix(5.2916666,0,0,5.2916666,-566.10648,-1312.7073)"><g
         id="g982"
         transform="matrix(0.22282261,0,0,-0.22282261,194.80939,282.57067)"
         clip-path="url(#clipPath1262)"
         style="fill:#000000;fill-opacity:1"><path
           d="m 0,0 h -317.101 c -7.433,0 -13.46,6.026 -13.46,13.46 v 80.789 c 0,7.434 6.027,13.46 13.46,13.46 h 284.713 c 25.321,0 45.848,-20.527 45.848,-45.848 V 13.46 C 13.46,6.026 7.434,0 0,0"
           style="fill:#000000;fill-opacity:1;fill-rule:nonzero;stroke:none"
           id="path984" /></g><g
         id="g986"
         transform="matrix(0.22282261,0,0,-0.22282261,136.952,276.02635)"
         clip-path="url(#clipPath1256)"><path
           d="m 0,0 h -14.379 c -4.101,0 -7.523,1.348 -10.266,4.043 -2.719,2.742 -4.078,6.164 -4.078,10.266 v 20.707 c 0,4.336 1.559,7.898 4.676,10.687 2.813,2.461 6.035,3.692 9.668,3.692 h 13.852 v -2.813 h -13.852 c -2.93,0 -5.519,-1.008 -7.769,-3.023 -2.509,-2.204 -3.762,-5.051 -3.762,-8.543 V 14.309 c 0,-3.375 1.09,-6.141 3.269,-8.297 2.18,-2.203 4.934,-3.305 8.262,-3.305 h 11.602 v 23.168 h -7.278 v 2.777 H 0 Z"
           style="fill:#e5e5e5;fill-opacity:1;fill-rule:nonzero;stroke:none"
           id="path988" /></g><g
         id="g990"
         transform="matrix(0.22282261,0,0,-0.22282261,144.41743,271.95286)"
         clip-path="url(#clipPath1250)"><path
           d="m 0,0 v 3.762 c 0,2.508 -0.879,4.628 -2.637,6.363 -1.711,1.758 -3.82,2.637 -6.328,2.637 -2.508,0 -4.629,-0.879 -6.363,-2.637 C -17.063,8.367 -17.93,6.246 -17.93,3.762 V 0 Z M 2.813,-2.813 H -17.93 v -3.761 c 0,-3.704 0.691,-6.188 2.075,-7.453 1.125,-1.032 3.164,-1.547 6.117,-1.547 H 2.285 v -2.707 H -9.738 c -3.68,0 -6.352,0.738 -8.016,2.215 -1.992,1.804 -2.988,4.968 -2.988,9.492 V 3.762 c 0,3.257 1.137,6.034 3.41,8.332 2.32,2.297 5.109,3.445 8.367,3.445 3.257,0 6.035,-1.148 8.332,-3.445 C 1.664,9.796 2.813,7.019 2.813,3.762 Z"
           style="fill:#e5e5e5;fill-opacity:1;fill-rule:nonzero;stroke:none"
           id="path992" /></g><g
         id="g994"
         transform="matrix(0.22282261,0,0,-0.22282261,152.50173,271.95286)"
         clip-path="url(#clipPath1244)"><path
           d="m 0,0 v 3.762 c 0,2.508 -0.879,4.628 -2.637,6.363 -1.711,1.758 -3.82,2.637 -6.328,2.637 -2.508,0 -4.629,-0.879 -6.363,-2.637 C -17.063,8.367 -17.93,6.246 -17.93,3.762 V 0 Z M 2.813,-2.813 H -17.93 v -3.761 c 0,-3.704 0.691,-6.188 2.075,-7.453 1.125,-1.032 3.164,-1.547 6.117,-1.547 H 2.285 v -2.707 H -9.738 c -3.68,0 -6.352,0.738 -8.016,2.215 -1.992,1.804 -2.988,4.968 -2.988,9.492 V 3.762 c 0,3.257 1.137,6.034 3.41,8.332 2.32,2.297 5.109,3.445 8.367,3.445 3.257,0 6.035,-1.148 8.332,-3.445 C 1.664,9.796 2.813,7.019 2.813,3.762 Z"
           style="fill:#e5e5e5;fill-opacity:1;fill-rule:nonzero;stroke:none"
           id="path996" /></g><g
         id="g998"
         transform="matrix(0.22282261,0,0,-0.22282261,161.26763,275.77567)"
         clip-path="url(#clipPath1238)"><path
           d="m 0,0 -2.566,-1.055 -10.09,20.11 -8.333,-4.149 V -0.668 h -2.812 v 48.41 h 2.812 V 18 l 19.548,9.809 1.16,-2.567 -9.879,-4.922 z"
           style="fill:#e5e5e5;fill-opacity:1;fill-rule:nonzero;stroke:none"
           id="path1000" /></g><g
         id="g1002"
         transform="matrix(0.22282261,0,0,-0.22282261,169.82966,268.22406)"
         clip-path="url(#clipPath1232)"><path
           d="m 0,0 c 0,4.336 -1.418,7.465 -4.254,9.387 -2.109,1.453 -4.769,2.179 -7.98,2.179 h -10.899 v -23.097 h 10.899 c 3.257,0 5.918,0.703 7.98,2.109 C -1.418,-7.547 0,-4.407 0,0 m 2.777,0 c 0,-5.391 -1.828,-9.316 -5.484,-11.777 -2.531,-1.711 -5.707,-2.567 -9.527,-2.567 h -10.899 v -20.215 h -2.812 v 48.938 h 13.711 c 3.773,0 6.949,-0.879 9.527,-2.637 C 0.949,9.234 2.777,5.32 2.777,0"
           style="fill:#e5e5e5;fill-opacity:1;fill-rule:nonzero;stroke:none"
           id="path1004" /></g><path
         d="m 286.301,588.464 h -2.813 v 32.871 h 2.813 z m 0,44.086 h -2.813 v 4.324 h 2.813 z"
         style="fill:#e5e5e5;fill-opacity:1;fill-rule:nonzero;stroke:none"
         id="path1006"
         clip-path="url(#clipPath1226)"
         transform="matrix(0.22282261,0,0,-0.22282261,110.12443,407.04762)" /><g
         id="g1008"
         transform="matrix(0.22282261,0,0,-0.22282261,181.37639,271.95286)"
         clip-path="url(#clipPath1220)"><path
           d="m 0,0 v 3.762 c 0,2.508 -0.879,4.628 -2.637,6.363 -1.711,1.758 -3.82,2.637 -6.328,2.637 -2.508,0 -4.629,-0.879 -6.363,-2.637 C -17.062,8.367 -17.93,6.246 -17.93,3.762 V 0 Z M 2.813,-2.813 H -17.93 v -3.761 c 0,-3.704 0.692,-6.188 2.075,-7.453 1.125,-1.032 3.164,-1.547 6.117,-1.547 H 2.285 v -2.707 H -9.738 c -3.68,0 -6.352,0.738 -8.016,2.215 -1.992,1.804 -2.988,4.968 -2.988,9.492 V 3.762 c 0,3.257 1.137,6.034 3.41,8.332 2.32,2.297 5.109,3.445 8.367,3.445 3.258,0 6.035,-1.148 8.332,-3.445 C 1.664,9.796 2.813,7.019 2.813,3.762 Z"
           style="fill:#e5e5e5;fill-opacity:1;fill-rule:nonzero;stroke:none"
           id="path1010" /></g><g
         id="g1012"
         transform="matrix(0.22282261,0,0,-0.22282261,181.02453,279.33451)"
         clip-path="url(#clipPath1214)"><path
           d="m 0,0 h -243.637 c -4.964,0 -8.988,4.024 -8.988,8.988 v 60.797 c 0,4.964 4.024,8.988 8.988,8.988 H 25.972 c 18.381,0 33.282,-16.377 33.282,-36.578 V 0 h -7.508"
           style="fill:none;stroke:#e6e6e5;stroke-width:4;stroke-linecap:butt;stroke-linejoin:miter;stroke-miterlimit:10;stroke-dasharray:none;stroke-opacity:1"
           id="path1014" /></g><path
         d="m 360.569,579.078 h -32.98 v 4.058 h 32.98 z"
         style="fill:#e6e6e5;fill-opacity:1;fill-rule:nonzero;stroke:none"
         id="path1016"
         clip-path="url(#clipPath1208)"
         transform="matrix(0.22282261,0,0,-0.22282261,110.12443,407.04762)" /></g></g></svg>
