<?xml version="1.0" encoding="UTF-8" standalone="no"?>
<!-- Created with Inkscape (http://www.inkscape.org/) -->

<svg
   width="2100"
   height="900"
   viewBox="0 0 555.62498 238.125"
   version="1.1"
   id="svg1"
   inkscape:version="1.3.2 (091e20ef0f, 2023-11-25)"
   sodipodi:docname="globalsign.svg"
   xml:space="preserve"
   inkscape:export-filename="globalsign.png"
   inkscape:export-xdpi="96"
   inkscape:export-ydpi="96"
   xmlns:inkscape="http://www.inkscape.org/namespaces/inkscape"
   xmlns:sodipodi="http://sodipodi.sourceforge.net/DTD/sodipodi-0.dtd"
   xmlns="http://www.w3.org/2000/svg"
   xmlns:svg="http://www.w3.org/2000/svg"><sodipodi:namedview
     id="namedview1"
     pagecolor="#ffffff"
     bordercolor="#000000"
     borderopacity="0.25"
     inkscape:showpageshadow="2"
     inkscape:pageopacity="0.0"
     inkscape:pagecheckerboard="0"
     inkscape:deskcolor="#d1d1d1"
     inkscape:document-units="mm"
     inkscape:zoom="0.39289557"
     inkscape:cx="1020.6274"
     inkscape:cy="638.8466"
     inkscape:window-width="1920"
     inkscape:window-height="1100"
     inkscape:window-x="0"
     inkscape:window-y="0"
     inkscape:window-maximized="1"
     inkscape:current-layer="layer1" /><defs
     id="defs1" /><g
     inkscape:label="图层 1"
     inkscape:groupmode="layer"
     id="layer1"><g
       id="g1"
       transform="matrix(4.6759286,0,0,4.6759286,-877.81703,-885.14449)"><path
         class="st0"
         d="m 243.11505,222.43256 c -0.0106,0.31486 -0.14817,0.74084 -0.56886,0.74084 -0.0476,0 -0.43391,0 -0.55033,-0.45509 -0.0185,-0.0556 -0.0397,-0.1561 -0.0397,-0.30427 0,-0.51064 0.30692,-0.70643 0.56356,-0.70643 0.31221,-0.003 0.61119,0.25135 0.59532,0.72495 m -1.71715,-2.16164 v 3.37608 h 0.56885 v -0.24871 c 0.12436,0.14288 0.34132,0.32015 0.65353,0.32015 0.56885,0 1.08479,-0.49742 1.08479,-1.27529 0,-0.75936 -0.50536,-1.25677 -1.04511,-1.25677 -0.26458,0 -0.50271,0.0952 -0.69321,0.27252 v -1.18534 h -0.56885 z"
         id="path1"
         style="fill:#005bac;stroke-width:0.264583" /><path
         class="st0"
         d="m 245.999,221.25517 -0.60589,2.08492 -0.13494,0.44979 c -0.16404,0.50271 -0.33867,0.67998 -0.78317,0.67998 -0.18785,0 -0.27781,-0.0185 -0.34395,-0.0291 v -0.50271 c 0.0529,0.008 0.0953,0.0132 0.15345,0.0132 0.0423,0 0.16669,0 0.2593,-0.0608 0.0661,-0.0423 0.13493,-0.14817 0.13493,-0.19579 l -0.86518,-2.43946 h 0.61648 l 0.52916,1.78329 0.45509,-1.78329 z"
         id="path2"
         style="fill:#005bac;stroke-width:0.264583" /><path
         class="st0"
         d="m 259.59859,223.45386 h 0.34396 c 0.0159,0 0.037,-0.0132 0.0476,-0.0291 l 1.42081,-2.32569 0.77259,2.66171 c 0.005,0.0159 0.0238,0.0317 0.0423,0.0317 h 1.4896 c 0.0185,0 0.0265,-0.0132 0.0212,-0.0317 l -1.57427,-4.97946 c -0.005,-0.0159 -0.0238,-0.0317 -0.0397,-0.0317 h -0.56091 c -0.0185,0 -0.0397,0.0132 -0.0503,0.0265 l -1.91559,2.97127 -1.91558,-2.97127 c -0.0106,-0.0132 -0.0317,-0.0265 -0.0476,-0.0265 h -0.56091 c -0.0185,0 -0.037,0.0132 -0.0423,0.0317 l -1.57427,4.97946 c -0.005,0.0159 0.005,0.0317 0.0212,0.0317 h 1.49225 c 0.0185,0 0.037,-0.0132 0.0397,-0.0317 l 0.77258,-2.66171 1.42081,2.32569 c 0.008,0.0159 0.0291,0.0291 0.0476,0.0291 z"
         id="path3"
         style="fill:#005bac;stroke-width:0.264583" /><path
         class="st0"
         d="m 255.524,220.97206 c -0.003,-0.0159 -0.0159,-0.0265 -0.0317,-0.0265 h -4.24656 c -0.22489,0 -0.40746,0.18256 -0.40746,0.40745 0,0.2249 0.18257,0.40746 0.40746,0.40746 h 2.52413 c -0.30163,0.79375 -1.31763,1.37848 -2.52413,1.37848 -1.44462,0 -2.61673,-0.83608 -2.61673,-1.86796 0,-1.03187 1.17211,-1.86795 2.61673,-1.86795 0.78846,0 1.4949,0.2487 1.97644,0.64293 l 0.005,0.005 c 0.005,0.003 0.0106,0.005 0.0159,0.005 h 1.73566 c 0.0185,0 0.0317,-0.0159 0.0317,-0.0318 0,-0.008 -0.003,-0.0132 -0.008,-0.0212 0,0 -0.003,0 -0.003,-0.003 -0.73819,-0.78845 -2.14313,-1.31762 -3.75708,-1.31762 -2.38125,0 -4.31007,1.15887 -4.31007,2.58762 0,1.42875 1.92882,2.58763 4.31007,2.58763 2.3786,0 4.31006,-1.15888 4.31006,-2.58763 0,-0.10054 -0.0106,-0.20108 -0.0291,-0.29898"
         id="path4"
         style="fill:#005bac;stroke-width:0.264583" /><path
         class="st0"
         d="m 267.95942,218.68342 c -2.3786,0 -4.31006,1.15887 -4.31006,2.58762 0,1.42875 1.92881,2.58763 4.31006,2.58763 2.38125,0 4.31006,-1.15888 4.31006,-2.58763 0,-1.42875 -1.92881,-2.58762 -4.31006,-2.58762 m 0,4.45558 c -1.44462,0 -2.61408,-0.83608 -2.61408,-1.86796 0,-1.03187 1.16946,-1.86795 2.61408,-1.86795 1.44463,0 2.61673,0.83608 2.61673,1.86795 0,1.03188 -1.16946,1.86796 -2.61673,1.86796"
         id="path5"
         style="fill:#005bac;stroke-width:0.264583" /><path
         class="st1"
         d="m 221.13611,214.68292 c 0,5.31812 -4.31006,9.63083 -9.62819,9.63083 -5.32077,0 -9.63083,-4.31271 -9.63083,-9.63083 0,-5.31813 4.31271,-9.63083 9.63083,-9.63083 5.31813,0 9.62819,4.31006 9.62819,9.63083"
         id="path6"
         style="fill:#0069b5;stroke-width:0.264583" /><path
         class="st2"
         d="m 221.09642,214.68292 c 0,5.29696 -4.29419,9.59114 -9.5885,9.59114 -5.29696,0 -9.59114,-4.29418 -9.59114,-9.59114 0,-5.29696 4.29418,-9.59115 9.59114,-9.59115 5.29431,-0.003 9.5885,4.29154 9.5885,9.59115"
         id="path7"
         style="fill:#005eaf;stroke-width:0.264583" /><path
         class="st3"
         d="m 221.05673,214.68292 c 0,5.27314 -4.27566,9.55146 -9.54881,9.55146 -5.27579,0 -9.55146,-4.27832 -9.55146,-9.55146 0,-5.27579 4.27567,-9.55146 9.55146,-9.55146 5.27315,-0.003 9.54881,4.27567 9.54881,9.55146"
         id="path8"
         style="fill:#005faf;stroke-width:0.264583" /><path
         class="st4"
         d="m 221.01705,214.68292 c 0,5.25198 -4.25715,9.51177 -9.50913,9.51177 -5.25462,0 -9.51177,-4.25979 -9.51177,-9.51177 0,-5.25463 4.25979,-9.51177 9.51177,-9.51177 5.25198,-0.003 9.50913,4.25714 9.50913,9.51177"
         id="path9"
         style="fill:#0060b0;stroke-width:0.264583" /><path
         class="st4"
         d="m 220.97736,214.68292 c 0,5.23081 -4.23863,9.47208 -9.46944,9.47208 -5.23346,0 -9.47208,-4.24127 -9.47208,-9.47208 0,-5.23081 4.24127,-9.47208 9.47208,-9.47208 5.23081,-0.003 9.46944,4.23862 9.46944,9.47208"
         id="path10"
         style="fill:#0060b0;stroke-width:0.264583" /><path
         class="st5"
         d="m 220.93767,214.68292 c 0,5.20964 -4.22275,9.43239 -9.42975,9.43239 -5.20964,0 -9.43239,-4.22539 -9.43239,-9.43239 0,-5.20965 4.22275,-9.4324 9.43239,-9.4324 5.207,-0.003 9.42975,4.22275 9.42975,9.4324"
         id="path11"
         style="fill:#0061b0;stroke-width:0.264583" /><path
         class="st6"
         d="m 220.89798,214.68292 c 0,5.18583 -4.20423,9.39271 -9.39006,9.39271 -5.18848,0 -9.39535,-4.20688 -9.39535,-9.39271 0,-5.18848 4.20687,-9.39271 9.39535,-9.39271 5.18583,-0.003 9.39006,4.20423 9.39006,9.39271"
         id="path12"
         style="fill:#0061b1;stroke-width:0.264583" /><path
         class="st7"
         d="m 220.8583,214.68292 c 0,5.16467 -4.18571,9.35302 -9.35038,9.35302 -5.16731,0 -9.35567,-4.18835 -9.35567,-9.35302 0,-5.16731 4.18836,-9.35302 9.35567,-9.35302 5.16467,-0.003 9.35038,4.18571 9.35038,9.35302"
         id="path13"
         style="fill:#0062b1;stroke-width:0.264583" /><path
         class="st8"
         d="m 220.81861,214.68292 c 0,5.1435 -4.16983,9.31333 -9.31069,9.31333 -5.1435,0 -9.31598,-4.16983 -9.31598,-9.31333 0,-5.1435 4.16984,-9.31598 9.31598,-9.31598 5.14086,0 9.31069,4.16983 9.31069,9.31598"
         id="path14"
         style="fill:#0062b2;stroke-width:0.264583" /><path
         class="st9"
         d="m 220.77892,214.68292 c 0,5.12233 -4.15131,9.27364 -9.271,9.27364 -5.12233,0 -9.27629,-4.15395 -9.27629,-9.27364 0,-5.12233 4.15131,-9.27365 9.27629,-9.27365 5.11969,-0.003 9.271,4.15132 9.271,9.27365"
         id="path15"
         style="fill:#0063b2;stroke-width:0.264583" /><path
         class="st10"
         d="m 220.73923,214.68292 c 0,5.09852 -4.13279,9.23396 -9.23131,9.23396 -5.10117,0 -9.2366,-4.13544 -9.2366,-9.23396 0,-5.10117 4.13543,-9.23661 9.2366,-9.23661 5.09852,0 9.23131,4.13544 9.23131,9.23661"
         id="path16"
         style="fill:#0064b2;stroke-width:0.264583" /><path
         class="st11"
         d="m 220.69955,214.68292 c 0,5.07735 -4.11692,9.19427 -9.19427,9.19427 -5.08,0 -9.19692,-4.11692 -9.19692,-9.19427 0,-5.08 4.11692,-9.19692 9.19692,-9.19692 5.08,0 9.19427,4.11692 9.19427,9.19692"
         id="path17"
         style="fill:#0064b3;stroke-width:0.264583" /><path
         class="st12"
         d="m 220.65986,214.68292 c 0,5.05619 -4.0984,9.15458 -9.15458,9.15458 -5.05884,0 -9.15723,-4.10104 -9.15723,-9.15458 0,-5.05619 4.09839,-9.15723 9.15723,-9.15723 5.05618,0 9.15458,4.0984 9.15458,9.15723"
         id="path18"
         style="fill:#0065b3;stroke-width:0.264583" /><path
         class="st13"
         d="m 220.62017,214.68292 c 0,5.03237 -4.07987,9.11489 -9.11489,9.11489 -5.03503,0 -9.11755,-4.08252 -9.11755,-9.11489 0,-5.03502 4.08252,-9.11754 9.11755,-9.11754 5.03502,0 9.11489,4.08252 9.11489,9.11754"
         id="path19"
         style="fill:#0065b4;stroke-width:0.264583" /><path
         class="st14"
         d="m 220.58048,214.68027 c 0,5.01121 -4.064,9.07521 -9.0752,9.07521 -5.01386,0 -9.07786,-4.064 -9.07786,-9.07521 0,-5.01385 4.064,-9.07785 9.07786,-9.07785 5.01385,0.003 9.0752,4.06664 9.0752,9.07785"
         id="path20"
         style="fill:#0066b4;stroke-width:0.264583" /><path
         class="st15"
         d="m 220.5408,214.68292 c 0,4.99004 -4.04548,9.03817 -9.03552,9.03817 -4.99269,0 -9.03817,-4.04813 -9.03817,-9.03817 0,-4.99269 4.04548,-9.03817 9.03817,-9.03817 4.99268,0 9.03552,4.04548 9.03552,9.03817"
         id="path21"
         style="fill:#0067b5;stroke-width:0.264583" /><path
         class="st15"
         d="m 220.50375,214.68292 c 0,4.96887 -4.02695,8.99583 -8.99583,8.99583 -4.97152,0 -8.99848,-4.0296 -8.99848,-8.99583 0,-4.96888 4.02961,-8.99848 8.99848,-8.99848 4.96623,0 8.99583,4.02696 8.99583,8.99848"
         id="path22"
         style="fill:#0067b5;stroke-width:0.264583" /><path
         class="st16"
         d="m 220.46407,214.68292 c 0,4.94506 -4.01109,8.95879 -8.95615,8.95879 -4.94771,0 -8.95879,-4.01108 -8.95879,-8.95879 0,-4.94771 4.01108,-8.95879 8.95879,-8.95879 4.94506,0 8.95615,4.01108 8.95615,8.95879"
         id="path23"
         style="fill:#0068b6;stroke-width:0.264583" /><path
         class="st16"
         d="m 220.42438,214.68292 c 0,4.92389 -3.99256,8.9191 -8.91646,8.9191 -4.92654,0 -8.9191,-3.99256 -8.9191,-8.9191 0,-4.92654 3.99256,-8.91911 8.9191,-8.91911 4.9239,0 8.91646,3.99257 8.91646,8.91911"
         id="path24"
         style="fill:#0068b6;stroke-width:0.264583" /><path
         class="st17"
         d="m 220.38469,214.68027 c 0,4.90273 -3.97404,8.87942 -8.87677,8.87942 -4.90537,0 -8.87942,-3.97669 -8.87942,-8.87942 0,-4.90273 3.97405,-8.87941 8.87942,-8.87941 4.90273,0 8.87677,3.97668 8.87677,8.87941"
         id="path25"
         style="fill:#0069b6;stroke-width:0.264583" /><path
         class="st18"
         d="m 220.345,214.68292 c 0,4.88156 -3.95552,8.83973 -8.83708,8.83973 -4.88156,0 -8.83973,-3.95817 -8.83973,-8.83973 0,-4.88156 3.95817,-8.83973 8.83973,-8.83973 4.87892,-0.003 8.83708,3.95552 8.83708,8.83973"
         id="path26"
         style="fill:#0069b7;stroke-width:0.264583" /><path
         class="st19"
         d="m 220.30532,214.68292 c 0,4.85775 -3.93965,8.80004 -8.7974,8.80004 -4.86039,0 -8.80004,-3.93965 -8.80004,-8.80004 0,-4.8604 3.93965,-8.80004 8.80004,-8.80004 4.85775,-0.003 8.7974,3.93964 8.7974,8.80004"
         id="path27"
         style="fill:#006ab7;stroke-width:0.264583" /><path
         class="st20"
         d="m 220.26563,214.68292 c 0,4.83658 -3.92113,8.76035 -8.75771,8.76035 -4.83923,0 -8.76035,-3.92377 -8.76035,-8.76035 0,-4.83923 3.92112,-8.76036 8.76035,-8.76036 4.83658,-0.003 8.75771,3.92113 8.75771,8.76036"
         id="path28"
         style="fill:#006bb8;stroke-width:0.264583" /><path
         class="st20"
         d="m 220.22594,214.68292 c 0,4.81277 -3.9026,8.71802 -8.71802,8.71802 -4.81806,0 -8.72067,-3.90525 -8.72067,-8.72067 0,-4.81541 3.90525,-8.72066 8.72067,-8.72066 4.81542,0 8.71802,3.90525 8.71802,8.72331"
         id="path29"
         style="fill:#006bb8;stroke-width:0.264583" /><path
         class="st21"
         d="m 220.18625,214.68292 c 0,4.79425 -3.88672,8.68098 -8.67833,8.68098 -4.79425,0 -8.68098,-3.88673 -8.68098,-8.68098 0,-4.79425 3.88673,-8.68098 8.68098,-8.68098 4.79161,-0.003 8.67833,3.88408 8.67833,8.68098"
         id="path30"
         style="fill:#006cb9;stroke-width:0.264583" /><path
         class="st21"
         d="m 220.14657,214.68292 c 0,4.77044 -3.86821,8.64129 -8.63865,8.64129 -4.77308,0 -8.64129,-3.87085 -8.64129,-8.64129 0,-4.77308 3.86821,-8.64129 8.64129,-8.64129 4.77044,-0.003 8.63865,3.86821 8.63865,8.64129"
         id="path31"
         style="fill:#006cb9;stroke-width:0.264583" /><path
         class="st22"
         d="m 220.10688,214.68292 c 0,4.74927 -3.84969,8.6016 -8.59896,8.6016 -4.75192,0 -8.6016,-3.85233 -8.6016,-8.6016 0,-4.75192 3.85233,-8.60161 8.6016,-8.60161 4.74927,-0.003 8.59896,3.84969 8.59896,8.60161"
         id="path32"
         style="fill:#006dba;stroke-width:0.264583" /><path
         class="st23"
         d="m 220.06719,214.68027 c 0,4.72811 -3.83381,8.56192 -8.55927,8.56192 -4.73075,0 -8.56456,-3.83381 -8.56456,-8.56192 0,-4.7281 3.83381,-8.56191 8.56456,-8.56191 4.72811,0 8.55927,3.83381 8.55927,8.56191"
         id="path33"
         style="fill:#006eba;stroke-width:0.264583" /><path
         class="st24"
         d="m 220.0275,214.68292 c 0,4.70694 -3.81529,8.52223 -8.51958,8.52223 -4.70694,0 -8.52487,-3.81529 -8.52487,-8.52223 0,-4.70694 3.81529,-8.52223 8.52487,-8.52223 4.70429,-0.003 8.51958,3.81265 8.51958,8.52223"
         id="path34"
         style="fill:#006ebb;stroke-width:0.264583" /><path
         class="st25"
         d="m 219.98782,214.68292 c 0,4.68312 -3.79677,8.48254 -8.4799,8.48254 -4.68577,0 -8.48519,-3.79942 -8.48519,-8.48254 0,-4.68577 3.79942,-8.48519 8.48519,-8.48519 4.68313,0 8.4799,3.79942 8.4799,8.48519"
         id="path35"
         style="fill:#006fbb;stroke-width:0.264583" /><path
         class="st25"
         d="m 219.94813,214.68292 c 0,4.66196 -3.7809,8.44285 -8.44285,8.44285 -4.66461,0 -8.4455,-3.78089 -8.4455,-8.44285 0,-4.66461 3.78089,-8.4455 8.4455,-8.4455 4.6646,0 8.44285,3.78089 8.44285,8.4455"
         id="path36"
         style="fill:#006fbb;stroke-width:0.264583" /><path
         class="st26"
         d="m 219.90844,214.68292 c 0,4.64079 -3.76237,8.40317 -8.40316,8.40317 -4.64344,0 -8.40582,-3.76503 -8.40582,-8.40317 0,-4.64079 3.76238,-8.40581 8.40582,-8.40581 4.64079,0 8.40316,3.76237 8.40316,8.40581"
         id="path37"
         style="fill:#0070bc;stroke-width:0.264583" /><path
         class="st26"
         d="m 219.86875,214.68292 c 0,4.61962 -3.74385,8.36348 -8.36347,8.36348 -4.61963,0 -8.36613,-3.7465 -8.36613,-8.36348 0,-4.61963 3.74385,-8.36613 8.36613,-8.36613 4.61962,0 8.36347,3.74386 8.36347,8.36613"
         id="path38"
         style="fill:#0070bc;stroke-width:0.264583" /><path
         class="st27"
         d="m 219.82907,214.68292 c 0,4.59581 -3.72798,8.32379 -8.32379,8.32379 -4.59846,0 -8.32644,-3.72798 -8.32644,-8.32379 0,-4.59846 3.72798,-8.32644 8.32644,-8.32644 4.59845,0 8.32379,3.72798 8.32379,8.32644"
         id="path39"
         style="fill:#0071bd;stroke-width:0.264583" /><path
         class="st28"
         d="m 219.78938,214.68292 c 0,4.57464 -3.70946,8.28675 -8.2841,8.28675 -4.5773,0 -8.28675,-3.70946 -8.28675,-8.28675 0,-4.57729 3.70945,-8.28675 8.28675,-8.28675 4.57729,0 8.2841,3.70946 8.2841,8.28675"
         id="path40"
         style="fill:#0072bd;stroke-width:0.264583" /><path
         class="st29"
         d="m 219.75234,214.68292 c 0,4.55348 -3.69094,8.24706 -8.24442,8.24706 -4.55612,0 -8.24706,-3.69358 -8.24706,-8.24706 0,-4.55348 3.69094,-8.24706 8.24706,-8.24706 4.55348,0 8.24442,3.69093 8.24442,8.24706"
         id="path41"
         style="fill:#0072be;stroke-width:0.264583" /><path
         class="st30"
         d="m 219.71265,214.68292 c 0,4.53231 -3.67506,8.20737 -8.20473,8.20737 -4.53231,0 -8.20737,-3.67506 -8.20737,-8.20737 0,-4.53231 3.67506,-8.20738 8.20737,-8.20738 4.52967,0 8.20473,3.67242 8.20473,8.20738"
         id="path42"
         style="fill:#0073be;stroke-width:0.264583" /><path
         class="st30"
         d="m 219.67296,214.68292 c 0,4.5085 -3.65654,8.16769 -8.16504,8.16769 -4.51114,0 -8.16769,-3.65655 -8.16769,-8.16769 0,-4.51115 3.65655,-8.16769 8.16769,-8.16769 4.5085,0 8.16504,3.65654 8.16504,8.16769"
         id="path43"
         style="fill:#0073be;stroke-width:0.264583" /><path
         class="st31"
         d="m 219.63328,214.68292 c 0,4.48733 -3.63803,8.128 -8.12536,8.128 -4.48998,0 -8.128,-3.64067 -8.128,-8.128 0,-4.48998 3.64067,-8.128 8.128,-8.128 4.48733,0 8.12536,3.63802 8.12536,8.128"
         id="path44"
         style="fill:#0074bf;stroke-width:0.264583" /><path
         class="st32"
         d="m 219.59359,214.68292 c 0,4.46617 -3.6195,8.08831 -8.08567,8.08831 -4.46881,0 -8.08831,-3.62214 -8.08831,-8.08831 0,-4.46617 3.62214,-8.08831 8.08831,-8.08831 4.46352,0 8.08567,3.6195 8.08567,8.08831"
         id="path45"
         style="fill:#0075bf;stroke-width:0.264583" /><path
         class="st33"
         d="m 219.5539,214.68292 c 0,4.445 -3.60362,8.04862 -8.04598,8.04862 -4.445,0 -8.04862,-3.60362 -8.04862,-8.04862 0,-4.445 3.60362,-8.04863 8.04862,-8.04863 4.44236,-0.003 8.04598,3.60098 8.04598,8.04863"
         id="path46"
         style="fill:#0075c0;stroke-width:0.264583" /><path
         class="st34"
         d="m 219.51421,214.68292 c 0,4.42119 -3.5851,8.00894 -8.00629,8.00894 -4.42383,0 -8.00894,-3.58511 -8.00894,-8.00894 0,-4.42383 3.58511,-8.00894 8.00894,-8.00894 4.42119,-0.003 8.00629,3.58511 8.00629,8.00894"
         id="path47"
         style="fill:#0076c0;stroke-width:0.264583" /><path
         class="st35"
         d="m 219.47453,214.68292 c 0,4.40002 -3.56659,7.96925 -7.96661,7.96925 -4.40267,0 -7.97189,-3.56923 -7.97189,-7.96925 0,-4.40267 3.56922,-7.96925 7.97189,-7.96925 4.40002,-0.003 7.96661,3.56658 7.96661,7.96925"
         id="path48"
         style="fill:#0076c1;stroke-width:0.264583" /><path
         class="st36"
         d="m 219.43484,214.68292 c 0,4.37885 -3.55071,7.92956 -7.92692,7.92956 -4.37885,0 -7.93221,-3.55071 -7.93221,-7.92956 0,-4.37886 3.55071,-7.92956 7.93221,-7.92956 4.37621,-0.003 7.92692,3.54806 7.92692,7.92956"
         id="path49"
         style="fill:#0077c1;stroke-width:0.264583" /><path
         class="st37"
         d="m 219.39515,214.68292 c 0,4.35769 -3.53219,7.88987 -7.88723,7.88987 -4.35769,0 -7.88987,-3.53218 -7.88987,-7.88987 0,-4.35769 3.53218,-7.88988 7.88987,-7.88988 4.35504,-0.003 7.88723,3.53219 7.88723,7.88988"
         id="path50"
         style="fill:#0078c2;stroke-width:0.264583" /><path
         class="st37"
         d="m 219.35546,214.68292 c 0,4.33387 -3.51366,7.85019 -7.84754,7.85019 -4.33652,0 -7.85283,-3.51632 -7.85283,-7.85019 0,-4.33652 3.51631,-7.85019 7.85283,-7.85019 4.33388,-0.003 7.84754,3.51367 7.84754,7.85019"
         id="path51"
         style="fill:#0078c2;stroke-width:0.264583" /><path
         class="st38"
         d="m 219.31578,214.68292 c 0,4.31271 -3.4978,7.8105 -7.80786,7.8105 -4.31535,0 -7.81314,-3.49779 -7.81314,-7.8105 0,-4.31271 3.49779,-7.8105 7.81314,-7.8105 4.31271,-0.003 7.80786,3.49514 7.80786,7.8105"
         id="path52"
         style="fill:#0079c3;stroke-width:0.264583" /><path
         class="st39"
         d="m 219.27609,214.68292 c 0,4.29154 -3.47927,7.77081 -7.76817,7.77081 -4.29419,0 -7.77346,-3.47927 -7.77346,-7.77081 0,-4.29154 3.47927,-7.77081 7.77346,-7.77081 4.2889,-0.003 7.76817,3.47662 7.76817,7.77081"
         id="path53"
         style="fill:#007ac3;stroke-width:0.264583" /><path
         class="st39"
         d="m 219.2364,214.68292 c 0,4.27037 -3.46075,7.73112 -7.72848,7.73112 -4.27037,0 -7.73377,-3.46339 -7.73377,-7.73112 0,-4.27038 3.46075,-7.73113 7.73377,-7.73113 4.26773,-0.003 7.72848,3.46075 7.72848,7.73113"
         id="path54"
         style="fill:#007ac3;stroke-width:0.264583" /><path
         class="st40"
         d="m 219.19671,214.68292 c 0,4.24656 -3.44223,7.69144 -7.69143,7.69144 -4.24921,0 -7.69409,-3.44488 -7.69409,-7.69144 0,-4.24921 3.44488,-7.69144 7.69409,-7.69144 4.2492,-0.003 7.69143,3.44223 7.69143,7.69144"
         id="path55"
         style="fill:#007bc4;stroke-width:0.264583" /><path
         class="st40"
         d="m 219.15703,214.68292 c 0,4.22539 -3.42636,7.65175 -7.65175,7.65175 -4.22805,0 -7.6544,-3.42636 -7.6544,-7.65175 0,-4.2254 3.42635,-7.6544 7.6544,-7.6544 4.22804,0 7.65175,3.42636 7.65175,7.6544"
         id="path56"
         style="fill:#007bc4;stroke-width:0.264583" /><path
         class="st41"
         d="m 219.11734,214.68292 c 0,4.20423 -3.40784,7.61206 -7.61206,7.61206 -4.20688,0 -7.61471,-3.41048 -7.61471,-7.61206 0,-4.20423 3.40783,-7.61471 7.61471,-7.61471 4.20422,0 7.61206,3.40783 7.61206,7.61471"
         id="path57"
         style="fill:#007cc5;stroke-width:0.264583" /><path
         class="st42"
         d="m 219.07765,214.68292 c 0,4.18306 -3.38931,7.57237 -7.57237,7.57237 -4.18307,0 -7.57503,-3.39195 -7.57503,-7.57237 0,-4.18306 3.39196,-7.57502 7.57503,-7.57502 4.18306,0 7.57237,3.39196 7.57237,7.57502"
         id="path58"
         style="fill:#007dc5;stroke-width:0.264583" /><path
         class="st43"
         d="m 219.04061,214.68292 c 0,4.15925 -3.37344,7.53533 -7.53269,7.53533 -4.16189,0 -7.53533,-3.37344 -7.53533,-7.53533 0,-4.1619 3.37344,-7.53533 7.53533,-7.53533 4.15925,0 7.53269,3.37343 7.53269,7.53533"
         id="path59"
         style="fill:#007dc6;stroke-width:0.264583" /><path
         class="st44"
         d="m 219.00092,214.68292 c 0,4.13808 -3.35492,7.49564 -7.493,7.49564 -4.14073,0 -7.49564,-3.35756 -7.49564,-7.49564 0,-4.13808 3.35491,-7.49565 7.49564,-7.49565 4.13808,0 7.493,3.35492 7.493,7.49565"
         id="path60"
         style="fill:#007ec6;stroke-width:0.264583" /><path
         class="st45"
         d="m 218.96123,214.68292 c 0,4.11692 -3.33639,7.45596 -7.45331,7.45596 -4.11956,0 -7.45596,-3.33904 -7.45596,-7.45596 0,-4.11692 3.33904,-7.45596 7.45596,-7.45596 4.11427,0 7.45331,3.3364 7.45331,7.45596"
         id="path61"
         style="fill:#007ec7;stroke-width:0.264583" /><path
         class="st46"
         d="m 218.92155,214.68292 c 0,4.09575 -3.32052,7.41627 -7.41363,7.41627 -4.09575,0 -7.41627,-3.32052 -7.41627,-7.41627 0,-4.09575 3.32052,-7.41627 7.41627,-7.41627 4.09311,0 7.41363,3.32052 7.41363,7.41627"
         id="path62"
         style="fill:#007fc7;stroke-width:0.264583" /><path
         class="st47"
         d="m 218.88186,214.68292 c 0,4.07194 -3.302,7.37658 -7.37394,7.37658 -4.07458,0 -7.37658,-3.302 -7.37658,-7.37658 0,-4.07458 3.302,-7.37658 7.37658,-7.37658 4.07194,0 7.37394,3.302 7.37394,7.37658"
         id="path63"
         style="fill:#0080c7;stroke-width:0.264583" /><path
         class="st48"
         d="m 218.84217,214.68292 c 0,4.05077 -3.28348,7.33689 -7.33425,7.33689 -4.05342,0 -7.33689,-3.28612 -7.33689,-7.33689 0,-4.05077 3.28347,-7.3369 7.33689,-7.3369 4.05077,0 7.33425,3.28348 7.33425,7.3369"
         id="path64"
         style="fill:#0080c8;stroke-width:0.264583" /><path
         class="st49"
         d="m 218.80248,214.68292 c 0,4.0296 -3.2676,7.29721 -7.29456,7.29721 -4.0296,0 -7.29721,-3.26761 -7.29721,-7.29721 0,-4.02961 3.26761,-7.29721 7.29721,-7.29721 4.02696,0 7.29456,3.26496 7.29456,7.29721"
         id="path65"
         style="fill:#0081c8;stroke-width:0.264583" /><path
         class="st50"
         d="m 218.7628,214.68292 c 0,4.00844 -3.24909,7.25752 -7.25488,7.25752 -4.00844,0 -7.25752,-3.24908 -7.25752,-7.25752 0,-4.00844 3.24908,-7.25752 7.25752,-7.25752 4.00579,-0.003 7.25488,3.24908 7.25488,7.25752"
         id="path66"
         style="fill:#0081c9;stroke-width:0.264583" /><path
         class="st51"
         d="m 218.72311,214.68292 c 0,3.98462 -3.23056,7.21783 -7.21519,7.21783 -3.98727,0 -7.21783,-3.23321 -7.21783,-7.21783 0,-3.98727 3.23321,-7.21783 7.21783,-7.21783 3.98463,-0.003 7.21519,3.23056 7.21519,7.21783"
         id="path67"
         style="fill:#0082c9;stroke-width:0.264583" /><path
         class="st52"
         d="m 218.68342,214.68292 c 0,3.96346 -3.21204,7.17814 -7.1755,7.17814 -3.9661,0 -7.18079,-3.21468 -7.18079,-7.17814 0,-3.96346 3.21469,-7.17815 7.18079,-7.17815 3.96346,-0.003 7.1755,3.21204 7.1755,7.17815"
         id="path68"
         style="fill:#0083ca;stroke-width:0.264583" /><path
         class="st52"
         d="m 218.64373,214.68292 c 0,3.94229 -3.19616,7.13846 -7.13581,7.13846 -3.94229,0 -7.1411,-3.19617 -7.1411,-7.13846 0,-3.94229 3.19616,-7.13846 7.1411,-7.13846 3.93965,-0.003 7.13581,3.19352 7.13581,7.13846"
         id="path69"
         style="fill:#0083ca;stroke-width:0.264583" /><path
         class="st53"
         d="m 218.60405,214.68292 c 0,3.92112 -3.17765,7.09877 -7.09613,7.09877 -3.92112,0 -7.10142,-3.17765 -7.10142,-7.09877 0,-3.92113 3.1803,-7.09877 7.10142,-7.09877 3.91848,-0.003 7.09613,3.17764 7.09613,7.09877"
         id="path70"
         style="fill:#0084cb;stroke-width:0.264583" /><path
         class="st53"
         d="m 218.56436,214.68292 c 0,3.89731 -3.15913,7.05908 -7.05644,7.05908 -3.89996,0 -7.06173,-3.16177 -7.06173,-7.05908 0,-3.89996 3.16177,-7.05908 7.06173,-7.05908 3.89731,-0.003 7.05644,3.15912 7.05644,7.05908"
         id="path71"
         style="fill:#0084cb;stroke-width:0.264583" /><path
         class="st54"
         d="m 218.52467,214.68292 c 0,3.87614 -3.14325,7.01939 -7.01675,7.01939 -3.87879,0 -7.02204,-3.14325 -7.02204,-7.01939 0,-3.87615 3.14325,-7.0194 7.02204,-7.0194 3.8735,-0.003 7.01675,3.14061 7.01675,7.0194"
         id="path72"
         style="fill:#0085cb;stroke-width:0.264583" /><path
         class="st55"
         d="m 218.48498,214.68292 c 0,3.85498 -3.12473,6.97971 -6.9797,6.97971 -3.85498,0 -6.98236,-3.12473 -6.98236,-6.97971 0,-3.85498 3.12473,-6.97971 6.98236,-6.97971 3.85497,-0.003 6.9797,3.12208 6.9797,6.97971"
         id="path73"
         style="fill:#0085cc;stroke-width:0.264583" /><path
         class="st56"
         d="m 218.4453,214.68292 c 0,3.83381 -3.10621,6.94002 -6.94002,6.94002 -3.83382,0 -6.94267,-3.10885 -6.94267,-6.94002 0,-3.83381 3.10885,-6.94002 6.94267,-6.94002 3.83381,-0.003 6.94002,3.10621 6.94002,6.94002"
         id="path74"
         style="fill:#0086cc;stroke-width:0.264583" /><path
         class="st57"
         d="m 218.40561,214.68292 c 0,3.81 -3.09033,6.90033 -6.90033,6.90033 -3.81265,0 -6.90298,-3.09033 -6.90298,-6.90033 0,-3.81265 3.09033,-6.90298 6.90298,-6.90298 3.81264,0 6.90033,3.09033 6.90033,6.90298"
         id="path75"
         style="fill:#0087cd;stroke-width:0.264583" /><path
         class="st57"
         d="m 218.36592,214.68292 c 0,3.78883 -3.07181,6.86064 -6.86064,6.86064 -3.79148,0 -6.8633,-3.07181 -6.8633,-6.86064 0,-3.78883 3.07182,-6.86329 6.8633,-6.86329 3.78883,0 6.86064,3.07181 6.86064,6.86329"
         id="path76"
         style="fill:#0087cd;stroke-width:0.264583" /><path
         class="st58"
         d="m 218.32623,214.68292 c 0,3.76767 -3.05329,6.82096 -6.82095,6.82096 -3.76767,0 -6.82361,-3.05329 -6.82361,-6.82096 0,-3.76767 3.05594,-6.82361 6.82361,-6.82361 3.76766,0 6.82095,3.0533 6.82095,6.82361"
         id="path77"
         style="fill:#0088ce;stroke-width:0.264583" /><path
         class="st59"
         d="m 218.28919,214.68292 c 0,3.7465 -3.03741,6.78127 -6.78127,6.78127 -3.7465,0 -6.78392,-3.03742 -6.78392,-6.78127 0,-3.7465 3.03742,-6.78392 6.78392,-6.78392 3.74386,0 6.78127,3.03742 6.78127,6.78392"
         id="path78"
         style="fill:#0089ce;stroke-width:0.264583" /><path
         class="st60"
         d="m 218.2495,214.68292 c 0,3.72269 -3.01889,6.74423 -6.74158,6.74423 -3.72533,0 -6.74423,-3.0189 -6.74423,-6.74423 0,-3.72533 3.0189,-6.74423 6.74423,-6.74423 3.72269,0 6.74158,3.0189 6.74158,6.74423"
         id="path79"
         style="fill:#0089cf;stroke-width:0.264583" /><path
         class="st61"
         d="m 218.20982,214.68292 c 0,3.70152 -3.00038,6.70454 -6.7019,6.70454 -3.70417,0 -6.70454,-3.00037 -6.70454,-6.70454 0,-3.70152 3.00037,-6.70454 6.70454,-6.70454 3.69888,0 6.7019,3.00037 6.7019,6.70454"
         id="path80"
         style="fill:#008acf;stroke-width:0.264583" /><path
         class="st62"
         d="m 218.17013,214.68292 c 0,3.68035 -2.9845,6.66485 -6.66221,6.66485 -3.68035,0 -6.66485,-2.9845 -6.66485,-6.66485 0,-3.68036 2.9845,-6.66486 6.66485,-6.66486 3.67771,0 6.66221,2.98186 6.66221,6.66486"
         id="path81"
         style="fill:#008ad0;stroke-width:0.264583" /><path
         class="st63"
         d="m 218.13044,214.68292 c 0,3.65919 -2.96598,6.62517 -6.62252,6.62517 -3.65919,0 -6.62517,-2.96598 -6.62517,-6.62517 0,-3.65919 2.96598,-6.62517 6.62517,-6.62517 3.65654,0 6.62252,2.96598 6.62252,6.62517"
         id="path82"
         style="fill:#008bd0;stroke-width:0.264583" /><path
         class="st64"
         d="m 218.09075,214.68292 c 0,3.63537 -2.94745,6.58548 -6.58283,6.58548 -3.63802,0 -6.58548,-2.94746 -6.58548,-6.58548 0,-3.63538 2.95011,-6.58548 6.58548,-6.58548 3.63538,0 6.58283,2.94746 6.58283,6.58548"
         id="path83"
         style="fill:#008cd0;stroke-width:0.264583" /><path
         class="st65"
         d="m 218.05107,214.68292 c 0,3.61421 -2.93159,6.54579 -6.54315,6.54579 -3.61421,0 -6.54579,-2.93158 -6.54579,-6.54579 0,-3.61421 2.93158,-6.54579 6.54579,-6.54579 3.61156,0 6.54315,2.92893 6.54315,6.54579"
         id="path84"
         style="fill:#008cd1;stroke-width:0.264583" /><path
         class="st66"
         d="m 218.01138,214.68292 c 0,3.59304 -2.91306,6.5061 -6.50346,6.5061 -3.59304,0 -6.5061,-2.91306 -6.5061,-6.5061 0,-3.59304 2.91306,-6.50611 6.5061,-6.50611 3.5904,0 6.50346,2.91042 6.50346,6.50611"
         id="path85"
         style="fill:#008dd1;stroke-width:0.264583" /><path
         class="st67"
         d="m 217.97169,214.68292 c 0,3.57187 -2.89454,6.46642 -6.46377,6.46642 -3.57187,0 -6.46642,-2.89455 -6.46642,-6.46642 0,-3.57188 2.89455,-6.46642 6.46642,-6.46642 3.56923,-0.003 6.46377,2.89454 6.46377,6.46642"
         id="path86"
         style="fill:#008dd2;stroke-width:0.264583" /><path
         class="st68"
         d="m 217.932,214.68292 c 0,3.54806 -2.87602,6.42673 -6.42408,6.42673 -3.55071,0 -6.42673,-2.87867 -6.42673,-6.42673 0,-3.54806 2.87867,-6.42673 6.42673,-6.42673 3.54806,-0.003 6.42408,2.87602 6.42408,6.42673"
         id="path87"
         style="fill:#008ed2;stroke-width:0.264583" /><path
         class="st69"
         d="m 217.89232,214.68292 c 0,3.52689 -2.86015,6.38704 -6.3844,6.38704 -3.52689,0 -6.38969,-2.86015 -6.38969,-6.38704 0,-3.52954 2.86015,-6.38969 6.38969,-6.38969 3.52425,0 6.3844,2.86015 6.3844,6.38969"
         id="path88"
         style="fill:#008fd3;stroke-width:0.264583" /><path
         class="st69"
         d="m 217.85263,214.68292 c 0,3.50573 -2.84163,6.34735 -6.34471,6.34735 -3.50573,0 -6.35,-2.84162 -6.35,-6.34735 0,-3.50573 2.84163,-6.34736 6.35,-6.34736 3.50308,-0.003 6.34471,2.84163 6.34471,6.34736"
         id="path89"
         style="fill:#008fd3;stroke-width:0.264583" /><path
         class="st70"
         d="m 217.81294,214.68292 c 0,3.48192 -2.8231,6.30767 -6.30502,6.30767 -3.48456,0 -6.31031,-2.82575 -6.31031,-6.30767 0,-3.48456 2.82575,-6.30767 6.31031,-6.30767 3.48192,-0.003 6.30502,2.82311 6.30502,6.30767"
         id="path90"
         style="fill:#0090d3;stroke-width:0.264583" /><path
         class="st71"
         d="m 217.77325,214.68292 c 0,3.46075 -2.80722,6.26798 -6.26797,6.26798 -3.4634,0 -6.27063,-2.80723 -6.27063,-6.26798 0,-3.46075 2.80723,-6.26798 6.27063,-6.26798 3.46339,-0.003 6.26797,2.80458 6.26797,6.26798"
         id="path91"
         style="fill:#0091d4;stroke-width:0.264583" /><path
         class="st71"
         d="m 217.73357,214.68292 c 0,3.43958 -2.78871,6.22829 -6.22829,6.22829 -3.43959,0 -6.23094,-2.78871 -6.23094,-6.22829 0,-3.43958 2.78871,-6.22829 6.23094,-6.22829 3.43958,-0.003 6.22829,2.78606 6.22829,6.22829"
         id="path92"
         style="fill:#0091d4;stroke-width:0.264583" /><path
         class="st72"
         d="m 217.69388,214.68292 c 0,3.41842 -2.77019,6.1886 -6.1886,6.1886 -3.41842,0 -6.19125,-2.77018 -6.19125,-6.1886 0,-3.41842 2.77283,-6.18861 6.19125,-6.18861 3.41841,-0.003 6.1886,2.76755 6.1886,6.18861"
         id="path93"
         style="fill:#0092d5;stroke-width:0.264583" /><path
         class="st72"
         d="m 217.65419,214.68292 c 0,3.39725 -2.75431,6.14892 -6.14891,6.14892 -3.39725,0 -6.15157,-2.75432 -6.15157,-6.14892 0,-3.39725 2.75432,-6.14892 6.15157,-6.14892 3.39725,-0.003 6.14891,2.75167 6.14891,6.14892"
         id="path94"
         style="fill:#0092d5;stroke-width:0.264583" /><path
         class="st73"
         d="m 217.6145,214.68292 c 0,3.37344 -2.73579,6.10923 -6.10922,6.10923 -3.37609,0 -6.11188,-2.73579 -6.11188,-6.10923 0,-3.37608 2.73579,-6.11188 6.11188,-6.11188 3.37608,0 6.10922,2.7358 6.10922,6.11188"
         id="path95"
         style="fill:#0093d6;stroke-width:0.264583" /><path
         class="st74"
         d="m 217.57482,214.68292 c 0,3.35227 -2.71727,6.06954 -6.06954,6.06954 -3.35228,0 -6.07219,-2.71727 -6.07219,-6.06954 0,-3.35227 2.71727,-6.07219 6.07219,-6.07219 3.35227,0 6.06954,2.71727 6.06954,6.07219"
         id="path96"
         style="fill:#0094d6;stroke-width:0.264583" /><path
         class="st74"
         d="m 217.53778,214.68292 c 0,3.3311 -2.7014,6.02985 -6.02986,6.02985 -3.3311,0 -6.0325,-2.70139 -6.0325,-6.02985 0,-3.33111 2.7014,-6.0325 6.0325,-6.0325 3.32846,0 6.02986,2.69875 6.02986,6.0325"
         id="path97"
         style="fill:#0094d6;stroke-width:0.264583" /><path
         class="st75"
         d="m 217.49809,214.68292 c 0,3.30994 -2.68288,5.99017 -5.99017,5.99017 -3.30994,0 -5.99281,-2.68288 -5.99281,-5.99017 0,-3.30994 2.68287,-5.99281 5.99281,-5.99281 3.30729,0 5.99017,2.68287 5.99017,5.99281"
         id="path98"
         style="fill:#0095d7;stroke-width:0.264583" /><path
         class="st75"
         d="m 217.4584,214.68292 c 0,3.28612 -2.66435,5.95312 -5.95048,5.95312 -3.28877,0 -5.95312,-2.66435 -5.95312,-5.95312 0,-3.28877 2.66435,-5.95313 5.95312,-5.95313 3.28613,0 5.95048,2.66436 5.95048,5.95313"
         id="path99"
         style="fill:#0095d7;stroke-width:0.264583" /><path
         class="st76"
         d="m 217.41871,214.68292 c 0,3.26496 -2.64848,5.91344 -5.91079,5.91344 -3.26496,0 -5.91344,-2.64848 -5.91344,-5.91344 0,-3.26496 2.64848,-5.91344 5.91344,-5.91344 3.26231,0 5.91079,2.64583 5.91079,5.91344"
         id="path100"
         style="fill:#0096d8;stroke-width:0.264583" /><path
         class="st77"
         d="m 217.37903,214.68292 c 0,3.24379 -2.62996,5.87375 -5.87111,5.87375 -3.24379,0 -5.87375,-2.62996 -5.87375,-5.87375 0,-3.24379 2.62996,-5.87375 5.87375,-5.87375 3.24115,0 5.87111,2.62996 5.87111,5.87375"
         id="path101"
         style="fill:#0097d8;stroke-width:0.264583" /><path
         class="st78"
         d="m 217.33934,214.68292 c 0,3.22262 -2.61144,5.83406 -5.83142,5.83406 -3.22262,0 -5.83406,-2.61144 -5.83406,-5.83406 -0.003,-3.22263 2.61144,-5.83406 5.83406,-5.83406 3.21998,0 5.83142,2.61143 5.83142,5.83406"
         id="path102"
         style="fill:#0097d9;stroke-width:0.264583" /><path
         class="st79"
         d="m 217.29965,214.68292 c 0,3.19881 -2.59292,5.79437 -5.79173,5.79437 -3.20146,0 -5.79437,-2.59556 -5.79437,-5.79437 0,-3.19881 2.59556,-5.79438 5.79437,-5.79438 3.19617,0 5.79173,2.59292 5.79173,5.79438"
         id="path103"
         style="fill:#0098d9;stroke-width:0.264583" /><path
         class="st80"
         d="m 217.25996,214.68292 c 0,3.17764 -2.57704,5.75469 -5.75204,5.75469 -3.17764,0 -5.75469,-2.57705 -5.75469,-5.75469 0,-3.17765 2.57705,-5.75469 5.75469,-5.75469 3.175,-0.003 5.75204,2.5744 5.75204,5.75469"
         id="path104"
         style="fill:#0099da;stroke-width:0.264583" /><path
         class="st80"
         d="m 217.22028,214.68292 c 0,3.15648 -2.55853,5.715 -5.71236,5.715 -3.15648,0 -5.71764,-2.55852 -5.71764,-5.715 0,-3.15648 2.55852,-5.715 5.71764,-5.715 3.15383,0 5.71236,2.55852 5.71236,5.715"
         id="path105"
         style="fill:#0099da;stroke-width:0.264583" /><path
         class="st81"
         d="m 217.18059,214.68292 c 0,3.13531 -2.54,5.67531 -5.67267,5.67531 -3.13531,0 -5.67796,-2.54 -5.67796,-5.67531 0,-3.13531 2.54265,-5.67531 5.67796,-5.67531 3.13267,-0.003 5.67267,2.54 5.67267,5.67531"
         id="path106"
         style="fill:#009ada;stroke-width:0.264583" /><path
         class="st82"
         d="m 217.1409,214.68292 c 0,3.1115 -2.52412,5.63562 -5.63298,5.63562 -3.11414,0 -5.63827,-2.52412 -5.63827,-5.63562 0,-3.1115 2.52413,-5.63563 5.63827,-5.63563 3.10886,-0.003 5.63298,2.52148 5.63298,5.63563"
         id="path107"
         style="fill:#009bdb;stroke-width:0.264583" /><path
         class="st82"
         d="m 217.10121,214.68292 c 0,3.09033 -2.5056,5.59594 -5.59329,5.59594 -3.09033,0 -5.59858,-2.50561 -5.59858,-5.59594 0,-3.09033 2.5056,-5.59594 5.59858,-5.59594 3.08769,-0.003 5.59329,2.50296 5.59329,5.59594"
         id="path108"
         style="fill:#009bdb;stroke-width:0.264583" /><path
         class="st83"
         d="m 217.06153,214.68292 c 0,3.06917 -2.48709,5.55625 -5.55361,5.55625 -3.06917,0 -5.55889,-2.48708 -5.55889,-5.55625 0,-3.06917 2.48972,-5.55625 5.55889,-5.55625 3.06652,-0.003 5.55361,2.48708 5.55361,5.55625"
         id="path109"
         style="fill:#009cdc;stroke-width:0.264583" /><path
         class="st83"
         d="m 217.02184,214.68292 c 0,3.04535 -2.47121,5.51656 -5.51392,5.51656 -3.048,0 -5.51921,-2.47121 -5.51921,-5.51656 0,-3.048 2.47121,-5.51656 5.51921,-5.51656 3.04536,-0.003 5.51392,2.46856 5.51392,5.51656"
         id="path110"
         style="fill:#009cdc;stroke-width:0.264583" /><path
         class="st84"
         d="m 216.98215,214.68292 c 0,3.02419 -2.45269,5.47687 -5.47687,5.47687 -3.02684,0 -5.47953,-2.45268 -5.47953,-5.47687 0,-3.02419 2.45269,-5.47688 5.47953,-5.47688 3.02418,-0.003 5.47687,2.45005 5.47687,5.47688"
         id="path111"
         style="fill:#009ddd;stroke-width:0.264583" /><path
         class="st85"
         d="m 216.94246,214.68292 c 0,3.00302 -2.43416,5.43719 -5.43718,5.43719 -3.00303,0 -5.43984,-2.43417 -5.43984,-5.43719 0,-3.00302 2.43417,-5.43719 5.43984,-5.43719 3.00302,-0.003 5.43718,2.43152 5.43718,5.43719"
         id="path112"
         style="fill:#009edd;stroke-width:0.264583" /><path
         class="st85"
         d="m 216.90278,214.68292 c 0,2.98185 -2.41565,5.3975 -5.3975,5.3975 -2.98186,0 -5.40015,-2.41565 -5.40015,-5.3975 0,-2.98186 2.41829,-5.3975 5.40015,-5.3975 2.98185,-0.003 5.3975,2.41564 5.3975,5.3975"
         id="path113"
         style="fill:#009edd;stroke-width:0.264583" /><path
         class="st86"
         d="m 216.86309,214.68292 c 0,2.96069 -2.39977,5.35781 -5.35781,5.35781 -2.96069,0 -5.36046,-2.39977 -5.36046,-5.35781 0,-2.95804 2.39977,-5.36046 5.36046,-5.36046 2.96068,0 5.35781,2.39977 5.35781,5.36046"
         id="path114"
         style="fill:#009fde;stroke-width:0.264583" /><path
         class="st86"
         d="m 216.82605,214.68292 c 0,2.93687 -2.38125,5.31812 -5.31813,5.31812 -2.93952,0 -5.32077,-2.38125 -5.32077,-5.31812 0,-2.93688 2.38125,-5.32077 5.32077,-5.32077 2.93423,0 5.31813,2.38125 5.31813,5.32077"
         id="path115"
         style="fill:#009fde;stroke-width:0.264583" /><path
         class="st87"
         d="m 216.78636,214.68292 c 0,2.91571 -2.36538,5.27844 -5.27844,5.27844 -2.91571,0 -5.28108,-2.36273 -5.28108,-5.27844 0,-2.91571 2.36537,-5.28108 5.28108,-5.28108 2.91306,0 5.27844,2.36272 5.27844,5.28108"
         id="path116"
         style="fill:#00a0df;stroke-width:0.264583" /><path
         class="st88"
         d="m 216.74667,214.68292 c 0,2.89454 -2.34685,5.23875 -5.23875,5.23875 -2.89454,0 -5.24139,-2.34686 -5.24139,-5.23875 0,-2.89454 2.34685,-5.2414 5.24139,-5.2414 2.8919,0 5.23875,2.34686 5.23875,5.2414"
         id="path117"
         style="fill:#00a1df;stroke-width:0.264583" /><path
         class="st89"
         d="m 216.70698,214.68292 c 0,2.87337 -2.32833,5.20171 -5.19906,5.20171 -2.87337,0 -5.20171,-2.32834 -5.20171,-5.20171 0,-2.87338 2.32834,-5.20171 5.20171,-5.20171 2.87073,0 5.19906,2.32833 5.19906,5.20171"
         id="path118"
         style="fill:#00a1e0;stroke-width:0.264583" /><path
         class="st90"
         d="m 216.6673,214.68292 c 0,2.84956 -2.30982,5.16202 -5.15938,5.16202 -2.85221,0 -5.16202,-2.30981 -5.16202,-5.16202 0,-2.84956 2.31246,-5.16202 5.16202,-5.16202 2.84692,0 5.15938,2.30981 5.15938,5.16202"
         id="path119"
         style="fill:#00a2e0;stroke-width:0.264583" /><path
         class="st91"
         d="m 216.62761,214.68292 c 0,2.82839 -2.29394,5.12233 -5.11969,5.12233 -2.82839,0 -5.12233,-2.29394 -5.12233,-5.12233 0,-2.8284 2.29394,-5.12233 5.12233,-5.12233 2.82575,0 5.11969,2.29129 5.11969,5.12233"
         id="path120"
         style="fill:#00a3e0;stroke-width:0.264583" /><path
         class="st92"
         d="m 216.58792,214.68292 c 0,2.80723 -2.27542,5.08264 -5.08,5.08264 -2.80723,0 -5.08264,-2.27541 -5.08264,-5.08264 0,-2.80723 2.27541,-5.08265 5.08264,-5.08265 2.80458,0 5.08,2.27542 5.08,5.08265"
         id="path121"
         style="fill:#00a3e1;stroke-width:0.264583" /><path
         class="st93"
         d="m 216.54823,214.68292 c 0,2.78606 -2.25689,5.04296 -5.04031,5.04296 -2.78606,0 -5.04296,-2.2569 -5.04296,-5.04296 0,-2.78606 2.2569,-5.04296 5.04296,-5.04296 2.78342,0 5.04031,2.2569 5.04031,5.04296"
         id="path122"
         style="fill:#00a4e1;stroke-width:0.264583" /><path
         class="st94"
         d="m 216.50855,214.68292 c 0,2.76225 -2.24102,5.00327 -5.00063,5.00327 -2.76225,0 -5.00327,-2.24102 -5.00327,-5.00327 0,-2.76225 2.24102,-5.00327 5.00327,-5.00327 2.75961,0 5.00063,2.23837 5.00063,5.00327"
         id="path123"
         style="fill:#00a4e2;stroke-width:0.264583" /><path
         class="st95"
         d="m 216.46886,214.68292 c 0,2.74108 -2.2225,4.96358 -4.96094,4.96358 -2.74108,0 -4.96358,-2.2225 -4.96358,-4.96358 0,-2.74108 2.2225,-4.96358 4.96358,-4.96358 2.73844,0 4.96094,2.21985 4.96094,4.96358"
         id="path124"
         style="fill:#00a5e2;stroke-width:0.264583" /><path
         class="st96"
         d="m 216.42917,214.68292 c 0,2.71992 -2.20398,4.92389 -4.92125,4.92389 -2.71992,0 -4.92654,-2.20397 -4.92654,-4.92389 0,-2.71992 2.20662,-4.9239 4.92654,-4.9239 2.71727,-0.003 4.92125,2.20398 4.92125,4.9239"
         id="path125"
         style="fill:#00a6e3;stroke-width:0.264583" /><path
         class="st96"
         d="m 216.38948,214.68292 c 0,2.69875 -2.18545,4.88421 -4.88156,4.88421 -2.69875,0 -4.88685,-2.18546 -4.88685,-4.88421 0,-2.69875 2.1881,-4.88421 4.88685,-4.88421 2.69611,-0.003 4.88156,2.18546 4.88156,4.88421"
         id="path126"
         style="fill:#00a6e3;stroke-width:0.264583" /><path
         class="st97"
         d="m 216.3498,214.68292 c 0,2.67494 -2.16959,4.84452 -4.84188,4.84452 -2.67494,0 -4.84717,-2.16958 -4.84717,-4.84452 0,-2.67494 2.16959,-4.84452 4.84717,-4.84452 2.67229,-0.003 4.84188,2.16694 4.84188,4.84452"
         id="path127"
         style="fill:#00a7e3;stroke-width:0.264583" /><path
         class="st98"
         d="m 216.31011,214.68292 c 0,2.65377 -2.15106,4.80483 -4.80483,4.80483 -2.65378,0 -4.80748,-2.15106 -4.80748,-4.80483 0,-2.65377 2.15106,-4.80483 4.80748,-4.80483 2.65377,-0.003 4.80483,2.15106 4.80483,4.80483"
         id="path128"
         style="fill:#00a8e4;stroke-width:0.264583" /><path
         class="st98"
         d="m 216.27042,214.68292 c 0,2.6326 -2.13254,4.76514 -4.76514,4.76514 -2.63261,0 -4.7678,-2.13254 -4.7678,-4.76514 0,-2.63261 2.13519,-4.76515 4.7678,-4.76515 2.6326,-0.003 4.76514,2.13254 4.76514,4.76515"
         id="path129"
         style="fill:#00a8e4;stroke-width:0.264583" /><path
         class="st99"
         d="m 216.23073,214.68292 c 0,2.60879 -2.11666,4.72546 -4.72281,4.72546 -2.61144,0 -4.7281,-2.11667 -4.7281,-4.72546 0,-2.60879 2.11666,-4.72546 4.7281,-4.72546 2.60879,-0.003 4.72281,2.11402 4.72281,4.72546"
         id="path130"
         style="fill:#00a9e5;stroke-width:0.264583" /><path
         class="st100"
         d="m 216.19105,214.68292 c 0,2.58762 -2.09815,4.68577 -4.68577,4.68577 -2.58763,0 -4.68842,-2.09815 -4.68842,-4.68577 0,-2.58763 2.09814,-4.68577 4.68842,-4.68577 2.58762,-0.003 4.68577,2.0955 4.68577,4.68577"
         id="path131"
         style="fill:#00aae5;stroke-width:0.264583" /><path
         class="st101"
         d="m 216.15136,214.68292 c 0,2.56646 -2.07963,4.64608 -4.64608,4.64608 -2.56646,0 -4.64873,-2.07962 -4.64873,-4.64608 0,-2.56646 2.08227,-4.64608 4.64873,-4.64608 2.56645,-0.003 4.64608,2.07962 4.64608,4.64608"
         id="path132"
         style="fill:#00aae6;stroke-width:0.264583" /><path
         class="st102"
         d="m 216.11167,214.68292 c 0,2.54529 -2.06375,4.60639 -4.60639,4.60639 -2.5453,0 -4.60905,-2.06375 -4.60905,-4.60639 0,-2.54529 2.06375,-4.60904 4.60905,-4.60904 2.54529,0 4.60639,2.06375 4.60639,4.60904"
         id="path133"
         style="fill:#00abe6;stroke-width:0.264583" /><path
         class="st102"
         d="m 216.07198,214.68292 c 0,2.52148 -2.04523,4.56671 -4.5667,4.56671 -2.52413,0 -4.56936,-2.04523 -4.56936,-4.56671 0,-2.52148 2.04523,-4.56671 4.56936,-4.56671 2.52147,-0.003 4.5667,2.04258 4.5667,4.56671"
         id="path134"
         style="fill:#00abe6;stroke-width:0.264583" /><path
         class="st103"
         d="m 216.03494,214.68292 c 0,2.50031 -2.02671,4.52702 -4.52702,4.52702 -2.50031,0 -4.52967,-2.02671 -4.52967,-4.52702 0,-2.50031 2.02936,-4.52702 4.52967,-4.52702 2.49767,-0.003 4.52702,2.02406 4.52702,4.52702"
         id="path135"
         style="fill:#00ace7;stroke-width:0.264583" /><path
         class="st104"
         d="m 215.99525,214.68292 c 0,2.47914 -2.01083,4.48733 -4.48733,4.48733 -2.47914,0 -4.48998,-2.00819 -4.48998,-4.48733 0,-2.47915 2.01084,-4.48998 4.48998,-4.48998 2.4765,0 4.48733,2.00819 4.48733,4.48998"
         id="path136"
         style="fill:#00ade7;stroke-width:0.264583" /><path
         class="st105"
         d="m 215.95557,214.68292 c 0,2.45798 -1.99232,4.45029 -4.44765,4.45029 -2.45798,0 -4.45029,-1.99231 -4.45029,-4.45029 0,-2.45798 1.99231,-4.45029 4.45029,-4.45029 2.45533,0 4.44765,1.99231 4.44765,4.45029"
         id="path137"
         style="fill:#00ade8;stroke-width:0.264583" /><path
         class="st106"
         d="m 215.91588,214.68292 c 0,2.43417 -1.97379,4.4106 -4.40796,4.4106 -2.43681,0 -4.4106,-1.97379 -4.4106,-4.4106 0,-2.43681 1.97643,-4.41061 4.4106,-4.41061 2.43417,0 4.40796,1.9738 4.40796,4.41061"
         id="path138"
         style="fill:#00aee8;stroke-width:0.264583" /><path
         class="st107"
         d="m 215.87619,214.68292 c 0,2.413 -1.95791,4.37092 -4.36827,4.37092 -2.41564,0 -4.37092,-1.95528 -4.37092,-4.37092 0,-2.41565 1.95792,-4.37092 4.37092,-4.37092 2.41036,0 4.36827,1.95527 4.36827,4.37092"
         id="path139"
         style="fill:#00afe8;stroke-width:0.264583" /><path
         class="st108"
         d="m 215.8365,214.68292 c 0,2.39183 -1.93939,4.33123 -4.32858,4.33123 -2.39183,0 -4.33123,-1.9394 -4.33123,-4.33123 0,-2.39183 1.9394,-4.33123 4.33123,-4.33123 2.38919,0 4.32858,1.93675 4.32858,4.33123"
         id="path140"
         style="fill:#00afe9;stroke-width:0.264583" /><path
         class="st109"
         d="m 215.79682,214.68292 c 0,2.37067 -1.92088,4.29154 -4.2889,4.29154 -2.37067,0 -4.29154,-1.92087 -4.29154,-4.29154 0,-2.37067 1.92087,-4.29154 4.29154,-4.29154 2.36802,0 4.2889,1.92087 4.2889,4.29154"
         id="path141"
         style="fill:#00b0e9;stroke-width:0.264583" /><path
         class="st110"
         d="m 215.75713,214.68292 c 0,2.34685 -1.905,4.25185 -4.24921,4.25185 -2.3495,0 -4.25185,-1.90235 -4.25185,-4.25185 0,-2.3495 1.905,-4.25186 4.25185,-4.25186 2.34421,0 4.24921,1.90236 4.24921,4.25186"
         id="path142"
         style="fill:#00b1ea;stroke-width:0.264583" /><path
         class="st110"
         d="m 215.71744,214.68292 c 0,2.32569 -1.88648,4.21217 -4.20952,4.21217 -2.32569,0 -4.21217,-1.88648 -4.21217,-4.21217 0,-2.32569 1.88648,-4.21217 4.21217,-4.21217 2.32304,0 4.20952,1.88384 4.20952,4.21217"
         id="path143"
         style="fill:#00b1ea;stroke-width:0.264583" /><path
         class="st111"
         d="m 215.67775,214.68292 c 0,2.30452 -1.86795,4.17248 -4.16983,4.17248 -2.30452,0 -4.17512,-1.86796 -4.17512,-4.17248 0,-2.30452 1.86795,-4.17248 4.17512,-4.17248 2.30188,0 4.16983,1.86796 4.16983,4.17248"
         id="path144"
         style="fill:#00b2eb;stroke-width:0.264583" /><path
         class="st111"
         d="m 215.63807,214.68292 c 0,2.28335 -1.84944,4.13279 -4.13015,4.13279 -2.28335,0 -4.13544,-1.84944 -4.13544,-4.13279 0,-2.28336 1.85209,-4.13279 4.13544,-4.13279 2.28071,-0.003 4.13015,1.84943 4.13015,4.13279"
         id="path145"
         style="fill:#00b2eb;stroke-width:0.264583" /><path
         class="st112"
         d="m 215.59838,214.68292 c 0,2.25954 -1.83356,4.0931 -4.09046,4.0931 -2.26219,0 -4.09575,-1.83356 -4.09575,-4.0931 0,-2.25954 1.83356,-4.09311 4.09575,-4.09311 2.2569,-0.003 4.09046,1.83092 4.09046,4.09311"
         id="path146"
         style="fill:#00b3eb;stroke-width:0.264583" /><path
         class="st113"
         d="m 215.55869,214.68292 c 0,2.23837 -1.81504,4.05342 -4.05077,4.05342 -2.23837,0 -4.05606,-1.81505 -4.05606,-4.05342 0,-2.23838 1.81504,-4.05342 4.05606,-4.05342 2.23573,-0.003 4.05077,1.8124 4.05077,4.05342"
         id="path147"
         style="fill:#00b4ec;stroke-width:0.264583" /><path
         class="st113"
         d="m 215.519,214.68292 c 0,2.21721 -1.79652,4.01373 -4.01372,4.01373 -2.21721,0 -4.01638,-1.79652 -4.01638,-4.01373 0,-2.21721 1.79917,-4.01373 4.01638,-4.01373 2.2172,-0.003 4.01372,1.79652 4.01372,4.01373"
         id="path148"
         style="fill:#00b4ec;stroke-width:0.264583" /><path
         class="st114"
         d="m 215.47932,214.68292 c 0,2.19604 -1.78065,3.97404 -3.97404,3.97404 -2.19605,0 -3.97669,-1.778 -3.97669,-3.97404 0,-2.19604 1.78064,-3.97404 3.97669,-3.97404 2.19604,-0.003 3.97404,1.778 3.97404,3.97404"
         id="path149"
         style="fill:#00baef;stroke-width:0.264583" /><path
         class="st115"
         d="m 216.48209,214.68292 c 0,2.74637 -2.22779,4.97681 -4.97681,4.97681 -2.74903,0 -4.97682,-2.22779 -4.97682,-4.97681 0,-2.74902 2.22779,-4.97681 4.97682,-4.97681 2.74902,0 4.97681,2.22779 4.97681,4.97681"
         id="path150"
         style="fill:#040000;stroke-width:0.264583" /><path
         class="st116"
         d="m 210.3808,209.96011 c 0,1.20914 -0.98161,2.1881 -2.19075,2.1881 -1.20915,0 -2.18811,-0.97896 -2.18811,-2.1881 0,-1.20915 0.97896,-2.18811 2.18811,-2.18811 1.20914,0 2.19075,0.97896 2.19075,2.18811"
         id="path151"
         style="fill:#ffffff;stroke-width:0.264583" /><path
         class="st1"
         d="m 233.56359,215.40788 c -0.65881,0.22225 -1.8759,0.52652 -3.14061,0.52652 -1.71714,0 -2.93952,-0.41804 -3.78089,-1.21973 -0.78317,-0.7329 -1.21444,-1.77271 -1.21444,-2.92894 0,-2.68817 2.12196,-4.37621 5.1779,-4.37621 1.22502,0 2.17487,0.23019 2.64054,0.44979 l -0.43392,1.55046 c -0.5371,-0.22754 -1.18004,-0.4101 -2.27012,-0.4101 -1.73302,0 -3.03477,0.92604 -3.03477,2.62467 0,1.62983 1.19062,2.73314 3.00037,2.73314 0.52123,0 0.94456,-0.0609 1.12183,-0.14287 v -1.66952 h -1.47108 v -1.52136 h 3.40519 z"
         id="path152"
         style="fill:#0069b5;stroke-width:0.264583" /><rect
         class="st1"
         x="235.15109"
         y="206.97826"
         width="1.5927917"
         height="8.8688335"
         id="rect152"
         style="fill:#0069b5;stroke-width:0.264583" /><path
         class="st1"
         d="m 241.42171,214.85754 c -0.97896,0 -1.69333,-0.80698 -1.69333,-2.01612 0,-1.0504 0.5371,-2.03729 1.73037,-2.03729 1.17475,0 1.68275,1.03716 1.68275,2.01083 0,1.31498 -0.75935,2.04258 -1.70391,2.04258 z m -0.0132,1.13771 c 1.73832,0 3.39725,-1.09273 3.39725,-3.2385 0,-1.77535 -1.31498,-3.09033 -3.28612,-3.09033 -2.04788,0 -3.429,1.30704 -3.429,3.21998 0,1.90235 1.46314,3.10885 3.30729,3.10885 z"
         id="path153"
         style="fill:#0069b5;stroke-width:0.264583" /><path
         class="st1"
         d="m 247.74525,212.49481 c 0,-0.15345 0.0212,-0.27781 0.0503,-0.39687 0.1905,-0.76465 0.8546,-1.22238 1.56633,-1.22238 1.12712,0 1.72244,0.88107 1.72244,1.92353 0,1.21972 -0.68792,1.95262 -1.74625,1.95262 -0.80169,0 -1.4023,-0.55562 -1.5584,-1.16681 -0.0238,-0.11377 -0.0344,-0.23284 -0.0344,-0.3519 z m -1.59279,1.64042 c 0,0.65881 -0.0212,1.32027 -0.0503,1.71186 h 1.35996 l 0.0661,-0.96044 h 0.0238 c 0.48419,0.80698 1.28587,1.11125 2.13783,1.11125 1.47373,0 3.01625,-1.07421 3.01625,-3.25173 0.0132,-1.85738 -1.18533,-3.07711 -2.79135,-3.07711 -1.01336,0 -1.75419,0.42069 -2.14577,1.03717 h -0.0238 v -3.72798 h -1.59279 z"
         id="path154"
         style="fill:#0069b5;stroke-width:0.264583" /><path
         class="st1"
         d="m 257.50838,213.65104 c 0,0.10584 -0.0106,0.23019 -0.045,0.33867 -0.1614,0.43392 -0.63765,0.88371 -1.33879,0.88371 -0.54504,0 -0.94192,-0.2884 -0.94192,-0.84931 0,-0.87577 1.06098,-1.12977 2.32569,-1.10861 z m 1.54517,-1.37583 c 0,-1.33615 -0.60325,-2.60879 -2.667,-2.60879 -1.0213,0 -1.84944,0.26458 -2.36009,0.56885 l 0.3175,1.01865 c 0.43921,-0.27517 1.143,-0.48948 1.78859,-0.48948 1.2065,-0.005 1.3335,0.7276 1.3335,1.0451 v 0.0794 c -2.50561,-0.0159 -3.8788,0.79375 -3.8788,2.30452 0,0.87577 0.68792,1.79652 2.032,1.79652 0.86519,0 1.55575,-0.35983 1.94469,-0.84137 h 0.0397 l 0.11377,0.69056 h 1.43669 c -0.0661,-0.36248 -0.0979,-0.90488 -0.0979,-1.47902 v -2.08492 z"
         id="path155"
         style="fill:#0069b5;stroke-width:0.264583" /><rect
         class="st1"
         x="260.81567"
         y="206.97826"
         width="1.5927917"
         height="8.8688335"
         id="rect155"
         style="fill:#0069b5;stroke-width:0.264583" /><path
         class="st1"
         d="m 264.30817,213.8045 c 0.55563,0.29369 1.40758,0.59267 2.33363,0.59267 0.89958,0 1.38377,-0.34925 1.38377,-0.89694 0,-0.48419 -0.40482,-0.78581 -1.50284,-1.10331 -1.47637,-0.42598 -2.54529,-1.14565 -2.54529,-2.51883 0,-1.44992 1.29911,-2.52413 3.33375,-2.52413 1.08479,0 1.82827,0.20108 2.40242,0.46038 l -0.46831,1.5531 c -0.36248,-0.1614 -1.04246,-0.43392 -1.97115,-0.43392 -0.86254,0 -1.27529,0.36777 -1.27529,0.78846 0,0.53975 0.53181,0.76465 1.67746,1.12977 1.60073,0.51329 2.38125,1.25677 2.38125,2.53736 0,1.34673 -1.04775,2.60879 -3.56923,2.60879 -1.03717,0 -2.08492,-0.28575 -2.61144,-0.57944 z"
         id="path156"
         style="fill:#0069b5;stroke-width:0.264583" /><path
         class="st1"
         d="m 271.47838,209.81723 h 1.59544 v 6.02986 h -1.59544 z m 0.78581,-0.93398 c -0.56621,0 -0.92075,-0.39952 -0.92075,-0.87841 0,-0.4789 0.36513,-0.87313 0.93927,-0.87313 0.57415,0 0.92604,0.38894 0.93134,0.87313 0,0.47625 -0.35455,0.87841 -0.93928,0.87841 z"
         id="path157"
         style="fill:#0069b5;stroke-width:0.264583" /><path
         class="st1"
         d="m 279.20421,213.07161 c 0,0.17198 -0.0212,0.38629 -0.0688,0.54504 -0.17992,0.56885 -0.73554,1.02129 -1.41552,1.02129 -1.10331,0 -1.66423,-0.89958 -1.66423,-1.82827 0,-1.26206 0.75142,-1.96321 1.66688,-1.96321 0.73289,0 1.25147,0.44185 1.43668,1.0795 0.0318,0.12171 0.0423,0.25665 0.0423,0.40217 v 0.74348 z m 1.59279,-1.57692 c 0,-0.82815 0.0185,-1.2991 0.0503,-1.67746 h -1.38906 l -0.0503,0.85725 h -0.0265 c -0.31485,-0.52652 -0.91281,-1.00542 -1.96585,-1.00542 -1.58221,0 -2.97921,1.24355 -2.97921,3.19617 0,1.73831 1.21708,2.94217 2.79929,2.94217 0.90488,0 1.58221,-0.39952 1.97379,-0.96309 h 0.0238 v 0.52917 c 0,1.35731 -0.8599,1.88648 -1.91823,1.88648 -0.80963,0 -1.53988,-0.26723 -1.96586,-0.53446 l -0.34925,1.20915 c 0.56092,0.35454 1.47902,0.53975 2.3204,0.53975 0.84667,0 1.8071,-0.15081 2.51354,-0.75936 0.6985,-0.60854 0.96573,-1.58485 0.96573,-2.79664 v -3.42371 z"
         id="path158"
         style="fill:#0069b5;stroke-width:0.264583" /><path
         class="st1"
         d="m 282.56442,211.64021 c 0,-0.70115 -0.0212,-1.30704 -0.0503,-1.82562 h 1.39435 l 0.0767,0.97102 h 0.0397 c 0.25929,-0.46302 0.96308,-1.11919 2.08492,-1.11919 1.06891,0 2.34421,0.64294 2.34421,2.71992 v 3.4581 h -1.5928 v -3.25967 c 0,-0.9525 -0.381,-1.63512 -1.29645,-1.63512 -0.70115,0 -1.16417,0.48683 -1.33615,0.94721 -0.0529,0.1217 -0.0741,0.30427 -0.0741,0.46302 v 3.48985 h -1.5928 v -4.20952 z"
         id="path159"
         style="fill:#0069b5;stroke-width:0.264583" /><path
         class="st115"
         d="m 290.1315,214.66175 c 0,0.89694 1.03717,1.55311 1.9738,0.83344 0.71966,-0.93663 0.0609,-1.97379 -0.83344,-1.97379 -0.62971,0 -1.14036,0.51329 -1.14036,1.14035 m 0.12965,0 c 0,-0.79375 0.9181,-1.37583 1.7489,-0.74083 0.63764,0.83079 0.0556,1.75154 -0.73819,1.75154 -0.55827,0 -1.01071,-0.45244 -1.01071,-1.01071"
         id="path160"
         style="fill:#040000;stroke-width:0.264583" /><path
         class="st115"
         d="m 290.95171,214.14846 h 0.4154 c 0.0979,0 0.16933,0.0185 0.21431,0.0608 0.045,0.0423 0.0661,0.0926 0.0661,0.15611 0,0.0423 -0.0106,0.082 -0.0344,0.11906 -0.0238,0.037 -0.0582,0.0635 -0.10054,0.0794 -0.045,0.0185 -0.10848,0.0264 -0.18786,0.0264 h -0.37306 z m 0,1.1721 v -0.58472 h 0.20109 c 0.045,0 0.0767,0.003 0.0979,0.005 0.0265,0.008 0.0529,0.0185 0.0794,0.0344 0.0265,0.0185 0.0529,0.0476 0.0873,0.09 0.0318,0.0423 0.0741,0.10319 0.12435,0.17992 l 0.17198,0.27252 h 0.21696 l -0.22754,-0.35719 c -0.045,-0.0688 -0.0926,-0.127 -0.14288,-0.17462 -0.0238,-0.0212 -0.0609,-0.0423 -0.10583,-0.0662 0.127,-0.0185 0.2196,-0.0582 0.27781,-0.12435 0.0609,-0.0635 0.09,-0.14288 0.09,-0.23813 0,-0.0741 -0.0185,-0.14023 -0.0556,-0.20108 -0.0344,-0.0609 -0.0847,-0.10054 -0.14552,-0.127 -0.0609,-0.0238 -0.15081,-0.0344 -0.26723,-0.0344 h -0.58473 v 1.32027 h 0.18256 z"
         id="path161"
         style="fill:#040000;stroke-width:0.264583" /></g></g></svg>
