<?xml version="1.0" encoding="UTF-8"?>
<svg id="_图层_1" data-name="图层 1" xmlns="http://www.w3.org/2000/svg" viewBox="0 0 841.89 241.82">
  <defs>
    <style>
      .cls-1 {
        fill-rule: evenodd;
      }

      .cls-1, .cls-2 {
        stroke-width: 0px;
      }

      .cls-1, .cls-2, .cls-3 {
        fill: #6a005f;
      }

      .cls-3 {
        font-family: Georgia-Bold, Georgia;
        font-size: 31.27px;
        font-weight: 700;
        letter-spacing: .06em;
      }
    </style>
  </defs>
  <text class="cls-3" transform="translate(276.88 205.94)"><tspan x="0" y="0">NANJING UNIVERSITY</tspan></text>
  <g>
    <path class="cls-1" d="M122.19,39.61c6.86,4,15.89,6.82,26.7,6.92,11.08.13,20.49-2.04,27.27-6.34,6.84,4.28,16.35,6.51,27.32,6.34,10.61-.14,19.96-2.92,26.71-6.86.13,15.93-.25,31.12-.25,46.97s.85,32.09-3.18,44.13c-1.96,5.91-4.92,10.86-8.25,15.5-3.28,4.6-7.35,8.63-11.73,11.95-4.55,3.46-9.8,5.92-15.14,8.61-4.58,2.3-9.18,4.68-13.64,7.11-.62.34-1.35.57-1.8,1.17-2.4-1.62-5.02-2.92-7.61-4.28-2.61-1.34-5.25-2.71-7.87-4.05-2.7-1.38-5.4-2.56-7.96-3.92-2.56-1.35-4.89-2.93-7.17-4.69-8.97-6.85-15.9-15.73-20-27.54-2.1-6.1-2.7-13.08-3.07-20.63-.34-7.45-.16-15.38-.16-23.11,0-15.75-.22-31.22-.22-47.09-.01-.09-.01-.17.04-.17ZM173.45,45.27c-9.43,4.16-24.29,5.37-36.34,2.94-3.77-.76-7.2-1.78-10.18-3.16-.4-.19-.84-.51-1.33-.47-.14,14.65.24,29.85.24,43.97,0,7.34-.35,14.85-.06,21.84.32,6.96,1.11,13.56,3.01,19.24,1.88,5.57,4.39,10.37,7.52,14.73,4.67,6.54,10.33,11.96,17.49,15.84,2.41,1.29,4.95,2.43,7.52,3.62,5.02,2.35,10.03,4.8,15.02,7.24,4.97-2.48,10.02-4.82,14.97-7.24,2.55-1.23,5.11-2.28,7.5-3.58,4.76-2.53,8.81-5.93,12.41-9.74,5.38-5.67,9.78-12.72,12.44-20.92,3.73-11.52,2.96-26.11,2.96-40.86s.04-29.49.15-44.13c-.45,0-.89.28-1.32.47-3.1,1.36-6.44,2.5-10.16,3.23-8.76,1.7-19.5,1.45-27.74-.35-4.25-.92-8.01-2.35-11.33-4.04-.69.55-1.7.92-2.77,1.39Z"/>
    <path class="cls-1" d="M177.39,49.89c4.64.5,8.13,2.93,10.23,6.37.28.45.74,1.18.7,1.53-.06.38-.34.68-.7.65-.46-.02-.59-.65-.93-1.22-1.77-3.1-4.63-5.23-8.72-5.95.19.94.62,1.85.99,2.83.34.96.71,1.96,1.04,2.9.16.17-.02.4,0,.63.74-.05,1.57-.02,1.45.8-.16,1.06-3.33.26-4.51.52-.13.82-.02,1.9-.05,2.81.64.39,3.71-.32,4.33.13.18.12.26.49.24.69-.17,1.16-3.28.21-4.51.51-.18.96.27,2.31-.7,2.38-.92.05-.66-1.22-.69-2.32-1.16-.42-4.33.61-4.57-.51-.32-1.59,3.4-.44,4.5-.88.11-.78.11-1.97,0-2.77-1.03-.39-4.29.54-4.5-.51-.17-.81.64-.94,1.39-.86.16-.15-.09-.34,0-.58.75-1.87,1.36-3.87,2.14-5.72-4.95.68-8.08,3.68-9.65,7.9.54-.02,1.35-.33,2.42-.52,1.14-.19,3.44-.72,2.77.87-.93.3-1.99.27-2.96.47-.94.18-1.8.52-2.59.8-.15.29-.19.7-.24,1.1.84-.13,1.71-.49,2.83-.7.8-.14,3.2-.72,2.96.58-.11.57-.79.49-1.33.53-1.54.1-3.48.6-4.46,1.15-.04.2,0,.66.06.92.94-.25,1.63-.45,2.83-.64.75-.1,2.55-.6,2.72.24.25,1.2-1.87.86-2.88,1.04-1.11.2-1.77.51-2.43.74.25.57.26,1.3-.3,1.39-1.16.26-1.29-2.46-1.33-3.57-.04-1.69.19-3.19.54-4.34,1.52-5.23,5.6-8.58,11.55-9.46.43-.63.43-1.9,1.27-1.81.74.07.66,1.31,1.1,1.87ZM176.99,52.6c-.19-.49-.39-1.59-.94-1.49-.98,2.01-1.63,4.35-2.49,6.53.49.02,1.43-.02,1.91,0-.36-1.94,1.84-2.06,1.39,0h1.97c-.56-1.49-1.26-3.42-1.84-5.04Z"/>
    <path class="cls-1" d="M148.96,54.91c.29.23-.1.58.05.8.84-.16,1.88.48,1.96.93.12.58-.53,1.2-.35,1.96,1.42.9,1.76,2.87,3.37,3.6.7,1.32,1.16,3.31.86,5.13-.24,1.38-1.61,1.53-1.33,3.35.13.78.6,2.36,1.16,2.6.36.16.86-.03,1.22.22.29.35.15,1.12-.06,1.46-1.11.2-1.52,1.38-2.89.92-.52-.19-1.42-.78-1.67-1.22-.17-.28-.15-.68-.29-.98-.29-.65-.8-1.05-1.1-1.51-.84.26-3.41-.18-3,1.17.19.6,2.23.3,1.56,1.84-.24.54-1.99,1.29-2.66,1.44-.24.04-.66.08-.82.05-.21-.02-.41-.22-.69-.29-.56-.11-1.31.14-1.91,0-.37-.06-1.37-.78-1.74-1.09-.24-.21-.71-.79-.79-1.04-.27-.63-.1-1.16-.77-1.45-.3-.13-.68-.08-1.03-.17-.62-.15-1.29-.66-1.79-.28-.63.7.36,1,.69,1.61.31.58.12,1.01.18,1.84-.2.28-.64.78-1.16.87-.7.13-1.64-.4-2.62-.63-.63-.16-1.59-.16-1.71-.8-.09-.41.32-.64.4-.99.12-.46-.14-.83.17-1.2-.44-.68-.25-1.73-.29-2.95-.04-1.33-.02-2.23.29-3.18.12-.34.14-.74.25-.93.17-.41,1.36-1.36,1.84-1.61,1.09-.61,2.91-1.09,4.85-.82.41.04.77.39,1.16.46.73.13,1.71-.08,2.49,0,.24-.14.43-.29.58-.52.06-1.25-.64-1.75-.99-2.6.16-1.27-.21-2.7.24-3.91.12-.34.69-1.31.99-1.64.29-.33.9-.8,1.26-.87.66-.12,1.78.26,2.42.47.36-.26,1.18-.26,1.68-.07ZM145.54,57.52c.58.14.79-.56,1.05-.93-.15-.28-.07-.8-.47-.81.05.83-.34,1.2-.58,1.75ZM143.42,57.28c.06.09.23.08.41.08.15-.34.2-.8.38-1.09-.5-.16-.84.61-.79,1.02ZM147.05,57.47c-.53.41-1.53.81-1.21,1.67.04.01.11,0,.11.04.66-.19.85-.9,1.33-1.32.41-.34,1.16-.57,1.09-1.35-.67-.25-.9.6-1.32.95ZM147.05,60.17s.12.12.12.15c.21.14.36-.13.62-.15.47-.04.81.23,1.1.23.28-.27.03-.76-.29-.8-.39.62-1.75-.5-1.55.58ZM150.74,59.59c-.3-.03-.42.3-.4.51.04.4.75.84,1.16.81-.13-.25-.47-1.29-.76-1.33ZM145.71,60.46c-.47.18-.74.61-.86,1.14.39.16.46-.39.79-.44.4.21.39.82.82.97.11.17.62-.06.64.17,0,.31-.49.31-.81.47-.34.17-.98.67-1.5,1-.92.52-2.12,1.21-.75,1.82.15-.12,0-.41.06-.55.11-.28,1.24-1.08,1.37-1.1.24-.04.5.13.71.1.6-.08.74-.65,1.26-.88.33.07.67.14,1.12.13.52.18.25,1.18.86,1.29.28-.39.06-.92.41-1.29-.06-.37-.4-.47-.35-.91.1-.23.35-.28.58-.37.55.4.44,1.45.98,1.84.47-.29.59-1.34.3-1.84-.26-.42-1.05-.58-1.22-.9-1.35.01-2.38.34-3.41.66-.41-.34-.58-.94-.99-1.32ZM152.36,64.17c.43-.25.19-1.15-.28-1.17-.2.33-.2,1.16.28,1.17ZM146.92,64.67c.13.31.61.25.7.58-.17.64.37.96.47,1.51-.34.49-.88.04-1.04-.29-.26.04-.42.17-.42.46,1.33.09.6,1.63-.23,1.9-.25.11-.59,0-.87.06-.32.08-.62.45-.98.58-.55.19-1.05.03-1.38.3-.17.67-.09,1.51.41,1.5.49-.02.47-1,.97-1.16.72.12.64-.45,1.04-.58.21-.09.46.06.74,0,.8-.23,1.02-1.26,1.51-1.87,1.31.16,1.63-.97,1.67-1.9-.73.14-1.61.24-1.74-.4-.06-.46.35-.66.47-1.1-.34-.59-1.25-.13-1.34.4ZM136.19,64.85c-.26,0-.2-.31-.51-.24.04.44-.37.44-.47.69.06.31.47.31.58.59.91-.02,1.16-.69,1.95-.81-.15-1.07-.96-.58-1.54-.23ZM139.02,64.45c-.21.33.02.89.34,1.04.54-.23.36-1.14-.34-1.04ZM142.02,66.81c.25-.29.13-1.03-.3-1.03-.17.24-.26,1.16.3,1.03ZM132.72,67.41c.36.2,1.22.27,1.5-.07-.2-.4-.2-.74-.17-1.09-.58.23-1.14.53-1.33,1.16ZM142.3,67.67c.47.09,1.41.2,1.52-.27-.24-.6-1.61-.57-1.52.27ZM135.78,68.78c-.26.02-.15-.31-.41-.29-.34.01-.34.36-.64.41-.12-.04-.19-.13-.41-.12-.13.12-.32.18-.28.45.3-.13.39-.08.63.06.1-.11.06-.33.29-.33-.04.86-.57,1.75-1.56,1.83-.1.46-.4.69-.7.93-.24,1.06.06,2.04,1.09,2.04.07-.19.05-.49.06-.77-.3-.28-.58-.57-.46-1.26.16-.14.36-.25.69-.24.44-.41.82-.9,1.1-1.5-.19-.64.47-1.09.75-.57,0,.17-.18.47.11.46.24-.06,0-.24,0-.41.29-.38.92-.4,1.1-.87-.44-.69-.91-.02-1.38.17ZM133,69.84c.32-.27.43-.9.24-1.35-.58,0-.69,1.11-.24,1.35ZM140.41,69.99c.04.22.48.11.63.07,0-.08.02-.13.07-.17-.09-.14-.26-.23-.42-.29.06.29-.3.15-.28.4ZM145.31,70.69c-.22.11-.46.18-.57.41-.08.39.15,1.08-.18,1.21-.56-.4-.97-.1-1.34.3-.28-.05-.37-.32-.79-.24-.04.19-.21.9.11.92.32-.06-.17-.6.24-.6.11.28.3.45.45.66-.02.43-.17,1.3.06,1.62.69-.21.03-1.75.88-1.81.28.16.2.69.23,1.1.25.11.54.48.97.53.47.05,1.32-.11,1.5-.46-.3-.23-.79-.25-1.03-.53-.1-.06-.06-.3-.06-.45-.57-.39-.84-1.35-.58-2.21.09-.28.66-.68.17-.99-.09.1-.04.34-.06.53ZM134.56,74.04v.16c.51-.05.63.57,1.05.42-.13-.4-.62-.69-1.05-.58Z"/>
    <path class="cls-1" d="M217.25,72.37c-.56-.37-1.29.15-1.87.28-.7.17-1.32.16-1.61.76-.13.28-.06.59-.17.86-.47,1.13-1.57,1.42-2.42,2.13-.58.11-1.26-.12-1.96,0-.47.09-.7.39-1.45.24-1.07-.19-2.54-.9-2.78-1.5-.46-1.16.8-1.35,1.56-1.67.21-1.16-.63-.98-1.63-1.09-.47-.06-1.02-.25-1.28-.18-.26.08-.96.96-1.2,1.51-.13.28-.11.66-.24.92-.34.69-1.67,1.42-2.42,1.37-.96-.03-1.12-.88-2.2-1.02-.25-.48-.33-1.17,0-1.46.27-.22,1-.11,1.33-.35.4-.28,1.3-2.58.99-3.69-.2-.71-1.13-1.33-1.28-1.9-.04-.21-.06-.7-.06-1,0-1.39.04-3.29.88-4.32.34-.44.96-.66,1.39-1.1.77-.84.88-2.19,2.01-2.48-.03-.8-.26-1.37-.41-2.04.43-.53.88-1.05,1.96-.93.18-.26-.23-.56.05-.8.46-.17,1.31-.21,1.61.07.61-.26,1.31-.37,1.98-.47,1.19-.18,1.86,1.02,2.3,1.81.32.56.6.89.7,1.78.04.41,0,.93,0,1.46,0,.46.05,1.01,0,1.32-.2,1.15-1.86,2.42-.4,3.17.76-.1,1.65.15,2.46,0,.43-.08.84-.42,1.1-.46.87-.15,1.92-.09,2.61,0,1.69.23,3.02,1.33,4.09,2.32.02.67.53,1.25.64,2,.17,1.2.13,3.1-.05,4.29-.1.6-.31,1.17-.12,2.02.09.39.43.61.4.93-.05.76-1.02.76-1.83.99-1.46.4-3,1.12-3.64-.34.03-.86-.1-1.29.24-1.87.3-.56,1.18-.75.69-1.54ZM207.95,57.52c.02-.38-.41-.45-.52-.81-.11-.31.14-.73-.19-1-.71.56-.1,1.95.71,1.81ZM209.62,57.35c.21.02.36-.03.45-.13-.07-.5-.28-.9-.74-1.03-.1.32.27.73.29,1.16ZM205.05,56.52c.04.97.87,1.03,1.39,1.58.41.44.52,1.02,1.03,1.09.59-.71-.54-1.52-1.15-1.78-.27-.4-.59-1.07-1.27-.89ZM203.15,60c0-.14-.22-.44-.45-.41-.26.04-.71,1.19-.71,1.33.43.03,1.18-.55,1.16-.92ZM205.57,59.83c-.27.03-.58-.28-.79-.24-.26.06-.56.72-.13.8.26-.16,1.2-.38,1.57,0,.35-.23.18-.62-.13-.8-.26-.01-.23.19-.51.24ZM207.84,60.46c-.58.26-.6,1.05-1.16,1.32-.96-.39-2.04-.64-3.37-.66-.17.39-1.12.56-1.26,1.09-.17.55,0,1.29.28,1.65.69-.3.75-2.72,1.69-1.38-.08.34-.34.53-.42.88.39.26.17.82.36,1.22.71,0,.39-1,.87-1.22.37-.09.85-.09,1.21-.19.56.4.99,1.13,1.95.78.51.53,1.48.73,1.4,1.65.44,0,.72-.47.67-.74-.04-.55-1.21-1-1.78-1.33-.33-.2-.6-.48-.92-.64-.39-.18-.92-.16-.99-.58.04-.19.39-.09.58-.1.43-.2.43-.86.88-1.05.3.05.44.57.74.44.01-.4-.35-.92-.74-1.14ZM200.85,63.86c.41.72.86-.32.57-.86-.46.02-.5.47-.57.86ZM205.18,64.28c.16.4.47.64.5,1.15-.25.64-1.19.38-1.79.4.14.82.3,2.07,1.67,1.81.45.7.79,1.47,1.52,1.91,1.01-.39.92.62,1.78.58.51.15.49,1.13.98,1.16.57.04.6-1,.42-1.57-.49-.2-.93-.03-1.46-.24-.25-.1-.43-.43-.69-.51-.39-.13-.8.02-1.16-.13-.49-.19-.88-.94-.88-1.55.12-.28.64-.13.71-.47-.02-.21-.17-.29-.34-.33-.21.33-.78.8-1.1.23.22-.48.61-.77.53-1.58.15-.2.58-.14.63-.45-.03-.58-1-.94-1.32-.4ZM215.69,65.05c.75.16,1.07.8,1.97.85.09-.3.56-.27.62-.59-.17-.22-.55-.25-.51-.69-.34-.08-.26.28-.58.24-.56-.43-1.26-.75-1.5.19ZM214.12,65.49c.26-.19.51-.61.34-1.04-.74-.11-.97.86-.34,1.04ZM211.59,65.78c-.26.15-.44.76-.17,1.03.57.14.62-.96.17-1.03ZM219.2,67.41c.38.25,1.05.15,1.51.05-.15-.7-.74-.98-1.33-1.21.05.36,0,.74-.18,1.16ZM209.68,67.5c.19.31,1.03.28,1.44.17.15-.87-1.39-.9-1.44-.17ZM216.27,68.66c.28.35.8.48,1.09.81-.02.13-.11.3,0,.41.36-.03.15-.28.12-.53.87-.63.76.88,1.15,1.44.26.38.58.42.71.7.21.04.45.06.64.12.49.88-.81,1.28-.3,2.15,1.29.17,1.48-2.13.54-2.49,0-.19-.09-.28-.13-.41-.96-.13-1.65-1.12-1.56-1.91.21.43.55.1.92.27-.02-.25-.19-.35-.4-.45-.16.01-.25.12-.42.12-.15-.13-.26-.33-.52-.41-.26,0-.19.34-.5.29-.38-.31-1-.81-1.34-.12ZM220.53,69.78c.33-.32.21-1.27-.28-1.29-.26.39-.18,1.16.28,1.29ZM212.4,69.99c.14.13.38.13.63.13,0-.1.02-.13.06-.19-.21-.14-.69-.5-.7.06ZM208.29,71.21c-.11.57,0,1.01-.06,1.61-.3.28-.62.49-.56.98-.3.29-.92.25-1.11.64.74.41,2.01.44,2.49-.18.08-.4-.09-1.05.34-1.1.73.15.09,1.64.81,1.81.21-.35.14-1.28,0-1.62.27-.17.27-.58.63-.66.04.19-.13.6.11.6.24-.14.2-.73.06-.92-.48-.11-.48.24-.87.24-.21-.57-.82-.6-1.34-.3-.19-.35-.06-.72-.11-1.25-.43-.16-.56-.59-.71-.89-.21.48.15.79.3,1.05ZM217.87,74.67c.41-.12.71-.34,1-.58-.33-.23-1,.1-1,.58Z"/>
    <path class="cls-1" d="M187.55,59.36c.35-.05.46-.46.93-.4.73.05.9,2.03.99,3,.13,1.71-.02,6.33-1.74,4.79-.04-.38.02-.63.11-.87-.82-.48-2.45-.85-3.87-.99-.72-.05-1.73.04-1.45-.92.23-.77,2.04-.28,2.78-.18,1.15.19,1.81.38,2.71.64.19-.15.09-.59.18-.87-.67-.5-2.96-1.1-4.45-1.2-.73-.05-1.46.03-1.46-.7,0-.33.26-.43.47-.64,2.08.03,3.76.44,5.32.97.43-1.46-1.48-1.64-2.55-1.91-1.07-.25-2.16-.3-3-.4-.47-.24-.43-1.19.29-1.21,1.33-.03,3.87.47,4.74.87Z"/>
    <path class="cls-1" d="M178.77,75.78c-1.29-1.67,2.83-1.5,3.34-2.37-.57-.29-1.37-.43-2.13-.53-.78-.11-1.59-.19-2.32-.19.05,1.16.57,3.13-.68,3.48-.88.22-3.58-.02-3.71-.64-.27-1.43,2.06-.49,3.11-.63.28-.62.03-1.66-.17-2.21-2.07-.17-4.05.22-5.77.6.51.8,2.02.6,2.13,1.38.29,1.72-2.69-.02-3.12-.3-1.63-.93-2.82-2.02-3.99-3.58-.46-.61-1.39-1.79-1.33-2.41.06-.62,1.43-.97,2.32-1.21,5.2-1.4,11.19-1.94,16.98-.76.78.16,1.68.46,2.59.76.76.24,2.18.55,2.27,1.09.12.72-1.21,2.41-1.51,2.83-1.32,1.77-2.68,2.87-4.73,3.8-.96.43-2.06.91-3.3.88ZM165.75,68.78c.78,1.49,1.89,2.63,3.13,3.65.84-.3,1.75-.55,2.72-.7-.39-.37-.87-.58-1.39-.99-.38-.29-1.13-.72-1.1-1.32.05-.63,1.4-.96,2.31-1.16,3.03-.67,6.59-.59,9.49.04.9.21,2.42.45,2.42,1.17,0,.41-.69,1-1.05,1.26-.49.41-1.05.45-1.37.99,1.07.07,1.89.42,2.76.7,1.31-.91,2.29-2.14,3-3.65-5.51-2.3-15.34-2.14-20.92,0ZM171.2,69.78c2.25,1.96,7.74,1.96,9.99,0-2.68-.88-7.32-.88-9.99,0Z"/>
    <path class="cls-2" d="M137.8,109.73c0-.13-.05-.29-.11-.54-.06-.22-.12-.4-.18-.46-.1-.15-.28-.26-.57-.3-.28-.04-.62-.08-1.05-.08h-6.14v-.53l6.85-5.06h-4.32c-.48,0-.85.02-1.1.09-.27.05-.45.14-.56.29-.08.09-.17.28-.24.56-.09.28-.13.46-.13.55h-.41v-3.42h.41c.02.11.04.29.13.53.06.26.13.41.17.47.11.14.28.25.49.28.24.05.62.1,1.18.1h4.12c.17,0,.35-.04.54-.11.19-.06.32-.14.43-.25.13-.16.24-.35.33-.58.1-.24.14-.44.16-.6h.41v2.4l-6.39,4.7h3.99c.48,0,.87-.01,1.13-.09.27-.04.44-.15.53-.28.07-.11.15-.27.21-.52.06-.26.11-.45.13-.57h.41v3.42h-.41Z"/>
    <path class="cls-2" d="M130.53,119.28l-.37-3.45.42-.04c.05.3.12.56.2.75.06.19.15.28.26.28.02,0,.06-.01.11-.03.04-.01.1-.02.13-.05l1.8-.87-.29-2.93c-.29-.09-.54-.16-.74-.19-.21-.05-.41-.11-.58-.13-.19-.04-.32-.04-.43-.06h-.26c-.16.02-.26.14-.33.41-.05.26-.08.53-.06.84l-.42.04-.32-3.15.42-.02c.02.1.05.23.11.39.05.14.12.26.21.34.11.16.24.26.35.34.12.07.29.14.5.2,1.09.31,2.32.63,3.67,1.03,1.35.36,2.55.7,3.62,1l.04.46-6.91,3.52c-.14.05-.27.14-.35.22s-.17.2-.23.35c-.04.1-.09.21-.1.35-.03.15-.03.27-.03.38l-.41.03ZM133.58,115.59l3.12-1.59-3.36-.92.24,2.51Z"/>
    <path class="cls-2" d="M140.48,128.03c-.02-.1-.09-.27-.19-.48-.11-.19-.21-.34-.29-.43-.12-.11-.33-.16-.62-.16-.27.01-.63.06-1.05.16l-5.99,1.32-.11-.49,5.61-6.43-4.22.92c-.47.1-.83.21-1.06.33-.25.13-.41.26-.49.4-.06.11-.11.31-.11.59-.02.31-.02.5,0,.57l-.41.11-.75-3.35.41-.1c.04.11.13.27.25.5.12.24.2.37.28.42.14.13.31.17.55.17s.62-.04,1.16-.17l4.02-.89c.18-.04.35-.11.53-.2.15-.11.27-.22.34-.34.11-.16.17-.4.22-.63.02-.27.03-.47.01-.61l.41-.09.53,2.33-5.23,5.99,3.88-.88c.49-.11.83-.2,1.09-.33.25-.11.38-.23.45-.38.04-.12.08-.32.09-.57.01-.26.01-.46-.01-.57l.41-.11.74,3.33-.42.08Z"/>
    <path class="cls-2" d="M143.09,132.95c-.06-.1-.15-.21-.25-.33-.11-.12-.2-.21-.29-.3-.12-.1-.22-.15-.34-.12-.11,0-.24.04-.35.12l-4.31,2.46c-.22.13-.48.23-.79.27-.3.05-.6.05-.9,0-.34-.09-.66-.2-.96-.41-.28-.2-.53-.5-.74-.86-.31-.54-.43-1.07-.31-1.62.13-.53.43-.93.98-1.23.22-.13.46-.19.72-.19.24.02.43.15.58.39.1.21.14.38.09.58-.02.19-.15.34-.33.46-.12.06-.25.11-.38.13-.13.02-.25.02-.36.02-.12-.01-.24-.01-.39-.01-.14-.01-.27,0-.37.01-.06.13-.11.3-.11.51,0,.2.07.42.21.67.15.26.34.42.54.5.2.1.43.13.66.1.21-.02.47-.1.75-.21.28-.13.58-.26.89-.44l3.85-2.22c.11-.08.2-.15.26-.21.07-.1.09-.21.09-.37-.01-.14-.05-.3-.11-.48-.07-.17-.13-.3-.18-.42l.38-.21,1.83,3.2-.36.21Z"/>
    <path class="cls-2" d="M140.15,142.54l-2.28-2.99.32-.26c.08.08.19.2.31.35.14.14.25.25.31.3.13.06.24.09.34.09.11-.02.23-.06.34-.15l4.82-3.69c.11-.07.2-.16.25-.26.04-.09.04-.21,0-.39-.04-.13-.1-.28-.17-.44-.08-.16-.14-.28-.21-.39l.33-.26,2.28,2.99-.34.26c-.06-.1-.17-.19-.29-.31-.12-.13-.23-.22-.35-.3-.11-.09-.23-.12-.35-.1-.12.02-.22.07-.33.15l-4.81,3.69c-.09.08-.18.16-.23.27-.04.12-.05.23-.02.39.03.06.1.21.17.36.09.18.16.32.24.42l-.33.26Z"/>
    <path class="cls-2" d="M154.54,145.51c-.09-.08-.24-.17-.43-.29-.21-.11-.36-.17-.49-.19-.17-.02-.37.04-.6.2-.21.18-.49.42-.77.73l-4.25,4.44-.36-.35,1.05-8.46-2.98,3.12c-.33.36-.57.63-.71.88-.13.23-.18.44-.17.59,0,.14.08.32.24.57.15.25.26.41.32.47l-.28.3-2.5-2.38.3-.29c.07.08.22.16.46.28.24.13.38.2.47.2.18.01.37-.04.56-.19.18-.13.47-.37.84-.77l2.87-2.99c.11-.14.21-.27.3-.45.07-.18.11-.33.1-.47-.01-.21-.08-.42-.18-.64-.12-.25-.21-.41-.32-.54l.28-.3,1.74,1.66-.99,7.87,2.74-2.87c.33-.37.58-.66.71-.88.13-.24.17-.43.17-.58-.04-.12-.13-.31-.26-.53-.13-.21-.24-.38-.32-.48l.28-.3,2.47,2.35-.28.3Z"/>
    <path class="cls-2" d="M159.28,154.12c-.09-.04-.22-.1-.34-.17-.15-.06-.27-.11-.38-.13-.14,0-.25.01-.36.08-.09.05-.18.15-.27.28l-.36.54c-.26.4-.45.65-.53.79-.1.15-.16.25-.2.34-.58-.1-1.11-.23-1.61-.42-.49-.2-.97-.42-1.37-.69-.44-.32-.81-.69-1.1-1.13-.31-.45-.5-.92-.6-1.43-.1-.55-.1-1.08.03-1.64.11-.56.34-1.14.73-1.67.34-.54.77-.96,1.25-1.3.48-.33,1-.56,1.53-.67.53-.12,1.07-.12,1.62-.01.55.11,1.08.33,1.55.65.39.27.71.55.94.85.21.29.39.56.54.85l.41-.2.4.28-1.6,2.45-.38-.28c.11-.32.19-.61.26-.95.09-.33.11-.64.09-.98-.02-.31-.11-.61-.26-.88-.14-.27-.39-.52-.69-.74-.37-.23-.71-.38-1.08-.42-.38-.04-.76,0-1.15.15-.39.13-.77.36-1.14.72-.39.33-.75.73-1.09,1.22-.29.44-.51.89-.68,1.36-.16.46-.23.91-.23,1.33.01.42.11.83.3,1.2.19.35.48.68.86.94.3.19.58.34.88.39.3.06.54.11.69.06.15-.16.28-.3.4-.48.12-.17.22-.32.3-.43l.25-.39c.11-.14.17-.27.19-.4.04-.13.03-.27-.06-.4-.09-.12-.19-.27-.35-.41-.18-.15-.31-.27-.42-.32l.24-.39,3.05,2.07-.25.35Z"/>
    <path class="cls-2" d="M180.29,155.49c-.11,0-.26.02-.47.07-.22.04-.39.1-.53.18-.14.1-.23.29-.27.57-.05.28-.08.62-.08,1.03v3.64c0,.45-.1.86-.29,1.2-.2.35-.45.63-.76.86-.3.2-.63.38-.99.45-.34.11-.66.15-.99.15-.49,0-.95-.06-1.34-.2-.4-.13-.72-.31-1-.54-.26-.22-.46-.47-.58-.77-.15-.29-.21-.59-.21-.9v-4.93c0-.16-.02-.27-.06-.36-.04-.1-.14-.18-.28-.25-.09-.06-.22-.12-.38-.15-.16-.03-.29-.05-.38-.05v-.43h3.47v.43c-.11,0-.25,0-.41.04-.17.03-.29.07-.36.1-.15.03-.24.13-.27.23-.05.13-.08.26-.08.38v4.61c0,.21.02.46.08.7.05.25.15.47.29.7.16.21.36.39.63.51.27.14.61.22,1.08.22.43,0,.79-.09,1.09-.22.28-.13.53-.3.69-.53.15-.21.28-.44.35-.68.05-.24.1-.45.1-.7v-3.42c0-.45-.04-.8-.1-1.08-.07-.27-.16-.46-.27-.55-.15-.1-.34-.17-.57-.24-.25-.04-.43-.08-.56-.08v-.43h3.42v.43Z"/>
    <path class="cls-2" d="M190.01,151.24c-.1.06-.25.15-.42.3-.2.16-.32.28-.39.38-.09.14-.1.34-.02.61.05.29.17.62.34,1.01l2.46,5.62-.48.22-7.38-4.25,1.73,3.96c.18.44.35.77.53.98.16.24.32.35.47.4.13.05.33.05.61,0,.29-.03.48-.07.57-.11l.17.39-3.16,1.38-.17-.4c.11-.04.25-.16.46-.33.19-.15.31-.28.35-.34.09-.15.1-.35.05-.59-.04-.22-.17-.57-.39-1.09l-1.65-3.77c-.09-.16-.17-.33-.3-.46-.13-.13-.26-.22-.41-.28-.17-.04-.4-.1-.64-.08-.27.02-.47.05-.61.12l-.16-.4,2.19-.95,6.86,3.97-1.59-3.66c-.19-.44-.38-.77-.54-1-.16-.22-.31-.34-.46-.36-.14-.04-.31-.04-.58,0-.25.04-.44.1-.57.14l-.16-.4,3.12-1.34.16.35Z"/>
    <path class="cls-2" d="M198.4,156.09l-3.39,1.65-.18-.38c.1-.04.23-.14.41-.22.17-.11.29-.2.34-.26.09-.12.15-.23.16-.33.01-.11,0-.24-.07-.35l-2.68-5.45c-.04-.13-.12-.23-.19-.3-.09-.05-.21-.08-.39-.07-.13.01-.28.04-.45.07-.19.05-.32.1-.43.14l-.19-.38,3.4-1.65.18.38c-.11.05-.23.14-.38.22-.14.09-.27.18-.35.29-.11.1-.17.24-.17.36,0,.09.04.21.08.33l2.66,5.45c.05.12.13.21.23.27.09.07.21.1.36.09.09,0,.23-.02.41-.09.17-.04.33-.1.45-.14l.18.38Z"/>
    <path class="cls-2" d="M202.5,142.93c-.08.09-.17.18-.26.3-.09.12-.14.26-.17.35-.05.15-.09.28-.05.44.02.14.05.32.1.5.19.67.49,1.67.9,3.02.43,1.36.86,2.78,1.31,4.26l-.38.3c-1.39-.82-2.73-1.62-4.02-2.41-1.31-.77-2.18-1.29-2.64-1.56-.11-.05-.23-.11-.35-.14-.12-.01-.25-.01-.4,0-.13.02-.26.05-.38.11s-.23.12-.32.16l-.27-.32,2.7-2.15.28.32c-.24.2-.41.39-.54.54-.13.16-.15.28-.08.36.02.04.06.09.11.11.05.04.09.07.13.1.34.21.92.54,1.73,1.02.81.5,1.94,1.17,3.42,2.04-.24-.75-.49-1.64-.8-2.66-.32-1.02-.55-1.7-.68-2.08-.12-.37-.21-.6-.28-.71-.08-.13-.14-.22-.18-.3-.05-.08-.14-.11-.25-.1-.11,0-.21.02-.34.08-.13.05-.26.12-.38.19-.11.06-.22.13-.32.2l-.28-.33,2.44-1.94.26.31Z"/>
    <path class="cls-2" d="M211.86,140.21l1.79,1.69-4.46,5.34-.32-.26c.08-.1.16-.24.28-.4.09-.17.16-.28.17-.37.04-.12.03-.22,0-.32-.04-.11-.13-.2-.24-.29l-4.62-3.87c-.1-.08-.2-.14-.31-.16-.1-.03-.21-.02-.36.04-.11.04-.22.14-.37.24-.15.12-.26.21-.34.29l-.31-.25,4.15-5,1.54,1.3-.28.34c-.28-.14-.64-.21-1.05-.21-.44-.01-.74.06-.91.21-.1.08-.18.19-.31.3-.11.12-.24.28-.39.44l-.82,1.02,2.53,2.12.62-.72c.18-.23.31-.42.36-.56.04-.15.04-.31,0-.46-.02-.15-.1-.3-.21-.48-.11-.16-.21-.31-.32-.44l.28-.33,2.51,2.1-.27.32c-.16-.09-.34-.19-.54-.27-.19-.08-.37-.13-.49-.14-.19,0-.37.04-.49.14-.15.08-.29.23-.45.44l-.62.71,1.95,1.61c.19.17.34.28.48.34.14.08.27.08.4.06.11-.03.25-.12.38-.24.11-.12.28-.32.5-.58.07-.1.18-.2.31-.38.15-.14.26-.29.33-.42.1-.12.16-.28.24-.43.08-.13.1-.26.08-.34,0-.27-.11-.59-.29-1.01-.16-.39-.3-.65-.4-.83l.27-.32Z"/>
    <path class="cls-2" d="M218.81,132.41l-1.07,1.95c-.93.08-1.75.16-2.43.26-.69.06-1.41.17-2.16.3l-.42.75,2.33,1.27c.13.06.25.11.34.12.13,0,.24-.03.35-.13.06-.05.14-.16.25-.3.11-.13.19-.27.25-.39l.38.2-1.69,3.12-.37-.21c.04-.09.09-.21.16-.39.08-.16.1-.27.11-.34.01-.13,0-.23-.08-.33-.06-.1-.16-.17-.28-.26l-5.34-2.89c-.11-.04-.24-.09-.34-.11-.12-.02-.23.02-.34.11-.09.09-.17.19-.27.31-.11.12-.2.22-.25.32l-.38-.18,1.85-3.42c.17-.31.34-.6.56-.8.21-.25.45-.44.72-.6.25-.14.53-.2.83-.21.28,0,.59.06.9.25.29.16.52.34.69.54.17.19.29.42.37.69.06.23.09.49.09.77-.02.26-.06.56-.13.86.69-.1,1.26-.18,1.71-.24.45-.07,1.01-.15,1.67-.24.29-.04.53-.1.67-.15.18-.09.31-.15.44-.25.11-.07.19-.17.3-.29.09-.12.16-.23.21-.3l.38.2ZM211.84,132.15c-.45-.25-.87-.31-1.28-.19-.38.12-.72.42-.96.88l-.49.89,3.17,1.69.37-.68c.26-.47.32-.95.19-1.44-.14-.49-.47-.86-1-1.16Z"/>
    <path class="cls-2" d="M216.65,125.26c.24-.13.47-.19.72-.21.26-.02.52,0,.82.08.73.17,1.24.59,1.57,1.24.32.65.38,1.36.18,2.15-.1.34-.25.71-.44,1.04-.21.35-.43.6-.66.82l.36.35-.12.47-2.79-.65.13-.46c.37,0,.69-.04,1.01-.11.31-.04.6-.14.9-.28.28-.15.51-.34.72-.56.2-.24.34-.51.44-.88.06-.26.1-.51.07-.71-.01-.23-.07-.4-.17-.55-.1-.17-.22-.3-.35-.41-.17-.1-.36-.18-.58-.25-.32-.06-.66-.06-.98.04-.33.12-.61.34-.85.66-.17.23-.35.47-.56.77-.19.27-.39.54-.56.75-.32.4-.68.66-1.08.84-.4.17-.87.18-1.39.05-.31-.09-.58-.24-.83-.43-.22-.2-.42-.42-.56-.72-.15-.27-.23-.58-.27-.89-.03-.34-.01-.66.08-1,.11-.37.23-.7.43-.95.19-.27.39-.5.62-.69l-.34-.35.11-.47,2.71.66-.12.47c-.32,0-.64.01-.95.04-.31.03-.59.1-.87.2-.27.11-.48.27-.68.47-.19.2-.32.46-.43.8-.09.38-.04.72.11,1.02.17.31.43.51.75.61.35.1.66.07.94-.02.28-.1.53-.3.75-.56.2-.25.39-.49.56-.74.17-.25.34-.47.51-.7.15-.19.32-.4.5-.57.18-.17.38-.33.59-.44Z"/>
    <path class="cls-2" d="M221.62,119.7l-.51,3.73-.42-.05c.01-.13.02-.27.03-.47.02-.2.01-.33-.01-.44-.03-.12-.1-.23-.17-.3s-.2-.12-.35-.14l-6.01-.8c-.14-.01-.25,0-.34,0-.1.04-.2.13-.28.29-.05.11-.13.24-.18.42-.06.16-.13.31-.15.43l-.41-.05.52-3.73.41.05c0,.11,0,.26,0,.43,0,.18,0,.32.03.46.03.14.09.25.19.32.1.07.21.11.34.11l6,.84c.13.02.24,0,.34-.03.12-.04.22-.14.28-.28.04-.07.11-.19.16-.37.08-.18.11-.34.13-.47l.42.06Z"/>
    <path class="cls-2" d="M216.31,109.78l-.02.4c-.15.03-.32.1-.5.18-.2.09-.4.18-.57.28-.17.12-.34.24-.47.39-.15.13-.23.26-.26.4-.02.12-.04.27-.06.45,0,.18-.02.37-.02.52l-.02.35,6.7.24c.13,0,.25-.01.35-.06.13-.04.19-.15.26-.28.04-.06.09-.2.15-.44.04-.22.08-.39.09-.51h.42s-.16,3.97-.16,3.97l-.41-.02c0-.1-.02-.29-.03-.5-.01-.24-.03-.38-.08-.47-.04-.12-.11-.24-.2-.3-.1-.06-.23-.1-.39-.11l-6.74-.26-.02.36v.45c0,.17,0,.35.02.5.01.14.09.28.21.43.13.14.29.28.46.4.16.12.35.25.55.35.19.1.36.16.49.19l-.02.42-2.27-.08.28-7.3,2.27.1Z"/>
    <path class="cls-2" d="M214.57,100.64c.01.05.04.17.06.32.06.14.11.26.15.31.09.16.16.26.2.32.05.05.19.16.4.31.44.33.87.61,1.31.89.44.26,1,.58,1.67.99.26.16.46.27.61.3.16.08.37.1.66.1l1.6.02c.14,0,.28-.02.39-.09.09-.05.17-.15.24-.27.04-.1.08-.25.13-.45.04-.21.07-.37.09-.5h.43l-.09,3.92-.41-.02c0-.11-.02-.26-.04-.48-.01-.21-.04-.36-.07-.46-.05-.15-.14-.24-.23-.3-.11-.06-.24-.09-.38-.09l-2.04-.02c-.06-.02-.17.02-.34.1-.17.08-.36.15-.56.26-.47.24-.97.49-1.5.76-.54.28-1,.53-1.38.74-.23.11-.4.21-.51.34-.12.09-.2.19-.31.32-.05.1-.11.21-.13.34-.04.13-.07.25-.08.34h-.41l.05-3.58h.43c0,.41.02.7.06.88.04.15.11.24.19.25.02,0,.06-.01.11-.03.06-.02.15-.06.24-.1.11-.05.23-.12.35-.18.14-.06.27-.13.39-.2.36-.18.72-.35,1.06-.55.34-.17.8-.43,1.37-.73-.99-.62-1.75-1.12-2.31-1.45-.54-.33-.87-.49-.98-.49-.1,0-.17.02-.23.1-.05.04-.09.14-.13.25-.04.12-.06.24-.07.38-.01.13-.01.27-.03.38h-.43l.06-2.92h.41Z"/>
    <g>
      <path class="cls-2" d="M173.01,135.23c-.31,0-.57.13-.8.39-.24.25-.34.58-.34.99,0,.35.11.66.32.88.21.23.49.33.81.33s.58-.11.79-.33c.21-.22.31-.55.31-.94s-.1-.71-.33-.94c-.19-.24-.46-.36-.76-.36Z"/>
      <path class="cls-2" d="M178.3,135.23c-.3,0-.56.13-.76.42-.23.33-.36.98-.36,1.92s.11,1.53.32,1.84c.23.32.49.47.81.47.3,0,.58-.15.8-.47.21-.31.33-.91.33-1.84s-.12-1.55-.33-1.87c-.23-.3-.5-.47-.83-.47Z"/>
      <path class="cls-2" d="M209.68,80.05h-66.91c-.09.01-.06.12-.11.18-.07,8.6.03,17.45,0,25.82-.07,8.48,1.17,16.14,3.92,22.18,2.7,5.97,7.14,10.27,12.18,13.88,5.12,3.63,11.53,5.58,17.45,8.64,5.9-3.08,12.29-5,17.39-8.71,5.04-3.65,9.59-7.82,12.26-13.86,2.66-6.06,3.86-13.52,3.86-22.24s.07-17.37-.04-25.89ZM158.11,118.03c4.55-2.36,9.1-4.95,12.66-8.38-2.36.58-4.24.64-6.19.62.32-.51.86-.84,1.29-1.25,3-2.81,6.37-5.49,8-9.74-1.1.38-2.49.69-3.98.69,2.93-3.75,5.23-8.16,6.45-13.59h.17c1.2,5.46,3.55,9.81,6.46,13.59-1.31-.09-2.4-.14-3.91-.73.06.63.4,1.23.68,1.78,1.45,2.66,3.77,4.77,5.94,6.82.88.82,1.82,1.53,2.59,2.44-2.4.21-3.5.02-6.13-.67.86,1.02,1.98,1.77,3.02,2.59,2.83,2.32,6.22,4.04,9.62,5.84.27.14.69.24.79.59-2.83.4-5.97.18-9.02-.79-3.73-1.29-7.27-1.36-9.88,1.08-2.91-2.35-5.8-2.38-10.46-1.15-2.66.83-6.13,1.2-8.93.86.1-.39.55-.44.84-.59ZM168.46,140.35h-.7v-4.43c-.17.18-.4.31-.68.45-.26.18-.49.3-.72.38v-.65c.4-.2.72-.43,1.02-.69.3-.28.5-.51.62-.75h.45v5.68ZM174.65,139.13c-.17.43-.41.76-.71.98-.32.22-.69.34-1.09.34-.45,0-.81-.12-1.09-.38-.28-.24-.45-.58-.51-1.04l.66-.07c.06.32.18.56.34.7.15.16.36.21.61.21.2,0,.4-.05.57-.15.15-.1.28-.22.38-.4.11-.17.2-.39.26-.66.08-.28.11-.56.11-.86v-.16c-.14.25-.32.43-.58.56-.24.14-.5.21-.77.21-.47,0-.87-.18-1.19-.51-.33-.35-.51-.79-.51-1.35s.17-1.03.52-1.38c.34-.34.77-.51,1.26-.51.39,0,.71.1,1.03.28.3.19.54.48.71.87.13.37.22.88.22,1.59s-.1,1.3-.22,1.73ZM179.96,139.16c-.14.41-.33.74-.61.95-.27.22-.62.34-1.03.34-.55,0-.99-.19-1.3-.59-.38-.46-.57-1.23-.57-2.29,0-.69.09-1.22.21-1.62.14-.42.34-.73.62-.93.27-.25.62-.34,1.03-.34.3,0,.57.05.8.17.23.11.42.3.57.53.15.25.26.51.34.85.09.33.13.78.13,1.35,0,.65-.08,1.2-.2,1.6ZM185.43,140.35h-3.75c0-.16.02-.34.09-.47.1-.26.26-.53.47-.76.2-.26.51-.53.9-.87.61-.51,1.03-.89,1.25-1.2.22-.29.33-.56.33-.84s-.11-.5-.31-.69c-.19-.19-.45-.3-.77-.3s-.6.11-.8.31c-.19.2-.3.48-.3.82l-.73-.06c.06-.53.24-.94.56-1.22.32-.29.75-.41,1.3-.41s.97.14,1.28.44c.32.31.48.69.48,1.12,0,.21-.04.46-.14.68-.09.21-.26.45-.46.7-.21.23-.58.56-1.08.99-.42.34-.68.6-.8.71-.11.14-.21.26-.29.4h2.77v.65ZM179.7,124.55l.18,1.5h-6.5l.19-1.5h-20.37l2.54-3.12c2.15-.12,6.31-.67,9.87-1.99,6.92-2.59,11.13.96,11.13.96,3.31-2.78,7.47-2.2,11.32-.78,3.62,1.33,9.17,1.74,9.17,1.74l2.39,3.19h-19.92Z"/>
    </g>
  </g>
  <g>
    <path class="cls-1" d="M319.94,37.48c.3.09.36-.28.15-.3,3.42.63,4.5,4.97,8.4,5.64,3.71,3.95-1.24,8.74-1.22,12.69,1.89,2.53,5.21-.12,7.03.31.41.09,1.34.69,1.68,1.21,2.05,3.23.21,8.11-3.5,8.73-.77.65-1.39,1.46-2.62,1.69-3.96,5.2-9.67,8.64-14.06,13.44-1.71,3.14-4.54,5.15-6.57,7.96-2.99,1.2-3.01,6.2-3.51,9.78-.27,1.83-1.16,3.32.45,3.97,2.86-1.22,4.54-3.61,6.27-5.95,2.5-1.53,4.04-4.02,6.27-5.82,1.83-2.81,4.09-5.18,5.96-7.95,2.63-1.44,4.29-3.87,6.11-6.11,2.53-1.15,3.19-4.16,5.51-5.5,2.59.46,4.35-1.4,6.57-.78.95.3,1.99,2.08,2.75,2.77,1.19,1.06,3.2,2.3,4.43,3.35.58.69.98,1.71,1.53,2.59.63,1.01,2.1,2.09,1.99,3.38-.09.89-.85,2.98-1.24,3.97-.32.87-.43,2.92-.75,3.83-.39,1.1-1.22,1.7-1.53,3.38-.18,1.08-.13,2.23-.46,3.36-.58,2.01-.71,4.43-.9,7.49-.14,1.89-.51,3.49-.93,5.35-.48,2.21,0,3.91-.14,6.42-.04.56-.39.61-.47,1.08-.11.62.26,1.49.16,2.12-.07.48-.38.9-.46,1.38-.31,2.17.19,5.12.15,7.49,0,.75-.08,1.89,0,2.44.19,1.25.89,2.65,1.07,4.89.15,1.73.39,4.32.15,5.2-.26.96-2.65,2.52-3.52,3.53-1.31,1.53-2.2,2.84-2.89,4.12-3.58,0-3.58,3.58-6.73,3.98-1.75-2.35-2.28-6.68-6.12-6.42-2.06-1.87-3.66-4.19-6.87-4.88-2.44,2.72.16,7.19-.77,10.69-.91,3.42-5.49,4.36-5.19,8.24-.96.96-2.16,1.7-3.83,1.21-.15-3.04-3.2-5.07-3.35-8.08-.53-1.01-1.59-1.49-2.45-2.13-.96.11-1.95,1.01-3.08.91-1.32-.11-3.35-1.99-3.35-2.75,0-1.8,5.4-3.43,6.73-5.65,1.67-2.87.78-6.29-1.07-8.27-2.1-1-3.4,2.04-5.51.91-.43-2.15,2.19-2.63,2.14-4.57-.04-1.87-2.34-3.25-3.22-4.91-.61-.33-1.53.05-1.99-.14-1.5,1.65-2.77,3.54-4.28,5.2-2.05.66-4.22.02-5.8,1.52-1.33,1.25-2.31,3.62-3.21,5.81-.66,1.62-1.45,3.27-1.37,4.91-.11.55-.62.7-.62,1.36.08,1.13,1.87,1.93,1.38,2.59,2.24.66,3.97,1.87,5.35,3.36-.21,1.45,1.03,2.72,1.37,3.99.92,3.23-.75,6.04-1.83,8.24-2.56,1.27-4.81.87-7.49,0-2.7-2.57-6.14-6.35-7.94-10.08-.63-1.32-.09-3.3-.31-5.19-.09-.78-.49-1.36-.3-2.14-1.59-3.88-1.73-9.64-.91-14.23.16-.94.48-2.09,1.36-2.59.58.14.56.86,1.07,1.06-.17,1.07.54,1.95.92,2.91.07,1.47.62,2.94,1.53,3.98,4.01-2.19,5.63-6.41,7.63-10.24,3.12-2.09,4.21-5.99,7.19-8.27.79-.59,1.12-.76,1.98-1.21.72-.35,1.1-.71,1.53-1.37.19-2.23-1.01-3.19-.15-5.2,1.86-1.78,5.45-1,6.56-3.98-.7-2.59.19-6.15-2.59-6.72-.77-.17-1.32.42-1.97.45-2.06.12-3.12-1.34-4.6-1.98-2.16-.94-4.15-.11-6.57-.3-.66-.86-1.09-1.96-1.52-3.07.64-1.38,1.35-2.7,2.59-3.52.47-.07.6.22.92.31,1.34-.7,1.71-2.36,3.52-2.6,1.26-2.3,3.52-3.62,4.73-5.98,3.08-1.75,5.56-4.61,8.71-6.25,1.09-.58,2.47-.64,2.92-1.99-.16-1.47.3-2.37.3-3.83,0-.91.49-1.67.61-2.61.26-2.09-.2-4.79-.31-6.86-.17-3.68.79-7.56.77-11.33.45-.41.64-1.08,1.07-1.52.32-3.83,1.02-7.84.3-11.92-.34-2.01-1.5-3.69-1.07-5.66.32-1.4,1.39-2.29,2.29-3.38,3.89-.45,6.99.13,8.25,2.92-.8,2.07.12,4.77.77,6.12ZM330.19,139.14c.42-.33.66-.85,1.05-1.22,0-3.52-.13-8.12,0-11.16.07-.98-.15-2.06-.14-3.04.05-3.25.85-6.49.76-9.66-.05-2.09-.45-4.09,0-6.1.43-1.88,1.14-3.41,1.07-5.36-.04-1.18-.49-2.27-.45-3.36.06-2.7,1.03-5.09,1.37-7.94.04-.4-.3-.72-.31-1.08-.03-2.18.91-4.62.31-6.87-.21-.17-1.38-1.97-2.14-1.24-1.93,1.88-4.85,5.05-6.88,7.49-1.05,1.28-2.38,2.84-2.74,4.44-.62,2.73,2.44,2.73,3.52,4.29,1.04,1.5.66,2.31.75,4.44-.97.33-1.25,1.66-2.14,2.59-.36.4-.99.63-1.36,1.07-1.53,1.81-1.63,4.4-2.75,6.73-1.03,2.11-3.04,4.43-3.21,6.41-.23,2.56,2.07,4.21,2.13,6.74-.36,1.04-1.65,1.82-1.22,3.2.79.67,2.06.9,3.37,1.06,2.68,1.82,0,6.17.45,8.39,2.85.5,5.87.44,8.58.17ZM311.84,102.76c-.02,1.9-1.44,2.77-1.54,4.12-.8.4-1.81.7-2.28,1.38-.23.32-.06,1-.32,1.53-.23.46-.62.48-.75.9-.42,1.3-.26,2.97-.45,4.59,2.06,2.38-.24,5.76.45,9.34.73.67,1.84,2.18,3.22,1.99,2.49-.36,1.04-5.99,2.13-7.8.59-1,1.38-1.74,1.68-3.21.23-1.17-.09-2.74.3-3.97.2-.64.75-1.18.92-1.83.56-2.15.43-4.53,1.07-6.57-.75-1.34-3.4-1.93-4.44-.46Z"/>
    <path class="cls-1" d="M680.73,38.99c-.85,2.78.3,6.02-1.68,7.64-.44.38-.95.36-1.37.63-.78.5-1.13,1.37-1.98,1.83-1.56.48-3.2-.14-4.44.3-1.22.43-1.61,1.96-1.99,3.35-2.01,2.35-3.15,4.62-3.97,8.12,1.84,2.55,6.56,3.45,5.65,7.79-3.8,1.59-5.25,5.85-3.97,10.39.36,1.29,1.86,3.55,3.2,3.83.44.08,1.22-.19,1.84-.15.92.08,3.07,1.18,4.12,1.06,1.03-.1,1.58-.97,2.29-1.51,0-3.84,4.91-9.43-1.67-9.33-1.56-1.27-1.26-4.7-1.37-6.58-.73-.58-.74-1.47-1.23-2.13-.89-1.21-2.52-1.47-3.83-2.3,1.01-3.54,4.87-2.15,8.27-2.58,2.2,1.91,2.56,5.23,2.61,8.24.15.41.71.42.9.77,3.15-2.4,3.85-7.27,5.66-11.01.03-2.18,1.16-3.77,1.68-5.83.15-.6-.01-1.24.15-1.81.4-1.37,1.42-2.71,1.38-3.99-.04-1.3-1.11-2.34-1.69-3.52.6-3.52,5.07-3.17,7.2-5.19,1.08.55,2.43.8,3.04,1.83-.06.71-.48,1.05-.61,1.68.29,2.25,2.91,2.5,2.76,4.59-.06.91-1.34,1.53-1.98,2.45-1.39,1.93-1.08,4.8-2.91,5.95-.92,3.1-3.34,5.7-4.89,8.88-.38.77-.41,1.61-.77,2.45-.64,1.41-2.14,2.29-3.05,3.65-2.11,3.17-2.88,7-4.59,10.41-.17,2.04-1.24,3.47-.61,5.34,1.07,1.11,2.42-.34,3.97-.15,2.11-1.76,2.36-6.06,5.65-6.56.47-.07,1.07.04,1.68,0,.7-.06,1.32-.48,1.68-.47.62.04,1.07.54,1.68.77,1.25.48,2.88.68,3.53,1.83.39,1.4-.78,1.86-1.38,2.75-.45.64-.53,1.48-.91,2.14-.64,1.03-1.71,1.91-2.45,3.04-1.56,2.36-3.03,4.58-4.28,7.18-2.65,2.11-4.57,5.72-8.4,6.12-3.37,2.34-7.11,4.33-8.57,8.56.68,1.84,2.28,1.99,4.28,2.61,2.25.67,4.12,1.89,3.67,4.89,2.23.36,3.45-.47,5.51-.15,4.44.66,3.15,6.73.61,8.7-.24.19-.31.9-.46,1.08-.79.9-1.97,1.82-2.44,1.83-.54.01-1.01-.66-1.53-.78-.35-.06-.44.3-.91.31-.36,0-.86-.32-1.07-.31-2.36.12-4.5,1.81-6.58,1.07-.92,1.26-2.08,3.32-2.29,5.06-.3,2.49,1.23,2.46,2.14,3.97.21.34.11.85.31,1.21,1.04,2.13,3.62,3.63,4.13,5.37v1.53c1.8,1.18,1.67,3.64,2.76,5.81,1.03,2.07,3.78,3.68,3.21,7.17-.6,3.58-4.72,4.23-7.03,6.43-1.74.1-3.5.13-4.89-.46-1.28-2.08-3.27-3.91-5.81-3.98-1.38-.03-2.81,1.28-4.59,1.07-.28-.03-.47-.45-.77-.48-.38,0-.77.35-1.06.32-2.97-.21-5.35-.55-7.79-2.13.15-.92-.36-1.18-.47-1.83,3-2.42,8.25-.86,11.77-1.37,1.91-1.53,4.88-1.22,7.03-2.29.73-3.03-1.48-4.43-2.29-6.43.01-.66.2-.62,0-1.05-1.96-4.91,2.29-11.29-1.99-14.54-4.15,2.84-8.23,7.04-10.39,12.39-3.8,2.25-7.13,5.33-9.8,9.03-.71.97-1.44,3.22-2.44,4.1-1.05.97-3.92,2.21-5.19,2.45-1.24.23-2.51-.57-3.83.14-1.52-.4-3.75-.85-5.97-1.21-2.01-.33-4.94-1.55-4.74-3.67.06-.65,1.59-3.2,2.29-3.67,1.44-.94,3.93-.79,5.66-1.38.73-.24,1.12-.85,1.84-.76,2.34-2.05,4.7-4.06,7.33-5.8.35-.69.96-1.09,1.22-1.83,1.2-1.15,2.76-1.96,3.51-3.53,1.15-.92,2.25-1.68,3.52-2.27,3.53-1.71,6.39-4.85,9.94-6.92.38.3.93-.19,1.38-.29,2.17-2.03,3.86-4.51,4.43-8.11,3.48-2.26.21-5.21-1.83-7.02.8-1.16,3.11-1.69,4.44-2.77,1.9-1.51,3.19-3.92,4.74-6.11,1.09-1.55,4.89-6.72,4.13-9.48-.87-3.12-6.42-.51-6.72,1.83-3.21,1.11-4.78,3.9-7.5,5.51-3.96,3.47-7.62,7.26-11.92,10.4-.34.3-.43.89-.76,1.22-2.67,1.75-5.8-.02-9.19.9-1.1-.81-2.57-1.27-3.04-2.73,2.4-1.95,4.48-4.3,7.8-4.59,1.42-.45,2.31-1.8,3.51-2.61.35-.22.92-.22,1.38-.46.69-.33.92-.57,1.82-.91,1.59-.61,2.69-1.93,4.29-2.9,1.74-1.06,3.89-1.69,5.51-2.76.84-.57,1.62-1.94,2.59-2.59.84-.57,1.97-.63,3.06-1.07,2.13-.87,5.28-2.7,5.65-4.29.66-2.71-1.85-4.15-3.37-5.5-1.82.12-3.08,2.12-4.88,2.14-.9,0-1.06-.58-1.83-.93-.91-.39-2.23-.18-2.59-1.21-.75.58-1.2-.01-1.84-.3-1.88,1.8-1.93,4.58-3.37,6.73-1.67.89-3.68,4.23-5.5,1.82,1.82-2.66,3.45-5.53,5.2-8.25-.84-1.96-1.65-7.03-4.29-4.76.95,3.54-.84,6.07-3.06,7.65-.67-.06-1.12-.7-1.83-.6-2.55.33-1.17,4.2-1.38,5.96-.12,1.02-2.33,4.9-3.5,5.35-.56.22-1.54-.01-2.29.16-1.05-.6-2.38-1.49-3.83-1.22-.74-1.36-1.69-2.2-1.38-3.67.23-1,1.59-1.57,1.69-2.44.06-.71-.45-1.51-1.09-2.33-1.08-1.38-1.62-2.51-2.43-4.11.79-1.5,2.54-2.05,2.59-4.29,3.64.12,5.51,3.87,8.25,5.81,1.35-.22,1.2-1.83,1.52-2.89.38-1.21,1.13-1.74.46-3.23-.2-.46-.78-.75-1.07-1.22-.27-.44-.29-1.15-.61-1.67-.41-.73-1.07-.89-1.06-1.98-1.48-.55-2.71-3.13-4.28-3.68-.99-.31-1.72.34-2.76-.16.93-1.54,1.89-3.09,2.76-4.74,2.77-1.36,3.71,1.36,5.66,1.68.68-.75.49-1.5.6-2.91.49-.29.61-1,1.07-1.36,1.66-1.36,3.97-.53,6.12-.93,2.93-.54,4.96-1.91,7.18-3.19.56-.88.83-2.02,1.37-2.91.16-4.77,2.84-8.62,2.75-13.46-.04-2.37-1.37-5.65,0-7.79.04-.52-.12-1.24.15-1.52,1.48-1.5,2.74-3.16,4.89-3.99,1.41,1.09,3.26,1.75,4.29,3.22.71.17.94.79,1.84.77.34.88,1.93,2.04,3.2,1.97.51,1.08,1.47,1.69,2.13,2.59ZM651.39,75.39c1.16-2,3.62-3.38,3.21-6.41-1-.99-2.23-.79-3.07-1.85-2.16-.32-4.85-.54-5.05,1.37-.03.38,1.13,3.29,1.38,3.69.3.42.97.66,1.22,1.06.49.77.25,1.79.92,2.14.63-.02.85.27,1.37,0ZM658.88,67.59c-1.94,1.6-2.8,4.02-4.13,6.26-.62,1.06-1.67,2.49-1.52,3.22.34,1.89,2.44.66,4.12.47,1.84-.23,3.22-.15,3.83-1.38-.58-2.77,1-5.55-.46-8.1-.6-.16-1.18-.35-1.83-.46Z"/>
    <path class="cls-1" d="M560.88,73.7c1.08-.18,2.2.73,3.21.92,1.33.27,2.14.03,3.52.62,2.28.96,3.64,2.44,1.69,4.87-.86,1.08-2.49,1.43-3.22,2.32-2.57.43-5.81,1.53-7.65,3.21-3.9,1.31-7.55,3.44-11,4.73-.37-.1-.7-.23-1.22-.15-.71.21-1.01.85-1.84.92-2.14,3.02-1.67,7.79-3.05,11.32.29.93.25,2.6-.31,3.19-.54,9.57-4.76,17.51-10.7,22.63-.17.14-.41.19-.76.16-5.03,5.07-10.35,9.72-17.74,12.07-.3.11-.34.46-.61.61-2.41.38-4.86,2.23-7.17,2.29-.99.03-2.12-.15-3.23-.15-.96,0-2.14.56-2.74-.3-.03-.72.81-.65,1.22-.92.38-.25.7-.69,1.07-.92,2.5-1.52,5.35-2.68,7.79-4.28,3.18-2.08,5.92-4.73,9.18-6.58,6.86-6.46,13.16-14.32,16.36-23.54.1-2.68,2.21-7.28-.46-9.02-2.95.76-3.98,3.46-6.87,4.28-.33.85-1.07,1.29-1.37,2.14-4.01,2.26-6.78,5.77-9.95,8.86-1.95-.2-2.64-1.65-3.66-2.74-3.72-1.69-6.03-4.78-8.72-7.49.61-1.78,2.86-1.94,3.83-3.38,1.46.32,3.12.49,4.43,0,.72-.27,1.17-1.01,1.83-1.36.77-.42,1.76-.46,2.59-.77.58-.21.97-.71,1.52-.91.96-.35,2.19-.47,3.38-.92,2.15-.83,3.91-2.32,6.12-2.62,2.96-.38,4.72-2.56,8.1-2.74,2.95-2.03.39-6.98,1.67-10.86-.6-9.34,1.95-17.63-.3-25.67-.79-.53-1.07-1.57-1.37-2.6,1.46-2.84,3.37-5.63,7.18-5.65,2.19,1.65,4.98,3.96,7.94,5.35.62,1.93,3.11,2.86,1.98,5.35-.56,1.24-2.14,2.04-3.05,3.38-1.5,2.19-1.07,4.64-1.84,7.32-.86.91-.56,2.8-.92,4.44-.08.38-.49.75-.6,1.23-.53,2.37-.38,5.78-.62,7.93-.13,1.24-.68,2.72-.45,3.69.54,2.15,3.52,1.54,5.35.61,1.21-1.84,4-3.19,6.87-4.46,3-1.27,7.18-4,4.6-6.41Z"/>
    <path class="cls-1" d="M424.82,46.95c1.55.47,3.77-.46,4.89-1.38.49.29,1.02-.14,1.52.31,1.99-.9,6.4.36,8.42,1.69.62.41,1.71,1.69,1.82,2.13.28,1-.37,1.81-.3,2.45.15,1.65,1.01,2.66.45,4.29-.24.65-1.09,1.48-1.67,1.66-2.87.92-6.13-2.74-9.33-.75-1.74-.34-3.03-1.83-2.76-3.67-.53-1.9-5-2.1-5.2-3.98-.14-1.34,1.35-1.83,2.14-2.75Z"/>
    <path class="cls-1" d="M399.59,85.48c.43-1.94,4.27-3.85,6.58-4.9.73-.32,1.67-.47,2.44-.59.62-.46,1.36-.8,2.13-1.08,5.64-4.89,12.43-8.65,19.73-11.32.62-.23,1.39-.59,1.97-.92.41-.21.54-.61.92-.91,1.56-1.11,3.79-1.59,5.5-2.45.83-.42,1.64-.78,2.45-1.22.68-.36,1.16-1.08,1.82-1.52.69-.45,1.54-.62,2.15-1.06,1.21-.91,2.09-2.38,3.36-3.21.84-.58,1.97-.92,2.92-1.38.81-.42,1.71-.72,2.44-1.08,1.79.9,3.85,1.54,5.04,3.06.14,2.3-1.95,3.81-3.52,5.2-.58.53-.93,1.4-1.52,1.84-1.41,1.08-3.21,1.68-5.21,1.99-1.65.26-3.24,1.36-5.34.9-1.23,1.17-2.98,1.25-4.29,2.16-.92.62-1.9,1.76-2.76,2.57-2.65,2.57-5.71,4.87-8.41,7.49-1.74.38-2.92,2.3-4.58,3.98-1.85,1.9-4.01,3.08-5.05,5.67-1.21.9-1.69.91-3.66.9-3.85-.01-7.61,1.09-10.85-1.05-.46-.31-.51-.89-.92-1.23-1.01-.85-2.62-.62-3.37-1.83Z"/>
    <path class="cls-1" d="M455.09,84.1c.04,3.63-3.66,5.57-5.66,8.12-2.57.73-4.13,2.49-4.74,5.2,1.34,1.73,3.18-1.14,4.74,0,.73,2.04.13,4.75-.92,5.96-1.07-.12-1.16.76-1.67,1.22-.37.04-.6-.03-.77-.16-1.29,1.88-4.14,2.19-5.51,3.98-2.75.24-6.39,1.33-7.79-.91-.85-4.92,2.78-6.14,3.98-9.48,1.44-.79,2.51-1.98,2.92-3.84.77-1.09,2.98-2.64,2.89-4.59-.06-1.54-1.53-2.34-3.22-1.83-1.24.41-3.06,2.68-4.12,3.83-1.39,1.51-2.59,3.01-3.52,4.28-.68.41-1.77.39-1.99,1.23-1.31-.38-3.47.1-4.59-.45-1.54-1.84,1.07-2.96,2.59-4.15.6-.44,1.12-.81,1.68-1.2,1.36-1,2.53-2.07,4.12-3.06.91-.58,1.93-1.01,2.76-1.55.84-.51,1.39-1.29,1.98-1.66,1.88-1.24,4.51-1.45,5.21-3.68,2.08-.85,4.2-1.8,6.11-.61,1.21.75,1.82,2.12,2.9,2.61.89.39,2.05-.01,2.61.75Z"/>
    <path class="cls-1" d="M412.28,99.07c1.5-1.64,3.64-3.72,7.03-2.73,3.71,1.06,6.82,7.44,7.03,11.16.08,1.3-.41,3.71-.92,4.43-.37.54-1.38.99-2.13,1.52-.98.72-1.66,1.76-3.52,1.39-1.45-.3-5.84-4.16-6.27-5.82-.22-.87.22-1.65.15-2.45-.2-2.57-2.36-4.7-1.37-7.49Z"/>
    <path class="cls-1" d="M591.91,127.51c-.74,3.2-4.72,2.83-7.33,4.3-1.22.7-2.44,2.06-3.99,2.91-2,1.06-4.37.7-6.26,1.82-3.35.4-4.75-.83-7.03-2.74-2.59-2.18-4.18-4.25-6.11-7.03-1.41-2.01-3.08-3.04-3.51-5.35-3.75-5.35-7.59-11.47-8.88-18.36-1.24-1.78-.9-4.2-1.84-6.26,3.47-.63,3.24,3.55,5.67,4.45.68,1.4,1.84,2.32,2.91,3.36v.6c2.62,2.44,4.29,5.8,7.03,8.12-.13.42.21.38.15.74,3.28,2.89,7.24,5.1,10.71,7.8,2.61.02,3.74,1.86,5.8,2.61,3.83-.71,6.35,1.18,10.09,1.37.72.72,1.86,1.02,2.61,1.67Z"/>
    <path class="cls-1" d="M619.28,139.44c-.02-.78.68-.85.91-1.38.4-1.98-.14-4.39,1.53-5.34.33-2.48,2.41-3.97,2.31-6.57-.13-2.82-1.8-5.61-2.14-8.26,1.2-1.66,3.28-3.77,5.65-2.43.29.14.91.71,1.38,1.05,1.95,1.52,4.38,4.68,5.81,6.12,1.11,3.93.9,7.07,1.06,10.86-1.21,4.61-4.51,7.61-9.47,7.18-2.57,1.83-4.87-.51-7.04-1.22Z"/>
    <path class="cls-1" d="M444.69,141.58c-.63-4.04-.36-8.46-.15-12.39.04-.96.13-2.15.3-3.04.13-.75.64-1.22.62-1.99-.11-2.27-2.1-4.51-.32-6.71.13-.03.16-.17.32-.17,4.89.7,7.5,3.96,9.32,9.34.88,2.65,2.34,5.22,2.61,7.63.28,2.75-1.27,4.73-1.99,6.73-1.24.55-2.16,1.84-3.21,2.59-.54.38-1.52,1-2.44.93-1.89-.19-3-2.72-5.04-2.92Z"/>
    <path class="cls-1" d="M394.85,140.51c1.16-2.37,3.07-3.57,5.51-3.82,1.4-.15,2.95.11,4.59-.77,1.13-1.25,2.32-1.18,3.82-1.68,2.21-.71,3.62-1.86,5.04-3.05.43-.35.88-.18,1.38-.45.91-.48,1.62-1.44,2.75-1.54.34-.15.56-.46.61-.91,2.07-.45,4.6-2.52,7.18-2.44.24-.21.7-.21.91-.46,3.37,1.25,4.63-3.97,3.22-6.72.24-.69.41-1.47,0-1.99.84-1.8,1.59-3.71,3.82-4.12.4.27.68.64,1.23.77,3.56,3.85,2.82,10.07,2.75,16.5-.06,5.24,1.1,10.4,1.07,15.29-1.73,1.32-3.28,6.53-5.66,6.73-1,.09-1.37-.92-2.14-.92-1.09-1.97-1.89-4.24-2.76-6.41-3.04-2.71-4.24-7.27-7.79-9.49-1.56,1.6-3.24,3.09-3.83,5.65-.89.48-1.31,1.46-2.13,1.98-1.8,4.43-5.85,7.42-7.95,11.02-.99.04-1.98,1.23-3.37,1.07-.68-.09-.84-.65-1.37-.92-1.2-.59-2.76-.45-3.67-1.08-1.1-.73-1.37-3.35-1.52-4.58-.36-2.84-.16-5.75-1.69-7.64ZM424.82,128.9c-.56.16-.92,1.92-1.38,2.73-.52.95-1.26,1.53-1.37,2.15-.59,2.9,2.37,2.82,3.98,3.83.64.4,1.01,1.24,1.52,1.35.86.19,1.26-.22,1.99-.44,2.12-4.18,1.37-8.45-.16-12.69-2.63-.47-3.81,2.82-4.58,3.06Z"/>
  </g>
</svg>