<?xml version="1.0" encoding="UTF-8" standalone="no"?>
<!-- Created with Inkscape (http://www.inkscape.org/) -->

<svg
   width="2100"
   height="900"
   viewBox="0 0 555.62498 238.125"
   version="1.1"
   id="svg1"
   inkscape:version="1.3.2 (091e20ef0f, 2023-11-25)"
   sodipodi:docname="sdu.svg"
   xml:space="preserve"
   inkscape:export-filename="microsoft.png"
   inkscape:export-xdpi="96"
   inkscape:export-ydpi="96"
   xmlns:inkscape="http://www.inkscape.org/namespaces/inkscape"
   xmlns:sodipodi="http://sodipodi.sourceforge.net/DTD/sodipodi-0.dtd"
   xmlns="http://www.w3.org/2000/svg"
   xmlns:svg="http://www.w3.org/2000/svg"><sodipodi:namedview
     id="namedview1"
     pagecolor="#ffffff"
     bordercolor="#000000"
     borderopacity="0.25"
     inkscape:showpageshadow="2"
     inkscape:pageopacity="0.0"
     inkscape:pagecheckerboard="0"
     inkscape:deskcolor="#d1d1d1"
     inkscape:document-units="mm"
     inkscape:zoom="0.33111331"
     inkscape:cx="957.37619"
     inkscape:cy="646.30443"
     inkscape:window-width="1536"
     inkscape:window-height="886"
     inkscape:window-x="0"
     inkscape:window-y="0"
     inkscape:window-maximized="1"
     inkscape:current-layer="layer1" /><defs
     id="defs1"><clipPath
       clipPathUnits="userSpaceOnUse"
       id="clipPath1"><rect
         style="opacity:0.129301;fill:#000000;fill-opacity:1;stroke-width:12.7;stroke-linecap:round;stroke-linejoin:round"
         id="rect2"
         width="60.854168"
         height="60.854168"
         x="195.08763"
         y="116.66334" /></clipPath></defs><g
     inkscape:label="图层 1"
     inkscape:groupmode="layer"
     id="layer1"><g
       id="图层_2"
       data-name="图层 2"
       transform="matrix(0.37269633,0,0,0.37269633,219.08718,55.562499)"
       style="clip-rule:evenodd;fill-rule:evenodd;stroke-miterlimit:1.41421"><g
         id="图层_3"
         data-name="图层 3"><polygon
           class="cls-1"
           points="97.46,113.3 64.73,184.9 91.59,184.9 158.73,42.54 224.19,184.9 252.72,184.9 216.63,113.72 235.93,93.93 281.25,184.9 308.11,184.9 241.81,58.55 205.72,99.4 157.47,0 108.37,92.24 73.97,56.86 6.83,184.9 33.68,184.9 79.84,94.77 "
           id="polygon1"
           style="fill:#970102" /><polyline
           class="cls-2"
           points="154.71 340.76 203.81 291.62 238.21 309.41 305.35 245.02 278.5 245.02 232.34 290.35 214.72 281.03 247.45 245.02 220.59 245.02 153.45 316.61 88 245.02 59.46 245.02 95.55 280.82 76.25 290.77 30.93 245.02 4.08 245.02 70.37 308.56 106.46 290.77 154.71 340.76"
           id="polyline1"
           style="fill:#97c2ff" /><path
           class="cls-3"
           d="m 2.14,194.11 c 34.48,21.78 76.17,21.84 106.58,0"
           id="path1"
           style="fill:none;stroke:#3365ab;stroke-width:8px" /><path
           class="cls-3"
           d="m 103.27,194.11 c 34.49,21.78 76.18,21.84 106.58,0"
           id="path2"
           style="fill:none;stroke:#3365ab;stroke-width:8px" /><path
           class="cls-3"
           d="m 204.51,194.11 c 34.49,21.78 76.18,21.84 106.58,0"
           id="path3"
           style="fill:none;stroke:#3365ab;stroke-width:8px" /><path
           class="cls-3"
           d="m 3.94,216.17 c 43.33,27.37 84,16.26 106.57,0"
           id="path4"
           style="fill:none;stroke:#3365ab;stroke-width:8px" /><path
           class="cls-3"
           d="m 104.92,216.3 c 34.48,21.78 76.17,21.84 106.58,0"
           id="path5"
           style="fill:none;stroke:#3365ab;stroke-width:8px" /><path
           class="cls-3"
           d="m 206.22,216.3 c 34.49,21.78 76.18,21.84 106.58,0"
           id="path6"
           style="fill:none;stroke:#3365ab;stroke-width:8px" /></g></g></g></svg>
