<?xml version="1.0" encoding="UTF-8" standalone="no"?>
<!-- Created with Inkscape (http://www.inkscape.org/) -->

<svg
   width="2100"
   height="900"
   viewBox="0 0 555.62498 238.125"
   version="1.1"
   id="svg1"
   inkscape:version="1.3.2 (091e20ef0f, 2023-11-25)"
   sodipodi:docname="tencent-cloud.svg"
   xml:space="preserve"
   inkscape:export-filename="microsoft.png"
   inkscape:export-xdpi="96"
   inkscape:export-ydpi="96"
   xmlns:inkscape="http://www.inkscape.org/namespaces/inkscape"
   xmlns:sodipodi="http://sodipodi.sourceforge.net/DTD/sodipodi-0.dtd"
   xmlns="http://www.w3.org/2000/svg"
   xmlns:svg="http://www.w3.org/2000/svg"><sodipodi:namedview
     id="namedview1"
     pagecolor="#ffffff"
     bordercolor="#000000"
     borderopacity="0.25"
     inkscape:showpageshadow="2"
     inkscape:pageopacity="0.0"
     inkscape:pagecheckerboard="0"
     inkscape:deskcolor="#d1d1d1"
     inkscape:document-units="mm"
     inkscape:zoom="0.22480256"
     inkscape:cx="1443.4889"
     inkscape:cy="369.21288"
     inkscape:window-width="1920"
     inkscape:window-height="1100"
     inkscape:window-x="0"
     inkscape:window-y="0"
     inkscape:window-maximized="1"
     inkscape:current-layer="layer1" /><defs
     id="defs1"><clipPath
   clipPathUnits="userSpaceOnUse"
   id="clipPath1"><rect
     style="opacity:0.129301;fill:#000000;fill-opacity:1;stroke-width:12.7;stroke-linecap:round;stroke-linejoin:round"
     id="rect2"
     width="60.854168"
     height="60.854168"
     x="195.08763"
     y="116.66334" /></clipPath><clipPath
   clipPathUnits="userSpaceOnUse"
   id="clipPath1262"><g
     id="g1266"
     transform="translate(-380.0555,-558.637)"><path
       d="M 0,841.89 H 595.28 V 0 H 0 Z"
       id="path1264" /></g></clipPath><clipPath
   clipPathUnits="userSpaceOnUse"
   id="clipPath1256"><g
     id="g1260"
     transform="translate(-120.3988,-588.0071)"><path
       d="M 0,841.89 H 595.28 V 0 H 0 Z"
       id="path1258" /></g></clipPath><clipPath
   clipPathUnits="userSpaceOnUse"
   id="clipPath1250"><g
     id="g1254"
     transform="translate(-153.9027,-606.2884)"><path
       d="M 0,841.89 H 595.28 V 0 H 0 Z"
       id="path1252" /></g></clipPath><clipPath
   clipPathUnits="userSpaceOnUse"
   id="clipPath1244"><g
     id="g1248"
     transform="translate(-190.184,-606.2884)"><path
       d="M 0,841.89 H 595.28 V 0 H 0 Z"
       id="path1246" /></g></clipPath><clipPath
   clipPathUnits="userSpaceOnUse"
   id="clipPath1238"><g
     id="g1242"
     transform="translate(-229.5243,-589.1321)"><path
       d="M 0,841.89 H 595.28 V 0 H 0 Z"
       id="path1240" /></g></clipPath><clipPath
   clipPathUnits="userSpaceOnUse"
   id="clipPath1232"><g
     id="g1236"
     transform="translate(-267.9496,-623.0228)"><path
       d="M 0,841.89 H 595.28 V 0 H 0 Z"
       id="path1234" /></g></clipPath><clipPath
   clipPathUnits="userSpaceOnUse"
   id="clipPath1226"><g
     id="g1230"><path
       d="M 0,841.89 H 595.28 V 0 H 0 Z"
       id="path1228" /></g></clipPath><clipPath
   clipPathUnits="userSpaceOnUse"
   id="clipPath1220"><g
     id="g1224"
     transform="translate(-319.7699,-606.2884)"><path
       d="M 0,841.89 H 595.28 V 0 H 0 Z"
       id="path1222" /></g></clipPath><clipPath
   clipPathUnits="userSpaceOnUse"
   id="clipPath1214"><g
     id="g1218"
     transform="translate(-318.1908,-573.1605)"><path
       d="M 0,841.89 H 595.28 V 0 H 0 Z"
       id="path1216" /></g></clipPath><clipPath
   clipPathUnits="userSpaceOnUse"
   id="clipPath1208"><g
     id="g1212"><path
       d="M 0,841.89 H 595.28 V 0 H 0 Z"
       id="path1210" /></g></clipPath><clipPath
   clipPathUnits="userSpaceOnUse"
   id="clipPath2"><rect
     style="opacity:0.25671;fill:#b9bfc4;stroke-width:10.4792;stroke-linecap:round;stroke-linejoin:round"
     id="rect3"
     width="287.58838"
     height="80.817612"
     x="212.00186"
     y="-122.43213" /></clipPath><clipPath
   clipPathUnits="userSpaceOnUse"
   id="clipPath3"><rect
     style="opacity:0.25671;fill:#b9bfc4;stroke-width:11.8943;stroke-linecap:round;stroke-linejoin:round"
     id="rect4"
     width="85.776512"
     height="16.947403"
     x="244.23143"
     y="34.239693" /></clipPath><clipPath
   id="_clip1">
                <path
   d="m 556.898,110.327 c -61.787,3.473 -147.33,46.321 -214.675,135.619 -22.045,29.232 -41.857,61.43 -56.498,92.031 -31.16,7.525 -77.571,15.611 -94.758,23.192 -36.386,59.64 -33.658,120.558 -41.886,174.693 35.179,-52.467 55.175,-74.393 111.442,-101.773 2.037,18.34 8.834,32.676 21.226,41.079 11.486,9.605 27.138,12.199 45.332,9.116 -10.858,61.626 -26.444,86.879 -67.218,135.125 49.788,-22.791 109.109,-36.915 156.448,-88.294 2.565,-18.609 -2.419,-65.455 -3.75,-97.483 25.399,-22.488 50.91,-50.388 72.955,-79.62 67.345,-89.298 85.028,-183.324 71.382,-243.685 z m -61.508,81.559 c 5.023,3.788 6.025,10.932 2.236,15.956 -3.789,5.023 -10.933,6.025 -15.956,2.236 -5.024,-3.789 -6.025,-10.933 -2.237,-15.956 3.789,-5.024 10.933,-6.025 15.957,-2.236 z"
   id="path12" />
            </clipPath>
        
        
        
        
        
    
	
	
	
	
	
	
	
	

	
	
	
</defs><g
     inkscape:label="图层 1"
     inkscape:groupmode="layer"
     id="layer1"><g
       id="g2"
       transform="translate(-305.65208,-26.023263)"><path
         id="XMLID_38_"
         class="st0"
         d="m 699.99732,104.70915 h -49.22628 v 7.19035 h 14.93381 v 26.54901 h -17.69933 v 7.19035 h 17.69933 v 43.69524 h 8.29657 v -43.69524 h 18.80554 v 42.03593 h 14.93382 v -7.19036 h -6.63725 v -75.77528 z m -26.54901,32.63315 v -25.4428 h 19.35865 v 26.54901 h -18.80554 v -1.10621 z"
         style="fill:#000000;fill-opacity:1;stroke-width:5.53104" /><rect
         id="XMLID_14_"
         x="562.82745"
         y="168.86925"
         class="st0"
         width="39.270405"
         height="7.1903553"
         style="fill:#000000;fill-opacity:1;stroke-width:5.53104" /><path
         id="XMLID_33_"
         class="st0"
         d="m 535.72535,155.59474 c 0,12.7214 -0.55311,23.23038 -3.31863,31.52695 0,0.5531 0,0.5531 0.55311,0.5531 0,0 6.08414,0 7.19035,0 2.76552,-12.16829 2.76552,-22.12417 2.76552,-29.31453 h 9.95588 v 22.12417 h -6.63725 c -0.55311,0 -0.55311,0 -0.55311,0.55311 l 2.21242,6.63725 h 12.7214 v -82.96564 h -24.33659 z m 7.74346,-3.31862 v -16.59313 h 9.95587 v 17.69933 h -9.95587 z m 9.95587,-40.37662 v 17.14624 h -9.95587 V 111.8995 Z"
         style="fill:#000000;fill-opacity:1;stroke-width:5.53104" /><path
         id="XMLID_30_"
         class="st0"
         d="m 604.86338,134.02367 h 9.40277 v -6.63725 h -28.20831 c 0.5531,-2.21241 1.1062,-4.97794 2.76552,-6.63725 h 24.33659 v -6.63725 h -6.63726 c 0.55311,-3.87173 2.76553,-8.84967 2.76553,-8.84967 0,-0.5531 0,-0.5531 -0.55311,-0.5531 h -6.08415 l -2.76552,9.40277 h -8.84967 c 0.55311,-3.87173 1.10621,-8.29656 2.21242,-12.16829 0,-0.55311 0,-0.55311 -0.5531,-0.55311 -0.55311,0 -4.97794,0 -6.63725,0 -0.55311,4.97794 -1.10621,9.40277 -2.76553,13.2745 h -4.97793 l -2.76552,-9.40277 h -6.08415 c -0.55311,0 -0.55311,0 -0.55311,0.55311 0,0.5531 1.10621,4.97793 2.76553,8.84966 h -6.63726 v 6.63726 h 15.48692 c -0.5531,2.21241 -1.10621,4.97793 -2.76552,6.63725 h -14.93381 v 6.63725 h 11.61519 c -4.97794,6.63725 -9.40278,9.40277 -11.61519,11.06208 0,0.55311 0,7.19036 0,7.19036 0,0.5531 0.5531,0.5531 1.10621,0 2.21241,-0.5531 4.97793,-2.76552 6.63725,-4.97794 h 27.10211 v 9.95588 h -21.01797 l 0.55311,-6.08415 c 0,-0.5531 0,-0.5531 -0.55311,-0.5531 -0.5531,0 -6.63725,0 -6.63725,0 l -0.5531,12.16829 c 0,0.55311 0,0.55311 0.5531,0.55311 0.55311,0 36.50488,0 36.50488,0 v 17.69933 h -16.04002 c -0.5531,0 -0.5531,0 -0.5531,0.55311 l 2.21241,6.63725 h 23.23038 v -30.97384 h -8.84967 v -13.2745 c 3.31863,2.76552 6.63726,5.53104 9.95588,6.63725 0.55311,0.5531 1.10621,0.5531 1.10621,0 0,0 0,-6.63725 0,-7.19036 -3.31863,-1.10621 -8.29656,-3.87173 -12.7214,-9.95588 z m -8.84967,0 c 1.10621,2.76553 3.31863,5.53105 5.53105,7.19036 h -23.78349 c 2.21242,-2.21242 3.31863,-4.97794 5.53104,-7.19036 z"
         style="fill:#000000;fill-opacity:1;stroke-width:5.53104" /><path
         id="XMLID_8_"
         class="st0"
         d="m 655.19587,163.89131 c 0,0 -6.63725,4.97793 -13.2745,9.95587 v -46.46076 h -17.69934 v 8.29657 h 9.95588 v 44.80144 c -2.76552,2.21242 -4.97794,2.76553 -4.97794,2.76553 l 4.97794,6.08414 21.57107,-16.04002 -0.55311,-9.40277 c 1.65931,0 1.10621,-0.55311 0,0 z"
         style="fill:#000000;fill-opacity:1;stroke-width:5.53104" /><path
         id="XMLID_7_"
         class="st0"
         d="m 635.28412,120.19607 h 7.74346 c 1.10621,0 1.10621,-0.55311 1.10621,-0.55311 L 633.0717,102.49673 h -8.29656 l -0.55311,0.5531 c 0.55311,0.55311 11.06209,17.14624 11.06209,17.14624 z"
         style="fill:#000000;fill-opacity:1;stroke-width:5.53104" /><rect
         id="XMLID_6_"
         x="723.78082"
         y="106.36846"
         class="st0"
         width="61.947678"
         height="8.2965641"
         style="fill:#000000;fill-opacity:1;stroke-width:5.53104" /><path
         id="XMLID_5_"
         class="st0"
         d="m 746.45808,144.53266 h 48.67317 v -8.29657 h -80.20012 v 8.29657 h 22.12417 c -4.97793,12.16829 -15.48692,42.03592 -16.04002,42.58903 0,0.5531 0,0.5531 0.5531,0.5531 h 69.13804 c 0.5531,0 0.5531,-0.5531 0.5531,-0.5531 l -9.95587,-27.10211 h -8.29657 c -0.5531,0 -0.5531,0.5531 -0.5531,0.5531 0,0.5531 7.19035,19.35865 7.19035,19.35865 h -45.35455 z"
         style="fill:#000000;fill-opacity:1;stroke-width:5.53104" /><path
         id="XMLID_22_"
         class="st1"
         d="m 490.9239,176.6127 c -2.21242,2.21242 -6.63725,5.53105 -14.38071,5.53105 -3.31863,0 -7.19036,0 -8.84967,0 -2.21242,0 -18.80555,0 -38.7173,0 14.38071,-13.82761 26.54901,-25.4428 27.65521,-26.54901 1.10621,-1.10621 3.87173,-3.87173 6.63726,-6.08415 5.53104,-4.97793 9.95587,-5.53104 13.8276,-5.53104 5.53105,0 9.95588,2.21242 13.82761,5.53104 7.74346,7.19036 7.74346,19.91176 0,27.10211 m 9.40277,-35.95177 c -5.53104,-6.08415 -13.8276,-9.95588 -22.67727,-9.95588 -7.74346,0 -14.38071,2.76552 -20.46486,7.19035 -2.21242,2.21242 -5.53104,4.42484 -8.29657,7.74346 -2.21241,2.21242 -49.77938,48.67318 -49.77938,48.67318 2.76552,0.55311 6.08415,0.55311 8.84967,0.55311 2.76552,0 58.07595,0 60.28836,0 4.42484,0 7.74346,0 11.06209,-0.55311 7.19036,-0.5531 14.38071,-3.31862 20.46486,-8.84967 12.7214,-12.16829 12.7214,-32.63315 0.5531,-44.80144 z"
         style="stroke-width:5.53104" /><path
         id="XMLID_2_"
         class="st2"
         d="m 422.89207,137.3423 c -6.08414,-4.42483 -12.16829,-6.63725 -19.35865,-6.63725 -8.84966,0 -17.14623,3.87173 -22.67727,9.95588 -12.1683,12.72139 -12.1683,32.63315 0.5531,45.35455 5.53105,4.97794 11.06209,7.74346 17.69934,8.29656 l 12.7214,-12.16829 c -2.21242,0 -4.97794,0 -7.19036,0 -7.19035,-0.55311 -11.61519,-2.76552 -14.38071,-5.53105 -7.74346,-7.74346 -7.74346,-19.91175 -0.5531,-27.65521 3.87173,-3.87173 8.29656,-5.53104 13.8276,-5.53104 3.31863,0 8.29657,0.5531 13.27451,5.53104 2.21241,2.21242 8.29656,6.63725 10.50898,8.84967 h 0.5531 l 8.29657,-8.29657 v -0.5531 c -3.87173,-3.87173 -9.95588,-8.84967 -13.27451,-11.61519"
         style="stroke-width:5.53104" /><path
         id="XMLID_1_"
         class="st3"
         d="m 480.96802,123.51469 c -6.08414,-16.59313 -22.12417,-28.208315 -40.37661,-28.208315 -21.57107,0 -38.7173,16.040025 -42.03592,35.951775 1.65931,0 3.31862,-0.5531 5.53104,-0.5531 2.21242,0 4.97794,0.5531 7.19035,0.5531 v 0 c 2.76553,-13.8276 14.93382,-23.78348 29.31453,-23.78348 12.16829,0 22.67728,7.19035 27.65521,17.69934 0,0 0.55311,0.5531 0.55311,0 3.87173,-0.55311 8.29656,-1.65932 12.16829,-1.65932 0,0.55311 0,0.55311 0,0"
         style="stroke-width:5.53104" /></g></g><style
     type="text/css"
     id="style1">
	.st0{fill:#FFFFFF;}
	.st1{fill:#00A3FF;}
	.st2{fill:#00C8DC;}
	.st3{fill:#006EFF;}
</style></svg>
