<?xml version="1.0" encoding="UTF-8" standalone="no"?>
<!-- Created with Inkscape (http://www.inkscape.org/) -->

<svg
   width="2100"
   height="900"
   viewBox="0 0 555.62498 238.125"
   version="1.1"
   id="svg1"
   inkscape:version="1.3.2 (091e20ef0f, 2023-11-25)"
   sodipodi:docname="tuna.svg"
   xml:space="preserve"
   inkscape:export-filename="microsoft.png"
   inkscape:export-xdpi="96"
   inkscape:export-ydpi="96"
   xmlns:inkscape="http://www.inkscape.org/namespaces/inkscape"
   xmlns:sodipodi="http://sodipodi.sourceforge.net/DTD/sodipodi-0.dtd"
   xmlns:xlink="http://www.w3.org/1999/xlink"
   xmlns="http://www.w3.org/2000/svg"
   xmlns:svg="http://www.w3.org/2000/svg"><sodipodi:namedview
     id="namedview1"
     pagecolor="#ffffff"
     bordercolor="#000000"
     borderopacity="0.25"
     inkscape:showpageshadow="2"
     inkscape:pageopacity="0.0"
     inkscape:pagecheckerboard="0"
     inkscape:deskcolor="#d1d1d1"
     inkscape:document-units="mm"
     inkscape:zoom="0.33320022"
     inkscape:cx="1093.9369"
     inkscape:cy="450.17977"
     inkscape:window-width="1920"
     inkscape:window-height="1100"
     inkscape:window-x="0"
     inkscape:window-y="0"
     inkscape:window-maximized="1"
     inkscape:current-layer="layer1" /><defs
     id="defs1"><clipPath
       clipPathUnits="userSpaceOnUse"
       id="clipPath1"><rect
         style="opacity:0.129301;fill:#000000;fill-opacity:1;stroke-width:12.7;stroke-linecap:round;stroke-linejoin:round"
         id="rect2"
         width="60.854168"
         height="60.854168"
         x="195.08763"
         y="116.66334" /></clipPath><clipPath
       clipPathUnits="userSpaceOnUse"
       id="clipPath1262"><g
         id="g1266"
         transform="translate(-380.0555,-558.637)"><path
           d="M 0,841.89 H 595.28 V 0 H 0 Z"
           id="path1264" /></g></clipPath><clipPath
       clipPathUnits="userSpaceOnUse"
       id="clipPath1256"><g
         id="g1260"
         transform="translate(-120.3988,-588.0071)"><path
           d="M 0,841.89 H 595.28 V 0 H 0 Z"
           id="path1258" /></g></clipPath><clipPath
       clipPathUnits="userSpaceOnUse"
       id="clipPath1250"><g
         id="g1254"
         transform="translate(-153.9027,-606.2884)"><path
           d="M 0,841.89 H 595.28 V 0 H 0 Z"
           id="path1252" /></g></clipPath><clipPath
       clipPathUnits="userSpaceOnUse"
       id="clipPath1244"><g
         id="g1248"
         transform="translate(-190.184,-606.2884)"><path
           d="M 0,841.89 H 595.28 V 0 H 0 Z"
           id="path1246" /></g></clipPath><clipPath
       clipPathUnits="userSpaceOnUse"
       id="clipPath1238"><g
         id="g1242"
         transform="translate(-229.5243,-589.1321)"><path
           d="M 0,841.89 H 595.28 V 0 H 0 Z"
           id="path1240" /></g></clipPath><clipPath
       clipPathUnits="userSpaceOnUse"
       id="clipPath1232"><g
         id="g1236"
         transform="translate(-267.9496,-623.0228)"><path
           d="M 0,841.89 H 595.28 V 0 H 0 Z"
           id="path1234" /></g></clipPath><clipPath
       clipPathUnits="userSpaceOnUse"
       id="clipPath1226"><g
         id="g1230"><path
           d="M 0,841.89 H 595.28 V 0 H 0 Z"
           id="path1228" /></g></clipPath><clipPath
       clipPathUnits="userSpaceOnUse"
       id="clipPath1220"><g
         id="g1224"
         transform="translate(-319.7699,-606.2884)"><path
           d="M 0,841.89 H 595.28 V 0 H 0 Z"
           id="path1222" /></g></clipPath><clipPath
       clipPathUnits="userSpaceOnUse"
       id="clipPath1214"><g
         id="g1218"
         transform="translate(-318.1908,-573.1605)"><path
           d="M 0,841.89 H 595.28 V 0 H 0 Z"
           id="path1216" /></g></clipPath><clipPath
       clipPathUnits="userSpaceOnUse"
       id="clipPath1208"><g
         id="g1212"><path
           d="M 0,841.89 H 595.28 V 0 H 0 Z"
           id="path1210" /></g></clipPath><clipPath
       clipPathUnits="userSpaceOnUse"
       id="clipPath2"><rect
         style="opacity:0.25671;fill:#b9bfc4;stroke-width:10.4792;stroke-linecap:round;stroke-linejoin:round"
         id="rect3"
         width="287.58838"
         height="80.817612"
         x="212.00186"
         y="-122.43213" /></clipPath><clipPath
       clipPathUnits="userSpaceOnUse"
       id="clipPath3"><rect
         style="opacity:0.25671;fill:#b9bfc4;stroke-width:11.8943;stroke-linecap:round;stroke-linejoin:round"
         id="rect4"
         width="85.776512"
         height="16.947403"
         x="244.23143"
         y="34.239693" /></clipPath><linearGradient
       id="linearGradient9182"><stop
         style="stop-color:#55c7ff;stop-opacity:1;"
         offset="0"
         id="stop9184" /><stop
         style="stop-color:#2b69ff;stop-opacity:1;"
         offset="1"
         id="stop9186" /></linearGradient><linearGradient
       id="linearGradient5892"
       spreadMethod="pad"
       gradientTransform="matrix(190.60693,0,0,190.60693,-234.07121,40.419435)"
       gradientUnits="userSpaceOnUse"
       y2="0"
       x2="1"
       y1="0"
       x1="0"><stop
         id="stop5894"
         offset="0"
         style="stop-opacity:1;stop-color:#19e1fe" /><stop
         id="stop5896"
         offset="1"
         style="stop-opacity:1;stop-color:#19b5fe" /></linearGradient><radialGradient
       fx="0"
       fy="0"
       cx="0"
       cy="0"
       r="1"
       gradientUnits="userSpaceOnUse"
       gradientTransform="matrix(153.35164,0,0,153.35164,185.94709,-313.36527)"
       spreadMethod="pad"
       id="radialGradient72-9"><stop
         style="stop-opacity:1;stop-color:#339dff"
         offset="0"
         id="stop74-4" /><stop
         style="stop-opacity:1;stop-color:#4552ff"
         offset="1"
         id="stop76-9" /></radialGradient><radialGradient
       inkscape:collect="always"
       xlink:href="#linearGradient5892"
       id="radialGradient6635"
       cx="158.60139"
       cy="-4.6746378"
       fx="158.60139"
       fy="-4.6746378"
       r="95.449026"
       gradientTransform="matrix(0.10432609,0.34694622,-0.34848845,0.10478555,216.38235,-9.5525865)"
       gradientUnits="userSpaceOnUse" /></defs><g
     inkscape:label="图层 1"
     inkscape:groupmode="layer"
     id="layer1"><g
       id="g1"
       transform="matrix(1.9604442,0,0,1.9604442,-154.51682,-18.201931)"><path
         sodipodi:nodetypes="cccccc"
         inkscape:connector-curvature="0"
         id="path9214"
         d="m 199.11425,59.640144 c -4.30324,1.247818 -6.68687,1.758021 -10.24253,4.455071 -2.52559,1.864661 -5.07592,5.058465 -5.07592,5.058465 0,0 4.00516,-2.048933 7.32828,-2.781486 3.32306,-0.7325 4.85838,-0.81451 5.89829,-0.728439 0.20775,-1.948306 1.55995,-4.293794 2.09188,-6.003611 z"
         style="fill:#bee2e9;fill-opacity:1;stroke:none;stroke-width:0.264583"
         inkscape:export-filename="/home/bigeagle/workspace/tuna/mirror-web/static/img/logo-small.png"
         inkscape:export-xdpi="19.55286"
         inkscape:export-ydpi="19.55286" /><path
         d="m 196.47526,67.397562 c 0,15.80779 12.32086,28.735623 27.88332,29.709644 v 0 C 204.36728,95.290331 204.05556,81.163393 209.58041,75.20268 v 0 C 221.72935,62.094293 246.9837,64.118443 246.9837,46.039827 v 0 c -5.36102,-5.206381 -12.67441,-8.413441 -20.7378,-8.413441 v 0 c -16.44203,0 -29.77064,13.328883 -29.77064,29.771176"
         style="fill:url(#radialGradient6635);fill-opacity:1;stroke:none;stroke-width:0.264583"
         id="path5880"
         inkscape:connector-curvature="0" /><path
         sodipodi:nodetypes="csscsc"
         inkscape:connector-curvature="0"
         id="path9200"
         d="m 218.68564,46.386217 c 0,0 -2.98224,3.482573 -5.23893,6.465093 -1.63333,2.158672 -4.52165,3.790418 -8.23605,5.157112 -3.32106,1.221924 -7.84848,2.149455 -7.84848,2.149455 0,0 0.68029,-3.021592 1.50272,-3.516078 2.17009,-1.304672 19.82074,-10.255582 19.82074,-10.255582 z"
         style="fill:#4f9cc5;fill-opacity:1;stroke:none;stroke-width:0.264583"
         inkscape:export-filename="/home/bigeagle/workspace/tuna/mirror-web/static/img/logo-small.png"
         inkscape:export-xdpi="19.55286"
         inkscape:export-ydpi="19.55286" /><path
         sodipodi:nodetypes="cscscsc"
         inkscape:connector-curvature="0"
         id="path9226"
         d="m 217.47433,68.528736 c -2.63176,2.63698 -2.97078,3.391314 -3.77483,5.870655 -1.10082,3.39474 -0.61094,8.428946 -0.61094,8.428946 0,0 -1.1625,-1.120611 -2.07298,-4.456814 -0.69963,-2.563353 -0.60485,-4.68514 -0.60485,-4.68514 0,0 0.68874,-1.587162 2.80356,-3.141082 2.11478,-1.553971 4.26004,-2.016565 4.26004,-2.016565 z"
         style="fill:#bee2e9;fill-opacity:1;stroke:none;stroke-width:0.264583"
         inkscape:export-filename="/home/bigeagle/workspace/tuna/mirror-web/static/img/logo-small.png"
         inkscape:export-xdpi="19.55286"
         inkscape:export-ydpi="19.55286" /><path
         sodipodi:nodetypes="cscscsc"
         inkscape:connector-curvature="0"
         id="path9240"
         d="m 236.24103,62.020041 c -0.0237,2.684024 0.14181,3.862226 -0.0941,7.103707 -0.22138,3.042335 -1.36282,5.421946 -1.36282,5.421946 0,0 0.0468,-2.448647 -0.32897,-4.426381 -0.37597,-1.977735 -2.65523,-5.809424 -2.65523,-5.809424 0,0 0.52719,-0.06471 2.04287,-0.801273 1.73459,-0.843042 2.39821,-1.488575 2.39821,-1.488575 z"
         style="fill:#815cb7;fill-opacity:1;stroke:none;stroke-width:0.264583"
         inkscape:export-filename="/home/bigeagle/workspace/tuna/mirror-web/static/img/logo-small.png"
         inkscape:export-xdpi="19.55286"
         inkscape:export-ydpi="19.55286" /><ellipse
         ry="1.7447557"
         rx="1.8252831"
         cy="45.549458"
         cx="236.50972"
         inkscape:export-ydpi="19.55286"
         inkscape:export-xdpi="19.55286"
         inkscape:export-filename="/home/bigeagle/workspace/tuna/mirror-web/static/img/logo-small.png"
         id="path5116"
         style="fill:#ffffff;fill-opacity:1;stroke:none;stroke-width:0.264583" /><rect
         ry="0.089799464"
         y="98.627861"
         x="204.57852"
         height="3.7797625"
         width="56.129463"
         id="rect5118"
         style="fill:#9c5cb7;fill-opacity:1;stroke:none;stroke-width:0.264583" /><text
         id="text5120"
         y="101.44508"
         x="205.66734"
         style="font-style:normal;font-variant:normal;font-weight:normal;font-stretch:normal;font-size:3.175px;line-height:0%;font-family:sans;-inkscape-font-specification:sans;letter-spacing:0.291042px;word-spacing:0px;fill:#000000;fill-opacity:1;stroke:none;stroke-width:0.264583"
         xml:space="preserve"><tspan
           style="font-style:normal;font-variant:normal;font-weight:bold;font-stretch:normal;font-size:2.91042px;line-height:1.25;font-family:'Source Han Sans CN';-inkscape-font-specification:'Source Han Sans CN Bold';letter-spacing:0px;fill:#ffffff;fill-opacity:1;stroke-width:0.264583"
           y="101.44508"
           x="205.66734"
           id="tspan5122"
           sodipodi:role="line">Tsinghua University TUNA Association</tspan></text><path
         d="m 222.06188,91.887985 c 0,3.619177 0.96377,4.873069 2.65649,4.873069 0.90655,0 1.58613,-0.09662 2.21766,-0.290668 v 0.140612 c -0.71817,0.264219 -1.54942,0.453679 -2.49402,0.453679 -1.54887,0 -5.10058,0 -5.10058,-5.32783 V 80.13173 h -3.82699 v -2.493748 h 3.82699 v -5.327561 h 2.72045 v 5.327561 h 4.87415 v 2.493748 h -4.87415 z"
         style="fill:#2f4b68;fill-opacity:1;fill-rule:nonzero;stroke:none;stroke-width:0.264583"
         id="path24-1"
         inkscape:connector-curvature="0" /><path
         d="m 238.48148,77.907896 v 11.459377 c 0,5.25199 -1.15188,7.697163 -5.19801,7.697163 -3.91552,0 -5.19829,-2.445173 -5.19829,-7.697163 V 77.907896 h 2.72073 v 11.070738 c 0,3.816197 0.18136,6.633811 2.47756,6.633811 2.37635,0 2.47755,-2.817614 2.47755,-6.633811 V 77.907896 Z"
         style="fill:#2f4b68;fill-opacity:1;fill-rule:nonzero;stroke:none;stroke-width:0.264583"
         id="path28-5"
         inkscape:connector-curvature="0" /><path
         sodipodi:nodetypes="cccszsccscc"
         d="m 250.58286,85.021939 v 11.74006 h -2.72018 v -14.07165 c 0,-2.88026 -0.94893,-3.396692 -2.33143,-3.392546 -1.3825,0.0042 -2.2839,0.59486 -2.2839,3.366275 V 96.761999 H 240.5269 V 81.301503 c 0,-2.415762 1.55351,-3.694827 4.9685,-3.733556 3.34817,-0.03797 5.08746,1.300644 5.08746,3.645402"
         style="fill:#2f4b68;fill-opacity:1;fill-rule:nonzero;stroke:none;stroke-width:0.264583"
         id="path32-6"
         inkscape:connector-curvature="0" /><path
         sodipodi:nodetypes="sssssscsssscsccsc"
         d="m 259.5595,86.387726 c 0,-0.25377 -0.0541,-0.226706 -1.20369,-0.226706 -2.26705,0 -3.87017,1.344306 -3.87017,4.820174 0,3.626464 -0.0856,4.09148 2.74744,4.09148 2.22765,0 2.32642,-1.645769 2.32642,-3.978397 0,0 0,-3.356758 0,-4.706551 z m 2.45057,-0.961064 v 5.667615 c 0,5.065228 -1.69488,5.970429 -4.77699,5.970429 -5.02582,0 -5.19801,0.30929 -5.19801,-6.083512 0,-6.234377 4.88495,-6.196324 6.62301,-6.196324 1.70029,0 0.86364,0.18865 0.86364,0.18865 0,-3.551706 0.32117,-5.867331 -2.81762,-5.867331 -1.59556,0 -3.07994,0.506037 -3.89715,1.009375 v -1.295186 c 1.18858,-0.810736 2.47026,-1.25254 4.04829,-1.25254 5.28978,0 5.15483,3.799999 5.15483,7.858824"
         style="fill:#2f4b68;fill-opacity:1;fill-rule:nonzero;stroke:none;stroke-width:0.264583"
         id="path36-9"
         inkscape:connector-curvature="0" /><path
         d="m 179.04202,67.540228 c 6.56202,-13.161285 12.52975,-20.438234 39.64363,-21.157212 0,0 -5.68004,6.274321 -7.98028,7.876367 -7.27128,5.06442 -21.08488,3.244306 -31.66335,13.280845"
         style="fill:#815cb7;fill-opacity:1;fill-rule:nonzero;stroke:none;stroke-width:0.264583"
         id="path150-3"
         inkscape:connector-curvature="0" /></g></g></svg>
