<?xml version="1.0" encoding="UTF-8" standalone="no"?>
<svg
   xml:space="preserve"
   width="640"
   height="440"
   viewBox="0 0 169.333 116.416"
   version="1.1"
   id="svg70"
   sodipodi:docname="main1.svg"
   inkscape:version="1.4 (unknown)"
   xmlns:inkscape="http://www.inkscape.org/namespaces/inkscape"
   xmlns:sodipodi="http://sodipodi.sourceforge.net/DTD/sodipodi-0.dtd"
   xmlns:xlink="http://www.w3.org/1999/xlink"
   xmlns="http://www.w3.org/2000/svg"
   xmlns:svg="http://www.w3.org/2000/svg"><sodipodi:namedview
     id="namedview70"
     pagecolor="#dc7f74"
     bordercolor="#000000"
     borderopacity="0.25"
     inkscape:showpageshadow="2"
     inkscape:pageopacity="0.0"
     inkscape:pagecheckerboard="0"
     inkscape:deskcolor="#d1d1d1"
     inkscape:zoom="0.81541822"
     inkscape:cx="103.01462"
     inkscape:cy="77.260967"
     inkscape:window-width="1920"
     inkscape:window-height="1111"
     inkscape:window-x="0"
     inkscape:window-y="0"
     inkscape:window-maximized="1"
     inkscape:current-layer="g71"
     inkscape:export-bgcolor="#dc7f74ff" /><defs
     id="defs2"><linearGradient
       id="a"><stop
         offset="0"
         style="stop-color:#333333;stop-opacity:1;"
         id="stop1" /><stop
         offset="1"
         style="stop-color:#333333;stop-opacity:0;"
         id="stop2" /></linearGradient><linearGradient
       xlink:href="#a"
       id="b"
       x1="-9.207"
       x2="-2.857"
       y1="53.938"
       y2="53.938"
       gradientTransform="translate(9.207 4.27)"
       gradientUnits="userSpaceOnUse" /><filter
       style="color-interpolation-filters:sRGB"
       inkscape:label="Drop Shadow"
       id="filter45"
       x="-0.037368885"
       y="-0.016510862"
       width="1.0373689"
       height="1.0165109"><feFlood
         result="flood"
         in="SourceGraphic"
         flood-opacity="1.000000"
         flood-color="rgb(255,243,235)"
         id="feFlood44" /><feGaussianBlur
         result="blur"
         in="SourceGraphic"
         stdDeviation="0.000000"
         id="feGaussianBlur44" /><feOffset
         result="offset"
         in="blur"
         dx="-3.000000"
         dy="-3.000000"
         id="feOffset44" /><feComposite
         result="comp1"
         operator="in"
         in="flood"
         in2="offset"
         id="feComposite44" /><feComposite
         result="comp2"
         operator="over"
         in="SourceGraphic"
         in2="comp1"
         id="feComposite45" /></filter><filter
       style="color-interpolation-filters:sRGB"
       inkscape:label="Drop Shadow"
       id="filter52"
       x="-0.021001987"
       y="-0.016467611"
       width="1.026996"
       height="1.022177"><feFlood
         result="flood"
         in="SourceGraphic"
         flood-opacity="1.000000"
         flood-color="rgb(255,243,235)"
         id="feFlood51" /><feGaussianBlur
         result="blur"
         in="SourceGraphic"
         stdDeviation="0.000000"
         id="feGaussianBlur51" /><feOffset
         result="offset"
         in="blur"
         dx="-10.000000"
         dy="-10.000000"
         id="feOffset51" /><feComposite
         result="comp1"
         operator="in"
         in="flood"
         in2="offset"
         id="feComposite51" /><feComposite
         result="comp2"
         operator="over"
         in="SourceGraphic"
         in2="comp1"
         id="feComposite52" /></filter><pattern
       inkscape:collect="always"
       xlink:href="#pattern52"
       preserveAspectRatio="xMidYMid"
       id="pattern53"
       patternTransform="matrix(0.39362246,-0.09087491,0.09087491,0.39362246,532.46639,-107.45026)"
       x="0"
       y="0"
       width="167.42096405"
       height="165.93757629" /><pattern
       patternUnits="userSpaceOnUse"
       width="119.5864"
       height="118.52684"
       patternTransform="translate(830.66926,137.09319)"
       preserveAspectRatio="xMidYMid"
       id="pattern52"
       style="fill:#000000"
       inkscape:label="pattern52"><g
         id="g52"
         transform="matrix(0.18015336,-0.1040116,0.1040116,0.18015336,90.545919,-197.53869)"><circle
           r="43.849579"
           cy="987.09613"
           cx="-714.43677"
           id="circle8306"
           style="color:#000000;display:inline;overflow:visible;visibility:visible;fill:#ca463a;fill-opacity:1;fill-rule:nonzero;stroke:none;stroke-width:0.781672;stroke-linejoin:miter;stroke-miterlimit:4;stroke-dasharray:none;stroke-dashoffset:0;stroke-opacity:1;marker:none;enable-background:accumulate" /><path
           style="color:#000000;display:inline;overflow:visible;visibility:visible;fill:#ca463a;fill-opacity:1;fill-rule:nonzero;stroke:none;stroke-width:3.85356;stroke-linejoin:miter;stroke-miterlimit:4;stroke-dasharray:none;stroke-dashoffset:0;stroke-opacity:1;marker:none;enable-background:accumulate"
           d="M -722.67538,684.21777 A 303.04532,303.04532 0 0 0 -1025.72,987.26242 303.04532,303.04532 0 0 0 -722.67538,1290.3071 V 1142.2982 A 155.61426,155.61426 0 0 1 -870.05066,987.09609 155.61426,155.61426 0 0 1 -722.67538,831.77363 Z"
           id="circle8373"
           inkscape:connector-curvature="0" /><path
           style="color:#000000;display:inline;overflow:visible;visibility:visible;fill:#ca463a;fill-opacity:1;fill-rule:nonzero;stroke:none;stroke-width:3.85356;stroke-linejoin:miter;stroke-miterlimit:4;stroke-dasharray:none;stroke-dashoffset:0;stroke-opacity:1;marker:none;enable-background:accumulate"
           d="m -721.92454,860.32297 a 126.5906,126.5906 0 0 0 -126.58938,126.59095 126.5906,126.5906 0 0 0 126.58938,126.58938 v -60.2367 a 66.62981,66.62981 0 0 1 -59.14211,-66.17051 66.62981,66.62981 0 0 1 59.14211,-66.12617 z"
           id="path8382"
           inkscape:connector-curvature="0" /><path
           style="color:#000000;display:inline;overflow:visible;visibility:visible;fill:#ca463a;fill-opacity:1;fill-rule:nonzero;stroke:none;stroke-width:3.85356;stroke-linejoin:miter;stroke-miterlimit:4;stroke-dasharray:none;stroke-dashoffset:0;stroke-opacity:1;marker:none;enable-background:accumulate"
           d="M -708.29855,727.70153 V 858.175 a 129.22892,129.22892 0 0 1 123.09021,128.92109 129.22892,129.22892 0 0 1 -123.09021,129.01141 v 130.4687 A 259.43758,259.43758 0 0 0 -448.86123,987.13885 259.43758,259.43758 0 0 0 -708.29855,727.70153 Z"
           id="path8387"
           inkscape:connector-curvature="0" /></g></pattern></defs><g
     id="g70"
     transform="matrix(0.39377306,0,0,0.39377306,61.853181,67.512015)"><g
       id="g71"
       transform="translate(34.939684,2.687668)"><rect
         style="fill:#dc7f74;fill-opacity:1;stroke-width:58.8968;stroke-linecap:round;stroke-linejoin:round;paint-order:fill markers stroke"
         id="rect74"
         width="430.02689"
         height="295.64349"
         x="-192.01793"
         y="-174.13727" /><g
         id="g11"
         transform="matrix(0.32622912,0,0,0.32622912,210.15798,-164.59294)" /><g
         id="g2"
         transform="rotate(2.7199749,66.069653,61.778031)"><rect
           style="opacity:0.242259;fill:url(#pattern53);fill-opacity:1;stroke:none;stroke-width:7.13309;stroke-linecap:round;stroke-linejoin:round;stroke-dasharray:none;stroke-opacity:1;paint-order:fill markers stroke"
           id="rect38"
           width="688.04071"
           height="294.8746"
           x="-212.75603"
           y="-171.97905" /><g
           id="g1"
           transform="translate(0,13.43834)"><rect
             style="fill:#ca463a;fill-opacity:0.666667;stroke:none;stroke-width:5.91457;stroke-linecap:round;stroke-linejoin:round;stroke-dasharray:none;stroke-opacity:1;paint-order:fill markers stroke"
             id="rect53"
             width="574.70892"
             height="312.69339"
             x="-329.11029"
             y="-99.694618"
             transform="rotate(-13.110062)" /><g
             id="text53"
             style="font-size:61.3774px;line-height:0;font-family:'小赖字体 SC';-inkscape-font-specification:'小赖字体 SC';text-align:end;letter-spacing:-0.613774px;writing-mode:tb-rl;text-anchor:end;fill:#fff3eb;stroke-width:5.79938;stroke-linecap:round;stroke-linejoin:round;paint-order:fill markers stroke"
             transform="rotate(-14.049641)"
             aria-label="乙巳烙饼会&#10;2025.2.1&#10;农历正月初四&#10;下午 2:00"><path
               style="font-weight:630;font-size:47.0554px;line-height:1;font-family:MiSans;-inkscape-font-specification:'MiSans weight=630';writing-mode:lr-tb"
               d="m 4.0054816,-47.331123 q 0,-2.682158 1.6469391,-5.693704 1.6939944,-3.058601 6.9171443,-7.905307 5.270204,-4.893762 15.34006,-11.952072 H 5.4641991 V -79.28174 H 38.167703 v 6.352479 q -15.669449,11.246241 -21.410208,16.845833 -5.740759,5.552538 -5.740759,7.528864 0,1.223441 0.894053,1.929272 0.894053,0.705831 2.729213,0.705831 h 18.445717 q 1.646939,0 2.446881,-0.235277 0.799942,-0.282333 1.082274,-0.941108 0.329388,-0.658776 0.423499,-2.023382 0.09411,-1.599884 0.141166,-3.717377 0.09411,-2.117493 0.09411,-3.670321 l 6.917144,1.693994 -0.564665,8.046474 q -0.235277,2.682157 -1.22344,4.234986 -0.941108,1.552828 -2.917435,2.211604 -1.976327,0.705831 -5.31726,0.705831 H 12.851897 q -4.1408753,0 -6.4936453,-2.117493 -2.3527701,-2.164549 -2.3527701,-5.599593 z m 80.7450144,-7.717086 6.587756,1.411662 q -0.188221,5.129039 -0.329387,6.634812 -0.235277,3.058601 -1.082275,4.658484 -0.846997,1.599884 -2.682157,2.211604 -1.788106,0.658776 -5.081984,0.658776 H 61.034574 q -3.105656,0 -4.940817,-0.752887 -1.788105,-0.705831 -2.635102,-2.540991 -0.846997,-1.882216 -0.846997,-5.270205 v -31.338897 h 34.726885 v 21.504318 H 59.481746 v 8.093529 q 0,1.693994 0.282332,2.493936 0.329388,0.799942 1.176386,1.082274 0.846997,0.282333 2.540991,0.282333 h 16.704667 q 1.929272,0 2.776269,-0.235277 0.846997,-0.235277 1.12933,-0.846997 0.282332,-0.658776 0.376443,-2.164549 z m -4.18793,-9.081692 v -8.987582 h -21.08082 v 8.987582 z m 49.264954,-0.658776 q 3.52915,1.364607 8.79936,2.211604 l -1.59989,5.92898 q -7.57592,-1.317551 -12.56379,-4.329096 -5.41137,3.105656 -12.75201,4.611429 l -2.21161,-5.693704 q 5.88193,-1.22344 9.88164,-2.917435 -1.17639,-1.176385 -2.44688,-2.823324 -1.31755,1.929272 -2.63511,3.435045 l -3.62326,-3.905599 -3.81149,3.811488 q -0.047,4.517318 -0.4235,8.28175 l 6.39954,8.046474 -3.85855,5.364316 -3.90559,-5.740759 q -1.50578,5.599592 -4.98788,10.916853 l -4.705536,-4.517319 q 3.246822,-4.517318 4.470263,-8.422916 1.270493,-3.952654 1.411663,-10.022801 l -3.858544,1.035219 q -0.141166,-1.176385 -0.988163,-5.928981 -0.799942,-4.752595 -1.317552,-7.340642 l 4.09382,-1.035219 q 0.282333,1.223441 2.117489,11.058019 v -0.09411 -18.11633 h 5.55254 v 9.269914 l 3.15271,-3.529155 2.87038,3.764432 q 1.64694,-2.446881 3.01155,-5.270205 1.41166,-2.823324 2.11749,-5.223149 l 5.55254,1.317551 q -0.4235,1.317551 -0.98816,2.682158 h 13.41078 v 5.458426 q -2.44688,4.470263 -6.16425,7.717086 z m -9.92869,-7.717086 q 2.07044,2.917435 4.56437,4.799651 2.82333,-2.023382 4.98787,-4.799651 z m -0.56467,34.538665 h -5.97603 v -18.539828 h 21.88076 v 18.539828 h -6.02309 v -2.305715 h -9.88164 z m 9.88164,-7.858252 v -5.129039 h -9.88164 v 5.129039 z m 55.28803,-14.163676 v 5.976036 h -5.08198 v 16.045892 h -5.88193 V -54.01299 h -5.45842 q -0.28234,3.952654 -1.03522,6.728922 -0.70583,2.729213 -1.97633,5.034928 -1.27049,2.305715 -3.4821,5.034928 l -4.89376,-4.376152 q 2.87038,-3.199768 4.04676,-5.693704 1.17639,-2.540991 1.50578,-6.728922 h -4.3291 v -5.976036 h 4.51732 v -0.564665 -6.964199 h -2.68216 v -5.83487 h 5.08198 q -1.92927,-3.105656 -3.62326,-5.505482 l 4.70554,-2.870379 q 0.98816,1.317551 2.30571,3.199767 1.36461,1.835161 2.44688,3.529155 l -2.72921,1.646939 h 3.9056 q 1.31755,-2.164548 2.6351,-4.611429 1.31755,-2.493936 1.97633,-3.999709 l 5.64665,2.399825 q -1.41167,2.823324 -3.38799,6.211313 h 4.79965 v 5.83487 h -4.09382 v 7.528864 z m -27.66857,7.764141 1.64694,5.881925 -9.69342,7.999418 -3.38799,-4.752595 q 0.94111,-0.799942 1.17639,-1.552828 0.23528,-0.799942 0.23528,-2.070438 v -15.810615 q -0.847,1.788106 -2.16455,3.905599 l -3.0586,-6.35248 q 1.59988,-2.870379 3.19976,-7.293587 1.59989,-4.470263 2.68216,-9.222858 l 5.50548,1.176385 q -0.56466,2.399825 -1.12933,4.423207 h 6.82304 v 5.599593 l -2.77627,7.999418 -3.34093,-1.176385 v 15.198895 z m -5.22315,-13.457845 1.69399,-4.470263 h -3.29388 q -0.61172,1.788106 -1.74105,4.470263 z m 16.65761,5.693704 h 5.2702 v -7.528864 h -5.2702 v 6.352479 z m 29.83108,-4.752596 q -3.29388,2.164549 -7.10537,4.187931 l -2.82332,-5.881925 q 6.30542,-3.011546 11.19918,-6.823033 4.89377,-3.858543 8.14059,-7.999418 h 4.70554 q 3.15271,3.999709 7.99942,7.764141 4.89376,3.764432 11.19918,6.870088 l -2.82332,5.928981 q -3.67032,-1.882216 -7.10537,-4.187931 v 3.623266 H 198.1008 Z m 11.71679,-10.0228 q -2.91743,3.623266 -8.65819,7.858252 h 17.4105 q -5.55254,-4.09382 -8.75231,-7.858252 z m -20.18676,23.057147 v -5.787815 h 40.23236 v 5.787815 h -10.63452 l 8.70525,9.928689 -4.70554,4.329097 q -0.79994,-1.082274 -2.2116,-2.776269 l -26.86864,1.364607 -1.31755,-5.646648 q 4.09382,-2.96449 7.85825,-7.199476 z m 26.5863,5.834869 q -1.78811,-2.117493 -2.82333,-3.199767 l 3.34094,-2.635102 h -8.28175 q -3.85855,4.658484 -5.92898,6.446589 z"
               id="path71" /><path
               style="font-weight:bold;font-size:55.5016px;line-height:1;font-family:MiSans;-inkscape-font-specification:'MiSans Bold';writing-mode:lr-tb"
               d="M 16.817421,4.6701832 H 32.024859 V 14.327461 H 0.88846189 V 7.5007647 L 16.539913,-8.5391972 q 2.275565,-2.3865688 3.163591,-4.1071178 0.888025,-1.72055 0.888025,-3.552103 0,-2.109061 -1.221035,-3.385597 -1.165533,-1.276537 -3.441099,-1.276537 -2.386569,0 -4.107118,1.443042 -1.72055,1.387539 -2.941585,4.273623 l -8.04773171,-5.494659 q 1.83155271,-4.107118 5.66116301,-6.826696 3.8296107,-2.77508 9.7682817,-2.830582 4.606632,0 7.936728,1.72055 3.385598,1.665048 5.161649,4.773137 1.776051,3.052588 1.776051,7.048703 0,3.552103 -1.72055,6.8266968 -1.665048,3.2745943 -4.828639,6.5491886 z M 52.224214,15.104484 q -8.103234,0 -12.432358,-5.7721665 -4.273623,-5.7721663 -4.273623,-16.8724859 0,-11.1558216 4.273623,-16.9279876 4.329124,-5.827668 12.432358,-5.827668 8.103233,0 12.376856,5.827668 4.329125,5.772166 4.329125,16.9279876 0,11.1003196 -4.329125,16.8724859 -4.273623,5.7721665 -12.376856,5.7721665 z m 0,-9.6572784 q 2.997086,0 4.551131,-3.2745943 1.609546,-3.2745943 1.609546,-9.7127797 0,-6.4936866 -1.609546,-9.7682816 -1.554045,-3.330096 -4.551131,-3.330096 -2.997086,0 -4.606633,3.330096 -1.554045,3.274595 -1.554045,9.7682816 0,6.4381854 1.554045,9.7127797 1.609547,3.2745943 4.606633,3.2745943 z M 88.019584,4.6701832 H 103.22702 V 14.327461 H 72.090626 V 7.5007647 l 15.65145,-16.0399619 q 2.275566,-2.3865688 3.163591,-4.1071178 0.888026,-1.72055 0.888026,-3.552103 0,-2.109061 -1.221035,-3.385597 -1.165534,-1.276537 -3.441099,-1.276537 -2.386569,0 -4.107119,1.443042 -1.720549,1.387539 -2.941584,4.273623 l -8.047732,-5.494659 q 1.831553,-4.107118 5.661163,-6.826696 3.82961,-2.77508 9.768281,-2.830582 4.606633,0 7.936729,1.72055 3.385597,1.665048 5.161653,4.773137 1.77605,3.052588 1.77605,7.048703 0,3.552103 -1.72055,6.8266968 -1.665051,3.2745943 -4.828642,6.5491886 z M 124.53642,-14.644373 q 4.32913,0 7.49272,1.831553 3.16359,1.776051 4.82864,5.1061468 1.72054,3.2745943 1.72054,7.65922054 0,4.66213426 -1.99805,8.10323336 -1.99806,3.3855973 -5.77217,5.2171503 -3.71861,1.831553 -8.82475,1.831553 -5.21715,0 -9.21327,-2.331067 -3.94061,-2.386569 -5.77216,-6.6601922 l 8.38074,-5.66116307 q 2.22006,5.32815347 6.9377,5.32815347 2.71957,0 4.38462,-1.4430416 1.66505,-1.4985431 1.66505,-4.10711826 0,-2.71957834 -1.60955,-4.16261984 -1.55404,-1.4985432 -4.44012,-1.4985432 -1.99806,0 -3.60761,0.9990288 -1.55404,0.9990287 -2.38657,2.9415847 l -8.71375,-3.9406135 1.83156,-24.0876933 h 27.08478 v 9.324268 h -17.372 l -0.66602,6.882198 q 2.77508,-1.332038 6.04967,-1.332038 z m 24.25103,29.748857 q -2.66408,0 -4.38463,-1.72055 -1.66505,-1.720549 -1.66505,-4.3846261 0,-2.6640767 1.66505,-4.3846263 1.72055,-1.7205495 4.38463,-1.7205495 2.71957,0 4.44012,1.7205495 1.72055,1.7205496 1.72055,4.3846263 0,2.6640771 -1.72055,4.3846261 -1.72055,1.72055 -4.44012,1.72055 z M 175.48051,4.6701832 h 15.20743 V 14.327461 H 159.55155 V 7.5007647 L 175.203,-8.5391972 q 2.27556,-2.3865688 3.16359,-4.1071178 0.88803,-1.72055 0.88803,-3.552103 0,-2.109061 -1.22104,-3.385597 -1.16553,-1.276537 -3.4411,-1.276537 -2.38657,0 -4.10712,1.443042 -1.72055,1.387539 -2.94158,4.273623 l -8.04773,-5.494659 q 1.83155,-4.107118 5.66116,-6.826696 3.82961,-2.77508 9.76828,-2.830582 4.60663,0 7.93673,1.72055 3.3856,1.665048 5.16165,4.773137 1.77605,3.052588 1.77605,7.048703 0,3.552103 -1.72055,6.8266968 -1.66505,3.2745943 -4.82864,6.5491886 z m 26.08252,10.4343008 q -2.66407,0 -4.38462,-1.72055 -1.66505,-1.720549 -1.66505,-4.3846261 0,-2.6640767 1.66505,-4.3846263 1.72055,-1.7205495 4.38462,-1.7205495 2.71958,0 4.44013,1.7205495 1.72055,1.7205496 1.72055,4.3846263 0,2.6640771 -1.72055,4.3846261 -1.72055,1.72055 -4.44013,1.72055 z m 25.13896,-0.777023 h -10.3233 v -32.357432 l -9.99029,5.161649 V -23.58013 l 11.59984,-5.938671 h 8.71375 z"
               id="path72" /><path
               style="font-weight:450;font-size:39.6908px;line-height:1;font-family:MiSans;-inkscape-font-specification:'MiSans weight=450';writing-mode:lr-tb"
               d="m 25.085613,43.256157 q 1.98454,2.381448 4.643824,4.286607 2.698974,1.865467 6.231455,3.413409 l -2.460829,3.770626 q -4.723205,-2.46083 -7.858778,-5.159804 -3.135574,-2.698975 -5.278877,-6.112384 -2.143303,-3.453099 -3.730935,-8.295377 -1.547941,2.97681 -3.730935,5.636094 v 11.311878 l 8.215995,-3.4531 0.635053,4.008771 -12.661365,5.159804 -1.5876319,-3.611863 q 0.99227,-0.595362 1.2701055,-1.151033 0.2778356,-0.595362 0.2778356,-1.428869 V 44.843789 Q 6.0340295,47.622145 1.6680415,50.519574 L -0.19742609,46.510803 Q 6.0340295,42.660795 9.5665106,38.532952 13.098992,34.365418 14.845387,29.00716 H 6.2324835 v 5.477331 H 2.3824759 V 25.355607 H 15.797966 q 0.47629,-1.944849 0.793816,-4.802587 l 4.286607,0.396908 q -0.436599,2.857738 -0.793816,4.405679 h 13.534562 v 8.295377 H 29.8882 V 29.00716 H 19.131993 q -0.07938,0.198454 -0.277835,0.873198 1.468559,6.112383 3.929389,10.200535 3.691244,-2.778356 6.747436,-5.675784 l 2.698974,3.135573 q -3.929389,3.334027 -7.144344,5.715475 z M 43.166207,23.05354 h 31.316041 v 3.92939 H 47.174977 v 9.96239 q 0,4.96135 -0.357217,8.255687 -0.357217,3.294336 -1.349487,6.191764 -0.99227,2.857738 -2.897428,6.112383 l -3.413409,-2.818046 q 1.587632,-2.500521 2.421139,-4.802587 0.873197,-2.302066 1.230414,-5.199495 0.357218,-2.937119 0.357218,-7.382489 z m 17.106734,5.477331 -0.07938,5.596402 h 12.264457 q -0.158763,3.175264 -0.515981,9.724246 -0.317526,6.509292 -0.436598,7.620634 -0.158764,1.905158 -0.793816,3.016501 -0.595362,1.071651 -1.98454,1.587632 -1.349488,0.51598 -3.810317,0.51598 h -4.96135 L 59.1616,52.702568 h 4.604133 q 1.667013,0 2.381448,-0.198454 0.754125,-0.238145 1.03196,-0.833507 0.317527,-0.635053 0.436599,-2.024231 0.158763,-2.182994 0.357217,-5.834547 0.238145,-3.651554 0.317527,-5.874239 h -8.255686 q -0.317527,4.802587 -1.389178,8.136614 -1.031961,3.294337 -3.135574,5.993311 -2.103612,2.659284 -5.755166,5.437639 l -3.135573,-3.0165 q 3.4531,-2.500521 5.397949,-4.762896 1.944849,-2.262376 2.897428,-5.001041 0.95258,-2.778356 1.230415,-6.787127 h -7.184035 v -3.810317 h 7.342798 q 0.119073,-2.818046 0.119073,-5.596402 z m 39.950229,12.224766 v 10.637134 h 13.29641 v 4.048462 H 78.909206 v -4.048462 h 5.358258 V 32.46026 h 4.088152 v 18.932511 h 7.660325 V 27.657673 H 80.734983 v -4.088152 h 31.593877 v 4.088152 h -12.10569 v 9.009812 h 11.07373 v 4.088152 z m 48.04714,-18.019623 v 28.656757 q 0,2.182994 -0.55567,3.294337 -0.51598,1.151033 -1.78608,1.627323 -1.27011,0.476289 -3.65156,0.476289 h -5.67578 l -0.79382,-4.008771 h 5.47733 q 1.3098,0 1.90516,-0.158763 0.59536,-0.198454 0.79382,-0.674743 0.19845,-0.515981 0.19845,-1.587632 v -4.564442 h -17.22581 q -0.47629,3.49279 -1.7067,6.152074 -1.19073,2.659283 -3.65156,5.794856 l -3.61186,-2.421138 q 2.42114,-2.818047 3.53248,-5.001041 1.11135,-2.182994 1.50825,-5.040732 0.39691,-2.857737 0.39691,-8.136614 v -14.40776 z m -4.08815,9.803627 v -5.874238 h -16.78921 v 5.874238 z m 0,9.486102 v -5.675785 h -16.78921 v 1.270106 q 0,1.706704 -0.0794,4.405679 z m 19.03317,-14.447451 q -0.63505,-1.547942 -2.73866,-5.755166 l 3.29433,-1.389178 q 0.71444,1.270105 1.50825,2.897428 0.83351,1.587632 1.3098,2.698974 z m 7.66033,-3.611863 h 19.60725 q -0.0397,0.555671 -0.0794,1.786086 -0.0397,1.190724 -0.11907,3.016501 -0.79382,21.075814 -0.8732,22.028393 -0.11907,2.182994 -0.79382,3.413409 -0.63505,1.230415 -2.02423,1.746395 -1.38917,0.555672 -3.85,0.555672 h -4.20723 l -0.75412,-3.889699 h 3.61186 q 1.62732,0 2.46083,-0.277835 0.8732,-0.277836 1.2701,-0.99227 0.39691,-0.754126 0.47629,-2.182994 0.23815,-4.723206 0.63506,-16.789209 l 0.15876,-4.643823 h -6.82682 q -0.0397,1.944849 -0.19845,6.152074 -0.23815,6.152074 -1.03196,9.883009 -0.79382,3.730935 -2.5799,6.826817 -1.7464,3.056192 -5.35826,7.184035 l -3.21496,-2.698974 q 3.4531,-3.691245 5.12012,-6.390219 1.66701,-2.738665 2.34175,-6.072692 0.71444,-3.373718 0.95258,-9.168575 l 0.15877,-5.715475 h -4.88197 z m -0.99227,23.100045 q -1.19073,-1.111342 -4.56445,-3.889698 V 57.3067 h -3.81031 V 42.263887 q -2.10361,2.302067 -3.92939,3.92939 l -1.34949,-3.92939 q 5.95362,-5.437639 8.6526,-10.716516 h -7.3428 v -3.651553 h 11.6294 v 3.334027 q -1.58763,3.095882 -3.85001,6.271146 v 1.547942 l 1.03197,0.833506 q 2.61959,-3.214954 3.92938,-5.080422 l 2.57991,2.103612 q -2.42114,3.254646 -3.96908,5.040732 l 3.09588,2.50052 z m 27.9636,10.359299 V 23.728284 h 31.27635 v 33.697489 h -3.85001 v -2.818047 h -23.61602 v 2.818047 z m 3.81032,-6.628364 h 23.61602 V 44.88348 h -4.04846 q -2.89743,0 -4.16753,-1.111342 -1.27011,-1.151033 -1.27011,-4.008771 V 27.459219 h -4.7629 v 5.47733 q 0,3.611863 -0.59536,5.91393 -0.55567,2.262375 -1.94485,4.048461 -1.34948,1.786086 -4.00877,4.048462 L 201.65731,44.3675 Z m 5.5964,-23.33819 h -5.5964 v 16.828899 q 2.46083,-1.905158 3.61186,-3.373718 1.15103,-1.468559 1.54794,-3.254645 0.4366,-1.786086 0.4366,-4.881969 z m 18.01962,13.574254 V 27.459219 h -5.71547 v 10.835588 q 0,1.190724 0.19845,1.746396 0.23815,0.555671 0.79382,0.793816 0.59536,0.198454 1.78608,0.198454 z"
               id="path73" /><path
               style="font-weight:450;font-size:39.6908px;line-height:1;font-family:MiSans;-inkscape-font-specification:'MiSans weight=450';writing-mode:lr-tb"
               d="m 61.164481,67.18971 v -3.889699 h 34.72945 V 67.18971 H 79.541321 V 96.957809 H 75.135643 V 67.18971 Z m 20.758288,5.278876 q 2.818047,1.98454 6.668055,4.881968 3.889698,2.897429 5.675784,4.405679 l -2.540211,3.49279 q -2.182994,-1.905158 -5.715475,-4.683514 -3.532481,-2.778356 -6.350528,-4.842277 z m 53.167261,6.4696 v 4.048462 H 120.5632 V 96.9975 h -4.28661 V 82.986648 h -16.15415 v -4.048462 h 16.15415 v -9.406719 h -6.9062 q -2.38145,4.48506 -4.52475,7.382489 l -3.41341,-2.857738 q 2.06392,-2.738665 4.16754,-6.588673 2.10361,-3.889698 3.29433,-7.422179 l 4.12785,1.151033 q -0.55568,1.667013 -1.70671,4.326297 h 21.51241 v 4.008771 H 120.5632 v 9.406719 z m 21.35649,11.272187 h 12.85982 v 4.365988 h -19.60726 v -3.49279 L 159.82024,80.12891 q 2.26237,-2.421138 3.13557,-3.929389 0.91289,-1.547941 0.91289,-3.214955 0,-2.103612 -1.27011,-3.373718 -1.2701,-1.270105 -3.41341,-1.270105 -1.90515,0 -3.37371,1.111342 -1.46856,1.111343 -2.46083,3.214955 l -3.69125,-2.50052 q 1.15104,-2.698975 3.61187,-4.405679 2.50052,-1.706705 6.033,-1.746395 2.81804,0 4.96135,1.071651 2.1433,1.071652 3.29433,3.056192 1.15104,1.944849 1.15104,4.564442 0,2.460829 -1.15104,4.643823 -1.15103,2.143304 -3.77062,4.96135 z m 19.94606,-15.479411 q -1.38917,0 -2.26237,-0.833507 -0.83351,-0.873198 -0.83351,-2.262376 0,-1.389178 0.83351,-2.222685 0.8732,-0.873197 2.26237,-0.873197 1.42887,0 2.30207,0.873197 0.8732,0.833507 0.8732,2.222685 0,1.389178 -0.8732,2.262376 -0.8732,0.833507 -2.30207,0.833507 z m 0,15.91601 q -1.38917,0 -2.26237,-0.833507 -0.83351,-0.873197 -0.83351,-2.262375 0,-1.428869 0.83351,-2.262376 0.8732,-0.873197 2.26237,-0.873197 1.42887,0 2.30207,0.873197 0.8732,0.833507 0.8732,2.262376 0,1.389178 -0.8732,2.262375 -0.8732,0.833507 -2.30207,0.833507 z m 18.08061,4.485061 q -5.12011,0 -7.89847,-3.92939 -2.77835,-3.96908 -2.77835,-11.589713 0,-7.660324 2.77835,-11.629404 2.77836,-3.96908 7.89847,-3.96908 5.15981,0 7.93816,3.96908 2.77836,3.96908 2.77836,11.629404 0,7.620633 -2.77836,11.589713 -2.77835,3.92939 -7.93816,3.92939 z m 0,-4.365988 q 2.81805,0 4.36599,-2.818047 1.54794,-2.857738 1.54794,-8.335068 0,-5.517021 -1.54794,-8.335068 -1.50825,-2.857738 -4.36599,-2.857738 -2.81804,0 -4.36599,2.857738 -1.50825,2.818047 -1.50825,8.335068 0,5.47733 1.50825,8.335068 1.54795,2.818047 4.36599,2.818047 z m 25.22497,4.365988 q -5.12011,0 -7.89847,-3.92939 -2.77836,-3.96908 -2.77836,-11.589713 0,-7.660324 2.77836,-11.629404 2.77836,-3.96908 7.89847,-3.96908 5.1598,0 7.93816,3.96908 2.77836,3.96908 2.77836,11.629404 0,7.620633 -2.77836,11.589713 -2.77836,3.92939 -7.93816,3.92939 z m 0,-4.365988 q 2.81805,0 4.36599,-2.818047 1.54794,-2.857738 1.54794,-8.335068 0,-5.517021 -1.54794,-8.335068 -1.50825,-2.857738 -4.36599,-2.857738 -2.81805,0 -4.36599,2.857738 -1.50825,2.818047 -1.50825,8.335068 0,5.47733 1.50825,8.335068 1.54794,2.818047 4.36599,2.818047 z"
               id="path74" /></g></g></g><g
         id="g18"
         transform="matrix(1.376415,0,0,1.376415,-760.71805,-363.92048)"
         style="filter:url(#filter45)"><g
           id="g36"
           transform="translate(-8.544958,-226.44142)"><g
             id="g7"
             transform="matrix(0.80739761,0,0,0.80739761,394.97305,382.58689)"><rect
               style="fill:#ffffff;fill-opacity:1;stroke:none;stroke-width:2.11126;stroke-linecap:round;stroke-linejoin:round;stroke-dasharray:none;stroke-opacity:1;paint-order:stroke fill markers"
               id="rect27"
               width="88.221855"
               height="27.442366"
               x="84.905586"
               y="220.66759"
               rx="1.2923601"
               ry="0.49269831" /><path
               id="rect50-1-9-94"
               style="fill:#e7534c;fill-opacity:1;stroke-width:4.1268;stroke-linecap:round;stroke-linejoin:round;paint-order:fill markers stroke"
               d="m 105.34533,224.16957 14.23367,-1.93605 22.64658,-1.61905 14.79638,2.73451 -3.42399,22.15824 -46.7323,-0.064 z"
               sodipodi:nodetypes="ccccccc" /><path
               id="rect50-1-9-4-3"
               style="fill:#ffffff;fill-opacity:1;stroke-width:4.1268;stroke-linecap:round;stroke-linejoin:round;paint-order:fill markers stroke"
               d="m 124.72096,232.07937 13.01174,0.0199 14.43669,14.29822 -38.93338,-0.15603 z"
               sodipodi:nodetypes="ccccc" /><path
               id="rect68-5-5"
               style="fill:#ffe8e0;fill-opacity:1;stroke-width:4.1268;stroke-linecap:round;stroke-linejoin:round;paint-order:fill markers stroke"
               d="m 162.11576,215.76231 5.82779,-2.73241 9.01519,14.87643 13.87469,-2.99011 c 4.33772,0.19652 4.5379,12.46083 5.85929,21.45496 l -33.76736,0.70843 z"
               sodipodi:nodetypes="ccccccc" /><path
               id="rect68-8-1"
               style="fill:#e1b8ab;fill-opacity:1;stroke-width:4.1268;stroke-linecap:round;stroke-linejoin:round;paint-order:fill markers stroke"
               d="m 162.33381,227.98494 7.82446,9.29315 -5.94817,5.23438 -2.08279,-6.93577 z"
               sodipodi:nodetypes="ccccc" /><path
               id="rect68-7-7"
               style="fill:#ffffff;fill-opacity:1;stroke-width:4.1268;stroke-linecap:round;stroke-linejoin:round;paint-order:fill markers stroke"
               d="m 163.151,242.90268 18.8966,-17.03743 c 8.28269,-1.94803 11.18199,-0.4866 12.13251,2.20916 l 1.28984,18.61873 h -32.22768 z"
               sodipodi:nodetypes="cccccc" /><path
               id="rect50-79-4"
               style="fill:#1d2437;fill-opacity:0.402685;stroke-width:4.1268;stroke-linecap:round;stroke-linejoin:round;paint-order:fill markers stroke"
               d="m 163.09185,245.79548 c 0,0 4.16852,-3.57092 7.21614,-3.95564 2.10491,-0.26556 4.285,0.4971 6.32499,0.0695 1.51404,-0.31707 2.84593,-2.48963 5.23724,-3.10458 2.16594,-0.55706 3.88586,1.21267 6.03397,0.98443 3.30241,-0.35107 5.73873,-5.8665 5.73873,-5.8665 l 1.86629,11.56476 z"
               sodipodi:nodetypes="cssssccc" /><path
               id="rect50-1-9-9-3"
               style="fill:#604640;fill-opacity:1;stroke-width:4.1268;stroke-linecap:round;stroke-linejoin:round;paint-order:fill markers stroke"
               d="m 114.66728,191.00127 28.63055,-0.34957 14.33158,12.87545 5.39601,28.72139 -8.13815,-1.24889 1.37564,-8.31211 -25.92235,-4.46373 -25.44581,6.83383 -9.3292,-3.73554 -1.75602,-6.51864 c 4.831,-10.73751 10.16029,-20.81653 20.85775,-23.80199 z"
               sodipodi:nodetypes="ccccccccccc" /><path
               id="rect50-14"
               style="fill:#ffffff;fill-opacity:1;stroke-width:4.1268;stroke-linecap:round;stroke-linejoin:round;paint-order:fill markers stroke"
               d="m 58.462259,219.04892 11.944379,4.55986 2.032543,3.44719 5.003882,18.24191 -4.357068,2.17481 -19.648775,-18.30818 z"
               sodipodi:nodetypes="ccccccc" /><path
               id="rect50-1-0-6"
               style="fill:#ffdda2;fill-opacity:1;stroke-width:4.1268;stroke-linecap:round;stroke-linejoin:round;paint-order:fill markers stroke"
               d="m 55.063374,227.55872 19.317911,19.75759 -28.217527,-1.48979 z"
               sodipodi:nodetypes="cccc" /><path
               id="rect68-9-9"
               style="fill:#604640;fill-opacity:1;stroke-width:4.1268;stroke-linecap:round;stroke-linejoin:round;paint-order:fill markers stroke"
               d="m 99.49108,236.03269 3.58762,-0.67157 2.80843,5.03294 -8.03164,1.72923 z"
               sodipodi:nodetypes="ccccc" /><path
               id="rect68-96-4"
               style="fill:#ccd2d8;fill-opacity:1;stroke-width:4.1268;stroke-linecap:round;stroke-linejoin:round;paint-order:fill markers stroke"
               d="m 122.88823,232.45364 14.795,-0.14803 13.75228,13.13704 -7.62998,-0.0351 -7.32132,-9.22673 c -5.12616,1.77489 -9.10461,2.3304 -11.08153,0.75926 l -4.73208,8.59345 -6.28512,-0.16354 z"
               sodipodi:nodetypes="ccccccccc" /><path
               id="rect68-2-2"
               style="fill:#f1b181;fill-opacity:1;stroke-width:4.1268;stroke-linecap:round;stroke-linejoin:round;paint-order:fill markers stroke"
               d="m 53.39171,229.19001 6.118045,4.64508 0.581658,11.43983 -14.980253,-0.14552 c 3.455398,-4.24264 7.891528,-10.16365 8.28055,-15.93948 z"
               sodipodi:nodetypes="ccccc" /><path
               id="rect50-7-2"
               style="fill:none;fill-opacity:1;stroke:#000000;stroke-width:4.1268;stroke-linecap:round;stroke-linejoin:round;stroke-opacity:1;paint-order:fill markers stroke"
               d="m 116.29923,187.03867 25.12141,0.11753 c 0,0 11.73714,5.74723 17.21556,11.80373 5.47837,6.05648 15.1538,25.59143 15.1538,25.59143 0,0 1.22738,2.80913 3.67323,2.9554 2.36469,0.14154 2.94826,-1.80228 3.88187,-2.22432 0.84452,-0.38156 2.18416,0.36707 3.55222,0.26905 1.00324,-0.072 2.3428,-0.28205 3.1766,-0.71817 2.86753,-1.49963 9.29403,2.85468 5.6138,10.55616 1.49228,1.92023 2.08049,9.18733 2.07164,10.9585 h -32.81294 l -1.0697,-14.47565 -4.92572,-0.65596 -2.68301,15.13161 H 105.9531 l -1.8544,-11.534 -5.0336,1.3441 -4.17208,10.1899 H 44.320713 l 7.703741,-11.54462 c 0.42008,-6.64543 6.263023,-8.49878 5.852846,-19.19843 z"
               sodipodi:nodetypes="cczcsssscccccccccccccc" /><path
               id="rect68-75-6"
               style="fill:#47332e;fill-opacity:1;stroke-width:4.1268;stroke-linecap:round;stroke-linejoin:round;paint-order:fill markers stroke"
               d="m 94.59737,211.22841 6.56373,-6.31498 3.04997,17.95051 -8.76574,-2.19867 z"
               sodipodi:nodetypes="ccccc" /><path
               style="color:#000000;fill:#252e33;stroke-width:1.41793;stroke-linecap:round;stroke-linejoin:round;-inkscape-stroke:none;paint-order:fill markers stroke"
               d="m 64.348166,146.34442 c 3.784949,-29.24528 5.034336,-71.367506 3.716839,-96.947597 -1.424468,-27.657126 25.518175,-18.74926 44.258595,14.572178 4.12276,7.330519 6.30482,12.838799 6.43294,24.407009 l 11.26616,-0.804196 c 0.42359,-6.11879 -0.79779,-21.837131 8.0701,-44.427562 14.50198,-36.9427638 30.84944,7.343274 40.79255,30.056927 8.93823,20.418222 -0.69494,42.956981 -0.69494,42.956981 l 3.06658,3.70509 c 2.6926,5.79064 4.2215,12.44024 6.51683,18.41665 6.63003,1.63421 5.78858,14.08178 -0.0976,16.36786 8.59379,22.04218 9.169,39.91467 -9.49869,47.78085 1.42977,3.5158 1.8698,15.00475 -5.02589,5.37831 -2.92206,3.80816 -7.14968,7.18744 -11.41899,8.68612 -0.65762,-4.43693 -1.52094,-9.24938 -3.26937,-13.96017 -4.30935,-3.31891 -10.36163,-8.18112 -16.70871,-11.24569 -8.65958,0.31705 -16.04766,2.50476 -26.87543,-0.70169 -5.16542,1.45407 -8.21405,5.12991 -12.81406,7.84671 l -8.8324,16.47475 1.91446,6.00648 c 8.32881,1.98826 11.81797,7.16303 11.42618,11.63857 -2.19106,0.45208 -3.2186,1.85634 -8.35941,-0.10508 1.49748,7.23135 -1.44351,11.47019 -3.68344,16.40161 -15.439782,0.99639 -25.370094,-10.88284 -20.633911,-20.46018 l -3.382033,-4.90032 c -38.59142,-13.20571 -14.039675,-38.73199 -8.98823,-60.45336 -4.042307,-12.17113 0.930374,-14.61879 2.821622,-16.69037 z"
               id="path35-41"
               sodipodi:nodetypes="cssccsscccccccccccccccccccsc" /><path
               style="fill:none;fill-opacity:1;stroke:#ffffff;stroke-width:1.50065;stroke-linecap:round;stroke-linejoin:round;stroke-dasharray:none;stroke-opacity:0.997315;paint-order:fill markers stroke"
               d="m 101.982,198.50362 c -0.74603,7.59103 1.5709,18.4328 2.69606,25.48473"
               id="path69-2"
               sodipodi:nodetypes="cc" /><path
               id="rect1-9-8"
               style="fill:#ffffff;fill-opacity:1;stroke:none;stroke-width:0.283588;stroke-linecap:square;paint-order:fill markers stroke"
               d="m 75.838254,55.820579 c -7.609963,-43.674729 45.166506,4.348262 43.063226,32.448568 -11.7368,1.58949 -23.1773,9.994126 -34.68305,16.897713 0,0 -0.770238,-5.671564 -8.380176,-49.346281 z"
               sodipodi:nodetypes="zccz" /><path
               id="rect1-9-7-8"
               style="fill:#151d23;fill-opacity:1;stroke:none;stroke-width:0.283588;stroke-linecap:square;paint-order:fill markers stroke"
               d="m 162.98207,118.85267 8.76475,13.57373 6.77786,-2.40909 3.11583,4.8003 -5.38451,2.23256 4.66562,9.77228 11.82057,-0.73168 -2.29338,8.3419 -8.13016,-0.8101 -2.49073,5.66652 c 5.62905,8.83155 4.94563,13.24563 6.18966,19.60916 1.52329,7.79181 1.34646,8.97648 3.63053,6.02248 l 2.78882,-3.60678 c -1.8961,12.73745 -6.52842,20.75119 -15.82985,17.89851 l 0.41907,-15.96299 c 1.72962,-10.59628 1.77093,-21.63589 3.08168,-32.27873 0,0 -5.41492,-0.38308 -7.42219,0.60075 -0.70558,0.34606 -1.41966,1.67566 -1.57053,2.44686 -0.34259,1.74998 2.84277,3.12359 2.64689,5.37215 -0.16905,1.93818 -1.60276,2.49378 -1.93107,4.56846 -0.25705,1.6242 2.61718,4.90212 2.39949,6.55632 -0.22904,1.74074 -0.67512,3.32098 -1.19972,4.69538 -0.529,1.38596 1.37316,5.48488 1.22378,6.90088 -0.003,0.009 -2.32308,1.5294 -2.32308,1.5294 -1.71098,-5.87764 -1.96543,-11.91719 -5.39041,-17.6044 l 2.96675,-6.78427 -2.6986,-6.24231 c 1.33139,-2.54217 2.36223,-6.6874 4.28111,-6.09618 l -8.43628,-14.3401 c -1.74728,-4.57365 -0.42009,-9.14735 0.32855,-13.72101 z"
               sodipodi:nodetypes="ccccccccccssccccsssssscccccccc" /><path
               id="rect1-9-99-9"
               style="fill:#151d23;fill-opacity:1;stroke:none;stroke-width:0.283588;stroke-linecap:square;paint-order:fill markers stroke"
               d="m 141.95154,190.67492 c 8.49764,-4.54206 19.57071,-11.27028 25.54203,-22.96821 5.66921,5.64256 0.92172,10.35269 2.9441,15.64904 -12.48634,5.04554 -2.77106,16.73447 0.36256,14.16119 -0.8527,8.65728 -4.94001,12.64222 -8.14456,17.9024 l -3.65164,-12.38582 c -4.31187,-5.09976 -10.86504,-8.59855 -17.05245,-12.3586 z"
               sodipodi:nodetypes="ccccccc" /><ellipse
               style="fill:#151d23;fill-opacity:1;stroke:none;stroke-width:1.62601;stroke-linecap:round;stroke-linejoin:round;stroke-dasharray:none;stroke-opacity:1;paint-order:fill markers stroke"
               id="path31-2"
               cx="-21.167133"
               cy="159.73457"
               rx="1.1072428"
               ry="4.0598903"
               transform="rotate(-47.098905)" /><path
               id="rect1-9-4-8"
               style="fill:#151d23;fill-opacity:1;stroke:none;stroke-width:0.283588;stroke-linecap:square;paint-order:fill markers stroke"
               d="m 75.030965,227.4868 11.603915,-3.9991 c 5.3329,2.90175 5.72962,13.20788 5.02739,25.16241 C 65.298289,242.93889 74.971048,234.90273 75.030965,227.4868 Z"
               sodipodi:nodetypes="cccc" /><path
               id="rect1-9-0-8"
               style="fill:#151d23;fill-opacity:1;stroke:none;stroke-width:0.283588;stroke-linecap:square;paint-order:fill markers stroke"
               d="m 89.56408,138.17448 c 14.23196,-8.8502 9.57869,-5.05069 9.57869,-5.05069 l -4.90347,16.07091 -5.20382,2.48816 -1.15277,15.2448 c -0.49308,6.51832 -2.02547,5.61111 -1.97221,-0.28504 l 0.055,-6.10111 c 0.015,-1.47146 -0.32606,-2.34398 -2.270926,0.34507 -2.400546,3.31933 -3.262908,3.28182 -7.143891,5.64477 -3.880969,2.36294 -2.906645,4.90586 -6.93489,18.92393 -6.241621,21.72042 -3.179244,22.29682 13.653751,29.49673 1.836446,-6.93801 3.227006,-13.89526 3.785106,-21.86286 0.7791,-11.12322 3.25867,-7.47129 3.81107,1.87111 0.20754,3.51075 -10e-4,13.58863 -2.79408,20.45348 l -16.142566,5.80819 c -17.059143,-0.59881 -20.844001,-9.3097 -22.266367,-19.46435 0.04001,-13.15736 7.504204,-26.31472 11.997294,-39.47207 l 0.21054,-8.09863 c 3.58677,2.89179 4.905165,3.41039 9.114206,0.27655 1.31869,-0.98189 3.441443,0.40057 4.735741,-0.47459 1.578947,-1.06759 2.546472,-5.12231 3.988597,-6.09219 1.987563,-1.3367 4.832145,-1.38571 6.470245,-2.50716 2.32639,-1.5927 1.90156,-6.29249 3.38465,-7.21477 z"
               sodipodi:nodetypes="scccsssszscsscccccssssss" /><path
               id="rect1-9-14-8"
               style="fill:#151d23;fill-opacity:1;stroke:none;stroke-width:0.283588;stroke-linecap:square;paint-order:fill markers stroke"
               d="m 68.446931,52.940487 c 7.548467,35.089018 5.488375,60.313533 5.015288,86.825343 l -9.568193,7.12623 c 4.871968,-27.59016 4.195637,-61.345073 4.552905,-93.951573 z"
               sodipodi:nodetypes="cccc" /><path
               id="rect1-9-76-6"
               style="fill:#151d23;fill-opacity:1;stroke:none;stroke-width:0.283588;stroke-linecap:square;paint-order:fill markers stroke"
               d="m 101.66294,183.73486 12.94888,7.43689 -12.43163,7.58783 z"
               sodipodi:nodetypes="cccc" /><path
               id="rect34-0-8"
               style="fill:#ffffff;fill-opacity:1;stroke-width:2.25098;stroke-linecap:round;stroke-linejoin:round;paint-order:fill markers stroke"
               d="m 147.14401,50.112401 c -6.4263,-41.440501 41.6538,-4.24219 31.80865,65.204859 -8.74069,-8.02555 -16.65342,-16.751643 -28.40062,-22.233218 0,0 3.01831,-1.531126 -3.40803,-42.971641 z"
               sodipodi:nodetypes="zccz" /><path
               id="rect1-9-1-3"
               style="fill:#151d23;fill-opacity:1;stroke:none;stroke-width:0.283588;stroke-linecap:square;paint-order:fill markers stroke"
               d="M 84.69127,106.60868 C 94.50321,98.731152 106.13123,93.233621 116.656,88.920123 99.93847,100.09941 91.58281,109.96196 86.03127,121.85568 Z"
               sodipodi:nodetypes="cccc" /><path
               id="rect34-8"
               style="fill:#151d23;fill-opacity:1;stroke-width:2.25098;stroke-linecap:round;stroke-linejoin:round;paint-order:fill markers stroke"
               d="m 142.97717,37.266501 c -1.22557,17.188714 -3.36921,39.900922 -2.57597,52.648051 l -10.90485,-2.943744 c 2.96595,-21.681113 8.97282,-36.890105 13.48082,-49.704307 z"
               sodipodi:nodetypes="cccc" /><path
               id="rect49-3"
               style="fill:#e7534c;fill-opacity:1;stroke-width:4.1268;stroke-linecap:round;stroke-linejoin:round;paint-order:fill markers stroke"
               d="m 72.765741,227.44944 22.006359,-7.16483 -1.76278,-4.71973 c -7.94218,0.14052 -14.991755,2.1936 -20.812244,6.88053 z"
               sodipodi:nodetypes="ccccc" /><path
               id="rect49-6-3"
               style="fill:#3479d7;fill-opacity:1;stroke-width:4.1268;stroke-linecap:round;stroke-linejoin:round;paint-order:fill markers stroke"
               d="m 78.255066,225.6622 16.517034,-5.37759 -1.76278,-4.71973 c -2.98535,0.053 -5.84454,0.37606 -8.5598,1.00742 z"
               sodipodi:nodetypes="ccccc" /><path
               id="rect68-90-3"
               style="fill:#c6cdd4;fill-opacity:1;stroke-width:4.1268;stroke-linecap:round;stroke-linejoin:round;paint-order:fill markers stroke"
               d="m 58.815626,220.21338 5.08105,1.39333 c 0,0 -0.74979,1.73437 0.632874,4.53869 0.447573,0.90808 1.951114,1.91645 3.232495,3.31937 1.277794,1.39905 0.267058,2.10009 1.159673,3.34443 1.461775,2.03827 3.710788,1.82298 3.710788,1.82298 l -1.745017,8.94548 -14.689454,-13.81489 z"
               sodipodi:nodetypes="ccssscccc" /><path
               id="rect49-0-8"
               style="fill:#1d2437;fill-opacity:0.402685;stroke-width:4.1268;stroke-linecap:round;stroke-linejoin:round;paint-order:fill markers stroke"
               d="m 72.057857,227.67119 14.755403,-4.04291 1.91306,-8.69773 c -7.942185,0.14053 -11.416638,3.04962 -17.237129,7.73659 z"
               sodipodi:nodetypes="ccccc" /><path
               style="fill:none;fill-opacity:1;stroke:#ffffff;stroke-width:1.50065;stroke-linecap:round;stroke-linejoin:round;stroke-dasharray:none;stroke-opacity:0.997315;paint-order:fill markers stroke"
               d="m 152.52951,198.34344 c 1.6196,7.20866 3.13134,14.56117 3.62433,23.27206"
               id="path70-0"
               sodipodi:nodetypes="cc" /><path
               id="rect68-06-4"
               style="fill:#342320;fill-opacity:0.550336;stroke-width:4.1268;stroke-linecap:round;stroke-linejoin:round;paint-order:fill markers stroke"
               d="m 143.04508,192.75144 15.99399,9.50733 2.37681,7.81192 -18.47417,-9.19732 z"
               sodipodi:nodetypes="ccccc" /><path
               id="rect68-6-7"
               style="fill:#342320;fill-opacity:0.550336;stroke-width:4.1268;stroke-linecap:round;stroke-linejoin:round;paint-order:fill markers stroke"
               d="m 101.57333,195.90908 11.65683,-3.2558 2.76746,7.33428 -17.76152,8.54654 z"
               sodipodi:nodetypes="ccccc" /><path
               id="rect68-0-6"
               style="fill:#432923;fill-opacity:1;stroke-width:4.1268;stroke-linecap:round;stroke-linejoin:round;paint-order:fill markers stroke"
               d="m 115.77153,190.55303 10.96336,0.59671 -0.29857,7.28961 -10.36664,-0.89501 z"
               sodipodi:nodetypes="ccccc" /><path
               id="rect68-60-0-8"
               style="fill:#ba3e38;fill-opacity:1;stroke-width:4.1268;stroke-linecap:round;stroke-linejoin:round;paint-order:fill markers stroke"
               d="m 106.57001,242.33973 17.43737,-11.60927 0.60577,3.7634 -12.99565,12.11401 z"
               sodipodi:nodetypes="ccccc" /><path
               style="fill:none;fill-opacity:1;stroke:#367ad7;stroke-width:3.37647;stroke-linecap:round;stroke-linejoin:round;stroke-dasharray:none;stroke-opacity:1;paint-order:fill markers stroke"
               d="M 87.19594,105.54217 C 89.34705,81.435019 86.90638,88.624366 84.63126,66.911701 82.356134,45.199085 106.33382,65.783837 104.02663,94.321727"
               id="path37-9"
               sodipodi:nodetypes="czc" /><path
               style="color:#000000;fill:#e85f59;fill-opacity:1;stroke-width:1.41793;stroke-linecap:round;stroke-linejoin:round;-inkscape-stroke:none;paint-order:fill markers stroke"
               d="m 99.86085,75.00872 c 1.92092,5.497129 3.05518,12.096353 2.48277,19.176989 -0.0755,0.930121 0.61787,1.745067 1.54809,1.819481 0.92908,0.07403 1.74233,-0.619063 1.81674,-1.548087 0.5051,-6.247967 -0.18654,-12.109967 -1.5928,-17.281635 z"
               id="path37-4-0"
               sodipodi:nodetypes="cccccc" /><path
               style="color:#000000;fill:#e85f59;fill-opacity:1;stroke-width:1.41793;stroke-linecap:round;stroke-linejoin:round;-inkscape-stroke:none;paint-order:fill markers stroke"
               d="m 85.6597,84.191582 c 0.091,0.477088 0.17403,0.94063 0.24755,1.403408 0.59931,3.764365 0.67857,7.786416 -0.39308,19.79852 -0.0821,0.92827 0.60322,1.74767 1.53149,1.83053 0.92932,0.0841 1.75047,-0.60206 1.83335,-1.53148 1.07924,-12.095072 1.01483,-16.533451 0.36256,-20.629315 -0.27905,-1.753379 -0.64933,-3.389682 -1.07005,-5.533138 0,0 -2.4547,4.830759 -2.51177,4.661475 z"
               id="path37-8-6"
               sodipodi:nodetypes="cscccscc" /><path
               id="rect34-4-8"
               style="fill:#264e71;fill-opacity:0.414765;stroke-width:2.25098;stroke-linecap:round;stroke-linejoin:round;paint-order:fill markers stroke"
               d="m 74.789608,51.060085 c 6.096892,13.772574 9.356412,27.36782 19.950142,41.421453 8.40527,-4.062371 15.99499,-4.454791 23.82031,-5.907165 L 84.64631,106.99175 Z"
               sodipodi:nodetypes="ccccc" /><path
               style="fill:none;fill-opacity:0.524832;stroke:#000000;stroke-width:4.1268;stroke-linecap:round;stroke-linejoin:round;stroke-dasharray:none;stroke-opacity:1;paint-order:fill markers stroke"
               d="M 74.665035,52.149182 C 78.433599,77.39321 85.1712,100.41706 85.59093,125.66115 c 0,0 -3.322612,1.31064 -7.220943,4.66756 -1.376262,1.18519 0.125564,5.54524 -2.316587,8.47094 -1.691659,2.02649 -2.97466,1.00174 -4.920525,2.45806 -1.324245,0.99108 -0.571249,5.01604 -1.954916,6.31849 -1.961957,1.84679 -6.378888,1.67875 -6.378888,1.67875"
               id="path1-7"
               sodipodi:nodetypes="ccssssc" /><path
               id="rect1-0-9"
               style="fill:#ffe8e0;fill-opacity:1;stroke:#000000;stroke-width:0.283588;stroke-linecap:square;stroke-opacity:1;paint-order:fill markers stroke"
               d="m 110.97043,121.27947 2.0619,22.93094 25.11273,-1.76493 3.50602,-4.37641 6.78372,1.80368 -1.08946,-18.44489 16.71198,12.46832 4.42123,9.65561 -2.08804,29.01609 c -15.42929,23.35741 -38.77596,22.27426 -64.81623,12.87615 l -6.97326,-43.0195 z"
               sodipodi:nodetypes="cccccccccccc" /><path
               id="rect1-03-0"
               style="fill:#e0b7ab;fill-opacity:1;stroke:none;stroke-width:0.283588;stroke-linecap:square;paint-order:fill markers stroke"
               d="m 141.07913,137.94879 5.43536,3.32793 c 0,0 -2.05033,-0.41158 -2.9154,-0.20555 -0.86501,0.20605 -1.31194,2.48822 -2.64084,4.35448 -1.32894,1.86629 -18.03502,3.14108 -28.04355,2.69694 -2.26618,-0.10053 -3.54886,-1.35075 -3.7823,-3.51766 -0.20354,-1.8917 -1.25969,-18.63933 -1.59165,-20.39386 -1.0355,-0.009 -1.68093,8.77383 -3.23942,10.60184 -1.33574,1.56674 -2.96824,1.31079 -4.17417,3.64647 -0.61372,1.18868 -0.12757,2.47607 -1.25529,3.68725 -2.77907,2.98501 -5.59269,1.56278 -5.27854,0.51754 5.25149,-5.68776 11.39974,-16.15141 17.56234,-19.47019 l 1.58991,20.83075 25.88498,-1.98792 z"
               sodipodi:nodetypes="cczzsscsssccccc" /><ellipse
               style="fill:#151d23;fill-opacity:1;stroke:none;stroke-width:1.62601;stroke-linecap:round;stroke-linejoin:round;stroke-dasharray:none;stroke-opacity:1;paint-order:fill markers stroke"
               id="path31-6-3"
               cx="-29.826015"
               cy="160.82663"
               rx="1.1072428"
               ry="4.0598903"
               transform="rotate(-47.098905)" /><path
               style="fill:none;fill-opacity:0.524832;stroke:#000000;stroke-width:4.1268;stroke-linecap:round;stroke-linejoin:round;stroke-dasharray:none;stroke-opacity:1;paint-order:fill markers stroke"
               d="m 62.055732,162.65822 c 0,0 4.318404,3.85893 8.523242,-0.061 0.957779,-0.89292 1.441374,-3.35153 2.687001,-4.16569 1.415324,-0.92506 4.576363,2.93521 6.043734,1.51689 1.610859,-1.55694 2.254274,-6.29822 4.075164,-8.12302 2.669047,-2.67485 5.876007,0.93392 8.404727,-1.3812 3.23156,-2.95861 1.09425,-7.57633 3.00646,-9.28694 1.8485,-1.65356 2.89139,-1.74849 4.10822,-3.1887 0.97498,-1.15407 -0.39758,-3.60417 0.51184,-4.70693 1.21493,-1.47333 3.79081,-1.40326 5.01924,-2.59898 1.01309,-0.98609 -0.69833,-3.4683 0.10307,-4.37018 2.51774,-2.83357 6.56263,-3.49594 6.56263,-3.49594"
               id="path2-3"
               sodipodi:nodetypes="cssssssssssc" /><path
               id="rect1-9-9-3"
               style="fill:#151d23;fill-opacity:1;stroke:none;stroke-width:0.283588;stroke-linecap:square;paint-order:fill markers stroke"
               d="m 112.8414,137.26961 3.2504,-0.20254 c 0.53825,-0.0351 0.8863,-0.78089 0.93882,-1.31758 l 0.30857,-3.15456 c 0.31155,-3.18364 1.74972,-2.27856 2.15259,-0.17352 l 0.62938,3.28797 c 0.25254,1.32029 1.21546,1.1128 2.26695,0.92532 8.81751,-1.57224 24.55446,-9.23353 24.55446,-9.23353 l 0.69303,13.05684 -6.70115,-3.82392 -3.24851,4.7628 -23.86622,1.95866 z"
               sodipodi:nodetypes="csssssscccccc" /><path
               style="fill:none;fill-opacity:0.524832;stroke:#000000;stroke-width:4.1268;stroke-linecap:round;stroke-linejoin:round;stroke-dasharray:none;stroke-opacity:1;paint-order:fill markers stroke"
               d="m 147.66965,122.29201 c 0,0 -3.83917,-2.88603 3.49316,1.05561 1.16672,0.62716 0.93063,2.99331 2.9599,4.52834 1.16738,0.88306 2.91365,0.38358 4.30391,1.44251 1.22983,0.93678 0.14553,2.54164 1.47746,3.59803 1.34332,1.06539 2.90826,-0.35907 4.35958,0.75793 1.18292,0.91034 -1.26069,3.60558 1.21352,5.36176 2.893,2.05334 3.31117,5.83986 5.29655,7.22652 3.70769,2.58956 5.40416,0.79949 8.35832,1.79888 1.57099,0.53145 1.74581,2.85088 3.211,3.88797 1.60954,1.13936 5.18642,1.64251 5.18642,1.64251"
               id="path3-7"
               sodipodi:nodetypes="csssssssssc" /><path
               style="fill:none;fill-opacity:0.524832;stroke:#000000;stroke-width:4.1268;stroke-linecap:round;stroke-linejoin:round;stroke-dasharray:none;stroke-opacity:1;paint-order:fill markers stroke"
               d="m 176.81731,129.28147 c 3.07337,0.8035 7.67174,5.08285 10.74512,8.25715"
               id="path4-3"
               sodipodi:nodetypes="cc" /><path
               style="fill:none;fill-opacity:0.524832;stroke:#000000;stroke-width:4.1268;stroke-linecap:round;stroke-linejoin:round;stroke-dasharray:none;stroke-opacity:1;paint-order:fill markers stroke"
               d="m 94.16649,144.95041 c 4.04855,21.96846 7.22745,38.95359 8.34777,52.7228"
               id="path5-2"
               sodipodi:nodetypes="cc" /><path
               style="fill:none;fill-opacity:1;stroke:#367ad7;stroke-width:3.37647;stroke-linecap:round;stroke-linejoin:round;stroke-dasharray:none;stroke-opacity:1;paint-order:fill markers stroke"
               d="m 148.90853,65.789687 c 7.71565,-24.337603 21.58399,15.244051 18.27333,39.111323"
               id="path38-6"
               sodipodi:nodetypes="cc" /><path
               style="color:#000000;fill:#e85f59;fill-opacity:1;stroke-width:1.41793;stroke-linecap:round;stroke-linejoin:round;-inkscape-stroke:none;paint-order:fill markers stroke"
               d="m 163.93284,78.96661 c 1.82375,8.370314 2.6437,18.000065 1.5754,25.70125 -0.12851,0.92487 0.51775,1.77859 1.44288,1.90541 0.92292,0.12703 1.77437,-0.51734 1.9026,-1.44011 0.91646,-6.607046 0.58396,-14.229467 -0.55805,-21.449869 0,0 -4.34177,-4.919671 -4.36283,-4.716681 z"
               id="path38-9-5"
               sodipodi:nodetypes="cccccc" /><path
               style="fill:none;fill-opacity:0.995973;stroke:#367ad7;stroke-width:3.37647;stroke-linecap:round;stroke-linejoin:round;stroke-dasharray:none;stroke-opacity:1;paint-order:fill markers stroke"
               d="m 148.30608,58.960165 c 6.65915,-36.541091 22.4878,12.943412 18.78952,45.163745"
               id="path13-2"
               sodipodi:nodetypes="cc" /><path
               style="color:#000000;fill:#e85f59;fill-opacity:1;stroke-width:1.41793;stroke-linecap:round;stroke-linejoin:round;-inkscape-stroke:none;paint-order:fill markers stroke"
               d="m 165.01225,78.944603 c 1.0152,8.376164 1.29635,17.241771 0.40757,24.986627 -0.10602,0.92607 0.55842,1.76288 1.48443,1.86935 0.92603,0.10602 1.76289,-0.55841 1.86935,-1.48443 0.73473,-6.401403 0.72554,-13.406861 0.17804,-20.295149 0,0 -3.73196,-4.899819 -3.93939,-5.076398 z"
               id="path13-1-6"
               sodipodi:nodetypes="cccccc" /><path
               id="rect34-7-5"
               style="fill:#264e71;fill-opacity:0.414765;stroke-width:2.25098;stroke-linecap:round;stroke-linejoin:round;paint-order:fill markers stroke"
               d="m 147.94961,46.300242 c 5.34814,14.359288 10.60653,28.711168 13.60245,42.874475 8.68932,9.419707 17.90624,22.232963 17.60984,22.114443 l -1.32064,4.05415 c -7.33004,-8.66797 -15.64743,-16.692021 -27.54481,-22.381337 z"
               sodipodi:nodetypes="cccccc" /><path
               style="fill:none;fill-opacity:0.524832;stroke:#000000;stroke-width:4.1268;stroke-linecap:round;stroke-linejoin:round;stroke-dasharray:none;stroke-opacity:1;paint-order:fill markers stroke"
               d="m 84.89626,107.82046 c 35.38522,-30.294619 65.26651,-24.783286 92.76007,8.26129"
               id="path6-8"
               sodipodi:nodetypes="cc" /><path
               style="color:#000000;fill:#ffb771;stroke-width:1.41793;stroke-linecap:round;stroke-linejoin:round;-inkscape-stroke:none;paint-order:fill markers stroke"
               d="m 195.18115,127.42423 c 2.1486,-8.60052 -1.03104,-13.50094 -4.92237,-17.90711 -8.87942,7.16174 -6.80307,11.56201 -17.94936,22.94255 -6.97076,-3.84382 -6.03543,-9.10666 -6.72547,-14.07773 10.36644,-0.67953 19.09283,6.17775 29.5972,9.04229 z"
               id="path43-7" /><path
               id="rect34-46-9"
               style="fill:#f1935a;fill-opacity:1;stroke-width:2.25098;stroke-linecap:round;stroke-linejoin:round;paint-order:fill markers stroke"
               d="m 167.32948,126.60277 27.34477,-9.80319 -0.44108,9.69417 -12.24099,-3.43344 -9.50607,10.58387 z"
               sodipodi:nodetypes="cccccc" /><path
               style="color:#000000;fill:#000000;stroke-width:1.41793;stroke-linecap:round;stroke-linejoin:round;-inkscape-stroke:none;paint-order:fill markers stroke"
               d="m 188.96238,107.91087 c -4.66162,3.75985 -6.62529,7.03627 -8.61286,10.46006 -0.14203,0.24454 -0.35156,0.54145 -0.49559,0.7893 -4.52655,-1.78739 -9.19963,-3.1798 -14.4037,-2.83869 a 2.0636024,2.0636024 0 0 0 -1.91085,2.34294 c 0.31405,2.26158 0.22704,4.93952 1.07454,7.77096 0.84761,2.83143 2.83094,5.69886 6.69917,7.83187 a 2.0636024,2.0636024 0 0 0 2.4703,-0.36258 c 3.78432,-3.86377 5.92932,-6.85012 7.66018,-9.53227 4.12162,1.77402 8.39868,3.73474 13.19628,5.04304 a 2.0636024,2.0636024 0 0 0 2.54226,-1.48993 c 2.3093,-9.24374 -1.3508,-15.21644 -5.37539,-19.77355 a 2.0636024,2.0636024 0 0 0 -2.84418,-0.24104 z m 1.12437,4.67752 c 2.57779,3.19351 4.14613,6.65035 3.38698,12.02475 -3.27436,-1.1064 -6.50327,-2.46051 -9.73442,-3.88267 0.0501,-0.085 0.13105,-0.20403 0.18003,-0.28806 1.66881,-2.87468 3.28212,-5.18796 6.16745,-7.85402 z m -22.12199,8.08392 c 3.20215,0.16603 6.37053,0.95858 9.56829,2.19061 -1.295,1.93437 -3.1321,4.19079 -5.52498,6.77397 -1.89247,-1.3781 -2.95741,-2.77332 -3.4396,-4.38397 -0.38407,-1.2831 -0.46559,-2.98341 -0.60371,-4.58061 z"
               id="path44-6" /><path
               style="fill:none;fill-opacity:0.524832;stroke:#000000;stroke-width:4.1268;stroke-linecap:round;stroke-linejoin:round;stroke-dasharray:none;stroke-opacity:1;paint-order:fill markers stroke"
               d="m 146.95372,45.11082 c 1.54283,15.891319 3.08568,31.782599 4.62852,47.673918"
               id="path7-0"
               sodipodi:nodetypes="cc" /><path
               style="fill:none;fill-opacity:0.524832;stroke:#000000;stroke-width:4.1268;stroke-linecap:round;stroke-linejoin:round;stroke-dasharray:none;stroke-opacity:1;paint-order:fill markers stroke"
               d="m 112.28409,113.72701 c -2.17792,10.48946 -0.80917,21.01953 0.31906,30.84776 8.54199,0.0625 17.02778,0.38759 26.05166,-1.79853 l 2.56503,-5.55089 6.912,3.49066 c 1.58625,-10.53723 -1.62875,-20.98267 -5.28239,-27.83166"
               id="path8-4"
               sodipodi:nodetypes="cccccc" /><path
               style="fill:none;fill-opacity:0.524832;stroke:#000000;stroke-width:3.37647;stroke-linecap:round;stroke-linejoin:round;stroke-dasharray:none;stroke-opacity:1;paint-order:fill markers stroke"
               d="m 98.79731,132.75892 c 5.8699,-4.03335 14.49566,-4.5581 19.70029,-3.86422"
               id="path9-1"
               sodipodi:nodetypes="cc" /><path
               style="fill:none;fill-opacity:0.524832;stroke:#000000;stroke-width:3.37647;stroke-linecap:round;stroke-linejoin:round;stroke-dasharray:none;stroke-opacity:1;paint-order:fill markers stroke"
               d="m 142.75828,126.29756 c 3.74561,-3.13899 12.19375,-3.66309 18.49647,-1.9003"
               id="path10-04"
               sodipodi:nodetypes="cc" /><path
               style="fill:none;fill-opacity:0.261745;stroke:#000000;stroke-width:3.37647;stroke-linecap:round;stroke-linejoin:round;stroke-dasharray:none;stroke-opacity:1;paint-order:fill markers stroke"
               d="m 100.45742,182.64461 c 12.40502,10.90694 62.20719,16.10102 66.46385,-17.94231"
               id="path11-8"
               sodipodi:nodetypes="cc" /><path
               style="fill:none;fill-opacity:0.261745;stroke:#000000;stroke-width:3.37647;stroke-linecap:round;stroke-linejoin:round;stroke-dasharray:none;stroke-opacity:1;paint-order:fill markers stroke"
               d="m 170.14505,146.0206 c 0,0 -2.83507,0.27355 -3.59816,6.79757 -0.19403,1.65952 2.44165,3.10449 2.89129,6.34649 0.22904,1.64976 -2.54202,3.93784 -2.34558,5.79728 0.14152,1.33825 3.16228,4.36107 3.27655,5.71287 0.13403,1.58925 -2.1376,3.4492 -1.85435,4.65068 1.48338,6.29193 3.04778,8.05621 3.04778,8.05621 l 5.21433,1.62 c 0,0 1.84064,-2.73727 3.0188,-8.39317 0.29357,-1.40942 -2.53501,-3.56727 -2.32232,-6.22982 0.12396,-1.5518 2.9972,-2.84633 3.281,-4.54626 0.23255,-1.3935 -2.82301,-4.88531 -2.70125,-6.27082 0.16603,-1.89084 2.19195,-2.76071 2.70095,-4.04236 1.01494,-2.55567 0.72593,-4.59989 0.72593,-4.59989"
               id="path12-7"
               sodipodi:nodetypes="csssssccsssssc" /><path
               style="color:#000000;fill:#614741;stroke-width:1.41793;stroke-linecap:round;stroke-linejoin:round;-inkscape-stroke:none;paint-order:fill markers stroke"
               d="m 197.20452,142.57751 c 2.02098,-4.64448 1.90412,-7.63063 -0.45558,-10.12254 -5.81664,1.61045 -10.74481,10.07812 -14.99996,14.18455 -3.2699,-2.12101 -4.51638,-4.92013 -5.20642,-9.8912 8.96267,0.15002 10.15784,2.96465 20.66221,5.82919 z"
               id="path46-0" /><path
               style="color:#000000;fill:#ffd367;stroke-width:1.41793;stroke-linecap:round;stroke-linejoin:round;-inkscape-stroke:none;paint-order:fill markers stroke"
               d="m 178.86519,190.8708 a 7.4006645,7.4006645 0 0 1 -7.40062,7.40062 7.4006645,7.4006645 0 0 1 -7.4007,-7.40062 7.4006645,7.4006645 0 0 1 7.4007,-7.40068 7.4006645,7.4006645 0 0 1 7.40062,7.40068 z"
               id="path41-8" /><circle
               style="fill:#f1a952;fill-opacity:1;stroke:none;stroke-width:4.61592;stroke-linecap:round;stroke-linejoin:round;stroke-dasharray:none;stroke-opacity:1;paint-order:fill markers stroke"
               id="path40-6"
               cx="168.93576"
               cy="191.95195"
               r="4.3937249" /><path
               style="color:#000000;fill:#000001;stroke-width:1.41793;stroke-linecap:round;stroke-linejoin:round;-inkscape-stroke:none;paint-order:fill markers stroke"
               d="m 147.87264,26.146871 c -1.64435,0.363066 -3.21625,1.17967 -4.5667,2.467511 -2.70096,2.575732 -4.69094,6.72916 -6.16196,12.747585 -5.04145,20.626315 -8.72442,33.819784 -9.04488,44.280089 l -7.4248,0.528947 C 120.26573,75.865725 118.01711,69.888656 114.11912,62.957813 104.58034,45.997335 93.07544,35.088843 83.276203,31.857389 78.37664,30.241637 73.560729,30.68927 70.30707,33.837509 c -3.253658,3.14824 -4.679425,8.424278 -4.3064,15.666538 1.298596,25.21352 0.06051,66.859353 -3.636231,95.887983 -0.850809,0.78475 -2.51297,2.14481 -3.567016,4.73294 -1.148966,2.82108 -1.194973,6.91449 0.609263,12.77249 -2.475864,10.24007 -9.746224,21.9167 -11.786606,33.18856 -1.030793,5.69466 -0.613614,11.47104 2.77772,16.58045 3.306319,4.98134 9.29549,9.15652 18.768312,12.50389 l 2.489673,3.60577 c -1.963268,5.27795 -0.4731,11.03352 3.489445,15.22621 4.286107,4.5351 11.24185,7.43809 19.51606,6.90414 a 2.0636024,2.0636024 0 0 0 1.74472,-1.20468 c 1.83289,-4.03541 4.33892,-8.42392 4.05441,-14.52832 3.46085,0.62566 5.34705,-0.35756 6.52748,-0.60095 a 2.0636024,2.0636024 0 0 0 1.63676,-1.84165 c 0.47158,-5.3861 -3.70715,-10.96704 -11.80877,-13.3652 l -1.35426,-4.2538 8.19188,-15.28435 c 4.44464,-2.75603 7.33383,-5.81804 11.4266,-7.10629 10.62179,2.9308 18.24237,1.04356 26.18475,0.67298 5.68457,2.82588 11.2153,7.13844 15.40899,10.37694 1.54293,4.32945 2.38703,8.80044 3.01309,13.02453 a 2.0636024,2.0636024 0 0 0 2.72512,1.64501 c 4.01231,-1.4084 7.60897,-4.29975 10.57914,-7.57431 1.11335,1.32019 2.1825,2.32122 3.56147,2.65864 0.99378,0.24304 2.27167,-0.0786 2.9965,-0.75053 0.72484,-0.67193 1.02149,-1.44272 1.22408,-2.18781 0.63782,-2.34595 0.33155,-4.90467 -0.25505,-7.12295 8.75394,-4.24632 13.54675,-11.04906 14.67235,-19.33045 1.13881,-8.37903 -1.06979,-18.10154 -5.04035,-28.66063 2.81909,-2.05232 4.21135,-5.6731 4.32581,-9.1861 0.0685,-2.09876 -0.29654,-4.2127 -1.27393,-6.05119 -0.77595,-1.45968 -2.11666,-2.59548 -3.72205,-3.34268 -2.09824,-5.64024 -3.63418,-12.04565 -6.35578,-17.89864 a 2.0636024,2.0636024 0 0 0 -0.28256,-0.44608 l -2.37339,-2.86909 c 7.54431,-20.63982 0.50164,-50.217345 -9.83415,-69.755859 -5.26834,-9.959163 -11.21321,-17.441114 -17.76297,-19.527104 -1.63745,-0.521498 -3.35437,-0.612464 -4.99883,-0.249046 z m 0.87797,3.924233 c 0.87552,-0.191034 1.79739,-0.08651 2.86909,0.25505 4.28666,1.365204 10.33248,8.006847 15.36743,17.524779 10.06988,19.035963 16.70602,48.996417 9.28307,67.540337 a 2.0636024,2.0636024 0 0 0 0.32657,2.08259 l 2.85804,3.45625 c 2.51322,5.47657 4.04616,11.98948 6.38904,18.08977 a 2.0636024,2.0636024 0 0 0 1.43177,1.26285 c 1.05669,0.26055 1.73633,0.86501 2.28197,1.8915 0.54571,1.02649 0.84381,2.47366 0.79485,3.9769 -0.098,3.00635 -1.62994,5.8771 -3.4258,6.57458 a 2.0636024,2.0636024 0 0 0 -1.17696,2.67244 c 4.234,10.85973 6.38779,20.56706 5.35325,28.17874 -1.03455,7.61166 -4.91917,13.23857 -13.73071,16.95157 a 2.0636024,2.0636024 0 0 0 -1.11052,2.67798 c 0.38609,0.9494 0.58073,3.81557 0.4571,5.43633 -0.4146,-0.33306 -0.76331,-0.45959 -1.89432,-2.03828 a 2.0636024,2.0636024 0 0 0 -3.31216,-0.0525 c -2.16731,2.82452 -5.20617,5.15362 -8.25839,6.74906 -0.62307,-3.69898 -1.40677,-7.56717 -2.86079,-11.48475 a 2.0636024,2.0636024 0 0 0 -0.67298,-0.91667 c -4.27744,-3.29437 -10.41651,-8.25805 -17.07064,-11.47089 a 2.0636024,2.0636024 0 0 0 -0.97484,-0.20204 c -8.96348,0.32806 -15.87466,2.44101 -26.21246,-0.62031 a 2.0636024,2.0636024 0 0 0 -1.14651,-0.005 c -5.83464,1.6425 -9.06219,5.55079 -13.30423,8.0562 a 2.0636024,2.0636024 0 0 0 -0.76715,0.80034 l -8.83441,16.47525 a 2.0636024,2.0636024 0 0 0 -0.14653,1.6007 l 1.91366,6.00687 a 2.0636024,2.0636024 0 0 0 1.48718,1.38191 c 6.72346,1.60505 9.30535,5.11075 9.68187,8.16698 -1.13462,0.42958 -2.12786,0.67797 -5.40036,-0.57046 a 2.0636024,2.0636024 0 0 0 -2.75557,2.34844 c 1.23598,5.96837 -0.8464,9.43317 -2.98266,13.88024 -6.58673,0.11258 -11.903623,-2.23767 -15.062814,-5.58034 -3.354927,-3.54975 -4.364872,-7.89297 -2.401056,-11.86413 a 2.0636024,2.0636024 0 0 0 -0.152524,-2.08538 l -3.38143,-4.90187 a 2.0636024,2.0636024 0 0 0 -1.03024,-0.77819 c -9.391765,-3.21381 -14.643596,-7.08279 -17.344802,-11.15239 -2.701206,-4.06966 -3.069225,-8.50899 -2.154603,-13.56184 1.829292,-10.10564 9.200722,-21.91615 11.853068,-33.32148 a 2.0636024,2.0636024 0 0 0 -0.05251,-1.11606 c -1.928361,-5.80608 -1.601999,-8.88516 -0.861312,-10.70376 0.740638,-1.81864 1.968579,-2.54443 3.248514,-3.94643 l -0.600966,0.45408 a 2.0636024,2.0636024 0 0 0 1.124412,-1.57854 c 3.809861,-29.43796 5.057294,-71.556495 3.7304,-97.319671 -0.339063,-6.586277 1.07155,-10.568423 3.054616,-12.487282 1.98308,-1.918759 4.806207,-2.34669 8.806757,-1.027442 8.00104,2.638544 19.33716,12.842453 28.53873,29.203415 4.05876,7.216695 6.04207,12.10211 6.16745,23.418135 a 2.0636024,2.0636024 0 0 0 2.21003,2.035482 l 11.2659,-0.803098 a 2.0636024,2.0636024 0 0 0 1.91645,-2.079845 c -0.0976,-9.655908 3.7156,-23.290657 9.0726,-45.20781 1.36596,-5.588547 3.21612,-9.042543 4.99875,-10.742511 0.89135,-0.850009 1.72216,-1.337551 2.59772,-1.528736 z"
               id="path79-2" /><path
               style="color:#000000;fill:#000000;stroke-width:1.41793;stroke-linecap:round;stroke-linejoin:round;-inkscape-stroke:none;paint-order:fill markers stroke"
               d="m 171.46527,181.40542 c -5.20238,0 -9.46583,4.26346 -9.46583,9.46582 0,5.20243 4.26345,9.46308 9.46583,9.46308 5.20243,0 9.46306,-4.26065 9.46306,-9.46308 0,-5.20236 -4.26063,-9.46582 -9.46306,-9.46582 z m 0,4.12918 c 2.97215,0 5.33665,2.36453 5.33665,5.33664 0,2.97216 -2.3645,5.33665 -5.33665,5.33665 -2.97211,0 -5.33666,-2.36449 -5.33666,-5.33665 0,-2.97211 2.36455,-5.33664 5.33666,-5.33664 z"
               id="path42-4" /><circle
               style="fill:#000000;fill-opacity:1;stroke:none;stroke-width:5.99052;stroke-linecap:round;stroke-linejoin:round;stroke-dasharray:none;stroke-opacity:0.70604;paint-order:fill markers stroke"
               id="path14-7"
               cx="172.39444"
               cy="189.55344"
               r="1.7436122" /><path
               style="fill:none;fill-opacity:0.571812;stroke:#000000;stroke-width:2.62613;stroke-linecap:round;stroke-linejoin:round;stroke-dasharray:none;stroke-opacity:1;paint-order:fill markers stroke"
               d="m 172.27822,189.59216 c -3.41209,2.29922 -5.19843,4.94307 -6.04454,6.43195"
               id="path15-9"
               sodipodi:nodetypes="cc" /><path
               style="fill:none;fill-opacity:0.571812;stroke:#000000;stroke-width:4.1268;stroke-linecap:round;stroke-linejoin:round;stroke-dasharray:none;stroke-opacity:1;paint-order:fill markers stroke"
               d="m 166.15623,196.4891 c -4.54676,3.98979 -5.96703,9.51108 -5.35757,14.50721"
               id="path16-3"
               sodipodi:nodetypes="cc" /><path
               style="fill:none;fill-opacity:0.571812;stroke:#000000;stroke-width:4.1268;stroke-linecap:round;stroke-linejoin:round;stroke-dasharray:none;stroke-opacity:1;paint-order:fill markers stroke"
               d="m 176.0012,196.83926 c 2.00368,2.89175 2.3593,5.60735 2.9123,8.78815"
               id="path17-9"
               sodipodi:nodetypes="cc" /><path
               style="color:#000000;fill:#f18a83;stroke-width:1.41793;stroke-linecap:round;stroke-linejoin:round;-inkscape-stroke:none;paint-order:fill markers stroke"
               d="m 139.98652,168.33313 c -1.50999,0.70694 -4.32546,1.59834 -7.44655,0.49859 -2.46605,1.58165 -5.03355,2.36358 -7.66468,2.55487 0.25304,5.18953 2.7264,20.41583 12.33826,4.48665"
               id="path29-2" /><path
               id="rect1-06-8"
               style="fill:#ffada5;fill-opacity:1;stroke:none;stroke-width:0.283588;stroke-linecap:square;paint-order:fill markers stroke"
               d="m 124.94705,172.51782 c 0.85487,-1.68858 6.653,-2.80073 10.80052,-3.90825 1.29874,2.72922 0.68418,5.37947 1.21859,8.68194 -1.62151,2.74991 -4.02052,4.91666 -7.9975,5.89995 -3.50726,-2.95601 -4.01391,-6.74552 -4.02161,-10.67364 z"
               sodipodi:nodetypes="ccccc" /><path
               style="color:#000000;fill:#000000;fill-opacity:0.998658;stroke-width:1.41793;stroke-linecap:round;stroke-linejoin:round;-inkscape-stroke:none;paint-order:fill markers stroke"
               d="m 140.49772,166.92141 a 1.5006523,1.5006523 0 0 0 -1.14651,0.0525 c -1.30005,0.60861 -3.6969,1.36445 -6.3115,0.44308 a 1.5008025,1.5008025 0 0 0 -1.30989,0.15253 c -2.25681,1.44746 -4.55571,2.14574 -6.9623,2.32073 a 1.5008025,1.5008025 0 0 0 -1.39025,1.57028 c 0.13452,2.76098 0.61475,7.87068 2.95769,10.98901 0.58576,0.77955 1.34705,1.46643 2.34294,1.79734 0.99583,0.33107 2.15401,0.22606 3.2153,-0.26304 2.1226,-0.97808 4.13273,-3.23896 6.60503,-7.33618 a 1.5006523,1.5006523 0 0 0 -0.50959,-2.06043 1.5006523,1.5006523 0 0 0 -2.06043,0.50959 c -2.33364,3.86738 -4.2372,5.67701 -5.28954,6.1619 -0.5262,0.24255 -0.77209,0.21855 -1.01363,0.13852 -0.24155,-0.08 -0.55176,-0.29804 -0.89172,-0.75049 -1.18464,-1.57658 -1.90347,-5.44171 -2.17402,-8.07004 2.14591,-0.34557 4.26445,-1.0274 6.29763,-2.24598 3.26581,0.84391 6.18582,0.10254 7.7654,-0.63696 a 1.5006523,1.5006523 0 0 0 0.72284,-1.99677 1.5006523,1.5006523 0 0 0 -0.84745,-0.77545 z"
               id="path30-3" /><path
               style="fill:none;fill-opacity:0.480537;stroke:#ffa598;stroke-width:2.25098;stroke-linecap:round;stroke-linejoin:round;stroke-dasharray:none;stroke-opacity:1;paint-order:fill markers stroke"
               d="m 106.69089,168.78502 2.04713,4.0212"
               id="path23-0" /><path
               style="fill:none;fill-opacity:0.480537;stroke:#ffa598;stroke-width:2.25098;stroke-linecap:round;stroke-linejoin:round;stroke-dasharray:none;stroke-opacity:1;paint-order:fill markers stroke"
               d="m 103.25464,168.85813 1.60845,3.94809"
               id="path24-1" /><path
               style="fill:none;fill-opacity:0.480537;stroke:#ffa598;stroke-width:2.25098;stroke-linecap:round;stroke-linejoin:round;stroke-dasharray:none;stroke-opacity:1;paint-order:fill markers stroke"
               d="m 157.94263,165.56811 1.39615,3.43624"
               id="path25-7"
               sodipodi:nodetypes="cc" /><path
               style="fill:none;fill-opacity:0.480537;stroke:#ffa598;stroke-width:2.25098;stroke-linecap:round;stroke-linejoin:round;stroke-dasharray:none;stroke-opacity:1;paint-order:fill markers stroke"
               d="m 161.45204,165.20254 1.38911,3.80181"
               id="path26-8"
               sodipodi:nodetypes="cc" /><ellipse
               style="fill:#151d23;fill-opacity:1;stroke:none;stroke-width:2.25098;stroke-linecap:round;stroke-linejoin:round;stroke-dasharray:none;stroke-opacity:1;paint-order:fill markers stroke"
               id="path32-9"
               cx="114.78662"
               cy="120.92197"
               rx="2.6747088"
               ry="3.6990652"
               transform="rotate(-1.568748)" /><ellipse
               style="fill:#151d23;fill-opacity:1;stroke:none;stroke-width:2.25098;stroke-linecap:round;stroke-linejoin:round;stroke-dasharray:none;stroke-opacity:1;paint-order:fill markers stroke"
               id="path33-1"
               cx="97.334785"
               cy="142.14496"
               rx="3.727519"
               ry="4.8656936"
               transform="rotate(-12.708236)" /><ellipse
               style="fill:#151d23;fill-opacity:1;stroke:none;stroke-width:2.25098;stroke-linecap:round;stroke-linejoin:round;stroke-dasharray:none;stroke-opacity:1;paint-order:fill markers stroke"
               id="path34-5"
               cx="98.721825"
               cy="148.65297"
               rx="4.8087845"
               ry="5.8615956"
               transform="rotate(-15.926897)" /><path
               style="fill:none;fill-opacity:1;stroke:#fbfbfb;stroke-width:0.375162;stroke-linecap:round;stroke-linejoin:round;stroke-dasharray:none;stroke-opacity:1;paint-order:fill markers stroke"
               d="m 197.25503,137.10049 c -8.41496,-1.78629 -16.42197,2.6755 -20.3236,4.50859"
               id="path45-4"
               sodipodi:nodetypes="cc" /><path
               style="fill:none;fill-opacity:1;stroke:#fbfbfb;stroke-width:0.375162;stroke-linecap:round;stroke-linejoin:round;stroke-dasharray:none;stroke-opacity:1;paint-order:fill markers stroke"
               d="m 198.23088,139.48404 c -6.99447,-0.77712 -12.02751,-2.50222 -19.21141,4.40936"
               id="path45-8-9"
               sodipodi:nodetypes="cc" /><path
               style="color:#000000;fill:#000000;stroke-width:1.41793;stroke-linecap:round;stroke-linejoin:round;-inkscape-stroke:none;paint-order:fill markers stroke"
               d="m 195.18655,130.88542 c -3.41675,0.94597 -6.19085,3.65869 -8.72089,6.52472 -0.20504,-0.0835 -0.57686,-0.20153 -0.78095,-0.28255 -2.80966,-1.11116 -5.64279,-1.92471 -10.28007,-2.00227 a 1.5008002,1.5008002 0 0 0 -1.50933,1.70591 c 0.71329,5.13891 2.24436,8.59047 5.87395,10.94471 a 1.5008002,1.5008002 0 0 0 1.86105,-0.18004 c 1.8814,-1.81569 3.79321,-4.32212 5.74929,-6.66875 2.22511,0.92372 4.26548,1.88245 8.26943,2.97434 a 1.5008002,1.5008002 0 0 0 1.76963,-0.84744 c 1.06171,-2.43981 1.62352,-4.55391 1.53704,-6.53303 -0.0865,-1.97911 -0.90195,-3.76605 -2.27923,-5.22032 a 1.5008002,1.5008002 0 0 0 -1.48992,-0.41557 z m -0.061,3.37869 c 0.47659,0.72588 0.7934,1.46742 0.8336,2.38724 0.04,0.95693 -0.46009,2.40299 -0.95272,3.83838 -2.29773,-0.69984 -3.84963,-1.31402 -5.41691,-1.95244 1.85108,-1.97101 3.7255,-3.50364 5.53603,-4.27318 z m -17.76303,4.06549 c 2.82338,0.22855 4.93888,0.71584 6.99276,1.51765 -1.3493,1.6374 -2.67981,3.21354 -3.83836,4.46147 -1.63316,-1.3753 -2.59478,-3.27394 -3.1544,-5.97912 z"
               id="path47-2" /><path
               style="fill:none;fill-opacity:1;stroke:#000000;stroke-width:4.1268;stroke-linecap:round;stroke-linejoin:round;stroke-dasharray:none;stroke-opacity:1;paint-order:fill markers stroke"
               d="m 70.92904,223.2308 c 7.142834,-6.56188 12.572001,-7.95313 22.41514,-7.83196"
               id="path48-5"
               sodipodi:nodetypes="cc" /><path
               style="fill:none;fill-opacity:1;stroke:#000000;stroke-width:4.1268;stroke-linecap:round;stroke-linejoin:round;stroke-dasharray:none;stroke-opacity:1;paint-order:fill markers stroke"
               d="m 73.688715,227.88703 c 7.61797,-3.53988 13.880995,-5.5578 21.498965,-7.14164"
               id="path49-7"
               sodipodi:nodetypes="cc" /><path
               style="fill:none;fill-opacity:1;stroke:#000000;stroke-width:4.1268;stroke-linecap:round;stroke-linejoin:round;stroke-dasharray:none;stroke-opacity:1;paint-order:fill markers stroke"
               d="m 57.115808,222.81882 1.652059,3.4511 c -1.405363,1.53589 -1.752828,2.71741 -1.349203,4.3175 0.403575,1.60016 1.614002,3.1573 3.777856,3.59798"
               id="path50-4"
               sodipodi:nodetypes="cczc" /><path
               style="fill:none;fill-opacity:1;stroke:#000000;stroke-width:4.1268;stroke-linecap:round;stroke-linejoin:round;stroke-dasharray:none;stroke-opacity:1;paint-order:fill markers stroke"
               d="m 66.9728,239.5113 c 0.943523,2.77627 3.42009,4.74379 4.795645,6.22397"
               id="path51-9"
               sodipodi:nodetypes="cc" /><circle
               style="fill:#000000;fill-opacity:1;stroke:none;stroke-width:6.25272;stroke-linecap:round;stroke-linejoin:round;stroke-dasharray:none;stroke-opacity:1;paint-order:fill markers stroke"
               id="path52-9"
               cx="64.434578"
               cy="236.61401"
               r="1.8497177" /><path
               style="fill:#fafafd;fill-opacity:0.716779;stroke:none;stroke-width:4.1268;stroke-linecap:round;stroke-linejoin:round;stroke-dasharray:none;stroke-opacity:0.444295;paint-order:fill markers stroke"
               d="m 50.1328,237.96327 10.793871,7.10592"
               id="path53-4" /><path
               style="fill:none;fill-opacity:0.716779;stroke:#000000;stroke-width:4.1268;stroke-linecap:round;stroke-linejoin:round;stroke-dasharray:none;stroke-opacity:1;paint-order:fill markers stroke"
               d="m 50.415403,237.75397 c 6.147001,5.67696 8.978281,7.64938 14.159956,8.56225"
               id="path54-5"
               sodipodi:nodetypes="cc" /><path
               id="rect50-1-93"
               style="fill:#ffe8e0;fill-opacity:1;stroke-width:4.1268;stroke-linecap:round;stroke-linejoin:round;paint-order:fill markers stroke"
               d="m 115.08856,194.33979 c 8.0228,5.99563 21.50392,5.26924 27.36206,1.0283 -1.53692,7.17534 -1.11871,13.91084 -6.84837,22.02957 -3.78211,-0.55645 -7.60267,-0.67092 -11.61062,1.3697 -4.88572,-7.98268 -8.12132,-16.10291 -8.90307,-24.42757 z"
               sodipodi:nodetypes="ccccc" /><path
               id="rect68-1-5"
               style="fill:#e0b7aa;fill-opacity:1;stroke-width:4.1268;stroke-linecap:round;stroke-linejoin:round;paint-order:fill markers stroke"
               d="m 116.42265,197.55189 25.5821,-0.14903 c -3.74837,8.54071 -25.43287,6.24543 -25.43287,6.24543 z"
               sodipodi:nodetypes="cccc" /><path
               style="fill:none;fill-opacity:0.716779;stroke:#000000;stroke-width:4.1268;stroke-linecap:round;stroke-linejoin:round;stroke-dasharray:none;stroke-opacity:1;paint-order:fill markers stroke"
               d="m 124.21152,219.12288 c -4.21404,-8.49654 -8.95324,-16.8464 -9.52509,-25.64554 0.39957,6.9646 29.53323,6.88624 27.99209,-1.08311 0.30556,9.35545 -3.11333,18.37195 -7.54061,25.76712"
               id="path55-7"
               sodipodi:nodetypes="cccc" /><path
               style="fill:none;fill-opacity:0.716779;stroke:#000000;stroke-width:4.1268;stroke-linecap:round;stroke-linejoin:round;stroke-dasharray:none;stroke-opacity:1;paint-order:fill markers stroke"
               d="m 124.64859,231.44789 -11.18864,14.16054"
               id="path56-0" /><path
               id="rect68-60-6-7-8"
               style="fill:#ba3e38;fill-opacity:1;stroke-width:4.1268;stroke-linecap:round;stroke-linejoin:round;paint-order:fill markers stroke"
               d="m 140.04394,229.53553 14.30796,9.79218 -3.73519,5.78239 -13.04215,-13.23078 z"
               sodipodi:nodetypes="ccccc" /><path
               id="rect68-60-6-1"
               style="fill:#ba3e38;fill-opacity:1;stroke-width:4.1268;stroke-linecap:round;stroke-linejoin:round;paint-order:fill markers stroke"
               d="m 139.97162,224.52739 15.11559,3.83612 -1.61522,4.57102 -13.70226,-4.84562 z"
               sodipodi:nodetypes="ccccc" /><path
               style="fill:none;fill-opacity:0.716779;stroke:#000000;stroke-width:4.1268;stroke-linecap:round;stroke-linejoin:round;stroke-dasharray:none;stroke-opacity:1;paint-order:fill markers stroke"
               d="M 136.53647,231.09823 151.86194,246.233"
               id="path57-9"
               sodipodi:nodetypes="cc" /><path
               style="fill:none;fill-opacity:0.716779;stroke:#000000;stroke-width:4.1268;stroke-linecap:round;stroke-linejoin:round;stroke-dasharray:none;stroke-opacity:1;paint-order:fill markers stroke"
               d="m 158.30185,201.64066 c 2.59079,10.24691 5.6674,20.21854 4.0209,32.8666"
               id="path58-9"
               sodipodi:nodetypes="cc" /><path
               style="fill:none;fill-opacity:0.716779;stroke:#000000;stroke-width:4.1268;stroke-linecap:round;stroke-linejoin:round;stroke-dasharray:none;stroke-opacity:1;paint-order:fill markers stroke"
               d="m 171.23868,235.90582 c 0.70413,-2.82672 2.66714,-4.47072 5.04752,-4.84184 0.92074,-0.14355 2.69521,-1.00355 2.0651,-2.98747"
               id="path59-7"
               sodipodi:nodetypes="csc" /><path
               id="rect68-60-8"
               style="fill:#ba3e38;fill-opacity:1;stroke-width:4.1268;stroke-linecap:round;stroke-linejoin:round;paint-order:fill markers stroke"
               d="m 107.16568,228.40572 14.91363,-4.03801 0.60573,3.7634 -15.11559,6.96556 z"
               sodipodi:nodetypes="ccccc" /><path
               style="color:#000000;fill:#ffd367;stroke-width:1.41793;stroke-linecap:round;stroke-linejoin:round;-inkscape-stroke:none;paint-order:fill markers stroke"
               d="m 138.92918,225.30849 a 8.2602434,8.2602434 0 0 1 -8.26025,8.26025 8.2602434,8.2602434 0 0 1 -8.26025,-8.26025 8.2602434,8.2602434 0 0 1 8.26025,-8.26024 8.2602434,8.2602434 0 0 1 8.26025,8.26024 z"
               id="path76-2" /><circle
               style="fill:#f1a952;fill-opacity:1;stroke:none;stroke-width:4.1268;stroke-linecap:round;stroke-linejoin:round;stroke-dasharray:none;stroke-opacity:0.997315;paint-order:fill markers stroke"
               id="path75-5"
               cx="129.11989"
               cy="226.87212"
               r="5.9482737" /><path
               style="color:#000000;fill:#000000;stroke-width:1.41793;stroke-linecap:round;stroke-linejoin:round;-inkscape-stroke:none;paint-order:fill markers stroke"
               d="m 130.66913,214.98451 c -5.67716,0 -10.32438,4.64717 -10.32438,10.32433 0,5.67716 4.64722,10.32438 10.32438,10.32438 5.67711,0 10.32432,-4.64722 10.32432,-10.32438 0,-5.67716 -4.64721,-10.32433 -10.32432,-10.32433 z m 0,4.12641 c 3.44684,0 6.1979,2.75108 6.1979,6.19792 0,3.44689 -2.75106,6.19517 -6.1979,6.19517 -3.44691,0 -6.19796,-2.74828 -6.19796,-6.19517 0,-3.44684 2.75105,-6.19792 6.19796,-6.19792 z"
               id="path77-3" /><path
               style="fill:none;fill-opacity:0.716779;stroke:#000000;stroke-width:2.62613;stroke-linecap:round;stroke-linejoin:round;stroke-dasharray:none;stroke-opacity:1;paint-order:fill markers stroke"
               d="m 130.92702,225.13645 c 0.34657,2.52659 0.0795,6.81078 -1.11855,8.26025"
               id="path61-4"
               sodipodi:nodetypes="cc" /><circle
               style="fill:#000000;fill-opacity:1;stroke:none;stroke-width:2.62613;stroke-linecap:round;stroke-linejoin:round;stroke-dasharray:none;stroke-opacity:0.695302;paint-order:fill markers stroke"
               id="path62-9"
               cx="130.75494"
               cy="224.36203"
               r="2.2371492" /><path
               style="fill:none;fill-opacity:0.716779;stroke:#000000;stroke-width:4.1268;stroke-linecap:round;stroke-linejoin:round;stroke-dasharray:none;stroke-opacity:1;paint-order:fill markers stroke"
               d="m 122.39127,221.84564 c -5.47418,-0.31706 -10.90619,-0.90737 -16.84735,1.81154 l 1.99268,10.77871 c 5.16292,-1.29578 10.04594,-3.90652 15.20879,-6.60668"
               id="path63-0"
               sodipodi:nodetypes="cccc" /><path
               style="fill:none;fill-opacity:0.716779;stroke:#000000;stroke-width:4.1268;stroke-linecap:round;stroke-linejoin:round;stroke-dasharray:none;stroke-opacity:1;paint-order:fill markers stroke"
               d="m 137.69883,220.75875 c 10.28783,-0.97104 15.80657,0.19603 19.11178,2.35497 l -3.07962,9.42003 -14.58292,-4.52885"
               id="path64-2"
               sodipodi:nodetypes="cccc" /><path
               style="fill:none;fill-opacity:0.716779;stroke:#000000;stroke-width:4.1268;stroke-linecap:round;stroke-linejoin:round;stroke-dasharray:none;stroke-opacity:1;paint-order:fill markers stroke"
               d="m 153.64041,232.62436 2.8985,1.44922 -3.80425,12.22794"
               id="path65-0"
               sodipodi:nodetypes="ccc" /><path
               style="fill:none;fill-opacity:0.716779;stroke:#000000;stroke-width:4.1268;stroke-linecap:round;stroke-linejoin:round;stroke-dasharray:none;stroke-opacity:1;paint-order:fill markers stroke"
               d="m 108.26123,234.16415 -4.07601,2.8985 6.22666,9.17795"
               id="path66-1"
               sodipodi:nodetypes="ccc" /><circle
               style="fill:#000000;fill-opacity:1;stroke:none;stroke-width:3.70172;stroke-linecap:round;stroke-linejoin:round;stroke-dasharray:none;stroke-opacity:0.790604;paint-order:fill markers stroke"
               id="path67-9"
               cx="167.86964"
               cy="239.09006"
               r="1.7164592" /><path
               style="fill:none;fill-opacity:0.402685;stroke:#000000;stroke-width:4.1268;stroke-linecap:round;stroke-linejoin:round;stroke-dasharray:none;stroke-opacity:1;paint-order:fill markers stroke"
               d="m 97.82052,242.12355 7.76005,-1.99859"
               id="path68-6"
               sodipodi:nodetypes="cc" /><path
               style="fill:#47332e;fill-opacity:1;stroke:#000000;stroke-width:4.1268;stroke-linecap:round;stroke-linejoin:round;stroke-dasharray:none;stroke-opacity:1;paint-order:fill markers stroke"
               d="m 96.16666,209.08694 2.58214,12.4681"
               id="path71-2"
               sodipodi:nodetypes="cc" /><rect
               style="fill:#000000;fill-opacity:1;stroke:none;stroke-width:1.87534;stroke-linecap:round;stroke-linejoin:round;stroke-dasharray:none;stroke-opacity:1;paint-order:stroke fill markers"
               id="rect28"
               width="67.746178"
               height="4.0851965"
               x="96.006081"
               y="244.32573"
               rx="0.70879406"
               ry="0.70879406" /></g></g></g><path
         style="fill:none;stroke:#000000;stroke-width:4.0315;stroke-linecap:round;stroke-linejoin:round;stroke-dasharray:none;stroke-opacity:1;paint-order:fill markers stroke"
         d="m -113.51409,18.727788 c 0,0 18.368559,0.641574 22.236582,2.633957 1.361112,0.701096 -14.440692,5.928247 -21.533932,11.295023"
         id="path2"
         sodipodi:nodetypes="csc" /><path
         style="fill:none;stroke:#000000;stroke-width:4.0315;stroke-linecap:round;stroke-linejoin:round;stroke-dasharray:none;stroke-opacity:1;paint-order:fill markers stroke"
         d="m -52.17036,13.491554 c 0,0 -10.187711,2.907348 -17.480949,6.215448 -7.015907,3.182307 13.083436,2.915189 19.811742,6.992378"
         id="path3"
         sodipodi:nodetypes="csc" /></g></g></svg>
