<?xml version="1.0" encoding="UTF-8" standalone="no"?>
<svg
   xml:space="preserve"
   width="384"
   height="220"
   viewBox="0 0 101.6 58.208"
   version="1.1"
   id="svg4"
   sodipodi:docname="minor2.svg"
   inkscape:version="1.4 (unknown)"
   xmlns:inkscape="http://www.inkscape.org/namespaces/inkscape"
   xmlns:sodipodi="http://sodipodi.sourceforge.net/DTD/sodipodi-0.dtd"
   xmlns="http://www.w3.org/2000/svg"
   xmlns:svg="http://www.w3.org/2000/svg"><defs
     id="defs4" /><sodipodi:namedview
     id="namedview4"
     pagecolor="#ffffff"
     bordercolor="#000000"
     borderopacity="0.25"
     inkscape:showpageshadow="2"
     inkscape:pageopacity="0.0"
     inkscape:pagecheckerboard="0"
     inkscape:deskcolor="#d1d1d1"
     inkscape:zoom="0.92603704"
     inkscape:cx="240.8111"
     inkscape:cy="129.58445"
     inkscape:window-width="1920"
     inkscape:window-height="1111"
     inkscape:window-x="0"
     inkscape:window-y="0"
     inkscape:window-maximized="1"
     inkscape:current-layer="svg4" /><rect
     style="fill:#d4e4f9;fill-opacity:1;stroke-width:4.99999;stroke-linecap:round;stroke-linejoin:round;paint-order:fill markers stroke"
     id="rect4"
     width="101.6"
     height="58.208332"
     x="7.6293946e-07"
     y="-0.00016603088" /><g
     id="g1"
     transform="matrix(1.0697389,0,0,1.0697389,-2.4925461,-1.6746342)"><g
       aria-label="装上就能用 用了都说好"
       style="font-size:15.517px;line-height:1.1;font-family:misans;-inkscape-font-specification:misans;text-align:center;letter-spacing:0;text-anchor:middle;stroke:#000000;stroke-width:0.306257;stroke-linecap:round;stroke-linejoin:round;stroke-dashoffset:11"
       id="g3"
       transform="matrix(0.55359028,0,0,0.55359028,3.3045056,-3.5857802)"><path
         stroke="none"
         d="m 13.413,36.356 q -0.951,0.468 -1.856,0.936 -0.905,0.452 -1.326,0.686 L 9.685,36.84 q 0.219,-0.078 1.482,-0.687 1.264,-0.608 2.246,-1.092 v -3.229 h 1.217 v 6.583 h -1.217 z m 2.153,0.062 h 3.01 v -1.715 h -3.353 v -1.108 h 3.353 v -1.763 h 1.217 v 1.763 h 3.432 v 1.108 h -3.432 v 1.715 h 2.98 v 1.077 h -7.207 z m -3.463,-1.216 q -1.108,-1.28 -1.997,-2.137 l 0.811,-0.749 q 1.186,1.154 2.044,2.106 z m 7.58,7.862 q 1.405,0.889 3.651,1.403 l -0.562,1.248 q -1.715,-0.452 -2.916,-1.06 -1.202,-0.624 -2.075,-1.514 -0.874,-0.889 -1.607,-2.183 -0.733,0.686 -1.622,1.279 v 2.355 l 3.057,-0.983 0.11,1.202 -4.493,1.435 -0.421,-0.983 q 0.327,-0.187 0.421,-0.328 0.11,-0.14 0.11,-0.436 V 43 q -1.53,0.858 -3.401,1.622 l -0.5,-1.216 q 1.763,-0.64 3.09,-1.342 1.325,-0.717 2.417,-1.575 H 9.7 v -1.186 h 6.395 q -0.42,-0.842 -0.593,-1.092 l 1.202,-0.436 0.78,1.528 h 5.693 v 1.186 H 17.25 q 0.655,1.076 1.435,1.81 0.889,-0.438 2.854,-1.592 l 0.64,0.983 q -1.186,0.749 -2.496,1.373 m 12.651,-5.382 v 6.24 h 6.52 V 45.34 H 25.238 v -1.42 h 5.6 V 31.817 h 1.497 v 4.508 h 5.788 v 1.357 z m 15.6,-4.196 v 1.201 H 40.96 v -1.201 h 3.073 q -0.219,-0.936 -0.468,-1.654 l 1.247,-0.187 q 0.312,1.014 0.5,1.84 z m 6.566,3.213 h -4.102 q -0.063,2.278 -0.343,3.838 -0.281,1.544 -0.843,2.807 -0.546,1.264 -1.544,2.746 l -1.076,-0.811 q 0.982,-1.373 1.497,-2.496 0.53,-1.139 0.78,-2.527 0.25,-1.404 0.328,-3.557 h -1.404 v -1.216 h 1.435 v -0.063 l 0.031,-3.634 h 1.201 l -0.031,1.435 q -0.016,1.372 -0.016,2.2 v 0.062 H 54.5 Z M 53.237,35.06 Q 52.784,34.546 51.63,33.282 l -0.39,-0.421 0.811,-0.764 q 0.203,0.187 1.201,1.263 0.593,0.655 0.827,0.89 z m -5.99,5.023 h -2.044 v 4.087 q 0,0.686 -0.156,1.045 -0.14,0.359 -0.499,0.5 -0.343,0.155 -0.998,0.155 H 42.364 L 42.13,44.654 h 0.952 q 0.406,0 0.593,-0.063 0.203,-0.078 0.265,-0.25 0.062,-0.172 0.062,-0.53 V 40.083 H 41.694 V 36.06 h 5.553 z m -1.17,-2.948 h -3.229 v 1.887 h 3.229 z m 8.454,4.508 q 0,0.421 -0.015,0.89 -0.016,0.452 -0.031,0.81 l -0.032,0.765 q -0.03,0.889 -0.358,1.248 -0.328,0.358 -1.139,0.358 h -0.702 q -0.702,0 -1.03,-0.39 -0.311,-0.39 -0.311,-1.232 v -6.52 h 1.17 v 6.286 q 0,0.421 0.124,0.546 0.14,0.11 0.484,0.11 h 0.14 q 0.406,0 0.515,-0.11 0.125,-0.125 0.14,-0.546 0.047,-1.31 0.047,-2.418 z m -7.752,1.794 q -0.343,-0.92 -1.045,-2.278 l 0.951,-0.483 q 0.546,1.045 1.092,2.2 z m -3.619,-2.23 q -0.546,1.715 -1.529,3.634 l -1.03,-0.577 q 0.36,-0.687 0.75,-1.607 0.39,-0.936 0.701,-1.825 z m 18.313,-8.206 q 1.154,1.42 2.418,3.136 L 62.892,36.901 62.3,36.059 56.793,36.433 56.59,35.326 q 0.765,-0.75 1.482,-1.7 0.718,-0.968 1.28,-1.904 l 1.247,0.515 q -0.826,1.28 -2.308,2.964 l 3.244,-0.219 -0.982,-1.326 z m 4.102,5.46 q -0.686,0 -1.014,-0.374 -0.327,-0.375 -0.327,-1.186 V 31.91 h 1.232 v 2.387 q 2.59,-1.076 3.635,-1.7 l 0.561,1.138 q -0.624,0.344 -1.872,0.89 -1.248,0.546 -2.324,0.967 v 0.873 q 0,0.468 0.156,0.64 0.172,0.171 0.593,0.171 h 1.513 q 0.421,0 0.608,-0.046 0.203,-0.063 0.281,-0.234 0.094,-0.188 0.125,-0.609 0.015,-0.28 0.031,-0.686 0.016,-0.421 0.016,-0.718 l 1.185,0.375 -0.031,0.483 -0.062,1.139 q -0.063,0.827 -0.453,1.154 -0.39,0.328 -1.294,0.328 z m -8.392,7.612 v -8.688 h 5.725 v 7.128 q 0,0.593 -0.156,0.905 -0.156,0.327 -0.515,0.452 -0.343,0.125 -0.998,0.125 H 60.13 l -0.25,-1.232 h 1.124 q 0.452,0 0.561,-0.14 0.109,-0.14 0.11,-0.593 v -1.014 h -3.292 v 3.057 z m 4.493,-6.395 v -1.217 h -3.292 v 1.217 z m 8.392,2.667 q -0.078,1.45 -0.125,1.903 -0.094,0.842 -0.515,1.17 -0.405,0.343 -1.341,0.343 h -2.418 q -0.733,0 -1.076,-0.39 -0.344,-0.374 -0.344,-1.185 V 39.21 h 1.264 v 2.09 q 2.496,-1.092 3.65,-1.872 l 0.64,1.139 q -0.734,0.436 -1.95,0.998 -1.201,0.562 -2.34,1.014 v 1.185 q 0,0.468 0.187,0.656 0.203,0.171 0.64,0.171 h 1.357 q 0.608,0 0.826,-0.171 0.219,-0.188 0.266,-0.734 0.03,-0.343 0.062,-0.826 0.031,-0.5 0.031,-0.843 z M 58.384,40.738 v 1.217 h 3.292 V 40.738 Z M 73.312,32.705 H 84.81 v 11.418 q 0,1.03 -0.437,1.42 -0.437,0.39 -1.56,0.39 H 81.19 l -0.219,-1.342 h 1.42 q 0.468,0 0.67,-0.062 0.219,-0.078 0.297,-0.265 0.078,-0.188 0.078,-0.593 V 41.66 h -3.744 v 4.133 H 78.32 V 41.66 h -3.728 q -0.109,1.326 -0.452,2.355 -0.328,1.014 -1.014,2.184 l -1.248,-0.655 q 0.655,-1.077 0.936,-1.84 0.296,-0.78 0.39,-1.78 0.11,-0.998 0.11,-2.854 z m 5.007,3.884 v -2.558 h -3.65 v 2.558 z m 1.373,0 h 3.744 v -2.558 h -3.744 z m -1.373,3.744 V 37.9 h -3.65 v 1.654 q 0,0.53 -0.015,0.78 z m 1.373,-2.434 v 2.434 h 3.744 V 37.9 Z"
         style="font-size:15.5987px;text-align:start;text-anchor:start;stroke:none"
         id="path2" /><path
         d="m 10.905,49.852 h 11.436 v 11.359 q 0,1.024 -0.434,1.412 -0.434,0.388 -1.552,0.388 h -1.613 l -0.218,-1.335 h 1.412 q 0.466,0 0.668,-0.062 0.217,-0.077 0.294,-0.264 0.078,-0.186 0.078,-0.59 v -2 h -3.724 v 4.111 H 15.886 V 58.76 h -3.708 q -0.109,1.32 -0.45,2.343 -0.326,1.009 -1.009,2.173 L 9.478,62.624 q 0.652,-1.07 0.93,-1.831 0.296,-0.776 0.389,-1.77 0.108,-0.992 0.108,-2.839 z m 4.981,3.864 v -2.545 h -3.63 v 2.545 z m 1.366,0 h 3.724 v -2.545 h -3.724 z m -1.366,3.724 v -2.42 h -3.63 v 1.644 q 0,0.528 -0.016,0.776 z m 1.366,-2.42 v 2.42 h 3.724 v -2.42 z m 8.364,-5.028 h 12.289 v 1.381 l -5.152,3.647 v 5.88 q 0,0.792 -0.217,1.21 -0.202,0.42 -0.683,0.59 -0.48,0.187 -1.35,0.187 h -2.25 l -0.232,-1.443 h 2.032 q 0.544,0 0.792,-0.078 0.248,-0.078 0.341,-0.295 0.093,-0.233 0.093,-0.714 v -6.051 l 4.36,-2.933 H 25.617 Z m 22.887,0.497 q -0.822,1.815 -1.815,3.196 h 1.862 v 1.133 h -2.778 q -0.667,0.73 -1.474,1.427 h 3.228 v 6.005 h -4.454 v 0.807 h -1.164 v -5.043 l -1.055,0.668 -0.48,-1.164 q 2.311,-1.35 3.739,-2.7 h -3.523 v -1.133 h 2.747 V 51.87 h -2.188 v -1.118 h 2.188 V 49.03 h 1.21 v 1.722 h 1.893 v 1.118 h -1.893 v 1.815 h 0.637 q 1.303,-1.552 2.203,-3.708 z m 4.236,4.64 q 0.87,1.178 1.18,2.016 0.325,0.823 0.325,1.754 0,0.9 -0.248,1.427 -0.248,0.528 -0.791,0.76 -0.543,0.218 -1.474,0.218 h -0.838 l -0.264,-1.288 h 0.915 q 0.59,0 0.885,-0.109 0.31,-0.108 0.434,-0.372 0.125,-0.28 0.125,-0.807 0,-0.73 -0.342,-1.52 -0.341,-0.807 -1.241,-1.863 l 1.412,-4.36 h -2.498 v 12.196 h -1.257 v -13.39 h 5.012 v 1.303 z m -9.667,3.615 h 3.259 v -1.397 h -3.259 z m 0,1.024 v 1.427 h 3.259 v -1.427 z m 26.767,-0.59 q 0,0.419 -0.031,1.117 -0.016,0.683 -0.047,1.195 -0.062,0.807 -0.434,1.102 -0.372,0.31 -1.21,0.31 h -1.304 q -0.807,0 -1.148,-0.341 -0.326,-0.326 -0.326,-1.164 v -3.88 h -1.583 l -0.03,0.466 q -0.078,1.366 -0.45,2.312 -0.373,0.931 -1.056,1.645 -0.667,0.698 -1.815,1.459 l -0.854,-1.086 q 1.055,-0.637 1.63,-1.18 0.574,-0.543 0.869,-1.288 0.31,-0.76 0.372,-1.94 l 0.015,-0.387 h -1.66 v -5.416 h 2.048 q -0.372,-0.636 -0.9,-1.443 -0.512,-0.807 -0.729,-1.101 l 1.04,-0.652 q 1.148,1.614 1.722,2.498 l -1.086,0.698 h 2.203 q 0.637,-0.993 1.909,-3.103 l 1.148,0.59 q -0.745,1.225 -1.552,2.513 h 2.095 v 5.416 h -2.032 v 3.398 q 0,0.45 0.124,0.59 0.14,0.124 0.543,0.124 h 0.636 q 0.419,0 0.543,-0.124 0.14,-0.124 0.155,-0.59 0.016,-0.357 0.016,-1.955 z m -11.172,-6.44 q -0.45,-0.636 -1.009,-1.38 -0.558,-0.76 -1.024,-1.366 l 1.07,-0.776 q 1.335,1.692 2.033,2.685 z m 8.736,0.606 h -5.369 v 2.932 h 5.369 z m -6.998,5.307 0.31,1.458 -2.746,2.328 -0.854,-0.916 q 0.264,-0.28 0.341,-0.465 0.094,-0.202 0.094,-0.512 v -5.245 h -1.49 v -1.335 h 2.762 v 6.13 z m 16.929,-5.602 q -0.28,2.234 -0.59,3.615 -0.295,1.381 -0.807,2.437 0.326,0.263 0.683,0.574 0.357,0.294 0.76,0.62 0.559,0.481 0.636,0.543 l -0.9,1.102 q -1.086,-0.993 -1.862,-1.66 -0.48,0.683 -1.163,1.38 -0.668,0.684 -1.63,1.475 l -0.977,-0.978 q 0.946,-0.76 1.598,-1.396 0.667,-0.652 1.148,-1.35 -1.194,-1.024 -2.094,-1.676 0.543,-2.064 0.946,-4.624 h -1.427 v -1.335 h 1.629 q 0.217,-1.8 0.295,-2.84 l 1.303,0.11 q -0.14,1.365 -0.326,2.73 h 2.778 z m 8.038,2.405 v 1.35 H 82.16 v 4.283 q 0,1.024 -0.45,1.412 -0.435,0.403 -1.568,0.403 h -1.567 l -0.295,-1.35 h 1.474 q 0.652,0 0.854,-0.17 0.202,-0.187 0.202,-0.776 v -3.802 h -3.321 v -1.35 h 3.32 v -1.831 l 2.452,-2.328 h -5.12 v -1.35 h 6.843 v 1.335 l -2.824,2.824 v 1.35 z m -10.49,2.778 q 0.419,-0.916 0.698,-2.126 0.28,-1.226 0.512,-2.995 h -1.738 q -0.34,2.25 -0.837,4.05 z"
         style="text-align:start;text-anchor:start"
         id="path3" /></g><path
       d="m 8.6283832,38.041441 v -0.480517 h 4.9391328 v 0.480517 h -2.358848 v 4.271502 h -0.543626 v -4.271502 z m 2.9196358,0.809349 q 0.384745,0.271259 0.938888,0.690327 0.554698,0.418514 0.814885,0.639397 l -0.311117,0.42405 Q 12.679557,40.33884 12.170254,39.94247 11.660951,39.541117 11.27067,39.252696 Z m 7.671653,2.025586 q -0.03377,0.299493 -0.09632,0.706935 -0.06754,0.401907 -0.214793,0.560234 -0.141719,0.163862 -0.362048,0.163862 -0.203722,0 -0.362048,-0.135629 -0.158327,-0.130094 -0.311118,-0.435676 -0.06256,-0.119022 -0.119022,-0.271259 -0.350976,0.395817 -0.843118,0.791634 l -0.333815,-0.37312 q 0.639397,-0.48107 1.01307,-0.922281 -0.232508,-0.865816 -0.322743,-1.985729 H 14.286076 V 38.55628 h 1.210702 v -0.480517 h -0.984284 v -0.390281 h 0.984284 v -0.532 h 0.458373 v 0.531447 h 0.973211 v 0.390834 h -0.973211 v 0.480517 h 1.278793 l -0.01107,-0.260188 -0.04539,-1.176379 h 0.469445 q 0.02214,0.71856 0.05093,1.255543 l 0.01107,0.181024 h 1.48805 v 0.419067 h -1.459817 q 0.06809,0.859726 0.215346,1.516284 0.350423,-0.537536 0.605074,-1.278793 l 0.43014,0.181024 q -0.198185,0.503767 -0.412978,0.90512 -0.215347,0.401906 -0.469445,0.747347 0.06754,0.197631 0.163863,0.412424 0.07363,0.169953 0.13563,0.238044 0.06809,0.06754 0.141719,0.06754 0.062,0 0.09577,-0.09023 0.03986,-0.09632 0.08525,-0.34544 0.03931,-0.24358 0.07363,-0.582377 z M 18.721441,38.353112 Q 18.46679,38.075763 17.918735,37.549299 l 0.287867,-0.293957 q 0.350976,0.316654 0.832047,0.786099 z m -1.719451,3.173733 -0.888513,0.06809 v 0.724096 h -0.458372 v -0.690327 l -1.340796,0.10186 -0.03377,-0.430139 1.374565,-0.101861 V 40.78005 h -1.09168 v -0.384746 q 0.192095,-0.282884 0.367584,-0.58293 H 14.33756 v -0.395817 h 0.820421 l 0.198185,-0.395817 0.452283,0.09023 -0.152791,0.305582 h 1.408888 v 0.395817 h -1.618145 q -0.192096,0.339351 -0.344886,0.58293 h 0.582377 V 39.99949 h 0.430139 v 0.395816 h 0.876887 v 0.384746 h -0.876887 v 0.384745 l 0.871351,-0.06256 0.01107,0.265724 z m 3.700197,-3.24736 v 0.605074 h -0.498231 v -1.068983 h 2.093679 q -0.136184,-0.317207 -0.277349,-0.600092 l 0.531447,-0.10186 q 0.09632,0.192649 0.322743,0.701952 h 1.776471 v 1.068983 h -0.492696 v -0.605074 z m 3.213038,1.533444 q -0.169398,0.435123 -0.362048,0.757866 -0.192096,0.322189 -0.452283,0.576841 0.741257,0.316653 1.618144,0.707488 l -0.220882,0.497678 q -0.825957,-0.407443 -1.827402,-0.859726 -0.418514,0.276795 -1.04075,0.486606 -0.616699,0.209257 -1.533444,0.395817 l -0.13563,-0.498231 q 0.758419,-0.124005 1.284329,-0.271259 0.531447,-0.147256 0.899584,-0.344887 -0.894048,-0.390835 -1.499675,-0.611164 0.215346,-0.311118 0.514839,-0.837582 h -1.244472 v -0.458373 h 1.488051 q 0.24358,-0.47498 0.42405,-0.921728 l 0.48716,0.169399 q -0.153345,0.362048 -0.345441,0.752883 h 2.936243 v 0.457819 z m -2.551498,0.621683 q 0.498232,0.187113 1.262187,0.509302 0.248562,-0.214792 0.424049,-0.486605 0.175489,-0.276795 0.311118,-0.644933 h -1.629216 q -0.203721,0.384745 -0.368138,0.622236 m 8.893982,1.120466 q 0,0.276796 -0.07363,0.424604 -0.06809,0.146702 -0.231954,0.203168 -0.158327,0.06255 -0.446747,0.06255 h -0.651022 l -0.09024,-0.447301 h 0.582931 q 0.174935,0 0.260187,-0.02768 0.0847,-0.02879 0.118469,-0.102414 0.03432,-0.07916 0.03432,-0.237491 v -3.524709 h -3.428938 v 4.384435 h -0.492142 v -4.836718 h 4.418758 z m -3.598337,-3.038103 h 2.783452 v 0.430139 h -2.783452 z m 0.305582,0.995909 h 2.161216 v 1.81024 h -2.161216 z m 0.446747,0.418514 v 0.978747 h 1.267722 v -0.978747 z m 6.493061,2.121358 q -0.588467,0 -1.024142,-0.260188 -0.435676,-0.265723 -0.673166,-0.758418 -0.232508,-0.497678 -0.232508,-1.17638 0,-0.678701 0.232508,-1.170843 0.23749,-0.498232 0.673166,-0.758419 0.435675,-0.260187 1.024142,-0.260187 0.588466,0 1.024142,0.260187 0.435675,0.260187 0.66763,0.758419 0.23749,0.492142 0.23749,1.170843 0,0.678702 -0.238044,1.176933 -0.231954,0.492142 -0.667076,0.758419 -0.435676,0.260187 -1.024142,0.260187 m 0,-0.536982 q 0.407442,0 0.71247,-0.192649 0.305582,-0.198186 0.469999,-0.571306 0.169398,-0.373673 0.169398,-0.894048 0,-0.514839 -0.169398,-0.887959 -0.164417,-0.373673 -0.469999,-0.571859 -0.305028,-0.197632 -0.71247,-0.197632 -0.622236,0 -0.984837,0.441212 -0.362048,0.435676 -0.362048,1.216238 0,0.780562 0.362048,1.222327 0.362601,0.435122 0.984837,0.435122 m 3.976992,0.509303 q -0.514839,0 -0.927817,-0.221436 -0.412978,-0.220329 -0.639397,-0.616146 l 0.458373,-0.317207 q 0.181024,0.317207 0.463909,0.475534 0.282884,0.158327 0.651022,0.158327 0.401353,0 0.66154,-0.181024 0.265723,-0.18656 0.265723,-0.474981 0,-0.198185 -0.107396,-0.333814 -0.10186,-0.136184 -0.327725,-0.238044 -0.220883,-0.101861 -0.605628,-0.209258 -0.43014,-0.118468 -0.706935,-0.238043 -0.271259,-0.124004 -0.463909,-0.361495 -0.192649,-0.24358 -0.192649,-0.628325 0,-0.33935 0.18656,-0.61061 0.192649,-0.277348 0.532,-0.430139 0.339351,-0.152792 0.775027,-0.152792 0.498231,0 0.860279,0.209258 0.367583,0.203721 0.588466,0.565769 l -0.441765,0.300046 q -0.181024,-0.260188 -0.446747,-0.407442 -0.265724,-0.147256 -0.571305,-0.147256 -0.249116,0 -0.458373,0.08525 -0.209257,0.0847 -0.328279,0.231953 -0.118468,0.146702 -0.118468,0.32219 0,0.232508 0.130093,0.37921 0.13563,0.141165 0.344887,0.226418 0.209257,0.08525 0.565769,0.174934 0.412979,0.113487 0.695863,0.249116 0.288421,0.130094 0.475535,0.373674 0.186559,0.23749 0.186559,0.616699 0,0.362048 -0.186559,0.633307 -0.187114,0.27126 -0.525911,0.419068 -0.339905,0.146702 -0.792742,0.146702"
       aria-label="下载安同 OS"
       style="font-size:10.2199px;line-height:1.2;font-family:misans;-inkscape-font-specification:misans;letter-spacing:0;stroke-width:0.151544;stroke-linecap:round;stroke-linejoin:round;stroke-dashoffset:11"
       id="path4" /><path
       d="m 46.226021,39.908147 a 1.8600633,1.8600633 0 0 1 -1.860618,1.86117 1.8600633,1.8600633 0 0 1 -1.86117,-1.86117 1.8600633,1.8600633 0 0 1 1.86117,-1.860617 1.8600633,1.8600633 0 0 1 1.860618,1.860617"
       style="fill:none;stroke:#000000;stroke-width:0.397431;stroke-linecap:round;stroke-linejoin:round;stroke-dashoffset:11"
       id="path5" /><path
       d="m 44.277936,38.520297 a 0.1992925,0.1992925 0 0 0 -0.109057,0.05536 0.1992925,0.1992925 0 0 0 0,0.281224 l 0.852529,0.852529 h -1.874457 a 0.1992925,0.1992925 0 0 0 -0.199292,0.198186 0.1992925,0.1992925 0 0 0 0.199292,0.199292 h 1.873904 l -0.852529,0.852529 a 0.1992925,0.1992925 0 0 0 0,0.281777 0.1992925,0.1992925 0 0 0 0.281224,0 l 1.332491,-1.333598 -1.332491,-1.331939 a 0.1992925,0.1992925 0 0 0 -0.171614,-0.05536"
       style="color:#000000;fill:#000000;stroke-width:0.553589;stroke-linecap:round;stroke-linejoin:round;stroke-dashoffset:11;-inkscape-stroke:none"
       id="path6" /></g><g
     id="g4"
     transform="matrix(0.93006169,0,0,0.93006169,3.668285,4.4048992)"><g
       transform="matrix(0.10739651,0,0,0.10739651,50.589973,-10.939673)"
       id="g67"><ellipse
         cx="314.599"
         cy="383.685"
         rx="122.348"
         ry="121.232"
         style="fill:#ffe8e0;fill-opacity:1"
         id="ellipse7" /><path
         d="m 179.833,335.164 c 33.12,-62.985 103.71,-116.103 185.225,-94.559 12.759,3.372 46.624,22.355 46.624,22.355 0,0 -2.51,54.659 20.302,84.125 0,0 10.702,-0.113 15.236,5.341 2.004,11.028 0.161,23.09 10.045,23.565 8.496,0.41 14.426,9.15 17.064,18.744 7.66,6.507 16.896,-4.919 17.426,16.237 0.53,21.157 -1.39,12.092 -12.195,17.877 -2.912,116.547 -2.41,134.863 -40.715,146.621 l -29.183,8.959 c -0.148,-17.02 5.094,-36.252 -8.595,-63.672 -9.721,-13.678 -22.08,-21.027 -36.323,-23.852 3.558,-35.48 28.837,-60.81 42.237,-97.834 0.044,-9.568 -1.08,-18.969 -7.312,-27.64 l -11.164,-4.595 -4.02,-11.04 -11.63,-7.882 1.466,-10.4 -14.405,-8.912 0.23,-10.769 -15.427,-4.487 c 1.542,20.219 -1.657,39.604 -3.693,54.456 -20.292,7.836 -58.444,8.847 -63.873,5.093 l -4.423,-12.326 -13.216,8.355 c -13.384,-32.438 -1.206,-57.994 8.056,-84.335 -4.647,8.605 -15.162,22.556 -19.624,30.788 l -10.704,5.124 -0.584,8.657 -12.472,8.001 2.803,15.018 -10.652,6.398 -4.253,20.05 z"
         style="fill:#252e33;fill-opacity:1"
         id="path8" /><circle
         cx="249.381"
         cy="405.526"
         r="35.390999"
         style="fill:#ffffff;fill-opacity:1;stroke:none;stroke-width:11;stroke-linecap:round;stroke-linejoin:round;stroke-dasharray:none;stroke-opacity:1;paint-order:fill markers stroke"
         id="circle8" /><path
         d="m 392.258,412.488 c -2.403,20.262 -18.057,29.338 -34.635,29.338 -16.578,0 -30.018,-16.54 -30.018,-36.945 0,-10.689 1.707,-29.78 1.707,-29.78 6.445,-3.415 22.862,-6.078 30.756,-6.078 9.134,0 25.736,8.281 31.242,16.204 0,0 2.035,18.099 0.948,27.26"
         style="fill:#ffffff;fill-opacity:1;stroke-width:11;stroke-linecap:round;stroke-linejoin:round;paint-order:fill markers stroke"
         id="path9" /><g
         transform="translate(114.135,-78.367)"
         id="g11"><path
           d="m 271.818,490.344 a 25.136,25.136 0 0 1 -25.137,25.136 25.136,25.136 0 0 1 -25.136,-25.136 25.136,25.136 0 0 1 25.136,-25.137 25.136,25.136 0 0 1 25.137,25.137"
           style="color:#000000;fill:#252e33;stroke-linecap:round;stroke-linejoin:round;-inkscape-stroke:none;paint-order:fill markers stroke"
           id="path10" /><ellipse
           cx="247.65601"
           cy="504.73401"
           rx="13.053"
           ry="12.015"
           style="fill:#d3dbdf;fill-opacity:0.265455;stroke:none;stroke-width:13.8598;stroke-linecap:round;stroke-linejoin:round;stroke-dasharray:none;stroke-opacity:1;paint-order:fill markers stroke"
           id="ellipse10" /><path
           d="m 246.68,459.708 c -16.854,0 -30.636,13.78 -30.636,30.635 0,16.855 13.782,30.637 30.637,30.637 16.855,0 30.636,-13.782 30.636,-30.637 0,-16.855 -13.781,-30.635 -30.636,-30.635 m 0,11 a 19.55,19.55 0 0 1 19.637,19.635 19.554,19.554 0 0 1 -19.636,19.637 19.554,19.554 0 0 1 -19.637,-19.637 19.55,19.55 0 0 1 19.637,-19.635"
           style="color:#000000;fill:#000000;stroke-linecap:round;stroke-linejoin:round;-inkscape-stroke:none;paint-order:fill markers stroke"
           id="path11" /></g><g
         transform="translate(7.056,-78.93)"
         id="g13"><path
           d="m 271.818,490.344 a 25.136,25.136 0 0 1 -25.137,25.136 25.136,25.136 0 0 1 -25.136,-25.136 25.136,25.136 0 0 1 25.136,-25.137 25.136,25.136 0 0 1 25.137,25.137"
           style="color:#000000;fill:#252e33;stroke-linecap:round;stroke-linejoin:round;-inkscape-stroke:none;paint-order:fill markers stroke"
           id="path12" /><ellipse
           cx="247.65601"
           cy="504.73401"
           rx="13.053"
           ry="12.015"
           style="fill:#d3dbdf;fill-opacity:0.265455;stroke:none;stroke-width:13.8598;stroke-linecap:round;stroke-linejoin:round;stroke-dasharray:none;stroke-opacity:1;paint-order:fill markers stroke"
           id="ellipse12" /><path
           d="m 246.68,459.708 c -16.854,0 -30.636,13.78 -30.636,30.635 0,16.855 13.782,30.637 30.637,30.637 16.855,0 30.636,-13.782 30.636,-30.637 0,-16.855 -13.781,-30.635 -30.636,-30.635 m 0,11 a 19.55,19.55 0 0 1 19.637,19.635 19.554,19.554 0 0 1 -19.636,19.637 19.554,19.554 0 0 1 -19.637,-19.637 19.55,19.55 0 0 1 19.637,-19.635"
           style="color:#000000;fill:#000000;stroke-linecap:round;stroke-linejoin:round;-inkscape-stroke:none;paint-order:fill markers stroke"
           id="path13" /></g><path
         d="m 326.443,377.171 c 19.03,-14.115 45.294,-10.573 66.141,7.736"
         style="fill:none;fill-opacity:1;stroke:#000000;stroke-width:11;stroke-linecap:round;stroke-linejoin:round;stroke-dasharray:none;stroke-opacity:1;paint-order:fill markers stroke"
         id="path14" /><path
         d="m 331.66,447.734 c 0,8.497 2.267,32.837 -13.657,32.616 -9.738,-0.135 -29.342,-26.107 -27.133,-34.383 4.197,1.664 9,1.183 17.855,-0.806 10.18,3.535 12.111,4.238 22.936,2.573"
         style="fill:#f18a83;fill-opacity:1;stroke-width:11;stroke-linecap:round;stroke-linejoin:round;paint-order:fill markers stroke"
         id="path15" /><path
         d="m 329.854,448.243 c 3.043,10.656 -1.613,32.167 -11.352,32.167 -9.739,0 -22.64,-11.206 -22.64,-19.703 1.817,-1.528 7.611,-13.732 6.642,-14.895 0,0 18.714,5.71 27.35,2.43"
         style="fill:#ffada5;fill-opacity:1;stroke-width:11;stroke-linecap:round;stroke-linejoin:round;paint-order:fill markers stroke"
         id="path16" /><path
         d="m 286.662,444.766 c 6.573,3.14 18.548,1.778 21.485,0.294 2.578,2.169 17.07,3.53 22.368,2.55 6.066,18.236 -1.249,33.266 -11.969,32.867 -10.72,-0.399 -20.504,-17.66 -20.504,-17.66"
         style="fill:none;fill-opacity:1;stroke:#010101;stroke-width:8;stroke-linecap:round;stroke-linejoin:round;stroke-dasharray:none;stroke-opacity:1;paint-order:fill markers stroke"
         id="path17" /><path
         d="m 317.962,346.241 c -1.288,-9.803 1.15,-19.513 7,-29.178 -0.63,14.22 1.466,21.234 2.804,30.305 3.213,-14.265 5.19,-24.798 13.533,-32.589 0.956,7.947 2.46,49.907 1.067,49.907 -6.034,4.188 -61.12,6.642 -86.247,0.238 0,-8.497 -2.252,-15.546 0.078,-32.619 8.934,6.926 47.753,14.62 61.765,13.936"
         style="fill:#151d23;fill-opacity:1;stroke-width:11;stroke-linecap:round;stroke-linejoin:round;paint-order:fill markers stroke"
         id="path18" /><ellipse
         cx="376.082"
         cy="166.724"
         rx="10.786"
         ry="13.262"
         style="fill:#151d23;fill-opacity:1;stroke:none;stroke-width:11.7577;stroke-linecap:round;stroke-linejoin:round;stroke-dasharray:none;stroke-opacity:1;paint-order:fill markers stroke"
         transform="rotate(23.217)"
         id="ellipse18" /><ellipse
         cx="305.043"
         cy="304.14499"
         rx="9.5900002"
         ry="11.79"
         style="fill:#151d23;fill-opacity:1;stroke:none;stroke-width:10.4533;stroke-linecap:round;stroke-linejoin:round;stroke-dasharray:none;stroke-opacity:1;paint-order:fill markers stroke"
         id="ellipse19" /><ellipse
         cx="326.245"
         cy="303.40799"
         rx="7.3390002"
         ry="9.0229998"
         style="fill:#151d23;fill-opacity:1;stroke:none;stroke-width:8;stroke-linecap:round;stroke-linejoin:round;stroke-dasharray:none;stroke-opacity:1;paint-order:fill markers stroke"
         id="ellipse20" /><path
         d="m 69.017,506.088 163.407,-16.033 134.928,10.592 c 0,0 21.616,7.4 28.928,17.632 7.311,10.233 8.852,23.286 9.974,43.73 1.123,20.444 2.09,80.725 19.08,120.274 l -202.122,2.395 c 5.946,-13.626 11.506,-27.412 12.983,-42.9 -6.285,-12.358 -12.04,-24.76 -14.073,-37.474 -40.875,13.005 -83.566,23.057 -127.965,21.969 C 67.041,602.606 73.914,549.198 69.017,506.088"
         style="fill:#3b484f;fill-opacity:1;stroke-width:8;stroke-linecap:round;stroke-linejoin:round;paint-order:fill markers stroke"
         id="path20" /><path
         d="m 106.173,601.297 c -1.192,13.578 -1.96,16.342 -4.77,21.28 -6.202,-5.717 -9.574,-8.397 -11.735,-19.417"
         style="fill:#ffffff;fill-opacity:1;stroke:#2559a8;stroke-width:6;stroke-linecap:round;stroke-linejoin:round;stroke-dasharray:none;stroke-opacity:1;paint-order:fill markers stroke"
         id="path21" /><path
         d="m 104.725,621.866 c 0.476,-0.89 1.318,-8.265 1.872,-11.502 0.554,-3.237 1.145,-6.04 1.315,-6.229 0.371,-0.413 113.113,-7.626 113.52,-7.266 0.608,0.537 -21.771,11.379 -33.24,14.163 -19.174,4.653 -50.646,8.56 -79.381,11.879 -4.686,0.541 -4.905,0.485 -4.086,-1.045"
         style="fill:#2a3742;fill-opacity:1;stroke:none;stroke-width:5.09665;stroke-linecap:round;stroke-linejoin:round;stroke-dasharray:none;stroke-opacity:1;paint-order:fill markers stroke"
         id="path22" /><path
         d="m 79.026,600.554 c 4.109,9.159 8.506,20.624 16.615,27.783 45.353,-4.365 89.674,-10.563 128.562,-26.42 3.08,13.59 6.128,27.26 10.623,37.315 1.018,27.387 -5.417,32.413 -9.806,43.58"
         style="fill:none;fill-opacity:1;stroke:#000000;stroke-width:11;stroke-linecap:round;stroke-linejoin:round;stroke-dasharray:none;stroke-opacity:1;paint-order:stroke fill markers"
         id="path23" /><path
         d="m 259.653,598.439 c -1.982,-0.518 -4.208,-1.138 -4.947,-1.378 -1.996,-0.647 -4.224,-1.89 -4.404,-2.457 -0.087,-0.274 -0.02,-1.23 0.149,-2.126 0.263,-1.393 0.247,-1.808 -0.11,-2.9 -0.411,-1.257 -0.406,-1.314 0.462,-4.881 2.779,-11.424 4.161,-21.684 4.388,-32.576 0.19,-9.108 -0.43,-16.195 -1.93,-22.052 l -0.465,-1.811 1.116,-0.153 c 1.528,-0.21 3.613,-1.24 5.612,-2.771 l 1.675,-1.284 1.31,1.466 c 1.846,2.063 3.515,4.959 4.399,7.629 1.29,3.897 1.564,6.767 1.68,17.555 0.15,13.69 0.701,17.686 2.698,19.52 0.327,0.3 2.022,1.372 3.766,2.382 2.887,1.671 8.608,5.374 10.13,6.556 l 0.616,0.48 -1.3,0.657 c -3.621,1.836 -7.349,2.972 -12.09,3.687 -3.72,0.561 -4.917,1.16 -5.894,2.951 -0.304,0.557 -1.08,3.43 -1.745,6.457 -0.66,3 -1.27,5.575 -1.356,5.722 -0.103,0.178 -1.38,-0.05 -3.76,-0.673"
         style="fill:#ffffff;fill-opacity:1;stroke:none;stroke-width:1.52199;stroke-linecap:round;stroke-linejoin:round;stroke-dasharray:none;stroke-opacity:1;paint-order:stroke fill markers"
         id="path24" /><path
         d="m 247.42,576.266 c 14.545,2.38 29.11,4.614 44.092,3.505 l -20.029,13.101 -3.712,12.935 -23.523,-7.093 z"
         style="fill:#b6c4d4;fill-opacity:1;stroke-width:8;stroke-linecap:round;stroke-linejoin:round;paint-order:fill markers stroke"
         id="path25" /><path
         d="m 404.615,377.187 c 0,0 1.341,4.037 13.684,10.109 5.264,2.59 14.6,1.227 18.939,3.274 4.663,2.202 6.034,10.2 13.382,15.336 6.578,4.597 7.674,-1.698 14.443,1.894 4.142,2.199 1.904,4.882 6.766,7.782 2.619,1.56 12.54,0.685 12.54,0.685 l -1.953,12.661 -6.6,6.226 c 0.133,44.77 4.63,96.74 -8.966,119.776 -13.596,23.038 -32.724,26.298 -55.304,29.896 L 398.743,519.89 c 5.192,-12.597 8.77,-30.036 12.908,-45.792 0.838,26.731 -0.346,58.027 7.959,78.89 33.25,-23.786 23.68,-71.137 28.869,-116.465 -5.465,-1.876 -14.152,-4.111 -13.214,-13.908 -10.488,3.81 -19.984,-7.756 -26.58,-18.607 1.388,-8.441 -1.814,-17.717 -4.07,-26.82 M 341.891,236.093 c 21.875,4.037 43.035,9.854 68.937,26.282 l 2.013,53.652 c -5.825,-29.143 -31.382,-57.729 -70.95,-79.934 m 14.931,89.513 17.558,-1.44 5.04,13.815 13.996,3.104 -7.136,10.362 5.62,8.368 13.447,-6.172 -7.719,13.616 -0.03,4.156 z m -122.13,-6.642 c 12.71,-23.087 18.693,-24.535 30.84,-30.68 l -42.164,57.513 -8.43,8.78 -1.084,-15.744 6.315,-0.874 5.76,-8.934 c 0,0 -5.433,-7.04 -4.494,-8.92 0.94,-1.881 13.257,-1.14 13.257,-1.14"
         style="fill:#151d23;fill-opacity:1;stroke-width:8;stroke-linecap:round;stroke-linejoin:round;paint-order:fill markers stroke"
         id="path26" /><path
         d="m 292.701,241.686 c -55.18,12.243 -101.2,65.325 -111.484,89.767 -71.787,-95.908 -31.55,-233.629 6.955,-232.427 38.504,1.201 57.857,102.44 104.53,142.66"
         style="color:#000000;fill:#252e33;stroke-linecap:round;stroke-linejoin:round;-inkscape-stroke:none;paint-order:fill markers stroke"
         id="path27" /><path
         d="m 228.187,270.28 c -9.941,6.389 -30.49,26.834 -40.831,42.801 -9.739,0 -28.58,-63.565 -30.89,-81.363 -7.795,-60.083 17.055,-113.214 27.754,-115.632 10.699,-2.418 18.312,13.247 23.029,37.835 3.966,20.677 2.79,44.512 6.208,63.645 6.888,38.565 9.888,45.267 14.73,52.714"
         style="fill:#ffffff;fill-opacity:1;stroke-width:11;stroke-linecap:round;stroke-linejoin:round;paint-order:fill markers stroke"
         id="path28" /><path
         d="m 183.724,336.096 c -20.924,-69.33 -0.46,-107.36 19.592,-59.924"
         style="fill:none;fill-opacity:1;stroke:#3479d7;stroke-width:8;stroke-linecap:round;stroke-linejoin:round;stroke-dasharray:none;stroke-opacity:1;paint-order:fill markers stroke"
         transform="translate(7.056,-78.93)"
         id="path29" /><path
         d="m 178.865,333.75 c 3.433,11.99 8.094,24.93 14.198,38.545 a 4.0002836,4.0002836 0 1 0 7.3,-3.274 c -8.287,-18.487 -13.82,-35.64 -17.181,-50.681 0,0 -4.312,15.47 -4.317,15.41"
         style="color:#000000;fill:#e75049;fill-opacity:1;stroke-linecap:round;stroke-linejoin:round;-inkscape-stroke:none;paint-order:fill markers stroke"
         transform="translate(7.056,-78.93)"
         id="path30" /><path
         d="m 188.344,93.528 c -12.93,-0.403 -23.839,10.023 -32.383,25.11 -8.544,15.087 -15.057,35.763 -18.082,59.49 -6.05,47.455 1.99,107.261 38.936,156.621 a 5.5,5.5 0 0 0 9.472,-1.164 c 4.557,-10.83 18.344,-30.114 37.531,-47.516 19.188,-17.402 43.81,-33.186 70.075,-39.013 a 5.5,5.5 0 0 0 2.398,-9.537 c -21.892,-18.866 -38.465,-53.674 -54.014,-84.286 -7.774,-15.305 -15.325,-29.55 -23.742,-40.431 -8.416,-10.881 -18.173,-18.899 -30.191,-19.274 M 188,104.523 c 7.234,0.225 14.334,5.313 21.834,15.01 7.5,9.695 14.924,23.5 22.635,38.68 13.871,27.31 28.623,59.02 49.469,80.679 -25.067,7.676 -47.58,22.767 -65.51,39.029 -16.41,14.883 -28.682,30.365 -35.885,43.014 -30.471,-45.13 -37.206,-98.635 -31.752,-141.416 2.874,-22.542 9.154,-42.064 16.74,-55.46 7.586,-13.394 16.147,-19.734 22.47,-19.536"
         style="color:#000000;fill:#000000;stroke-linecap:round;stroke-linejoin:round;-inkscape-stroke:none;paint-order:fill markers stroke"
         id="path31" /><path
         d="m 479.667,398.048 c -1.29,-0.5 -5.836,-0.24 -7.652,-2.682 -1.864,-2.505 -0.99,-7.728 -1.66,-9.305 -1.518,-3.578 -2.037,-3.25 -5.787,-7.745 -3.002,-3.597 -9.995,-1.843 -11.984,-4.022 -4.082,-4.473 -2.182,-19.878 -6.493,-23.274 -5.394,-4.248 -11.12,-0.585 -14.158,-4.181 -20.696,-24.499 -21.549,-50.514 -20.79,-82.841 -20.13,-16.786 -60.156,-30.83 -89.442,-27.343 4.674,-83.555 24.583,-155.918 72.315,-151.263 47.732,4.655 77.882,254.985 85.651,312.656"
         style="color:#000000;fill:#252e33;stroke-linecap:round;stroke-linejoin:round;-inkscape-stroke:none;paint-order:fill markers stroke"
         id="path32" /><path
         d="m 388.25,100.38 c 34.628,-1.988 22.35,163.035 22.35,163.035 -29.391,-18.712 -52.68,-25.06 -75.598,-26.113 -3.41,-45.575 18.622,-134.933 53.249,-136.922"
         style="fill:#ffffff;fill-opacity:1;stroke-width:8;stroke-linecap:round;stroke-linejoin:round;paint-order:fill markers stroke"
         id="path33" /><path
         d="m 351.516,317.592 c -1.842,-7.82 -2.412,-16.094 -2.086,-24.365 0.79,-19.981 6.814,-39.936 12.79,-53.373 10.279,-23.113 26.83,-19.44 27.65,-5.473 0.892,15.155 -0.044,40.856 2.186,69.99 0.737,9.623 1.82,19.62 3.427,29.737"
         style="fill:none;fill-opacity:1;stroke:#3479d7;stroke-width:8;stroke-linecap:round;stroke-linejoin:round;stroke-dasharray:none;stroke-opacity:1;paint-order:fill markers stroke"
         transform="translate(7.056,-78.93)"
         id="path34" /><path
         d="m 386.834,280.785 c 0.518,16.415 1.697,34.944 4.719,53.951 a 4,4 0 0 0 7.9,-1.256 c -2.269,-14.273 -3.482,-28.348 -4.153,-41.476 0.009,0.15 -8.466,-11.219 -8.466,-11.219 m -41.019,6.455 c -0.911,10.447 -0.56,21.137 1.828,31.27 a 4.0002583,4.0002583 0 0 0 7.787,-1.836 c -2.816,-11.955 -2.506,-25.326 -0.48,-38.05 0,0 -8.944,8.625 -9.135,8.617"
         style="color:#000000;fill:#e75049;stroke-linecap:round;stroke-linejoin:round;-inkscape-stroke:none;paint-order:fill markers stroke"
         transform="translate(7.056,-78.93)"
         id="path35" /><path
         d="m 383.285,229.808 c 23.6,-49.8 28.695,-85.746 28.695,-85.746 0,0 2.62,26.85 2.938,51.236 0.317,24.386 -5.722,67.719 -5.722,67.719 -21.241,-6.13 -54.029,-21.55 -76.315,-24.012 l 0.008,-7.976 c 14.733,-1.45 32.622,-4.028 50.396,-1.221"
         style="fill:#1b222c;fill-opacity:0.334218;stroke-width:8;stroke-linecap:round;stroke-linejoin:round;paint-order:fill markers stroke"
         id="path36" /><path
         d="m 401.974,114.195 c 18.853,30.973 8.301,99.09 9.2,151.186"
         style="fill:none;fill-opacity:1;stroke:#000000;stroke-width:11;stroke-linecap:round;stroke-linejoin:round;stroke-dasharray:none;stroke-opacity:1;paint-order:fill markers stroke"
         id="path37" /><path
         d="m 423.964,126.16 c 28.953,80.343 49.263,191.578 51.498,269.93 0,0 -6.59,-12.205 -12.386,-17.044 -3.77,-3.148 -6.105,0.46 -10.33,-4.866 -3.395,-4.277 -5.2,-17.788 -8.406,-21.03 -5.274,-5.334 -10.404,-0.158 -12.727,-2.893 -8.194,-9.648 -5.522,-14.111 -5.522,-14.111 l 23.298,-0.448 z"
         style="fill:#151d23;fill-opacity:1;stroke-width:8;stroke-linecap:round;stroke-linejoin:round;paint-order:fill markers stroke"
         id="path38" /><path
         d="m 389.613,79.689 c -11.357,0.06 -21.563,4.237 -29.96,11.453 -9.597,8.247 -17.05,20.214 -23.026,34.705 -11.952,28.982 -18.062,68.376 -20.418,110.5 a 5.5,5.5 0 0 0 6.143,5.77 c 26.136,-3.112 64.089,9.82 83.299,24.68 -0.618,31.224 0.875,58.487 22.082,83.59 1.606,1.902 3.922,2.997 5.763,3.4 1.841,0.4 3.3,0.365 4.488,0.396 2.377,0.062 3.353,0.094 4.704,1.158 -0.665,-0.524 -0.047,-0.058 0.322,1.437 0.37,1.496 0.666,3.723 0.951,6.123 0.285,2.4 0.567,4.983 1.12,7.518 0.552,2.535 1.217,5.146 3.44,7.582 1.828,2.002 3.806,2.432 5.264,2.727 1.458,0.295 2.695,0.378 3.758,0.505 2.127,0.255 2.928,0.758 2.8,0.606 1.998,2.394 3.248,3.646 3.766,4.256 0.432,0.507 0.596,0.872 0.985,1.76 0.02,0.097 0.04,0.132 0.049,0.275 0.031,0.572 0.046,1.481 0.103,2.533 0.114,2.104 0.086,4.933 2.356,7.985 2.275,3.059 5.32,3.775 7.365,4.181 1.023,0.203 1.903,0.307 2.494,0.385 0.591,0.078 1.059,0.288 0.217,-0.04 a 5.5,5.5 0 0 0 7.44,-5.86 c -3.87,-28.725 -13.364,-105.898 -27.903,-176.583 -7.27,-35.342 -15.776,-69.058 -25.64,-94.613 C 426.642,113.341 421.4,102.599 415.524,94.554 409.647,86.508 402.859,80.729 394.551,79.919 a 48,48 0 0 0 -4.938,-0.23 m -3.654,11.16 c 2.39,-0.243 4.892,-0.24 7.524,0.017 3.624,0.354 8.22,3.415 13.158,10.176 4.938,6.76 9.944,16.79 14.672,29.037 9.455,24.494 17.921,57.836 25.127,92.867 12.31,59.85 20.17,119.04 24.877,154.7 -0.72,-0.787 -1.328,-1.419 -2.526,-2.854 -3.128,-3.75 -7.326,-4.168 -9.943,-4.48 -1.084,-0.13 -1.819,-0.218 -2.39,-0.305 -0.105,-0.251 -0.342,-0.61 -0.63,-1.93 -0.374,-1.717 -0.654,-4.038 -0.943,-6.472 -0.29,-2.434 -0.581,-4.976 -1.195,-7.463 -0.614,-2.487 -1.375,-5.22 -4.196,-7.442 -4.044,-3.184 -8.628,-3.446 -11.222,-3.513 -1.238,-0.033 -2.02,-0.09 -2.319,-0.143 -19.305,-23.014 -20.063,-46.87 -19.31,-78.918 a 5.5,5.5 0 0 0 -1.977,-4.353 c -20.248,-16.884 -56.548,-30.188 -86.976,-28.903 2.571,-39.062 8.56,-75.253 19.107,-100.828 5.552,-13.462 12.318,-23.936 20.025,-30.559 5.78,-4.967 11.965,-7.907 19.137,-8.634"
         style="color:#000000;fill:#000000;stroke-linecap:round;stroke-linejoin:round;-inkscape-stroke:none;paint-order:fill markers stroke"
         id="path39" /><path
         d="m 231.947,268.284 c -13.504,-25.517 -18.653,-73.052 -21.48,-106.183 -1.008,-11.83 -8.22,-31.322 -12.409,-37.015"
         style="fill:none;fill-opacity:1;stroke:#000000;stroke-width:8;stroke-linecap:round;stroke-linejoin:round;stroke-dasharray:none;stroke-opacity:1;paint-order:fill markers stroke"
         id="path40" /><path
         d="m 201.138,277.726 c -10.92,-50.778 -1.72,-101.557 -1.173,-152.335 0,0 11.434,34.193 11.751,58.58 0.318,24.386 16.427,86.443 16.427,86.443 -21.486,18.843 -37.064,39.423 -48.579,61.198 l -5.444,-9.37 z"
         style="fill:#1b222c;fill-opacity:0.334218;stroke-width:8;stroke-linecap:round;stroke-linejoin:round;paint-order:fill markers stroke"
         id="path41" /><path
         d="m 269.41,602.919 c 78.988,-12.824 106.276,-45.132 133.865,-72.64 5.648,47.238 4.384,108.521 18.716,151.812 -17.32,1.139 -39.617,1.567 -62.788,1.87 -0.918,-9.68 -1.72,-30.556 -3.451,-45.927 -33.53,6.61 -67.843,9.295 -102.202,11.756 z"
         style="fill:#2a3742;fill-opacity:1;stroke-width:8;stroke-linecap:round;stroke-linejoin:round;paint-order:fill markers stroke"
         id="path42" /><path
         d="m 414.575,604.444 c 40.308,-12.887 57.159,-4.387 67.597,9.96 l -7.46,12.022 1.484,51.298 -50.665,-0.996 z"
         style="fill:#252e33;fill-opacity:1;stroke-width:8;stroke-linecap:round;stroke-linejoin:round;paint-order:fill markers stroke"
         id="path43" /><path
         d="m 178.803,340.303 c 36.9,-86.5 153.34,-138.524 231.474,-76.338"
         style="fill:none;fill-opacity:1;stroke:#000000;stroke-width:11;stroke-dasharray:none;stroke-opacity:1"
         id="path44" /><path
         d="m 209.065,373.957 c 0,0 -1.978,3.112 5.427,-14.268 1.437,-3.372 7.59,-2.365 11.395,-8.09 2.397,-3.609 -2.23,-10.681 0.529,-14.92 2.284,-3.508 7.513,-1.513 10.155,-5.076 2.656,-3.582 1.967,-7.312 4.603,-11.029 2.343,-3.304 5.945,-3.215 8.327,-6.385 10.277,-13.68 18.693,-28.44 18.693,-28.44 -17.107,32.705 -17.102,60.308 -8.571,85.368 l 13.803,-13.198 6.872,15.996 c 20.347,0.203 40.624,0.736 62.284,-5.189 2.332,-19.678 0.616,-46.873 0.01,-72.007 0,0 0.983,2.815 11.395,20.3 1.368,2.296 4.639,-0.656 6.94,3.059 1.445,2.334 -2.552,7.489 -0.868,10.315 2.213,3.716 11.976,5.546 14.626,9.73 1.387,2.189 -4.167,6.296 -2.803,8.576 2.093,3.5 10.712,3.83 12.934,7.33 1.955,3.082 1.433,7.212 3.16,10.29 1.968,3.508 10.971,5.576 12.758,8.815 7.55,13.683 5.97,25.468 5.97,25.468 7.04,3.91 15.88,4.223 26.075,1.822 0,0 1.104,13.905 8.542,20.61 3.015,2.719 11.584,-1.725 17.99,-1.68 4.066,0.027 2.885,6.31 5.83,8.18 4.551,2.892 7.875,2.035 11.513,1.421 3.637,-0.613 9.453,-4.649 9.453,-4.649 3.696,-7.307 5.356,-15.498 -1.028,-26.235 l -9.769,-2.729"
         style="fill:none;fill-opacity:1;stroke:#000000;stroke-width:11;stroke-linecap:round;stroke-linejoin:round;stroke-dasharray:none;stroke-opacity:1;paint-order:stroke fill markers"
         id="path45" /><path
         d="m 33.977,350.827 173.684,-12.793 19.68,253.883 -173.683,11.809 z"
         style="fill:#eab793;fill-opacity:1;stroke:#000000;stroke-width:11;stroke-linecap:round;stroke-linejoin:round;stroke-opacity:1;paint-order:fill markers stroke"
         id="path46" /><path
         d="m 58.578,376.904 127.434,-9.348 15.252,199.268 -128.417,7.872 z"
         style="fill:#ffffff;fill-opacity:1;stroke:#000000;stroke-width:11;stroke-linecap:round;stroke-linejoin:round;stroke-opacity:1;paint-order:fill markers stroke"
         id="path47" /><path
         d="m 53.441,584.505 142.355,-106.46 -0.26,-10.747 23.176,-20.17 5.871,144.056 -168.543,10.294 z"
         style="fill:#1b222c;fill-opacity:0.143396;stroke-width:8;stroke-linecap:round;stroke-linejoin:round;paint-order:fill markers stroke"
         id="path48" /><path
         d="m 217.858,381.739 c 9.36,-14.889 49.548,-12.508 61.5,-1.547 M 223.065,336.54 c 7.04,-5.22 29.436,-10.961 45.642,-6.963 m 58.519,-1.092 c 10.908,-4.058 37.171,-0.13 47.962,8.123"
         style="fill:none;fill-opacity:1;stroke:#000000;stroke-width:11;stroke-linecap:round;stroke-linejoin:round;stroke-dasharray:none;stroke-opacity:1;paint-order:fill markers stroke"
         id="path49" /><path
         d="m 409.84,602.539 28.087,-3.984 c 19.32,24.338 11.415,50.946 10.957,76.932 l -25.432,0.664 z"
         style="fill:#151d23;fill-opacity:1;stroke-width:8;stroke-linecap:round;stroke-linejoin:round;paint-order:fill markers stroke"
         id="path50" /><path
         d="m 413.864,597.097 c -0.094,-1.422 -0.172,-3.389 -0.172,-4.37 -0.001,-1.64 0.047,-1.796 0.595,-1.907 0.328,-0.066 1.73,-0.312 3.116,-0.548 5.852,-0.993 12.157,-2.592 17.997,-4.564 1.51,-0.51 2.84,-0.827 2.954,-0.704 0.224,0.242 2.151,7.049 2.03,7.17 -0.04,0.04 -1.8,0.366 -3.912,0.724 -7.043,1.193 -15.271,3.574 -20.353,5.89 -1.08,0.492 -1.991,0.895 -2.024,0.895 -0.033,0 -0.137,-1.163 -0.23,-2.586"
         style="fill:#3578d6;fill-opacity:1;stroke:none;stroke-width:1.59137;stroke-linecap:round;stroke-linejoin:round;stroke-dasharray:none;stroke-opacity:1;paint-order:fill markers stroke"
         id="path51" /><path
         d="m 421.407,589.514 a 123,123 0 0 0 13.993,-3.806 c 1.51,-0.51 2.84,-0.827 2.954,-0.704 0.224,0.242 2.151,7.049 2.03,7.17 -0.04,0.04 -1.8,0.366 -3.912,0.724 -5.623,0.952 -12.001,2.662 -16.93,4.491 0.07,-0.035 1.865,-7.875 1.865,-7.875"
         style="fill:#a03c3d;fill-opacity:1;stroke:none;stroke-width:1.59137;stroke-linecap:round;stroke-linejoin:round;stroke-dasharray:none;stroke-opacity:1;paint-order:fill markers stroke"
         id="path52" /><path
         d="m 406.95,392.584 a 5.5,5.5 0 0 0 -3.964,3.812 c -6.086,21.076 -15.94,36.316 -24.697,51.625 -8.757,15.31 -16.44,30.949 -16.438,51.52 a 5.5,5.5 0 0 0 2.885,4.838 c 12.236,6.612 18.471,-2.136 32.629,26.445 6.5,13.123 5.795,30.76 6.205,55.3 0.41,24.54 2.301,55.62 15.63,94.997 a 5.5,5.5 0 0 0 6.976,3.445 5.5,5.5 0 0 0 3.445,-6.973 c -8.65,-25.555 -12.241,-47.186 -13.82,-66 1.71,-1.662 5.926,-4.104 11.42,-5.806 5.88,-1.822 13.147,-3.026 20.367,-3.18 7.219,-0.154 14.396,0.758 20.117,2.848 4.697,1.716 8.23,4.152 10.6,7.297 -1.329,2.023 -3.49,3.505 -6.579,4.921 a 58,58 0 0 0 -1.664,-2.193 5.5,5.5 0 0 0 -3.69,-2.027 5.5,5.5 0 0 0 -4.042,1.176 5.5,5.5 0 0 0 -0.85,7.732 c 9.562,11.927 13.572,27.819 8.67,51.713 a 5.5,5.5 0 0 0 4.281,6.494 5.5,5.5 0 0 0 6.495,-4.283 c 4.043,-19.708 2.453,-36.008 -3.61,-49.096 5.27,-2.611 10.39,-6.53 12.535,-13.185 a 5.5,5.5 0 0 0 -0.365,-4.243 c -3.796,-7.23 -10.53,-11.907 -18.006,-14.638 -6.957,-2.542 -14.702,-3.534 -22.402,-3.52 l -2.934,-10.492 c 9.02,-4.717 17.957,-11.566 24.332,-21.508 5.072,-7.91 7.595,-18.9 9.201,-31.476 1.606,-12.576 2.099,-26.705 2.047,-40.342 -0.102,-27.275 -2.431,-52.925 -2.773,-58.408 a 5.5,5.5 0 0 0 -5.832,-5.149 5.5,5.5 0 0 0 -5.147,5.832 c 0.398,6.37 2.652,31.09 2.752,57.768 0.05,13.338 -0.448,27.081 -1.959,38.904 -1.51,11.823 -4.23,21.758 -7.548,26.934 -11.692,18.232 -36.611,24.276 -46.706,26.043 -0.165,-21.152 0.238,-38.573 -7.289,-53.768 -13.433,-27.118 -27.112,-28.445 -34.193,-30.332 0.876,-15.911 6.914,-28.326 14.809,-42.127 8.54,-14.929 19.145,-31.275 25.716,-54.033 a 5.5,5.5 0 0 0 -3.757,-6.81 5.5,5.5 0 0 0 -2.846,-0.055 m 29.02,192.996 1.885,6.74 c -4.902,0.626 -9.611,1.633 -13.89,2.959 -3.271,1.014 -6.288,2.167 -8.989,3.559 a 419,419 0 0 1 -0.283,-7.922 c 4.432,-0.589 12.236,-1.99 21.277,-5.336"
         style="color:#000000;fill:#000000;fill-opacity:0.996078;stroke-linecap:round;stroke-linejoin:round;-inkscape-stroke:none;paint-order:stroke fill markers"
         id="path53" /><path
         d="m 214.381,379.208 c -3.584,64.581 2.784,86.238 32.384,105.466 31.638,20.552 79.43,12.884 125.773,16.676"
         style="fill:none;fill-opacity:1;stroke:#000000;stroke-width:11;stroke-linecap:round;stroke-linejoin:round;stroke-dasharray:none;stroke-opacity:1;paint-order:stroke fill markers"
         id="path54" /><path
         d="m 250.04,526.469 c 7.182,25.37 1.285,47.288 -5.131,69.677"
         style="fill:none;fill-opacity:1;stroke:#242d32;stroke-width:11;stroke-linecap:round;stroke-linejoin:round;stroke-dasharray:none;stroke-opacity:1;paint-order:stroke fill markers"
         id="path55" /><path
         d="m 254.862,627.197 c -0.126,-0.372 -0.932,-7.144 -1.486,-12.487 -0.29,-2.796 -0.565,-5.406 -0.61,-5.8 l -0.083,-0.719 2.052,0.556 c 1.129,0.306 2.923,0.772 3.988,1.036 1.065,0.264 2.031,0.54 2.148,0.612 0.379,0.234 -2.227,9.287 -3.695,12.84 -0.724,1.752 -1.976,4.181 -2.155,4.181 -0.047,0 -0.118,-0.099 -0.159,-0.22"
         style="fill:#ffffff;fill-opacity:1;stroke:none;stroke-width:1.05155;stroke-linecap:round;stroke-linejoin:round;stroke-dasharray:none;stroke-opacity:1;paint-order:stroke fill markers"
         id="path56" /><path
         d="m 249.903,514.638 c 7.832,-11.402 13.782,-6.947 21.687,3.434 7.905,10.381 10.854,42.827 10.854,42.827 18.517,10.05 22.613,17.824 32.882,26.572 l 9.76,-11.928 -11.386,-7.229 c -11.622,10.993 -19.111,25.33 -35.965,28.736 -3.346,15.702 -11.363,35.056 -14.135,39.114 -2.772,4.058 -8.899,2.095 -10.51,-2.116 -1.611,-4.211 -3.758,-28.907 -3.758,-28.907"
         style="fill:none;fill-opacity:1;stroke:#3478d5;stroke-width:6;stroke-linecap:round;stroke-linejoin:round;stroke-dasharray:none;stroke-opacity:1;paint-order:stroke fill markers"
         id="path57" /><path
         d="m 227.311,583.727 c -11.173,-1.681 -17.696,-5.45 -22.5,-12.998 -3.617,-5.686 -4.76,-10.118 -4.423,-17.159 0.248,-5.201 0.664,-6.892 2.786,-11.34 3.236,-6.784 7.91,-11.95 12.66,-13.993 4.33,-1.863 15.63,-3.278 20.388,-2.554 l 9.289,0.5 1.188,5.059 c 2.66,11.332 1.883,30.035 -1.942,46.687 l -1.494,6.501 -9.22,-0.087 c -1.77,-0.017 -4.8,-0.326 -6.732,-0.617"
         style="fill:#ffe8e0;fill-opacity:1;stroke:none;stroke-width:7.72893;stroke-linecap:round;stroke-linejoin:round;stroke-dasharray:none;stroke-opacity:1;paint-order:stroke fill markers"
         id="path58" /><path
         d="m 196.452,544.316 6.423,-2.584 c 4.968,26.708 19.929,41.682 39.882,36.998 2.6,3.956 -3.035,12.707 -0.826,16.489 l -45.48,-22.113 z"
         style="fill:#e0b7aa;fill-opacity:1;stroke-width:8;stroke-linecap:round;stroke-linejoin:round;paint-order:fill markers stroke"
         id="path59" /><path
         d="m 306.228,499.484 c 0,0 -43.203,0.586 -51.707,0.888 -8.505,0.302 -15.687,12.53 -12.463,17.332 17.407,25.931 -0.054,80.134 -1.215,79.347 0,0 1.326,18.82 4.797,34.88 3.471,16.059 11.072,17.53 24.298,16.38 13.226,-1.149 94.88,-25.325 121.87,-66.128"
         style="fill:none;fill-opacity:1;stroke:#000000;stroke-width:11;stroke-linecap:round;stroke-linejoin:round;stroke-dasharray:none;stroke-opacity:1;paint-order:stroke fill markers"
         id="path60" /><path
         d="m 258.738,631.653 c 5.684,-5.714 9.572,-28.474 12.58,-41.872 10.46,-0.877 17.79,-5.228 23.798,-9.284 -4.382,-5.035 -12.231,-9.955 -19.924,-14.327 -3.604,-16.592 -0.895,-33.828 -15.466,-50.14 -1.92,4.415 -5.828,6.856 -7.748,6.676 -15.719,-1.513 -35.534,-3.924 -46.01,8.16 -10.477,12.083 -15.511,30.51 -3.192,47.137 12.319,16.627 37.509,13.794 42.228,13.16 -3.092,11.263 10.93,11.402 20.142,14.666"
         style="fill:none;fill-opacity:1;stroke:#000000;stroke-width:11;stroke-linecap:round;stroke-linejoin:round;stroke-dasharray:none;stroke-opacity:1;paint-order:stroke fill markers"
         id="path61" /><path
         d="m 85.18,557.462 a 31.18,35.002 0 0 1 -31.179,35.002 31.18,35.002 0 0 1 -31.18,-35.002 31.18,35.002 0 0 1 31.18,-35.002 31.18,35.002 0 0 1 31.18,35.002"
         style="color:#000000;fill:#ffe8e0;stroke-linecap:round;stroke-linejoin:round;-inkscape-stroke:none;paint-order:fill markers stroke"
         id="path62" /><path
         d="m 31.467,575.697 c 30.216,9.667 46.99,-9.74 33.807,-47.846 12.98,8.876 20.94,22.08 23.006,40.364 -7.445,10.094 -14.132,21.168 -27.738,23.288 -14.966,0.839 -20.764,-8.939 -29.075,-15.806"
         style="fill:#e0b7aa;fill-opacity:1;stroke-width:8;stroke-linecap:round;stroke-linejoin:round;paint-order:fill markers stroke"
         id="path63" /><path
         d="m 54.002,516.959 c -20.557,0 -36.68,18.525 -36.68,40.504 0,21.979 16.123,40.502 36.68,40.502 20.557,0 36.68,-18.523 36.68,-40.502 0,-21.979 -16.123,-40.504 -36.68,-40.504 m 0,11 c 13.883,0 25.68,12.82 25.68,29.504 0,16.683 -11.797,29.502 -25.68,29.502 -13.884,0 -25.68,-12.819 -25.68,-29.502 0,-16.684 11.796,-29.504 25.68,-29.504"
         style="color:#000000;fill:#000000;stroke-linecap:round;stroke-linejoin:round;-inkscape-stroke:none;paint-order:fill markers stroke"
         id="path64" /><path
         d="m 226.784,491.507 h 24.945"
         style="fill:#ffffff;fill-opacity:1;stroke:#000000;stroke-width:11;stroke-linecap:round;stroke-linejoin:round;stroke-dasharray:none;stroke-opacity:1;paint-order:fill markers stroke"
         id="path65" /><path
         d="M 101.605,599.405 99.064,615.4"
         style="fill:#ffffff;fill-opacity:1;stroke:#000000;stroke-width:6;stroke-linecap:round;stroke-linejoin:round;stroke-dasharray:none;stroke-opacity:1;paint-order:fill markers stroke"
         id="path66" /><path
         d="m 224.778,485.288 c -0.075,-0.374 -0.304,-3.208 -0.508,-6.297 -0.204,-3.09 -0.462,-6.23 -0.573,-6.979 l -0.202,-1.361 1.478,1.872 c 2.289,2.901 7.09,7.738 10.477,10.552 l 3.071,2.554 -1.597,0.08 c -0.878,0.043 -3.94,0.12 -6.803,0.17 -4.972,0.086 -5.213,0.06 -5.343,-0.59"
         style="fill:#000000;fill-opacity:1;stroke:#000000;stroke-width:2.04245;stroke-linecap:round;stroke-linejoin:round;stroke-dasharray:none;stroke-opacity:1;paint-order:fill markers stroke"
         id="path67" /></g><g
       style="stroke:#000000;stroke-width:11;stroke-dasharray:none;stroke-opacity:1"
       id="g70"
       transform="matrix(0.55359028,0,0,0.55359028,3.3045056,-3.5857802)"><path
         d="m 288.101,371.696 c -1.263,18.011 -3.216,36.33 -0.186,52.433 4.99,3.057 11.62,1.31 17.353,0"
         style="fill:none;stroke:#000000;stroke-width:11;stroke-linecap:round;stroke-linejoin:round;stroke-dasharray:none;stroke-opacity:1;paint-order:fill markers stroke"
         transform="matrix(0.194,0,0,0.194,49.003,-7.977)"
         id="path68" /><path
         d="m 276.346,388.49 25.937,-3.546 v 44.596 m 12.875,-60.27 c 8.154,-0.498 16.392,-1.737 24.07,2.052 -1.237,6.042 -6.248,11.612 -11.382,17.167 10.13,19.04 8.393,32.58 -1.866,42.17"
         style="fill:none;stroke:#000000;stroke-width:11;stroke-linecap:round;stroke-linejoin:round;stroke-dasharray:none;stroke-opacity:1;paint-order:fill markers stroke"
         transform="matrix(0.194,0,0,0.194,49.003,-7.977)"
         id="path69" /><path
         d="m 313.665,402.484 c 12.03,-0.927 24.423,-0.041 36.012,-3.172 m -65.307,64.375 c 2.612,0.186 30.414,-1.68 30.414,-1.68 m -24.817,2.053 2.986,50.194 m 18.473,-50.381 5.038,57.844 m -25.004,-41.424 20.525,-1.679 m -20.152,18.1 22.392,-2.8 m -25.75,22.579 26.683,-5.971 m 13.248,-50.194 22.018,-1.866 c -0.186,6.344 -0.766,11.942 -6.344,18.286 15.427,21.458 10.27,29.658 -3.546,32.28 m -12.314,-47.581 3.171,58.964"
         style="fill:none;stroke:#000000;stroke-width:11;stroke-linecap:round;stroke-linejoin:round;stroke-dasharray:none;stroke-opacity:1;paint-order:fill markers stroke"
         transform="matrix(0.194,0,0,0.194,49.003,-7.977)"
         id="path70" /></g></g></svg>
