<svg xmlns="http://www.w3.org/2000/svg" width="96" height="96" viewBox="0 0 25.4 25.4"><path d="M12.7.0C5.686.0.0 5.686.0 12.7s5.686 12.7 12.7 12.7 12.7-5.686 12.7-12.7S19.714.0 12.7.0m0 2.117c.365.0.703.03 1.058.066.086.008.18-.01.265.0.111.014.22.048.33.066.305.048.566.125.86.198.544.134 1.082.315 1.588.53.28.118.527.256.794.396q.002.03.0.066c.061.028.095.142.198.199.038.021.03.047.066.066.062.034.145.07.133.132-.017.085-.14.067-.199.133.008.122-.1.115-.132.198.019.053.124.069.132.132-.01.068-.158.063-.132.133.114.088.223.02.33.0.238-.03.45-.012.596-.133-.02-.112.211-.096.198-.198.061.044.139.087.199.132-.023.021-.04.055-.066.066q-.07.03-.133.066c-.059.038-.13.088-.198.133-.049.034-.148.198-.198.198-.062.0-.154-.079-.199-.066-.063.021-.06.107-.132.132-.14.051-.415-.077-.463.133.06.12.29.064.397.132a.65.65.0 01.198.264c.017.06.026.334.0.397-.066.17-.268.135-.463.133h-.132c-.328-.022-.646-.17-.794.066.01.18.04.306.0.463-.03.114-.205.232-.198.33.002.051.12.127.132.199.008.038-.017.096.0.132.055.104.167-.021.264.0.094.021.199.16.199.265.0.074-.02.193-.066.264-.093.14-.264.123-.397.199-.11.063-.133.221-.199.33-.07.12-.16.162-.132.331a.77.77.0 01-.397.397c-.057.026-.145.028-.198.066-.043.03-.073.13-.132.199-.074.082-.159.135-.199.198-.03.049-.034.13-.066.199-.047.088-.14.109-.198.198-.028.042-.037.143-.067.198-.067.123-.145.223-.132.331.01.102.126.105.132.199.006.05-.068.075-.066.132.002.08.06.135.066.198.015.157-.102.224-.132.331-.015.05.013.09.0.132-.025.079-.13.171-.132.265-.002.066.126.105.132.198.005.062-.079.14-.066.199.023.114.242.242.33.33.121.121.279.204.332.331.044.108.05.316.132.397.061.06.186.069.264.132.074.058.12.07.199.133.129.101.324.345.529.33.108-.02.21-.11.33-.132.126-.021.27-.077.398-.066.097.021.229.073.33.066.106-.021.21-.013.331-.066.21-.091.555-.242.86-.198.233.034.234.293.397.396.186.022.315-.036.463.0.112.028.254.177.264.265.011.091-.12.207-.132.265-.03.122.021.252.0.33-.017.062-.068.137-.066.199.0.055.075.192.132.264.07.09.18.17.265.265.154.178.223.36.33.595.028.06-.025.123.0.199-.046.355-.163.598-.396.992-.11.127-.267.238-.265.397-.008.38.216.624.199.992-.038.495.038.53.0.794.167.084.048.353.0.529-.072.21-.159.257-.199.397.113.049.272.029.397.0-.063.066-.134.133-.198.198-.48.479-1.025.943-1.588 1.323-1.092.738-2.307 1.299-3.638 1.588-.727.158-1.474.198-2.249.198q-.605.0-1.19-.066c-.311-.036-.624-.07-.927-.132-.599-.123-1.162-.376-1.72-.596-.02-.036-.07-.09-.065-.132.11-.047.316.157.396.0.04-.074-.053-.257.0-.33.039-.051.253-.052.331-.067.112-.021.267-.036.33-.066.07-.044.146-.2.133-.33-.006-.062-.083-.078-.132-.133-.04-.046.027-.088.0-.132-.05-.074-.177-.09-.198-.199.152-.03.375.128.595.066.104-.03.282-.233.33-.33.015-.03-.016-.094.0-.133.02-.038.06-.11.067-.132.014-.057-.013-.028.0-.066.038-.108.135-.188.198-.264.049-.06.154-.138.199-.199.05-.066.032-.073.066-.132.031-.193-.113-.36-.066-.53.05-.19.345-.31.529-.396.063-.03.145-.047.198-.066.127-.045.278-.09.397-.133.199-.072.233-.215.33-.397.047-.084.125-.202.133-.264.008-.055-.01-.067.0-.132.01-.062-.017-.127.0-.199a2 2 0 00.066-.397c0-.084-.064-.122-.066-.198-.015-.275.097-.247.198-.397.051-.074.097-.211.133-.265.171-.254.484-.342.463-.727-.008-.127-.106-.423-.199-.463-.053-.024-.12-.039-.198-.066-.25-.093-.467-.376-.728-.397h-.132c-.102.0-.216-.052-.33-.066-.073-.022-.223.02-.265.0-.066-.032-.08-.163-.133-.199-.042-.03-.132-.043-.198-.066-.104-.038-.144-.124-.265-.132-.038.0-.09.021-.132.0-.066-.021-.137-.028-.198-.066-.076-.047-.167-.067-.199-.133.07-.228-.152-.263-.198-.396-.021-.062.021-.21.0-.265-.028-.078-.112-.133-.199-.198a.8.8.0 00-.463-.199c-.097-.021-.214.021-.33.0-.123-.021-.304-.092-.397-.198-.09-.104-.12-.216-.199-.265-.074-.046-.147-.083-.198-.132-.023-.021-.045-.018-.066-.066-.038-.079-.113-.103-.066-.199-.085-.042-.042.081-.133.066-.082-.116-.144-.232-.33-.198-.085.021-.166.196-.265.198-.082.0-.157-.181-.265-.198-.082-.021-.207.077-.264.066-.091-.021-.116-.077-.199-.132-.06-.04-.164-.135-.198-.133-.106.0-.185.21-.33.133-.073-.091.15-.114.065-.199-.063-.061-.081.037-.132.066-.06.039-.133.043-.198.067-.146.055-.283.07-.397.132a.4.4.0 00-.199.198c-.048.09-.124.26-.198.265-.089.0-.118-.096-.198-.132-.244-.106-.395.061-.596.066-.186.0-.471-.288-.463-.463.006-.108.054-.264.066-.397.01-.106.13-.234.133-.331.002-.131-.246-.183-.331-.198-.199-.036-.435.088-.661.0-.043-.072.04-.127.066-.199.014-.038-.015-.088.0-.132.025-.068.166-.127.198-.199.023-.055-.023-.128.0-.198.028-.076.126-.143.132-.198.008-.072-.075-.152-.132-.199-.176.021-.295.016-.397.066-.228.104-.166.391-.397.463a2 2 0 01-.264.066c-.04.022-.09-.004-.133.0.004-.021-.004-.044.0-.066.01-.048.056-.084.067-.132.15-.688.383-1.354.661-1.984h.066c.08.02.129.125.199.132.194.021.236-.18.396-.265.165.024.247-.02.397.0.102.021.25.124.331.133.068.0.069-.075.132-.067.064.022.188.123.199.199.01.095-.094.226-.066.33.1.102.32.14.463.199.093-.078.014-.22.0-.33-.002-.05.006-.155.0-.2-.01-.075-.066-.132-.066-.198.0-.302.26-.41.463-.529.086-.05.188-.16.264-.198.108-.053.176-.016.265-.066.16-.091.272-.228.397-.331.057-.138-.006-.328.0-.463.057-.036.137.0.198.0.097-.021.143-.144.198-.199.032-.031.095-.034.133-.066.097-.076.114-.164.198-.198a.6.6.0 01.132-.066c.064-.021.163-.028.265-.066.066-.024.24-.039.265-.066.031-.032-.008-.15.0-.199.05-.239.381-.25.595-.33.148-.056.298-.229.463-.2-.032.115-.16.128-.132.266.036.192.263-.04.33-.067.13-.055.36-.135.53-.198.148-.053.404-.094.264-.265-.116-.02-.163.09-.264.133-.07.02-.073-.06-.133-.067-.057.0-.075.077-.132.067-.057-.022-.124-.129-.132-.199-.024-.178.126-.2.198-.33-.049-.161-.261-.07-.397-.133a.24.24.0 01.199-.198c.09-.022.342.017.397.066.031.027-.049.088.0.132.055.049.126.021.198.0.025-.12-.153-.054-.132-.132.144-.093.42-.043.595-.066a1.4 1.4.0 00.33-.133c.085-.048.11-.146.2-.066.025.087-.018.152-.067.199-.163.144-.336.296-.463.463.078.076.2.051.33.066.052.021.146-.01.2.0.063.021.147-.021.198.0.089.021.11.198.198.198.144.0.083-.169.0-.264.026-.1.102-.195.066-.265-.065-.131-.318.04-.33-.132-.008-.106.094-.118.132-.199-.017-.203.153-.212.132-.396-.01-.077-.08-.06-.132-.133-.028-.038-.035-.169-.066-.198-.11-.093-.318-.02-.331-.199-.006-.105.015-.217.0-.33-.015-.108-.105-.442-.198-.463-.119-.026-.19.198-.331.264a.8.8.0 01-.33.066c-.052-.02-.127-.033-.133-.132-.008-.09.099-.13.132-.198.008-.018-.004-.043.0-.067.154-.042.307-.095.463-.132.089-.02.175-.048.265-.066.063-.013.134.012.198.0a10.6 10.6.0 011.918-.198zm-4.3.992c-.067.386-.429.54-.86.529-.097.093-.013.268-.065.397-.045.108-.223.207-.331.198-.079.0-.199-.124-.199-.198.0-.091.145-.094.066-.199.003-.02.045-.045.067-.066.042-.027.089-.04.132-.066.383-.236.777-.409 1.19-.595m8.864.397c-.039.02-.032.045-.066.066-.08.049-.137.109-.198.132-.087.032-.186.054-.199.133-.01.065.069.07.066.132-.032.078-.049.103-.066.198.108.176.33-.038.463-.066.06-.021.1-.015.132-.066.036-.057.04-.118.067-.198.03-.09.142-.12.132-.199-.008-.078-.2-.143-.33-.132zM5.69 4.829c.1.08.241.255.066.33a1.1 1.1.0 01-.331.066c-.02.0-.048-.05-.066-.066.11-.106.217-.229.33-.33m.396.397c.051.0.073.128.133.132.057.0.098-.075.132-.066.089.023.15.198.066.264-.07.021-.081-.074-.132-.066-.144.026-.223.34-.33.33-.102-.02-.17-.256-.067-.33.002-.063-.004-.067.0-.132.032-.038.114-.139.198-.132m-.529.066c.03.0.056-.022.066.0-.014.112-.045.145-.132.198-.15.091-.282.203-.33.397-.015.057-.193.213-.265.198-.167-.036.094-.348.132-.396.042-.053.084-.071.132-.133.049-.06.086-.164.133-.198a.5.5.0 01.264-.066m14.354.33c.167-.02.254.164.33.265.064.083.228.207.331.265.06.031.133.102.199.132.137.061.39.261.397.397.002.067-.077.135-.067.198.104.021.197-.16.199-.264.194.275.361.566.53.86.078.138.19.254.264.396-.094.028-.118.042-.133.133-.02.118.046.31-.132.33-.112.022-.242-.096-.397-.132-.063-.021-.147.021-.198.0-.117-.038-.1-.194-.199-.265a1 1 0 00-.33-.132c-.058.0-.073.021-.133.0-.072-.021-.205.03-.264.0-.057-.036-.184-.15-.199-.198-.023-.079.194-.132.199-.199.005-.05-.056-.12-.066-.198-.008-.047.01-.1.0-.132-.015-.055-.112-.064-.199-.067h-.198c-.093.0-.28-.008-.397.0-.07.0-.133-.006-.199.0-.184.022-.319-.02-.463.0-.103.0-.3.088-.396.133-.05.023-.07.034-.133.066-.03.021-.094.05-.132.066-.06.027-.141.115-.198.132-.083.021-.181-.021-.331.0-.108.0-.263-.07-.265-.198-.002-.197.343-.096.53-.132.07-.022.113-.082.198-.133.04-.023.028-.04.066-.066.063-.044.188-.148.198-.198.008-.047-.006-.097.0-.133.008-.044.075-.073.133-.132.089-.089.154-.207.264-.264.074-.039.165-.071.199-.133.008-.067-.002-.069.0-.132a.3.3.0 01.132-.066c.114-.026.197.006.33.0.058.0.138.027.2.0.05-.034.08-.107.131-.132a.5.5.0 01.199-.067M21.1 6.88h-.264c-.093.0-.21-.049-.265.0.079.127.222.167.397.199a.4.4.0 00.133-.199M6.616 5.69h.198c.053.0.111-.022.132.0-.034.14-.353.116-.463.066.006-.053.065-.058.133-.066m-.463.264c-.093.067-.184.153-.331.199-.08.025-.184.022-.199-.067-.017-.11.127-.055.199-.066.093-.02.223-.062.33-.066zm13.758.0c-.07.023-.104.177.0.199.049-.03.079-.108.066-.199-.027-.03-.045-.021-.066.0m-.132.33c.002.12.023.229.0.332.067.13.23.022.264-.067.04-.22-.03-.292-.132-.264-.034.021-.097-.028-.132.0M2.249 11.246c.12.108.188.26.33.33.054.028.131.05.2.067.054.02.079-.017.131.0.113.038.242.092.331.132.136.06.28.263.397.33.006.068-.021.148.0.199.055.074.11.148.198.198.108.06.163.152.265.199.036.021.077-.021.132.0.14.042.21.234.331.198.078-.023.053-.122.066-.198.053-.057.116-.132.199-.132.13.0.15.202.198.33.028.072.113.123.132.199.032.131.028.517.0.595-.034.097-.184.092-.264.199-.038.05-.037.162-.066.198-.051.061-.095.073-.133.132a1 1 0 00-.066.133c-.063.135-.185.233-.132.396.021.066.132.12.132.199.0.093-.183.162-.198.264-.01.075.043.166.066.265.017.074.154.15.198.198.074.083.131.226.199.331.133.206.2.46.33.662.07.103.218.155.265.264.023.055-.021.148.0.199.076.171.424.378.595.463.08.04.19.023.265.066.112.063.34.232.397.33.05.09.04.322.066.464.032.186-.008.327.0.529.006.11.066.155.066.264.0.038.002.159.0.199-.002.131.01.263.0.397a1 1 0 000 .198c.006.066.062.073.066.132.005.062-.072.15-.066.199.015.133.107.208.132.33.021.098.08.347.066.464-.008.06-.057.128-.066.198-.006.055.008.081.0.132-.006.049.013.092.0.133l-.198-.133a11 11 0 01-1.588-1.323c-.064-.064-.135-.132-.198-.198a11 11 0 01-1.058-1.323c-.029-.042-.039-.09-.067-.132a10 10 0 01-.926-1.72c-.018-.044-.048-.088-.066-.132a10.6 10.6.0 01-.595-2.05 10.6 10.6.0 01-.198-1.92c0-.502.064-.97.132-1.454M6.35 12.37c.102-.046.083.118.0.133-.078.02-.076-.095.0-.133" class="ColorScheme-Text" style="color:#232629;fill:currentColor;fill-opacity:1;fill-rule:nonzero;stroke-width:2.11667"/></svg>