<?xml version="1.0" encoding="UTF-8" standalone="no"?>
<!-- Created with Inkscape (http://www.inkscape.org/) -->

<svg
   width="96"
   height="96"
   viewBox="0 0 25.399999 25.4"
   version="1.1"
   id="svg627"
   inkscape:version="1.2.1 (9c6d41e410, 2022-07-14)"
   sodipodi:docname="globe.svg"
   xmlns:inkscape="http://www.inkscape.org/namespaces/inkscape"
   xmlns:sodipodi="http://sodipodi.sourceforge.net/DTD/sodipodi-0.dtd"
   xmlns="http://www.w3.org/2000/svg"
   xmlns:svg="http://www.w3.org/2000/svg">
  <sodipodi:namedview
     id="namedview629"
     pagecolor="#ffffff"
     bordercolor="#666666"
     borderopacity="1.0"
     inkscape:showpageshadow="2"
     inkscape:pageopacity="0.0"
     inkscape:pagecheckerboard="0"
     inkscape:deskcolor="#d1d1d1"
     inkscape:document-units="mm"
     showgrid="false"
     inkscape:zoom="2.2347409"
     inkscape:cx="43.852959"
     inkscape:cy="36.022073"
     inkscape:window-width="1920"
     inkscape:window-height="1093"
     inkscape:window-x="0"
     inkscape:window-y="0"
     inkscape:window-maximized="1"
     inkscape:current-layer="layer1" />
  <defs
     id="defs624" />
  <g
     inkscape:label="图层 1"
     inkscape:groupmode="layer"
     id="layer1">
    <path
       style="color:#232629;fill:currentColor;fill-opacity:1;fill-rule:nonzero;stroke-width:2.11667"
       d="M 12.7,0 C 5.68599,0 0,5.68598 0,12.7 0,19.71403 5.68599,25.4 12.7,25.4 19.71402,25.4 25.4,19.71403 25.4,12.7 25.4,5.68598 19.71402,0 12.7,0 Z m 0,2.11667 c 0.36532,0 0.70256,0.03 1.05834,0.0661 0.0854,0.008 0.17983,-0.0104 0.26458,0 0.11138,0.0141 0.22046,0.0486 0.33073,0.0661 0.30406,0.0478 0.5652,0.12536 0.8599,0.19844 0.54312,0.13398 1.08103,0.31495 1.5875,0.52917 0.27924,0.11811 0.52736,0.25608 0.79375,0.39687 -1.6e-4,0.019 0.002,0.0429 0,0.0661 0.0613,0.0275 0.0948,0.14128 0.19843,0.19843 0.0381,0.0212 0.0303,0.0471 0.0661,0.0661 0.0613,0.0339 0.14497,0.0709 0.13229,0.13229 -0.0169,0.0847 -0.13917,0.0667 -0.19844,0.13229 0.008,0.12277 -0.10062,0.11589 -0.13229,0.19844 0.019,0.0529 0.12391,0.0688 0.13229,0.13229 -0.0104,0.0677 -0.15773,0.0624 -0.13229,0.13229 0.11432,0.0889 0.22279,0.0212 0.33073,0 0.23705,-0.0296 0.44927,-0.0116 0.59531,-0.13229 -0.0191,-0.11218 0.21112,-0.0966 0.19844,-0.19843 0.0607,0.0442 0.13822,0.0874 0.19844,0.13229 -0.0228,0.0213 -0.0406,0.0547 -0.0661,0.0661 -0.0445,0.0212 -0.0921,0.0408 -0.13229,0.0661 -0.0593,0.0381 -0.13064,0.0878 -0.19844,0.13229 -0.0487,0.0339 -0.14763,0.19844 -0.19843,0.19844 -0.0614,0 -0.15399,-0.0788 -0.19844,-0.0661 -0.0636,0.0212 -0.0605,0.10689 -0.13229,0.13229 -0.13968,0.0508 -0.41435,-0.0772 -0.46302,0.1323 0.0593,0.12065 0.29105,0.0645 0.39687,0.13229 0.0657,0.0423 0.1815,0.19261 0.19844,0.26458 0.0169,0.0593 0.0254,0.33338 0,0.39688 -0.0657,0.16933 -0.26832,0.1344 -0.46302,0.13229 H 17.5948 c -0.32805,-0.0212 -0.64559,-0.16881 -0.79375,0.0661 0.0105,0.17992 0.0403,0.30639 0,0.46302 -0.0296,0.1143 -0.20479,0.2321 -0.19844,0.33073 0.002,0.0508 0.1196,0.12647 0.13229,0.19844 0.008,0.0381 -0.0171,0.0963 0,0.13229 0.0551,0.10372 0.16722,-0.0212 0.26458,0 0.0931,0.0212 0.19844,0.16045 0.19844,0.26459 0,0.0741 -0.0195,0.19282 -0.0662,0.26458 -0.0931,0.1397 -0.26353,0.12224 -0.39687,0.19844 -0.11001,0.0635 -0.13282,0.22151 -0.19844,0.33073 -0.0699,0.11853 -0.15984,0.16118 -0.13229,0.33072 -0.0952,0.18839 -0.20005,0.30586 -0.39687,0.39688 -0.0572,0.0254 -0.14553,0.0281 -0.19844,0.0661 -0.0424,0.0296 -0.073,0.1307 -0.13229,0.19843 -0.074,0.0825 -0.15823,0.13494 -0.19844,0.19844 -0.0297,0.0487 -0.0345,0.1307 -0.0661,0.19844 -0.0466,0.0889 -0.13918,0.10911 -0.19843,0.19844 -0.0275,0.0423 -0.0366,0.1434 -0.0661,0.19843 -0.0678,0.12277 -0.14499,0.22278 -0.13229,0.33073 0.0105,0.1016 0.12594,0.10531 0.13229,0.19844 0.006,0.0508 -0.0682,0.0751 -0.0661,0.13229 0.002,0.0804 0.0599,0.13494 0.0661,0.19844 0.0148,0.15663 -0.10272,0.22362 -0.13229,0.33073 -0.0148,0.0508 0.0127,0.09 0,0.13229 -0.0254,0.0783 -0.13018,0.17103 -0.13229,0.26458 -0.002,0.0656 0.126,0.10531 0.13229,0.19844 0.005,0.0614 -0.0788,0.13917 -0.0661,0.19844 0.0233,0.1143 0.24185,0.24183 0.33073,0.33073 0.12064,0.12065 0.27783,0.20373 0.33073,0.33073 0.0445,0.10795 0.0498,0.31623 0.13229,0.39687 0.0614,0.0593 0.18628,0.0688 0.26459,0.13229 0.074,0.0571 0.12012,0.0688 0.19843,0.13229 0.12911,0.1016 0.32386,0.34555 0.52917,0.33073 0.10792,-0.0212 0.21009,-0.11112 0.33073,-0.13229 0.12488,-0.0212 0.26989,-0.0767 0.39687,-0.0661 0.0973,0.0212 0.22914,0.0725 0.33073,0.0661 0.10582,-0.0212 0.2101,-0.0132 0.33073,-0.0661 0.20955,-0.091 0.55513,-0.24226 0.8599,-0.19844 0.23281,0.0339 0.2339,0.29316 0.39687,0.39687 0.18625,0.0212 0.31487,-0.036 0.46302,0 0.11223,0.0275 0.25401,0.17653 0.26459,0.26459 0.0106,0.091 -0.11962,0.20701 -0.13229,0.26458 -0.0296,0.12277 0.0212,0.25241 0,0.33073 -0.0169,0.0614 -0.0682,0.13705 -0.0661,0.19844 0,0.055 0.0751,0.19219 0.13229,0.26458 0.0699,0.0889 0.17992,0.16891 0.26458,0.26458 0.1545,0.1778 0.22279,0.36037 0.33073,0.59532 0.0275,0.0593 -0.0254,0.12223 0,0.19843 -0.0466,0.35539 -0.16406,0.5987 -0.39687,0.99219 -0.11003,0.127 -0.2667,0.23834 -0.26458,0.39688 -0.008,0.381 0.21537,0.62388 0.19843,0.99218 -0.038,0.49509 0.0382,0.52938 0,0.79375 0.16722,0.0847 0.0487,0.35328 0,0.52917 -0.0719,0.20955 -0.15822,0.25718 -0.19843,0.39688 0.11235,0.049 0.27203,0.0288 0.39687,0 -0.0631,0.0664 -0.13369,0.13368 -0.19844,0.19843 -0.4788,0.47881 -1.02446,0.94254 -1.5875,1.32292 -1.09229,0.73794 -2.30718,1.29846 -3.63802,1.5875 -0.72716,0.15793 -1.47449,0.19844 -2.24896,0.19844 -0.40287,0 -0.80038,-0.0213 -1.19062,-0.0661 -0.31086,-0.0355 -0.62397,-0.0705 -0.92604,-0.13229 C 9.9841,22.96202 9.4215,22.70868 8.8637,22.48936 8.8439,22.45306 8.793,22.39966 8.7976,22.35707 c 0.11001,-0.0466 0.31645,0.15663 0.39687,0 0.0403,-0.0741 -0.053,-0.25665 0,-0.33073 0.0381,-0.0508 0.25243,-0.0513 0.33073,-0.0661 0.11223,-0.0212 0.26724,-0.0365 0.33073,-0.0661 0.0699,-0.0444 0.145,-0.20034 0.13229,-0.33072 -0.006,-0.0614 -0.0837,-0.0773 -0.13229,-0.1323 -0.0402,-0.0466 0.0275,-0.0878 0,-0.13229 -0.0507,-0.0741 -0.17727,-0.0905 -0.19843,-0.19844 0.15238,-0.0296 0.3752,0.12753 0.59531,0.0661 0.10372,-0.0296 0.28204,-0.23315 0.33073,-0.33073 0.0148,-0.0296 -0.0169,-0.0942 0,-0.13229 0.0191,-0.0381 0.0597,-0.11113 0.0661,-0.13229 0.0148,-0.0571 -0.0127,-0.028 0,-0.0661 0.0381,-0.10795 0.13493,-0.18775 0.19844,-0.26458 0.0487,-0.0593 0.15393,-0.13706 0.19844,-0.19844 0.0508,-0.0656 0.0324,-0.073 0.0661,-0.13229 0.0318,-0.19262 -0.11271,-0.36005 -0.0661,-0.52917 0.0508,-0.1905 0.34504,-0.31009 0.52916,-0.39687 0.0634,-0.0296 0.14553,-0.0471 0.19844,-0.0661 0.12699,-0.0444 0.27835,-0.09 0.39688,-0.13229 0.19895,-0.072 0.23336,-0.21505 0.33073,-0.39687 0.0466,-0.0847 0.12379,-0.20257 0.13229,-0.26459 0.008,-0.055 -0.0105,-0.0667 0,-0.13229 0.0105,-0.0614 -0.0169,-0.12647 0,-0.19844 0.0233,-0.091 0.0661,-0.29548 0.0661,-0.39687 0,-0.0847 -0.064,-0.12224 -0.0661,-0.19844 -0.0148,-0.27517 0.0969,-0.24659 0.19844,-0.39687 0.0507,-0.0741 0.0964,-0.21146 0.13229,-0.26459 0.17143,-0.254 0.48418,-0.34237 0.46302,-0.7276 -0.008,-0.127 -0.10535,-0.42281 -0.19844,-0.46302 -0.053,-0.0233 -0.12012,-0.0386 -0.19844,-0.0661 -0.24975,-0.0931 -0.46728,-0.37571 -0.7276,-0.39687 H 12.171 c -0.10163,0 -0.21645,-0.0513 -0.33073,-0.0661 -0.072,-0.0212 -0.22226,0.0212 -0.26459,0 -0.0657,-0.0317 -0.0794,-0.16245 -0.13229,-0.19844 -0.0424,-0.0296 -0.13283,-0.0429 -0.19843,-0.0661 -0.10373,-0.0381 -0.14395,-0.12383 -0.26459,-0.13229 -0.0381,0 -0.09,0.0212 -0.13229,0 -0.0657,-0.0212 -0.13706,-0.0281 -0.19844,-0.0661 -0.0761,-0.0466 -0.16669,-0.0667 -0.19843,-0.13229 0.0699,-0.22839 -0.15188,-0.26353 -0.19844,-0.39688 -0.0212,-0.0614 0.0212,-0.20955 0,-0.26458 -0.0275,-0.0783 -0.11165,-0.13282 -0.19844,-0.19844 -0.15239,-0.11853 -0.24502,-0.17113 -0.46302,-0.19844 -0.0973,-0.0212 -0.21432,0.0212 -0.33073,0 -0.12275,-0.0212 -0.30375,-0.0926 -0.39687,-0.19843 -0.089,-0.10372 -0.12014,-0.21569 -0.19844,-0.26459 -0.074,-0.0466 -0.14765,-0.0836 -0.19844,-0.13229 -0.0233,-0.0212 -0.045,-0.0175 -0.0661,-0.0661 -0.0381,-0.0783 -0.11271,-0.10319 -0.0661,-0.19844 -0.0846,-0.0423 -0.0413,0.081 -0.13229,0.0661 -0.0825,-0.11641 -0.14449,-0.2323 -0.33073,-0.19843 -0.0846,0.0212 -0.16511,0.19632 -0.26459,0.19843 -0.0825,0 -0.15664,-0.1815 -0.26458,-0.19843 -0.0825,-0.0212 -0.20743,0.0767 -0.26458,0.0661 -0.091,-0.0212 -0.11595,-0.0773 -0.19844,-0.13229 -0.0613,-0.0402 -0.16457,-0.13441 -0.19844,-0.13229 -0.10582,0 -0.18469,0.20934 -0.33073,0.13229 -0.0719,-0.091 0.15085,-0.11377 0.0662,-0.19844 -0.0635,-0.0614 -0.0815,0.0365 -0.13229,0.0661 -0.0593,0.0381 -0.13284,0.0429 -0.19844,0.0661 -0.14605,0.055 -0.28259,0.0709 -0.39687,0.13229 -0.10583,0.055 -0.13707,0.0899 -0.19844,0.19843 -0.0487,0.0889 -0.12436,0.26035 -0.19844,0.26459 -0.0889,0 -0.11801,-0.0963 -0.19844,-0.13229 -0.24339,-0.10584 -0.39425,0.0619 -0.59531,0.0661 -0.18625,0 -0.47148,-0.28734 -0.46302,-0.46302 0.006,-0.10795 0.0535,-0.26352 0.0662,-0.39687 0.0105,-0.10584 0.13031,-0.23421 0.13229,-0.33073 0.002,-0.13124 -0.24607,-0.18341 -0.33073,-0.19844 -0.19896,-0.036 -0.435,0.0889 -0.66146,0 -0.0424,-0.072 0.0408,-0.12647 0.0661,-0.19844 0.0148,-0.0381 -0.0148,-0.0878 0,-0.13229 0.0254,-0.0677 0.1667,-0.12647 0.19843,-0.19844 0.0233,-0.055 -0.0233,-0.12858 0,-0.19843 0.0275,-0.0762 0.12589,-0.14341 0.13229,-0.19844 0.008,-0.072 -0.0752,-0.15187 -0.13229,-0.19844 -0.17567,0.0212 -0.29528,0.0154 -0.39687,0.0661 -0.22857,0.10371 -0.16617,0.39105 -0.39688,0.46302 -0.0784,0.0254 -0.17568,0.0513 -0.26458,0.0661 -0.0388,0.0212 -0.0889,-0.004 -0.13229,0 0.004,-0.0214 -0.004,-0.0448 0,-0.0661 0.01,-0.0482 0.0556,-0.0843 0.0661,-0.13229 C 2.53236,9.76302 2.76547,9.09718 3.04297,8.46655 h 0.0661 c 0.0804,0.0212 0.1286,0.12594 0.19844,0.13229 0.19471,0.0212 0.23601,-0.17949 0.39687,-0.26458 0.16509,0.0233 0.2466,-0.0212 0.39688,0 0.10163,0.0212 0.2503,0.12382 0.33072,0.13229 0.0678,0 0.0688,-0.0746 0.1323,-0.0662 0.0634,0.0212 0.18785,0.12224 0.19843,0.19844 0.0105,0.0953 -0.0937,0.22574 -0.0661,0.33073 0.0995,0.1016 0.32121,0.13917 0.46302,0.19844 0.0931,-0.0783 0.0148,-0.22066 0,-0.33073 -0.002,-0.0487 0.006,-0.15399 0,-0.19844 -0.0105,-0.0762 -0.0661,-0.13282 -0.0661,-0.19844 0,-0.30268 0.25984,-0.41084 0.46302,-0.52916 0.0867,-0.0508 0.18839,-0.16034 0.26459,-0.19844 0.10792,-0.0529 0.17569,-0.0153 0.26458,-0.0661 0.16084,-0.091 0.272,-0.22764 0.39688,-0.33072 0.0572,-0.13759 -0.006,-0.32756 0,-0.46303 0.0572,-0.036 0.13712,0 0.19843,0 0.0973,-0.0212 0.1434,-0.1434 0.19844,-0.19843 0.0318,-0.0318 0.0942,-0.0344 0.13229,-0.0662 0.0973,-0.0762 0.11375,-0.16457 0.19844,-0.19844 0.0297,-0.0212 0.0857,-0.0513 0.13229,-0.0661 0.0636,-0.0212 0.163,-0.0281 0.26458,-0.0661 0.0657,-0.0233 0.23919,-0.0386 0.26459,-0.0661 0.0318,-0.0317 -0.008,-0.14976 0,-0.19844 C 7.92246,5.71412 8.25321,5.703 8.46697,5.62236 8.61512,5.56736 8.7649,5.39429 8.92999,5.42392 8.89819,5.53822 8.77018,5.55071 8.7977,5.68851 c 0.036,0.19261 0.263,-0.0386 0.33073,-0.0662 0.1291,-0.055 0.35984,-0.13494 0.52917,-0.19844 0.14815,-0.0529 0.40426,-0.094 0.26458,-0.26458 -0.11642,-0.0212 -0.163,0.09 -0.26458,0.13229 -0.0699,0.0212 -0.0731,-0.0598 -0.1323,-0.0661 -0.0572,0 -0.0751,0.0767 -0.13229,0.0661 C 9.33581,5.27038 9.26918,5.16299 9.26072,5.09314 9.23742,4.91534 9.38721,4.89344 9.45916,4.76241 9.41046,4.60155 9.19773,4.69361 9.06228,4.63012 c 0.0148,-0.0952 0.0863,-0.17727 0.19844,-0.19844 0.091,-0.0212 0.34185,0.0175 0.39688,0.0662 0.0318,0.0275 -0.0486,0.0878 0,0.13229 0.0551,0.0487 0.12647,0.0212 0.19843,0 0.0254,-0.12065 -0.15345,-0.054 -0.13229,-0.13229 0.14392,-0.0931 0.41964,-0.0429 0.59531,-0.0662 0.10164,-0.0212 0.23972,-0.0836 0.33073,-0.13229 0.0846,-0.0487 0.10954,-0.14658 0.19844,-0.0661 0.0254,0.0868 -0.0176,0.15187 -0.0661,0.19843 -0.16297,0.14394 -0.33603,0.29602 -0.46302,0.46303 0.0784,0.0762 0.19951,0.0513 0.33073,0.0661 0.0508,0.0212 0.14552,-0.0106 0.19844,0 0.0636,0.0212 0.14763,-0.0212 0.19844,0 0.0889,0.0212 0.10955,0.19844 0.19844,0.19844 0.14392,0 0.0826,-0.16891 0,-0.26458 0.0254,-0.0995 0.10223,-0.19431 0.0661,-0.26459 -0.0657,-0.13123 -0.31803,0.0392 -0.33073,-0.13229 -0.008,-0.10583 0.0942,-0.118 0.13229,-0.19844 -0.0169,-0.2032 0.15346,-0.21272 0.1323,-0.39687 -0.0105,-0.0762 -0.0794,-0.0603 -0.1323,-0.13229 -0.0275,-0.0381 -0.0345,-0.16881 -0.0661,-0.19844 -0.11002,-0.0931 -0.31803,-0.0202 -0.33073,-0.19844 -0.006,-0.10583 0.0148,-0.21727 0,-0.33073 -0.0148,-0.10795 -0.10535,-0.44185 -0.19844,-0.46302 -0.11852,-0.0254 -0.18892,0.19833 -0.33073,0.26458 -0.0761,0.036 -0.25243,0.0788 -0.33073,0.0661 -0.0507,-0.0212 -0.12593,-0.0328 -0.13229,-0.13229 -0.008,-0.0897 0.0992,-0.12972 0.13229,-0.19844 0.008,-0.0172 -0.004,-0.0424 0,-0.0661 0.1536,-0.0429 0.30685,-0.0957 0.46302,-0.1323 0.0887,-0.0206 0.17502,-0.0478 0.26459,-0.0661 0.0632,-0.0132 0.1348,0.0121 0.19843,0 0.28269,-0.0524 0.5698,-0.10283 0.8599,-0.13229 0.35187,-0.037 0.69618,-0.0661 1.05833,-0.0661 z M 8.40052,3.10886 C 8.33312,3.49531 7.97138,3.64918 7.54063,3.63802 7.44333,3.73112 7.52733,3.90578 7.47453,4.0349 7.43003,4.14285 7.25173,4.2418 7.1438,4.23334 c -0.0783,0 -0.19843,-0.12436 -0.19843,-0.19844 0,-0.091 0.1445,-0.0943 0.0661,-0.19844 0.003,-0.0212 0.0441,-0.045 0.0661,-0.0661 0.0428,-0.027 0.0891,-0.0397 0.13229,-0.0661 C 7.5934,3.46822 7.98659,3.29538 8.40048,3.10895 Z m 8.86355,0.39687 c -0.039,0.0212 -0.0318,0.045 -0.0661,0.0662 -0.0805,0.0487 -0.13703,0.10901 -0.19844,0.13229 -0.0867,0.0318 -0.18573,0.054 -0.19843,0.13229 -0.0105,0.0656 0.0684,0.0709 0.0661,0.13229 -0.0318,0.0783 -0.0491,0.10319 -0.0661,0.19844 0.10791,0.17568 0.32968,-0.0386 0.46302,-0.0661 0.0593,-0.0212 0.10054,-0.0154 0.13229,-0.0661 0.036,-0.0571 0.0388,-0.11758 0.0661,-0.19844 0.0297,-0.0889 0.1429,-0.12012 0.1323,-0.19844 -0.008,-0.0783 -0.19952,-0.14287 -0.33073,-0.13229 z M 5.68855,4.82865 c 0.10035,0.0806 0.24142,0.25527 0.0661,0.33073 -0.0212,0.0212 -0.27994,0.0746 -0.33073,0.0661 -0.0205,0 -0.0482,-0.0508 -0.0661,-0.0661 C 5.46717,5.05289 5.57468,4.93036 5.68855,4.82865 Z m 0.39687,0.39687 c 0.0508,0 0.073,0.12806 0.13229,0.1323 0.0572,0 0.0984,-0.0746 0.13229,-0.0661 C 6.439,5.31502 6.50085,5.49026 6.4162,5.5563 6.3463,5.5775 6.3346,5.4817 6.28391,5.4902 6.13998,5.5156 6.06112,5.82939 5.95318,5.82093 5.85155,5.79973 5.78327,5.56428 5.88698,5.4902 c 0.002,-0.0635 -0.004,-0.0667 0,-0.13229 0.0318,-0.0381 0.11374,-0.13865 0.19844,-0.1323 z m -0.52917,0.0661 c 0.0297,0 0.0556,-0.0212 0.0661,0 C 5.60755,5.4038 5.57675,5.43714 5.49006,5.49006 5.33979,5.58106 5.20801,5.69326 5.15933,5.88693 5.14453,5.94403 4.9667,6.09955 4.89475,6.08537 4.72754,6.04937 4.98895,5.73697 5.02704,5.6885 5.06944,5.6356 5.11074,5.6176 5.15933,5.5562 5.20803,5.4969 5.24513,5.39163 5.29162,5.35777 5.34242,5.32177 5.46732,5.28737 5.5562,5.29167 Z M 19.9099,5.62235 c 0.1672,-0.0212 0.25453,0.16383 0.33073,0.26458 0.0635,0.0826 0.227,0.20701 0.33073,0.26459 0.0593,0.0317 0.13282,0.10265 0.19844,0.13229 0.13756,0.0614 0.39051,0.26141 0.39687,0.39687 0.002,0.0677 -0.0768,0.13494 -0.0662,0.19844 0.10374,0.0212 0.19633,-0.16044 0.19844,-0.26458 0.19454,0.27518 0.36111,0.56654 0.52917,0.85989 0.0794,0.13855 0.19143,0.2541 0.26458,0.39688 -0.0934,0.0275 -0.11728,0.0413 -0.13229,0.13229 -0.0212,0.11853 0.0455,0.30977 -0.13229,0.33073 -0.11212,0.0212 -0.24238,-0.0963 -0.39688,-0.13229 -0.0635,-0.0212 -0.14763,0.0212 -0.19843,0 -0.11642,-0.0381 -0.099,-0.1941 -0.19844,-0.26459 -0.0572,-0.0402 -0.23971,-0.1217 -0.33073,-0.13229 -0.0572,0 -0.0731,0.0212 -0.13229,0 -0.0719,-0.0212 -0.20532,0.0296 -0.26459,0 -0.0572,-0.036 -0.1836,-0.14975 -0.19843,-0.19844 -0.0233,-0.0783 0.1942,-0.13218 0.19843,-0.19843 0.005,-0.0508 -0.0556,-0.12012 -0.0661,-0.19844 -0.008,-0.0466 0.0104,-0.10054 0,-0.13229 -0.0148,-0.055 -0.11168,-0.064 -0.19844,-0.0661 -0.0763,0 -0.13284,0 -0.19844,0 -0.0931,0 -0.28047,-0.008 -0.39687,0 -0.0699,0 -0.13282,-0.006 -0.19844,0 -0.18413,0.0212 -0.31909,-0.0212 -0.46302,0 -0.10374,0 -0.29952,0.0878 -0.39687,0.13229 -0.0487,0.0233 -0.0688,0.0344 -0.1323,0.0661 -0.0296,0.0212 -0.0941,0.0492 -0.13229,0.0661 -0.0592,0.0275 -0.14129,0.11535 -0.19844,0.13229 -0.0825,0.0212 -0.18046,-0.0212 -0.33072,0 -0.10791,0 -0.26247,-0.0693 -0.26459,-0.19844 -0.002,-0.19685 0.34293,-0.0963 0.52917,-0.13229 0.0699,-0.0212 0.11373,-0.0815 0.19844,-0.13229 0.0403,-0.0233 0.0281,-0.0408 0.0661,-0.0661 0.0634,-0.0444 0.18786,-0.14764 0.19844,-0.19844 0.008,-0.0466 -0.006,-0.0963 0,-0.13229 0.008,-0.0444 0.0751,-0.073 0.13229,-0.13229 0.0889,-0.0889 0.15452,-0.20701 0.26458,-0.26458 0.074,-0.0381 0.16458,-0.0709 0.19844,-0.1323 0.008,-0.0677 -0.002,-0.0688 0,-0.13229 0.0466,-0.0423 0.0942,-0.0577 0.13229,-0.0661 0.11432,-0.0254 0.1974,0.006 0.33073,0 0.0572,0 0.13706,0.0275 0.19844,0 0.0508,-0.0339 0.0815,-0.10689 0.13229,-0.13229 0.0551,-0.0296 0.13064,-0.0619 0.19844,-0.0662 z m 1.19062,1.25677 h -0.26458 c -0.0931,0 -0.20955,-0.0487 -0.26458,0 0.0784,0.127 0.2212,0.16669 0.39687,0.19844 0.0635,-0.0466 0.10272,-0.11737 0.13229,-0.19844 z M 6.61459,5.6885 h 0.19843 c 0.053,0 0.11113,-0.0212 0.1323,0 C 6.91142,5.8282 6.59236,5.80544 6.4823,5.7546 6.4883,5.7017 6.5468,5.6969 6.61459,5.6885 Z M 6.15157,5.95308 C 6.05907,6.02038 5.96759,6.10565 5.82084,6.15152 5.74044,6.17692 5.63722,6.17432 5.6224,6.08542 5.6054,5.97535 5.74884,6.02982 5.82084,6.01932 5.91394,5.99812 6.04362,5.95742 6.15157,5.95322 Z m 13.75833,0 c -0.0699,0.0233 -0.10374,0.17727 0,0.19844 0.0487,-0.0296 0.0789,-0.10742 0.0661,-0.19844 -0.0275,-0.0296 -0.0451,-0.0212 -0.0661,0 z m -0.13229,0.33073 c 0.002,0.11853 0.0233,0.22786 0,0.33073 0.0677,0.13123 0.23073,0.0227 0.26458,-0.0662 0.0403,-0.22013 -0.0307,-0.2921 -0.13229,-0.26458 -0.0339,0.0212 -0.0964,-0.0275 -0.13229,0 z M 2.24896,11.24475 c 0.11931,0.10795 0.18795,0.26003 0.33073,0.33072 0.053,0.0275 0.13071,0.0492 0.19844,0.0661 0.0551,0.0212 0.0794,-0.0169 0.13229,0 0.11223,0.0381 0.24185,0.0921 0.33073,0.13229 0.13546,0.0593 0.28046,0.263 0.39687,0.33073 0.006,0.0677 -0.0212,0.14764 0,0.19844 0.0551,0.0741 0.10954,0.14764 0.19844,0.19844 0.10792,0.0593 0.163,0.15144 0.26459,0.19843 0.036,0.0212 0.0772,-0.0212 0.13229,0 0.13968,0.0423 0.21008,0.234 0.33073,0.19844 0.0783,-0.0233 0.0534,-0.12224 0.0661,-0.19844 0.053,-0.0571 0.11583,-0.13229 0.19844,-0.13229 0.13121,0 0.14975,0.20246 0.19844,0.33073 0.0275,0.072 0.11331,0.12224 0.13229,0.19844 0.0318,0.13123 0.0275,0.51699 0,0.59531 -0.0339,0.0974 -0.18415,0.092 -0.26458,0.19844 -0.0381,0.0508 -0.0366,0.16245 -0.0662,0.19844 -0.0508,0.0614 -0.0941,0.073 -0.13229,0.13229 -0.0212,0.0317 -0.0472,0.0878 -0.0661,0.13229 -0.0636,0.13547 -0.18524,0.23389 -0.13229,0.39687 0.0212,0.0656 0.13229,0.12013 0.13229,0.19844 0,0.0931 -0.18362,0.16256 -0.19844,0.26459 -0.0105,0.0741 0.043,0.16573 0.0661,0.26458 0.0169,0.0741 0.15399,0.14975 0.19844,0.19844 0.074,0.0826 0.1307,0.22595 0.19844,0.33073 0.13333,0.20531 0.19952,0.46037 0.33072,0.66145 0.0699,0.10372 0.21802,0.15537 0.26459,0.26459 0.0233,0.055 -0.0212,0.14763 0,0.19843 0.0761,0.17145 0.42387,0.37857 0.59531,0.46303 0.0804,0.0402 0.19052,0.0238 0.26458,0.0661 0.11223,0.0635 0.33974,0.23209 0.39688,0.33073 0.0508,0.0889 0.0408,0.32142 0.0661,0.46302 0.0318,0.18627 -0.008,0.32787 0,0.52917 0.006,0.11006 0.0661,0.15536 0.0661,0.26458 0,0.0381 0.002,0.15822 0,0.19844 -0.002,0.13123 0.0105,0.26352 0,0.39687 -0.006,0.072 -0.005,0.13706 0,0.19844 0.006,0.0656 0.062,0.073 0.0662,0.13229 0.005,0.0614 -0.0726,0.14976 -0.0662,0.19844 0.0148,0.13335 0.10689,0.20775 0.13229,0.33073 0.0212,0.0974 0.0788,0.3466 0.0661,0.46302 -0.008,0.0614 -0.0576,0.12859 -0.0661,0.19844 -0.006,0.055 0.008,0.0815 0,0.13229 -0.006,0.0487 0.0126,0.0921 0,0.13229 C 6.94388,21.58625 6.87919,21.54205 6.81284,21.49726 6.24981,21.11688 5.70415,20.65315 5.22534,20.17434 5.16054,20.10954 5.08997,20.04231 5.02691,19.97591 4.64468,19.57343 4.28425,19.11163 3.96857,18.65299 3.93997,18.61139 3.93047,18.56269 3.90247,18.5207 3.53619,17.97192 3.23638,17.41551 2.97643,16.80091 2.95773,16.75661 2.92843,16.71321 2.91033,16.66861 2.68728,16.1204 2.51044,15.53835 2.38116,14.94882 2.35676,14.83756 2.33586,14.73064 2.31506,14.61809 2.26266,14.3354 2.21223,14.0483 2.18277,13.7582 c -0.0361,-0.35578 -0.0661,-0.69302 -0.0661,-1.05834 0,-0.503 0.0644,-0.9709 0.13229,-1.4552 z M 6.35,12.36922 c 0.10164,-0.0466 0.0825,0.11748 0,0.1323 -0.0783,0.0212 -0.0761,-0.0942 0,-0.1323 z"
       id="path26"
       class="ColorScheme-Text" />
  </g>
</svg>
